<?xml version="1.0" encoding="utf-8"?>
<!-- Generator: Adobe Illustrator 19.1.1, SVG Export Plug-In . SVG Version: 6.00 Build 0)  -->
<svg version="1.1" id="Layer_1" xmlns="http://www.w3.org/2000/svg" xmlns:xlink="http://www.w3.org/1999/xlink" x="0px" y="0px"
	 viewBox="0 0 108.7 39.3" style="enable-background:new 0 0 108.7 39.3;" xml:space="preserve">
<style type="text/css">
	.st0{fill-rule:evenodd;clip-rule:evenodd;fill:#606062;}
	.st1{fill-rule:evenodd;clip-rule:evenodd;fill:none;stroke:#FABE3C;stroke-width:0.7197;stroke-miterlimit:2.6131;}
</style>
<g>
	<path class="st0" d="M0.7,38.6c0.2,0,0.5,0,0.8,0c0.7,0,1.1-0.1,1.4-0.4c0.2-0.2,0.3-0.5,0.3-0.8c0-0.6-0.5-0.9-0.8-1v0
		c0.4-0.2,0.7-0.5,0.7-0.9c0-0.3-0.1-0.6-0.3-0.7c-0.3-0.2-0.6-0.3-1.1-0.3c-0.4,0-0.7,0-1,0.1L0.7,38.6L0.7,38.6z M1.2,34.9
		c0.1,0,0.2,0,0.5,0c0.5,0,0.9,0.2,0.9,0.7c0,0.4-0.3,0.7-0.9,0.7H1.2V34.9L1.2,34.9z M1.2,36.6h0.4c0.6,0,1,0.2,1,0.8
		c0,0.6-0.5,0.8-1,0.8c-0.2,0-0.3,0-0.4,0V36.6L1.2,36.6z M7.3,36.3H5.7V35h1.7v-0.4H5.2v4h2.3v-0.4H5.7v-1.5h1.6V36.3L7.3,36.3z
		 M10.3,38.6h0.5V35h1.2v-0.4h-3V35h1.2V38.6L10.3,38.6z M14.8,38.6h0.5V35h1.2v-0.4h-3V35h1.2V38.6L14.8,38.6z M20.4,36.3h-1.6V35
		h1.7v-0.4h-2.2v4h2.3v-0.4h-1.8v-1.5h1.6V36.3L20.4,36.3z M22.5,38.6H23v-1.8h0.5c0.5,0,0.7,0.2,0.8,0.8c0.1,0.5,0.2,0.9,0.3,1h0.5
		c-0.1-0.2-0.2-0.5-0.3-1.1c-0.1-0.4-0.3-0.7-0.6-0.8v0c0.4-0.1,0.8-0.5,0.8-1c0-0.3-0.1-0.6-0.3-0.8c-0.3-0.2-0.6-0.3-1.2-0.3
		c-0.4,0-0.7,0-1,0.1V38.6L22.5,38.6z M23,35c0.1,0,0.3,0,0.5,0c0.6,0,0.9,0.2,0.9,0.8c0,0.5-0.4,0.8-0.9,0.8H23V35L23,35z
		 M29.4,38.6h0.5V35h1.2v-0.4h-3V35h1.2V38.6L29.4,38.6z M34.4,34.5c-1.1,0-1.9,0.8-1.9,2.1c0,1.2,0.8,2.1,1.8,2.1
		c1,0,1.9-0.7,1.9-2.1C36.2,35.3,35.5,34.5,34.4,34.5L34.4,34.5z M34.4,34.9c0.9,0,1.3,0.8,1.3,1.6c0,0.9-0.5,1.7-1.3,1.7
		c-0.8,0-1.3-0.8-1.3-1.6C33.1,35.7,33.5,34.9,34.4,34.9L34.4,34.9L34.4,34.9z M39.8,34.5c-1.1,0-1.9,0.8-1.9,2.1
		c0,1.2,0.8,2.1,1.8,2.1c1,0,1.9-0.7,1.9-2.1C41.6,35.3,40.9,34.5,39.8,34.5L39.8,34.5z M39.8,34.9c0.9,0,1.3,0.8,1.3,1.6
		c0,0.9-0.5,1.7-1.3,1.7c-0.8,0-1.3-0.8-1.3-1.6C38.5,35.7,38.9,34.9,39.8,34.9L39.8,34.9L39.8,34.9z M43.6,38.6h2.3v-0.4h-1.7v-3.6
		h-0.5V38.6L43.6,38.6z M47.5,38.4c0.2,0.1,0.6,0.3,1,0.3c1,0,1.4-0.5,1.4-1.2c0-0.6-0.3-0.9-1-1.2c-0.6-0.2-0.8-0.4-0.8-0.8
		c0-0.3,0.2-0.6,0.8-0.6c0.4,0,0.6,0.1,0.8,0.2l0.1-0.4c-0.2-0.1-0.5-0.2-0.9-0.2c-0.8,0-1.3,0.5-1.3,1.1c0,0.6,0.4,0.9,1.1,1.1
		c0.5,0.2,0.8,0.4,0.8,0.8c0,0.4-0.3,0.7-0.8,0.7c-0.4,0-0.7-0.1-0.9-0.3L47.5,38.4L47.5,38.4z M53.8,39.3c0.2-0.3,0.4-0.9,0.6-1.5
		l-0.6,0.1c-0.1,0.4-0.2,1.1-0.4,1.4L53.8,39.3L53.8,39.3z M58.2,38.6c0.2,0,0.5,0,0.8,0c0.7,0,1.1-0.1,1.4-0.4
		c0.2-0.2,0.3-0.5,0.3-0.8c0-0.6-0.5-0.9-0.8-1v0c0.4-0.2,0.7-0.5,0.7-0.9c0-0.3-0.1-0.6-0.3-0.7c-0.3-0.2-0.6-0.3-1.1-0.3
		c-0.4,0-0.7,0-1,0.1V38.6L58.2,38.6z M58.7,34.9c0.1,0,0.2,0,0.5,0c0.5,0,0.9,0.2,0.9,0.7c0,0.4-0.3,0.7-0.9,0.7h-0.5V34.9
		L58.7,34.9z M58.7,36.6h0.4c0.6,0,1,0.2,1,0.8c0,0.6-0.5,0.8-1,0.8c-0.2,0-0.3,0-0.4,0V36.6L58.7,36.6z M64.8,36.3h-1.6V35h1.7
		v-0.4h-2.2v4H65v-0.4h-1.8v-1.5h1.6V36.3L64.8,36.3z M67.8,38.6h0.5V35h1.2v-0.4h-3V35h1.2V38.6L67.8,38.6z M72.3,38.6h0.5V35h1.2
		v-0.4h-3V35h1.2V38.6L72.3,38.6z M77.9,36.3h-1.6V35H78v-0.4h-2.2v4h2.3v-0.4h-1.8v-1.5h1.6V36.3L77.9,36.3z M80,38.6h0.5v-1.8h0.5
		c0.5,0,0.7,0.2,0.8,0.8c0.1,0.5,0.2,0.9,0.3,1h0.5c-0.1-0.2-0.2-0.5-0.3-1.1c-0.1-0.4-0.3-0.7-0.6-0.8v0c0.4-0.1,0.8-0.5,0.8-1
		c0-0.3-0.1-0.6-0.3-0.8c-0.3-0.2-0.6-0.3-1.2-0.3c-0.4,0-0.7,0-1,0.1V38.6L80,38.6z M80.6,35c0.1,0,0.3,0,0.5,0
		c0.6,0,0.9,0.2,0.9,0.8c0,0.5-0.4,0.8-0.9,0.8h-0.5V35L80.6,35z M89.2,38c-0.2,0.1-0.5,0.2-0.9,0.2c-1,0-1.6-0.6-1.6-1.6
		c0-1.1,0.6-1.7,1.6-1.7c0.3,0,0.6,0.1,0.8,0.2l0.1-0.4c-0.1-0.1-0.5-0.2-1-0.2c-1.3,0-2.1,0.9-2.1,2.1c0,1.3,0.9,2,2,2
		c0.5,0,0.9-0.1,1.1-0.2L89.2,38L89.2,38z M92.7,34.5c-1.1,0-1.9,0.8-1.9,2.1c0,1.2,0.8,2.1,1.8,2.1c1,0,1.9-0.7,1.9-2.1
		C94.5,35.3,93.8,34.5,92.7,34.5L92.7,34.5L92.7,34.5z M92.7,34.9c0.9,0,1.3,0.8,1.3,1.6c0,0.9-0.5,1.7-1.3,1.7
		c-0.8,0-1.3-0.8-1.3-1.6C91.4,35.7,91.8,34.9,92.7,34.9L92.7,34.9L92.7,34.9z M98.1,34.5c-1.1,0-1.9,0.8-1.9,2.1
		c0,1.2,0.8,2.1,1.8,2.1c1,0,1.9-0.7,1.9-2.1C99.9,35.3,99.2,34.5,98.1,34.5L98.1,34.5z M98.1,34.9c0.9,0,1.3,0.8,1.3,1.6
		c0,0.9-0.5,1.7-1.3,1.7c-0.8,0-1.3-0.8-1.3-1.6C96.8,35.7,97.2,34.9,98.1,34.9L98.1,34.9z M101.9,38.6h0.5V37l0.4-0.4l1.3,2h0.6
		l-1.6-2.3l1.5-1.7H104l-1.2,1.5c-0.1,0.1-0.2,0.3-0.3,0.4h0v-2h-0.5V38.6L101.9,38.6z M106.2,38.4c0.2,0.1,0.6,0.3,1,0.3
		c1,0,1.4-0.5,1.4-1.2c0-0.6-0.3-0.9-1-1.2c-0.6-0.2-0.8-0.4-0.8-0.8c0-0.3,0.2-0.6,0.8-0.6c0.4,0,0.6,0.1,0.8,0.2l0.1-0.4
		c-0.2-0.1-0.5-0.2-0.9-0.2c-0.8,0-1.3,0.5-1.3,1.1c0,0.6,0.4,0.9,1.1,1.1c0.5,0.2,0.8,0.4,0.8,0.8c0,0.4-0.3,0.7-0.8,0.7
		c-0.4,0-0.7-0.1-0.9-0.3L106.2,38.4L106.2,38.4z M106.2,38.4L106.2,38.4L106.2,38.4z"/>
</g>
<path class="st1" d="M71.3,10.8c0-1.1,0.9-2.1,2.1-2.1c1.1,0,2.1,0.9,2.1,2.1v4.4l9.2-6.1C85,8.8,85.5,8.7,86,8.8
	c0.6,0,1.1,0.3,1.5,0.8c0.3,0.4,0.5,0.8,0.5,1.3l0,16.6c0,1.1-0.9,2.1-2.1,2.1c-1.1,0-2.1-0.9-2.1-2.1V14.7l-8.3,5.5v7.2
	c0,1.1-0.9,2.1-2.1,2.1c-1.1,0-2.1-0.9-2.1-2.1C71.3,21.9,71.3,16.4,71.3,10.8 M71.3,10.8L71.3,10.8L71.3,10.8z"/>
<path class="st1" d="M0.7,2.5c0-1.1,0.9-2.1,2.1-2.1c1.1,0,2.1,0.9,2.1,2.1v24.9c0,1.1-0.9,2.1-2.1,2.1c-1.1,0-2.1-0.9-2.1-2.1V2.5z
	"/>
<path class="st1" d="M5.2,16.2C5.1,16.1,5.1,16,5,15.9c-0.1-0.3-0.2-0.5-0.2-0.8l0,0c0,0,0,0,0,0v0v0l0,0l0,0c0-0.3,0.1-0.6,0.2-0.8
	c0.1-0.1,0.1-0.2,0.2-0.3l8.3-12.4c0.6-1,1.9-1.2,2.9-0.6c1,0.6,1.2,1.9,0.6,2.9L9.4,15l7.5,11.3c0.6,1,0.4,2.2-0.6,2.9
	c-1,0.6-2.2,0.4-2.9-0.6L5.2,16.2z"/>
<path class="st1" d="M21.4,10.8c0-1.1,0.9-2.1,2.1-2.1c1.1,0,2.1,0.9,2.1,2.1v16.6c0,1.1-0.9,2.1-2.1,2.1c-1.1,0-2.1-0.9-2.1-2.1
	L21.4,10.8L21.4,10.8z M23.5,0.4c1.1,0,2.1,0.9,2.1,2.1c0,1.1-0.9,2.1-2.1,2.1c-1.1,0-2.1-0.9-2.1-2.1C21.4,1.4,22.4,0.4,23.5,0.4z"
	/>
<path class="st1" d="M63,10.8c0-1.1,0.9-2.1,2.1-2.1c1.1,0,2.1,0.9,2.1,2.1v16.6c0,1.1-0.9,2.1-2.1,2.1c-1.1,0-2.1-0.9-2.1-2.1V10.8
	L63,10.8z M65.1,0.4c1.1,0,2.1,0.9,2.1,2.1c0,1.1-0.9,2.1-2.1,2.1c-1.1,0-2.1-0.9-2.1-2.1C63,1.4,63.9,0.4,65.1,0.4z"/>
<path class="st1" d="M29.7,2.5c0-1.1,0.9-2.1,2.1-2.1c1.1,0,2.1,0.9,2.1,2.1v6.2h6.2c1.1,0,2.1,0.9,2.1,2.1c0,1.1-0.9,2.1-2.1,2.1
	h-6.2v12.5h8.3c1.1,0,2.1,0.9,2.1,2.1c0,1.1-0.9,2.1-2.1,2.1H31.8c-1.1,0-2.1-0.9-2.1-2.1V10.8V2.5 M29.7,2.5L29.7,2.5L29.7,2.5z"/>
<path class="st1" d="M94.1,12.9c-1.1,0-2.1-0.9-2.1-2.1c0-1.1,0.9-2.1,2.1-2.1h12.5c1.1,0,2.1,0.9,2.1,2.1c0,1.1-0.9,2.1-2.1,2.1
	H94.1L94.1,12.9z M94.1,29.5c-1.1,0-2.1-0.9-2.1-2.1c0-1.1,0.9-2.1,2.1-2.1h12.5c1.1,0,2.1,0.9,2.1,2.1c0,1.1-0.9,2.1-2.1,2.1H94.1
	L94.1,29.5z M94.1,21.2c-1.1,0-2.1-0.9-2.1-2.1c0-1.1,0.9-2.1,2.1-2.1h12.5c1.1,0,2.1,0.9,2.1,2.1c0,1.1-0.9,2.1-2.1,2.1H94.1z"/>
<path class="st1" d="M46.4,2.5c0-1.1,0.9-2.1,2.1-2.1c1.1,0,2.1,0.9,2.1,2.1v22.8h8.3c1.1,0,2.1,0.9,2.1,2.1c0,1.1-0.9,2.1-2.1,2.1
	H48.4l0,0c-0.3,0-0.6-0.1-0.9-0.2c0,0,0,0,0,0l0,0c0,0,0,0,0,0l0,0c0,0,0,0,0,0h0c0,0,0,0,0,0l0,0c0,0,0,0,0,0l0,0c0,0,0,0,0,0h0
	c0,0,0,0,0,0l0,0c0,0,0,0,0,0l0,0c0,0,0,0,0,0h0c0,0,0,0,0,0l0,0c0,0,0,0,0,0v0c0,0,0,0,0,0l0,0c0,0,0,0,0,0v0c0,0,0,0,0,0l0,0
	c0,0,0,0,0,0h0c0,0,0,0,0,0l0,0c0,0,0,0,0,0v0c0,0,0,0,0,0l0,0c0,0,0,0,0,0l0,0c0,0,0,0,0,0h0c0,0,0,0,0,0l0,0c0,0,0,0,0,0v0
	c0,0,0,0,0,0v0c0,0,0,0,0,0v0c0,0,0,0,0,0h0c0,0,0,0,0,0l0,0c0,0,0,0,0,0l0,0c0,0,0,0,0,0h0c0,0,0,0,0,0l0,0c0,0,0,0,0,0
	c-0.1-0.3-0.2-0.6-0.2-0.9L46.4,2.5z"/>
</svg>
