<?xml version="1.0" encoding="utf-8"?>
<!-- Generator: Adobe Illustrator 19.1.1, SVG Export Plug-In . SVG Version: 6.00 Build 0)  -->
<svg version="1.1" id="Layer_1" xmlns="http://www.w3.org/2000/svg" xmlns:xlink="http://www.w3.org/1999/xlink" x="0px" y="0px"
	 viewBox="0 0 152.8 154.7" style="enable-background:new 0 0 152.8 154.7;" xml:space="preserve">
<style type="text/css">
	.st0{fill-rule:evenodd;clip-rule:evenodd;fill:#F4F4F4;}
	.st1{fill-rule:evenodd;clip-rule:evenodd;fill:#DC9C76;}
	.st2{fill-rule:evenodd;clip-rule:evenodd;fill:#F7F4E8;}
	.st3{fill-rule:evenodd;clip-rule:evenodd;fill:#6B575E;}
	.st4{fill-rule:evenodd;clip-rule:evenodd;fill:#5C4B51;}
	.st5{fill-rule:evenodd;clip-rule:evenodd;fill:#8D8186;}
	.st6{fill-rule:evenodd;clip-rule:evenodd;fill:#988A8F;}
	.st7{fill-rule:evenodd;clip-rule:evenodd;fill:#F38257;}
	.st8{fill-rule:evenodd;clip-rule:evenodd;fill:#F0642F;}
	.st9{fill-rule:evenodd;clip-rule:evenodd;fill:#F59A77;}
	.st10{fill-rule:evenodd;clip-rule:evenodd;fill:#4D4D4D;}
	.st11{fill-rule:evenodd;clip-rule:evenodd;fill:#8CBEB2;}
	.st12{fill-rule:evenodd;clip-rule:evenodd;fill:#AFD2C9;}
	.st13{fill-rule:evenodd;clip-rule:evenodd;fill:#F3B562;}
	.st14{fill-rule:evenodd;clip-rule:evenodd;fill:#F7CB91;}
	.st15{fill-rule:evenodd;clip-rule:evenodd;fill:#BF866A;}
	.st16{fill-rule:evenodd;clip-rule:evenodd;fill:#00C1D5;}
	.st17{fill-rule:evenodd;clip-rule:evenodd;fill:#009DAD;}
	.st18{fill-rule:evenodd;clip-rule:evenodd;fill:#8CFFF0;}
	.st19{fill-rule:evenodd;clip-rule:evenodd;fill:#A69C9F;}
	.st20{fill-rule:evenodd;clip-rule:evenodd;fill:#9A8F93;}
	.st21{fill-rule:evenodd;clip-rule:evenodd;fill:#A3979B;}
	.st22{fill-rule:evenodd;clip-rule:evenodd;fill:#70A093;}
	.st23{fill-rule:evenodd;clip-rule:evenodd;fill:#B8D7CF;}
	.st24{fill-rule:evenodd;clip-rule:evenodd;fill:#A6C4BC;}
	.st25{fill-rule:evenodd;clip-rule:evenodd;fill:#FF7B7B;}
	.st26{fill-rule:evenodd;clip-rule:evenodd;fill:#F8B59C;}
	.st27{fill-rule:evenodd;clip-rule:evenodd;fill:#FFC783;}
	.st28{fill-rule:evenodd;clip-rule:evenodd;fill:#F8D19E;}
	.st29{fill-rule:evenodd;clip-rule:evenodd;fill:#FFDCB2;}
	.st30{fill-rule:evenodd;clip-rule:evenodd;fill:#E9C2AA;}
	.st31{fill-rule:evenodd;clip-rule:evenodd;fill:#F2EBBF;}
	.st32{fill-rule:evenodd;clip-rule:evenodd;fill:#EDEDED;}
	.st33{fill-rule:evenodd;clip-rule:evenodd;fill:#F2F2F2;}
	.st34{fill-rule:evenodd;clip-rule:evenodd;fill:#7B6A58;}
	.st35{fill-rule:evenodd;clip-rule:evenodd;fill:#A3978A;}
	.st36{fill-rule:evenodd;clip-rule:evenodd;fill:#FFD8A8;}
	.st37{fill-rule:evenodd;clip-rule:evenodd;fill:#F06060;}
	.st38{fill-rule:evenodd;clip-rule:evenodd;fill:#82AFA3;}
	.st39{fill-rule:evenodd;clip-rule:evenodd;fill:#A57359;}
	.st40{fill-rule:evenodd;clip-rule:evenodd;fill:#666666;}
	.st41{fill-rule:evenodd;clip-rule:evenodd;fill:#E7BA9F;}
</style>
<rect x="24" y="25.2" transform="matrix(-0.4631 0.8863 -0.8863 -0.4631 180.9653 45.9435)" class="st0" width="105.1" height="105.1"/>
<path class="st1" d="M125.1,137.7h-18.9c-0.5,0-0.8-0.4-0.8-0.8v-24c0-0.5,0.4-0.8,0.8-0.8h18.9c0.5,0,0.8,0.4,0.8,0.8v24
	C125.9,137.4,125.5,137.7,125.1,137.7z"/>
<path class="st2" d="M79.9,74.1C79.9,74.1,79.9,74.1,79.9,74.1c-0.3,0-0.6-0.3-0.6-0.6l0.5-13.3c0-0.3,0.3-0.6,0.6-0.6c0,0,0,0,0,0
	c0.3,0,0.6,0.3,0.6,0.6l-0.5,13.3C80.5,73.8,80.2,74.1,79.9,74.1z"/>
<path class="st3" d="M56.3,36h-3.6c-0.5,0-1-0.4-1-1c0-0.5,0.4-1,1-1h3.6c0.5,0,1,0.4,1,1C57.2,35.6,56.8,36,56.3,36z"/>
<path class="st3" d="M28.7,36H25c-0.5,0-1-0.4-1-1c0-0.5,0.4-1,1-1h3.6c0.5,0,1,0.4,1,1C29.6,35.6,29.2,36,28.7,36z"/>
<path class="st4" d="M52.3,49.3H29c-0.6,0-1-0.5-1-1V29.6c0-0.6,0.5-1,1-1h23.2c0.6,0,1,0.5,1,1v18.7C53.3,48.9,52.8,49.3,52.3,49.3
	z"/>
<path class="st5" d="M29.9,47.3c-0.3,0-0.6-0.3-0.6-0.6V34.1c0-0.3,0.3-0.6,0.6-0.6c0.3,0,0.6,0.3,0.6,0.6v12.6
	C30.5,47.1,30.3,47.3,29.9,47.3z"/>
<path class="st3" d="M42.6,30.9v-0.6h-3.9c-0.1,0-0.2,0-0.3-0.1c-0.1-0.1-0.1-0.2-0.1-0.3V27c0-0.1,0-0.2,0.1-0.3
	c0.1-0.1,0.2-0.1,0.3-0.1h3.9c0.1,0,0.2,0,0.3,0.1C43,26.7,43,26.8,43,27v2.9c0,0.1,0,0.2-0.1,0.3c-0.1,0.1-0.2,0.1-0.3,0.1v1.1
	c0.4,0,0.8-0.2,1.1-0.5c0.3-0.3,0.5-0.7,0.5-1.1V27c0-0.4-0.2-0.8-0.5-1.1c-0.3-0.3-0.7-0.5-1.1-0.5h-3.9c-0.4,0-0.8,0.2-1.1,0.5
	c-0.3,0.3-0.5,0.7-0.5,1.1v2.9c0,0.4,0.2,0.8,0.5,1.1c0.3,0.3,0.7,0.5,1.1,0.5h3.9V30.9z"/>
<path class="st3" d="M53.2,32.2H28.1c-0.5,0-0.4-0.4-0.4-1v-2.1c0-0.5,0.5-1,1.3-1h23.5c0.7,0,1.3,0.4,1.3,1v2.1
	C53.6,31.8,53.7,32.2,53.2,32.2z"/>
<path class="st6" d="M29.3,31.8c-0.3,0-0.6-0.3-0.6-0.6v-1.8c0-0.3,0.3-0.6,0.6-0.6c0.3,0,0.6,0.3,0.6,0.6v1.8
	C29.9,31.5,29.6,31.8,29.3,31.8z"/>
<path class="st7" d="M66.8,32.4c-0.2,0-0.3,0.1-0.3,0.3V35c0,0.2,0.1,0.3,0.3,0.3h3c0.2,0,0.3-0.1,0.3-0.3v-2.3
	c0-0.2-0.1-0.3-0.3-0.3H66.8L66.8,32.4z M69.7,36.1h-3c-0.6,0-1.1-0.5-1.1-1.1v-2.3c0-0.6,0.5-1.1,1.1-1.1h3c0.6,0,1.1,0.5,1.1,1.1
	V35C70.9,35.6,70.4,36.1,69.7,36.1z"/>
<path class="st7" d="M79.9,39.5h-2.7c-0.4,0-0.7-0.3-0.7-0.7l0,0c0-0.4,0.3-0.7,0.7-0.7h2.7c0.4,0,0.7,0.3,0.7,0.7l0,0
	C80.6,39.2,80.3,39.5,79.9,39.5z"/>
<path class="st7" d="M59.3,39.5h-2.7c-0.4,0-0.7-0.3-0.7-0.7c0-0.4,0.3-0.7,0.7-0.7h2.7c0.4,0,0.7,0.3,0.7,0.7
	C60,39.2,59.7,39.5,59.3,39.5z"/>
<path class="st8" d="M76.6,49.4H59.8c-0.6,0-1-0.5-1-1V35c0-0.6,0.5-1,1-1h16.8c0.6,0,1,0.5,1,1v13.4C77.7,49,77.2,49.4,76.6,49.4z"
	/>
<path class="st7" d="M77.6,36.7H58.9c-0.4,0-0.3-0.3-0.3-0.7v-1.6c0-0.4,0.4-0.7,0.9-0.7H77c0.6,0,0.9,0.3,0.9,0.7V36
	C77.9,36.4,78,36.7,77.6,36.7z"/>
<path class="st9" d="M60.4,48.1c-0.3,0-0.6-0.3-0.6-0.6v-9.4c0-0.3,0.3-0.6,0.6-0.6c0.3,0,0.6,0.3,0.6,0.6v9.4
	C61,47.8,60.8,48.1,60.4,48.1z"/>
<path class="st9" d="M60.1,36.4c-0.3,0-0.6-0.3-0.6-0.6v-1c0-0.3,0.3-0.6,0.6-0.6c0.3,0,0.6,0.3,0.6,0.6v1
	C60.7,36.1,60.4,36.4,60.1,36.4z"/>
<path class="st10" d="M119.7,38.2l-13.9,1.4c-0.3,0-0.5-0.2-0.6-0.5l-0.1-0.6c0-0.3,0.2-0.5,0.5-0.6l13.9-1.4c0.3,0,0.5,0.2,0.6,0.5
	l0.1,0.6C120.2,37.9,120,38.2,119.7,38.2z"/>
<path class="st11" d="M111,44.7l-12,1.2c-0.5,0.1-1-0.3-1.1-0.9l-0.6-6.2c-0.1-1.1-0.1-1,0.9-1.1l12-1.2c1-0.1,1-0.1,1.1,0.9
	l0.6,6.2C112,44.1,111.6,44.6,111,44.7z"/>
<path class="st12" d="M98.6,42.8l-0.4-3.7c0-0.3,0.2-0.6,0.5-0.6c0,0,0,0,0.1,0c0.3,0,0.6,0.2,0.6,0.5l0.4,3.7L98.6,42.8z"/>
<path class="st10" d="M126.5,42.7l-13.9,1.4c-0.3,0-0.5-0.2-0.6-0.5L112,43c0-0.3,0.2-0.5,0.5-0.6l13.9-1.4c0.3,0,0.5,0.2,0.6,0.5
	l0.1,0.6C126.9,42.4,126.7,42.7,126.5,42.7z"/>
<path class="st8" d="M113.7,45.8l-17.3,1.7c-1.2,0.1-2.2-0.7-2.3-1.9l0-0.2c-0.2-2.1-0.2-2.1,1.9-2.3l17.3-1.7
	c2.1-0.2,2.1-0.1,2.3,1.9l0,0.2C115.7,44.6,114.8,45.6,113.7,45.8z"/>
<path class="st10" d="M131.1,47h-14c-0.3,0-0.5-0.2-0.5-0.5v-0.6c0-0.3,0.2-0.5,0.5-0.5h14c0.3,0,0.5,0.2,0.5,0.5v0.6
	C131.6,46.8,131.4,47,131.1,47z"/>
<path class="st13" d="M114.8,49.3H94.4c-1.4,0-2.5-1.1-2.5-2.5v-0.3c0-2.5,0-2.5,2.5-2.5h20.5c2.5,0,2.5,0.2,2.5,2.5v0.3
	C117.3,48.2,116.2,49.3,114.8,49.3z"/>
<path class="st14" d="M95.5,48.6c-0.6,0-1-0.1-1.4-0.3c-0.4-0.2-0.6-0.5-0.7-0.7c-0.1-0.2-0.1-0.3-0.2-0.5c0-0.2,0-0.3,0-0.3v-1.2
	c0-0.3,0.3-0.6,0.6-0.6c0.3,0,0.6,0.3,0.6,0.6v1.2l0,0c0,0,0,0,0,0.1c0,0.1,0.1,0.2,0.1,0.3c0.1,0.1,0.1,0.1,0.3,0.2
	c0.2,0.1,0.4,0.1,0.8,0.1c0.1,0,0.1,0,0.2,0c0,0,0,0,0,0c0.3,0,0.6,0.2,0.6,0.6c0,0.3-0.2,0.6-0.6,0.6
	C95.7,48.6,95.6,48.6,95.5,48.6C95.5,48.6,95.5,48.6,95.5,48.6z"/>
<path class="st11" d="M88.4,38.4h-6.8l0.7,0.9v9.5c0,0.3,0.2,0.5,0.5,0.5h5.6c0.3,0,0.5-0.2,0.5-0.5v-9.9
	C88.9,38.6,88.7,38.4,88.4,38.4z"/>
<path class="st11" d="M89.8,46.2v-0.3h-0.8c0,0-0.1,0-0.1,0c0,0,0-0.1,0-0.1v-5.3c0,0,0-0.1,0-0.1c0,0,0.1,0,0.1,0h0.8
	c0,0,0.1,0,0.1,0c0,0,0,0.1,0,0.1v5.3c0,0,0,0.1,0,0.1c0,0-0.1,0-0.1,0v0.7c0.5,0,0.8-0.4,0.8-0.8v-5.3c0-0.5-0.4-0.8-0.8-0.8h-0.8
	c-0.5,0-0.8,0.4-0.8,0.8v5.3c0,0.5,0.4,0.8,0.8,0.8h0.8V46.2z"/>
<path class="st12" d="M83.9,48.5c-0.3,0-0.6-0.3-0.6-0.6v-7.4c0-0.3,0.3-0.6,0.6-0.6c0.3,0,0.6,0.3,0.6,0.6v7.4
	C84.5,48.3,84.2,48.5,83.9,48.5z"/>
<path class="st12" d="M88.3,40.1h-1.2c-0.1,0-0.2-0.1-0.2-0.2c0-0.1,0.1-0.2,0.2-0.2h1.3c0,0,0.1,0,0.1,0
	C88.4,39.9,88.3,40,88.3,40.1z"/>
<path class="st12" d="M88.4,40.1h-0.1c0.1-0.1,0.1-0.2,0.2-0.3c0,0,0.1,0.1,0.1,0.1C88.6,40,88.5,40.1,88.4,40.1z"/>
<path class="st12" d="M88.2,41.8h-1.1c-0.1,0-0.2-0.1-0.2-0.2c0-0.1,0.1-0.2,0.2-0.2h1.1V41.8z"/>
<path class="st12" d="M88.4,41.8h-0.2v-0.3h0.2c0.1,0,0.2,0.1,0.2,0.2C88.6,41.7,88.5,41.8,88.4,41.8z"/>
<path class="st12" d="M88.2,43.5h-1.1c-0.1,0-0.2-0.1-0.2-0.2c0-0.1,0.1-0.2,0.2-0.2h1.1V43.5z"/>
<path class="st12" d="M88.4,43.5h-0.2v-0.3h0.2c0.1,0,0.2,0.1,0.2,0.2C88.6,43.4,88.5,43.5,88.4,43.5z"/>
<path class="st12" d="M88.2,45.1h-1.1c-0.1,0-0.2-0.1-0.2-0.2c0-0.1,0.1-0.2,0.2-0.2h1.1V45.1z"/>
<path class="st12" d="M88.4,45.1h-0.2v-0.3h0.2c0.1,0,0.2,0.1,0.2,0.2C88.6,45.1,88.5,45.1,88.4,45.1z"/>
<path class="st12" d="M88.4,46.8h-1.3c-0.1,0-0.2-0.1-0.2-0.2c0-0.1,0.1-0.2,0.2-0.2h1.3c0.1,0,0.2,0.1,0.2,0.2
	C88.6,46.7,88.5,46.8,88.4,46.8z"/>
<path class="st12" d="M88.4,48.5h-1.3c-0.1,0-0.2-0.1-0.2-0.2c0-0.1,0.1-0.2,0.2-0.2h1.3c0.1,0,0.2,0.1,0.2,0.2
	C88.6,48.4,88.5,48.5,88.4,48.5z"/>
<path class="st1" d="M128.4,52.6H23.6c-0.4,0-0.7-0.3-0.7-0.7v-2c0-0.4,0.3-0.7,0.7-0.7h104.8c0.4,0,0.7,0.3,0.7,0.7v2
	C129.1,52.3,128.7,52.6,128.4,52.6z"/>
<path class="st15" d="M43.2,54.1H31.4c-0.1,0-0.2-0.1-0.2-0.2v-1.2c0-0.1,0.1-0.2,0.2-0.2h11.8c0.1,0,0.2,0.1,0.2,0.2V54
	C43.4,54.1,43.3,54.1,43.2,54.1z"/>
<path class="st15" d="M120,54.1h-11.8c-0.1,0-0.2-0.1-0.2-0.2v-1.2c0-0.1,0.1-0.2,0.2-0.2H120c0.1,0,0.2,0.1,0.2,0.2V54
	C120.2,54.1,120.1,54.1,120,54.1z"/>
<circle class="st15" cx="33.9" cy="50.9" r="0.6"/>
<circle class="st15" cx="40.9" cy="50.9" r="0.6"/>
<circle class="st15" cx="110.6" cy="50.9" r="0.6"/>
<circle class="st15" cx="117.6" cy="50.9" r="0.6"/>
<path class="st8" d="M85.3,60.6v-0.3h-4.5c-0.1,0-0.1,0-0.1-0.1c0,0-0.1-0.1-0.1-0.1V57c0-0.1,0-0.1,0.1-0.1c0,0,0.1-0.1,0.1-0.1
	h4.5c0.1,0,0.1,0,0.1,0.1c0,0,0.1,0.1,0.1,0.1v3.1c0,0.1,0,0.1-0.1,0.1c0,0-0.1,0.1-0.1,0.1v0.6c0.5,0,0.8-0.4,0.8-0.8V57
	c0-0.5-0.4-0.8-0.8-0.8h-4.5c-0.5,0-0.8,0.4-0.8,0.8v3.1c0,0.5,0.4,0.8,0.8,0.8h4.5V60.6z"/>
<path class="st13" d="M87,76.3h-7.8c-0.5,0-0.9-0.4-0.9-0.9l0.6-15.8c0-0.5,0.4-0.9,0.9-0.9h6.7c0.5,0,0.9,0.4,0.9,0.9l0.5,15.8
	C87.9,75.8,87.5,76.3,87,76.3z"/>
<circle class="st4" cx="79.9" cy="60.9" r="0.3"/>
<circle class="st4" cx="81.5" cy="60.9" r="0.3"/>
<circle class="st4" cx="83" cy="60.9" r="0.3"/>
<circle class="st4" cx="84.6" cy="60.9" r="0.3"/>
<circle class="st4" cx="86.2" cy="60.9" r="0.3"/>
<circle class="st4" cx="79.9" cy="63.4" r="0.3"/>
<circle class="st4" cx="81.5" cy="63.4" r="0.3"/>
<circle class="st4" cx="83" cy="63.4" r="0.3"/>
<circle class="st4" cx="84.6" cy="63.4" r="0.3"/>
<circle class="st4" cx="86.2" cy="63.4" r="0.3"/>
<circle class="st4" cx="80.7" cy="62.2" r="0.3"/>
<circle class="st4" cx="82.3" cy="62.2" r="0.3"/>
<circle class="st4" cx="83.8" cy="62.2" r="0.3"/>
<circle class="st4" cx="85.4" cy="62.2" r="0.3"/>
<circle class="st4" cx="79.9" cy="65.9" r="0.3"/>
<circle class="st4" cx="81.5" cy="65.9" r="0.3"/>
<circle class="st4" cx="83" cy="65.9" r="0.3"/>
<circle class="st4" cx="84.6" cy="65.9" r="0.3"/>
<circle class="st4" cx="86.2" cy="65.9" r="0.3"/>
<circle class="st4" cx="80.7" cy="64.6" r="0.3"/>
<circle class="st4" cx="82.3" cy="64.6" r="0.3"/>
<circle class="st4" cx="83.8" cy="64.6" r="0.3"/>
<circle class="st4" cx="85.4" cy="64.6" r="0.3"/>
<circle class="st4" cx="79.9" cy="68.5" r="0.3"/>
<circle class="st4" cx="81.5" cy="68.5" r="0.3"/>
<circle class="st4" cx="83" cy="68.5" r="0.3"/>
<circle class="st4" cx="84.6" cy="68.5" r="0.3"/>
<circle class="st4" cx="86.2" cy="68.5" r="0.3"/>
<circle class="st4" cx="80.7" cy="67.2" r="0.3"/>
<circle class="st4" cx="82.3" cy="67.2" r="0.3"/>
<circle class="st4" cx="83.8" cy="67.2" r="0.3"/>
<circle class="st4" cx="85.4" cy="67.2" r="0.3"/>
<circle class="st4" cx="79.9" cy="71.1" r="0.3"/>
<circle class="st4" cx="81.5" cy="71.1" r="0.3"/>
<circle class="st4" cx="83" cy="71.1" r="0.3"/>
<circle class="st4" cx="84.6" cy="71.1" r="0.3"/>
<circle class="st4" cx="86.2" cy="71.1" r="0.3"/>
<circle class="st4" cx="80.7" cy="69.8" r="0.3"/>
<circle class="st4" cx="82.3" cy="69.8" r="0.3"/>
<circle class="st4" cx="83.8" cy="69.8" r="0.3"/>
<circle class="st4" cx="85.4" cy="69.8" r="0.3"/>
<circle class="st4" cx="79.9" cy="73.6" r="0.3"/>
<circle class="st4" cx="81.5" cy="73.6" r="0.3"/>
<circle class="st4" cx="83" cy="73.6" r="0.3"/>
<circle class="st4" cx="84.6" cy="73.6" r="0.3"/>
<circle class="st4" cx="86.2" cy="73.6" r="0.3"/>
<circle class="st4" cx="80.7" cy="72.3" r="0.3"/>
<circle class="st4" cx="82.3" cy="72.3" r="0.3"/>
<circle class="st4" cx="83.8" cy="72.3" r="0.3"/>
<circle class="st4" cx="85.4" cy="72.3" r="0.3"/>
<rect x="78" y="75" class="st8" width="10" height="1.3"/>
<path class="st16" d="M76.8,60.9C76.8,68.1,71,74,63.7,74s-13.1-5.9-13.1-13.1H76.8z"/>
<path class="st17" d="M77.2,60.9h-27c-0.3,0-0.6-0.3-0.6-0.6l0,0c0-0.3,0.3-0.6,0.6-0.6h27c0.3,0,0.6,0.3,0.6,0.6l0,0
	C77.8,60.6,77.5,60.9,77.2,60.9z"/>
<circle class="st4" cx="67.1" cy="71.8" r="0.4"/>
<circle class="st4" cx="60.5" cy="71.8" r="0.4"/>
<circle class="st4" cx="63.7" cy="71.8" r="0.4"/>
<circle class="st4" cx="68.7" cy="70" r="0.4"/>
<circle class="st4" cx="65.4" cy="70" r="0.4"/>
<circle class="st4" cx="62.1" cy="70" r="0.4"/>
<circle class="st4" cx="58.8" cy="70" r="0.4"/>
<circle class="st4" cx="52.1" cy="62.6" r="0.4"/>
<circle class="st4" cx="55.5" cy="62.6" r="0.4"/>
<circle class="st4" cx="58.8" cy="62.6" r="0.4"/>
<circle class="st4" cx="62.1" cy="62.6" r="0.4"/>
<circle class="st4" cx="65.4" cy="62.6" r="0.4"/>
<circle class="st4" cx="72" cy="62.6" r="0.4"/>
<circle class="st4" cx="68.7" cy="62.6" r="0.4"/>
<circle class="st4" cx="75.3" cy="62.6" r="0.4"/>
<circle class="st4" cx="70.3" cy="68.1" r="0.4"/>
<circle class="st4" cx="67" cy="68.1" r="0.4"/>
<circle class="st4" cx="63.7" cy="68.1" r="0.4"/>
<circle class="st4" cx="60.5" cy="68.1" r="0.4"/>
<circle class="st4" cx="57.2" cy="68.1" r="0.4"/>
<circle class="st4" cx="72" cy="66.3" r="0.4"/>
<circle class="st4" cx="68.7" cy="66.3" r="0.4"/>
<circle class="st4" cx="65.4" cy="66.3" r="0.4"/>
<circle class="st4" cx="62.1" cy="66.3" r="0.4"/>
<circle class="st4" cx="58.8" cy="66.3" r="0.4"/>
<circle class="st4" cx="55.5" cy="66.3" r="0.4"/>
<circle class="st4" cx="73.7" cy="64.4" r="0.4"/>
<circle class="st4" cx="70.4" cy="64.4" r="0.4"/>
<circle class="st4" cx="67.1" cy="64.4" r="0.4"/>
<circle class="st4" cx="63.7" cy="64.4" r="0.4"/>
<circle class="st4" cx="60.4" cy="64.4" r="0.4"/>
<circle class="st4" cx="57.1" cy="64.4" r="0.4"/>
<circle class="st4" cx="53.8" cy="64.4" r="0.4"/>
<path class="st4" d="M68.2,76.3h-8.7c-0.5,0-0.8-0.4-0.8-0.8c0-0.5,0.4-0.8,0.8-0.8h8.7c0.5,0,0.8,0.4,0.8,0.8
	C69.1,75.9,68.7,76.3,68.2,76.3z"/>
<path class="st4" d="M59.2,74.8c1.1-0.3,1.2-1.3,1.2-1.3s3.1,1,7,0c0,0,0.1,1,1.2,1.3H59.2z"/>
<path class="st18" d="M57.9,71.6c-0.1,0-0.2,0-0.3-0.1c-1.3-0.8-2.3-1.8-3-2.8c-0.8-1-1.4-1.9-1.8-2.8c-0.8-1.7-1-3.1-1-3.1
	c0-0.1,0-0.2,0-0.3c0,0.2,0.2,0.4,0.4,0.4c0.2,0,0.4-0.2,0.4-0.4c0-0.2-0.1-0.4-0.3-0.4c0,0,0,0,0.1,0c0,0,0.1,0,0.1,0
	c0.3,0,0.5,0.2,0.6,0.5l0,0l0,0l0,0c0,0,0,0,0,0.1c0,0.1,0,0.2,0.1,0.3c0.1,0.3,0.2,0.7,0.4,1.2c0.4,1,1,2.4,2.1,3.7
	c0.7,0.9,1.6,1.8,2.8,2.5c0.3,0.2,0.3,0.5,0.2,0.8C58.3,71.5,58.1,71.6,57.9,71.6z"/>
<path class="st19" d="M52.1,62.9c-0.2,0-0.4-0.2-0.4-0.4c0.1-0.2,0.2-0.3,0.4-0.4c0.2,0,0.3,0.2,0.3,0.4
	C52.5,62.8,52.4,62.9,52.1,62.9z"/>
<path class="st4" d="M46.9,58.4c-0.3,5-4.6,8.8-9.6,8.5c-5-0.3-8.8-4.6-8.5-9.6L46.9,58.4z"/>
<path class="st3" d="M47.2,58.5l-18.8-1.2c-0.2,0-0.3-0.2-0.3-0.3l0-0.3c0-0.2,0.2-0.3,0.3-0.3l18.8,1.2c0.2,0,0.3,0.2,0.3,0.3
	l0,0.3C47.6,58.4,47.4,58.5,47.2,58.5z"/>
<path class="st3" d="M41,67.8l-7.6-0.5c-0.3,0-0.5-0.3-0.5-0.5l0-0.1c0-0.3,0.3-0.5,0.5-0.5l7.6,0.5c0.3,0,0.5,0.3,0.5,0.5l0,0.1
	C41.5,67.6,41.3,67.8,41,67.8z"/>
<polygon class="st3" points="28.8,58.9 28.8,58.4 46.8,59.5 46.7,60 "/>
<path class="st20" d="M30.5,60.9c-0.4-0.9-0.6-1.6-0.6-1.9l1.2,0.1c0,0.2,0.1,0.4,0.2,0.6c0.1,0.3,0.3,0.7,0.5,1.1L30.5,60.9
	L30.5,60.9z M31,58.5l-1.1-0.1c0.1-0.2,0.2-0.3,0.5-0.4c0,0,0.1,0,0.1,0C30.7,58.1,30.9,58.3,31,58.5z"/>
<path class="st21" d="M31.1,59L29.8,59c0-0.1,0-0.2,0-0.2c0-0.1,0-0.2,0-0.3l1.1,0.1c0,0,0,0,0,0.1l0,0l0,0c0,0,0,0,0,0.1
	c0,0,0,0.1,0,0.2C31,58.9,31.1,59,31.1,59z"/>
<path class="st11" d="M47.1,60.1c0.2,5-3.6,9.2-8.6,9.5c-5,0.2-9.2-3.6-9.5-8.6L47.1,60.1z"/>
<path class="st22" d="M47.5,60.2L28.7,61c-0.2,0-0.3-0.1-0.3-0.3l0-0.3c0-0.2,0.1-0.3,0.3-0.3l18.8-0.9c0.2,0,0.3,0.1,0.3,0.3l0,0.3
	C47.8,60,47.6,60.2,47.5,60.2z"/>
<path class="st22" d="M42.3,70l-7.6,0.3c-0.3,0-0.5-0.2-0.5-0.5l0-0.1c0-0.3,0.2-0.5,0.5-0.5l7.6-0.3c0.3,0,0.5,0.2,0.5,0.5l0,0.1
	C42.7,69.8,42.5,70,42.3,70z"/>
<polygon class="st22" points="29.2,62.4 29.1,61.9 47.1,61.1 47.1,61.6 "/>
<path class="st23" d="M31.9,63.4h-1.3c-0.2-0.5-0.3-0.8-0.4-1l1.2-0.1c0.1,0.2,0.2,0.4,0.3,0.7C31.8,63.2,31.8,63.3,31.9,63.4
	L31.9,63.4z M30.2,61.9c0.1-0.1,0.2-0.2,0.4-0.3c0,0,0.1,0,0.1,0c0.2,0,0.4,0.1,0.5,0.3L30.2,61.9z"/>
<path class="st24" d="M30.2,62.4C30.2,62.3,30.2,62.3,30.2,62.4c-0.1-0.2,0-0.4,0-0.5l1,0c0,0.1,0.1,0.1,0.1,0.2l0,0l0,0
	c0,0,0,0,0,0.1c0,0,0,0.1,0.1,0.2c0,0,0,0,0,0L30.2,62.4z"/>
<path class="st8" d="M47.2,63.4c0,5-4.1,9.1-9.1,9.1S29,68.4,29,63.4H47.2z"/>
<path class="st7" d="M47.5,63.5H28.7c-0.2,0-0.3-0.1-0.3-0.3v-0.3c0-0.2,0.1-0.3,0.3-0.3h18.8c0.2,0,0.3,0.1,0.3,0.3v0.3
	C47.8,63.3,47.7,63.5,47.5,63.5z"/>
<path class="st25" d="M41.8,73.1h-7.6c-0.3,0-0.5-0.2-0.5-0.5v-0.1c0-0.3,0.2-0.5,0.5-0.5h7.6c0.3,0,0.5,0.2,0.5,0.5v0.1
	C42.4,72.8,42.1,73.1,41.8,73.1z"/>
<rect x="29.1" y="64.2" class="st7" width="18" height="0.5"/>
<path class="st9" d="M32.1,66.6h-1.3c-0.5-1-0.7-1.8-0.7-1.8c0,0,0,0,0-0.1h1.2c0,0,0,0.1,0,0.1c0.1,0.2,0.1,0.5,0.3,0.8
	C31.8,65.9,31.9,66.2,32.1,66.6L32.1,66.6z M31.1,64.2h-0.8c0.1-0.1,0.2-0.1,0.3-0.1c0,0,0.1,0,0.1,0C30.8,64.1,31,64.1,31.1,64.2z"
	/>
<path class="st26" d="M31.3,64.7h-1.2c0-0.2,0.1-0.4,0.2-0.5h0.8c0.1,0.1,0.2,0.2,0.2,0.3l0,0l0,0c0,0,0,0,0,0.1
	C31.3,64.7,31.3,64.7,31.3,64.7z"/>
<path class="st13" d="M47.2,66.6c0,5-4.1,9.1-9.1,9.1S29,71.6,29,66.6H47.2z"/>
<path class="st27" d="M47.5,66.6H28.7c-0.2,0-0.3-0.1-0.3-0.3V66c0-0.2,0.1-0.3,0.3-0.3h18.8c0.2,0,0.3,0.1,0.3,0.3v0.3
	C47.8,66.5,47.7,66.6,47.5,66.6z"/>
<path class="st27" d="M41.8,76.3h-7.6c-0.3,0-0.5-0.2-0.5-0.5v-0.1c0-0.3,0.2-0.5,0.5-0.5h7.6c0.3,0,0.5,0.2,0.5,0.5v0.1
	C42.4,76,42.1,76.3,41.8,76.3z"/>
<rect x="29.1" y="67.5" class="st27" width="18" height="0.5"/>
<path class="st28" d="M34.7,73.7c-0.1,0-0.2,0-0.3-0.1c-0.9-0.5-1.6-1.1-2.2-1.7c-0.6-0.6-1-1.3-1.3-1.8c-0.6-1.1-0.8-1.9-0.8-2.1
	h1.2c0,0,0,0,0,0c0.1,0.2,0.1,0.5,0.3,0.8c0.3,0.6,0.7,1.5,1.5,2.3c0.5,0.5,1.1,1,1.9,1.5c0.3,0.2,0.4,0.5,0.2,0.8
	C35.1,73.6,34.9,73.7,34.7,73.7L34.7,73.7z M31.2,67.5h-0.9c0.1-0.1,0.2-0.2,0.3-0.2c0,0,0.1,0,0.1,0C30.9,67.3,31,67.4,31.2,67.5z"
	/>
<path class="st29" d="M31.3,68h-1.2c0,0,0,0,0,0c0-0.2,0-0.4,0.1-0.5h0.9c0.1,0.1,0.1,0.2,0.1,0.3l0,0l0,0c0,0,0,0,0,0.1
	C31.3,67.9,31.3,67.9,31.3,68z"/>
<path class="st1" d="M101.2,70.6L101.2,70.6c-0.7-0.2-0.7-0.8-0.5-1.4l1-4.1c0.2-0.6,0.9-0.9,1.5-0.7l0.1,0c0.6,0.2,0.9,0.9,0.7,1.5
	l-1.7,3.9C102.1,70.4,101.8,70.8,101.2,70.6z"/>
<path class="st1" d="M103.9,69.3c0,3.6-2.9,6.5-6.5,6.5c-3.6,0-6.5-2.9-6.5-6.5H103.9z"/>
<path class="st27" d="M104,69.5H90.7c-0.2,0-0.3-0.1-0.3-0.3v-0.4c0-0.2,0.1-0.3,0.3-0.3H104c0.2,0,0.3,0.1,0.3,0.3v0.4
	C104.3,69.3,104.2,69.5,104,69.5z"/>
<path class="st27" d="M100,76.3h-5.4c-0.2,0-0.4-0.2-0.4-0.4c0-0.2,0.2-0.4,0.4-0.4h5.4c0.2,0,0.4,0.2,0.4,0.4
	C100.4,76.1,100.2,76.3,100,76.3z"/>
<path class="st30" d="M95.1,74.4c-0.1,0-0.2,0-0.3-0.1c-1.3-0.7-2.1-1.6-2.5-2.3c-0.4-0.7-0.5-1.3-0.5-1.3c-0.1-0.3,0.2-0.6,0.5-0.7
	c0,0,0.1,0,0.1,0c0.3,0,0.5,0.2,0.6,0.5l0,0l0,0c0,0,0,0,0,0c0,0,0,0.1,0.1,0.2c0.1,0.2,0.2,0.4,0.3,0.7c0.3,0.6,0.9,1.3,2,1.9
	c0.3,0.2,0.4,0.5,0.2,0.8C95.5,74.3,95.3,74.4,95.1,74.4z"/>
<rect x="118.1" y="63.3" class="st4" width="1.5" height="2"/>
<path class="st8" d="M110,61.8V62c0,1,0.8,1.7,1.7,1.7h14.2c1,0,1.7-0.8,1.7-1.7v-0.8H110V61.8z"/>
<path class="st8" d="M126,75h-14.4c-0.5,0-1-0.4-1-1l0.8-8.2c0-0.5,0.4-1,1-1h12.8c0.5,0,1,0.4,1,1L127,74C127,74.5,126.5,75,126,75
	z"/>
<circle class="st31" cx="118.8" cy="69.9" r="3.1"/>
<path class="st4" d="M119.1,70.3l1.3-2.2c0.1-0.1,0-0.3-0.1-0.4s-0.3,0-0.4,0.1l-1.3,2.2c-0.1,0.1,0,0.3,0.1,0.4
	C118.8,70.5,119,70.5,119.1,70.3z"/>
<path class="st7" d="M112.6,73.9C112.6,73.9,112.5,73.9,112.6,73.9c-0.4,0-0.6-0.3-0.6-0.6l0.7-6.7c0-0.3,0.3-0.5,0.6-0.5
	c0,0,0,0,0.1,0c0.3,0,0.6,0.3,0.5,0.6l-0.7,6.7C113.1,73.7,112.9,73.9,112.6,73.9z"/>
<path class="st4" d="M126.9,76.3h-16.2c-0.1,0-0.2-0.1-0.2-0.2v-1c0-0.1,0.1-0.2,0.2-0.2h16.2c0.1,0,0.2,0.1,0.2,0.2v1
	C127.1,76.2,127,76.3,126.9,76.3z"/>
<path class="st1" d="M128.4,79.6H23.6c-0.4,0-0.7-0.3-0.7-0.7v-2c0-0.4,0.3-0.7,0.7-0.7h104.8c0.4,0,0.7,0.3,0.7,0.7v2
	C129.1,79.3,128.7,79.6,128.4,79.6z"/>
<path class="st15" d="M43.2,81.1H31.4c-0.1,0-0.2-0.1-0.2-0.2v-1.2c0-0.1,0.1-0.2,0.2-0.2h11.8c0.1,0,0.2,0.1,0.2,0.2v1.2
	C43.4,81,43.3,81.1,43.2,81.1z"/>
<path class="st15" d="M120,81.1h-11.8c-0.1,0-0.2-0.1-0.2-0.2v-1.2c0-0.1,0.1-0.2,0.2-0.2H120c0.1,0,0.2,0.1,0.2,0.2v1.2
	C120.2,81,120.1,81.1,120,81.1z"/>
<circle class="st15" cx="33.9" cy="77.9" r="0.6"/>
<circle class="st15" cx="40.9" cy="77.9" r="0.6"/>
<circle class="st15" cx="110.6" cy="77.9" r="0.6"/>
<circle class="st15" cx="117.6" cy="77.9" r="0.6"/>
<path class="st11" d="M66.3,103h-7.7c-0.3,0-0.5-0.2-0.5-0.5V86.1c0-0.3,0.2-0.5,0.5-0.5h7.7c0.3,0,0.5,0.2,0.5,0.5v16.4
	C66.8,102.8,66.6,103,66.3,103z"/>
<path class="st1" d="M66.6,85.6h-8.4c-0.3,0-0.5-0.2-0.5-0.5v-0.3c0-0.3,0.2-0.5,0.5-0.5h8.4c0.3,0,0.5,0.2,0.5,0.5v0.3
	C67.1,85.3,66.9,85.6,66.6,85.6z"/>
<circle class="st1" cx="62.4" cy="83.8" r="0.8"/>
<path class="st32" d="M66.2,94.6v7.4c0,0.3-0.2,0.5-0.5,0.5h-6.5c-0.3,0-0.5-0.2-0.5-0.5v-7.4c0,0,1.8-0.4,4,0.3
	C64.9,95.5,66.2,94.6,66.2,94.6z"/>
<path class="st12" d="M58.9,94.6v-7.5c0-0.3,0.3-0.6,0.6-0.6c0.3,0,0.6,0.3,0.6,0.6v7.4C59.6,94.5,59.2,94.6,58.9,94.6z"/>
<path class="st33" d="M59.5,101.9c-0.3,0-0.6-0.3-0.6-0.6v-6.7c0.2,0,0.6-0.1,1.2-0.1v6.8C60.1,101.7,59.8,101.9,59.5,101.9z"/>
<path class="st7" d="M34.6,90.3h-8.4c-0.3,0-0.5-0.2-0.5-0.5v-0.3c0-0.3,0.2-0.5,0.5-0.5h8.4c0.3,0,0.5,0.2,0.5,0.5v0.3
	C35.1,90.1,34.9,90.3,34.6,90.3z"/>
<circle class="st7" cx="30.4" cy="88.5" r="0.8"/>
<path class="st11" d="M34.2,103h-7.7c-0.3,0-0.5-0.2-0.5-0.5V90.8c0-0.3,0.2-0.5,0.5-0.5h7.7c0.3,0,0.5,0.2,0.5,0.5v11.7
	C34.7,102.8,34.5,103,34.2,103z"/>
<path class="st34" d="M34.1,96.3v5.7c0,0.3-0.2,0.5-0.5,0.5h-6.5c-0.3,0-0.5-0.2-0.5-0.5v-5.7c0,0,1.8-0.4,4,0.3
	C32.8,97.2,34.1,96.3,34.1,96.3z"/>
<path class="st12" d="M26.9,96.3v-4.5c0-0.3,0.3-0.6,0.6-0.6c0.3,0,0.6,0.3,0.6,0.6v4.4c0,0,0,0,0,0C27.5,96.2,27.1,96.2,26.9,96.3z
	"/>
<path class="st35" d="M27.5,101.9c-0.3,0-0.6-0.3-0.6-0.6v-5.1c0.2,0,0.6-0.1,1.2-0.1c0,0,0,0,0,0v5.1
	C28,101.7,27.8,101.9,27.5,101.9z"/>
<path class="st11" d="M44.8,103h-7.7c-0.3,0-0.5-0.2-0.5-0.5V90.8c0-0.3,0.2-0.5,0.5-0.5h7.7c0.3,0,0.5,0.2,0.5,0.5v11.7
	C45.3,102.8,45.1,103,44.8,103z"/>
<path class="st4" d="M45.1,90.3h-8.4c-0.3,0-0.5-0.2-0.5-0.5v-0.3c0-0.3,0.2-0.5,0.5-0.5h8.4c0.3,0,0.5,0.2,0.5,0.5v0.3
	C45.6,90.1,45.4,90.3,45.1,90.3z"/>
<circle class="st4" cx="40.9" cy="88.5" r="0.8"/>
<path class="st27" d="M44.7,99.7v2.4c0,0.3-0.2,0.5-0.5,0.5h-6.5c-0.3,0-0.5-0.2-0.5-0.5v-2.4c0,0,1.8-0.4,4,0.3
	C43.4,100.5,44.7,99.7,44.7,99.7z"/>
<path class="st12" d="M37.4,99.6v-7.8c0-0.3,0.3-0.6,0.6-0.6c0.3,0,0.6,0.3,0.6,0.6v7.8c0,0,0,0,0,0C38.1,99.5,37.7,99.6,37.4,99.6z
	"/>
<path class="st36" d="M38,101.9c-0.3,0-0.6-0.3-0.6-0.6v-1.7c0.2,0,0.6-0.1,1.2-0.1c0,0,0,0,0,0v1.8C38.6,101.7,38.3,101.9,38,101.9
	z"/>
<path class="st11" d="M55.4,103h-7.7c-0.3,0-0.5-0.2-0.5-0.5V90.8c0-0.3,0.2-0.5,0.5-0.5h7.7c0.3,0,0.5,0.2,0.5,0.5v11.7
	C55.9,102.8,55.7,103,55.4,103z"/>
<path class="st13" d="M55.7,90.3h-8.4c-0.3,0-0.5-0.2-0.5-0.5v-0.3c0-0.3,0.2-0.5,0.5-0.5h8.4c0.3,0,0.5,0.2,0.5,0.5v0.3
	C56.2,90.1,56,90.3,55.7,90.3z"/>
<circle class="st13" cx="51.5" cy="88.5" r="0.8"/>
<path class="st4" d="M55.3,92.3v9.7c0,0.3-0.2,0.5-0.5,0.5h-6.5c-0.3,0-0.5-0.2-0.5-0.5v-9.7c0,0,1.8-0.4,4,0.3
	C54,93.2,55.3,92.3,55.3,92.3z"/>
<path class="st12" d="M48,92.2v-0.4c0-0.3,0.3-0.6,0.6-0.6c0.3,0,0.6,0.3,0.6,0.6v0.4c0,0,0,0,0,0C48.7,92.2,48.3,92.2,48,92.2z"/>
<path class="st5" d="M48.6,101.9c-0.3,0-0.6-0.3-0.6-0.6v-9.1c0.2,0,0.6-0.1,1.2-0.1c0,0,0,0,0,0v9.2
	C49.2,101.7,48.9,101.9,48.6,101.9z"/>
<path class="st11" d="M72,103h-2.7c-0.3,0-0.5-0.2-0.5-0.5v-5.8c0-0.3,0.2-0.5,0.5-0.5H72c0.3,0,0.5,0.2,0.5,0.5v5.8
	C72.5,102.8,72.3,103,72,103z"/>
<path class="st13" d="M72.2,96.2h-3.1c-0.3,0-0.5-0.2-0.5-0.5v-0.3c0-0.3,0.2-0.5,0.5-0.5h3.1c0.3,0,0.5,0.2,0.5,0.5v0.3
	C72.7,96,72.5,96.2,72.2,96.2z"/>
<path class="st32" d="M71.9,98.7v3.7c0,0.1-0.1,0.2-0.2,0.2h-2.1c-0.1,0-0.2-0.1-0.2-0.2v-3.7C69.5,98.7,70.7,98.3,71.9,98.7z"/>
<path class="st12" d="M69.5,98.7v-1.2c0-0.3,0.3-0.6,0.6-0.6c0.3,0,0.6,0.3,0.6,0.6v1C70.1,98.5,69.6,98.6,69.5,98.7z"/>
<path class="st33" d="M70.1,102.3c-0.3,0-0.6-0.3-0.6-0.6v-3c0.1,0,0.6-0.2,1.2-0.2v3.2C70.7,102,70.4,102.3,70.1,102.3z"/>
<path class="st11" d="M76.9,103h-2.7c-0.3,0-0.5-0.2-0.5-0.5v-5.8c0-0.3,0.2-0.5,0.5-0.5h2.7c0.3,0,0.5,0.2,0.5,0.5v5.8
	C77.4,102.8,77.1,103,76.9,103z"/>
<path class="st4" d="M77.1,96.2H74c-0.3,0-0.5-0.2-0.5-0.5v-0.3c0-0.3,0.2-0.5,0.5-0.5h3.1c0.3,0,0.5,0.2,0.5,0.5v0.3
	C77.6,96,77.3,96.2,77.1,96.2z"/>
<path class="st4" d="M76.8,98.7v3.7c0,0.1-0.1,0.2-0.2,0.2h-2.1c-0.1,0-0.2-0.1-0.2-0.2v-3.7C74.3,98.7,75.5,98.3,76.8,98.7z"/>
<path class="st12" d="M74.3,98.7v-1.2c0-0.3,0.3-0.6,0.6-0.6c0.3,0,0.6,0.3,0.6,0.6v1C74.9,98.5,74.5,98.6,74.3,98.7z"/>
<path class="st5" d="M74.9,102.3c-0.3,0-0.6-0.3-0.6-0.6v-3c0.1,0,0.6-0.2,1.2-0.2v3.2C75.5,102,75.3,102.3,74.9,102.3z"/>
<path class="st16" d="M104.5,89.3c-0.2-0.2-0.1-0.4,0.2-0.4l22.8,1.1c0.3,0,0.4,0.2,0.2,0.4c0,0-2.8,2.5-11.7,2.1
	C107.1,92.1,104.5,89.3,104.5,89.3z"/>
<path class="st4" d="M104.7,91c-0.2-0.2-0.2-0.4,0.2-0.4h22.8c0.3,0,0.4,0.2,0.2,0.4c0,0-2.6,2.6-11.6,2.6
	C107.3,93.7,104.7,91,104.7,91z"/>
<path class="st7" d="M104.7,92.4c-0.2-0.2-0.2-0.4,0.2-0.4h22.8c0.3,0,0.4,0.2,0.2,0.4c0,0-2.6,2.6-11.6,2.6
	C107.3,95.1,104.7,92.4,104.7,92.4z"/>
<path class="st27" d="M104.7,94.1c-0.2-0.2-0.2-0.4,0.2-0.4h22.8c0.3,0,0.4,0.2,0.2,0.4c0,0-2.6,2.6-11.6,2.6
	C107.3,96.7,104.7,94.1,104.7,94.1z"/>
<path class="st4" d="M104.7,95.5c-0.2-0.2-0.2-0.4,0.2-0.4h22.8c0.3,0,0.4,0.2,0.2,0.4c0,0-2.6,2.6-11.6,2.6
	C107.3,98.1,104.7,95.5,104.7,95.5z"/>
<path class="st16" d="M104.7,97c-0.2-0.2-0.2-0.4,0.2-0.4h22.8c0.3,0,0.4,0.2,0.2,0.4c0,0-2.6,2.6-11.6,2.6
	C107.3,99.7,104.7,97,104.7,97z"/>
<path class="st7" d="M104.7,98.5c-0.2-0.2-0.2-0.4,0.2-0.4h22.8c0.3,0,0.4,0.2,0.2,0.4c0,0-2.6,2.6-11.6,2.6
	C107.3,101.2,104.7,98.5,104.7,98.5z"/>
<path class="st27" d="M104.7,100.2c-0.2-0.2-0.2-0.4,0.2-0.4h22.8c0.3,0,0.4,0.2,0.2,0.4c0,0-2.6,2.6-11.6,2.6
	C107.3,102.8,104.7,100.2,104.7,100.2z"/>
<path class="st13" d="M121.4,103.1h-10.4c-0.1,0-0.2-0.1-0.2-0.2v-0.4c0-0.1,0.1-0.2,0.2-0.2h10.4c0.1,0,0.2,0.1,0.2,0.2v0.4
	C121.6,103,121.5,103.1,121.4,103.1z"/>
<rect x="81.2" y="95.5" class="st1" width="5.2" height="0.6"/>
<path class="st1" d="M87.7,89.9L87.7,89.9L87.7,89.9C87.7,89.9,87.7,89.9,87.7,89.9L87.7,89.9L87.7,89.9L87.7,89.9L87.7,89.9
	C87.6,90,87.6,90,87.7,89.9L87.7,89.9L87.7,89.9l1.2,0.1v-0.1l-0.1,0.1c0,0,0,0,0.1,0v-0.1l-0.1,0.1l0.1-0.1h-0.1c0,0,0,0,0,0.1
	l0.1-0.1h-0.1v3.5h0.1l-0.1-0.1c0,0,0,0,0,0.1h0.1l-0.1-0.1l0.1,0.1v-0.1c0,0,0,0-0.1,0l0.1,0.1v-0.1c-0.2,0-0.4,0.2-0.4,0.4
	c0,0.2,0.2,0.4,0.4,0.4c0.2,0,0.4-0.1,0.5-0.2c0.1-0.1,0.2-0.3,0.2-0.5v-3.5c0-0.2-0.1-0.4-0.2-0.5c-0.1-0.1-0.3-0.2-0.5-0.2h-1.3
	c-0.2,0-0.4,0.1-0.5,0.2c-0.1,0.1-0.2,0.3-0.2,0.5c0,0.2,0.2,0.4,0.4,0.4C87.5,90.3,87.7,90.1,87.7,89.9z"/>
<path class="st4" d="M86.7,103h-5.8c-0.6,0-1-0.5-1-1l0.7-5c0.1-0.8,0.3-1,1-1H86c0.6,0,1,0,1,0.7l0.7,5.3
	C87.7,102.6,87.2,103,86.7,103z"/>
<path class="st4" d="M79,88.4l0.9,1l0.7,5.3c0.1,0.8,0.3,1,1,1H86c0.8,0,0.9-0.1,1-1l0.7-5.3l0.1-1H79z"/>
<polygon class="st3" points="82.7,96 84.9,96 85.4,103 82.3,103 "/>
<polygon class="st3" points="82.7,95.7 84.9,95.7 85.5,88.4 82.1,88.4 "/>
<polygon class="st1" points="79,88.4 83.7,87.1 87.8,88.4 "/>
<circle class="st1" cx="83.7" cy="86.9" r="0.5"/>
<path class="st13" d="M99.4,98.2c-0.2,0-0.4,0.2-0.4,0.4v2c0,0.2,0.2,0.4,0.4,0.4h1.3c0.2,0,0.4-0.2,0.4-0.4v-2
	c0-0.2-0.2-0.4-0.4-0.4H99.4L99.4,98.2z M100.7,101.9h-1.3c-0.7,0-1.3-0.6-1.3-1.3v-2c0-0.7,0.6-1.3,1.3-1.3h1.3
	c0.7,0,1.3,0.6,1.3,1.3v2C102,101.4,101.4,101.9,100.7,101.9z"/>
<path class="st27" d="M100,103h-4.6c-0.1,0-0.2-0.1-0.2-0.2v-6.2c0-0.1,0.1-0.2,0.2-0.2h4.6c0.1,0,0.2,0.1,0.2,0.2v6.2
	C100.2,102.9,100.1,103,100,103z"/>
<rect x="95.2" y="102.3" class="st37" width="5" height="0.3"/>
<path class="st4" d="M97.6,91.7c-0.2,0-0.4,0.2-0.4,0.4v2c0,0.2,0.2,0.4,0.4,0.4h1.3c0.2,0,0.4-0.2,0.4-0.4v-2
	c0-0.2-0.2-0.4-0.4-0.4H97.6L97.6,91.7z M98.9,95.4h-1.3c-0.7,0-1.3-0.6-1.3-1.3v-2c0-0.7,0.6-1.3,1.3-1.3h1.3
	c0.7,0,1.3,0.6,1.3,1.3v2C100.2,94.8,99.6,95.4,98.9,95.4z"/>
<path class="st3" d="M98.2,96.5h-4.6c-0.1,0-0.2-0.1-0.2-0.2v-6.2c0-0.1,0.1-0.2,0.2-0.2h4.6c0.1,0,0.2,0.1,0.2,0.2v6.2
	C98.4,96.4,98.3,96.5,98.2,96.5z"/>
<rect x="93.4" y="95.8" class="st4" width="5" height="0.3"/>
<path class="st38" d="M95.4,98.2c-0.2,0-0.4,0.2-0.4,0.4v2c0,0.2,0.2,0.4,0.4,0.4h1.3c0.2,0,0.4-0.2,0.4-0.4v-2
	c0-0.2-0.2-0.4-0.4-0.4H95.4L95.4,98.2z M96.8,101.9h-1.3c-0.7,0-1.3-0.6-1.3-1.3v-2c0-0.7,0.6-1.3,1.3-1.3h1.3
	c0.7,0,1.3,0.6,1.3,1.3v2C98,101.4,97.5,101.9,96.8,101.9z"/>
<path class="st11" d="M96.1,103h-4.6c-0.1,0-0.2-0.1-0.2-0.2v-6.2c0-0.1,0.1-0.2,0.2-0.2h4.6c0.1,0,0.2,0.1,0.2,0.2v6.2
	C96.2,102.9,96.2,103,96.1,103z"/>
<rect x="91.3" y="102.3" class="st4" width="5" height="0.3"/>
<path class="st1" d="M128.4,106.3H23.6c-0.4,0-0.7-0.3-0.7-0.7v-2c0-0.4,0.3-0.7,0.7-0.7h104.8c0.4,0,0.7,0.3,0.7,0.7v2
	C129.1,106,128.7,106.3,128.4,106.3z"/>
<path class="st15" d="M43.4,107.8H31.5c-0.1,0-0.2-0.1-0.2-0.2v-1.2c0-0.1,0.1-0.2,0.2-0.2h11.8c0.1,0,0.2,0.1,0.2,0.2v1.2
	C43.5,107.8,43.5,107.8,43.4,107.8z"/>
<path class="st15" d="M120.1,107.8h-11.8c-0.1,0-0.2-0.1-0.2-0.2v-1.2c0-0.1,0.1-0.2,0.2-0.2h11.8c0.1,0,0.2,0.1,0.2,0.2v1.2
	C120.3,107.8,120.2,107.8,120.1,107.8z"/>
<circle class="st15" cx="33.9" cy="104.7" r="0.6"/>
<circle class="st15" cx="40.9" cy="104.7" r="0.6"/>
<circle class="st15" cx="110.6" cy="104.7" r="0.6"/>
<circle class="st15" cx="117.6" cy="104.7" r="0.6"/>
<path class="st39" d="M106.8,136h0.2v-22.1c0-0.1,0-0.1,0.1-0.1h17.1c0.1,0,0.1,0,0.1,0.1V136c0,0.1,0,0.1-0.1,0.1h-17.1
	c-0.1,0-0.1,0-0.1-0.1h-0.4c0,0.3,0.2,0.5,0.5,0.5h17.1c0.3,0,0.5-0.2,0.5-0.5v-22.1c0-0.3-0.2-0.5-0.5-0.5h-17.1
	c-0.3,0-0.5,0.2-0.5,0.5V136H106.8z"/>
<path class="st1" d="M115.6,109.7c-0.4,0-0.8-0.3-0.8-0.8c0-0.4,0.3-0.8,0.8-0.8c0.4,0,0.8,0.3,0.8,0.8
	C116.4,109.4,116,109.7,115.6,109.7L115.6,109.7z M115.6,107.2c-0.8,0-1.5,0.7-1.5,1.5v3.1c0,0.8,0.7,1.5,1.5,1.5
	c0.8,0,1.5-0.7,1.5-1.5v-3.1C117.1,107.9,116.4,107.2,115.6,107.2z"/>
<path class="st10" d="M55.8,108.6c0.2,0,0.5,0.2,0.5,0.5c0,0.2-0.2,0.5-0.5,0.5c-0.2,0-0.5-0.2-0.5-0.5
	C55.4,108.8,55.6,108.6,55.8,108.6L55.8,108.6z M55.8,124.1c0.5,0,1-0.4,1-1v-14.3c0-0.5-0.4-1-1-1c-0.5,0-1,0.4-1,1v14.3
	C54.8,123.7,55.3,124.1,55.8,124.1z"/>
<path class="st40" d="M53.1,125.2c0-0.3,0.2-0.5,0.5-0.5s0.5,0.2,0.5,0.5v6.1c0,0.3-0.2,0.5-0.5,0.5s-0.5-0.2-0.5-0.5V125.2
	L53.1,125.2z M55.3,125.2c0-0.3,0.2-0.5,0.5-0.5c0.3,0,0.5,0.2,0.5,0.5v6.1c0,0.3-0.2,0.5-0.5,0.5c-0.3,0-0.5-0.2-0.5-0.5V125.2
	L55.3,125.2z M57.3,125.2c0-0.3,0.2-0.5,0.5-0.5s0.5,0.2,0.5,0.5v6.1c0,0.3-0.2,0.5-0.5,0.5s-0.5-0.2-0.5-0.5V125.2L57.3,125.2z
	 M53.4,133h4.8c0.8,0,1.5-0.7,1.5-1.5v-6.7c0-0.8-0.7-1.5-1.5-1.5h-4.8c-0.8,0-1.5,0.7-1.5,1.5v6.7C51.9,132.3,52.6,133,53.4,133z"
	/>
<path class="st41" d="M108.5,134.8c-0.3,0-0.6-0.3-0.6-0.6v-18.8c0-0.3,0.3-0.6,0.6-0.6c0.3,0,0.6,0.3,0.6,0.6v18.8
	C109.1,134.5,108.8,134.8,108.5,134.8z"/>
<path class="st40" d="M36,108.6c0.2,0,0.5,0.2,0.5,0.5c0,0.2-0.2,0.5-0.5,0.5c-0.2,0-0.5-0.2-0.5-0.5
	C35.6,108.8,35.8,108.6,36,108.6L36,108.6z M36,124.1c0.5,0,1-0.4,1-1v-14.3c0-0.5-0.4-1-1-1c-0.5,0-1,0.4-1,1v14.3
	C35.1,123.7,35.5,124.1,36,124.1z"/>
<path class="st40" d="M39.4,128.1c0,2.8-2,5-3.4,5c-1.2,0-3.4-2.2-3.4-5c0-2.8,1.5-5,3.4-5C37.9,123.1,39.4,125.4,39.4,128.1z"/>
<path class="st10" d="M38.5,128.1c0,2.1-1.3,3.9-2.5,3.9c-1,0-2.5-1.7-2.5-3.9c0-2.1,1-3.9,2.5-3.9S38.5,126,38.5,128.1z"/>
<path class="st10" d="M75.3,108.6c0.2,0,0.5,0.2,0.5,0.5c0,0.2-0.2,0.5-0.5,0.5c-0.2,0-0.5-0.2-0.5-0.5
	C74.9,108.8,75.1,108.6,75.3,108.6L75.3,108.6z M75.3,124.1c0.5,0,1-0.4,1-1v-14.3c0-0.5-0.4-1-1-1c-0.5,0-1,0.4-1,1v14.3
	C74.3,123.7,74.8,124.1,75.3,124.1z"/>
<path class="st10" d="M77.9,128.3h-5.1c-0.7,0-1.3,0.2-1.3-1.3v-2.5c0-0.7,0.6-1.3,1.3-1.3h5.1c0.7,0,1.3,0.6,1.3,1.3v2.5
	C79.2,127.7,78.6,128.3,77.9,128.3z"/>
<path class="st10" d="M72.1,133L72.1,133c-0.4,0-0.7-0.3-0.7-0.7v-5c0-0.4,0.3-0.7,0.7-0.7c0.4,0,0.7,0.3,0.7,0.7v5
	C72.8,132.7,72.5,133,72.1,133z"/>
<path class="st10" d="M74.3,133L74.3,133c-0.4,0-0.7-0.3-0.7-0.7v-5c0-0.4,0.3-0.7,0.7-0.7c0.4,0,0.7,0.3,0.7,0.7v5
	C74.9,132.7,74.6,133,74.3,133z"/>
<path class="st10" d="M76.4,133L76.4,133c-0.4,0-0.7-0.3-0.7-0.7v-5c0-0.4,0.3-0.7,0.7-0.7l0,0c0.4,0,0.7,0.3,0.7,0.7v5
	C77.1,132.7,76.8,133,76.4,133z"/>
<path class="st10" d="M78.5,133L78.5,133c-0.4,0-0.7-0.3-0.7-0.7v-5c0-0.4,0.3-0.7,0.7-0.7l0,0c0.4,0,0.7,0.3,0.7,0.7v5
	C79.2,132.7,78.9,133,78.5,133z"/>
<path class="st13" d="M97,133.1C93.4,130.6,97,133.1,97,133.1s-3-0.8-3.9,0.3c-1,1.1-2.8-0.3-2.8-0.3s3.9-24,5.3-24.7
	c0,0,2.2,0,5.3,26.3C100.9,134.7,100.2,135.2,97,133.1z"/>
<path class="st3" d="M92.3,132.7c-1,0-1.8-0.6-1.8-0.7l0.1-0.6c0,0,1.7,1.3,2.5,0.4l0.4,0.4C93.2,132.5,92.8,132.7,92.3,132.7z"/>
<path class="st3" d="M100.5,133.6c-0.8,0-2.1-0.9-2.5-1.3l0.3-0.4c1,0.8,2.2,1.3,2.4,1.2l0.1,0.5
	C100.7,133.6,100.7,133.6,100.5,133.6z"/>
<path class="st27" d="M98.3,134c-2.4,0.9-5,0-5,0c-0.3-2.3-0.1-7.8-0.1-7.8c-0.1-4.1,0.8-10.6,1.5-14.7c0.7-4.2,1.3-3.1,1.3-3.1
	S99.4,124.7,98.3,134z"/>
<path class="st3" d="M96,132.2c-1.6,0-2.8-0.5-2.9-0.5l0-0.6c0,0,3.1,1.2,5.4,0l0,0.6C97.6,132.1,96.8,132.2,96,132.2z"/>
<path class="st13" d="M36,109.1L36,109.1c-0.3,0-0.6-0.3-0.6-0.6v-2.5c0-0.3,0.3-0.6,0.6-0.6c0.3,0,0.6,0.3,0.6,0.6v2.5
	C36.6,108.9,36.3,109.1,36,109.1z"/>
<path class="st13" d="M75.3,109.1L75.3,109.1c-0.3,0-0.6-0.3-0.6-0.6v-2.5c0-0.3,0.3-0.6,0.6-0.6c0.3,0,0.6,0.3,0.6,0.6v2.5
	C75.9,108.9,75.6,109.1,75.3,109.1z"/>
<path class="st13" d="M55.8,109.1L55.8,109.1c-0.3,0-0.6-0.3-0.6-0.6v-2.5c0-0.3,0.3-0.6,0.6-0.6l0,0c0.3,0,0.6,0.3,0.6,0.6v2.5
	C56.4,108.9,56.1,109.1,55.8,109.1z"/>
<path class="st13" d="M115.6,109.1L115.6,109.1c-0.3,0-0.6-0.3-0.6-0.6v-2.5c0-0.3,0.3-0.6,0.6-0.6c0.3,0,0.6,0.3,0.6,0.6v2.5
	C116.2,108.9,115.9,109.1,115.6,109.1z"/>
<path class="st13" d="M95.8,109.1L95.8,109.1c-0.3,0-0.6-0.3-0.6-0.6v-2.5c0-0.3,0.3-0.6,0.6-0.6c0.3,0,0.6,0.3,0.6,0.6v2.5
	C96.4,108.9,96.1,109.1,95.8,109.1z"/>
</svg>
