<?xml version="1.0" encoding="utf-8"?>
<!-- Generator: Adobe Illustrator 19.1.1, SVG Export Plug-In . SVG Version: 6.00 Build 0)  -->
<svg version="1.1"
	 id="svg2" xmlns:dc="http://purl.org/dc/elements/1.1/" xmlns:svg="http://www.w3.org/2000/svg" xmlns:cc="http://creativecommons.org/ns#" xmlns:rdf="http://www.w3.org/1999/02/22-rdf-syntax-ns#"
	 xmlns="http://www.w3.org/2000/svg" xmlns:xlink="http://www.w3.org/1999/xlink" x="0px" y="0px" viewBox="-16.1 1.8 20.2 26.4"
	 style="enable-background:new -16.1 1.8 20.2 26.4;" xml:space="preserve">
<style type="text/css">
	.st0{fill:none;stroke:#2D3033;stroke-width:5;stroke-linecap:round;stroke-linejoin:round;stroke-miterlimit:2.6131;}
</style>
<g id="g10" transform="matrix(1.3333333,0,0,-1.3333333,-0.328148,8.3801798)">
	<g id="g12" transform="scale(0.1)">
		<path id="path14" class="st0" d="M25.2-5.8h-135v-109.4h135V-5.8z"/>
		<path id="path16" class="st0" d="M25.2-115.2h-135v-17c0-4.7,3.8-8.5,8.5-8.5h118c4.7,0,8.5,3.8,8.5,8.5V-115.2z"/>
		<path id="path18" class="st0" d="M-17-32.8h16.9"/>
		<path id="path20" class="st0" d="M-84.5-32.8h16.9"/>
		<path id="path22" class="st0" d="M-76.1,7.7c0,18.6,15.1,33.7,33.7,33.7c18.6,0,33.7-15.1,33.7-33.7"/>
		<path id="path24" class="st0" d="M-8.6,7.7v-27"/>
		<path id="path26" class="st0" d="M-76.1,7.7v-27"/>
		<path id="path28" class="st0" d="M-8.6-5.8v-27"/>
		<path id="path30" class="st0" d="M-76.1-5.8v-27"/>
	</g>
</g>
</svg>
