<?xml version="1.0" encoding="utf-8"?>
<!-- Generator: Adobe Illustrator 24.0.2, SVG Export Plug-In . SVG Version: 6.00 Build 0)  -->
<svg class="icon"
     xmlns="http://www.w3.org/2000/svg" xmlns:xlink="http://www.w3.org/1999/xlink" viewBox="0 0 283.5 283.5">
    <path d="M215.3,226.1h40.5l-0.1,17.6c-9,0.6-19.7,0.1-28.9,0.1C211.3,243.8,214.9,243.8,215.3,226.1z M238.7,220.8
	l-9.4,0.2l3.9-11.6l-3-1.5l-7.2,13.1c-4.2-1.6-3.9-12-7.3-12.6c-6.2-1.1-0.4,10.2,0.5,12.4c-8.2,1.1-29.5-33.2,19.3-32.8
	c6.6,0.1,26,2.1,28.7,8.5c3.7,8.9,4.3,25-9.2,24.3l3.5-9l-2.7-1.6l-7.1,10.3L244,221c0.2-3,3.9-14.9-0.7-15.1
	C239.1,205.7,239.4,217.6,238.7,220.8L238.7,220.8z M242.7,148l-0.1-9.9C246.5,138.8,246.6,147.1,242.7,148z M122,48.1
	c-4.8,22.6-31.9,19.4-36.5,0L122,48.1z M157.8,58.9c-1.6-0.2-17.5-5.4-19.1-6.3c-6.6-3.4-1.8-10.8-14.7-10.6
	c-7.8,0.1-45-2.4-48.6,2.1c-7.4,9-1.6,6.9-14.2,11.2c-6.3,2.2-12.5,4.3-18.9,6.4c-7.1,2.4-11.7,3.4-15.2,10.2
	c-1.8,3.5-7.8,15.1-5.9,18.1c6.8,4.7,8.5-14.4,14.2-18.9c2.1-1.6,22.5-8.5,26-9.4L71.1,74l3.2-2.3l-5.4-11.3L79,49.8
	c1.7,1.6,4.7,9.9,6.5,12.6c2.3,3.6,9.7,3.9,12.9,6.5c-8.1,10.5-20.8,0.9-24.2,29.5c-2.7,22.5-15.4,137.8-17.3,143.5l-18-0.3
	l1.8-111.5c-1.6-0.5-4.4-0.7-6,0.1l-0.4,16.3l-29.4-7.7l17.3-41l-1.6-0.7c-5.3-3.9-9.6,11.8-11.1,15.3c-2.9,6.6-5.8,13.2-8.7,19.9
	C-7.7,151,24.6,147.9,34,153.2c3,15.1-2.3,66.1-1.5,86.1c0.6,13.7,23.7,9.4,34.5,9.4c6.1,0,40,1,42.9-0.9h0.4
	c0.1-2.4,0.4-3.6-0.3-5.2l-46.4-0.2c-0.4-14,4.8-42.3,6.5-57.9c2.1-19.2,4.5-38.6,6.8-57.8c2.3-19.2-1-38.3,16.3-47.7
	c6.9-3.8,13.9-7.6,20.8-11.5c14.4-8,7.6-11.1,14.3-17.8l10.5,10.7l-5.8,11.3l3.3,2.2l9.4-12.5l11.9,4c0.9,11.4-11.1,23.8-17.1,33.1
	c-6.2,9.5-6.2,6.9-6.2,18.9c0,19.7-1.4,121.7,0.9,125l-15.6,0.4c-0.6,1.5-0.6,4.1,0,5.6l41,0.6c-0.8-1-1.3-5-1.6-6.5
	c-16.2-1.5-20.3,4.1-18.5-18l69.6-0.2l0.2,23.5l-0.9-5.1h-44.4l-0.2,6.2l95.9-1.1l0.2-21.5c3.9-3.9,6.5-1.5,9.4-11
	c1.5-5,0.9-13.4-0.5-18.4c-3.2-11.3-17.1-12.5-27.4-13.8c-10.3-1.3-25.2,0.6-34.6,5.1c-13,6.2-5.9,21-4.1,29.9h-63.1
	c-0.8-22.1-0.1-45.4-0.1-67.4c0-11.2,0.1-22.3,0-33.5c0-9.7,4.7-15.7,10.4-23.2l19.1,0l0.1-6l-15-0.1c2-5.6,8.6-10.2,8.9-16.3
	c0.4-7.9-0.8-18.2,0.1-25.7h6c4.7,7.2,4.8,15.2,18.4,15.2c14.2,0,13.6-8.9,18.4-15.2h6c0.4,8.4-0.2,17,0,25.3
	c0.2,6.6,7.1,10.6,9,16.6l-45.6,0.1l-0.1,6.1l49.8,0.1c11.4,12.3,10.4,19.1,10.4,35.1c0,13.3-1.1,32.5,0.1,45.1l5.9,0.3l0.8-19
	l8.7-7.9l30.9-7.9c0-2.2,0.4-4.9-0.3-7l-30.1,8.5l0.1-2l-9.7-8.6c-1.1-8.5,2.5-18.8-2.5-26.1c-3.9-5.8-7.6-11.7-11.3-17.3
	c-15.2-23.2-8.5-20.4-9.9-47.3L200.6,40c0.7,19.2-23.7,22.1-24.5,0.1L157.8,40L157.8,58.9L157.8,58.9z"/>
    <path d="M208.8,124.7l0.1,5.9l-5.1,0.4l0,5.4l4.6,0.7c0.9,8.9-11.5,17.2-19.9,17.2c-8.2,0-22.5-9.7-19.7-17.1l29-0.3
	l0-5.9l-29.6-0.2c0-6.6-1.5-6.4,5.3-6.1C184.6,125,198.1,124.1,208.8,124.7L208.8,124.7z M162.1,119.1c-1,1.3,0.2,19.8,1,22.3
	c5.8,19.1,30.1,25.6,44.4,11c9-9.2,7.4-17.7,7.6-27.9c0.2-6.7,1.1-6.2-5.6-6C204.1,118.6,163.3,117.3,162.1,119.1L162.1,119.1z"/>
    <polygon points="224.2,155.3 230.1,155.3 230.4,130.9 224.3,130.8 "/>
    <path d="M90.1,118c-4.9,2.4,0.1,7.7,5.4,5.4C99.7,121.6,95.8,115.1,90.1,118z"/>
    <path d="M89.9,166.4c-5.2,3.4,1.8,7.4,5.8,5.1C100.1,169,94.5,163.4,89.9,166.4z"/>
    <path d="M111.9,93.8c-4.4,2.3,0.2,7.7,5.5,5.4C122.2,97.1,117.4,91,111.9,93.8z"/>
    <path d="M90.2,142.1c-4.9,2.3-0.1,7.7,5.3,5.4C99.9,145.6,95.7,139.4,90.2,142.1z"/>
    <path d="M112.2,142.1c-4.9,2.5,0.1,7.7,5.3,5.4C122,145.5,117.6,139.4,112.2,142.1z"/>
    <path d="M112.2,166.2c-4.8,2.3-0.1,7.9,5.3,5.4C121.9,169.7,117.8,163.6,112.2,166.2z"/>
    <path d="M90.3,93.6c-4.3,1.6-1.5,7.7,4.8,5.6C99.4,97.8,96.8,91.2,90.3,93.6z"/>
    <path d="M112.1,117.9c-4.8,2.5,0.3,7.6,5.4,5.4c1.9-0.8,2.2-3.6,0.8-5C116.9,117,113.3,117.2,112.1,117.9L112.1,117.9z"
    />
    <path d="M110.5,194c0.8,3.4,10.2,3.4,8.6-1.9C118.1,188.9,109.3,188.8,110.5,194z"/>
    <path d="M88.3,217.7c0.4,4,9.3,3.9,8.8-0.8C96.7,212.8,87.8,213,88.3,217.7z"/>
    <path d="M110.4,217.5c0.4,4.2,9.3,3.9,8.8-0.6C118.8,212.9,109.9,213,110.4,217.5z"/>
    <path d="M88.4,194c0.7,3.2,9.6,3.5,8.7-1.6C96.4,188.9,87.2,188.8,88.4,194z"/>
    <polygon points="200.8,82.3 206.7,82.3 206.9,76.3 200.8,76.2 "/>
    <polygon points="188.5,82.3 194.5,82.3 194.6,76.4 188.5,76.2 "/>
    <polygon points="224.3,124.6 230.3,124.7 230.3,118.7 224.3,118.6 "/>
</svg>
