<?xml version="1.0" encoding="utf-8"?>
<!-- Generator: Adobe Illustrator 19.1.1, SVG Export Plug-In . SVG Version: 6.00 Build 0)  -->
<svg version="1.1" id="Layer_1" xmlns="http://www.w3.org/2000/svg" xmlns:xlink="http://www.w3.org/1999/xlink" x="0px" y="0px"
	 viewBox="0 0 196.8 20.3" style="enable-background:new 0 0 196.8 20.3;" xml:space="preserve">
<style type="text/css">
	.st0{fill-rule:evenodd;clip-rule:evenodd;fill:#FFFFFF;}
	.st1{fill-rule:evenodd;clip-rule:evenodd;fill:#D3D4D5;}
	.st2{fill-rule:evenodd;clip-rule:evenodd;fill:#00C1D5;}
	
		.st3{fill-rule:evenodd;clip-rule:evenodd;fill:none;stroke:#FFFFFF;stroke-width:0.7197;stroke-linecap:round;stroke-miterlimit:2.6131;}
	.st4{fill:#4D4D4D;}
</style>
<g>
	<path class="st0" d="M151,5.4H50.6v10.2H151c0.2,0,0.4-0.2,0.4-0.4V5.9C151.4,5.6,151.2,5.4,151,5.4z"/>
	<path class="st1" d="M150.9,5.9H51.1v9.2h99.8V5.9L150.9,5.9z M151,5.4H50.6v10.2H151c0.2,0,0.4-0.2,0.4-0.4V5.9
		C151.4,5.6,151.2,5.4,151,5.4z"/>
</g>
<path class="st2" d="M41.2,5.4H51v10.2h-9.8c-0.2,0-0.4-0.2-0.4-0.4V5.9C40.8,5.6,41,5.4,41.2,5.4z"/>
<circle class="st3" cx="45.9" cy="10.5" r="1.9"/>
<line class="st3" x1="48.5" y1="13.2" x2="47.2" y2="11.9"/>
<g>
	<path class="st4" d="M122.5,10.9v0.3h-0.1c0,0.1,0,0.1,0,0.2s-0.1,0.3-0.1,0.3c-0.3,0.3-0.8,0.5-1.2,0.5c-0.3,0-0.6-0.1-0.7-0.3
		c-0.2-0.2-0.2-0.4-0.2-0.7s0.1-0.6,0.2-0.8h0.1c-0.1,0.3-0.2,0.5-0.2,0.6c0,0.2,0.1,0.4,0.2,0.6c0.2,0.2,0.4,0.2,0.6,0.2
		c0.2,0,0.5-0.1,0.8-0.2c0.1-0.1,0.2-0.1,0.2-0.2c-0.1-0.1-0.3-0.2-0.7-0.2l0,0l0.2-0.3C121.6,10.9,122.5,10.9,122.5,10.9z"/>
	<path class="st4" d="M122.5,10.9c0.2,0,0.4,0,0.5,0s0.1-0.1,0.1-0.1c0-0.1-0.1-0.4-0.3-0.6c0.1-0.1,0.1-0.2,0.2-0.3l0,0
		c0.1,0.2,0.3,0.5,0.3,0.8c0,0.2-0.1,0.3-0.2,0.5c-0.1,0.1-0.3,0.2-0.7,0.2l0,0c-0.1,0-0.2-0.1-0.2-0.2
		C122.3,11,122.3,10.9,122.5,10.9L122.5,10.9z M122.8,12.3c-0.1-0.1-0.2-0.2-0.3-0.3c0.1-0.1,0.1-0.2,0.2-0.2
		c0.1,0.1,0.2,0.2,0.3,0.3C122.9,12.1,122.8,12.2,122.8,12.3z M123.3,12.2c-0.1-0.1-0.2-0.2-0.3-0.3c0.1-0.1,0.1-0.2,0.2-0.2
		c0.1,0.1,0.2,0.2,0.3,0.3C123.4,12.1,123.3,12.2,123.3,12.2z"/>
	<path class="st4" d="M123.9,11.3c0-0.2,0-0.3,0-0.5v-0.3c0-0.5-0.1-1.2-0.1-1.6c0.1-0.1,0.2-0.2,0.3-0.3l0,0
		c0.1,0.6,0.1,1.3,0.1,1.9c0,0.2,0,0.3,0,0.4C124.1,11,124.1,11.1,123.9,11.3L123.9,11.3z"/>
	<path class="st4" d="M125.5,10.4c0.1,0.4,0.3,0.6,0.6,0.6l0,0v0.3H126c-0.1,0-0.2,0-0.3-0.1l0,0v0.1c0,0.1,0,0.3-0.1,0.4
		c-0.2,0.4-0.4,0.5-0.6,0.5c-0.2,0-0.4-0.1-0.6-0.2v-0.1c0.1,0,0.2,0.1,0.3,0.1c0.3,0,0.8-0.4,0.9-0.8c0,0,0-0.1-0.1-0.1
		c-0.1-0.1-0.2-0.3-0.2-0.4C125.4,10.5,125.4,10.4,125.5,10.4L125.5,10.4z"/>
	<path class="st4" d="M126.2,10.9c0.2,0,0.4,0,0.5,0s0.1-0.1,0.1-0.1c0-0.1-0.1-0.4-0.3-0.6c0.1-0.1,0.1-0.2,0.2-0.3l0,0
		c0.1,0.2,0.3,0.5,0.3,0.8c0,0.2-0.1,0.3-0.2,0.5c-0.1,0.1-0.3,0.2-0.7,0.2l0,0c-0.1,0-0.2-0.1-0.2-0.2
		C125.9,11,126,10.9,126.2,10.9L126.2,10.9z M126.4,12.3c-0.1-0.1-0.2-0.2-0.3-0.3c0.1-0.1,0.1-0.2,0.2-0.2c0.1,0.1,0.2,0.2,0.3,0.3
		C126.5,12.1,126.5,12.2,126.4,12.3z M126.9,12.2c-0.1-0.1-0.2-0.2-0.3-0.3c0.1-0.1,0.1-0.2,0.2-0.2c0.1,0.1,0.2,0.2,0.3,0.3
		C127,12.1,127,12.2,126.9,12.2z"/>
	<path class="st4" d="M129.2,11.2L129.2,11.2c-0.3,0-0.5-0.1-0.6-0.4l0,0c0,0.1-0.1,0.2-0.2,0.2c-0.2,0.1-0.3,0.2-0.5,0.2
		c-0.3,0-0.4-0.2-0.4-0.5c0-0.1,0-0.1,0-0.2h0.1c0,0.2,0.1,0.3,0.4,0.3c0.1,0,0.3-0.1,0.4-0.1c0.1-0.1,0.2-0.1,0.2-0.2
		c0-0.2-0.1-0.5-0.2-1c0.1-0.1,0.1-0.2,0.2-0.3l0,0c0.1,0.4,0.2,0.8,0.2,1.1s0.2,0.4,0.4,0.4l0,0V11.2z M128.3,8.6
		c0.1,0.1,0.2,0.2,0.3,0.3c-0.1,0.1-0.1,0.2-0.2,0.3c-0.1-0.1-0.2-0.2-0.3-0.3C128.1,8.7,128.2,8.7,128.3,8.6z"/>
	<path class="st4" d="M129.3,10.9c0.2,0,0.4,0,0.5,0c0.1,0,0.1-0.1,0.1-0.1c0-0.1-0.1-0.4-0.3-0.6c0.1-0.1,0.1-0.2,0.2-0.3l0,0
		c0.1,0.2,0.3,0.5,0.3,0.8c0,0.2-0.1,0.3-0.2,0.5c-0.1,0.1-0.3,0.2-0.7,0.2l0,0c-0.1,0-0.2-0.1-0.2-0.2
		C129.1,11,129.1,10.9,129.3,10.9L129.3,10.9z M129.5,12.1c-0.1-0.1-0.2-0.2-0.3-0.3c0.1-0.1,0.1-0.2,0.2-0.2
		c0.1,0.1,0.2,0.2,0.3,0.3C129.7,12,129.6,12.1,129.5,12.1z M129.9,12.7c-0.1-0.1-0.2-0.2-0.3-0.3c0.1-0.1,0.1-0.2,0.2-0.2
		c0.1,0.1,0.2,0.2,0.3,0.3C130,12.5,130,12.6,129.9,12.7z M130,12.1c-0.1-0.1-0.2-0.2-0.3-0.3c0.1-0.1,0.1-0.2,0.2-0.2
		c0.1,0.1,0.2,0.2,0.3,0.3C130.2,12,130.1,12,130,12.1z"/>
	<path class="st4" d="M132.5,11c-0.3,0-0.6-0.1-0.6-0.5c0-0.2,0.1-0.3,0.2-0.4c0.1-0.1,0.2-0.2,0.4-0.2c0.1,0,0.3,0.1,0.4,0.3
		c0.1,0.2,0.2,0.4,0.2,0.7c0,0.2-0.1,0.5-0.2,0.7c-0.2,0.3-0.4,0.5-0.7,0.5c-0.2,0-0.5-0.1-0.7-0.3v-0.1c0.1,0.1,0.2,0.1,0.4,0.1
		c0.3,0,0.5-0.1,0.8-0.4c0.1-0.1,0.2-0.3,0.2-0.4C132.7,11,132.6,11,132.5,11z M132.4,10.2c-0.1,0-0.3,0.1-0.3,0.2
		c0,0.2,0.2,0.3,0.4,0.3c0.1,0,0.2,0,0.3,0C132.7,10.4,132.6,10.2,132.4,10.2z"/>
	<path class="st4" d="M135.9,10.8c0.1-0.1,0.1-0.1,0.2-0.4l0.1-0.1l0,0c0,0.1,0,0.2,0,0.3c0,0.2,0.1,0.3,0.3,0.3
		c0.1,0,0.1,0,0.1-0.1c0-0.1,0-0.3-0.1-0.4c0.1-0.1,0.1-0.2,0.2-0.2l0,0c0,0.2,0,0.3,0,0.5c0,0.1,0,0.3-0.1,0.4
		c-0.1,0.2-0.2,0.3-0.4,0.3c-0.1,0-0.2-0.1-0.3-0.2l0,0c-0.1,0.1-0.2,0.2-0.4,0.2c-0.2,0-0.4-0.2-0.4-0.5c-0.3,0.1-0.4,0.1-0.6,0.2
		c0,0.1,0,0.1,0,0.2c0,0.1,0,0.2,0,0.3c0,0.2-0.1,0.3-0.2,0.5c-0.1,0.1-0.3,0.2-0.5,0.2c-0.2,0-0.4-0.1-0.6-0.2V12
		c0.1,0,0.2,0.1,0.3,0.1c0.2,0,0.5-0.1,0.7-0.3s0.3-0.3,0.3-0.4c0-0.1-0.1-0.2-0.2-0.3c0-0.1,0-0.2,0.1-0.3c0.3-0.1,0.6-0.2,1-0.3
		l0,0c0,0.1,0,0.1,0,0.2c0,0.2,0.2,0.3,0.3,0.3C135.7,10.9,135.8,10.9,135.9,10.8z"/>
	<path class="st4" d="M140.7,10.6c-0.3,0-0.5-0.1-0.6-0.3c0-0.1,0-0.1,0-0.2c0-0.2,0.1-0.4,0.2-0.5c0.1-0.1,0.2-0.2,0.3-0.2
		c0.2,0,0.4,0.2,0.5,0.5c0.1,0.2,0.1,0.4,0.1,0.7c0,0.2,0,0.3-0.1,0.4c-0.2,0.1-0.4,0.2-0.5,0.2c-0.3,0.1-0.7,0.1-1,0.1
		c-0.4,0-0.7,0-0.9-0.2c-0.2-0.1-0.4-0.4-0.4-0.7c0-0.2,0-0.4,0.2-0.6h0.1c0,0.1-0.1,0.3-0.1,0.4c0,0.2,0.1,0.4,0.3,0.6
		c0.2,0.1,0.5,0.2,0.8,0.2s0.6,0,0.9-0.1c0.1,0,0.2-0.1,0.3-0.1c0.1,0,0.2-0.1,0.2-0.1s0,0,0-0.1C140.9,10.6,140.8,10.6,140.7,10.6z
		 M140.4,8.6c0.1,0.1,0.2,0.2,0.3,0.3c-0.1,0.1-0.1,0.2-0.2,0.3c-0.1-0.1-0.2-0.2-0.3-0.3C140.3,8.8,140.3,8.7,140.4,8.6z
		 M140.5,9.8c-0.2,0-0.3,0.1-0.3,0.2c0,0.2,0.4,0.3,0.8,0.3C140.9,10.1,140.8,9.8,140.5,9.8z"/>
	<path class="st4" d="M142.5,11c-0.3,0-0.6-0.1-0.6-0.5c0-0.2,0.1-0.3,0.2-0.4c0.1-0.1,0.2-0.2,0.4-0.2c0.1,0,0.3,0.1,0.4,0.3
		c0.1,0.2,0.2,0.4,0.2,0.7c0,0.2-0.1,0.5-0.2,0.7c-0.2,0.3-0.4,0.5-0.7,0.5c-0.2,0-0.5-0.1-0.7-0.3v-0.1c0.1,0.1,0.2,0.1,0.4,0.1
		c0.3,0,0.5-0.1,0.8-0.4c0.1-0.1,0.2-0.3,0.2-0.4C142.7,11,142.6,11,142.5,11z M142.4,10.2c-0.1,0-0.3,0.1-0.3,0.2
		c0,0.2,0.2,0.3,0.4,0.3c0.1,0,0.2,0,0.3,0C142.8,10.4,142.6,10.2,142.4,10.2z"/>
	<path class="st4" d="M144.3,10.4c0.1,0.4,0.3,0.6,0.6,0.6l0,0v0.3h-0.1c-0.1,0-0.2,0-0.3-0.1l0,0v0.1c0,0.1,0,0.3-0.1,0.4
		c-0.2,0.4-0.4,0.5-0.6,0.5s-0.4-0.1-0.6-0.2v-0.1c0.1,0,0.2,0.1,0.3,0.1c0.3,0,0.8-0.4,0.9-0.8c0,0,0-0.1-0.1-0.1
		c-0.1-0.1-0.2-0.3-0.2-0.4C144.2,10.5,144.2,10.4,144.3,10.4L144.3,10.4z"/>
	<path class="st4" d="M145.2,10.9l0.1-0.2c0-0.1,0-0.2,0-0.5c0-0.3,0-0.9-0.1-1.2c0-0.1,0-0.2,0-0.3c0-0.1,0.1-0.2,0.2-0.3l0,0
		c0,0.1,0.1,0.3,0.2,0.6l-0.2,0.1c0,0.3,0,0.6,0,0.8c0,0.2,0,0.4-0.1,0.5l0,0c0.2-0.2,0.4-0.4,0.6-0.5c0.1-0.1,0.3-0.2,0.5-0.2
		c0.1,0,0.3,0.1,0.4,0.1c0.1,0.1,0.2,0.3,0.2,0.5c0,0,0,0.2-0.1,0.3c-0.1,0.4-1,0.5-1.5,0.5h-0.6c-0.1,0-0.2-0.1-0.2-0.2
		c0-0.1,0-0.2,0.2-0.2h0.4V10.9z M145.6,10.9c0.6,0,0.9-0.1,1.2-0.2c0.1,0,0.1-0.1,0.2-0.1c0-0.2-0.2-0.4-0.5-0.4s-0.7,0.3-1.1,0.7
		H145.6z M146.2,9c0.1,0.1,0.2,0.2,0.3,0.3c-0.1,0.1-0.1,0.2-0.2,0.3c-0.1-0.2-0.2-0.3-0.3-0.3C146.1,9.2,146.1,9.1,146.2,9z"/>
</g>
</svg>
