<?xml version="1.0" encoding="utf-8"?>
<!-- Generator: Adobe Illustrator 19.1.1, SVG Export Plug-In . SVG Version: 6.00 Build 0)  -->
<svg version="1.1" id="Layer_1" xmlns="http://www.w3.org/2000/svg" xmlns:xlink="http://www.w3.org/1999/xlink" x="0px" y="0px"
	 viewBox="0 0 141.8 7.8" style="enable-background:new 0 0 141.8 7.8;" xml:space="preserve">
<style type="text/css">
	
		.st0{fill-rule:evenodd;clip-rule:evenodd;fill:none;stroke:#00C1D5;stroke-width:0.4799;stroke-linecap:round;stroke-linejoin:round;stroke-miterlimit:2.6131;}
	.st1{fill:#4D4D4D;}
</style>
<polyline class="st0" points="114.5,2.2 112.8,3.9 114.5,5.6 "/>
<polyline class="st0" points="69.3,2.2 67.6,3.9 69.3,5.6 "/>
<polyline class="st0" points="33.6,2.2 31.9,3.9 33.6,5.6 "/>
<g>
	<path class="st1" d="M3.9,4.9L3.9,4.9c-0.3,0-0.4,0-0.5-0.2C3.3,4.7,3.2,4.8,3,4.8C2.8,4.9,2.5,5,2.2,5c-0.3,0-0.6,0-0.8-0.2
		C1.2,4.7,1.1,4.4,1.1,4.2c0-0.2,0-0.4,0.1-0.5l0.1,0c0,0.1-0.1,0.2-0.1,0.3c0,0.2,0.1,0.4,0.3,0.5C1.7,4.6,2,4.6,2.2,4.6
		c0.3,0,0.5,0,0.8-0.1c0.1,0,0.2-0.1,0.3-0.1l0.1-0.3L3.6,4l0,0c0,0.1-0.1,0.2-0.1,0.3c0,0.1,0,0.2,0.1,0.2c0.1,0.1,0.2,0.1,0.3,0.1
		h0V4.9z M2.2,3.4C2.1,3.4,2,3.3,1.9,3.2C2,3.1,2,3.1,2.1,3c0.1,0.1,0.2,0.1,0.3,0.2C2.3,3.3,2.2,3.4,2.2,3.4z M2.6,3.4
		C2.5,3.3,2.4,3.3,2.3,3.2C2.4,3.1,2.5,3,2.5,3C2.6,3,2.7,3.1,2.8,3.2C2.7,3.3,2.7,3.4,2.6,3.4z"/>
	<path class="st1" d="M4,4.6c0.4,0,0.7-0.1,1.2-0.4l0,0C5,4.1,4.8,4,4.5,4C4.4,4,4.3,4,4.3,4.1l0,0.1L4.2,4.4h0L4.1,4.1
		c0-0.3,0.2-0.4,0.5-0.4c0.2,0,0.4,0.1,0.7,0.2C5.4,4,5.6,4,5.7,4l0.2,0l0,0L5.8,4.2c-0.2,0-0.3,0-0.4,0.1L5,4.6
		C4.7,4.8,4.4,4.9,4,4.9H3.9c-0.1,0-0.2-0.1-0.2-0.2c0-0.1,0-0.1,0.2-0.1H4z M4.7,2.9C4.8,3,4.9,3.1,5,3.2c0,0.1-0.1,0.2-0.2,0.2
		C4.7,3.3,4.6,3.2,4.5,3.2C4.6,3.1,4.6,3,4.7,2.9z"/>
	<path class="st1" d="M6.3,4.9c0-0.1,0-0.3,0-0.5V4.2c0-0.4,0-1-0.1-1.4c0.1-0.1,0.2-0.2,0.2-0.2l0,0c0,0.5,0.1,1.1,0.1,1.6
		c0,0.1,0,0.3,0,0.4C6.5,4.7,6.4,4.8,6.3,4.9L6.3,4.9z"/>
	<path class="st1" d="M7.1,4.2c0,0.2,0.1,0.3,0.4,0.3c0.2,0,0.3-0.1,0.5-0.1c0,0,0,0,0-0.1C8,4.3,7.9,4.1,7.7,4
		C7.6,3.8,7.4,3.7,7.3,3.6c-0.1,0-0.1-0.1-0.1-0.1c0-0.1,0.1-0.2,0.1-0.3l0,0c0.2,0.1,0.4,0.3,0.5,0.5C8,3.9,8.1,4.1,8.1,4.3
		c0,0.1,0,0.3-0.1,0.4C7.8,4.8,7.6,4.9,7.4,4.9C7.1,4.9,7,4.7,7,4.4C7,4.4,7,4.3,7.1,4.2L7.1,4.2z"/>
	<path class="st1" d="M9.2,4.1c0.1,0.3,0.2,0.5,0.5,0.5h0v0.3h0c-0.1,0-0.2,0-0.2-0.1h0c0,0,0,0.1,0,0.1c0,0.1,0,0.2-0.1,0.3
		C9.2,5.5,9,5.7,8.9,5.7c-0.2,0-0.4-0.1-0.6-0.2l0-0.1c0.1,0,0.1,0,0.3,0c0.3,0,0.7-0.3,0.8-0.7c0,0,0-0.1-0.1-0.1
		C9.2,4.6,9.1,4.5,9.1,4.3C9.1,4.2,9.2,4.2,9.2,4.1L9.2,4.1z"/>
	<path class="st1" d="M9.8,4.6c0.2,0,0.3,0,0.4,0c0.1,0,0.1-0.1,0.1-0.1c0-0.1-0.1-0.3-0.2-0.6c0.1-0.1,0.1-0.2,0.2-0.3h0
		c0.1,0.2,0.2,0.5,0.2,0.7c0,0.2-0.1,0.3-0.2,0.4c-0.1,0.1-0.3,0.1-0.6,0.1h0c-0.1,0-0.2-0.1-0.2-0.2C9.6,4.7,9.6,4.6,9.8,4.6
		L9.8,4.6z M10,5.7C9.9,5.6,9.9,5.5,9.8,5.4C9.8,5.3,9.9,5.3,10,5.2c0.1,0.1,0.2,0.1,0.3,0.2C10.1,5.5,10.1,5.6,10,5.7z M10.4,6.1
		c-0.1-0.1-0.2-0.2-0.3-0.2c0.1-0.1,0.1-0.2,0.2-0.2c0.1,0.1,0.2,0.1,0.3,0.2C10.5,6,10.4,6,10.4,6.1z M10.5,5.6
		c-0.1-0.1-0.2-0.2-0.3-0.2c0.1-0.1,0.1-0.2,0.2-0.2c0.1,0.1,0.2,0.1,0.3,0.2C10.6,5.5,10.5,5.6,10.5,5.6z"/>
	<path class="st1" d="M13,5c-0.6,0-1.1-0.2-1.1-0.8c0-0.2,0-0.4,0.1-0.5l0.1,0c0,0.1-0.1,0.2-0.1,0.3c0,0.5,0.4,0.6,1,0.6
		c0.3,0,0.5,0,0.8-0.1c0.1,0,0.2-0.1,0.3-0.1c0,0,0,0,0,0c0-0.1-0.1-0.3-0.2-0.6C14,3.8,14,3.7,14.1,3.6h0c0.1,0.2,0.2,0.5,0.2,0.7
		c0,0.2-0.1,0.3-0.1,0.4C14,4.8,13.4,5,13,5z M12.9,3.4c-0.1-0.1-0.2-0.2-0.3-0.2c0.1-0.1,0.1-0.2,0.2-0.2c0.1,0.1,0.2,0.1,0.3,0.2
		C13,3.3,13,3.4,12.9,3.4z M13.3,3.4c-0.1-0.1-0.2-0.2-0.3-0.2C13.1,3.1,13.2,3,13.3,3c0.1,0.1,0.2,0.1,0.3,0.2
		C13.5,3.3,13.4,3.4,13.3,3.4z"/>
	<path class="st1" d="M15.3,4.9L15.3,4.9c-0.2,0-0.3,0-0.4-0.1c-0.1-0.1-0.1-0.3-0.1-0.6c0-0.4,0-0.9-0.1-1.4
		c0.1-0.1,0.1-0.2,0.2-0.2l0,0c0,0.5,0,1.1,0,1.6v0.1c0,0.1,0.1,0.2,0.2,0.2c0.1,0,0.1,0,0.1,0h0V4.9z"/>
	<path class="st1" d="M15.5,4.6c0.1,0,0.2,0,0.3,0v0c-0.2-0.1-0.3-0.2-0.3-0.4c0-0.1,0-0.2,0.1-0.3c0.1-0.2,0.3-0.3,0.5-0.3
		c0.2,0,0.4,0.1,0.5,0.4l0,0c-0.1-0.1-0.2-0.1-0.4-0.1c-0.2,0-0.4,0.1-0.4,0.2c0,0.1,0.1,0.2,0.2,0.3c0.1,0.1,0.2,0.1,0.3,0.1
		c0.2,0,0.4-0.1,0.6-0.2l0,0l-0.1,0.3c-0.4,0.1-0.5,0.1-0.8,0.2c-0.2,0.1-0.4,0.1-0.6,0.1h-0.1c-0.1,0-0.2-0.1-0.2-0.2
		c0-0.1,0-0.1,0.2-0.1H15.5z"/>
	<path class="st1" d="M18.5,2.5c0,0.4,0,0.9,0,1.3c0,0.2,0,0.4,0.1,0.5c0,0.1,0.2,0.2,0.3,0.2h0v0.3h0c-0.2,0-0.5-0.2-0.5-0.6l0,0
		c-0.1,0.3-0.3,0.5-0.5,0.6c-0.2,0.1-0.3,0.1-0.5,0.1l-0.2,0l0,0c0.4-0.1,0.6-0.3,0.9-0.4c0-0.2-0.3-0.6-0.7-1.1
		c-0.1-0.2-0.2-0.3-0.2-0.4c0-0.1,0-0.1,0.1-0.2h0c0.1,0.1,0.3,0.2,0.4,0.3l-0.1,0.1c0.1,0.2,0.2,0.3,0.4,0.5
		c0.1,0.2,0.2,0.3,0.2,0.5c0,0,0,0.1,0,0.1l0,0c0.1-0.1,0.1-0.1,0.2-0.2c0.1-0.1,0.1-0.3,0.1-0.7c0-0.3,0-0.5,0-0.8
		C18.4,2.6,18.4,2.6,18.5,2.5L18.5,2.5z"/>
	<path class="st1" d="M19.1,4.6l0.1-0.2c0-0.1,0-0.2,0-0.5c0-0.3,0-0.8-0.1-1c0-0.1,0-0.2,0-0.2c0-0.1,0.1-0.2,0.2-0.3l0,0
		c0,0.1,0.1,0.3,0.2,0.5L19.4,3c0,0.2,0,0.5,0,0.7c0,0.2,0,0.3-0.1,0.5h0c0.2-0.2,0.3-0.3,0.5-0.4c0.1-0.1,0.3-0.1,0.4-0.1
		c0.1,0,0.3,0,0.3,0.1c0.1,0.1,0.2,0.2,0.2,0.4c0,0,0,0.2-0.1,0.2c-0.1,0.4-0.9,0.4-1.3,0.4h-0.5c-0.1,0-0.2-0.1-0.2-0.2
		c0-0.1,0-0.1,0.2-0.1H19.1z M19.5,4.6c0.5,0,0.8,0,1-0.2c0.1,0,0.1-0.1,0.1-0.1c0-0.2-0.2-0.3-0.4-0.3c-0.3,0-0.6,0.2-0.9,0.6H19.5
		z"/>
	<path class="st1" d="M21.2,4.9c0-0.1,0-0.3,0-0.5V4.2c0-0.4,0-1-0.1-1.4c0.1-0.1,0.2-0.2,0.2-0.2l0,0c0,0.5,0.1,1.1,0.1,1.6
		c0,0.1,0,0.3,0,0.4C21.5,4.7,21.4,4.8,21.2,4.9L21.2,4.9z"/>
	<path class="st1" d="M41.3,4c0.1,0.1,0.1,0.2,0.1,0.3c0,0.1,0,0.2,0.2,0.2c0,0,0.1,0,0.2,0c0.1,0,0.1-0.1,0.1-0.2l0.1-0.2L42.1,4
		l0,0c0,0.1,0,0.2,0,0.2c0,0.2,0.1,0.3,0.2,0.3c0.1,0,0.1,0,0.1-0.1c0-0.1,0-0.2-0.1-0.4c0.1-0.1,0.1-0.1,0.2-0.2l0,0
		c0,0.2,0,0.3,0,0.4c0,0.1,0,0.2-0.1,0.3c-0.1,0.1-0.2,0.3-0.3,0.3c-0.1,0-0.2-0.1-0.3-0.2h0c-0.1,0.1-0.2,0.2-0.4,0.2h-0.1
		c0,0.1,0,0.3-0.1,0.3c-0.1,0.3-0.4,0.4-0.8,0.4c-0.4,0-0.7-0.3-0.7-0.7c0-0.2,0.1-0.5,0.2-0.6l0.1,0c-0.1,0.1-0.1,0.3-0.1,0.4
		c0,0.4,0.3,0.5,0.6,0.5c0.3,0,0.6-0.2,0.7-0.4c0-0.3-0.1-0.4-0.2-0.6C41.1,4.1,41.2,4.1,41.3,4L41.3,4z M41.7,3.6
		c-0.1-0.1-0.2-0.2-0.3-0.2c0.1-0.1,0.1-0.2,0.2-0.2c0.1,0.1,0.2,0.1,0.3,0.2C41.8,3.5,41.8,3.6,41.7,3.6z M41.8,3.2
		c-0.1-0.1-0.2-0.2-0.3-0.2c0.1-0.1,0.1-0.2,0.2-0.2C41.9,2.8,41.9,2.9,42,3C42,3.1,41.9,3.1,41.8,3.2z M42.2,3.6
		c-0.1-0.1-0.2-0.2-0.3-0.2C42,3.3,42,3.2,42.1,3.2c0.1,0.1,0.2,0.1,0.3,0.2C42.3,3.5,42.2,3.6,42.2,3.6z"/>
	<path class="st1" d="M43.8,3.7L43.9,4C44,4.1,44,4.2,44,4.4v0.2c0,0.2-0.1,0.4-0.3,0.6c-0.1,0.1-0.3,0.2-0.4,0.2
		c-0.2,0-0.4-0.1-0.6-0.2l0-0.1c0.1,0,0.2,0,0.3,0c0.3,0,0.6-0.3,0.8-0.6c0,0,0-0.1,0-0.1c0,0,0-0.1,0-0.1c-0.1-0.2-0.2-0.3-0.3-0.5
		C43.6,3.9,43.7,3.8,43.8,3.7L43.8,3.7z"/>
	<path class="st1" d="M45,4.9L45,4.9c-0.2,0-0.3,0-0.4-0.1c-0.1-0.1-0.1-0.3-0.1-0.6c0-0.4,0-0.9-0.1-1.4c0.1-0.1,0.1-0.2,0.2-0.2
		l0,0c0,0.5,0,1.1,0,1.6v0.1c0,0.1,0.1,0.2,0.2,0.2c0.1,0,0.1,0,0.1,0h0V4.9z"/>
	<path class="st1" d="M45.1,4.6c0.1,0,0.3,0,0.4-0.1c-0.1-0.1-0.1-0.2-0.1-0.3c0-0.2,0.1-0.4,0.2-0.5c0.1-0.1,0.3-0.2,0.3-0.2
		s0.2,0.1,0.3,0.3c0.1,0.1,0.1,0.2,0.1,0.3c0,0.2-0.1,0.4-0.2,0.5c0.1,0,0.2,0,0.4,0h0.1v0.3h-0.1c-0.2,0-0.5,0-0.7-0.1
		c-0.3,0.1-0.5,0.1-0.6,0.1h0c-0.1,0-0.2-0.1-0.2-0.2C44.9,4.7,44.9,4.6,45.1,4.6L45.1,4.6z M46.1,4.2c0-0.1,0-0.2-0.1-0.2
		c-0.1-0.1-0.1-0.2-0.2-0.2c-0.2,0-0.3,0.2-0.4,0.4c0,0.1,0.1,0.2,0.3,0.3C45.9,4.4,46.1,4.3,46.1,4.2z M45.8,2.7
		c0.1,0.1,0.2,0.1,0.3,0.2c0,0.1-0.1,0.2-0.2,0.2C45.7,3,45.7,3,45.6,2.9C45.6,2.8,45.7,2.7,45.8,2.7z"/>
	<path class="st1" d="M48.3,3.9c0,0.2,0,0.3,0,0.4c0,0.1,0,0.2-0.1,0.3c-0.1,0.1-0.2,0.2-0.3,0.2c-0.1,0-0.2-0.1-0.3-0.2h0
		c-0.1,0.1-0.2,0.2-0.4,0.2c-0.1,0-0.2-0.1-0.2-0.2h0c-0.1,0.2-0.3,0.2-0.5,0.2h0c-0.1,0-0.2-0.1-0.2-0.2c0-0.1,0-0.1,0.2-0.1h0.1
		c0.2,0,0.4-0.1,0.5-0.2l0.1-0.2l0.2-0.1l0,0c-0.1,0.1-0.2,0.3-0.2,0.3c0,0.1,0,0.1,0.1,0.1c0.1,0,0.1,0,0.2-0.1
		c0.1-0.1,0.1-0.1,0.2-0.4l0.1-0.1l0,0c0,0.1,0,0.2,0,0.2c0,0.2,0.1,0.3,0.2,0.3c0.1,0,0.1,0,0.1-0.1c0-0.1,0-0.2-0.1-0.4
		C48.2,4,48.2,4,48.3,3.9L48.3,3.9z"/>
	<path class="st1" d="M51.7,4.6v0.3h-0.1c0,0.1,0,0.1,0,0.2c0,0.1-0.1,0.2-0.1,0.3c-0.3,0.3-0.7,0.4-1.1,0.4c-0.3,0-0.5-0.1-0.6-0.2
		c-0.1-0.2-0.2-0.4-0.2-0.6c0-0.2,0.1-0.5,0.2-0.7l0.1,0c-0.1,0.2-0.1,0.4-0.1,0.6c0,0.2,0.1,0.4,0.2,0.5c0.1,0.1,0.3,0.2,0.5,0.2
		c0.2,0,0.4-0.1,0.7-0.2c0.1-0.1,0.2-0.1,0.2-0.2c-0.1-0.1-0.3-0.2-0.7-0.2l0,0l0.2-0.3H51.7z"/>
	<path class="st1" d="M51.8,4.6c0.2,0,0.4-0.1,0.4-0.2l0.1-0.2L52.4,4l0,0c0,0.1,0,0.2,0,0.3c0,0.1,0,0.1,0.1,0.2
		c0.1,0.1,0.2,0.1,0.3,0.1h0v0.3h-0.1c-0.2,0-0.4-0.1-0.5-0.2h0c-0.1,0.2-0.3,0.2-0.4,0.2h0c-0.1,0-0.2-0.1-0.2-0.2
		C51.6,4.7,51.6,4.6,51.8,4.6L51.8,4.6z M52.2,3.2c0.1,0.1,0.2,0.1,0.3,0.2c0,0.1-0.1,0.2-0.2,0.2c-0.1-0.1-0.2-0.2-0.3-0.2
		C52.1,3.4,52.1,3.3,52.2,3.2z"/>
	<path class="st1" d="M52.8,4.6c0.2,0,0.4-0.1,0.4-0.2l0.1-0.2L53.4,4l0,0c0,0.1,0,0.2,0,0.3c0,0.1,0,0.1,0.1,0.2
		c0.1,0.1,0.2,0.1,0.3,0.1h0v0.3h-0.1c-0.2,0-0.4-0.1-0.5-0.2h0c-0.1,0.2-0.3,0.2-0.4,0.2h0c-0.1,0-0.2-0.1-0.2-0.2
		C52.6,4.7,52.6,4.6,52.8,4.6L52.8,4.6z M53.1,5.8c-0.1-0.1-0.2-0.2-0.3-0.2c0.1-0.1,0.1-0.2,0.2-0.2c0.1,0.1,0.2,0.1,0.3,0.2
		C53.2,5.6,53.1,5.7,53.1,5.8z M53.5,5.7c-0.1-0.1-0.2-0.2-0.3-0.2c0.1-0.1,0.1-0.2,0.2-0.2c0.1,0.1,0.2,0.1,0.3,0.2
		C53.6,5.6,53.6,5.7,53.5,5.7z"/>
	<path class="st1" d="M53.8,4.6c0.2,0,0.3,0,0.4,0c0.1,0,0.1-0.1,0.1-0.1c0-0.1-0.1-0.3-0.2-0.6c0.1-0.1,0.1-0.2,0.2-0.3h0
		c0.1,0.2,0.2,0.5,0.2,0.7c0,0.2-0.1,0.3-0.2,0.4c-0.1,0.1-0.3,0.1-0.6,0.1h0c-0.1,0-0.2-0.1-0.2-0.2C53.6,4.7,53.7,4.6,53.8,4.6
		L53.8,4.6z M54.2,5.3c0.1,0.1,0.2,0.1,0.3,0.2c0,0.1-0.1,0.2-0.2,0.2c-0.1-0.1-0.2-0.2-0.3-0.2C54.1,5.4,54.2,5.4,54.2,5.3z"/>
	<path class="st1" d="M55.7,3.7L55.9,4C55.9,4.1,56,4.2,56,4.4v0.2c0,0.2-0.1,0.4-0.3,0.6c-0.1,0.1-0.3,0.2-0.4,0.2
		c-0.2,0-0.4-0.1-0.6-0.2l0-0.1c0.1,0,0.2,0,0.3,0c0.3,0,0.6-0.3,0.8-0.6c0,0,0-0.1,0-0.1c0,0,0-0.1,0-0.1c-0.1-0.2-0.2-0.3-0.3-0.5
		C55.6,3.9,55.7,3.8,55.7,3.7L55.7,3.7z M55.5,2.9c0.1,0.1,0.2,0.1,0.3,0.2c0,0.1-0.1,0.2-0.2,0.2c-0.1-0.1-0.2-0.2-0.3-0.2
		C55.4,3.1,55.5,3,55.5,2.9z"/>
	<path class="st1" d="M57,4.9L57,4.9c-0.2,0-0.3,0-0.4-0.1c-0.1-0.1-0.1-0.3-0.1-0.6c0-0.4,0-0.9-0.1-1.4c0.1-0.1,0.1-0.2,0.2-0.2
		l0,0c0,0.5,0,1.1,0,1.6v0.1c0,0.1,0.1,0.2,0.2,0.2c0.1,0,0.1,0,0.1,0h0V4.9z"/>
	<path class="st1" d="M57,4.6c0.2,0,0.3,0,0.4,0c0.1,0,0.1-0.1,0.1-0.1c0-0.1-0.1-0.3-0.2-0.6c0.1-0.1,0.1-0.2,0.2-0.3h0
		c0.1,0.2,0.2,0.5,0.2,0.7c0,0.2-0.1,0.3-0.2,0.4c-0.1,0.1-0.3,0.1-0.6,0.1h0c-0.1,0-0.2-0.1-0.2-0.2C56.8,4.7,56.9,4.6,57,4.6
		L57,4.6z M57.5,5.3c0.1,0.1,0.2,0.1,0.3,0.2c0,0.1-0.1,0.2-0.2,0.2c-0.1-0.1-0.2-0.2-0.3-0.2C57.3,5.4,57.4,5.4,57.5,5.3z"/>
	<path class="st1" d="M77.5,4c0.1,0.1,0.1,0.2,0.1,0.3c0,0.1,0,0.2,0.2,0.2c0,0,0.1,0,0.2,0c0.1,0,0.1-0.1,0.1-0.2l0.1-0.2L78.3,4
		l0,0c0,0.1,0,0.2,0,0.2c0,0.2,0.1,0.3,0.2,0.3c0.1,0,0.1,0,0.1-0.1c0-0.1,0-0.2-0.1-0.4c0.1-0.1,0.1-0.1,0.2-0.2l0,0
		c0,0.2,0,0.3,0,0.4c0,0.1,0,0.2-0.1,0.3c-0.1,0.1-0.2,0.3-0.3,0.3c-0.1,0-0.2-0.1-0.3-0.2h0c-0.1,0.1-0.2,0.2-0.4,0.2h-0.1
		c0,0.1,0,0.3-0.1,0.3c-0.1,0.3-0.4,0.4-0.8,0.4c-0.4,0-0.7-0.3-0.7-0.7c0-0.2,0.1-0.5,0.2-0.6l0.1,0c-0.1,0.1-0.1,0.3-0.1,0.4
		c0,0.4,0.3,0.5,0.6,0.5c0.3,0,0.6-0.2,0.7-0.4c0-0.3-0.1-0.4-0.2-0.6C77.4,4.1,77.4,4.1,77.5,4L77.5,4z M78,3.6
		c-0.1-0.1-0.2-0.2-0.3-0.2c0.1-0.1,0.1-0.2,0.2-0.2c0.1,0.1,0.2,0.1,0.3,0.2C78.1,3.5,78,3.6,78,3.6z M78.1,3.2
		C78,3.1,77.9,3,77.8,2.9C77.9,2.9,78,2.8,78,2.7c0.1,0.1,0.2,0.1,0.3,0.2C78.2,3.1,78.2,3.1,78.1,3.2z M78.4,3.6
		c-0.1-0.1-0.2-0.2-0.3-0.2c0.1-0.1,0.1-0.2,0.2-0.2c0.1,0.1,0.2,0.1,0.3,0.2C78.5,3.5,78.5,3.6,78.4,3.6z"/>
	<path class="st1" d="M80,3.7L80.2,4c0.1,0.1,0.1,0.2,0.1,0.4v0.2c0,0.2-0.1,0.4-0.3,0.6c-0.1,0.1-0.3,0.2-0.4,0.2
		c-0.2,0-0.4-0.1-0.6-0.2l0-0.1c0.1,0,0.2,0,0.3,0c0.3,0,0.6-0.3,0.8-0.6c0,0,0-0.1,0-0.1c0,0,0-0.1,0-0.1C80,4.3,79.9,4.1,79.8,4
		C79.9,3.9,79.9,3.8,80,3.7L80,3.7z"/>
	<path class="st1" d="M81.3,4.9L81.3,4.9c-0.2,0-0.3,0-0.4-0.1c-0.1-0.1-0.1-0.3-0.1-0.6c0-0.4,0-0.9-0.1-1.4
		c0.1-0.1,0.1-0.2,0.2-0.2l0,0c0,0.5,0,1.1,0,1.6v0.1c0,0.1,0.1,0.2,0.2,0.2c0.1,0,0.1,0,0.1,0h0V4.9z"/>
	<path class="st1" d="M81.3,4.6c0.1,0,0.3,0,0.4-0.1c-0.1-0.1-0.1-0.2-0.1-0.3c0-0.2,0.1-0.4,0.2-0.5c0.1-0.1,0.3-0.2,0.3-0.2
		s0.2,0.1,0.3,0.3c0.1,0.1,0.1,0.2,0.1,0.3c0,0.2-0.1,0.4-0.2,0.5c0.1,0,0.2,0,0.4,0h0.1v0.3h-0.1c-0.2,0-0.5,0-0.7-0.1
		c-0.3,0.1-0.5,0.1-0.6,0.1h0c-0.1,0-0.2-0.1-0.2-0.2C81.1,4.7,81.1,4.6,81.3,4.6L81.3,4.6z M82.4,4.2c0-0.1,0-0.2-0.1-0.2
		c-0.1-0.1-0.1-0.2-0.2-0.2c-0.2,0-0.3,0.2-0.4,0.4c0,0.1,0.1,0.2,0.3,0.3C82.2,4.4,82.4,4.3,82.4,4.2z M82,2.7
		c0.1,0.1,0.2,0.1,0.3,0.2c0,0.1-0.1,0.2-0.2,0.2C82,3,81.9,3,81.8,2.9C81.9,2.8,81.9,2.7,82,2.7z"/>
	<path class="st1" d="M84.6,3.9c0,0.2,0,0.3,0,0.4c0,0.1,0,0.2-0.1,0.3c-0.1,0.1-0.2,0.2-0.3,0.2c-0.1,0-0.2-0.1-0.3-0.2h0
		c-0.1,0.1-0.2,0.2-0.4,0.2c-0.1,0-0.2-0.1-0.2-0.2h0c-0.1,0.2-0.3,0.2-0.5,0.2h0c-0.1,0-0.2-0.1-0.2-0.2c0-0.1,0-0.1,0.2-0.1h0.1
		c0.2,0,0.4-0.1,0.5-0.2l0.1-0.2l0.2-0.1l0,0c-0.1,0.1-0.2,0.3-0.2,0.3c0,0.1,0,0.1,0.1,0.1c0.1,0,0.1,0,0.2-0.1
		c0.1-0.1,0.1-0.1,0.2-0.4l0.1-0.1l0,0c0,0.1,0,0.2,0,0.2c0,0.2,0.1,0.3,0.2,0.3c0.1,0,0.1,0,0.1-0.1c0-0.1,0-0.2-0.1-0.4
		C84.4,4,84.5,4,84.6,3.9L84.6,3.9z"/>
	<path class="st1" d="M87.3,2.5c0,0.2,0.1,0.3,0.2,0.5c0,0-0.1,0.1-0.2,0.1c0,0.3,0,0.7,0,0.9c0,0.2,0,0.3-0.1,0.7
		C87.2,4.9,87.1,5,87,5.1c-0.1,0.1-0.3,0.1-0.5,0.1c-0.2,0-0.4-0.1-0.5-0.2c-0.1-0.1-0.2-0.3-0.2-0.5c0-0.2,0.1-0.4,0.2-0.6l0.1,0
		c-0.1,0.1-0.1,0.3-0.1,0.4c0,0.1,0,0.2,0.1,0.3c0.1,0.1,0.2,0.2,0.4,0.2c0.2,0,0.3,0,0.4-0.1c0.1-0.1,0.2-0.1,0.2-0.2
		c0,0,0-0.1,0-0.1c0-0.3,0-0.8-0.1-1.3c0-0.1,0-0.2,0-0.3c0-0.1,0-0.1,0-0.2C87.2,2.6,87.3,2.6,87.3,2.5L87.3,2.5z"/>
	<path class="st1" d="M88.5,4.9L88.5,4.9c-0.2,0-0.3,0-0.4-0.1c-0.1-0.1-0.1-0.3-0.1-0.6c0-0.4,0-0.9-0.1-1.4
		c0.1-0.1,0.1-0.2,0.2-0.2l0,0c0,0.5,0,1.1,0,1.6v0.1c0,0.1,0.1,0.2,0.2,0.2c0.1,0,0.1,0,0.1,0h0V4.9z"/>
	<path class="st1" d="M90.3,3.9c0,0.2,0,0.3,0,0.4c0,0.1,0,0.2-0.1,0.3c-0.1,0.1-0.2,0.2-0.3,0.2c-0.1,0-0.2-0.1-0.3-0.2h0
		c-0.1,0.1-0.2,0.2-0.4,0.2c-0.1,0-0.2-0.1-0.2-0.2h0c-0.1,0.2-0.3,0.2-0.5,0.2h0c-0.1,0-0.2-0.1-0.2-0.2c0-0.1,0-0.1,0.2-0.1h0.1
		c0.2,0,0.4-0.1,0.5-0.2l0.1-0.2l0.2-0.1l0,0c-0.1,0.1-0.2,0.3-0.2,0.3c0,0.1,0,0.1,0.1,0.1c0.1,0,0.1,0,0.2-0.1
		c0.1-0.1,0.1-0.1,0.2-0.4l0.1-0.1l0,0c0,0.1,0,0.2,0,0.2c0,0.2,0.1,0.3,0.2,0.3c0.1,0,0.1,0,0.1-0.1c0-0.1,0-0.2-0.1-0.4
		C90.1,4,90.2,4,90.3,3.9L90.3,3.9z"/>
	<path class="st1" d="M91.5,3.7L91.6,4c0.1,0.1,0.1,0.2,0.1,0.4v0.2c0,0.2-0.1,0.4-0.3,0.6c-0.1,0.1-0.3,0.2-0.4,0.2
		c-0.2,0-0.4-0.1-0.6-0.2l0-0.1c0.1,0,0.2,0,0.3,0c0.3,0,0.6-0.3,0.8-0.6c0,0,0-0.1,0-0.1c0,0,0-0.1,0-0.1c-0.1-0.2-0.2-0.3-0.3-0.5
		C91.4,3.9,91.4,3.8,91.5,3.7L91.5,3.7z"/>
	<path class="st1" d="M92.2,4.9c0-0.1,0-0.3,0-0.5V4.2c0-0.4,0-1-0.1-1.4c0.1-0.1,0.2-0.2,0.2-0.2l0,0c0,0.5,0.1,1.1,0.1,1.6
		c0,0.1,0,0.3,0,0.4C92.4,4.7,92.3,4.8,92.2,4.9L92.2,4.9z"/>
	<path class="st1" d="M94.9,5c-0.6,0-1.1-0.2-1.1-0.8c0-0.2,0-0.4,0.1-0.5l0.1,0c0,0.1-0.1,0.2-0.1,0.3c0,0.5,0.4,0.6,1,0.6
		c0.3,0,0.5,0,0.8-0.1c0.1,0,0.2-0.1,0.3-0.1c0,0,0,0,0,0c0-0.1-0.1-0.3-0.2-0.6c0.1-0.1,0.1-0.2,0.2-0.3h0c0.1,0.2,0.2,0.5,0.2,0.7
		c0,0.2-0.1,0.3-0.1,0.4C95.9,4.8,95.3,5,94.9,5z M94.8,3.4c-0.1-0.1-0.2-0.2-0.3-0.2c0.1-0.1,0.1-0.2,0.2-0.2
		c0.1,0.1,0.2,0.1,0.3,0.2C94.9,3.3,94.9,3.4,94.8,3.4z M95.2,3.4c-0.1-0.1-0.2-0.2-0.3-0.2C95,3.1,95.1,3,95.1,3
		c0.1,0.1,0.2,0.1,0.3,0.2C95.3,3.3,95.3,3.4,95.2,3.4z"/>
	<path class="st1" d="M97.2,4.9L97.2,4.9c-0.2,0-0.3,0-0.4-0.1c-0.1-0.1-0.1-0.3-0.1-0.6c0-0.4,0-0.9-0.1-1.4
		c0.1-0.1,0.1-0.2,0.2-0.2l0,0c0,0.5,0,1.1,0,1.6v0.1c0,0.1,0.1,0.2,0.2,0.2c0.1,0,0.1,0,0.1,0h0V4.9z"/>
	<path class="st1" d="M97.4,4.6c0.1,0,0.2,0,0.3,0v0c-0.2-0.1-0.3-0.2-0.3-0.4c0-0.1,0-0.2,0.1-0.3c0.1-0.2,0.3-0.3,0.5-0.3
		c0.2,0,0.4,0.1,0.5,0.4l0,0c-0.1-0.1-0.2-0.1-0.4-0.1c-0.2,0-0.4,0.1-0.4,0.2c0,0.1,0.1,0.2,0.2,0.3c0.1,0.1,0.2,0.1,0.3,0.1
		c0.2,0,0.4-0.1,0.6-0.2l0,0l-0.1,0.3c-0.4,0.1-0.5,0.1-0.8,0.2c-0.2,0.1-0.4,0.1-0.6,0.1h-0.1c-0.1,0-0.2-0.1-0.2-0.2
		c0-0.1,0-0.1,0.2-0.1H97.4z"/>
	<path class="st1" d="M100.4,2.5c0,0.4,0,0.9,0,1.3c0,0.2,0,0.4,0.1,0.5c0,0.1,0.2,0.2,0.3,0.2h0v0.3h0c-0.2,0-0.5-0.2-0.5-0.6l0,0
		c-0.1,0.3-0.3,0.5-0.5,0.6c-0.2,0.1-0.3,0.1-0.5,0.1l-0.2,0l0,0c0.4-0.1,0.6-0.3,0.9-0.4c0-0.2-0.3-0.6-0.7-1.1
		C99.1,3.2,99,3.1,99,3c0-0.1,0-0.1,0.1-0.2h0c0.1,0.1,0.3,0.2,0.4,0.3l-0.1,0.1c0.1,0.2,0.2,0.3,0.4,0.5c0.1,0.2,0.2,0.3,0.2,0.5
		c0,0,0,0.1,0,0.1l0,0c0.1-0.1,0.1-0.1,0.2-0.2c0.1-0.1,0.1-0.3,0.1-0.7c0-0.3,0-0.5,0-0.8C100.3,2.6,100.3,2.6,100.4,2.5L100.4,2.5
		z"/>
	<path class="st1" d="M101,4.6l0.1-0.2c0-0.1,0-0.2,0-0.5c0-0.3,0-0.8-0.1-1c0-0.1,0-0.2,0-0.2c0-0.1,0.1-0.2,0.2-0.3l0,0
		c0,0.1,0.1,0.3,0.2,0.5L101.3,3c0,0.2,0,0.5,0,0.7c0,0.2,0,0.3-0.1,0.5h0c0.2-0.2,0.3-0.3,0.5-0.4c0.1-0.1,0.3-0.1,0.4-0.1
		c0.1,0,0.3,0,0.3,0.1c0.1,0.1,0.2,0.2,0.2,0.4c0,0,0,0.2-0.1,0.2c-0.1,0.4-0.9,0.4-1.3,0.4h-0.5c-0.1,0-0.2-0.1-0.2-0.2
		c0-0.1,0-0.1,0.2-0.1H101z M101.3,4.6c0.5,0,0.8,0,1-0.2c0.1,0,0.1-0.1,0.1-0.1c0-0.2-0.2-0.3-0.4-0.3c-0.3,0-0.6,0.2-0.9,0.6
		H101.3z"/>
	<path class="st1" d="M103.1,4.9c0-0.1,0-0.3,0-0.5V4.2c0-0.4,0-1-0.1-1.4c0.1-0.1,0.2-0.2,0.2-0.2l0,0c0,0.5,0.1,1.1,0.1,1.6
		c0,0.1,0,0.3,0,0.4C103.3,4.7,103.3,4.8,103.1,4.9L103.1,4.9z"/>
	<path class="st1" d="M124.7,4.9L124.7,4.9c-0.3,0-0.4,0-0.5-0.2c-0.1,0-0.2,0.1-0.4,0.1C123.6,4.9,123.3,5,123,5
		c-0.3,0-0.6,0-0.8-0.2c-0.2-0.1-0.3-0.3-0.3-0.6c0-0.2,0-0.4,0.1-0.5l0.1,0c0,0.1-0.1,0.2-0.1,0.3c0,0.2,0.1,0.4,0.3,0.5
		c0.2,0.1,0.4,0.1,0.7,0.1c0.3,0,0.5,0,0.8-0.1c0.1,0,0.2-0.1,0.3-0.1l0.1-0.3l0.1-0.1l0,0c0,0.1-0.1,0.2-0.1,0.3
		c0,0.1,0,0.2,0.1,0.2c0.1,0.1,0.2,0.1,0.3,0.1h0V4.9z M123,3.4c-0.1-0.1-0.2-0.2-0.3-0.2c0.1-0.1,0.1-0.2,0.2-0.2
		c0.1,0.1,0.2,0.1,0.3,0.2C123.1,3.3,123,3.4,123,3.4z M123.4,3.4c-0.1-0.1-0.2-0.2-0.3-0.2c0.1-0.1,0.1-0.2,0.2-0.2
		c0.1,0.1,0.2,0.1,0.3,0.2C123.5,3.3,123.5,3.4,123.4,3.4z"/>
	<path class="st1" d="M124.8,4.6c0.2,0,0.3,0,0.4,0c0.1,0,0.1-0.1,0.1-0.1c0-0.1-0.1-0.3-0.2-0.6c0.1-0.1,0.1-0.2,0.2-0.3h0
		c0.1,0.2,0.2,0.5,0.2,0.7c0,0.2-0.1,0.3-0.2,0.4c-0.1,0.1-0.3,0.1-0.6,0.1h0c-0.1,0-0.2-0.1-0.2-0.2C124.6,4.7,124.6,4.6,124.8,4.6
		L124.8,4.6z M125,5.8c-0.1-0.1-0.2-0.2-0.3-0.2c0.1-0.1,0.1-0.2,0.2-0.2c0.1,0.1,0.2,0.1,0.3,0.2C125.1,5.6,125,5.7,125,5.8z
		 M125.4,5.7c-0.1-0.1-0.2-0.2-0.3-0.2c0.1-0.1,0.1-0.2,0.2-0.2c0.1,0.1,0.2,0.1,0.3,0.2C125.5,5.6,125.5,5.7,125.4,5.7z"/>
	<path class="st1" d="M126.5,4.9L126.5,4.9c-0.2,0-0.3,0-0.4-0.1C126,4.6,126,4.4,126,4.1c0-0.4,0-0.9-0.1-1.4
		c0.1-0.1,0.1-0.2,0.2-0.2l0,0c0,0.5,0,1.1,0,1.6v0.1c0,0.1,0.1,0.2,0.2,0.2c0.1,0,0.1,0,0.1,0h0V4.9z"/>
	<path class="st1" d="M128.3,3.9c0,0.2,0,0.3,0,0.4c0,0.1,0,0.2-0.1,0.3c-0.1,0.1-0.2,0.2-0.3,0.2c-0.1,0-0.2-0.1-0.3-0.2h0
		c-0.1,0.1-0.2,0.2-0.4,0.2c-0.1,0-0.2-0.1-0.2-0.2h0c-0.1,0.2-0.3,0.2-0.5,0.2h0c-0.1,0-0.2-0.1-0.2-0.2c0-0.1,0-0.1,0.2-0.1h0.1
		c0.2,0,0.4-0.1,0.5-0.2l0.1-0.2l0.2-0.1l0,0c-0.1,0.1-0.2,0.3-0.2,0.3c0,0.1,0,0.1,0.1,0.1c0.1,0,0.1,0,0.2-0.1
		c0.1-0.1,0.1-0.1,0.2-0.4l0.1-0.1l0,0c0,0.1,0,0.2,0,0.2c0,0.2,0.1,0.3,0.2,0.3c0.1,0,0.1,0,0.1-0.1c0-0.1,0-0.2-0.1-0.4
		C128.2,4,128.2,4,128.3,3.9L128.3,3.9z"/>
	<path class="st1" d="M130.1,4.6c-0.2,0-0.4-0.1-0.4-0.3c0-0.1,0-0.1,0.1-0.3c0.1-0.2,0.3-0.4,0.7-0.6l0-0.2
		c0.1-0.1,0.1-0.1,0.2-0.2h0c0,0.4,0,0.7,0,1.1c0,0.2,0,0.3,0.1,0.3c0.1,0,0.1,0.1,0.2,0.1h0.1v0.3h0c-0.2,0-0.4-0.1-0.5-0.3
		C130.4,4.6,130.3,4.6,130.1,4.6z M130.5,3.7c-0.4,0.2-0.6,0.4-0.6,0.5c0,0.1,0.1,0.1,0.3,0.1c0.1,0,0.2,0,0.3-0.1L130.5,3.7z"/>
	<path class="st1" d="M131.1,4.6c0.2,0,0.3,0,0.4,0c0.1,0,0.1-0.1,0.1-0.1c0-0.1-0.1-0.3-0.2-0.6c0.1-0.1,0.1-0.2,0.2-0.3h0
		c0.1,0.2,0.2,0.5,0.2,0.7c0,0.2-0.1,0.3-0.2,0.4c-0.1,0.1-0.3,0.1-0.6,0.1h0c-0.1,0-0.2-0.1-0.2-0.2C130.9,4.7,130.9,4.6,131.1,4.6
		L131.1,4.6z M131.5,5.3c0.1,0.1,0.2,0.1,0.3,0.2c0,0.1-0.1,0.2-0.2,0.2c-0.1-0.1-0.2-0.2-0.3-0.2C131.4,5.4,131.4,5.4,131.5,5.3z"
		/>
	<path class="st1" d="M133.2,4.2c0,0.2,0.1,0.3,0.4,0.3c0.2,0,0.3-0.1,0.5-0.1c0,0,0,0,0-0.1c0-0.1-0.1-0.3-0.2-0.4
		c-0.1-0.1-0.3-0.3-0.5-0.3c-0.1,0-0.1-0.1-0.1-0.1c0-0.1,0.1-0.2,0.1-0.3l0,0c0.2,0.1,0.4,0.3,0.5,0.5c0.1,0.2,0.2,0.3,0.2,0.5
		c0,0.1,0,0.3-0.1,0.4c-0.2,0.1-0.4,0.2-0.6,0.2c-0.3,0-0.4-0.1-0.4-0.5C133.1,4.4,133.1,4.3,133.2,4.2L133.2,4.2z"/>
	<path class="st1" d="M135.4,4.6c-0.3,0-0.5-0.1-0.5-0.4c0-0.1,0.1-0.3,0.1-0.4c0.1-0.1,0.2-0.2,0.3-0.2c0.1,0,0.3,0.1,0.3,0.3
		c0.1,0.2,0.1,0.4,0.1,0.6c0,0.2-0.1,0.4-0.2,0.6c-0.2,0.3-0.4,0.4-0.6,0.4c-0.2,0-0.4-0.1-0.6-0.2l0-0.1c0.1,0.1,0.2,0.1,0.3,0.1
		c0.2,0,0.5-0.1,0.7-0.3c0.1-0.1,0.2-0.2,0.2-0.4C135.6,4.6,135.5,4.6,135.4,4.6z M135.3,3.9c-0.1,0-0.3,0.1-0.3,0.2
		c0,0.1,0.2,0.2,0.4,0.2c0.1,0,0.2,0,0.3,0C135.6,4.1,135.5,3.9,135.3,3.9z"/>
	<path class="st1" d="M137,3.7l0.2,0.3c0.1,0.1,0.1,0.2,0.1,0.4v0.2c0,0.2-0.1,0.4-0.3,0.6c-0.1,0.1-0.3,0.2-0.4,0.2
		c-0.2,0-0.4-0.1-0.6-0.2l0-0.1c0.1,0,0.2,0,0.3,0c0.3,0,0.6-0.3,0.8-0.6c0,0,0-0.1,0-0.1c0,0,0-0.1,0-0.1c-0.1-0.2-0.2-0.3-0.3-0.5
		C136.9,3.9,136.9,3.8,137,3.7L137,3.7z"/>
	<path class="st1" d="M138.4,4.6c-0.3,0-0.5-0.1-0.5-0.4c0-0.1,0.1-0.3,0.1-0.4c0.1-0.1,0.2-0.2,0.3-0.2c0.1,0,0.3,0.1,0.3,0.3
		c0.1,0.2,0.1,0.4,0.1,0.6c0,0.2-0.1,0.4-0.2,0.6c-0.2,0.3-0.4,0.4-0.6,0.4c-0.2,0-0.4-0.1-0.6-0.2l0-0.1c0.1,0.1,0.2,0.1,0.3,0.1
		c0.2,0,0.5-0.1,0.7-0.3c0.1-0.1,0.2-0.2,0.2-0.4C138.6,4.6,138.5,4.6,138.4,4.6z M138.3,3.9c-0.1,0-0.3,0.1-0.3,0.2
		c0,0.1,0.2,0.2,0.4,0.2c0.1,0,0.2,0,0.3,0C138.6,4.1,138.5,3.9,138.3,3.9z"/>
</g>
<g>
	<path class="st1" d="M3.9,4.9L3.9,4.9c-0.3,0-0.4,0-0.5-0.2C3.3,4.7,3.2,4.8,3,4.8C2.8,4.9,2.5,5,2.2,5c-0.3,0-0.6,0-0.8-0.2
		C1.2,4.7,1.1,4.4,1.1,4.2c0-0.2,0-0.4,0.1-0.5l0.1,0c0,0.1-0.1,0.2-0.1,0.3c0,0.2,0.1,0.4,0.3,0.5C1.7,4.6,2,4.6,2.2,4.6
		c0.3,0,0.5,0,0.8-0.1c0.1,0,0.2-0.1,0.3-0.1l0.1-0.3L3.6,4l0,0c0,0.1-0.1,0.2-0.1,0.3c0,0.1,0,0.2,0.1,0.2c0.1,0.1,0.2,0.1,0.3,0.1
		h0V4.9z M2.2,3.4C2.1,3.4,2,3.3,1.9,3.2C2,3.1,2,3.1,2.1,3c0.1,0.1,0.2,0.1,0.3,0.2C2.3,3.3,2.2,3.4,2.2,3.4z M2.6,3.4
		C2.5,3.3,2.4,3.3,2.3,3.2C2.4,3.1,2.5,3,2.5,3C2.6,3,2.7,3.1,2.8,3.2C2.7,3.3,2.7,3.4,2.6,3.4z"/>
	<path class="st1" d="M4,4.6c0.4,0,0.7-0.1,1.2-0.4l0,0C5,4.1,4.8,4,4.5,4C4.4,4,4.3,4,4.3,4.1l0,0.1L4.2,4.4h0L4.1,4.1
		c0-0.3,0.2-0.4,0.5-0.4c0.2,0,0.4,0.1,0.7,0.2C5.4,4,5.6,4,5.7,4l0.2,0l0,0L5.8,4.2c-0.2,0-0.3,0-0.4,0.1L5,4.6
		C4.7,4.8,4.4,4.9,4,4.9H3.9c-0.1,0-0.2-0.1-0.2-0.2c0-0.1,0-0.1,0.2-0.1H4z M4.7,2.9C4.8,3,4.9,3.1,5,3.2c0,0.1-0.1,0.2-0.2,0.2
		C4.7,3.3,4.6,3.2,4.5,3.2C4.6,3.1,4.6,3,4.7,2.9z"/>
	<path class="st1" d="M6.3,4.9c0-0.1,0-0.3,0-0.5V4.2c0-0.4,0-1-0.1-1.4c0.1-0.1,0.2-0.2,0.2-0.2l0,0c0,0.5,0.1,1.1,0.1,1.6
		c0,0.1,0,0.3,0,0.4C6.5,4.7,6.4,4.8,6.3,4.9L6.3,4.9z"/>
	<path class="st1" d="M7.1,4.2c0,0.2,0.1,0.3,0.4,0.3c0.2,0,0.3-0.1,0.5-0.1c0,0,0,0,0-0.1C8,4.3,7.9,4.1,7.7,4
		C7.6,3.8,7.4,3.7,7.3,3.6c-0.1,0-0.1-0.1-0.1-0.1c0-0.1,0.1-0.2,0.1-0.3l0,0c0.2,0.1,0.4,0.3,0.5,0.5C8,3.9,8.1,4.1,8.1,4.3
		c0,0.1,0,0.3-0.1,0.4C7.8,4.8,7.6,4.9,7.4,4.9C7.1,4.9,7,4.7,7,4.4C7,4.4,7,4.3,7.1,4.2L7.1,4.2z"/>
	<path class="st1" d="M9.2,4.1c0.1,0.3,0.2,0.5,0.5,0.5h0v0.3h0c-0.1,0-0.2,0-0.2-0.1h0c0,0,0,0.1,0,0.1c0,0.1,0,0.2-0.1,0.3
		C9.2,5.5,9,5.7,8.9,5.7c-0.2,0-0.4-0.1-0.6-0.2l0-0.1c0.1,0,0.1,0,0.3,0c0.3,0,0.7-0.3,0.8-0.7c0,0,0-0.1-0.1-0.1
		C9.2,4.6,9.1,4.5,9.1,4.3C9.1,4.2,9.2,4.2,9.2,4.1L9.2,4.1z"/>
	<path class="st1" d="M9.8,4.6c0.2,0,0.3,0,0.4,0c0.1,0,0.1-0.1,0.1-0.1c0-0.1-0.1-0.3-0.2-0.6c0.1-0.1,0.1-0.2,0.2-0.3h0
		c0.1,0.2,0.2,0.5,0.2,0.7c0,0.2-0.1,0.3-0.2,0.4c-0.1,0.1-0.3,0.1-0.6,0.1h0c-0.1,0-0.2-0.1-0.2-0.2C9.6,4.7,9.6,4.6,9.8,4.6
		L9.8,4.6z M10,5.7C9.9,5.6,9.9,5.5,9.8,5.4C9.8,5.3,9.9,5.3,10,5.2c0.1,0.1,0.2,0.1,0.3,0.2C10.1,5.5,10.1,5.6,10,5.7z M10.4,6.1
		c-0.1-0.1-0.2-0.2-0.3-0.2c0.1-0.1,0.1-0.2,0.2-0.2c0.1,0.1,0.2,0.1,0.3,0.2C10.5,6,10.4,6,10.4,6.1z M10.5,5.6
		c-0.1-0.1-0.2-0.2-0.3-0.2c0.1-0.1,0.1-0.2,0.2-0.2c0.1,0.1,0.2,0.1,0.3,0.2C10.6,5.5,10.5,5.6,10.5,5.6z"/>
	<path class="st1" d="M13,5c-0.6,0-1.1-0.2-1.1-0.8c0-0.2,0-0.4,0.1-0.5l0.1,0c0,0.1-0.1,0.2-0.1,0.3c0,0.5,0.4,0.6,1,0.6
		c0.3,0,0.5,0,0.8-0.1c0.1,0,0.2-0.1,0.3-0.1c0,0,0,0,0,0c0-0.1-0.1-0.3-0.2-0.6C14,3.8,14,3.7,14.1,3.6h0c0.1,0.2,0.2,0.5,0.2,0.7
		c0,0.2-0.1,0.3-0.1,0.4C14,4.8,13.4,5,13,5z M12.9,3.4c-0.1-0.1-0.2-0.2-0.3-0.2c0.1-0.1,0.1-0.2,0.2-0.2c0.1,0.1,0.2,0.1,0.3,0.2
		C13,3.3,13,3.4,12.9,3.4z M13.3,3.4c-0.1-0.1-0.2-0.2-0.3-0.2C13.1,3.1,13.2,3,13.3,3c0.1,0.1,0.2,0.1,0.3,0.2
		C13.5,3.3,13.4,3.4,13.3,3.4z"/>
	<path class="st1" d="M15.3,4.9L15.3,4.9c-0.2,0-0.3,0-0.4-0.1c-0.1-0.1-0.1-0.3-0.1-0.6c0-0.4,0-0.9-0.1-1.4
		c0.1-0.1,0.1-0.2,0.2-0.2l0,0c0,0.5,0,1.1,0,1.6v0.1c0,0.1,0.1,0.2,0.2,0.2c0.1,0,0.1,0,0.1,0h0V4.9z"/>
	<path class="st1" d="M15.5,4.6c0.1,0,0.2,0,0.3,0v0c-0.2-0.1-0.3-0.2-0.3-0.4c0-0.1,0-0.2,0.1-0.3c0.1-0.2,0.3-0.3,0.5-0.3
		c0.2,0,0.4,0.1,0.5,0.4l0,0c-0.1-0.1-0.2-0.1-0.4-0.1c-0.2,0-0.4,0.1-0.4,0.2c0,0.1,0.1,0.2,0.2,0.3c0.1,0.1,0.2,0.1,0.3,0.1
		c0.2,0,0.4-0.1,0.6-0.2l0,0l-0.1,0.3c-0.4,0.1-0.5,0.1-0.8,0.2c-0.2,0.1-0.4,0.1-0.6,0.1h-0.1c-0.1,0-0.2-0.1-0.2-0.2
		c0-0.1,0-0.1,0.2-0.1H15.5z"/>
	<path class="st1" d="M18.5,2.5c0,0.4,0,0.9,0,1.3c0,0.2,0,0.4,0.1,0.5c0,0.1,0.2,0.2,0.3,0.2h0v0.3h0c-0.2,0-0.5-0.2-0.5-0.6l0,0
		c-0.1,0.3-0.3,0.5-0.5,0.6c-0.2,0.1-0.3,0.1-0.5,0.1l-0.2,0l0,0c0.4-0.1,0.6-0.3,0.9-0.4c0-0.2-0.3-0.6-0.7-1.1
		c-0.1-0.2-0.2-0.3-0.2-0.4c0-0.1,0-0.1,0.1-0.2h0c0.1,0.1,0.3,0.2,0.4,0.3l-0.1,0.1c0.1,0.2,0.2,0.3,0.4,0.5
		c0.1,0.2,0.2,0.3,0.2,0.5c0,0,0,0.1,0,0.1l0,0c0.1-0.1,0.1-0.1,0.2-0.2c0.1-0.1,0.1-0.3,0.1-0.7c0-0.3,0-0.5,0-0.8
		C18.4,2.6,18.4,2.6,18.5,2.5L18.5,2.5z"/>
	<path class="st1" d="M19.1,4.6l0.1-0.2c0-0.1,0-0.2,0-0.5c0-0.3,0-0.8-0.1-1c0-0.1,0-0.2,0-0.2c0-0.1,0.1-0.2,0.2-0.3l0,0
		c0,0.1,0.1,0.3,0.2,0.5L19.4,3c0,0.2,0,0.5,0,0.7c0,0.2,0,0.3-0.1,0.5h0c0.2-0.2,0.3-0.3,0.5-0.4c0.1-0.1,0.3-0.1,0.4-0.1
		c0.1,0,0.3,0,0.3,0.1c0.1,0.1,0.2,0.2,0.2,0.4c0,0,0,0.2-0.1,0.2c-0.1,0.4-0.9,0.4-1.3,0.4h-0.5c-0.1,0-0.2-0.1-0.2-0.2
		c0-0.1,0-0.1,0.2-0.1H19.1z M19.5,4.6c0.5,0,0.8,0,1-0.2c0.1,0,0.1-0.1,0.1-0.1c0-0.2-0.2-0.3-0.4-0.3c-0.3,0-0.6,0.2-0.9,0.6H19.5
		z"/>
	<path class="st1" d="M21.2,4.9c0-0.1,0-0.3,0-0.5V4.2c0-0.4,0-1-0.1-1.4c0.1-0.1,0.2-0.2,0.2-0.2l0,0c0,0.5,0.1,1.1,0.1,1.6
		c0,0.1,0,0.3,0,0.4C21.5,4.7,21.4,4.8,21.2,4.9L21.2,4.9z"/>
	<path class="st1" d="M41.3,4c0.1,0.1,0.1,0.2,0.1,0.3c0,0.1,0,0.2,0.2,0.2c0,0,0.1,0,0.2,0c0.1,0,0.1-0.1,0.1-0.2l0.1-0.2L42.1,4
		l0,0c0,0.1,0,0.2,0,0.2c0,0.2,0.1,0.3,0.2,0.3c0.1,0,0.1,0,0.1-0.1c0-0.1,0-0.2-0.1-0.4c0.1-0.1,0.1-0.1,0.2-0.2l0,0
		c0,0.2,0,0.3,0,0.4c0,0.1,0,0.2-0.1,0.3c-0.1,0.1-0.2,0.3-0.3,0.3c-0.1,0-0.2-0.1-0.3-0.2h0c-0.1,0.1-0.2,0.2-0.4,0.2h-0.1
		c0,0.1,0,0.3-0.1,0.3c-0.1,0.3-0.4,0.4-0.8,0.4c-0.4,0-0.7-0.3-0.7-0.7c0-0.2,0.1-0.5,0.2-0.6l0.1,0c-0.1,0.1-0.1,0.3-0.1,0.4
		c0,0.4,0.3,0.5,0.6,0.5c0.3,0,0.6-0.2,0.7-0.4c0-0.3-0.1-0.4-0.2-0.6C41.1,4.1,41.2,4.1,41.3,4L41.3,4z M41.7,3.6
		c-0.1-0.1-0.2-0.2-0.3-0.2c0.1-0.1,0.1-0.2,0.2-0.2c0.1,0.1,0.2,0.1,0.3,0.2C41.8,3.5,41.8,3.6,41.7,3.6z M41.8,3.2
		c-0.1-0.1-0.2-0.2-0.3-0.2c0.1-0.1,0.1-0.2,0.2-0.2C41.9,2.8,41.9,2.9,42,3C42,3.1,41.9,3.1,41.8,3.2z M42.2,3.6
		c-0.1-0.1-0.2-0.2-0.3-0.2C42,3.3,42,3.2,42.1,3.2c0.1,0.1,0.2,0.1,0.3,0.2C42.3,3.5,42.2,3.6,42.2,3.6z"/>
	<path class="st1" d="M43.8,3.7L43.9,4C44,4.1,44,4.2,44,4.4v0.2c0,0.2-0.1,0.4-0.3,0.6c-0.1,0.1-0.3,0.2-0.4,0.2
		c-0.2,0-0.4-0.1-0.6-0.2l0-0.1c0.1,0,0.2,0,0.3,0c0.3,0,0.6-0.3,0.8-0.6c0,0,0-0.1,0-0.1c0,0,0-0.1,0-0.1c-0.1-0.2-0.2-0.3-0.3-0.5
		C43.6,3.9,43.7,3.8,43.8,3.7L43.8,3.7z"/>
	<path class="st1" d="M45,4.9L45,4.9c-0.2,0-0.3,0-0.4-0.1c-0.1-0.1-0.1-0.3-0.1-0.6c0-0.4,0-0.9-0.1-1.4c0.1-0.1,0.1-0.2,0.2-0.2
		l0,0c0,0.5,0,1.1,0,1.6v0.1c0,0.1,0.1,0.2,0.2,0.2c0.1,0,0.1,0,0.1,0h0V4.9z"/>
	<path class="st1" d="M45.1,4.6c0.1,0,0.3,0,0.4-0.1c-0.1-0.1-0.1-0.2-0.1-0.3c0-0.2,0.1-0.4,0.2-0.5c0.1-0.1,0.3-0.2,0.3-0.2
		s0.2,0.1,0.3,0.3c0.1,0.1,0.1,0.2,0.1,0.3c0,0.2-0.1,0.4-0.2,0.5c0.1,0,0.2,0,0.4,0h0.1v0.3h-0.1c-0.2,0-0.5,0-0.7-0.1
		c-0.3,0.1-0.5,0.1-0.6,0.1h0c-0.1,0-0.2-0.1-0.2-0.2C44.9,4.7,44.9,4.6,45.1,4.6L45.1,4.6z M46.1,4.2c0-0.1,0-0.2-0.1-0.2
		c-0.1-0.1-0.1-0.2-0.2-0.2c-0.2,0-0.3,0.2-0.4,0.4c0,0.1,0.1,0.2,0.3,0.3C45.9,4.4,46.1,4.3,46.1,4.2z M45.8,2.7
		c0.1,0.1,0.2,0.1,0.3,0.2c0,0.1-0.1,0.2-0.2,0.2C45.7,3,45.7,3,45.6,2.9C45.6,2.8,45.7,2.7,45.8,2.7z"/>
	<path class="st1" d="M48.3,3.9c0,0.2,0,0.3,0,0.4c0,0.1,0,0.2-0.1,0.3c-0.1,0.1-0.2,0.2-0.3,0.2c-0.1,0-0.2-0.1-0.3-0.2h0
		c-0.1,0.1-0.2,0.2-0.4,0.2c-0.1,0-0.2-0.1-0.2-0.2h0c-0.1,0.2-0.3,0.2-0.5,0.2h0c-0.1,0-0.2-0.1-0.2-0.2c0-0.1,0-0.1,0.2-0.1h0.1
		c0.2,0,0.4-0.1,0.5-0.2l0.1-0.2l0.2-0.1l0,0c-0.1,0.1-0.2,0.3-0.2,0.3c0,0.1,0,0.1,0.1,0.1c0.1,0,0.1,0,0.2-0.1
		c0.1-0.1,0.1-0.1,0.2-0.4l0.1-0.1l0,0c0,0.1,0,0.2,0,0.2c0,0.2,0.1,0.3,0.2,0.3c0.1,0,0.1,0,0.1-0.1c0-0.1,0-0.2-0.1-0.4
		C48.2,4,48.2,4,48.3,3.9L48.3,3.9z"/>
	<path class="st1" d="M51.7,4.6v0.3h-0.1c0,0.1,0,0.1,0,0.2c0,0.1-0.1,0.2-0.1,0.3c-0.3,0.3-0.7,0.4-1.1,0.4c-0.3,0-0.5-0.1-0.6-0.2
		c-0.1-0.2-0.2-0.4-0.2-0.6c0-0.2,0.1-0.5,0.2-0.7l0.1,0c-0.1,0.2-0.1,0.4-0.1,0.6c0,0.2,0.1,0.4,0.2,0.5c0.1,0.1,0.3,0.2,0.5,0.2
		c0.2,0,0.4-0.1,0.7-0.2c0.1-0.1,0.2-0.1,0.2-0.2c-0.1-0.1-0.3-0.2-0.7-0.2l0,0l0.2-0.3H51.7z"/>
	<path class="st1" d="M51.8,4.6c0.2,0,0.4-0.1,0.4-0.2l0.1-0.2L52.4,4l0,0c0,0.1,0,0.2,0,0.3c0,0.1,0,0.1,0.1,0.2
		c0.1,0.1,0.2,0.1,0.3,0.1h0v0.3h-0.1c-0.2,0-0.4-0.1-0.5-0.2h0c-0.1,0.2-0.3,0.2-0.4,0.2h0c-0.1,0-0.2-0.1-0.2-0.2
		C51.6,4.7,51.6,4.6,51.8,4.6L51.8,4.6z M52.2,3.2c0.1,0.1,0.2,0.1,0.3,0.2c0,0.1-0.1,0.2-0.2,0.2c-0.1-0.1-0.2-0.2-0.3-0.2
		C52.1,3.4,52.1,3.3,52.2,3.2z"/>
	<path class="st1" d="M52.8,4.6c0.2,0,0.4-0.1,0.4-0.2l0.1-0.2L53.4,4l0,0c0,0.1,0,0.2,0,0.3c0,0.1,0,0.1,0.1,0.2
		c0.1,0.1,0.2,0.1,0.3,0.1h0v0.3h-0.1c-0.2,0-0.4-0.1-0.5-0.2h0c-0.1,0.2-0.3,0.2-0.4,0.2h0c-0.1,0-0.2-0.1-0.2-0.2
		C52.6,4.7,52.6,4.6,52.8,4.6L52.8,4.6z M53.1,5.8c-0.1-0.1-0.2-0.2-0.3-0.2c0.1-0.1,0.1-0.2,0.2-0.2c0.1,0.1,0.2,0.1,0.3,0.2
		C53.2,5.6,53.1,5.7,53.1,5.8z M53.5,5.7c-0.1-0.1-0.2-0.2-0.3-0.2c0.1-0.1,0.1-0.2,0.2-0.2c0.1,0.1,0.2,0.1,0.3,0.2
		C53.6,5.6,53.6,5.7,53.5,5.7z"/>
	<path class="st1" d="M53.8,4.6c0.2,0,0.3,0,0.4,0c0.1,0,0.1-0.1,0.1-0.1c0-0.1-0.1-0.3-0.2-0.6c0.1-0.1,0.1-0.2,0.2-0.3h0
		c0.1,0.2,0.2,0.5,0.2,0.7c0,0.2-0.1,0.3-0.2,0.4c-0.1,0.1-0.3,0.1-0.6,0.1h0c-0.1,0-0.2-0.1-0.2-0.2C53.6,4.7,53.7,4.6,53.8,4.6
		L53.8,4.6z M54.2,5.3c0.1,0.1,0.2,0.1,0.3,0.2c0,0.1-0.1,0.2-0.2,0.2c-0.1-0.1-0.2-0.2-0.3-0.2C54.1,5.4,54.2,5.4,54.2,5.3z"/>
	<path class="st1" d="M55.7,3.7L55.9,4C55.9,4.1,56,4.2,56,4.4v0.2c0,0.2-0.1,0.4-0.3,0.6c-0.1,0.1-0.3,0.2-0.4,0.2
		c-0.2,0-0.4-0.1-0.6-0.2l0-0.1c0.1,0,0.2,0,0.3,0c0.3,0,0.6-0.3,0.8-0.6c0,0,0-0.1,0-0.1c0,0,0-0.1,0-0.1c-0.1-0.2-0.2-0.3-0.3-0.5
		C55.6,3.9,55.7,3.8,55.7,3.7L55.7,3.7z M55.5,2.9c0.1,0.1,0.2,0.1,0.3,0.2c0,0.1-0.1,0.2-0.2,0.2c-0.1-0.1-0.2-0.2-0.3-0.2
		C55.4,3.1,55.5,3,55.5,2.9z"/>
	<path class="st1" d="M57,4.9L57,4.9c-0.2,0-0.3,0-0.4-0.1c-0.1-0.1-0.1-0.3-0.1-0.6c0-0.4,0-0.9-0.1-1.4c0.1-0.1,0.1-0.2,0.2-0.2
		l0,0c0,0.5,0,1.1,0,1.6v0.1c0,0.1,0.1,0.2,0.2,0.2c0.1,0,0.1,0,0.1,0h0V4.9z"/>
	<path class="st1" d="M57,4.6c0.2,0,0.3,0,0.4,0c0.1,0,0.1-0.1,0.1-0.1c0-0.1-0.1-0.3-0.2-0.6c0.1-0.1,0.1-0.2,0.2-0.3h0
		c0.1,0.2,0.2,0.5,0.2,0.7c0,0.2-0.1,0.3-0.2,0.4c-0.1,0.1-0.3,0.1-0.6,0.1h0c-0.1,0-0.2-0.1-0.2-0.2C56.8,4.7,56.9,4.6,57,4.6
		L57,4.6z M57.5,5.3c0.1,0.1,0.2,0.1,0.3,0.2c0,0.1-0.1,0.2-0.2,0.2c-0.1-0.1-0.2-0.2-0.3-0.2C57.3,5.4,57.4,5.4,57.5,5.3z"/>
	<path class="st1" d="M77.5,4c0.1,0.1,0.1,0.2,0.1,0.3c0,0.1,0,0.2,0.2,0.2c0,0,0.1,0,0.2,0c0.1,0,0.1-0.1,0.1-0.2l0.1-0.2L78.3,4
		l0,0c0,0.1,0,0.2,0,0.2c0,0.2,0.1,0.3,0.2,0.3c0.1,0,0.1,0,0.1-0.1c0-0.1,0-0.2-0.1-0.4c0.1-0.1,0.1-0.1,0.2-0.2l0,0
		c0,0.2,0,0.3,0,0.4c0,0.1,0,0.2-0.1,0.3c-0.1,0.1-0.2,0.3-0.3,0.3c-0.1,0-0.2-0.1-0.3-0.2h0c-0.1,0.1-0.2,0.2-0.4,0.2h-0.1
		c0,0.1,0,0.3-0.1,0.3c-0.1,0.3-0.4,0.4-0.8,0.4c-0.4,0-0.7-0.3-0.7-0.7c0-0.2,0.1-0.5,0.2-0.6l0.1,0c-0.1,0.1-0.1,0.3-0.1,0.4
		c0,0.4,0.3,0.5,0.6,0.5c0.3,0,0.6-0.2,0.7-0.4c0-0.3-0.1-0.4-0.2-0.6C77.4,4.1,77.4,4.1,77.5,4L77.5,4z M78,3.6
		c-0.1-0.1-0.2-0.2-0.3-0.2c0.1-0.1,0.1-0.2,0.2-0.2c0.1,0.1,0.2,0.1,0.3,0.2C78.1,3.5,78,3.6,78,3.6z M78.1,3.2
		C78,3.1,77.9,3,77.8,2.9C77.9,2.9,78,2.8,78,2.7c0.1,0.1,0.2,0.1,0.3,0.2C78.2,3.1,78.2,3.1,78.1,3.2z M78.4,3.6
		c-0.1-0.1-0.2-0.2-0.3-0.2c0.1-0.1,0.1-0.2,0.2-0.2c0.1,0.1,0.2,0.1,0.3,0.2C78.5,3.5,78.5,3.6,78.4,3.6z"/>
	<path class="st1" d="M80,3.7L80.2,4c0.1,0.1,0.1,0.2,0.1,0.4v0.2c0,0.2-0.1,0.4-0.3,0.6c-0.1,0.1-0.3,0.2-0.4,0.2
		c-0.2,0-0.4-0.1-0.6-0.2l0-0.1c0.1,0,0.2,0,0.3,0c0.3,0,0.6-0.3,0.8-0.6c0,0,0-0.1,0-0.1c0,0,0-0.1,0-0.1C80,4.3,79.9,4.1,79.8,4
		C79.9,3.9,79.9,3.8,80,3.7L80,3.7z"/>
	<path class="st1" d="M81.3,4.9L81.3,4.9c-0.2,0-0.3,0-0.4-0.1c-0.1-0.1-0.1-0.3-0.1-0.6c0-0.4,0-0.9-0.1-1.4
		c0.1-0.1,0.1-0.2,0.2-0.2l0,0c0,0.5,0,1.1,0,1.6v0.1c0,0.1,0.1,0.2,0.2,0.2c0.1,0,0.1,0,0.1,0h0V4.9z"/>
	<path class="st1" d="M81.3,4.6c0.1,0,0.3,0,0.4-0.1c-0.1-0.1-0.1-0.2-0.1-0.3c0-0.2,0.1-0.4,0.2-0.5c0.1-0.1,0.3-0.2,0.3-0.2
		s0.2,0.1,0.3,0.3c0.1,0.1,0.1,0.2,0.1,0.3c0,0.2-0.1,0.4-0.2,0.5c0.1,0,0.2,0,0.4,0h0.1v0.3h-0.1c-0.2,0-0.5,0-0.7-0.1
		c-0.3,0.1-0.5,0.1-0.6,0.1h0c-0.1,0-0.2-0.1-0.2-0.2C81.1,4.7,81.1,4.6,81.3,4.6L81.3,4.6z M82.4,4.2c0-0.1,0-0.2-0.1-0.2
		c-0.1-0.1-0.1-0.2-0.2-0.2c-0.2,0-0.3,0.2-0.4,0.4c0,0.1,0.1,0.2,0.3,0.3C82.2,4.4,82.4,4.3,82.4,4.2z M82,2.7
		c0.1,0.1,0.2,0.1,0.3,0.2c0,0.1-0.1,0.2-0.2,0.2C82,3,81.9,3,81.8,2.9C81.9,2.8,81.9,2.7,82,2.7z"/>
	<path class="st1" d="M84.6,3.9c0,0.2,0,0.3,0,0.4c0,0.1,0,0.2-0.1,0.3c-0.1,0.1-0.2,0.2-0.3,0.2c-0.1,0-0.2-0.1-0.3-0.2h0
		c-0.1,0.1-0.2,0.2-0.4,0.2c-0.1,0-0.2-0.1-0.2-0.2h0c-0.1,0.2-0.3,0.2-0.5,0.2h0c-0.1,0-0.2-0.1-0.2-0.2c0-0.1,0-0.1,0.2-0.1h0.1
		c0.2,0,0.4-0.1,0.5-0.2l0.1-0.2l0.2-0.1l0,0c-0.1,0.1-0.2,0.3-0.2,0.3c0,0.1,0,0.1,0.1,0.1c0.1,0,0.1,0,0.2-0.1
		c0.1-0.1,0.1-0.1,0.2-0.4l0.1-0.1l0,0c0,0.1,0,0.2,0,0.2c0,0.2,0.1,0.3,0.2,0.3c0.1,0,0.1,0,0.1-0.1c0-0.1,0-0.2-0.1-0.4
		C84.4,4,84.5,4,84.6,3.9L84.6,3.9z"/>
	<path class="st1" d="M87.3,2.5c0,0.2,0.1,0.3,0.2,0.5c0,0-0.1,0.1-0.2,0.1c0,0.3,0,0.7,0,0.9c0,0.2,0,0.3-0.1,0.7
		C87.2,4.9,87.1,5,87,5.1c-0.1,0.1-0.3,0.1-0.5,0.1c-0.2,0-0.4-0.1-0.5-0.2c-0.1-0.1-0.2-0.3-0.2-0.5c0-0.2,0.1-0.4,0.2-0.6l0.1,0
		c-0.1,0.1-0.1,0.3-0.1,0.4c0,0.1,0,0.2,0.1,0.3c0.1,0.1,0.2,0.2,0.4,0.2c0.2,0,0.3,0,0.4-0.1c0.1-0.1,0.2-0.1,0.2-0.2
		c0,0,0-0.1,0-0.1c0-0.3,0-0.8-0.1-1.3c0-0.1,0-0.2,0-0.3c0-0.1,0-0.1,0-0.2C87.2,2.6,87.3,2.6,87.3,2.5L87.3,2.5z"/>
	<path class="st1" d="M88.5,4.9L88.5,4.9c-0.2,0-0.3,0-0.4-0.1c-0.1-0.1-0.1-0.3-0.1-0.6c0-0.4,0-0.9-0.1-1.4
		c0.1-0.1,0.1-0.2,0.2-0.2l0,0c0,0.5,0,1.1,0,1.6v0.1c0,0.1,0.1,0.2,0.2,0.2c0.1,0,0.1,0,0.1,0h0V4.9z"/>
	<path class="st1" d="M90.3,3.9c0,0.2,0,0.3,0,0.4c0,0.1,0,0.2-0.1,0.3c-0.1,0.1-0.2,0.2-0.3,0.2c-0.1,0-0.2-0.1-0.3-0.2h0
		c-0.1,0.1-0.2,0.2-0.4,0.2c-0.1,0-0.2-0.1-0.2-0.2h0c-0.1,0.2-0.3,0.2-0.5,0.2h0c-0.1,0-0.2-0.1-0.2-0.2c0-0.1,0-0.1,0.2-0.1h0.1
		c0.2,0,0.4-0.1,0.5-0.2l0.1-0.2l0.2-0.1l0,0c-0.1,0.1-0.2,0.3-0.2,0.3c0,0.1,0,0.1,0.1,0.1c0.1,0,0.1,0,0.2-0.1
		c0.1-0.1,0.1-0.1,0.2-0.4l0.1-0.1l0,0c0,0.1,0,0.2,0,0.2c0,0.2,0.1,0.3,0.2,0.3c0.1,0,0.1,0,0.1-0.1c0-0.1,0-0.2-0.1-0.4
		C90.1,4,90.2,4,90.3,3.9L90.3,3.9z"/>
	<path class="st1" d="M91.5,3.7L91.6,4c0.1,0.1,0.1,0.2,0.1,0.4v0.2c0,0.2-0.1,0.4-0.3,0.6c-0.1,0.1-0.3,0.2-0.4,0.2
		c-0.2,0-0.4-0.1-0.6-0.2l0-0.1c0.1,0,0.2,0,0.3,0c0.3,0,0.6-0.3,0.8-0.6c0,0,0-0.1,0-0.1c0,0,0-0.1,0-0.1c-0.1-0.2-0.2-0.3-0.3-0.5
		C91.4,3.9,91.4,3.8,91.5,3.7L91.5,3.7z"/>
	<path class="st1" d="M92.2,4.9c0-0.1,0-0.3,0-0.5V4.2c0-0.4,0-1-0.1-1.4c0.1-0.1,0.2-0.2,0.2-0.2l0,0c0,0.5,0.1,1.1,0.1,1.6
		c0,0.1,0,0.3,0,0.4C92.4,4.7,92.3,4.8,92.2,4.9L92.2,4.9z"/>
	<path class="st1" d="M94.9,5c-0.6,0-1.1-0.2-1.1-0.8c0-0.2,0-0.4,0.1-0.5l0.1,0c0,0.1-0.1,0.2-0.1,0.3c0,0.5,0.4,0.6,1,0.6
		c0.3,0,0.5,0,0.8-0.1c0.1,0,0.2-0.1,0.3-0.1c0,0,0,0,0,0c0-0.1-0.1-0.3-0.2-0.6c0.1-0.1,0.1-0.2,0.2-0.3h0c0.1,0.2,0.2,0.5,0.2,0.7
		c0,0.2-0.1,0.3-0.1,0.4C95.9,4.8,95.3,5,94.9,5z M94.8,3.4c-0.1-0.1-0.2-0.2-0.3-0.2c0.1-0.1,0.1-0.2,0.2-0.2
		c0.1,0.1,0.2,0.1,0.3,0.2C94.9,3.3,94.9,3.4,94.8,3.4z M95.2,3.4c-0.1-0.1-0.2-0.2-0.3-0.2C95,3.1,95.1,3,95.1,3
		c0.1,0.1,0.2,0.1,0.3,0.2C95.3,3.3,95.3,3.4,95.2,3.4z"/>
	<path class="st1" d="M97.2,4.9L97.2,4.9c-0.2,0-0.3,0-0.4-0.1c-0.1-0.1-0.1-0.3-0.1-0.6c0-0.4,0-0.9-0.1-1.4
		c0.1-0.1,0.1-0.2,0.2-0.2l0,0c0,0.5,0,1.1,0,1.6v0.1c0,0.1,0.1,0.2,0.2,0.2c0.1,0,0.1,0,0.1,0h0V4.9z"/>
	<path class="st1" d="M97.4,4.6c0.1,0,0.2,0,0.3,0v0c-0.2-0.1-0.3-0.2-0.3-0.4c0-0.1,0-0.2,0.1-0.3c0.1-0.2,0.3-0.3,0.5-0.3
		c0.2,0,0.4,0.1,0.5,0.4l0,0c-0.1-0.1-0.2-0.1-0.4-0.1c-0.2,0-0.4,0.1-0.4,0.2c0,0.1,0.1,0.2,0.2,0.3c0.1,0.1,0.2,0.1,0.3,0.1
		c0.2,0,0.4-0.1,0.6-0.2l0,0l-0.1,0.3c-0.4,0.1-0.5,0.1-0.8,0.2c-0.2,0.1-0.4,0.1-0.6,0.1h-0.1c-0.1,0-0.2-0.1-0.2-0.2
		c0-0.1,0-0.1,0.2-0.1H97.4z"/>
	<path class="st1" d="M100.4,2.5c0,0.4,0,0.9,0,1.3c0,0.2,0,0.4,0.1,0.5c0,0.1,0.2,0.2,0.3,0.2h0v0.3h0c-0.2,0-0.5-0.2-0.5-0.6l0,0
		c-0.1,0.3-0.3,0.5-0.5,0.6c-0.2,0.1-0.3,0.1-0.5,0.1l-0.2,0l0,0c0.4-0.1,0.6-0.3,0.9-0.4c0-0.2-0.3-0.6-0.7-1.1
		C99.1,3.2,99,3.1,99,3c0-0.1,0-0.1,0.1-0.2h0c0.1,0.1,0.3,0.2,0.4,0.3l-0.1,0.1c0.1,0.2,0.2,0.3,0.4,0.5c0.1,0.2,0.2,0.3,0.2,0.5
		c0,0,0,0.1,0,0.1l0,0c0.1-0.1,0.1-0.1,0.2-0.2c0.1-0.1,0.1-0.3,0.1-0.7c0-0.3,0-0.5,0-0.8C100.3,2.6,100.3,2.6,100.4,2.5L100.4,2.5
		z"/>
	<path class="st1" d="M101,4.6l0.1-0.2c0-0.1,0-0.2,0-0.5c0-0.3,0-0.8-0.1-1c0-0.1,0-0.2,0-0.2c0-0.1,0.1-0.2,0.2-0.3l0,0
		c0,0.1,0.1,0.3,0.2,0.5L101.3,3c0,0.2,0,0.5,0,0.7c0,0.2,0,0.3-0.1,0.5h0c0.2-0.2,0.3-0.3,0.5-0.4c0.1-0.1,0.3-0.1,0.4-0.1
		c0.1,0,0.3,0,0.3,0.1c0.1,0.1,0.2,0.2,0.2,0.4c0,0,0,0.2-0.1,0.2c-0.1,0.4-0.9,0.4-1.3,0.4h-0.5c-0.1,0-0.2-0.1-0.2-0.2
		c0-0.1,0-0.1,0.2-0.1H101z M101.3,4.6c0.5,0,0.8,0,1-0.2c0.1,0,0.1-0.1,0.1-0.1c0-0.2-0.2-0.3-0.4-0.3c-0.3,0-0.6,0.2-0.9,0.6
		H101.3z"/>
	<path class="st1" d="M103.1,4.9c0-0.1,0-0.3,0-0.5V4.2c0-0.4,0-1-0.1-1.4c0.1-0.1,0.2-0.2,0.2-0.2l0,0c0,0.5,0.1,1.1,0.1,1.6
		c0,0.1,0,0.3,0,0.4C103.3,4.7,103.3,4.8,103.1,4.9L103.1,4.9z"/>
	<path class="st1" d="M124.7,4.9L124.7,4.9c-0.3,0-0.4,0-0.5-0.2c-0.1,0-0.2,0.1-0.4,0.1C123.6,4.9,123.3,5,123,5
		c-0.3,0-0.6,0-0.8-0.2c-0.2-0.1-0.3-0.3-0.3-0.6c0-0.2,0-0.4,0.1-0.5l0.1,0c0,0.1-0.1,0.2-0.1,0.3c0,0.2,0.1,0.4,0.3,0.5
		c0.2,0.1,0.4,0.1,0.7,0.1c0.3,0,0.5,0,0.8-0.1c0.1,0,0.2-0.1,0.3-0.1l0.1-0.3l0.1-0.1l0,0c0,0.1-0.1,0.2-0.1,0.3
		c0,0.1,0,0.2,0.1,0.2c0.1,0.1,0.2,0.1,0.3,0.1h0V4.9z M123,3.4c-0.1-0.1-0.2-0.2-0.3-0.2c0.1-0.1,0.1-0.2,0.2-0.2
		c0.1,0.1,0.2,0.1,0.3,0.2C123.1,3.3,123,3.4,123,3.4z M123.4,3.4c-0.1-0.1-0.2-0.2-0.3-0.2c0.1-0.1,0.1-0.2,0.2-0.2
		c0.1,0.1,0.2,0.1,0.3,0.2C123.5,3.3,123.5,3.4,123.4,3.4z"/>
	<path class="st1" d="M124.8,4.6c0.2,0,0.3,0,0.4,0c0.1,0,0.1-0.1,0.1-0.1c0-0.1-0.1-0.3-0.2-0.6c0.1-0.1,0.1-0.2,0.2-0.3h0
		c0.1,0.2,0.2,0.5,0.2,0.7c0,0.2-0.1,0.3-0.2,0.4c-0.1,0.1-0.3,0.1-0.6,0.1h0c-0.1,0-0.2-0.1-0.2-0.2C124.6,4.7,124.6,4.6,124.8,4.6
		L124.8,4.6z M125,5.8c-0.1-0.1-0.2-0.2-0.3-0.2c0.1-0.1,0.1-0.2,0.2-0.2c0.1,0.1,0.2,0.1,0.3,0.2C125.1,5.6,125,5.7,125,5.8z
		 M125.4,5.7c-0.1-0.1-0.2-0.2-0.3-0.2c0.1-0.1,0.1-0.2,0.2-0.2c0.1,0.1,0.2,0.1,0.3,0.2C125.5,5.6,125.5,5.7,125.4,5.7z"/>
	<path class="st1" d="M126.5,4.9L126.5,4.9c-0.2,0-0.3,0-0.4-0.1C126,4.6,126,4.4,126,4.1c0-0.4,0-0.9-0.1-1.4
		c0.1-0.1,0.1-0.2,0.2-0.2l0,0c0,0.5,0,1.1,0,1.6v0.1c0,0.1,0.1,0.2,0.2,0.2c0.1,0,0.1,0,0.1,0h0V4.9z"/>
	<path class="st1" d="M128.3,3.9c0,0.2,0,0.3,0,0.4c0,0.1,0,0.2-0.1,0.3c-0.1,0.1-0.2,0.2-0.3,0.2c-0.1,0-0.2-0.1-0.3-0.2h0
		c-0.1,0.1-0.2,0.2-0.4,0.2c-0.1,0-0.2-0.1-0.2-0.2h0c-0.1,0.2-0.3,0.2-0.5,0.2h0c-0.1,0-0.2-0.1-0.2-0.2c0-0.1,0-0.1,0.2-0.1h0.1
		c0.2,0,0.4-0.1,0.5-0.2l0.1-0.2l0.2-0.1l0,0c-0.1,0.1-0.2,0.3-0.2,0.3c0,0.1,0,0.1,0.1,0.1c0.1,0,0.1,0,0.2-0.1
		c0.1-0.1,0.1-0.1,0.2-0.4l0.1-0.1l0,0c0,0.1,0,0.2,0,0.2c0,0.2,0.1,0.3,0.2,0.3c0.1,0,0.1,0,0.1-0.1c0-0.1,0-0.2-0.1-0.4
		C128.2,4,128.2,4,128.3,3.9L128.3,3.9z"/>
	<path class="st1" d="M130.1,4.6c-0.2,0-0.4-0.1-0.4-0.3c0-0.1,0-0.1,0.1-0.3c0.1-0.2,0.3-0.4,0.7-0.6l0-0.2
		c0.1-0.1,0.1-0.1,0.2-0.2h0c0,0.4,0,0.7,0,1.1c0,0.2,0,0.3,0.1,0.3c0.1,0,0.1,0.1,0.2,0.1h0.1v0.3h0c-0.2,0-0.4-0.1-0.5-0.3
		C130.4,4.6,130.3,4.6,130.1,4.6z M130.5,3.7c-0.4,0.2-0.6,0.4-0.6,0.5c0,0.1,0.1,0.1,0.3,0.1c0.1,0,0.2,0,0.3-0.1L130.5,3.7z"/>
	<path class="st1" d="M131.1,4.6c0.2,0,0.3,0,0.4,0c0.1,0,0.1-0.1,0.1-0.1c0-0.1-0.1-0.3-0.2-0.6c0.1-0.1,0.1-0.2,0.2-0.3h0
		c0.1,0.2,0.2,0.5,0.2,0.7c0,0.2-0.1,0.3-0.2,0.4c-0.1,0.1-0.3,0.1-0.6,0.1h0c-0.1,0-0.2-0.1-0.2-0.2C130.9,4.7,130.9,4.6,131.1,4.6
		L131.1,4.6z M131.5,5.3c0.1,0.1,0.2,0.1,0.3,0.2c0,0.1-0.1,0.2-0.2,0.2c-0.1-0.1-0.2-0.2-0.3-0.2C131.4,5.4,131.4,5.4,131.5,5.3z"
		/>
	<path class="st1" d="M133.2,4.2c0,0.2,0.1,0.3,0.4,0.3c0.2,0,0.3-0.1,0.5-0.1c0,0,0,0,0-0.1c0-0.1-0.1-0.3-0.2-0.4
		c-0.1-0.1-0.3-0.3-0.5-0.3c-0.1,0-0.1-0.1-0.1-0.1c0-0.1,0.1-0.2,0.1-0.3l0,0c0.2,0.1,0.4,0.3,0.5,0.5c0.1,0.2,0.2,0.3,0.2,0.5
		c0,0.1,0,0.3-0.1,0.4c-0.2,0.1-0.4,0.2-0.6,0.2c-0.3,0-0.4-0.1-0.4-0.5C133.1,4.4,133.1,4.3,133.2,4.2L133.2,4.2z"/>
	<path class="st1" d="M135.4,4.6c-0.3,0-0.5-0.1-0.5-0.4c0-0.1,0.1-0.3,0.1-0.4c0.1-0.1,0.2-0.2,0.3-0.2c0.1,0,0.3,0.1,0.3,0.3
		c0.1,0.2,0.1,0.4,0.1,0.6c0,0.2-0.1,0.4-0.2,0.6c-0.2,0.3-0.4,0.4-0.6,0.4c-0.2,0-0.4-0.1-0.6-0.2l0-0.1c0.1,0.1,0.2,0.1,0.3,0.1
		c0.2,0,0.5-0.1,0.7-0.3c0.1-0.1,0.2-0.2,0.2-0.4C135.6,4.6,135.5,4.6,135.4,4.6z M135.3,3.9c-0.1,0-0.3,0.1-0.3,0.2
		c0,0.1,0.2,0.2,0.4,0.2c0.1,0,0.2,0,0.3,0C135.6,4.1,135.5,3.9,135.3,3.9z"/>
	<path class="st1" d="M137,3.7l0.2,0.3c0.1,0.1,0.1,0.2,0.1,0.4v0.2c0,0.2-0.1,0.4-0.3,0.6c-0.1,0.1-0.3,0.2-0.4,0.2
		c-0.2,0-0.4-0.1-0.6-0.2l0-0.1c0.1,0,0.2,0,0.3,0c0.3,0,0.6-0.3,0.8-0.6c0,0,0-0.1,0-0.1c0,0,0-0.1,0-0.1c-0.1-0.2-0.2-0.3-0.3-0.5
		C136.9,3.9,136.9,3.8,137,3.7L137,3.7z"/>
	<path class="st1" d="M138.4,4.6c-0.3,0-0.5-0.1-0.5-0.4c0-0.1,0.1-0.3,0.1-0.4c0.1-0.1,0.2-0.2,0.3-0.2c0.1,0,0.3,0.1,0.3,0.3
		c0.1,0.2,0.1,0.4,0.1,0.6c0,0.2-0.1,0.4-0.2,0.6c-0.2,0.3-0.4,0.4-0.6,0.4c-0.2,0-0.4-0.1-0.6-0.2l0-0.1c0.1,0.1,0.2,0.1,0.3,0.1
		c0.2,0,0.5-0.1,0.7-0.3c0.1-0.1,0.2-0.2,0.2-0.4C138.6,4.6,138.5,4.6,138.4,4.6z M138.3,3.9c-0.1,0-0.3,0.1-0.3,0.2
		c0,0.1,0.2,0.2,0.4,0.2c0.1,0,0.2,0,0.3,0C138.6,4.1,138.5,3.9,138.3,3.9z"/>
</g>
<g>
	<path class="st1" d="M3.9,4.9L3.9,4.9c-0.3,0-0.4,0-0.5-0.2C3.3,4.7,3.2,4.8,3,4.8C2.8,4.9,2.5,5,2.2,5c-0.3,0-0.6,0-0.8-0.2
		C1.2,4.7,1.1,4.4,1.1,4.2c0-0.2,0-0.4,0.1-0.5l0.1,0c0,0.1-0.1,0.2-0.1,0.3c0,0.2,0.1,0.4,0.3,0.5C1.7,4.6,2,4.6,2.2,4.6
		c0.3,0,0.5,0,0.8-0.1c0.1,0,0.2-0.1,0.3-0.1l0.1-0.3L3.6,4l0,0c0,0.1-0.1,0.2-0.1,0.3c0,0.1,0,0.2,0.1,0.2c0.1,0.1,0.2,0.1,0.3,0.1
		h0V4.9z M2.2,3.4C2.1,3.4,2,3.3,1.9,3.2C2,3.1,2,3.1,2.1,3c0.1,0.1,0.2,0.1,0.3,0.2C2.3,3.3,2.2,3.4,2.2,3.4z M2.6,3.4
		C2.5,3.3,2.4,3.3,2.3,3.2C2.4,3.1,2.5,3,2.5,3C2.6,3,2.7,3.1,2.8,3.2C2.7,3.3,2.7,3.4,2.6,3.4z"/>
	<path class="st1" d="M4,4.6c0.4,0,0.7-0.1,1.2-0.4l0,0C5,4.1,4.8,4,4.5,4C4.4,4,4.3,4,4.3,4.1l0,0.1L4.2,4.4h0L4.1,4.1
		c0-0.3,0.2-0.4,0.5-0.4c0.2,0,0.4,0.1,0.7,0.2C5.4,4,5.6,4,5.7,4l0.2,0l0,0L5.8,4.2c-0.2,0-0.3,0-0.4,0.1L5,4.6
		C4.7,4.8,4.4,4.9,4,4.9H3.9c-0.1,0-0.2-0.1-0.2-0.2c0-0.1,0-0.1,0.2-0.1H4z M4.7,2.9C4.8,3,4.9,3.1,5,3.2c0,0.1-0.1,0.2-0.2,0.2
		C4.7,3.3,4.6,3.2,4.5,3.2C4.6,3.1,4.6,3,4.7,2.9z"/>
	<path class="st1" d="M6.3,4.9c0-0.1,0-0.3,0-0.5V4.2c0-0.4,0-1-0.1-1.4c0.1-0.1,0.2-0.2,0.2-0.2l0,0c0,0.5,0.1,1.1,0.1,1.6
		c0,0.1,0,0.3,0,0.4C6.5,4.7,6.4,4.8,6.3,4.9L6.3,4.9z"/>
	<path class="st1" d="M7.1,4.2c0,0.2,0.1,0.3,0.4,0.3c0.2,0,0.3-0.1,0.5-0.1c0,0,0,0,0-0.1C8,4.3,7.9,4.1,7.7,4
		C7.6,3.8,7.4,3.7,7.3,3.6c-0.1,0-0.1-0.1-0.1-0.1c0-0.1,0.1-0.2,0.1-0.3l0,0c0.2,0.1,0.4,0.3,0.5,0.5C8,3.9,8.1,4.1,8.1,4.3
		c0,0.1,0,0.3-0.1,0.4C7.8,4.8,7.6,4.9,7.4,4.9C7.1,4.9,7,4.7,7,4.4C7,4.4,7,4.3,7.1,4.2L7.1,4.2z"/>
	<path class="st1" d="M9.2,4.1c0.1,0.3,0.2,0.5,0.5,0.5h0v0.3h0c-0.1,0-0.2,0-0.2-0.1h0c0,0,0,0.1,0,0.1c0,0.1,0,0.2-0.1,0.3
		C9.2,5.5,9,5.7,8.9,5.7c-0.2,0-0.4-0.1-0.6-0.2l0-0.1c0.1,0,0.1,0,0.3,0c0.3,0,0.7-0.3,0.8-0.7c0,0,0-0.1-0.1-0.1
		C9.2,4.6,9.1,4.5,9.1,4.3C9.1,4.2,9.2,4.2,9.2,4.1L9.2,4.1z"/>
	<path class="st1" d="M9.8,4.6c0.2,0,0.3,0,0.4,0c0.1,0,0.1-0.1,0.1-0.1c0-0.1-0.1-0.3-0.2-0.6c0.1-0.1,0.1-0.2,0.2-0.3h0
		c0.1,0.2,0.2,0.5,0.2,0.7c0,0.2-0.1,0.3-0.2,0.4c-0.1,0.1-0.3,0.1-0.6,0.1h0c-0.1,0-0.2-0.1-0.2-0.2C9.6,4.7,9.6,4.6,9.8,4.6
		L9.8,4.6z M10,5.7C9.9,5.6,9.9,5.5,9.8,5.4C9.8,5.3,9.9,5.3,10,5.2c0.1,0.1,0.2,0.1,0.3,0.2C10.1,5.5,10.1,5.6,10,5.7z M10.4,6.1
		c-0.1-0.1-0.2-0.2-0.3-0.2c0.1-0.1,0.1-0.2,0.2-0.2c0.1,0.1,0.2,0.1,0.3,0.2C10.5,6,10.4,6,10.4,6.1z M10.5,5.6
		c-0.1-0.1-0.2-0.2-0.3-0.2c0.1-0.1,0.1-0.2,0.2-0.2c0.1,0.1,0.2,0.1,0.3,0.2C10.6,5.5,10.5,5.6,10.5,5.6z"/>
	<path class="st1" d="M13,5c-0.6,0-1.1-0.2-1.1-0.8c0-0.2,0-0.4,0.1-0.5l0.1,0c0,0.1-0.1,0.2-0.1,0.3c0,0.5,0.4,0.6,1,0.6
		c0.3,0,0.5,0,0.8-0.1c0.1,0,0.2-0.1,0.3-0.1c0,0,0,0,0,0c0-0.1-0.1-0.3-0.2-0.6C14,3.8,14,3.7,14.1,3.6h0c0.1,0.2,0.2,0.5,0.2,0.7
		c0,0.2-0.1,0.3-0.1,0.4C14,4.8,13.4,5,13,5z M12.9,3.4c-0.1-0.1-0.2-0.2-0.3-0.2c0.1-0.1,0.1-0.2,0.2-0.2c0.1,0.1,0.2,0.1,0.3,0.2
		C13,3.3,13,3.4,12.9,3.4z M13.3,3.4c-0.1-0.1-0.2-0.2-0.3-0.2C13.1,3.1,13.2,3,13.3,3c0.1,0.1,0.2,0.1,0.3,0.2
		C13.5,3.3,13.4,3.4,13.3,3.4z"/>
	<path class="st1" d="M15.3,4.9L15.3,4.9c-0.2,0-0.3,0-0.4-0.1c-0.1-0.1-0.1-0.3-0.1-0.6c0-0.4,0-0.9-0.1-1.4
		c0.1-0.1,0.1-0.2,0.2-0.2l0,0c0,0.5,0,1.1,0,1.6v0.1c0,0.1,0.1,0.2,0.2,0.2c0.1,0,0.1,0,0.1,0h0V4.9z"/>
	<path class="st1" d="M15.5,4.6c0.1,0,0.2,0,0.3,0v0c-0.2-0.1-0.3-0.2-0.3-0.4c0-0.1,0-0.2,0.1-0.3c0.1-0.2,0.3-0.3,0.5-0.3
		c0.2,0,0.4,0.1,0.5,0.4l0,0c-0.1-0.1-0.2-0.1-0.4-0.1c-0.2,0-0.4,0.1-0.4,0.2c0,0.1,0.1,0.2,0.2,0.3c0.1,0.1,0.2,0.1,0.3,0.1
		c0.2,0,0.4-0.1,0.6-0.2l0,0l-0.1,0.3c-0.4,0.1-0.5,0.1-0.8,0.2c-0.2,0.1-0.4,0.1-0.6,0.1h-0.1c-0.1,0-0.2-0.1-0.2-0.2
		c0-0.1,0-0.1,0.2-0.1H15.5z"/>
	<path class="st1" d="M18.5,2.5c0,0.4,0,0.9,0,1.3c0,0.2,0,0.4,0.1,0.5c0,0.1,0.2,0.2,0.3,0.2h0v0.3h0c-0.2,0-0.5-0.2-0.5-0.6l0,0
		c-0.1,0.3-0.3,0.5-0.5,0.6c-0.2,0.1-0.3,0.1-0.5,0.1l-0.2,0l0,0c0.4-0.1,0.6-0.3,0.9-0.4c0-0.2-0.3-0.6-0.7-1.1
		c-0.1-0.2-0.2-0.3-0.2-0.4c0-0.1,0-0.1,0.1-0.2h0c0.1,0.1,0.3,0.2,0.4,0.3l-0.1,0.1c0.1,0.2,0.2,0.3,0.4,0.5
		c0.1,0.2,0.2,0.3,0.2,0.5c0,0,0,0.1,0,0.1l0,0c0.1-0.1,0.1-0.1,0.2-0.2c0.1-0.1,0.1-0.3,0.1-0.7c0-0.3,0-0.5,0-0.8
		C18.4,2.6,18.4,2.6,18.5,2.5L18.5,2.5z"/>
	<path class="st1" d="M19.1,4.6l0.1-0.2c0-0.1,0-0.2,0-0.5c0-0.3,0-0.8-0.1-1c0-0.1,0-0.2,0-0.2c0-0.1,0.1-0.2,0.2-0.3l0,0
		c0,0.1,0.1,0.3,0.2,0.5L19.4,3c0,0.2,0,0.5,0,0.7c0,0.2,0,0.3-0.1,0.5h0c0.2-0.2,0.3-0.3,0.5-0.4c0.1-0.1,0.3-0.1,0.4-0.1
		c0.1,0,0.3,0,0.3,0.1c0.1,0.1,0.2,0.2,0.2,0.4c0,0,0,0.2-0.1,0.2c-0.1,0.4-0.9,0.4-1.3,0.4h-0.5c-0.1,0-0.2-0.1-0.2-0.2
		c0-0.1,0-0.1,0.2-0.1H19.1z M19.5,4.6c0.5,0,0.8,0,1-0.2c0.1,0,0.1-0.1,0.1-0.1c0-0.2-0.2-0.3-0.4-0.3c-0.3,0-0.6,0.2-0.9,0.6H19.5
		z"/>
	<path class="st1" d="M21.2,4.9c0-0.1,0-0.3,0-0.5V4.2c0-0.4,0-1-0.1-1.4c0.1-0.1,0.2-0.2,0.2-0.2l0,0c0,0.5,0.1,1.1,0.1,1.6
		c0,0.1,0,0.3,0,0.4C21.5,4.7,21.4,4.8,21.2,4.9L21.2,4.9z"/>
	<path class="st1" d="M41.3,4c0.1,0.1,0.1,0.2,0.1,0.3c0,0.1,0,0.2,0.2,0.2c0,0,0.1,0,0.2,0c0.1,0,0.1-0.1,0.1-0.2l0.1-0.2L42.1,4
		l0,0c0,0.1,0,0.2,0,0.2c0,0.2,0.1,0.3,0.2,0.3c0.1,0,0.1,0,0.1-0.1c0-0.1,0-0.2-0.1-0.4c0.1-0.1,0.1-0.1,0.2-0.2l0,0
		c0,0.2,0,0.3,0,0.4c0,0.1,0,0.2-0.1,0.3c-0.1,0.1-0.2,0.3-0.3,0.3c-0.1,0-0.2-0.1-0.3-0.2h0c-0.1,0.1-0.2,0.2-0.4,0.2h-0.1
		c0,0.1,0,0.3-0.1,0.3c-0.1,0.3-0.4,0.4-0.8,0.4c-0.4,0-0.7-0.3-0.7-0.7c0-0.2,0.1-0.5,0.2-0.6l0.1,0c-0.1,0.1-0.1,0.3-0.1,0.4
		c0,0.4,0.3,0.5,0.6,0.5c0.3,0,0.6-0.2,0.7-0.4c0-0.3-0.1-0.4-0.2-0.6C41.1,4.1,41.2,4.1,41.3,4L41.3,4z M41.7,3.6
		c-0.1-0.1-0.2-0.2-0.3-0.2c0.1-0.1,0.1-0.2,0.2-0.2c0.1,0.1,0.2,0.1,0.3,0.2C41.8,3.5,41.8,3.6,41.7,3.6z M41.8,3.2
		c-0.1-0.1-0.2-0.2-0.3-0.2c0.1-0.1,0.1-0.2,0.2-0.2C41.9,2.8,41.9,2.9,42,3C42,3.1,41.9,3.1,41.8,3.2z M42.2,3.6
		c-0.1-0.1-0.2-0.2-0.3-0.2C42,3.3,42,3.2,42.1,3.2c0.1,0.1,0.2,0.1,0.3,0.2C42.3,3.5,42.2,3.6,42.2,3.6z"/>
	<path class="st1" d="M43.8,3.7L43.9,4C44,4.1,44,4.2,44,4.4v0.2c0,0.2-0.1,0.4-0.3,0.6c-0.1,0.1-0.3,0.2-0.4,0.2
		c-0.2,0-0.4-0.1-0.6-0.2l0-0.1c0.1,0,0.2,0,0.3,0c0.3,0,0.6-0.3,0.8-0.6c0,0,0-0.1,0-0.1c0,0,0-0.1,0-0.1c-0.1-0.2-0.2-0.3-0.3-0.5
		C43.6,3.9,43.7,3.8,43.8,3.7L43.8,3.7z"/>
	<path class="st1" d="M45,4.9L45,4.9c-0.2,0-0.3,0-0.4-0.1c-0.1-0.1-0.1-0.3-0.1-0.6c0-0.4,0-0.9-0.1-1.4c0.1-0.1,0.1-0.2,0.2-0.2
		l0,0c0,0.5,0,1.1,0,1.6v0.1c0,0.1,0.1,0.2,0.2,0.2c0.1,0,0.1,0,0.1,0h0V4.9z"/>
	<path class="st1" d="M45.1,4.6c0.1,0,0.3,0,0.4-0.1c-0.1-0.1-0.1-0.2-0.1-0.3c0-0.2,0.1-0.4,0.2-0.5c0.1-0.1,0.3-0.2,0.3-0.2
		s0.2,0.1,0.3,0.3c0.1,0.1,0.1,0.2,0.1,0.3c0,0.2-0.1,0.4-0.2,0.5c0.1,0,0.2,0,0.4,0h0.1v0.3h-0.1c-0.2,0-0.5,0-0.7-0.1
		c-0.3,0.1-0.5,0.1-0.6,0.1h0c-0.1,0-0.2-0.1-0.2-0.2C44.9,4.7,44.9,4.6,45.1,4.6L45.1,4.6z M46.1,4.2c0-0.1,0-0.2-0.1-0.2
		c-0.1-0.1-0.1-0.2-0.2-0.2c-0.2,0-0.3,0.2-0.4,0.4c0,0.1,0.1,0.2,0.3,0.3C45.9,4.4,46.1,4.3,46.1,4.2z M45.8,2.7
		c0.1,0.1,0.2,0.1,0.3,0.2c0,0.1-0.1,0.2-0.2,0.2C45.7,3,45.7,3,45.6,2.9C45.6,2.8,45.7,2.7,45.8,2.7z"/>
	<path class="st1" d="M48.3,3.9c0,0.2,0,0.3,0,0.4c0,0.1,0,0.2-0.1,0.3c-0.1,0.1-0.2,0.2-0.3,0.2c-0.1,0-0.2-0.1-0.3-0.2h0
		c-0.1,0.1-0.2,0.2-0.4,0.2c-0.1,0-0.2-0.1-0.2-0.2h0c-0.1,0.2-0.3,0.2-0.5,0.2h0c-0.1,0-0.2-0.1-0.2-0.2c0-0.1,0-0.1,0.2-0.1h0.1
		c0.2,0,0.4-0.1,0.5-0.2l0.1-0.2l0.2-0.1l0,0c-0.1,0.1-0.2,0.3-0.2,0.3c0,0.1,0,0.1,0.1,0.1c0.1,0,0.1,0,0.2-0.1
		c0.1-0.1,0.1-0.1,0.2-0.4l0.1-0.1l0,0c0,0.1,0,0.2,0,0.2c0,0.2,0.1,0.3,0.2,0.3c0.1,0,0.1,0,0.1-0.1c0-0.1,0-0.2-0.1-0.4
		C48.2,4,48.2,4,48.3,3.9L48.3,3.9z"/>
	<path class="st1" d="M51.7,4.6v0.3h-0.1c0,0.1,0,0.1,0,0.2c0,0.1-0.1,0.2-0.1,0.3c-0.3,0.3-0.7,0.4-1.1,0.4c-0.3,0-0.5-0.1-0.6-0.2
		c-0.1-0.2-0.2-0.4-0.2-0.6c0-0.2,0.1-0.5,0.2-0.7l0.1,0c-0.1,0.2-0.1,0.4-0.1,0.6c0,0.2,0.1,0.4,0.2,0.5c0.1,0.1,0.3,0.2,0.5,0.2
		c0.2,0,0.4-0.1,0.7-0.2c0.1-0.1,0.2-0.1,0.2-0.2c-0.1-0.1-0.3-0.2-0.7-0.2l0,0l0.2-0.3H51.7z"/>
	<path class="st1" d="M51.8,4.6c0.2,0,0.4-0.1,0.4-0.2l0.1-0.2L52.4,4l0,0c0,0.1,0,0.2,0,0.3c0,0.1,0,0.1,0.1,0.2
		c0.1,0.1,0.2,0.1,0.3,0.1h0v0.3h-0.1c-0.2,0-0.4-0.1-0.5-0.2h0c-0.1,0.2-0.3,0.2-0.4,0.2h0c-0.1,0-0.2-0.1-0.2-0.2
		C51.6,4.7,51.6,4.6,51.8,4.6L51.8,4.6z M52.2,3.2c0.1,0.1,0.2,0.1,0.3,0.2c0,0.1-0.1,0.2-0.2,0.2c-0.1-0.1-0.2-0.2-0.3-0.2
		C52.1,3.4,52.1,3.3,52.2,3.2z"/>
	<path class="st1" d="M52.8,4.6c0.2,0,0.4-0.1,0.4-0.2l0.1-0.2L53.4,4l0,0c0,0.1,0,0.2,0,0.3c0,0.1,0,0.1,0.1,0.2
		c0.1,0.1,0.2,0.1,0.3,0.1h0v0.3h-0.1c-0.2,0-0.4-0.1-0.5-0.2h0c-0.1,0.2-0.3,0.2-0.4,0.2h0c-0.1,0-0.2-0.1-0.2-0.2
		C52.6,4.7,52.6,4.6,52.8,4.6L52.8,4.6z M53.1,5.8c-0.1-0.1-0.2-0.2-0.3-0.2c0.1-0.1,0.1-0.2,0.2-0.2c0.1,0.1,0.2,0.1,0.3,0.2
		C53.2,5.6,53.1,5.7,53.1,5.8z M53.5,5.7c-0.1-0.1-0.2-0.2-0.3-0.2c0.1-0.1,0.1-0.2,0.2-0.2c0.1,0.1,0.2,0.1,0.3,0.2
		C53.6,5.6,53.6,5.7,53.5,5.7z"/>
	<path class="st1" d="M53.8,4.6c0.2,0,0.3,0,0.4,0c0.1,0,0.1-0.1,0.1-0.1c0-0.1-0.1-0.3-0.2-0.6c0.1-0.1,0.1-0.2,0.2-0.3h0
		c0.1,0.2,0.2,0.5,0.2,0.7c0,0.2-0.1,0.3-0.2,0.4c-0.1,0.1-0.3,0.1-0.6,0.1h0c-0.1,0-0.2-0.1-0.2-0.2C53.6,4.7,53.7,4.6,53.8,4.6
		L53.8,4.6z M54.2,5.3c0.1,0.1,0.2,0.1,0.3,0.2c0,0.1-0.1,0.2-0.2,0.2c-0.1-0.1-0.2-0.2-0.3-0.2C54.1,5.4,54.2,5.4,54.2,5.3z"/>
	<path class="st1" d="M55.7,3.7L55.9,4C55.9,4.1,56,4.2,56,4.4v0.2c0,0.2-0.1,0.4-0.3,0.6c-0.1,0.1-0.3,0.2-0.4,0.2
		c-0.2,0-0.4-0.1-0.6-0.2l0-0.1c0.1,0,0.2,0,0.3,0c0.3,0,0.6-0.3,0.8-0.6c0,0,0-0.1,0-0.1c0,0,0-0.1,0-0.1c-0.1-0.2-0.2-0.3-0.3-0.5
		C55.6,3.9,55.7,3.8,55.7,3.7L55.7,3.7z M55.5,2.9c0.1,0.1,0.2,0.1,0.3,0.2c0,0.1-0.1,0.2-0.2,0.2c-0.1-0.1-0.2-0.2-0.3-0.2
		C55.4,3.1,55.5,3,55.5,2.9z"/>
	<path class="st1" d="M57,4.9L57,4.9c-0.2,0-0.3,0-0.4-0.1c-0.1-0.1-0.1-0.3-0.1-0.6c0-0.4,0-0.9-0.1-1.4c0.1-0.1,0.1-0.2,0.2-0.2
		l0,0c0,0.5,0,1.1,0,1.6v0.1c0,0.1,0.1,0.2,0.2,0.2c0.1,0,0.1,0,0.1,0h0V4.9z"/>
	<path class="st1" d="M57,4.6c0.2,0,0.3,0,0.4,0c0.1,0,0.1-0.1,0.1-0.1c0-0.1-0.1-0.3-0.2-0.6c0.1-0.1,0.1-0.2,0.2-0.3h0
		c0.1,0.2,0.2,0.5,0.2,0.7c0,0.2-0.1,0.3-0.2,0.4c-0.1,0.1-0.3,0.1-0.6,0.1h0c-0.1,0-0.2-0.1-0.2-0.2C56.8,4.7,56.9,4.6,57,4.6
		L57,4.6z M57.5,5.3c0.1,0.1,0.2,0.1,0.3,0.2c0,0.1-0.1,0.2-0.2,0.2c-0.1-0.1-0.2-0.2-0.3-0.2C57.3,5.4,57.4,5.4,57.5,5.3z"/>
	<path class="st1" d="M77.5,4c0.1,0.1,0.1,0.2,0.1,0.3c0,0.1,0,0.2,0.2,0.2c0,0,0.1,0,0.2,0c0.1,0,0.1-0.1,0.1-0.2l0.1-0.2L78.3,4
		l0,0c0,0.1,0,0.2,0,0.2c0,0.2,0.1,0.3,0.2,0.3c0.1,0,0.1,0,0.1-0.1c0-0.1,0-0.2-0.1-0.4c0.1-0.1,0.1-0.1,0.2-0.2l0,0
		c0,0.2,0,0.3,0,0.4c0,0.1,0,0.2-0.1,0.3c-0.1,0.1-0.2,0.3-0.3,0.3c-0.1,0-0.2-0.1-0.3-0.2h0c-0.1,0.1-0.2,0.2-0.4,0.2h-0.1
		c0,0.1,0,0.3-0.1,0.3c-0.1,0.3-0.4,0.4-0.8,0.4c-0.4,0-0.7-0.3-0.7-0.7c0-0.2,0.1-0.5,0.2-0.6l0.1,0c-0.1,0.1-0.1,0.3-0.1,0.4
		c0,0.4,0.3,0.5,0.6,0.5c0.3,0,0.6-0.2,0.7-0.4c0-0.3-0.1-0.4-0.2-0.6C77.4,4.1,77.4,4.1,77.5,4L77.5,4z M78,3.6
		c-0.1-0.1-0.2-0.2-0.3-0.2c0.1-0.1,0.1-0.2,0.2-0.2c0.1,0.1,0.2,0.1,0.3,0.2C78.1,3.5,78,3.6,78,3.6z M78.1,3.2
		C78,3.1,77.9,3,77.8,2.9C77.9,2.9,78,2.8,78,2.7c0.1,0.1,0.2,0.1,0.3,0.2C78.2,3.1,78.2,3.1,78.1,3.2z M78.4,3.6
		c-0.1-0.1-0.2-0.2-0.3-0.2c0.1-0.1,0.1-0.2,0.2-0.2c0.1,0.1,0.2,0.1,0.3,0.2C78.5,3.5,78.5,3.6,78.4,3.6z"/>
	<path class="st1" d="M80,3.7L80.2,4c0.1,0.1,0.1,0.2,0.1,0.4v0.2c0,0.2-0.1,0.4-0.3,0.6c-0.1,0.1-0.3,0.2-0.4,0.2
		c-0.2,0-0.4-0.1-0.6-0.2l0-0.1c0.1,0,0.2,0,0.3,0c0.3,0,0.6-0.3,0.8-0.6c0,0,0-0.1,0-0.1c0,0,0-0.1,0-0.1C80,4.3,79.9,4.1,79.8,4
		C79.9,3.9,79.9,3.8,80,3.7L80,3.7z"/>
	<path class="st1" d="M81.3,4.9L81.3,4.9c-0.2,0-0.3,0-0.4-0.1c-0.1-0.1-0.1-0.3-0.1-0.6c0-0.4,0-0.9-0.1-1.4
		c0.1-0.1,0.1-0.2,0.2-0.2l0,0c0,0.5,0,1.1,0,1.6v0.1c0,0.1,0.1,0.2,0.2,0.2c0.1,0,0.1,0,0.1,0h0V4.9z"/>
	<path class="st1" d="M81.3,4.6c0.1,0,0.3,0,0.4-0.1c-0.1-0.1-0.1-0.2-0.1-0.3c0-0.2,0.1-0.4,0.2-0.5c0.1-0.1,0.3-0.2,0.3-0.2
		s0.2,0.1,0.3,0.3c0.1,0.1,0.1,0.2,0.1,0.3c0,0.2-0.1,0.4-0.2,0.5c0.1,0,0.2,0,0.4,0h0.1v0.3h-0.1c-0.2,0-0.5,0-0.7-0.1
		c-0.3,0.1-0.5,0.1-0.6,0.1h0c-0.1,0-0.2-0.1-0.2-0.2C81.1,4.7,81.1,4.6,81.3,4.6L81.3,4.6z M82.4,4.2c0-0.1,0-0.2-0.1-0.2
		c-0.1-0.1-0.1-0.2-0.2-0.2c-0.2,0-0.3,0.2-0.4,0.4c0,0.1,0.1,0.2,0.3,0.3C82.2,4.4,82.4,4.3,82.4,4.2z M82,2.7
		c0.1,0.1,0.2,0.1,0.3,0.2c0,0.1-0.1,0.2-0.2,0.2C82,3,81.9,3,81.8,2.9C81.9,2.8,81.9,2.7,82,2.7z"/>
	<path class="st1" d="M84.6,3.9c0,0.2,0,0.3,0,0.4c0,0.1,0,0.2-0.1,0.3c-0.1,0.1-0.2,0.2-0.3,0.2c-0.1,0-0.2-0.1-0.3-0.2h0
		c-0.1,0.1-0.2,0.2-0.4,0.2c-0.1,0-0.2-0.1-0.2-0.2h0c-0.1,0.2-0.3,0.2-0.5,0.2h0c-0.1,0-0.2-0.1-0.2-0.2c0-0.1,0-0.1,0.2-0.1h0.1
		c0.2,0,0.4-0.1,0.5-0.2l0.1-0.2l0.2-0.1l0,0c-0.1,0.1-0.2,0.3-0.2,0.3c0,0.1,0,0.1,0.1,0.1c0.1,0,0.1,0,0.2-0.1
		c0.1-0.1,0.1-0.1,0.2-0.4l0.1-0.1l0,0c0,0.1,0,0.2,0,0.2c0,0.2,0.1,0.3,0.2,0.3c0.1,0,0.1,0,0.1-0.1c0-0.1,0-0.2-0.1-0.4
		C84.4,4,84.5,4,84.6,3.9L84.6,3.9z"/>
	<path class="st1" d="M87.3,2.5c0,0.2,0.1,0.3,0.2,0.5c0,0-0.1,0.1-0.2,0.1c0,0.3,0,0.7,0,0.9c0,0.2,0,0.3-0.1,0.7
		C87.2,4.9,87.1,5,87,5.1c-0.1,0.1-0.3,0.1-0.5,0.1c-0.2,0-0.4-0.1-0.5-0.2c-0.1-0.1-0.2-0.3-0.2-0.5c0-0.2,0.1-0.4,0.2-0.6l0.1,0
		c-0.1,0.1-0.1,0.3-0.1,0.4c0,0.1,0,0.2,0.1,0.3c0.1,0.1,0.2,0.2,0.4,0.2c0.2,0,0.3,0,0.4-0.1c0.1-0.1,0.2-0.1,0.2-0.2
		c0,0,0-0.1,0-0.1c0-0.3,0-0.8-0.1-1.3c0-0.1,0-0.2,0-0.3c0-0.1,0-0.1,0-0.2C87.2,2.6,87.3,2.6,87.3,2.5L87.3,2.5z"/>
	<path class="st1" d="M88.5,4.9L88.5,4.9c-0.2,0-0.3,0-0.4-0.1c-0.1-0.1-0.1-0.3-0.1-0.6c0-0.4,0-0.9-0.1-1.4
		c0.1-0.1,0.1-0.2,0.2-0.2l0,0c0,0.5,0,1.1,0,1.6v0.1c0,0.1,0.1,0.2,0.2,0.2c0.1,0,0.1,0,0.1,0h0V4.9z"/>
	<path class="st1" d="M90.3,3.9c0,0.2,0,0.3,0,0.4c0,0.1,0,0.2-0.1,0.3c-0.1,0.1-0.2,0.2-0.3,0.2c-0.1,0-0.2-0.1-0.3-0.2h0
		c-0.1,0.1-0.2,0.2-0.4,0.2c-0.1,0-0.2-0.1-0.2-0.2h0c-0.1,0.2-0.3,0.2-0.5,0.2h0c-0.1,0-0.2-0.1-0.2-0.2c0-0.1,0-0.1,0.2-0.1h0.1
		c0.2,0,0.4-0.1,0.5-0.2l0.1-0.2l0.2-0.1l0,0c-0.1,0.1-0.2,0.3-0.2,0.3c0,0.1,0,0.1,0.1,0.1c0.1,0,0.1,0,0.2-0.1
		c0.1-0.1,0.1-0.1,0.2-0.4l0.1-0.1l0,0c0,0.1,0,0.2,0,0.2c0,0.2,0.1,0.3,0.2,0.3c0.1,0,0.1,0,0.1-0.1c0-0.1,0-0.2-0.1-0.4
		C90.1,4,90.2,4,90.3,3.9L90.3,3.9z"/>
	<path class="st1" d="M91.5,3.7L91.6,4c0.1,0.1,0.1,0.2,0.1,0.4v0.2c0,0.2-0.1,0.4-0.3,0.6c-0.1,0.1-0.3,0.2-0.4,0.2
		c-0.2,0-0.4-0.1-0.6-0.2l0-0.1c0.1,0,0.2,0,0.3,0c0.3,0,0.6-0.3,0.8-0.6c0,0,0-0.1,0-0.1c0,0,0-0.1,0-0.1c-0.1-0.2-0.2-0.3-0.3-0.5
		C91.4,3.9,91.4,3.8,91.5,3.7L91.5,3.7z"/>
	<path class="st1" d="M92.2,4.9c0-0.1,0-0.3,0-0.5V4.2c0-0.4,0-1-0.1-1.4c0.1-0.1,0.2-0.2,0.2-0.2l0,0c0,0.5,0.1,1.1,0.1,1.6
		c0,0.1,0,0.3,0,0.4C92.4,4.7,92.3,4.8,92.2,4.9L92.2,4.9z"/>
	<path class="st1" d="M94.9,5c-0.6,0-1.1-0.2-1.1-0.8c0-0.2,0-0.4,0.1-0.5l0.1,0c0,0.1-0.1,0.2-0.1,0.3c0,0.5,0.4,0.6,1,0.6
		c0.3,0,0.5,0,0.8-0.1c0.1,0,0.2-0.1,0.3-0.1c0,0,0,0,0,0c0-0.1-0.1-0.3-0.2-0.6c0.1-0.1,0.1-0.2,0.2-0.3h0c0.1,0.2,0.2,0.5,0.2,0.7
		c0,0.2-0.1,0.3-0.1,0.4C95.9,4.8,95.3,5,94.9,5z M94.8,3.4c-0.1-0.1-0.2-0.2-0.3-0.2c0.1-0.1,0.1-0.2,0.2-0.2
		c0.1,0.1,0.2,0.1,0.3,0.2C94.9,3.3,94.9,3.4,94.8,3.4z M95.2,3.4c-0.1-0.1-0.2-0.2-0.3-0.2C95,3.1,95.1,3,95.1,3
		c0.1,0.1,0.2,0.1,0.3,0.2C95.3,3.3,95.3,3.4,95.2,3.4z"/>
	<path class="st1" d="M97.2,4.9L97.2,4.9c-0.2,0-0.3,0-0.4-0.1c-0.1-0.1-0.1-0.3-0.1-0.6c0-0.4,0-0.9-0.1-1.4
		c0.1-0.1,0.1-0.2,0.2-0.2l0,0c0,0.5,0,1.1,0,1.6v0.1c0,0.1,0.1,0.2,0.2,0.2c0.1,0,0.1,0,0.1,0h0V4.9z"/>
	<path class="st1" d="M97.4,4.6c0.1,0,0.2,0,0.3,0v0c-0.2-0.1-0.3-0.2-0.3-0.4c0-0.1,0-0.2,0.1-0.3c0.1-0.2,0.3-0.3,0.5-0.3
		c0.2,0,0.4,0.1,0.5,0.4l0,0c-0.1-0.1-0.2-0.1-0.4-0.1c-0.2,0-0.4,0.1-0.4,0.2c0,0.1,0.1,0.2,0.2,0.3c0.1,0.1,0.2,0.1,0.3,0.1
		c0.2,0,0.4-0.1,0.6-0.2l0,0l-0.1,0.3c-0.4,0.1-0.5,0.1-0.8,0.2c-0.2,0.1-0.4,0.1-0.6,0.1h-0.1c-0.1,0-0.2-0.1-0.2-0.2
		c0-0.1,0-0.1,0.2-0.1H97.4z"/>
	<path class="st1" d="M100.4,2.5c0,0.4,0,0.9,0,1.3c0,0.2,0,0.4,0.1,0.5c0,0.1,0.2,0.2,0.3,0.2h0v0.3h0c-0.2,0-0.5-0.2-0.5-0.6l0,0
		c-0.1,0.3-0.3,0.5-0.5,0.6c-0.2,0.1-0.3,0.1-0.5,0.1l-0.2,0l0,0c0.4-0.1,0.6-0.3,0.9-0.4c0-0.2-0.3-0.6-0.7-1.1
		C99.1,3.2,99,3.1,99,3c0-0.1,0-0.1,0.1-0.2h0c0.1,0.1,0.3,0.2,0.4,0.3l-0.1,0.1c0.1,0.2,0.2,0.3,0.4,0.5c0.1,0.2,0.2,0.3,0.2,0.5
		c0,0,0,0.1,0,0.1l0,0c0.1-0.1,0.1-0.1,0.2-0.2c0.1-0.1,0.1-0.3,0.1-0.7c0-0.3,0-0.5,0-0.8C100.3,2.6,100.3,2.6,100.4,2.5L100.4,2.5
		z"/>
	<path class="st1" d="M101,4.6l0.1-0.2c0-0.1,0-0.2,0-0.5c0-0.3,0-0.8-0.1-1c0-0.1,0-0.2,0-0.2c0-0.1,0.1-0.2,0.2-0.3l0,0
		c0,0.1,0.1,0.3,0.2,0.5L101.3,3c0,0.2,0,0.5,0,0.7c0,0.2,0,0.3-0.1,0.5h0c0.2-0.2,0.3-0.3,0.5-0.4c0.1-0.1,0.3-0.1,0.4-0.1
		c0.1,0,0.3,0,0.3,0.1c0.1,0.1,0.2,0.2,0.2,0.4c0,0,0,0.2-0.1,0.2c-0.1,0.4-0.9,0.4-1.3,0.4h-0.5c-0.1,0-0.2-0.1-0.2-0.2
		c0-0.1,0-0.1,0.2-0.1H101z M101.3,4.6c0.5,0,0.8,0,1-0.2c0.1,0,0.1-0.1,0.1-0.1c0-0.2-0.2-0.3-0.4-0.3c-0.3,0-0.6,0.2-0.9,0.6
		H101.3z"/>
	<path class="st1" d="M103.1,4.9c0-0.1,0-0.3,0-0.5V4.2c0-0.4,0-1-0.1-1.4c0.1-0.1,0.2-0.2,0.2-0.2l0,0c0,0.5,0.1,1.1,0.1,1.6
		c0,0.1,0,0.3,0,0.4C103.3,4.7,103.3,4.8,103.1,4.9L103.1,4.9z"/>
	<path class="st1" d="M124.7,4.9L124.7,4.9c-0.3,0-0.4,0-0.5-0.2c-0.1,0-0.2,0.1-0.4,0.1C123.6,4.9,123.3,5,123,5
		c-0.3,0-0.6,0-0.8-0.2c-0.2-0.1-0.3-0.3-0.3-0.6c0-0.2,0-0.4,0.1-0.5l0.1,0c0,0.1-0.1,0.2-0.1,0.3c0,0.2,0.1,0.4,0.3,0.5
		c0.2,0.1,0.4,0.1,0.7,0.1c0.3,0,0.5,0,0.8-0.1c0.1,0,0.2-0.1,0.3-0.1l0.1-0.3l0.1-0.1l0,0c0,0.1-0.1,0.2-0.1,0.3
		c0,0.1,0,0.2,0.1,0.2c0.1,0.1,0.2,0.1,0.3,0.1h0V4.9z M123,3.4c-0.1-0.1-0.2-0.2-0.3-0.2c0.1-0.1,0.1-0.2,0.2-0.2
		c0.1,0.1,0.2,0.1,0.3,0.2C123.1,3.3,123,3.4,123,3.4z M123.4,3.4c-0.1-0.1-0.2-0.2-0.3-0.2c0.1-0.1,0.1-0.2,0.2-0.2
		c0.1,0.1,0.2,0.1,0.3,0.2C123.5,3.3,123.5,3.4,123.4,3.4z"/>
	<path class="st1" d="M124.8,4.6c0.2,0,0.3,0,0.4,0c0.1,0,0.1-0.1,0.1-0.1c0-0.1-0.1-0.3-0.2-0.6c0.1-0.1,0.1-0.2,0.2-0.3h0
		c0.1,0.2,0.2,0.5,0.2,0.7c0,0.2-0.1,0.3-0.2,0.4c-0.1,0.1-0.3,0.1-0.6,0.1h0c-0.1,0-0.2-0.1-0.2-0.2C124.6,4.7,124.6,4.6,124.8,4.6
		L124.8,4.6z M125,5.8c-0.1-0.1-0.2-0.2-0.3-0.2c0.1-0.1,0.1-0.2,0.2-0.2c0.1,0.1,0.2,0.1,0.3,0.2C125.1,5.6,125,5.7,125,5.8z
		 M125.4,5.7c-0.1-0.1-0.2-0.2-0.3-0.2c0.1-0.1,0.1-0.2,0.2-0.2c0.1,0.1,0.2,0.1,0.3,0.2C125.5,5.6,125.5,5.7,125.4,5.7z"/>
	<path class="st1" d="M126.5,4.9L126.5,4.9c-0.2,0-0.3,0-0.4-0.1C126,4.6,126,4.4,126,4.1c0-0.4,0-0.9-0.1-1.4
		c0.1-0.1,0.1-0.2,0.2-0.2l0,0c0,0.5,0,1.1,0,1.6v0.1c0,0.1,0.1,0.2,0.2,0.2c0.1,0,0.1,0,0.1,0h0V4.9z"/>
	<path class="st1" d="M128.3,3.9c0,0.2,0,0.3,0,0.4c0,0.1,0,0.2-0.1,0.3c-0.1,0.1-0.2,0.2-0.3,0.2c-0.1,0-0.2-0.1-0.3-0.2h0
		c-0.1,0.1-0.2,0.2-0.4,0.2c-0.1,0-0.2-0.1-0.2-0.2h0c-0.1,0.2-0.3,0.2-0.5,0.2h0c-0.1,0-0.2-0.1-0.2-0.2c0-0.1,0-0.1,0.2-0.1h0.1
		c0.2,0,0.4-0.1,0.5-0.2l0.1-0.2l0.2-0.1l0,0c-0.1,0.1-0.2,0.3-0.2,0.3c0,0.1,0,0.1,0.1,0.1c0.1,0,0.1,0,0.2-0.1
		c0.1-0.1,0.1-0.1,0.2-0.4l0.1-0.1l0,0c0,0.1,0,0.2,0,0.2c0,0.2,0.1,0.3,0.2,0.3c0.1,0,0.1,0,0.1-0.1c0-0.1,0-0.2-0.1-0.4
		C128.2,4,128.2,4,128.3,3.9L128.3,3.9z"/>
	<path class="st1" d="M130.1,4.6c-0.2,0-0.4-0.1-0.4-0.3c0-0.1,0-0.1,0.1-0.3c0.1-0.2,0.3-0.4,0.7-0.6l0-0.2
		c0.1-0.1,0.1-0.1,0.2-0.2h0c0,0.4,0,0.7,0,1.1c0,0.2,0,0.3,0.1,0.3c0.1,0,0.1,0.1,0.2,0.1h0.1v0.3h0c-0.2,0-0.4-0.1-0.5-0.3
		C130.4,4.6,130.3,4.6,130.1,4.6z M130.5,3.7c-0.4,0.2-0.6,0.4-0.6,0.5c0,0.1,0.1,0.1,0.3,0.1c0.1,0,0.2,0,0.3-0.1L130.5,3.7z"/>
	<path class="st1" d="M131.1,4.6c0.2,0,0.3,0,0.4,0c0.1,0,0.1-0.1,0.1-0.1c0-0.1-0.1-0.3-0.2-0.6c0.1-0.1,0.1-0.2,0.2-0.3h0
		c0.1,0.2,0.2,0.5,0.2,0.7c0,0.2-0.1,0.3-0.2,0.4c-0.1,0.1-0.3,0.1-0.6,0.1h0c-0.1,0-0.2-0.1-0.2-0.2C130.9,4.7,130.9,4.6,131.1,4.6
		L131.1,4.6z M131.5,5.3c0.1,0.1,0.2,0.1,0.3,0.2c0,0.1-0.1,0.2-0.2,0.2c-0.1-0.1-0.2-0.2-0.3-0.2C131.4,5.4,131.4,5.4,131.5,5.3z"
		/>
	<path class="st1" d="M133.2,4.2c0,0.2,0.1,0.3,0.4,0.3c0.2,0,0.3-0.1,0.5-0.1c0,0,0,0,0-0.1c0-0.1-0.1-0.3-0.2-0.4
		c-0.1-0.1-0.3-0.3-0.5-0.3c-0.1,0-0.1-0.1-0.1-0.1c0-0.1,0.1-0.2,0.1-0.3l0,0c0.2,0.1,0.4,0.3,0.5,0.5c0.1,0.2,0.2,0.3,0.2,0.5
		c0,0.1,0,0.3-0.1,0.4c-0.2,0.1-0.4,0.2-0.6,0.2c-0.3,0-0.4-0.1-0.4-0.5C133.1,4.4,133.1,4.3,133.2,4.2L133.2,4.2z"/>
	<path class="st1" d="M135.4,4.6c-0.3,0-0.5-0.1-0.5-0.4c0-0.1,0.1-0.3,0.1-0.4c0.1-0.1,0.2-0.2,0.3-0.2c0.1,0,0.3,0.1,0.3,0.3
		c0.1,0.2,0.1,0.4,0.1,0.6c0,0.2-0.1,0.4-0.2,0.6c-0.2,0.3-0.4,0.4-0.6,0.4c-0.2,0-0.4-0.1-0.6-0.2l0-0.1c0.1,0.1,0.2,0.1,0.3,0.1
		c0.2,0,0.5-0.1,0.7-0.3c0.1-0.1,0.2-0.2,0.2-0.4C135.6,4.6,135.5,4.6,135.4,4.6z M135.3,3.9c-0.1,0-0.3,0.1-0.3,0.2
		c0,0.1,0.2,0.2,0.4,0.2c0.1,0,0.2,0,0.3,0C135.6,4.1,135.5,3.9,135.3,3.9z"/>
	<path class="st1" d="M137,3.7l0.2,0.3c0.1,0.1,0.1,0.2,0.1,0.4v0.2c0,0.2-0.1,0.4-0.3,0.6c-0.1,0.1-0.3,0.2-0.4,0.2
		c-0.2,0-0.4-0.1-0.6-0.2l0-0.1c0.1,0,0.2,0,0.3,0c0.3,0,0.6-0.3,0.8-0.6c0,0,0-0.1,0-0.1c0,0,0-0.1,0-0.1c-0.1-0.2-0.2-0.3-0.3-0.5
		C136.9,3.9,136.9,3.8,137,3.7L137,3.7z"/>
	<path class="st1" d="M138.4,4.6c-0.3,0-0.5-0.1-0.5-0.4c0-0.1,0.1-0.3,0.1-0.4c0.1-0.1,0.2-0.2,0.3-0.2c0.1,0,0.3,0.1,0.3,0.3
		c0.1,0.2,0.1,0.4,0.1,0.6c0,0.2-0.1,0.4-0.2,0.6c-0.2,0.3-0.4,0.4-0.6,0.4c-0.2,0-0.4-0.1-0.6-0.2l0-0.1c0.1,0.1,0.2,0.1,0.3,0.1
		c0.2,0,0.5-0.1,0.7-0.3c0.1-0.1,0.2-0.2,0.2-0.4C138.6,4.6,138.5,4.6,138.4,4.6z M138.3,3.9c-0.1,0-0.3,0.1-0.3,0.2
		c0,0.1,0.2,0.2,0.4,0.2c0.1,0,0.2,0,0.3,0C138.6,4.1,138.5,3.9,138.3,3.9z"/>
</g>
</svg>
