<?xml version="1.0" encoding="utf-8"?>
<!-- Generator: Adobe Illustrator 19.1.1, SVG Export Plug-In . SVG Version: 6.00 Build 0)  -->
<svg version="1.1" id="Layer_1" xmlns="http://www.w3.org/2000/svg" xmlns:xlink="http://www.w3.org/1999/xlink" x="0px" y="0px"
	 viewBox="0 0 146.5 82" style="enable-background:new 0 0 146.5 82;" xml:space="preserve">
<style type="text/css">
	.st0{clip-path:url(#SVGID_2_);}
	.st1{clip-path:url(#SVGID_4_);}
	.st2{opacity:0.5;fill-rule:evenodd;clip-rule:evenodd;}
	.st3{fill-rule:evenodd;clip-rule:evenodd;fill:#FFFFFF;}
	.st4{fill:#FFFFFF;}
	.st5{opacity:0.5;}
	.st6{clip-path:url(#SVGID_8_);fill:none;stroke:#D1D6D6;stroke-width:0.4799;stroke-linejoin:round;stroke-miterlimit:2.6131;}
	.st7{fill:none;stroke:#FFFFFF;stroke-width:0.7197;stroke-linejoin:round;stroke-miterlimit:2.6131;}
	.st8{fill:none;stroke:#FFBD2D;stroke-width:0.7197;stroke-linejoin:round;stroke-miterlimit:2.6131;}
	.st9{fill:#2D3033;}
	.st10{fill:#FFBD2D;}
	.st11{fill-rule:evenodd;clip-rule:evenodd;fill:#2D3033;}
	.st12{fill:none;stroke:#E7E8E8;stroke-width:0.4799;stroke-miterlimit:2.6131;}
	.st13{fill:none;stroke:#7DCC73;stroke-width:0.4799;stroke-miterlimit:2.6131;}
	.st14{fill:none;stroke:#FFBD2D;stroke-width:0.4799;stroke-linecap:round;stroke-linejoin:round;stroke-miterlimit:2.6131;}
	.st15{fill:none;stroke:#C4C5C7;stroke-width:0.2398;stroke-miterlimit:2.6131;}
	.st16{fill-rule:evenodd;clip-rule:evenodd;fill:#FFBD2D;}
	.st17{fill:#898C8F;}
	.st18{fill:none;stroke:#2D3033;stroke-width:0.2398;stroke-miterlimit:2.6131;}
	.st19{fill:none;stroke:#2D3033;stroke-width:0.2398;stroke-linecap:round;stroke-miterlimit:2.6131;}
	.st20{filter:url(#Adobe_OpacityMaskFilter);}
	.st21{fill-rule:evenodd;clip-rule:evenodd;fill:url(#);}
	.st22{opacity:0.294;mask:url(#SVGID_9_);fill-rule:evenodd;clip-rule:evenodd;fill:#2D3033;}
	.st23{fill:#E7E8E8;}
	.st24{fill:none;stroke:#FFBD2D;stroke-width:0.4799;stroke-linecap:round;stroke-miterlimit:2.6131;}
	.st25{fill:none;stroke:#D1D6D6;stroke-width:0.4799;stroke-miterlimit:2.6131;}
	.st26{fill:#FF8126;}
	.st27{fill:none;stroke:#2D3033;stroke-width:0.4799;stroke-linecap:round;stroke-linejoin:round;stroke-miterlimit:2.6131;}
	.st28{clip-path:url(#SVGID_11_);}
	.st29{clip-path:url(#SVGID_15_);}
	.st30{clip-path:url(#SVGID_19_);}
	.st31{fill-rule:evenodd;clip-rule:evenodd;fill:#7DCC73;}
	.st32{fill:none;stroke:#7DCC73;stroke-width:0.2398;stroke-miterlimit:2.6131;}
	.st33{clip-path:url(#SVGID_23_);}
	.st34{clip-path:url(#SVGID_25_);}
	.st35{filter:url(#Adobe_OpacityMaskFilter_1_);}
	.st36{opacity:0.294;mask:url(#SVGID_28_);fill-rule:evenodd;clip-rule:evenodd;fill:#2D3033;}
	.st37{fill:none;stroke:#333333;stroke-width:0.4799;stroke-linecap:round;stroke-linejoin:round;stroke-miterlimit:2.6131;}
	.st38{filter:url(#Adobe_OpacityMaskFilter_2_);}
	.st39{opacity:3.900000e-002;mask:url(#SVGID_29_);fill-rule:evenodd;clip-rule:evenodd;fill:#33343B;}
	.st40{clip-path:url(#SVGID_31_);}
	.st41{filter:url(#Adobe_OpacityMaskFilter_3_);}
	.st42{opacity:3.900000e-002;mask:url(#SVGID_34_);fill-rule:evenodd;clip-rule:evenodd;fill:#33343B;}
	.st43{clip-path:url(#SVGID_36_);}
	.st44{filter:url(#Adobe_OpacityMaskFilter_4_);}
	.st45{opacity:3.900000e-002;mask:url(#SVGID_39_);fill-rule:evenodd;clip-rule:evenodd;fill:#33343B;}
	.st46{clip-path:url(#SVGID_41_);}
	.st47{filter:url(#Adobe_OpacityMaskFilter_5_);}
	.st48{opacity:3.900000e-002;mask:url(#SVGID_44_);fill-rule:evenodd;clip-rule:evenodd;fill:#33343B;}
	.st49{clip-path:url(#SVGID_46_);}
	.st50{filter:url(#Adobe_OpacityMaskFilter_6_);}
	.st51{opacity:3.900000e-002;mask:url(#SVGID_49_);fill-rule:evenodd;clip-rule:evenodd;fill:#33343B;}
	.st52{clip-path:url(#SVGID_51_);}
	.st53{filter:url(#Adobe_OpacityMaskFilter_7_);}
	.st54{opacity:3.900000e-002;mask:url(#SVGID_54_);fill-rule:evenodd;clip-rule:evenodd;fill:#33343B;}
	.st55{clip-path:url(#SVGID_56_);}
	.st56{clip-path:url(#SVGID_60_);}
	.st57{filter:url(#Adobe_OpacityMaskFilter_8_);}
	.st58{opacity:3.900000e-002;mask:url(#SVGID_63_);fill-rule:evenodd;clip-rule:evenodd;fill:#33343B;}
	.st59{clip-path:url(#SVGID_65_);}
	.st60{fill-rule:evenodd;clip-rule:evenodd;fill:#FCB813;}
	.st61{fill-rule:evenodd;clip-rule:evenodd;fill:#98CBCB;}
	.st62{fill-rule:evenodd;clip-rule:evenodd;fill:#898C8F;}
	.st63{fill:none;stroke:#2D3033;stroke-width:0.4799;stroke-linecap:round;stroke-miterlimit:10;}
	.st64{fill:none;stroke:#2D3033;stroke-width:0.4799;stroke-linecap:round;stroke-linejoin:round;stroke-miterlimit:10;}
	.st65{fill-rule:evenodd;clip-rule:evenodd;fill:#FF8126;}
	.st66{fill-rule:evenodd;clip-rule:evenodd;fill:#FFFCE8;}
	.st67{fill-rule:evenodd;clip-rule:evenodd;fill:#231F20;}
	.st68{fill-rule:evenodd;clip-rule:evenodd;fill:#EEF8FD;}
	.st69{fill-rule:evenodd;clip-rule:evenodd;fill:#13BDCE;}
	.st70{fill-rule:evenodd;clip-rule:evenodd;fill:#FFE4C9;}
	.st71{fill-rule:evenodd;clip-rule:evenodd;fill:#F16641;}
	.st72{fill:#FFE4C9;}
	.st73{fill:none;stroke:#2D3033;stroke-width:0.4799;stroke-miterlimit:2.6131;}
	.st74{fill-rule:evenodd;clip-rule:evenodd;fill:#F45A81;}
	.st75{fill-rule:evenodd;clip-rule:evenodd;fill:#43C2D0;}
	.st76{fill-rule:evenodd;clip-rule:evenodd;fill:#E0F3FC;}
	.st77{fill-rule:evenodd;clip-rule:evenodd;fill:#F4CCC4;}
	.st78{fill-rule:evenodd;clip-rule:evenodd;fill:#B7E3EE;}
	.st79{fill-rule:evenodd;clip-rule:evenodd;fill:#F2F2F2;}
	.st80{fill:#7DCC73;}
	.st81{fill:none;stroke:#2D3033;stroke-width:0.4799;stroke-linejoin:round;stroke-miterlimit:2.6131;}
	.st82{fill-rule:evenodd;clip-rule:evenodd;fill:#ECEFEF;}
	.st83{fill:none;stroke:#2D3033;stroke-width:0.4799;stroke-linecap:round;stroke-miterlimit:2.6131;}
	.st84{fill-rule:evenodd;clip-rule:evenodd;fill:#F9F9F9;}
	.st85{fill:none;stroke:#2D3033;stroke-width:0.4261;stroke-linecap:round;stroke-linejoin:round;stroke-miterlimit:10;}
	.st86{fill-rule:evenodd;clip-rule:evenodd;fill:#414B78;}
	.st87{fill:none;stroke:#898C8F;stroke-width:0.4799;stroke-linejoin:round;stroke-miterlimit:2.6131;}
	.st88{clip-path:url(#SVGID_69_);}
	.st89{filter:url(#Adobe_OpacityMaskFilter_9_);}
	.st90{opacity:0.294;mask:url(#SVGID_72_);fill-rule:evenodd;clip-rule:evenodd;fill:#2D3033;}
	.st91{fill:none;stroke:#E5EAEA;stroke-width:2.3998;stroke-linejoin:round;stroke-miterlimit:2.6131;}
	.st92{fill:none;stroke:#FFFFFF;stroke-width:0.2401;stroke-linecap:round;stroke-linejoin:round;stroke-miterlimit:2.6131;}
</style>
<rect x="127.4" y="59" class="st16" width="19.1" height="6.4"/>
<rect x="127.4" y="59" class="st27" width="19.1" height="6.4"/>
<rect y="59" class="st11" width="19.1" height="6.4"/>
<rect y="59" class="st27" width="19.1" height="6.4"/>
<rect x="28" y="79.4" class="st11" width="71.3" height="2.5"/>
<rect x="28" y="79.4" class="st27" width="71.3" height="2.5"/>
<rect x="16.6" y="27.2" class="st11" width="85.3" height="15.3"/>
<rect x="16.6" y="27.2" class="st27" width="85.3" height="15.3"/>
<rect x="14" y="25.9" class="st16" width="90.4" height="1.3"/>
<rect x="14" y="25.9" class="st27" width="90.4" height="1.3"/>
<rect x="70.1" y="28.5" class="st16" width="31.8" height="1.3"/>
<rect x="70.1" y="28.5" class="st27" width="31.8" height="1.3"/>
<rect x="72.6" y="27.2" class="st3" width="10.2" height="1.3"/>
<rect x="72.6" y="27.2" class="st27" width="10.2" height="1.3"/>
<rect x="72.6" y="34.8" class="st3" width="10.2" height="1.3"/>
<rect x="72.6" y="34.8" class="st27" width="10.2" height="1.3"/>
<rect x="85.3" y="27.2" class="st3" width="10.2" height="1.3"/>
<rect x="85.3" y="27.2" class="st27" width="10.2" height="1.3"/>
<rect x="85.3" y="34.8" class="st3" width="10.2" height="1.3"/>
<rect x="85.3" y="34.8" class="st27" width="10.2" height="1.3"/>
<rect x="84.7" y="29.7" class="st3" width="10.2" height="1.3"/>
<rect x="84.7" y="29.7" class="st27" width="10.2" height="1.3"/>
<rect x="91.1" y="32.3" class="st3" width="10.2" height="1.3"/>
<rect x="91.1" y="32.3" class="st27" width="10.2" height="1.3"/>
<rect x="74.5" y="29.7" class="st3" width="10.2" height="1.3"/>
<rect x="74.5" y="29.7" class="st27" width="10.2" height="1.3"/>
<rect x="86" y="37.4" class="st3" width="10.2" height="1.3"/>
<rect x="86" y="37.4" class="st27" width="10.2" height="1.3"/>
<rect x="84.7" y="39.9" class="st3" width="10.2" height="1.3"/>
<rect x="84.7" y="39.9" class="st27" width="10.2" height="1.3"/>
<rect x="75.8" y="37.4" class="st3" width="10.2" height="1.3"/>
<rect x="75.8" y="37.4" class="st27" width="10.2" height="1.3"/>
<rect x="80.9" y="32.3" class="st3" width="10.2" height="1.3"/>
<rect x="80.9" y="32.3" class="st27" width="10.2" height="1.3"/>
<rect x="70.1" y="31" class="st16" width="31.8" height="1.3"/>
<rect x="70.1" y="31" class="st27" width="31.8" height="1.3"/>
<rect x="70.1" y="36.1" class="st16" width="31.8" height="1.3"/>
<rect x="70.1" y="36.1" class="st27" width="31.8" height="1.3"/>
<rect x="70.1" y="33.6" class="st16" width="31.8" height="1.3"/>
<rect x="70.1" y="33.6" class="st27" width="31.8" height="1.3"/>
<rect x="17.8" y="33.6" class="st16" width="50.9" height="1.3"/>
<rect x="17.8" y="33.6" class="st27" width="50.9" height="1.3"/>
<rect x="70.1" y="38.7" class="st60" width="31.8" height="1.3"/>
<rect x="70.1" y="38.7" class="st27" width="31.8" height="1.3"/>
<rect x="70.1" y="41.2" class="st16" width="31.8" height="1.3"/>
<rect x="70.1" y="41.2" class="st27" width="31.8" height="1.3"/>
<rect x="17.8" y="41.2" class="st16" width="50.9" height="1.3"/>
<rect x="17.8" y="41.2" class="st27" width="50.9" height="1.3"/>
<rect x="108.3" y="59" class="st11" width="19.1" height="6.4"/>
<rect x="108.3" y="59" class="st27" width="19.1" height="6.4"/>
<rect x="101.9" y="59" class="st16" width="6.4" height="6.4"/>
<rect x="101.9" y="59" class="st27" width="6.4" height="6.4"/>
<rect x="127.4" y="65.4" class="st11" width="19.1" height="12.7"/>
<rect x="127.4" y="65.4" class="st27" width="19.1" height="12.7"/>
<rect y="65.4" class="st16" width="19.1" height="12.7"/>
<rect y="65.4" class="st27" width="19.1" height="12.7"/>
<rect x="108.3" y="65.4" class="st16" width="19.1" height="12.7"/>
<rect x="108.3" y="65.4" class="st27" width="19.1" height="12.7"/>
<rect x="101.9" y="65.4" class="st16" width="6.4" height="12.7"/>
<rect x="101.9" y="65.4" class="st27" width="6.4" height="12.7"/>
<rect x="19.1" y="59" class="st16" width="6.4" height="19.1"/>
<rect x="19.1" y="59" class="st27" width="6.4" height="19.1"/>
<rect x="127.4" y="78.1" class="st16" width="19.1" height="3.8"/>
<rect x="127.4" y="78.1" class="st27" width="19.1" height="3.8"/>
<rect y="78.1" class="st16" width="19.1" height="3.8"/>
<rect y="78.1" class="st27" width="19.1" height="3.8"/>
<rect x="108.3" y="78.1" class="st16" width="19.1" height="3.8"/>
<rect x="108.3" y="78.1" class="st27" width="19.1" height="3.8"/>
<rect x="99.3" y="78.1" class="st16" width="8.9" height="3.8"/>
<rect x="99.3" y="78.1" class="st27" width="8.9" height="3.8"/>
<rect x="19.1" y="78.1" class="st16" width="8.9" height="3.8"/>
<rect x="19.1" y="78.1" class="st27" width="8.9" height="3.8"/>
<rect x="25.5" y="56.5" class="st61" width="76.4" height="22.9"/>
<rect x="25.5" y="56.5" class="st27" width="76.4" height="22.9"/>
<path class="st62" d="M65,25.3h1.3v1.3c-0.2,0-0.4-0.1-0.6-0.1s-0.4,0-0.6,0.1V25.3z"/>
<path class="st27" d="M65,25.3h1.3v1.3c-0.2,0-0.4-0.1-0.6-0.1s-0.4,0-0.6,0.1V25.3z"/>
<line class="st27" x1="65.6" y1="25.3" x2="65.6" y2="0"/>
<path class="st62" d="M65.6,29.7h-3.2c0-1.8,1.4-3.2,3.2-3.2c1.8,0,3.2,1.4,3.2,3.2H65.6z"/>
<path class="st27" d="M65.6,29.7h-3.2c0-1.8,1.4-3.2,3.2-3.2c1.8,0,3.2,1.4,3.2,3.2H65.6z"/>
<path class="st62" d="M22.9,25.3h1.3v1.3c-0.2,0-0.4-0.1-0.6-0.1c-0.2,0-0.4,0-0.6,0.1V25.3z"/>
<path class="st27" d="M22.9,25.3h1.3v1.3c-0.2,0-0.4-0.1-0.6-0.1c-0.2,0-0.4,0-0.6,0.1V25.3z"/>
<line class="st27" x1="23.6" y1="25.3" x2="23.6" y2="0"/>
<path class="st62" d="M23.6,29.7h-3.2c0-1.8,1.4-3.2,3.2-3.2s3.2,1.4,3.2,3.2H23.6z"/>
<path class="st27" d="M23.6,29.7h-3.2c0-1.8,1.4-3.2,3.2-3.2s3.2,1.4,3.2,3.2H23.6z"/>
<path class="st62" d="M43.9,25.3h1.3v1.3c-0.2,0-0.4-0.1-0.6-0.1c-0.2,0-0.4,0-0.6,0.1V25.3z"/>
<path class="st27" d="M43.9,25.3h1.3v1.3c-0.2,0-0.4-0.1-0.6-0.1c-0.2,0-0.4,0-0.6,0.1V25.3z"/>
<line class="st27" x1="44.6" y1="25.3" x2="44.6" y2="0"/>
<path class="st62" d="M44.6,29.7h-3.2c0-1.8,1.4-3.2,3.2-3.2c1.8,0,3.2,1.4,3.2,3.2H44.6z"/>
<path class="st27" d="M44.6,29.7h-3.2c0-1.8,1.4-3.2,3.2-3.2c1.8,0,3.2,1.4,3.2,3.2H44.6z"/>
<rect x="131.2" y="70.5" class="st3" width="6.4" height="1.3"/>
<rect x="131.2" y="70.5" class="st27" width="6.4" height="1.3"/>
<rect x="73.9" y="21.5" class="st31" width="3.7" height="0.7"/>
<rect x="73.9" y="21.5" class="st27" width="3.7" height="0.7"/>
<rect x="77.6" y="21.5" class="st31" width="5.2" height="0.7"/>
<rect x="77.6" y="21.5" class="st27" width="5.2" height="0.7"/>
<rect x="131.2" y="71.8" class="st3" width="6.4" height="6.4"/>
<rect x="131.2" y="71.8" class="st27" width="6.4" height="6.4"/>
<rect x="73.9" y="22.2" class="st31" width="3.7" height="3.7"/>
<rect x="73.9" y="22.2" class="st27" width="3.7" height="3.7"/>
<rect x="77.6" y="22.2" class="st31" width="5.2" height="3.7"/>
<rect x="77.6" y="22.2" class="st27" width="5.2" height="3.7"/>
<path class="st63" d="M42.4,51.1c0,0,0.2-0.7,0.8-0.2c0.6,0.5,0.8-0.2,0.8-0.2"/>
<path class="st63" d="M42.4,51.1c0,0,0.5-0.5,0.7,0.3c0.2,0.8,0.7,0.3,0.7,0.3"/>
<path class="st26" d="M39,51.1h3.4l0.9,1.3c0.1,0.2,0,0.4-0.2,0.4h-4.7c-0.2,0-0.3-0.2-0.2-0.4L39,51.1z"/>
<path class="st64" d="M39,51.1h3.4l0.9,1.3c0.1,0.2,0,0.4-0.2,0.4h-4.7c-0.2,0-0.3-0.2-0.2-0.4L39,51.1z"/>
<path class="st4" d="M39,51.1h3.4l0.9-1.3c0.1-0.2,0-0.4-0.2-0.4h-4.7c-0.2,0-0.3,0.2-0.2,0.4L39,51.1z"/>
<path class="st64" d="M39,51.1h3.4l0.9-1.3c0.1-0.2,0-0.4-0.2-0.4h-4.7c-0.2,0-0.3,0.2-0.2,0.4L39,51.1z"/>
<path class="st4" d="M39.8,49.3h1.8l0.9-1.3c0.1-0.2,0-0.4-0.2-0.4h-3.1c-0.2,0-0.3,0.2-0.2,0.4L39.8,49.3z"/>
<path class="st64" d="M39.8,49.3h1.8l0.9-1.3c0.1-0.2,0-0.4-0.2-0.4h-3.1c-0.2,0-0.3,0.2-0.2,0.4L39.8,49.3z"/>
<path class="st27" d="M38.7,56.5h3.9c0.4,0,0.7-0.2,0.7-0.5v-1.6l-1-1.6h-3.1l-1,1.6V56C38.1,56.2,38.4,56.5,38.7,56.5z"/>
<path class="st65" d="M38.7,56.5h3.9c0.4,0,0.7-0.2,0.7-0.5v-0.8l-5.2-0.8V56C38.1,56.2,38.4,56.5,38.7,56.5z"/>
<path class="st27" d="M38.7,56.5h3.9c0.4,0,0.7-0.2,0.7-0.5v-0.8l-5.2-0.8V56C38.1,56.2,38.4,56.5,38.7,56.5z"/>
<path class="st66" d="M29.3,56.1h-2.5c-0.2,0-0.4-0.2-0.4-0.4v-3.4h3.4v3.4C29.7,55.9,29.5,56.1,29.3,56.1z"/>
<path class="st27" d="M29.3,56.1h-2.5c-0.2,0-0.4-0.2-0.4-0.4v-3.4h3.4v3.4C29.7,55.9,29.5,56.1,29.3,56.1z"/>
<path class="st27" d="M29.7,54.8c0.9,0,1.7-0.8,1.7-1.7c0-0.9-0.8-1.7-1.7-1.7"/>
<path class="st27" d="M29.7,53.9c0.5,0,0.8-0.4,0.8-0.8c0-0.5-0.4-0.8-0.8-0.8"/>
<rect x="26.3" y="51.4" class="st11" width="3.4" height="0.8"/>
<rect x="26.3" y="51.4" class="st27" width="3.4" height="0.8"/>
<path class="st60" d="M29.3,50.5h-3c-0.2,0-0.4,0.2-0.4,0.4v0.4h3.8V51C29.7,50.7,29.5,50.5,29.3,50.5z"/>
<path class="st27" d="M29.3,50.5h-3c-0.2,0-0.4,0.2-0.4,0.4v0.4h3.8V51C29.7,50.7,29.5,50.5,29.3,50.5z"/>
<path class="st60" d="M28.9,56.5h-1.7c-0.1,0-0.2-0.1-0.2-0.2v-0.2h2.1v0.2C29.1,56.4,29,56.5,28.9,56.5z"/>
<path class="st27" d="M28.9,56.5h-1.7c-0.1,0-0.2-0.1-0.2-0.2v-0.2h2.1v0.2C29.1,56.4,29,56.5,28.9,56.5z"/>
<path class="st60" d="M29.5,50.1h-3c-0.1,0-0.2-0.1-0.2-0.2c0-0.1,0.1-0.2,0.2-0.2h3c0.1,0,0.2,0.1,0.2,0.2
	C29.7,50,29.6,50.1,29.5,50.1z"/>
<path class="st27" d="M29.5,50.1h-3c-0.1,0-0.2-0.1-0.2-0.2c0-0.1,0.1-0.2,0.2-0.2h3c0.1,0,0.2,0.1,0.2,0.2
	C29.7,50,29.6,50.1,29.5,50.1z"/>
<path class="st60" d="M28,49.3h-0.4c0-0.2,0.2-0.4,0.4-0.4c0.2,0,0.4,0.2,0.4,0.4H28z"/>
<path class="st27" d="M28,49.3h-0.4c0-0.2,0.2-0.4,0.4-0.4c0.2,0,0.4,0.2,0.4,0.4H28z"/>
<path class="st67" d="M94.4,49.3h-0.5c0-0.3,0.2-0.5,0.5-0.5c0.3,0,0.5,0.2,0.5,0.5H94.4z"/>
<path class="st27" d="M94.4,49.3h-0.5c0-0.3,0.2-0.5,0.5-0.5c0.3,0,0.5,0.2,0.5,0.5H94.4z"/>
<line class="st27" x1="28" y1="49.3" x2="28" y2="53.1"/>
<line class="st27" x1="94.4" y1="49.1" x2="94.4" y2="49.8"/>
<path class="st60" d="M28,53.1L28,53.1c-0.1,0-0.2,0.1-0.2,0.2v0.4c0,0.1,0.1,0.2,0.2,0.2c0.1,0,0.2-0.1,0.2-0.2v-0.4
	C28.2,53.2,28.1,53.1,28,53.1z"/>
<path class="st27" d="M28,53.1L28,53.1c-0.1,0-0.2,0.1-0.2,0.2v0.4c0,0.1,0.1,0.2,0.2,0.2c0.1,0,0.2-0.1,0.2-0.2v-0.4
	C28.2,53.2,28.1,53.1,28,53.1z"/>
<circle class="st67" cx="105.8" cy="39.4" r="0.2"/>
<circle class="st27" cx="105.8" cy="39.4" r="0.2"/>
<circle class="st67" cx="109" cy="39.4" r="0.2"/>
<circle class="st27" cx="109" cy="39.4" r="0.2"/>
<circle class="st67" cx="111.8" cy="39.4" r="0.2"/>
<circle class="st27" cx="111.8" cy="39.4" r="0.2"/>
<circle class="st67" cx="114.2" cy="39.4" r="0.2"/>
<circle class="st27" cx="114.2" cy="39.4" r="0.2"/>
<circle class="st67" cx="116.5" cy="39.4" r="0.2"/>
<circle class="st27" cx="116.5" cy="39.4" r="0.2"/>
<path class="st68" d="M105.4,42.6h2.4v4h-2c-0.2,0-0.4-0.2-0.4-0.4V42.6z"/>
<path class="st27" d="M105.4,42.6h2.4v4h-2c-0.2,0-0.4-0.2-0.4-0.4V42.6z"/>
<path class="st68" d="M113.8,42.6h0.8v0.8h0.4c-0.1,0-0.2,0.1-0.2,0.2c0,0.1,0.1,0.2,0.2,0.2c-0.1,0-0.2,0.1-0.2,0.2
	c0,0.1,0.1,0.2,0.2,0.2c-0.1,0-0.2,0.1-0.2,0.2c0,0.1,0.1,0.2,0.2,0.2c-0.1,0-0.2,0.1-0.2,0.2c0,0.1,0.1,0.2,0.2,0.2
	c-0.1,0-0.2,0.1-0.2,0.2s0.1,0.2,0.2,0.2c-0.1,0-0.2,0.1-0.2,0.2c0,0.1,0.1,0.2,0.2,0.2c-0.1,0-0.2,0.1-0.2,0.2
	c0,0.1,0.1,0.2,0.2,0.2c-0.1,0-0.2,0.1-0.2,0.2c0,0.1,0.1,0.2,0.2,0.2c-0.1,0-0.2,0.1-0.2,0.2s0.1,0.2,0.2,0.2
	c-0.1,0-0.2,0.1-0.2,0.2s0.1,0.2,0.2,0.2c-0.1,0-0.2,0.1-0.2,0.2s0.1,0.2,0.2,0.2c-0.1,0-0.2,0.1-0.2,0.2c0,0.1,0.1,0.2,0.2,0.2
	c-0.1,0-0.2,0.1-0.2,0.2c0,0.1,0.1,0.2,0.2,0.2c-0.1,0-0.2,0.1-0.2,0.2c0,0.1,0.1,0.2,0.2,0.2c-0.1,0-0.2,0.1-0.2,0.2
	c0,0.1,0.1,0.2,0.2,0.2c-0.1,0-0.2,0.1-0.2,0.2s0.1,0.2,0.2,0.2h-1.1c-0.1,0-0.1-0.1-0.1-0.1V42.6z"/>
<path class="st27" d="M113.8,42.6h0.8v0.8h0.4c-0.1,0-0.2,0.1-0.2,0.2c0,0.1,0.1,0.2,0.2,0.2c-0.1,0-0.2,0.1-0.2,0.2
	c0,0.1,0.1,0.2,0.2,0.2c-0.1,0-0.2,0.1-0.2,0.2c0,0.1,0.1,0.2,0.2,0.2c-0.1,0-0.2,0.1-0.2,0.2c0,0.1,0.1,0.2,0.2,0.2
	c-0.1,0-0.2,0.1-0.2,0.2s0.1,0.2,0.2,0.2c-0.1,0-0.2,0.1-0.2,0.2c0,0.1,0.1,0.2,0.2,0.2c-0.1,0-0.2,0.1-0.2,0.2
	c0,0.1,0.1,0.2,0.2,0.2c-0.1,0-0.2,0.1-0.2,0.2c0,0.1,0.1,0.2,0.2,0.2c-0.1,0-0.2,0.1-0.2,0.2s0.1,0.2,0.2,0.2
	c-0.1,0-0.2,0.1-0.2,0.2s0.1,0.2,0.2,0.2c-0.1,0-0.2,0.1-0.2,0.2s0.1,0.2,0.2,0.2c-0.1,0-0.2,0.1-0.2,0.2c0,0.1,0.1,0.2,0.2,0.2
	c-0.1,0-0.2,0.1-0.2,0.2c0,0.1,0.1,0.2,0.2,0.2c-0.1,0-0.2,0.1-0.2,0.2c0,0.1,0.1,0.2,0.2,0.2c-0.1,0-0.2,0.1-0.2,0.2
	c0,0.1,0.1,0.2,0.2,0.2c-0.1,0-0.2,0.1-0.2,0.2s0.1,0.2,0.2,0.2h-1.1c-0.1,0-0.1-0.1-0.1-0.1V42.6z"/>
<path class="st68" d="M111.4,46.6c0.8-0.8,2.4-2.4,0.8-4h-0.8V46.6z"/>
<path class="st27" d="M111.4,46.6c0.8-0.8,2.4-2.4,0.8-4h-0.8V46.6z"/>
<path class="st68" d="M108.6,46.6c2-0.4,3.2-4,0.8-4h-0.8V46.6z"/>
<path class="st27" d="M108.6,46.6c2-0.4,3.2-4,0.8-4h-0.8V46.6z"/>
<path class="st68" d="M116.1,42.6h0.8V51c0,0.2-0.2,0.4-0.4,0.4c-0.2,0-0.4-0.2-0.4-0.4V42.6z"/>
<path class="st27" d="M116.1,42.6h0.8V51c0,0.2-0.2,0.4-0.4,0.4c-0.2,0-0.4-0.2-0.4-0.4V42.6z"/>
<rect x="105.4" y="42.2" class="st27" width="0.4" height="0.4"/>
<rect x="108.6" y="42.2" class="st27" width="0.8" height="0.4"/>
<rect x="111.4" y="42.2" class="st27" width="0.8" height="0.4"/>
<rect x="113.8" y="42.2" class="st27" width="0.8" height="0.4"/>
<rect x="116.3" y="42.2" class="st27" width="0.4" height="0.4"/>
<rect x="103.8" y="39" class="st69" width="14.7" height="0.8"/>
<rect x="103.8" y="39" class="st27" width="14.7" height="0.8"/>
<rect x="121" y="39" class="st16" width="23.1" height="0.8"/>
<rect x="121" y="39" class="st27" width="23.1" height="0.8"/>
<rect x="103.8" y="38.7" class="st27" width="14.7" height="0.4"/>
<rect x="121" y="38.7" class="st27" width="23.1" height="0.4"/>
<circle class="st67" cx="123" cy="39.4" r="0.2"/>
<circle class="st27" cx="123" cy="39.4" r="0.2"/>
<circle class="st67" cx="126.2" cy="39.4" r="0.2"/>
<circle class="st27" cx="126.2" cy="39.4" r="0.2"/>
<path class="st68" d="M122.6,46.6V43h0.8v3.6c0,0.2-0.2,0.4-0.4,0.4C122.8,47,122.6,46.8,122.6,46.6z"/>
<path class="st27" d="M122.6,46.6V43h0.8v3.6c0,0.2-0.2,0.4-0.4,0.4C122.8,47,122.6,46.8,122.6,46.6z"/>
<polygon class="st68" points="122.6,43 122.7,42.4 123.3,42.4 123.4,43 "/>
<polygon class="st27" points="122.6,43 122.7,42.4 123.3,42.4 123.4,43 "/>
<rect x="122.7" y="42.2" class="st68" width="0.6" height="0.2"/>
<rect x="122.7" y="42.2" class="st27" width="0.6" height="0.2"/>
<rect x="126" y="47" class="st27" width="0.4" height="1.2"/>
<path class="st62" d="M123.4,48.2c0,0.9,0.7,1.6,1.6,1.6s1.6-0.7,1.6-1.6H123.4z"/>
<path class="st27" d="M123.4,48.2c0,0.9,0.7,1.6,1.6,1.6s1.6-0.7,1.6-1.6H123.4z"/>
<circle class="st67" cx="129.4" cy="39.4" r="0.2"/>
<circle class="st27" cx="129.4" cy="39.4" r="0.2"/>
<circle class="st67" cx="135.7" cy="39.4" r="0.2"/>
<circle class="st27" cx="135.7" cy="39.4" r="0.2"/>
<circle class="st67" cx="142.1" cy="39.4" r="0.2"/>
<circle class="st27" cx="142.1" cy="39.4" r="0.2"/>
<path class="st68" d="M134.9,45.4h1.6c0.2,0,0.4,0.2,0.4,0.4v2.4c0,0.2-0.2,0.4-0.4,0.4h-1.6c-0.2,0-0.4-0.2-0.4-0.4v-2.4
	C134.5,45.6,134.7,45.4,134.9,45.4z"/>
<path class="st27" d="M134.9,45.4h1.6c0.2,0,0.4,0.2,0.4,0.4v2.4c0,0.2-0.2,0.4-0.4,0.4h-1.6c-0.2,0-0.4-0.2-0.4-0.4v-2.4
	C134.5,45.6,134.7,45.4,134.9,45.4z"/>
<line class="st27" x1="135.7" y1="46" x2="135.7" y2="48"/>
<line class="st27" x1="136.3" y1="46" x2="136.3" y2="48"/>
<line class="st27" x1="135.1" y1="46" x2="135.1" y2="48"/>
<rect x="135.5" y="45" class="st27" width="0.4" height="0.4"/>
<rect x="132.3" y="45" class="st27" width="0.4" height="0.4"/>
<rect x="141.9" y="45" class="st27" width="0.4" height="0.4"/>
<path class="st62" d="M132.5,45.4c0.7,0,1.2,1.5,1.2,2.1s-0.5,1.1-1.2,1.1c-0.7,0-1.2-0.5-1.2-1.1S131.9,45.4,132.5,45.4z"/>
<path class="st27" d="M132.5,45.4c0.7,0,1.2,1.5,1.2,2.1s-0.5,1.1-1.2,1.1c-0.7,0-1.2-0.5-1.2-1.1S131.9,45.4,132.5,45.4z"/>
<rect x="138.7" y="45" class="st27" width="0.4" height="0.4"/>
<circle class="st67" cx="138.9" cy="39.4" r="0.2"/>
<circle class="st27" cx="138.9" cy="39.4" r="0.2"/>
<path class="st27" d="M138.9,45.4c0.4,0,1,3.6,0,3.6C137.9,49,138.6,45.4,138.9,45.4z"/>
<path class="st27" d="M138.9,45.4c0.4-0.1,1.6,3.4,0.6,3.5C138.6,49.1,138.6,45.5,138.9,45.4z"/>
<path class="st27" d="M138.9,45.4c-0.4-0.1-1.6,3.4-0.6,3.5C139.3,49.1,139.3,45.5,138.9,45.4z"/>
<circle class="st27" cx="142.1" cy="47" r="1.6"/>
<circle class="st27" cx="142.1" cy="47" r="1.2"/>
<line class="st27" x1="142.9" y1="46.1" x2="142.9" y2="47.9"/>
<line class="st27" x1="141.2" y1="46.2" x2="143" y2="46.2"/>
<line class="st27" x1="142.5" y1="45.9" x2="142.5" y2="48.1"/>
<line class="st27" x1="141" y1="46.6" x2="143.2" y2="46.6"/>
<line class="st27" x1="142.1" y1="45.8" x2="142.1" y2="48.2"/>
<line class="st27" x1="140.9" y1="47" x2="143.3" y2="47"/>
<line class="st27" x1="141.7" y1="45.9" x2="141.7" y2="48.1"/>
<line class="st27" x1="141" y1="47.4" x2="143.2" y2="47.4"/>
<line class="st27" x1="141.3" y1="46.1" x2="141.3" y2="47.9"/>
<line class="st27" x1="141.2" y1="47.8" x2="143" y2="47.8"/>
<path class="st70" d="M88.4,56.5h12c0.1,0,0.2-0.1,0.2-0.2v-0.5c0-0.1-0.1-0.2-0.2-0.2h-12c-0.1,0-0.2,0.1-0.2,0.2v0.5
	C88.2,56.4,88.3,56.5,88.4,56.5z"/>
<path class="st27" d="M88.4,56.5h12c0.1,0,0.2-0.1,0.2-0.2v-0.5c0-0.1-0.1-0.2-0.2-0.2h-12c-0.1,0-0.2,0.1-0.2,0.2v0.5
	C88.2,56.4,88.3,56.5,88.4,56.5z"/>
<path class="st16" d="M94.4,49.8c3.2,0,5.7,2.6,5.7,5.7H88.7C88.7,52.4,91.2,49.8,94.4,49.8z"/>
<path class="st27" d="M94.4,49.8c3.2,0,5.7,2.6,5.7,5.7H88.7C88.7,52.4,91.2,49.8,94.4,49.8z"/>
<path class="st71" d="M111.6,54.1h2.7v-0.3c0-0.1-0.1-0.2-0.2-0.2h-2.3c-0.1,0-0.2,0.1-0.2,0.2V54.1z"/>
<path class="st27" d="M111.6,54.1h2.7v-0.3c0-0.1-0.1-0.2-0.2-0.2h-2.3c-0.1,0-0.2,0.1-0.2,0.2V54.1z"/>
<path class="st67" d="M113,53.2h-0.5c0-0.3,0.2-0.5,0.5-0.5c0.3,0,0.5,0.2,0.5,0.5H113z"/>
<path class="st27" d="M113,53.2h-0.5c0-0.3,0.2-0.5,0.5-0.5c0.3,0,0.5,0.2,0.5,0.5H113z"/>
<line class="st27" x1="113" y1="52.9" x2="113" y2="53.6"/>
<path class="st11" d="M116.5,53.5l-1.7,1 M114.8,54.4L114.8,54.4c0.1,0.1,0.2,0.2,0.3,0.1l1.1-0.6l1.6,2.8c0.1,0.1,0.2,0.2,0.3,0.1
	c0.1-0.1,0.2-0.2,0.1-0.3l-1.7-3l0,0l0,0l0,0l0,0l0,0l0,0l0,0l0,0l0,0l0,0l0,0l0,0l0,0l0,0l0,0l0,0l0,0h0l0,0l0,0l0,0l0,0l0,0l0,0
	l0,0l0,0l0,0l0,0l0,0l0,0l0,0l0,0l0,0c0,0,0,0,0,0l0,0l0,0l0,0l0,0c0,0,0,0,0,0c0,0,0,0,0,0h0h0c0,0,0,0,0,0c0,0,0,0,0,0
	c0,0,0,0,0,0l0,0l0,0l0,0l0,0l0,0l0,0l0,0l0,0l0,0l0,0l0,0l0,0l-1.3,0.7C114.8,54.2,114.7,54.3,114.8,54.4z"/>
<path class="st27" d="M116.5,53.5l-1.7,1 M114.8,54.4L114.8,54.4c0.1,0.1,0.2,0.2,0.3,0.1l1.1-0.6l1.6,2.8c0.1,0.1,0.2,0.2,0.3,0.1
	c0.1-0.1,0.2-0.2,0.1-0.3l-1.7-3l0,0l0,0l0,0l0,0l0,0l0,0l0,0l0,0l0,0l0,0l0,0l0,0l0,0l0,0l0,0l0,0l0,0h0l0,0l0,0l0,0l0,0l0,0l0,0
	l0,0l0,0l0,0l0,0l0,0l0,0l0,0l0,0l0,0c0,0,0,0,0,0l0,0l0,0l0,0l0,0c0,0,0,0,0,0c0,0,0,0,0,0h0h0c0,0,0,0,0,0c0,0,0,0,0,0
	c0,0,0,0,0,0l0,0l0,0l0,0l0,0l0,0l0,0l0,0l0,0l0,0l0,0l0,0l0,0l-1.3,0.7C114.8,54.2,114.7,54.3,114.8,54.4z"/>
<line class="st27" x1="114.8" y1="54.4" x2="114.5" y2="54.6"/>
<path class="st72" d="M110.6,57.1c0.1,0.1,0.2,0.2,0.1,0.3c-0.1,0.1-0.2,0.2-0.3,0.1c-1.2-0.7-1.3-1.4-1.3-2c0-0.5-0.1-1.1-1.1-1.6
	c-0.1-0.1-0.2-0.2-0.1-0.3c0.1-0.1,0.2-0.2,0.3-0.1c1.2,0.7,1.3,1.4,1.3,2C109.6,56,109.6,56.5,110.6,57.1z"/>
<path class="st73" d="M110.6,57.1c0.1,0.1,0.2,0.2,0.1,0.3c-0.1,0.1-0.2,0.2-0.3,0.1c-1.2-0.7-1.3-1.4-1.3-2c0-0.5-0.1-1.1-1.1-1.6
	c-0.1-0.1-0.2-0.2-0.1-0.3c0.1-0.1,0.2-0.2,0.3-0.1c1.2,0.7,1.3,1.4,1.3,2C109.6,56,109.6,56.5,110.6,57.1z"/>
<path class="st72" d="M111.6,54.1h1.4h1.4l1.3,3.7c0.2,0.7,0.1,1.2-0.7,1.2h-2h-2c-0.8,0-0.9-0.5-0.7-1.2L111.6,54.1z"/>
<path class="st64" d="M111.6,54.1h1.4h1.4l1.3,3.7c0.2,0.7,0.1,1.2-0.7,1.2h-2h-2c-0.8,0-0.9-0.5-0.7-1.2L111.6,54.1z"/>
<path class="st74" d="M65,41.2c1.4,0,2.5-1.1,2.5-2.5h-5.1C62.4,40.1,63.6,41.2,65,41.2z"/>
<path class="st27" d="M65,41.2c1.4,0,2.5-1.1,2.5-2.5h-5.1C62.4,40.1,63.6,41.2,65,41.2z"/>
<path class="st74" d="M59.9,41.2c1.4,0,2.5-1.1,2.5-2.5h-5.1C57.3,40.1,58.5,41.2,59.9,41.2z"/>
<path class="st27" d="M59.9,41.2c1.4,0,2.5-1.1,2.5-2.5h-5.1C57.3,40.1,58.5,41.2,59.9,41.2z"/>
<path class="st31" d="M34.4,56.5c1.1,0,1.9-0.9,1.9-1.9h-3.8C32.5,55.6,33.3,56.5,34.4,56.5z"/>
<path class="st27" d="M34.4,56.5c1.1,0,1.9-0.9,1.9-1.9h-3.8C32.5,55.6,33.3,56.5,34.4,56.5z"/>
<path class="st75" d="M37.6,33.6c1.1,0,1.9-0.9,1.9-1.9h-3.8C35.7,32.7,36.5,33.6,37.6,33.6z"/>
<path class="st27" d="M37.6,33.6c1.1,0,1.9-0.9,1.9-1.9h-3.8C35.7,32.7,36.5,33.6,37.6,33.6z"/>
<path class="st75" d="M37.6,31.6c1.1,0,1.9-0.9,1.9-1.9h-3.8C35.7,30.8,36.5,31.6,37.6,31.6z"/>
<path class="st27" d="M37.6,31.6c1.1,0,1.9-0.9,1.9-1.9h-3.8C35.7,30.8,36.5,31.6,37.6,31.6z"/>
<path class="st75" d="M37.6,29.7c1.1,0,1.9-0.9,1.9-1.9h-3.8C35.7,28.9,36.5,29.7,37.6,29.7z"/>
<path class="st27" d="M37.6,29.7c1.1,0,1.9-0.9,1.9-1.9h-3.8C35.7,28.9,36.5,29.7,37.6,29.7z"/>
<path class="st74" d="M54.8,41.2c1.4,0,2.5-1.1,2.5-2.5h-5.1C52.2,40.1,53.4,41.2,54.8,41.2z"/>
<path class="st27" d="M54.8,41.2c1.4,0,2.5-1.1,2.5-2.5h-5.1C52.2,40.1,53.4,41.2,54.8,41.2z"/>
<path class="st31" d="M29.4,20.8h1V22c-0.2-0.1-0.3-0.1-0.5-0.1c-0.2,0-0.4,0-0.5,0.1V20.8z"/>
<path class="st27" d="M29.4,20.8h1V22c-0.2-0.1-0.3-0.1-0.5-0.1c-0.2,0-0.4,0-0.5,0.1V20.8z"/>
<path class="st16" d="M32,20.8h1V22c-0.2-0.1-0.3-0.1-0.5-0.1c-0.2,0-0.4,0-0.5,0.1V20.8z"/>
<path class="st27" d="M32,20.8h1V22c-0.2-0.1-0.3-0.1-0.5-0.1c-0.2,0-0.4,0-0.5,0.1V20.8z"/>
<path class="st16" d="M60,20.8h1V22c-0.2-0.1-0.3-0.1-0.5-0.1c-0.2,0-0.4,0-0.5,0.1V20.8z"/>
<path class="st27" d="M60,20.8h1V22c-0.2-0.1-0.3-0.1-0.5-0.1c-0.2,0-0.4,0-0.5,0.1V20.8z"/>
<path class="st71" d="M34.5,20.8h1V22c-0.2-0.1-0.3-0.1-0.5-0.1c-0.2,0-0.4,0-0.5,0.1V20.8z"/>
<path class="st27" d="M34.5,20.8h1V22c-0.2-0.1-0.3-0.1-0.5-0.1c-0.2,0-0.4,0-0.5,0.1V20.8z"/>
<path class="st31" d="M29.2,25.9h1.5l0.3-3.1c0-0.6-0.5-1-1-1c-0.6,0-1.1,0.5-1,1L29.2,25.9z"/>
<path class="st27" d="M29.2,25.9h1.5l0.3-3.1c0-0.6-0.5-1-1-1c-0.6,0-1.1,0.5-1,1L29.2,25.9z"/>
<path class="st16" d="M31.7,25.9h1.5l0.3-3.1c0-0.6-0.5-1-1-1c-0.6,0-1.1,0.5-1,1L31.7,25.9z"/>
<path class="st27" d="M31.7,25.9h1.5l0.3-3.1c0-0.6-0.5-1-1-1c-0.6,0-1.1,0.5-1,1L31.7,25.9z"/>
<path class="st16" d="M59.7,25.9h1.5l0.3-3.1c0-0.6-0.5-1-1-1s-1.1,0.5-1,1L59.7,25.9z"/>
<path class="st27" d="M59.7,25.9h1.5l0.3-3.1c0-0.6-0.5-1-1-1s-1.1,0.5-1,1L59.7,25.9z"/>
<path class="st71" d="M34.3,25.9h1.5l0.3-3.1c0-0.6-0.5-1-1-1c-0.6,0-1.1,0.5-1,1L34.3,25.9z"/>
<path class="st27" d="M34.3,25.9h1.5l0.3-3.1c0-0.6-0.5-1-1-1c-0.6,0-1.1,0.5-1,1L34.3,25.9z"/>
<line class="st27" x1="29.4" y1="21.1" x2="30.4" y2="21.1"/>
<line class="st27" x1="32" y1="21.1" x2="33" y2="21.1"/>
<line class="st27" x1="60" y1="21.1" x2="61" y2="21.1"/>
<line class="st27" x1="34.5" y1="21.1" x2="35.5" y2="21.1"/>
<polygon class="st31" points="30.8,24.1 30.9,23.9 29,23.9 29,24.1 "/>
<polygon class="st27" points="30.8,24.1 30.9,23.9 29,23.9 29,24.1 "/>
<polygon class="st60" points="33.4,24.1 33.4,23.9 31.5,23.9 31.6,24.1 "/>
<polygon class="st27" points="33.4,24.1 33.4,23.9 31.5,23.9 31.6,24.1 "/>
<polygon class="st60" points="61.4,24.1 61.4,23.9 59.6,23.9 59.6,24.1 "/>
<polygon class="st27" points="61.4,24.1 61.4,23.9 59.6,23.9 59.6,24.1 "/>
<polygon class="st60" points="35.9,24.1 36,23.9 34.1,23.9 34.1,24.1 "/>
<polygon class="st27" points="35.9,24.1 36,23.9 34.1,23.9 34.1,24.1 "/>
<rect x="55.4" y="23.4" class="st69" width="1.9" height="2.5"/>
<rect x="55.4" y="23.4" class="st27" width="1.9" height="2.5"/>
<polygon class="st76" points="20.4,41.2 21.7,41.2 22.3,37.4 19.7,37.4 "/>
<polygon class="st27" points="20.4,41.2 21.7,41.2 22.3,37.4 19.7,37.4 "/>
<polygon class="st76" points="23.6,41.2 24.8,41.2 25.5,37.4 22.9,37.4 "/>
<polygon class="st27" points="23.6,41.2 24.8,41.2 25.5,37.4 22.9,37.4 "/>
<polygon class="st76" points="52.9,33.6 54.1,33.6 54.8,29.7 52.2,29.7 "/>
<polygon class="st27" points="52.9,33.6 54.1,33.6 54.8,29.7 52.2,29.7 "/>
<polygon class="st76" points="26.7,41.2 28,41.2 28.7,37.4 26.1,37.4 "/>
<polygon class="st27" points="26.7,41.2 28,41.2 28.7,37.4 26.1,37.4 "/>
<polygon class="st31" points="12.1,59 13.4,59 14,55.2 11.5,55.2 "/>
<polygon class="st27" points="12.1,59 13.4,59 14,55.2 11.5,55.2 "/>
<polygon class="st76" points="56,33.6 57.3,33.6 58,29.7 55.4,29.7 "/>
<polygon class="st27" points="56,33.6 57.3,33.6 58,29.7 55.4,29.7 "/>
<rect x="35.7" y="39.3" class="st69" width="1.3" height="1.9"/>
<rect x="35.7" y="39.3" class="st27" width="1.3" height="1.9"/>
<rect x="36.9" y="39.3" class="st69" width="1.3" height="1.9"/>
<rect x="36.9" y="39.3" class="st27" width="1.3" height="1.9"/>
<rect x="38.2" y="39.3" class="st69" width="1.3" height="1.9"/>
<rect x="38.2" y="39.3" class="st27" width="1.3" height="1.9"/>
<rect x="39.5" y="39.3" class="st69" width="1.3" height="1.9"/>
<rect x="39.5" y="39.3" class="st27" width="1.3" height="1.9"/>
<rect x="40.8" y="39.3" class="st69" width="1.3" height="1.9"/>
<rect x="40.8" y="39.3" class="st27" width="1.3" height="1.9"/>
<rect x="42" y="39.3" class="st69" width="1.3" height="1.9"/>
<rect x="42" y="39.3" class="st27" width="1.3" height="1.9"/>
<path class="st77" d="M29.3,32.7h0.5c0.1-0.1,0.1-0.1,0.3-0.1c0.1,0,0.3,0.1,0.3,0.3c0,0.2-0.2,0.3-0.3,0.3c-0.1,0-0.2-0.1-0.3-0.1
	h-0.5c-0.1,0.3-0.3,0.4-0.6,0.4h-7.6c-0.3,0-0.5-0.2-0.6-0.4h-0.5c-0.1,0.1-0.1,0.1-0.3,0.1s-0.3-0.1-0.3-0.3c0-0.2,0.2-0.3,0.3-0.3
	s0.2,0.1,0.3,0.1h0.5c0.1-0.3,0.3-0.4,0.6-0.4h7.6C29,32.3,29.2,32.5,29.3,32.7z"/>
<path class="st27" d="M29.3,32.7h0.5c0.1-0.1,0.1-0.1,0.3-0.1c0.1,0,0.3,0.1,0.3,0.3c0,0.2-0.2,0.3-0.3,0.3c-0.1,0-0.2-0.1-0.3-0.1
	h-0.5c-0.1,0.3-0.3,0.4-0.6,0.4h-7.6c-0.3,0-0.5-0.2-0.6-0.4h-0.5c-0.1,0.1-0.1,0.1-0.3,0.1s-0.3-0.1-0.3-0.3c0-0.2,0.2-0.3,0.3-0.3
	s0.2,0.1,0.3,0.1h0.5c0.1-0.3,0.3-0.4,0.6-0.4h7.6C29,32.3,29.2,32.5,29.3,32.7z"/>
<polygon class="st62" points="45.9,56.5 50.9,56.5 50.3,48.8 46.5,48.8 "/>
<polygon class="st27" points="45.9,56.5 50.9,56.5 50.3,48.8 46.5,48.8 "/>
<polygon class="st65" points="81.4,50.8 86.5,50.8 85.3,54.6 82.7,54.6 "/>
<polygon class="st27" points="81.4,50.8 86.5,50.8 85.3,54.6 82.7,54.6 "/>
<rect x="47.1" y="47.6" class="st78" width="2.5" height="1.3"/>
<rect x="47.1" y="47.6" class="st27" width="2.5" height="1.3"/>
<rect x="82.7" y="54.6" class="st65" width="2.5" height="1.3"/>
<rect x="82.7" y="54.6" class="st27" width="2.5" height="1.3"/>
<rect x="82.1" y="55.8" class="st66" width="3.8" height="0.6"/>
<rect x="82.1" y="55.8" class="st27" width="3.8" height="0.6"/>
<path class="st76" d="M45.9,41.2h5.1V46c0,0.8-0.7,1.5-1.5,1.5h-2c-0.8,0-1.5-0.7-1.5-1.5V41.2z"/>
<path class="st27" d="M45.9,41.2h5.1V46c0,0.8-0.7,1.5-1.5,1.5h-2c-0.8,0-1.5-0.7-1.5-1.5V41.2z"/>
<path class="st70" d="M64.2,56.5h14.3c0.3,0,0.5-0.2,0.5-0.5v-3.7H63.7V56C63.7,56.3,63.9,56.5,64.2,56.5z"/>
<path class="st27" d="M64.2,56.5h14.3c0.3,0,0.5-0.2,0.5-0.5v-3.7H63.7V56C63.7,56.3,63.9,56.5,64.2,56.5z"/>
<rect x="63.7" y="48" class="st70" width="15.3" height="4.2"/>
<rect x="63.7" y="48" class="st27" width="15.3" height="4.2"/>
<path class="st70" d="M63.7,48H79v-3.7c0-0.3-0.2-0.5-0.5-0.5H64.2c-0.3,0-0.5,0.2-0.5,0.5V48z"/>
<path class="st27" d="M63.7,48H79v-3.7c0-0.3-0.2-0.5-0.5-0.5H64.2c-0.3,0-0.5,0.2-0.5,0.5V48z"/>
<path class="st16" d="M105.8,39c0.2,0,0.4,0.2,0.4,0.4v2.8c-0.3,0-0.5,0-0.8,0v-2.8C105.4,39.2,105.6,39,105.8,39z"/>
<path class="st27" d="M105.8,39c0.2,0,0.4,0.2,0.4,0.4v2.8c-0.3,0-0.5,0-0.8,0v-2.8C105.4,39.2,105.6,39,105.8,39z"/>
<path class="st16" d="M109,39c0.2,0,0.4,0.2,0.4,0.4v2.8c-0.3,0-0.5,0-0.8,0v-2.8C108.6,39.2,108.8,39,109,39z"/>
<path class="st27" d="M109,39c0.2,0,0.4,0.2,0.4,0.4v2.8c-0.3,0-0.5,0-0.8,0v-2.8C108.6,39.2,108.8,39,109,39z"/>
<path class="st16" d="M111.8,39c0.2,0,0.4,0.2,0.4,0.4v2.8c-0.3,0-0.5,0-0.8,0v-2.8C111.4,39.2,111.5,39,111.8,39z"/>
<path class="st27" d="M111.8,39c0.2,0,0.4,0.2,0.4,0.4v2.8c-0.3,0-0.5,0-0.8,0v-2.8C111.4,39.2,111.5,39,111.8,39z"/>
<path class="st16" d="M114.2,39c0.2,0,0.4,0.2,0.4,0.4v2.8c-0.3,0-0.5,0-0.8,0v-2.8C113.8,39.2,113.9,39,114.2,39z"/>
<path class="st27" d="M114.2,39c0.2,0,0.4,0.2,0.4,0.4v2.8c-0.3,0-0.5,0-0.8,0v-2.8C113.8,39.2,113.9,39,114.2,39z"/>
<path class="st16" d="M116.5,39c0.2,0,0.4,0.2,0.4,0.4v2.8c-0.3,0-0.5,0-0.8,0v-2.8C116.1,39.2,116.3,39,116.5,39z"/>
<path class="st27" d="M116.5,39c0.2,0,0.4,0.2,0.4,0.4v2.8c-0.3,0-0.5,0-0.8,0v-2.8C116.1,39.2,116.3,39,116.5,39z"/>
<path class="st16" d="M123,39c0.2,0,0.4,0.2,0.4,0.4v2.8c-0.3,0-0.5,0-0.8,0v-2.8C122.6,39.2,122.8,39,123,39z"/>
<path class="st27" d="M123,39c0.2,0,0.4,0.2,0.4,0.4v2.8c-0.3,0-0.5,0-0.8,0v-2.8C122.6,39.2,122.8,39,123,39z"/>
<path class="st16" d="M126.2,39c0.2,0,0.4,0.2,0.4,0.4V47c-0.3,0-0.5,0-0.8,0v-7.6C125.8,39.2,126,39,126.2,39z"/>
<path class="st27" d="M126.2,39c0.2,0,0.4,0.2,0.4,0.4V47c-0.3,0-0.5,0-0.8,0v-7.6C125.8,39.2,126,39,126.2,39z"/>
<path class="st16" d="M129.4,39c0.2,0,0.4,0.2,0.4,0.4v6.7c0.5,0.2,0.8,0.6,0.8,1.1v1.9c0,0.1-0.1,0.2-0.2,0.2
	c-0.1,0-0.2-0.1-0.2-0.2v-0.5v-0.5v-1c0-0.1-0.1-0.2-0.2-0.2c-0.1,0-0.2,0.1-0.2,0.2v1.2v0.3v0.5c0,0.1-0.1,0.2-0.2,0.2
	c-0.1,0-0.2-0.1-0.2-0.2v-0.5v-0.3v-1.2c0-0.1-0.1-0.2-0.2-0.2c-0.1,0-0.2,0.1-0.2,0.2v1v0.5v0.5c0,0.1-0.1,0.2-0.2,0.2
	c-0.1,0-0.2-0.1-0.2-0.2v-1.9c0-0.5,0.3-1,0.8-1.1v-6.7C129,39.2,129.1,39,129.4,39z"/>
<path class="st27" d="M129.4,39c0.2,0,0.4,0.2,0.4,0.4v6.7c0.5,0.2,0.8,0.6,0.8,1.1v1.9c0,0.1-0.1,0.2-0.2,0.2
	c-0.1,0-0.2-0.1-0.2-0.2v-0.5v-0.5v-1c0-0.1-0.1-0.2-0.2-0.2c-0.1,0-0.2,0.1-0.2,0.2v1.2v0.3v0.5c0,0.1-0.1,0.2-0.2,0.2
	c-0.1,0-0.2-0.1-0.2-0.2v-0.5v-0.3v-1.2c0-0.1-0.1-0.2-0.2-0.2c-0.1,0-0.2,0.1-0.2,0.2v1v0.5v0.5c0,0.1-0.1,0.2-0.2,0.2
	c-0.1,0-0.2-0.1-0.2-0.2v-1.9c0-0.5,0.3-1,0.8-1.1v-6.7C129,39.2,129.1,39,129.4,39z"/>
<path class="st16" d="M135.7,39c0.2,0,0.4,0.2,0.4,0.4V45h-0.8v-5.6C135.3,39.2,135.5,39,135.7,39z"/>
<path class="st27" d="M135.7,39c0.2,0,0.4,0.2,0.4,0.4V45h-0.8v-5.6C135.3,39.2,135.5,39,135.7,39z"/>
<path class="st16" d="M132.5,39c0.2,0,0.4,0.2,0.4,0.4V45h-0.8v-5.6C132.1,39.2,132.3,39,132.5,39z"/>
<path class="st27" d="M132.5,39c0.2,0,0.4,0.2,0.4,0.4V45h-0.8v-5.6C132.1,39.2,132.3,39,132.5,39z"/>
<path class="st16" d="M142.1,39c0.2,0,0.4,0.2,0.4,0.4V45h-0.8v-5.6C141.7,39.2,141.9,39,142.1,39z"/>
<path class="st27" d="M142.1,39c0.2,0,0.4,0.2,0.4,0.4V45h-0.8v-5.6C141.7,39.2,141.9,39,142.1,39z"/>
<path class="st16" d="M138.9,39c0.2,0,0.4,0.2,0.4,0.4V45h-0.8v-5.6C138.5,39.2,138.7,39,138.9,39z"/>
<path class="st27" d="M138.9,39c0.2,0,0.4,0.2,0.4,0.4V45h-0.8v-5.6C138.5,39.2,138.7,39,138.9,39z"/>
</svg>
