<?xml version="1.0" encoding="UTF-8" standalone="no"?>
<svg xmlns:dc="http://purl.org/dc/elements/1.1/" xmlns:cc="http://creativecommons.org/ns#"
     xmlns:rdf="http://www.w3.org/1999/02/22-rdf-syntax-ns#" xmlns:svg="http://www.w3.org/2000/svg"
     xmlns="http://www.w3.org/2000/svg" viewBox="0 0 250.03999 60.360001" height="60.360001"
     width="250.03999" xml:space="preserve" id="svg2" version="1.1">
    <metadata id="metadata8">
        <rdf:RDF>
            <cc:Work rdf:about="">
                <dc:format>image/svg+xml</dc:format>
                <dc:type rdf:resource="http://purl.org/dc/dcmitype/StillImage"/></cc:Work></rdf:RDF></metadata>
    <defs id="defs6"/>
    <g transform="matrix(1.3333333,0,0,-1.3333333,0,60.36)" id="g10">
        <g transform="scale(0.1)" id="g12">
            <path id="path14" style="fill:#f5f5f5;fill-opacity:1;fill-rule:nonzero;stroke:none"
                  d="m 1715.13,452.656 c 88.52,0 160.18,-71.66 160.18,-160.179 0,-88.52 -71.66,-160.18 -160.18,-160.18 -88.52,0 -160.18,71.66 -160.18,160.18 0,88.519 71.66,160.179 160.18,160.179"/>
            <path id="path16" style="fill:#ffffff;fill-opacity:1;fill-rule:nonzero;stroke:none"
                    d="m 1704.28,354.477 c 28.25,0 51.15,-22.899 51.15,-51.149 0,-28.246 -22.9,-51.144 -51.15,-51.144 -28.25,0 -51.15,22.898 -51.15,51.144 0,28.25 22.9,51.149 51.15,51.149"/>
            <path id="path18" style="fill:none;stroke:#2a2b2d;stroke-width:4.79899979;stroke-linecap:butt;stroke-linejoin:miter;stroke-miterlimit:2.61310005;stroke-dasharray:none;stroke-opacity:1"
                    d="m 1704.28,354.477 c 28.25,0 51.15,-22.899 51.15,-51.149 0,-28.246 -22.9,-51.144 -51.15,-51.144 -28.25,0 -51.15,22.898 -51.15,51.144 0,28.25 22.9,51.149 51.15,51.149 z"/>
            <path id="path20" style="fill:none;stroke:#2a2b2d;stroke-width:4.79899979;stroke-linecap:round;stroke-linejoin:miter;stroke-miterlimit:2.61310005;stroke-dasharray:none;stroke-opacity:1"
                    d="m 1704.28,337.824 c 9.51,0 17.84,-3.566 23.79,-10.707 13.08,-13.082 13.08,-35.683 0,-48.765 v 0"/>
            <path id="path22" style="fill:#FFBD2D;fill-opacity:1;fill-rule:nonzero;stroke:none"
                    d="m 1732.83,260.512 14.27,14.269 27.36,-27.355 c 3.57,-3.571 3.57,-10.703 0,-14.274 v 0 c -3.57,-3.566 -10.71,-3.566 -14.28,0 l -27.35,27.36"/>
            <path id="path24" style="fill:none;stroke:#2a2b2d;stroke-width:4.79899979;stroke-linecap:butt;stroke-linejoin:miter;stroke-miterlimit:2.61310005;stroke-dasharray:none;stroke-opacity:1"
                    d="m 1732.83,260.512 14.27,14.269 27.36,-27.355 c 3.57,-3.571 3.57,-10.703 0,-14.274 v 0 c -3.57,-3.566 -10.71,-3.566 -14.28,0 z"/>
            <path id="path26" style="fill:#2a2b2d;fill-opacity:1;fill-rule:nonzero;stroke:none"
                    d="m 1602.76,75.3633 3.13,3.168 3.21,-3.2071 -3.17,-3.1679 z m 0.35,-22.7813 -2.68,0.336 -2.43,0.9336 -2.11,1.5039 -1.68,2 c -0.55,0.9062 -0.99,1.9179 -1.28,3.0234 -0.31,1.1055 -0.46,2.2617 -0.46,3.4727 l 0.14,2.2265 0.44,2.2149 0.8,2.3672 c 0.33,0.8281 0.73,1.7343 1.22,2.7148 l 3.91,-1.8633 -1.04,-2.2773 -0.68,-1.9102 -0.37,-1.7226 -0.11,-1.7305 0.28,-2.2734 0.83,-1.961 2.2,-1.9765 c 0.9,-0.4922 1.91,-0.7383 3.02,-0.7383 h 3.53 c 1.24,0 2.24,0.1289 3.01,0.3828 l 1.8,1.0859 0.89,1.6992 0.22,2.1954 v 11.7187 h 4.34 V 62.2852 c 0,-3.2383 -0.85,-5.6641 -2.57,-7.2774 -1.71,-1.6172 -4.27,-2.4258 -7.69,-2.4258 h -3.53"/>
            <path id="path28" style="fill:#2a2b2d;fill-opacity:1;fill-rule:nonzero;stroke:none"
                    d="m 1630.05,61.9531 c -1.28,0 -2.37,0.0782 -3.29,0.2344 l -2.31,0.6953 -1.51,1.1797 -0.87,1.6719 -0.39,2.1679 c -0.06,0.8086 -0.09,1.6954 -0.09,2.6719 v 16.4922 h 4.33 V 70.5742 l 0.1,-2.2304 0.51,-1.2969 1.23,-0.6094 c 0.56,-0.0937 1.32,-0.1484 2.29,-0.1484 v -4.336"/>
            <path id="path30" style="fill:#2a2b2d;fill-opacity:1;fill-rule:nonzero;stroke:none"
                    d="m 1642.55,61.9883 c -2.13,0 -3.81,0.5508 -5.05,1.6562 l -2.12,-1.289 -2.41,-0.4024 h -3.92 v 4.336 h 3.92 l 0.6,0.0664 0.79,0.3398 0.68,0.8047 0.3,1.4727 v 0.0703 4.9453 h 4.33 V 69.043 c 0,-0.9532 0.23,-1.6485 0.68,-2.0821 0.44,-0.4336 1.17,-0.6562 2.2,-0.6562 l 0.6,0.082 0.78,0.3555 0.69,0.8281 0.3,1.4727 v 4.9453 h 4.31 V 69.043 c 0,-0.9532 0.24,-1.6524 0.69,-2.0977 0.46,-0.4492 1.2,-0.6719 2.24,-0.6719 l 0.62,0.0938 0.77,0.3867 0.66,0.8242 0.29,1.4649 -0.06,0.9218 -0.17,1.1407 -0.21,1.2187 -0.24,1.1758 -0.24,1.0078 -0.18,0.7149 4.09,1.3437 0.14,-0.5625 0.25,-1.0742 0.3,-1.4297 0.29,-1.5742 0.22,-1.5508 0.09,-1.332 c 0,-1.1836 -0.2,-2.2227 -0.59,-3.1094 l -1.52,-2.2109 -2.12,-1.3164 -2.39,-0.4532 c -2.16,0 -3.87,0.5703 -5.12,1.7071 l -2.11,-1.2813 -2.38,-0.3906"/>
            <path id="path32" style="fill:#2a2b2d;fill-opacity:1;fill-rule:nonzero;stroke:none"
                    d="m 1669.07,61.9531 h -4.33 v 22.5508 h 4.33 z m 5.23,25.0586 h -8.53 l -1.74,-0.0586 -1.2,-0.3125 -0.82,-0.7343 -0.59,-1.3125 -3.23,0.957 c 0.3,1.043 0.71,1.8984 1.24,2.5625 l 1.87,1.5469 2.04,0.6015 2.43,0.1446 h 8.53 v -3.3946"/>
            <path id="path34" style="fill:#2a2b2d;fill-opacity:1;fill-rule:nonzero;stroke:none"
                    d="m 1705.03,56.9102 1.9,0.6992 1.13,1.332 0.39,2.1055 -0.78,0.2109 -1.24,0.3281 -1.58,0.418 -1.71,0.4649 -1.71,0.4531 -1.57,0.3906 -0.67,2.2383 -0.21,2.1328 c 0,1.3242 0.24,2.5742 0.73,3.7539 0.49,1.1758 1.18,2.207 2.09,3.082 0.9,0.875 2.01,1.5664 3.32,2.0821 1.31,0.5078 2.78,0.7617 4.42,0.7617 l 1.72,-0.1406 1.96,-0.4297 -1.09,-4.1836 -1.43,0.3594 -1.26,0.1132 -2.43,-0.375 -1.94,-1.0859 -1.31,-1.7422 -0.48,-2.332 v -0.2227 l 0.02,-0.2148 6.11,-1.5703 c 1.11,-0.2774 1.92,-0.75 2.42,-1.4141 0.49,-0.6719 0.75,-1.5 0.75,-2.4844 0,-1.6133 -0.18,-3 -0.55,-4.1679 -0.39,-1.168 -0.97,-2.1329 -1.8,-2.8946 -0.81,-0.7617 -1.88,-1.3203 -3.19,-1.6875 -1.29,-0.3633 -2.89,-0.5508 -4.75,-0.5508 h -3.67 c -0.96,0 -1.87,0.1133 -2.74,0.3321 l -2.46,0.9492 -2.1,1.4961 -1.7,1.9922 c -1.14,1.8594 -1.72,4.0351 -1.72,6.5351 l 0.16,2.2813 0.49,2.3242 0.87,2.4961 c 0.35,0.875 0.77,1.8125 1.25,2.8242 l 3.87,-1.8672 -1.04,-2.3554 -0.71,-2.0235 -0.42,-1.8281 -0.13,-1.7695 c 0,-1.6797 0.37,-3.1055 1.12,-4.2813 l 2.18,-2.0273 c 0.93,-0.4727 1.94,-0.7032 3.08,-0.7032 h 3.67 c 1.05,0 1.97,0.0665 2.74,0.1954"/>
            <path id="path36" style="fill:#2a2b2d;fill-opacity:1;fill-rule:nonzero;stroke:none"
                    d="m 1724.18,72.9219 c -0.99,0 -1.77,-0.3047 -2.36,-0.918 -0.57,-0.6211 -0.86,-1.5781 -0.86,-2.875 l 0.3,-1.3047 0.78,-0.8789 1.07,-0.5 1.18,-0.1562 h 2.69 v 2.3672 l -0.16,1.6992 -0.41,1.1758 -0.57,0.75 -0.63,0.414 -0.58,0.1875 z m -5.75,-15.9805 2.48,0.0899 1.93,0.2812 1.48,0.4727 1.1,0.6836 1.12,1.3789 0.44,2.1054 h -2.69 l -1.77,0.1367 -1.74,0.4805 -1.57,0.8789 -1.3,1.3321 -0.86,1.875 -0.33,2.4726 0.21,2.1328 0.53,1.6446 0.73,1.246 0.76,0.9336 2.37,1.6094 c 0.88,0.375 1.83,0.5664 2.86,0.5664 1.27,0 2.35,-0.2187 3.24,-0.6562 l 2.21,-1.8008 c 0.58,-0.7656 1,-1.6758 1.27,-2.7266 0.27,-1.0508 0.4,-2.1914 0.4,-3.4218 v -2.3672 h 2.95 v -4.336 h -2.97 c -0.04,-1.5898 -0.33,-2.9297 -0.84,-4.0234 -0.52,-1.0899 -1.29,-2.043 -2.31,-2.8555 l -1.74,-1.0859 -2.11,-0.7774 c -0.78,-0.207 -1.64,-0.3593 -2.6,-0.457 -0.96,-0.1055 -2.04,-0.1523 -3.25,-0.1523 v 4.3398"/>
            <path id="path38" style="fill:#2a2b2d;fill-opacity:1;fill-rule:nonzero;stroke:none"
                    d="m 1742.51,55.9766 3.14,3.1718 3.2,-3.2031 -3.17,-3.168 z m 14.49,12.9062 -0.56,-0.375 -1.26,-0.8242 0.53,-0.8125 0.75,-0.418 0.72,-0.1484 0.49,-0.0156 h 3.18 v -4.336 h -3.18 c -1.39,0.0157 -2.63,0.3164 -3.73,0.9141 -1.09,0.5976 -1.95,1.4922 -2.56,2.6914 -0.9,-0.4414 -1.86,-0.8789 -2.89,-1.3164 -1.04,-0.4336 -2.12,-0.8164 -3.24,-1.1563 -1.13,-0.3359 -2.29,-0.6093 -3.47,-0.8203 -1.19,-0.207 -2.37,-0.3125 -3.55,-0.3125 h -5.19 v 4.336 h 5.19 c 1.14,0 2.34,0.1132 3.64,0.3515 1.29,0.2305 2.55,0.5313 3.81,0.8946 1.25,0.3671 2.45,0.7773 3.58,1.2304 1.13,0.4532 2.12,0.8946 2.95,1.336 l -1.73,0.5312 -1.91,0.5781 -1.94,0.5547 -1.79,0.4766 -1.49,0.3359 -1.05,0.1172 -0.71,-0.0898 -0.54,-0.3164 -0.46,-0.5664 -0.43,-0.836 -3.99,1.2031 0.81,1.961 1.16,1.5898 1.6,1.0742 2.08,0.3907 1.29,-0.1953 1.89,-0.5039 2.27,-0.711 2.43,-0.8398 2.37,-0.8516 2.08,-0.7578 1.54,-0.5664 0.8,-0.2774 0.51,-3.5195"/>
            <path id="path40" style="fill:#2a2b2d;fill-opacity:1;fill-rule:nonzero;stroke:none"
                    d="m 1772.69,78.6328 -2.92,2.9649 2.89,2.9961 3,-2.9961 z m -7.29,-0.0156 -2.93,2.9609 2.87,3 3,-3 z m 13.26,-12.3281 v -4.336 h -2.57 c -0.99,0 -1.89,0.1328 -2.7,0.4024 l -2.06,1.1797 -2.3,-1.1954 c -0.9,-0.2578 -1.91,-0.3867 -3.04,-0.3867 h -6.03 v 4.336 h 6.03 l 1.69,0.2031 0.97,0.4922 0.41,0.664 0.09,0.7149 v 5.6406 h 4.32 v -5.5234 l 0.35,-1.2227 0.8,-0.664 0.87,-0.2618 0.6,-0.0429 h 2.57"/>
            <path id="path42" style="fill:#2a2b2d;fill-opacity:1;fill-rule:nonzero;stroke:none"
                    d="m 1777.9,66.2891 h 2.24 l 1.67,0.1757 0.99,0.5157 0.48,0.8242 0.13,1.1172 v 5.0664 h 4.33 v -4.9805 l 0.68,-2.0547 c 0.45,-0.4297 1.17,-0.6523 2.16,-0.664 h -0.02 l 0.64,0.1054 0.73,0.3594 0.6,0.7813 0.26,1.3867 v 5.0664 h 4.31 v -4.9805 c 0,-0.9531 0.23,-1.6406 0.68,-2.0742 0.45,-0.4258 1.2,-0.6445 2.21,-0.6445 l 0.84,0.1289 0.74,0.4375 0.53,0.7929 0.25,1.1993 v -0.0157 5.1563 h 4.33 V 68.832 l 0.83,-1.9414 c 0.51,-0.3984 1.31,-0.6015 2.39,-0.6015 h 1.71 v -4.336 h -1.71 c -1.19,0 -2.23,0.1328 -3.11,0.3907 l -2.28,1.2812 -2.09,-1.2461 -2.43,-0.4258 c -1.09,0 -2.04,0.1328 -2.86,0.4024 l -2.18,1.289 -2.04,-1.2382 -2.26,-0.4532 c -1.1,-0.0117 -2.06,0.1289 -2.89,0.4141 l -2.15,1.207 c -1.35,-1.082 -3.18,-1.6211 -5.47,-1.6211 h -2.24 v 4.336"/>
            <path id="path44" style="fill:#2a2b2d;fill-opacity:1;fill-rule:nonzero;stroke:none"
                    d="m 1819.68,55.9766 3.13,3.1718 3.21,-3.2031 -3.17,-3.168 z m 15.05,12.9062 -0.91,-0.6055 -2.13,-1.3164 c -0.88,-0.5156 -1.91,-1.0664 -3.1,-1.6484 -1.18,-0.5781 -2.46,-1.1172 -3.82,-1.6172 -1.37,-0.4961 -2.81,-0.914 -4.31,-1.2461 -1.5,-0.332 -3,-0.4961 -4.51,-0.4961 h -5.27 v 4.336 h 5.27 c 1.14,0 2.35,0.1132 3.64,0.3515 1.29,0.2305 2.56,0.5313 3.82,0.8946 1.25,0.3671 2.44,0.7773 3.57,1.2304 1.13,0.4532 2.12,0.8946 2.95,1.336 l -1.73,0.5312 -1.9,0.5781 -1.94,0.5547 -1.8,0.4766 -1.49,0.3359 -1.05,0.1172 -0.7,-0.0898 -0.54,-0.3164 -0.46,-0.5664 -0.44,-0.836 -3.98,1.2031 0.8,1.961 1.17,1.5898 1.6,1.0742 2.07,0.3907 1.28,-0.1953 1.91,-0.5039 2.27,-0.711 2.43,-0.8398 2.37,-0.8516 2.07,-0.7578 1.55,-0.5664 0.8,-0.2774 0.51,-3.5195"/>
            <path id="path46" style="fill:#f5f5f5;fill-opacity:1;fill-rule:nonzero;stroke:none"
                    d="m 1326.26,452.656 c 88.52,0 160.18,-71.66 160.18,-160.179 0,-88.52 -71.66,-160.18 -160.18,-160.18 -88.52,0 -160.18,71.66 -160.18,160.18 0,88.519 71.66,160.179 160.18,160.179"/>
            <path id="path48" style="fill:none;stroke:#2a2b2d;stroke-width:4.79899979;stroke-linecap:round;stroke-linejoin:round;stroke-miterlimit:2.61310005;stroke-dasharray:none;stroke-opacity:1"
                    d="m 1386.21,284.672 v -31.211 c 0,-1.301 -1.3,-3.898 -3.9,-3.898 h -10.41 c 0,9.101 -6.5,15.601 -15.6,15.601 -9.11,0 -15.61,-6.5 -15.61,-15.601 h -54.62 v 96.234 c 0,1.301 1.3,3.898 3.9,3.898 h 93.64 c 1.3,0 3.9,-1.3 3.9,-3.898 V 334.09"/>
            <path id="path50" style="fill:none;stroke:#2a2b2d;stroke-width:4.79899979;stroke-linecap:round;stroke-linejoin:round;stroke-miterlimit:2.61310005;stroke-dasharray:none;stroke-opacity:1"
                    d="m 1286.07,326.289 h -16.9 c -9.11,0 -16.91,-7.805 -16.91,-16.906 v -16.906 h 33.81 z"/>
            <path id="path52" style="fill:#FFBD2D;fill-opacity:1;fill-rule:nonzero;stroke:none"
                    d="m 1286.07,292.477 h -49.42 c -11.7,0 -20.8,-9.106 -20.8,-20.809 0,-11.703 9.1,-20.809 20.8,-20.809 h 5.21 c 0,9.106 6.5,15.61 15.6,15.61 9.1,0 15.61,-6.504 15.61,-15.61 h 13 v 41.618"/>
            <path id="path54" style="fill:none;stroke:#2a2b2d;stroke-width:4.79899979;stroke-linecap:round;stroke-linejoin:round;stroke-miterlimit:2.61310005;stroke-dasharray:none;stroke-opacity:1"
                    d="m 1286.07,292.477 h -49.42 c -11.7,0 -20.8,-9.106 -20.8,-20.809 0,-11.703 9.1,-20.809 20.8,-20.809 h 5.21 c 0,9.106 6.5,15.61 15.6,15.61 9.1,0 15.61,-6.504 15.61,-15.61 h 13 z"/>
            <path id="path56" style="fill:#78cc61;fill-opacity:1;fill-rule:nonzero;stroke:none"
                    d="m 1258.76,266.469 c 8.62,0 15.61,-6.989 15.61,-15.61 0,-8.617 -6.99,-15.601 -15.61,-15.601 -8.62,0 -15.6,6.984 -15.6,15.601 0,8.621 6.98,15.61 15.6,15.61"/>
            <path id="path58" style="fill:none;stroke:#2a2b2d;stroke-width:4.79899979;stroke-linecap:round;stroke-linejoin:round;stroke-miterlimit:2.61310005;stroke-dasharray:none;stroke-opacity:1"
                    d="m 1258.76,266.469 c 8.62,0 15.61,-6.989 15.61,-15.61 0,-8.617 -6.99,-15.601 -15.61,-15.601 -8.62,0 -15.6,6.984 -15.6,15.601 0,8.621 6.98,15.61 15.6,15.61 z"/>
            <path id="path60" style="fill:#78cc61;fill-opacity:1;fill-rule:nonzero;stroke:none"
                    d="m 1356.3,266.469 c 8.62,0 15.6,-6.989 15.6,-15.61 0,-8.617 -6.98,-15.601 -15.6,-15.601 -8.62,0 -15.61,6.984 -15.61,15.601 0,8.621 6.99,15.61 15.61,15.61"/>
            <path id="path62" style="fill:none;stroke:#2a2b2d;stroke-width:4.79899979;stroke-linecap:round;stroke-linejoin:round;stroke-miterlimit:2.61310005;stroke-dasharray:none;stroke-opacity:1"
                    d="m 1356.3,266.469 c 8.62,0 15.6,-6.989 15.6,-15.61 0,-8.617 -6.98,-15.601 -15.6,-15.601 -8.62,0 -15.61,6.984 -15.61,15.601 0,8.621 6.99,15.61 15.61,15.61 z"/>
            <path id="path64" style="fill:none;stroke:#2a2b2d;stroke-width:4.79899979;stroke-linecap:round;stroke-linejoin:round;stroke-miterlimit:2.61310005;stroke-dasharray:none;stroke-opacity:1"
                    d="m 1348.49,284.672 h 70.23"/>
            <path id="path66" style="fill:none;stroke:#2a2b2d;stroke-width:4.79899979;stroke-linecap:round;stroke-linejoin:round;stroke-miterlimit:2.61310005;stroke-dasharray:none;stroke-opacity:1"
                    d="m 1399.21,315.887 h -67.62"/>
            <path id="path68" style="fill:none;stroke:#2a2b2d;stroke-width:4.79899979;stroke-linecap:round;stroke-linejoin:round;stroke-miterlimit:2.61310005;stroke-dasharray:none;stroke-opacity:1"
                    d="m 1314.68,284.672 h 20.81"/>
            <path id="path70" style="fill:none;stroke:#2a2b2d;stroke-width:4.79899979;stroke-linecap:round;stroke-linejoin:round;stroke-miterlimit:2.61310005;stroke-dasharray:none;stroke-opacity:1"
                    d="m 1435.63,315.887 h -18.21"/>
            <path id="path72" style="fill:#2a2b2d;fill-opacity:1;fill-rule:nonzero;stroke:none"
                    d="m 1237.94,62.0352 c -1.09,0 -2.07,0.1523 -2.94,0.4531 l -2.25,1.289 -1.11,-0.8359 -1.2,-0.5312 -1.24,-0.2891 -1.19,-0.0859 -1.7,0.1406 -1.53,0.625 v -0.7305 c 0,-3.1914 -0.87,-5.5586 -2.59,-7.0859 -1.72,-1.5313 -4.29,-2.3008 -7.67,-2.3008 h -3.4 c -1.55,0 -2.98,0.2539 -4.28,0.7695 -1.31,0.5078 -2.42,1.2383 -3.36,2.1797 -0.94,0.9453 -1.68,2.0938 -2.21,3.4336 -0.52,1.3438 -0.79,2.8477 -0.79,4.5195 l 0.15,2.2969 0.46,2.3516 0.81,2.5156 c 0.33,0.875 0.73,1.8164 1.22,2.8164 l 3.9,-1.8984 -1.07,-2.3282 -0.78,-2.0351 -0.45,-1.8633 -0.14,-1.8008 0.47,-2.6054 1.35,-2.1094 2.07,-1.4102 c 0.8,-0.3437 1.69,-0.5078 2.65,-0.4922 h 3.4 c 1.23,0 2.23,0.1133 3,0.3399 l 1.81,0.9805 0.87,1.5859 0.24,2.1406 v 12 h 4.34 v -3.1328 c 0,-1 0.09,-1.8008 0.28,-2.4023 l 0.73,-1.3868 1.04,-0.6367 1.18,-0.1562 0.83,0.1289 0.88,0.4453 0.7,0.8437 0.28,1.3164 v 4.9805 h 4.32 v -5.1562 l 0.72,-1.9414 c 0.45,-0.4102 1.18,-0.6172 2.17,-0.6172 h -0.02 l 0.65,0.1133 0.79,0.3828 0.67,0.8164 0.28,1.4218 -0.15,1.461 -0.33,1.8203 -0.38,1.7383 -0.32,1.2148 4.1,1.2383 0.14,-0.543 0.27,-1.0703 0.31,-1.4101 0.3,-1.5664 0.22,-1.5508 0.09,-1.3321 c 0,-1.1835 -0.2,-2.2109 -0.59,-3.0937 l -1.51,-2.1914 -2.11,-1.3164 -2.38,-0.4531"/>
            <path id="path74" style="fill:#2a2b2d;fill-opacity:1;fill-rule:nonzero;stroke:none"
                    d="m 1259.37,62.0352 h -0.67 l -1.35,0.0859 -1.24,0.4883 c -0.14,-1.4961 -0.49,-2.8555 -1.03,-4.0742 -0.55,-1.2188 -1.27,-2.2579 -2.19,-3.1289 -0.9,-0.8633 -1.99,-1.5313 -3.26,-2.0079 -1.26,-0.4765 -2.68,-0.7148 -4.27,-0.7148 h -2.17 v 4.3398 h 2.17 c 1.12,0 2.08,0.1133 2.89,0.3438 l 2.01,1.1172 1.16,1.9922 c 0.26,0.8164 0.38,1.8164 0.38,2.9882 v 10.6055 h 4.35 v -5.207 l 0.34,-1.293 0.78,-0.7539 0.86,-0.3555 0.57,-0.0898 h 0.67 v -4.3359"/>
            <path id="path76" style="fill:#2a2b2d;fill-opacity:1;fill-rule:nonzero;stroke:none"
                    d="m 1267.91,56.3594 2.99,2.957 2.97,-2.9922 -2.97,-2.9609 z m -3.47,-4.8789 2.75,2.7539 2.79,-2.7852 -2.75,-2.7539 z m -3.8,4.914 2.97,2.961 2.95,-2.9961 -2.95,-2.961 z m 16.56,9.9766 v -4.3359 h -2.57 c -0.99,0 -1.88,0.1328 -2.7,0.4023 l -2.05,1.1836 -2.31,-1.1992 c -0.9,-0.2578 -1.9,-0.3867 -3.04,-0.3867 h -6.03 v 4.3359 h 6.03 l 1.69,0.2031 0.97,0.4922 0.41,0.6641 0.09,0.7148 v 5.6406 h 4.33 v -5.5234 l 0.35,-1.2227 0.79,-0.664 0.87,-0.2617 0.6,-0.043 h 2.57"/>
            <path id="path78" style="fill:#2a2b2d;fill-opacity:1;fill-rule:nonzero;stroke:none"
                    d="m 1276.44,66.3711 h 2.24 l 1.67,0.1758 0.99,0.5156 0.48,0.8242 0.13,1.1172 v 5.0664 h 4.33 v -4.9805 l 0.68,-2.0546 c 0.45,-0.4297 1.17,-0.6524 2.16,-0.6641 h -0.02 l 0.64,0.1055 0.73,0.3593 0.6,0.7813 0.26,1.3867 v 5.0664 h 4.31 v -4.9805 c 0,-0.9531 0.23,-1.6406 0.68,-2.0742 0.46,-0.4258 1.2,-0.6445 2.22,-0.6445 l 0.83,0.1289 0.74,0.4375 0.54,0.793 0.24,1.1992 v -0.0156 5.1562 h 4.34 v -5.1562 l 0.82,-1.9414 c 0.51,-0.3985 1.32,-0.6016 2.4,-0.6016 h 1.7 v -4.3359 h -1.7 c -1.2,0 -2.24,0.1328 -3.12,0.3906 l -2.28,1.2812 -2.09,-1.2461 -2.42,-0.4257 c -1.09,0 -2.05,0.1328 -2.86,0.4023 l -2.19,1.2891 -2.03,-1.2383 -2.27,-0.4531 c -1.1,-0.0118 -2.06,0.1289 -2.89,0.414 l -2.15,1.2071 c -1.35,-1.0821 -3.18,-1.6211 -5.47,-1.6211 h -2.24 v 4.3359"/>
            <path id="path80" style="fill:#2a2b2d;fill-opacity:1;fill-rule:nonzero;stroke:none"
                    d="m 1309.35,62.0352 v 4.3359 h 10.19 l 0.77,0.0273 0.96,0.1368 0.8,0.332 0.34,0.6016 -0.56,1.8125 -1.46,2.2617 -1.99,2.4297 -2.19,2.3164 -2.05,1.9218 -1.54,1.2579 0.35,3.9335 15.15,6.9336 1.59,-3.7968 -12.74,-5.625 1.48,-1.461 1.7,-1.7343 1.74,-1.8985 1.61,-1.9648 1.35,-1.9258 0.93,-1.7813 0.42,-1.4101 0.11,-1.2344 -0.12,-1.2187 -0.29,-0.8907 -0.65,-1.0586 -1.2,-1.0976 -1.96,-0.8516 c -0.78,-0.2344 -1.73,-0.3515 -2.85,-0.3515 h -9.89"/>
            <path id="path82" style="fill:#2a2b2d;fill-opacity:1;fill-rule:nonzero;stroke:none"
                    d="m 1337.05,62.0352 h -4.35 v 25.1132 h 4.35 V 62.0352"/>
            <path id="path84" style="fill:#2a2b2d;fill-opacity:1;fill-rule:nonzero;stroke:none"
                    d="m 1362.53,52.4063 -2.37,0.2773 -2.13,0.8203 -1.82,1.2969 -1.47,1.7344 -0.53,0.9804 -0.48,1.2813 -0.35,1.5859 -0.14,1.8985 0.09,1.75 0.33,1.9023 0.65,2.1875 c 0.29,0.7812 0.66,1.6562 1.13,2.6211 l 3.92,-1.8633 -0.88,-1.9766 -0.55,-1.6875 -0.3,-1.5078 -0.08,-1.4453 0.21,-1.8515 0.65,-1.5586 -0.01,0.0117 1.77,-1.5313 2.36,-0.5937 h 0.8 c 1.21,0 2.21,0.1289 2.98,0.3867 l 1.81,1.082 0.89,1.6875 0.24,2.211 v 25.0429 h 4.28 V 68.7227 l 0.26,-0.9766 0.64,-0.7422 0.92,-0.4687 1.02,-0.1641 h 0.92 v -4.3359 h -0.92 l -1.02,0.0468 -0.72,0.1446 -0.57,0.2695 -0.53,0.4062 v -0.7968 c 0,-6.4414 -3.4,-9.6758 -10.2,-9.6992 h -0.8"/>
            <path id="path86" style="fill:#2a2b2d;fill-opacity:1;fill-rule:nonzero;stroke:none"
                    d="m 1387.39,52.5625 -2.92,2.957 2.89,3 2.99,-3 z m -7.3,-0.0156 -2.92,2.957 2.87,2.9961 3,-2.9961 z m 9.41,24.1172 0.14,-0.5782 0.26,-1.1015 0.29,-1.4531 0.28,-1.6133 0.2,-1.5742 0.09,-1.3399 c 0,-1.1953 -0.2,-2.2344 -0.6,-3.1094 l -1.55,-2.1679 -2.15,-1.2774 -2.39,-0.414 h -7.51 v 4.3359 h 7.63 l 0.6,0.0625 0.78,0.3203 0.69,0.793 0.3,1.457 -0.07,0.9297 -0.16,1.1719 -0.24,1.2812 -0.24,1.2422 -0.25,1.0586 -0.2,0.7422 4.1,1.2344"/>
            <path id="path88" style="fill:#2a2b2d;fill-opacity:1;fill-rule:nonzero;stroke:none"
                    d="m 1401.75,73.0039 c -0.99,0 -1.77,-0.3008 -2.36,-0.9219 -0.58,-0.6132 -0.87,-1.5742 -0.87,-2.8672 l 0.3,-1.3085 0.79,-0.879 1.07,-0.5 1.18,-0.1562 h 2.69 v 2.3672 l -0.16,1.6992 -0.41,1.1797 -0.58,0.7461 -0.62,0.414 -0.58,0.1875 z m -5.76,-15.9805 2.48,0.0938 1.94,0.2773 1.48,0.4727 1.1,0.6836 1.11,1.3789 0.45,2.1055 h -2.69 l -1.77,0.1406 -1.74,0.4765 -1.57,0.879 -1.3,1.332 -0.87,1.875 -0.33,2.4765 0.22,2.129 0.53,1.6445 0.73,1.2461 0.76,0.9297 2.37,1.6132 c 0.88,0.375 1.83,0.5665 2.86,0.5665 1.26,0 2.34,-0.2149 3.24,-0.6563 l 2.21,-1.8008 c 0.58,-0.7656 1,-1.6758 1.27,-2.7265 0.26,-1.0469 0.4,-2.1914 0.4,-3.4219 v -2.3672 h 2.95 v -4.3359 h -2.97 c -0.04,-1.5899 -0.33,-2.9297 -0.85,-4.0235 -0.51,-1.0898 -1.28,-2.0429 -2.3,-2.8554 l -1.74,-1.086 -2.11,-0.7773 c -0.78,-0.2071 -1.65,-0.3594 -2.6,-0.461 -0.96,-0.1015 -2.04,-0.1484 -3.26,-0.1484 v 4.3398"/>
            <path id="path90" style="fill:#2a2b2d;fill-opacity:1;fill-rule:nonzero;stroke:none"
                    d="m 1434.56,68.9648 -0.55,-0.375 -1.27,-0.8242 0.54,-0.8125 0.75,-0.4179 0.72,-0.1485 0.48,-0.0156 h 3.18 v -4.3359 h -3.18 c -1.39,0.0156 -2.62,0.3203 -3.72,0.914 -1.09,0.5977 -1.96,1.4922 -2.56,2.6914 -0.9,-0.4414 -1.87,-0.8789 -2.9,-1.3164 -1.04,-0.4336 -2.12,-0.8164 -3.24,-1.1562 -1.12,-0.336 -2.28,-0.6094 -3.47,-0.8203 -1.18,-0.2032 -2.36,-0.3125 -3.55,-0.3125 h -5.18 v 4.3359 h 5.18 c 1.15,0 2.35,0.1133 3.65,0.3516 1.28,0.2304 2.55,0.5312 3.8,0.8945 1.26,0.3672 2.45,0.7773 3.59,1.2305 1.13,0.4531 2.12,0.8945 2.95,1.3359 l -1.73,0.5312 -1.91,0.5782 -1.94,0.5547 -1.79,0.4765 -1.49,0.336 -1.05,0.1171 -0.71,-0.0898 -0.55,-0.3164 -0.45,-0.5664 -0.43,-0.8359 -3.99,1.2031 0.81,1.9609 1.16,1.5899 1.6,1.0742 2.08,0.3906 1.28,-0.1953 1.9,-0.5039 2.27,-0.711 2.43,-0.8359 2.37,-0.8555 2.07,-0.7578 1.55,-0.5664 0.8,-0.2773 0.5,-3.5196"/>
            <path id="path92" style="fill:#2a2b2d;fill-opacity:1;fill-rule:nonzero;stroke:none"
                    d="m 1448.77,80.0586 -2.93,2.9609 2.9,3 2.99,-3 z m -7.3,-0.0156 -2.92,2.9609 2.87,2.9922 2.99,-2.9922 z m 9.03,-3.3789 0.14,-0.5782 0.26,-1.1015 0.28,-1.4531 0.28,-1.6133 0.21,-1.5742 0.08,-1.3399 c 0,-1.1953 -0.19,-2.2344 -0.6,-3.1094 l -1.54,-2.1679 -2.15,-1.2774 -2.4,-0.414 h -7.5 v 4.3359 h 7.63 l 0.59,0.0625 0.78,0.3203 0.69,0.793 0.3,1.457 -0.06,0.9297 -0.16,1.1719 -0.24,1.2812 -0.25,1.2422 -0.24,1.0586 -0.2,0.7422 4.1,1.2344"/>
            <path id="path94" style="fill:#f5f5f5;fill-opacity:1;fill-rule:nonzero;stroke:none"
                    d="m 937.395,452.656 c 88.515,0 160.175,-71.66 160.175,-160.179 0,-88.52 -71.66,-160.18 -160.175,-160.18 -88.524,0 -160.18,71.66 -160.18,160.18 0,88.519 71.656,160.179 160.18,160.179"/>
            <path id="path96" style="fill:#f5f5f5;fill-opacity:1;fill-rule:nonzero;stroke:none"
                    d="m 937.395,452.656 c 88.515,0 160.175,-71.66 160.175,-160.179 0,-88.52 -71.66,-160.18 -160.175,-160.18 -88.524,0 -160.18,71.66 -160.18,160.18 0,88.519 71.656,160.179 160.18,160.179"/>
            <path id="path98" style="fill:#ffffff;fill-opacity:1;fill-rule:nonzero;stroke:none"
                    d="M 885.605,371.512 H 988.191 V 227.496 H 885.605 v 144.016"/>
            <path id="path100" style="fill:#78cc61;fill-opacity:1;fill-rule:nonzero;stroke:none"
                    d="m 922.102,233.414 v -31.566 l 15.785,10.851 14.797,-10.851 v 31.566 l -6.907,1.973 -7.89,-8.879 -8.879,8.879 -6.906,-1.973"/>
            <path id="path102" style="fill:none;stroke:#2a2b2d;stroke-width:4.79899979;stroke-linecap:butt;stroke-linejoin:round;stroke-miterlimit:2.61310005;stroke-dasharray:none;stroke-opacity:1"
                    d="m 922.102,233.414 v -31.566 l 15.785,10.851 14.797,-10.851 v 31.566 l -6.907,1.973 -7.89,-8.879 -8.879,8.879 z"/>
            <path id="path104" style="fill:none;stroke:#2a2b2d;stroke-width:4.79899979;stroke-linecap:round;stroke-linejoin:round;stroke-miterlimit:2.61310005;stroke-dasharray:none;stroke-opacity:1"
                    d="M 913.227,227.496 H 885.605 V 371.512 H 988.191 V 227.496 m -26.632,0 H 989.18 V 371.512 H 885.605 V 227.496"/>
            <path id="path106" style="fill:#FFBD2D;fill-opacity:1;fill-rule:nonzero;stroke:none"
                    d="m 902.375,360.66 h 71.023 c 0.985,0 0.985,0 0.985,-0.984 v -2.961 c 0,-0.985 0,-0.985 -0.985,-0.985 h -71.023 c -0.988,0 -0.988,0 -0.988,0.985 v 2.961 c 0,0 0,0.984 0.988,0.984"/>
            <path id="path108" style="fill:#FFBD2D;fill-opacity:1;fill-rule:nonzero;stroke:none"
                    d="m 902.375,350.797 h 71.023 c 0.985,0 0.985,0 0.985,-0.984 v -2.961 c 0,-0.989 0,-0.989 -0.985,-0.989 h -71.023 c -0.988,0 -0.988,0 -0.988,0.989 v 2.961 c 0,0 0,0.984 0.988,0.984"/>
            <path id="path110" style="fill:#FFBD2D;fill-opacity:1;fill-rule:nonzero;stroke:none"
                    d="m 902.375,339.945 h 71.023 c 0.985,0 0.985,0 0.985,-0.984 V 336 c 0,-0.984 0,-0.984 -0.985,-0.984 h -71.023 c -0.988,0 -0.988,0 -0.988,0.984 v 2.961 c 0,0.984 0,0.984 0.988,0.984"/>
            <path id="path112" style="fill:#FFBD2D;fill-opacity:1;fill-rule:nonzero;stroke:none"
                    d="m 902.375,330.082 h 71.023 c 0.985,0 0.985,0 0.985,-0.984 v -2.961 c 0,-0.985 0,-0.985 -0.985,-0.985 h -71.023 c -0.988,0 -0.988,0 -0.988,0.985 v 2.961 c 0,0.984 0,0.984 0.988,0.984"/>
            <path id="path114" style="fill:#eff2f1;fill-opacity:1;fill-rule:nonzero;stroke:none"
                    d="m 937.887,304.438 7.89,-7.895 10.852,2.961 2.957,-11.836 11.84,-2.961 -2.961,-10.852 7.89,-7.89 -7.89,-8.875 2.961,-10.852 -11.84,-2.961 -2.957,-10.851 -10.852,2.961 -7.89,-8.879 -8.879,8.879 -10.852,-2.961 -2.957,10.851 -11.84,2.961 2.961,10.852 -7.89,8.875 7.89,7.89 -2.961,10.852 11.84,2.961 2.957,11.836 10.852,-2.961 8.879,7.895"/>
            <path id="path116" style="fill:none;stroke:#2a2b2d;stroke-width:4.79899979;stroke-linecap:round;stroke-linejoin:round;stroke-miterlimit:2.61310005;stroke-dasharray:none;stroke-opacity:1"
                    d="m 937.887,304.438 7.89,-7.895 10.852,2.961 2.957,-11.836 11.84,-2.961 -2.961,-10.852 7.89,-7.89 -7.89,-8.875 2.961,-10.852 -11.84,-2.961 -2.957,-10.851 -10.852,2.961 -7.89,-8.879 -8.879,8.879 -10.852,-2.961 -2.957,10.851 -11.84,2.961 2.961,10.852 -7.89,8.875 7.89,7.89 -2.961,10.852 11.84,2.961 2.957,11.836 10.852,-2.961 z"/>
            <path id="path118" style="fill:#FFBD2D;fill-opacity:1;fill-rule:nonzero;stroke:none"
                    d="m 902.375,320.219 h 71.023 c 0.985,0 0.985,0 0.985,-0.989 v -2.957 c 0,-0.988 0,-0.988 -0.985,-0.988 h -71.023 c -0.988,0 -0.988,0 -0.988,0.988 v 2.957 c 0,0.989 0,0.989 0.988,0.989"/>
            <path id="path120" style="fill:none;stroke:#2a2b2d;stroke-width:4.79899979;stroke-linecap:round;stroke-linejoin:miter;stroke-miterlimit:2.61310005;stroke-dasharray:none;stroke-opacity:1"
                    d="m 937.887,288.652 c 12.824,0 22.687,-9.863 22.687,-22.687 0,-12.824 -9.863,-22.688 -22.687,-22.688 -12.824,0 -22.688,9.864 -22.688,22.688"/>
            <path id="path122" style="fill:none;stroke:#2a2b2d;stroke-width:4.79899979;stroke-linecap:round;stroke-linejoin:miter;stroke-miterlimit:2.61310005;stroke-dasharray:none;stroke-opacity:1"
                    d="m 915.199,271.883 c 1.973,7.89 7.891,13.812 15.781,15.785"/>
            <path id="path124" style="fill:#2a2b2d;fill-opacity:1;fill-rule:nonzero;stroke:none"
                    d="m 842.059,75.5352 -2.922,2.9609 2.89,3 2.996,-3 z m -7.297,-0.0157 -2.922,2.961 2.871,2.9961 2.992,-2.9961 z m 20.746,-1.4453 v -5.1015 l 0.187,-1.0352 0.461,-0.7148 0.641,-0.4532 0.68,-0.2539 0.586,-0.1133 0.371,-0.0234 h 1.078 v -4.3398 h -1.078 l -1.266,0.0781 -1.34,0.2617 -1.297,0.5 -1.109,0.7656 c -1.27,-1.0586 -2.988,-1.5898 -5.156,-1.6054 h -20.102 l -2.437,0.4375 -2.039,1.2695 -0.719,0.8047 -0.668,1.1094 -0.496,1.457 -0.184,1.8164 0.176,1.8945 0.391,1.9258 0.41,1.5625 0.238,0.8203 2.078,-0.6601 2.047,-0.6485 -0.328,-1.1211 -0.328,-1.3476 -0.258,-1.3438 -0.113,-1.1133 0.234,-1.3515 0.578,-0.7813 0.738,-0.3554 0.711,-0.0899 h 19.946 l 1.636,0.1836 1.008,0.5313 0.403,1.3047 v 5.7304 h 4.32"/>
            <path id="path126" style="fill:#2a2b2d;fill-opacity:1;fill-rule:nonzero;stroke:none"
                    d="m 870.574,52.4648 -2.933,2.9571 2.894,2.9961 2.992,-2.9961 z m -7.297,-0.0234 -2.929,2.9649 2.879,2.996 2.996,-2.996 z m 14.379,13.9375 v -4.3398 h -2.574 c -0.988,0 -1.883,0.1367 -2.695,0.4023 l -2.059,1.1836 -2.305,-1.1992 c -0.894,-0.2578 -1.906,-0.3867 -3.035,-0.3867 h -6.031 v 4.3398 h 6.031 l 1.688,0.1992 0.965,0.4922 0.414,0.6641 0.09,0.7148 v 5.6406 h 4.324 v -5.5195 l 0.351,-1.2265 0.789,-0.6641 0.875,-0.2617 0.598,-0.0391 h 2.574"/>
            <path id="path128" style="fill:#2a2b2d;fill-opacity:1;fill-rule:nonzero;stroke:none"
                    d="m 883.828,70.4688 0.875,-2.1055 2.266,-1.4102 1.215,0.5938 0.968,0.7539 0.649,0.9726 0.222,1.2305 -0.203,0.8711 -0.586,0.8281 -0.925,0.6172 -1.227,0.2461 -1.367,-0.2187 -1.031,-0.5743 -0.637,-0.8281 z m -0.051,14.3007 3.141,3.168 3.199,-3.207 -3.168,-3.168 z m 3.305,-7.3711 c 1.082,0 2.047,-0.1953 2.902,-0.5898 l 2.172,-1.5586 1.36,-2.2031 0.472,-2.543 -0.093,-1.2812 -0.266,-1.0079 -0.445,-0.8906 -0.606,-0.9101 0.68,-0.0274 0.75,-0.0078 h 0.722 0.618 1.242 v -4.3398 h -1.242 l -2.278,0.0742 -2.261,0.1992 -2.102,0.3125 -1.777,0.4063 c -1.051,-0.3008 -2.235,-0.5391 -3.551,-0.7188 -1.309,-0.1797 -2.813,-0.2734 -4.5,-0.2734 h -1.82 v 4.3398 h 1.82 l 0.754,-0.0117 0.504,-0.0039 0.472,0.0039 0.606,0.0469 -1.11,1.9297 -0.382,2.1601 0.578,2.6289 1.574,2.2031 2.336,1.5079 c 0.894,0.371 1.852,0.5546 2.871,0.5546"/>
            <path id="path130" style="fill:#2a2b2d;fill-opacity:1;fill-rule:nonzero;stroke:none"
                    d="m 907.633,52.4648 -2.934,2.9571 2.895,2.9961 2.992,-2.9961 z m -7.297,-0.0234 -2.934,2.9649 2.883,2.996 2.996,-2.996 z m 14.379,13.9375 v -4.3398 h -2.574 c -0.989,0 -1.883,0.1367 -2.696,0.4023 l -2.058,1.1836 -2.305,-1.1992 c -0.894,-0.2578 -1.902,-0.3867 -3.035,-0.3867 h -6.031 v 4.3398 h 6.031 l 1.687,0.1992 0.965,0.4922 0.414,0.6641 0.09,0.7148 v 5.6406 h 4.324 v -5.5195 l 0.352,-1.2265 0.793,-0.6641 0.871,-0.2617 0.598,-0.0391 h 2.574"/>
            <path id="path132" style="fill:#2a2b2d;fill-opacity:1;fill-rule:nonzero;stroke:none"
                    d="m 914.188,62.0391 v 4.3398 h 10.191 l 0.769,0.0234 0.957,0.1407 0.805,0.3281 0.34,0.6016 -0.566,1.8125 -1.454,2.2656 -1.996,2.4258 -2.191,2.3164 -2.047,1.9258 -1.535,1.2539 0.352,3.9375 15.148,6.9296 1.586,-3.7968 -12.742,-5.625 1.48,-1.461 1.699,-1.7343 1.739,-1.8985 1.617,-1.9648 1.348,-1.9258 0.925,-1.7813 0.422,-1.4062 0.113,-1.2344 -0.125,-1.2226 -0.285,-0.8907 -0.648,-1.0586 -1.203,-1.0976 -1.957,-0.8516 c -0.782,-0.2343 -1.731,-0.3515 -2.852,-0.3515 h -9.89"/>
            <path id="path134" style="fill:#2a2b2d;fill-opacity:1;fill-rule:nonzero;stroke:none"
                    d="m 948.941,75.3828 3.141,3.168 3.199,-3.2031 -3.168,-3.1719 z m 0.372,-22.7109 -2.684,0.332 -2.43,0.9375 -2.109,1.5 -1.68,2.0039 c -0.555,0.9063 -0.988,1.9141 -1.285,3.0195 -0.309,1.1055 -0.453,2.2657 -0.453,3.4727 l 0.133,2.2305 0.441,2.2109 0.805,2.3672 c 0.328,0.8281 0.73,1.7344 1.215,2.7187 l 3.91,-1.8632 -1.039,-2.2813 -0.68,-1.9101 -0.371,-1.7227 -0.113,-1.7305 0.289,-2.2734 0.824,-1.9609 2.199,-1.9766 c 0.906,-0.4922 1.914,-0.7383 3.028,-0.7383 h 3.531 c 1.234,0 2.23,0.1289 3.004,0.3867 l 1.8,1.086 0.887,1.6953 0.227,2.1992 v 11.7148 h 4.34 v -5.4335 l 0.753,-1.711 1.872,-0.5664 h 1.402 v -4.3398 h -1.402 l -1.348,0.125 -1.277,0.3476 V 62.375 c 0,-3.2422 -0.852,-5.6641 -2.571,-7.2812 -1.711,-1.6172 -4.273,-2.4219 -7.687,-2.4219 h -3.531"/>
            <path id="path136" style="fill:#2a2b2d;fill-opacity:1;fill-rule:nonzero;stroke:none"
                    d="m 978.18,52.4648 -2.934,2.9571 2.891,2.9961 2.996,-2.9961 z m -7.297,-0.0234 -2.934,2.9649 2.883,2.996 2.992,-2.996 z m 14.379,13.9375 v -4.3398 h -2.574 c -0.989,0 -1.883,0.1367 -2.696,0.4023 l -2.058,1.1836 -2.305,-1.1992 c -0.899,-0.2578 -1.906,-0.3867 -3.039,-0.3867 h -6.027 v 4.3398 h 6.027 l 1.687,0.1992 0.969,0.4922 0.41,0.6641 0.094,0.7148 v 5.6406 h 4.324 v -5.5195 l 0.348,-1.2265 0.793,-0.6641 0.875,-0.2617 0.598,-0.0391 h 2.574"/>
            <path id="path138" style="fill:#2a2b2d;fill-opacity:1;fill-rule:nonzero;stroke:none"
                    d="m 997.453,65.332 0.496,0.0625 0.688,0.3711 0.621,0.9688 0.265,1.8359 -0.164,1.1563 -0.578,1.3789 -1.101,1.1484 -1.727,0.4766 -1.484,-0.5391 -0.965,-1.3359 -0.66,-1.7344 -0.586,-1.6992 1.371,-0.7422 1.418,-0.668 1.316,-0.4883 z m -1.5,11.7227 c 1.192,0 2.235,-0.2149 3.129,-0.6484 l 2.228,-1.7383 c 0.61,-0.7305 1.06,-1.5821 1.37,-2.543 0.31,-0.9687 0.48,-1.9766 0.5,-3.0312 l 0.38,-1.5235 0.87,-0.8125 0.96,-0.3203 0.65,-0.0586 h 0.48 v -4.3398 h -0.48 l -2.28,0.3593 -1.89,0.9141 -1.14,-1.1602 -1.257,-0.6328 -1.203,-0.2617 -0.989,-0.0508 -1.656,0.1641 -1.598,0.4687 -1.675,0.75 -1.907,1 -1.675,-1.1914 -2.098,-0.3593 h -2.145 l -0.031,4.3398 h 2.176 l 0.668,0.2266 0.523,0.6328 0.434,0.9922 0.41,1.3008 0.836,2.582 1.297,2.4297 2.047,1.8086 c 0.824,0.4648 1.851,0.7031 3.066,0.7031"/>
            <path id="path140" style="fill:#2a2b2d;fill-opacity:1;fill-rule:nonzero;stroke:none"
                    d="m 1025.78,83.9492 3.12,3.168 3.22,-3.2031 -3.17,-3.1719 z m 3.17,-10.9883 -2.13,-0.5429 -2.12,-1.4492 -2.02,-2.1016 -1.77,-2.4883 h 7.82 l 1.35,0.2109 1.22,0.6172 0.89,1.0078 0.34,1.3672 -0.3,1.6289 -0.79,1.043 -1.14,0.5508 z m -11.82,-5.4687 1.47,2.3242 1.63,2.2578 1.81,2.0352 2.04,1.6523 2.28,1.1055 2.59,0.4141 2.67,-0.375 2.37,-1.2657 c 0.7,-0.5937 1.26,-1.3789 1.69,-2.3672 0.43,-0.9882 0.64,-2.2187 0.64,-3.6914 l -0.16,-1.7343 -0.44,-1.4688 h 3.63 v -4.3398 h -20.58 l -1.39,0.1132 -1.51,0.3243 -1.45,0.5039 -1.15,0.664 -2.26,-1.2031 c -0.87,-0.2422 -1.86,-0.375 -3,-0.4023 h -2.71 v 4.3398 h 2.59 l 1.69,0.1875 0.94,0.5 0.44,0.6602 0.1,0.7031 v 5.6445 h 4.31 v -5.5039 l 0.13,-0.6094 0.31,-0.5273 0.44,-0.3867 0.5,-0.1797 0.38,0.625"/>
            <path id="path142" style="fill:#2a2b2d;fill-opacity:1;fill-rule:nonzero;stroke:none"
                    d="m 1049.89,80.0664 -2.92,2.957 2.89,3 2.99,-3 z m -7.3,-0.0156 -2.92,2.957 2.87,2.9961 3,-2.9961 z m 9.03,-3.3828 0.14,-0.5742 0.26,-1.1016 0.29,-1.457 0.27,-1.6094 0.21,-1.5742 0.08,-1.3438 c 0,-1.1953 -0.19,-2.2344 -0.59,-3.1094 l -1.55,-2.164 -2.15,-1.2774 -2.4,-0.4179 h -7.5 v 4.3398 h 7.63 l 0.59,0.0586 0.79,0.3203 0.69,0.793 0.29,1.457 -0.06,0.9297 -0.16,1.1758 -0.24,1.2812 -0.25,1.2383 -0.24,1.0586 -0.2,0.7422 4.1,1.2344"/>
            <path id="path144" style="fill:#2a2b2d;fill-opacity:1;fill-rule:nonzero;stroke:none"
                    d="m 841.039,16.5586 -1.133,17.2266 4.305,0.5039 1.152,-17.7305 z m -2.09,-7.21094 v 4.33984 h 7.473 c 1.348,0 2.43,0.1133 3.254,0.3398 l 1.922,1.1211 0.906,2.0743 c 0.144,0.8593 0.226,1.9179 0.226,3.1836 v 14.0585 h 4.313 V 20.4063 l -0.074,-2.1055 -0.297,-2.1328 -0.629,-2.0391 -1.051,-1.8008 c -0.851,-0.9883 -1.972,-1.7304 -3.383,-2.2265 -1.398,-0.50004 -3.129,-0.75394 -5.187,-0.75394 h -7.473"/>
            <path id="path146" style="fill:#2a2b2d;fill-opacity:1;fill-rule:nonzero;stroke:none"
                    d="m 870.258,9.34766 c -1.278,0 -2.367,0.07812 -3.285,0.23828 l -2.317,0.69536 -1.511,1.1757 -0.864,1.6758 -0.39,2.1641 c -0.063,0.8086 -0.094,1.6992 -0.094,2.6758 v 16.4921 h 4.332 V 17.9727 l 0.101,-2.2344 0.508,-1.2969 1.235,-0.6055 c 0.554,-0.0976 1.316,-0.1484 2.285,-0.1484 V 9.34766"/>
            <path id="path148" style="fill:#2a2b2d;fill-opacity:1;fill-rule:nonzero;stroke:none"
                    d="m 869.496,9.34766 v 4.33984 h 10.188 l 0.769,0.0273 0.957,0.1368 0.805,0.3281 0.34,0.6016 -0.567,1.8125 -1.453,2.2656 -1.996,2.4258 -2.191,2.3164 -2.047,1.9257 -1.535,1.254 0.351,3.9375 15.149,6.9296 1.586,-3.7968 -12.743,-5.625 1.485,-1.461 1.695,-1.7343 1.738,-1.8985 1.618,-1.9648 1.347,-1.9258 0.926,-1.7774 0.422,-1.4101 0.113,-1.2344 -0.121,-1.2226 -0.289,-0.8907 -0.648,-1.0586 -1.204,-1.0937 -1.957,-0.85548 c -0.781,-0.23047 -1.726,-0.35156 -2.851,-0.35156 h -9.887"/>
            <path id="path150" style="fill:#2a2b2d;fill-opacity:1;fill-rule:nonzero;stroke:none"
                    d="m 920.734,22.8477 -2.921,2.957 2.89,3 2.996,-3 z m -7.296,-0.0157 -2.922,2.9571 2.871,2.9961 2.996,-2.9961 z m 20.746,-1.4453 v -5.1054 l 0.187,-1.0352 0.461,-0.7148 0.641,-0.4532 0.675,-0.2539 0.59,-0.1094 0.367,-0.0273 h 1.083 V 9.34766 h -1.083 l -1.261,0.07812 -1.34,0.26172 -1.297,0.5 -1.109,0.7656 c -1.27,-1.05857 -2.989,-1.58982 -5.157,-1.60544 H 906.84 l -2.438,0.4375 -2.039,1.27344 -0.718,0.8008 -0.668,1.1133 -0.497,1.457 -0.183,1.8125 0.176,1.8945 0.39,1.9258 0.41,1.5625 0.239,0.8203 2.078,-0.6601 2.047,-0.6485 -0.328,-1.1211 -0.332,-1.3476 -0.254,-1.3438 -0.114,-1.1094 0.235,-1.3554 0.578,-0.7813 0.738,-0.3554 0.711,-0.086 h 19.945 l 1.637,0.1797 1.008,0.5352 0.402,1.3007 v 5.7344 h 4.321"/>
            <path id="path152" style="fill:#2a2b2d;fill-opacity:1;fill-rule:nonzero;stroke:none"
                    d="m 937.273,13.6875 c 1.161,0 2.067,0.0664 2.727,0.2109 l 1.391,0.6055 0.398,0.7578 0.137,1.3828 v 17.8203 h 4.32 V 16.6445 l -0.062,-1.3047 -0.258,-1.375 -0.555,-1.3671 -0.976,-1.2618 -1.215,-0.8828 -1.543,-0.61326 -1.946,-0.36718 -2.418,-0.125 v 4.33984"/>
            <path id="path154" style="fill:#2a2b2d;fill-opacity:1;fill-rule:nonzero;stroke:none"
                    d="m 958.625,9.34766 c -1.273,0 -2.367,0.07812 -3.281,0.23828 l -2.317,0.69536 -1.511,1.1757 -0.864,1.6758 -0.39,2.1641 c -0.063,0.8086 -0.094,1.6992 -0.094,2.6758 V 34.4648 H 954.5 V 17.9727 l 0.102,-2.2344 0.503,-1.2969 1.239,-0.6055 c 0.554,-0.0976 1.316,-0.1484 2.281,-0.1484 V 9.34766"/>
            <path id="path156" style="fill:#2a2b2d;fill-opacity:1;fill-rule:nonzero;stroke:none"
                    d="m 981.051,20.2539 -2.11,-0.543 -2.097,-1.4453 -2,-2.0898 -1.758,-2.4883 h 7.75 l 1.324,0.1641 1.238,0.539 0.926,0.9844 0.36,1.5195 -0.297,1.625 -0.817,1.0352 -1.16,0.5391 z M 957.484,9.34766 v 4.33984 h 2.512 l 1.688,0.1914 0.945,0.5039 0.434,0.7031 0.101,0.793 v 5.5078 h 4.313 v -5.5078 l 0.125,-0.6055 0.316,-0.5312 0.434,-0.3867 0.503,-0.1797 0.383,0.6289 1.469,2.3125 1.629,2.2539 1.809,2.0391 2.039,1.6523 2.285,1.1055 2.582,0.4023 2.695,-0.375 2.399,-1.2617 c 0.699,-0.5898 1.265,-1.3789 1.699,-2.3633 0.441,-0.9765 0.66,-2.207 0.66,-3.6758 0,-1.3984 -0.238,-2.5742 -0.711,-3.5312 -0.465,-0.957 -1.07,-1.7305 -1.813,-2.3203 L 983.512,9.75 980.836,9.34766 h -9.961 L 969.484,9.375 967.949,9.55078 966.5,10.0117 965.316,10.918 C 964.059,9.91016 962.32,9.38672 960.117,9.34766 h -2.633"/>
            <path id="path158" style="fill:#2a2b2d;fill-opacity:1;fill-rule:nonzero;stroke:none"
                    d="m 995.797,9.34766 h -4.344 V 34.4648 h 4.344 V 9.34766"/>
            <path id="path160" style="fill:#2a2b2d;fill-opacity:1;fill-rule:nonzero;stroke:none"
                    d="m 1016.4,20.3203 c -0.99,0 -1.77,-0.3047 -2.36,-0.9219 -0.57,-0.6171 -0.86,-1.5742 -0.86,-2.8711 l 0.3,-1.3085 0.78,-0.879 1.07,-0.5 1.18,-0.1523 h 2.69 v 2.3672 l -0.15,1.6992 -0.42,1.1758 -0.57,0.7461 -0.63,0.418 -0.58,0.1835 z m -5.75,-15.98436 2.48,0.09375 1.93,0.27734 1.48,0.47266 1.11,0.6875 1.11,1.3789 0.44,2.10157 h -2.69 l -1.77,0.14062 -1.74,0.48047 -1.57,0.87895 -1.3,1.332 -0.86,1.8711 -0.33,2.4765 0.22,2.129 0.52,1.6484 0.73,1.2461 0.76,0.9297 2.37,1.6093 c 0.88,0.379 1.83,0.5665 2.86,0.5665 1.27,0 2.35,-0.2149 3.24,-0.6524 l 2.22,-1.8008 c 0.57,-0.7656 0.99,-1.6797 1.26,-2.7265 0.27,-1.0508 0.4,-2.1914 0.4,-3.4219 V 9.875 c 0,-1.73047 -0.27,-3.1875 -0.78,-4.36328 -0.52,-1.17969 -1.32,-2.19531 -2.39,-3.04297 l -1.74,-1.08594 -2.11,-0.777341 c -0.78,-0.203125 -1.64,-0.359375 -2.6,-0.457031 C 1012.94,0.046875 1011.86,0 1010.65,0 v 4.33594"/>
            <path id="path162" style="fill:#f5f5f5;fill-opacity:1;fill-rule:nonzero;stroke:none"
                    d="m 547.996,452.656 c 88.52,0 160.18,-71.66 160.18,-160.179 0,-88.52 -71.66,-160.18 -160.18,-160.18 -88.519,1.055 -159.125,72.715 -159.125,160.18 0,88.519 70.606,160.179 159.125,160.179"/>
            <path id="path164" style="fill:#2a2b2d;fill-opacity:1;fill-rule:nonzero;stroke:none"
                    d="m 612.016,313.32 c 0,35.715 -29.102,63.496 -63.493,63.496 -35.714,0 -63.492,-29.101 -63.492,-63.496 v 0 C 470.48,312 459.898,301.418 459.898,286.867 v -2.644 c 0,-14.551 11.907,-26.457 26.457,-26.457 h 1.321 l 11.906,-18.52 c 7.938,-13.226 21.164,-19.84 37.035,-19.84 h 2.649 c 1.32,-5.289 6.613,-9.258 11.902,-9.258 6.613,0 13.227,5.29 13.227,13.227 0,6.613 -5.29,13.227 -13.227,13.227 -5.289,0 -10.582,-3.965 -11.902,-9.258 h -2.649 c -13.226,0 -23.808,6.613 -30.422,17.195 l -9.257,14.551 h 2.644 c 3.969,0 6.613,2.644 6.613,6.613 v 44.973 c 0,3.969 -2.644,6.613 -6.613,6.613 h -6.613 c 0,31.746 25.133,56.879 56.879,56.879 31.746,0 56.875,-25.133 56.875,-56.879 h -6.614 c -3.968,0 -6.613,-2.644 -6.613,-6.613 v -44.973 c 0,-3.969 2.645,-6.613 6.613,-6.613 h 10.582 c 14.551,0 26.457,11.902 26.457,26.457 v 2.644 c 0,11.903 -10.582,23.809 -25.132,25.129"/>
            <path id="path166" style="fill:#FFBD2D;fill-opacity:1;fill-rule:nonzero;stroke:none"
                    d="m 630.824,286.496 c 0,-12.422 -10.07,-22.488 -22.488,-22.488 h -9.258 v 44.972 h 9.258 c 12.418,0 22.488,-10.066 22.488,-22.484 v 0"/>
            <path id="path168" style="fill:#FFBD2D;fill-opacity:1;fill-rule:nonzero;stroke:none"
                    d="m 499.023,308.98 v -44.972 h -9.859 c -13.226,0 -23.949,10.066 -23.949,22.488 v 0 c 0,12.418 10.723,22.484 23.949,22.484 h 9.859"/>
            <path id="path170" style="fill:none;stroke:#2a2b2d;stroke-width:4.79899979;stroke-linecap:round;stroke-linejoin:miter;stroke-miterlimit:2.61310005;stroke-dasharray:none;stroke-opacity:1"
                    d="m 514.559,342.391 c 10.898,17.453 35.386,23.109 52.839,12.211 v 0"/>
            <path id="path172" style="fill:none;stroke:#2a2b2d;stroke-width:4.79899979;stroke-linecap:round;stroke-linejoin:miter;stroke-miterlimit:2.61310005;stroke-dasharray:none;stroke-opacity:1"
                    d="m 578.957,345.527 c 3.969,-2.336 5.695,-6.273 5.695,-6.273 v 0"/>
            <path id="path174" style="fill:#78cc61;fill-opacity:1;fill-rule:nonzero;stroke:none"
                    d="m 558.961,223.57 c 0,3.953 -3.203,7.157 -7.156,7.157 -3.953,0 -7.16,-3.204 -7.16,-7.157 0,-3.953 3.207,-7.16 7.16,-7.16 3.953,0 7.156,3.207 7.156,7.16"/>
            <path id="path176" style="fill:#2a2b2d;fill-opacity:1;fill-rule:nonzero;stroke:none"
                    d="m 435.191,74.7813 -1.007,-0.0157 -0.403,-0.125 0.723,-0.8047 0.957,-1.0586 1.152,-1.2265 1.325,-1.336 2.449,1.711 2.008,1.6367 0.257,0.4414 0.012,0.3945 -0.32,0.2852 -0.524,0.0977 z m 11.497,-25.4102 h -8.606 c -1.664,0 -3.211,0.1758 -4.641,0.5234 -1.418,0.3477 -2.656,0.9024 -3.703,1.6641 -1.039,0.7617 -1.863,1.7344 -2.461,2.9258 -0.605,1.1914 -0.906,2.6211 -0.906,4.2929 0,1.1954 0.277,2.3243 0.832,3.3868 0.547,1.0625 1.391,2.1054 2.512,3.1289 l 2.152,1.7031 2.348,1.5156 -4.703,4.5977 0.082,0.8945 0.234,1.0625 0.445,1.082 0.649,0.9844 1.902,1.2461 c 0.742,0.2695 1.649,0.4063 2.727,0.4063 h 5.734 l 1.5,-0.2071 1.348,-0.5937 1.113,-0.9258 0.813,-1.1836 0.308,-0.9727 0.102,-0.9921 -0.449,-1.8125 -1.184,-1.5586 -1.648,-1.3672 -1.821,-1.25 1.242,-0.9336 0.536,-0.3242 h 6.515 v -4.336 h -6.656 l -1.063,0.1133 -1.101,0.4492 -1.399,0.9336 -1.933,1.586 -2.543,-1.5743 -2.203,-1.6093 -1.551,-1.6836 -0.59,-1.7657 0.371,-1.996 0.969,-1.3907 1.367,-0.8984 1.606,-0.5039 1.648,-0.2266 1.5,-0.0508 h 8.606 v -4.3398"/>
            <path id="path178" style="fill:#2a2b2d;fill-opacity:1;fill-rule:nonzero;stroke:none"
                    d="m 459.879,52.8555 -2.922,2.957 2.891,3 2.996,-3 z m -7.297,-0.0157 -2.922,2.9571 2.871,2.9961 2.996,-2.9961 z m 9.406,24.1172 0.145,-0.5742 0.258,-1.1055 0.289,-1.4531 0.277,-1.6094 0.207,-1.5781 0.082,-1.3398 c 0,-1.1953 -0.195,-2.2344 -0.598,-3.1094 l -1.543,-2.168 -2.152,-1.2734 -2.398,-0.418 h -7.5 v 4.336 h 7.625 l 0.597,0.0625 0.782,0.3203 0.687,0.7929 0.301,1.4571 -0.063,0.9297 -0.164,1.1718 -0.238,1.2813 -0.246,1.2422 -0.246,1.0586 -0.195,0.7422 4.093,1.2343"/>
            <path id="path180" style="fill:#2a2b2d;fill-opacity:1;fill-rule:nonzero;stroke:none"
                    d="m 480.711,62.3281 h -0.672 l -1.348,0.086 -1.246,0.4882 c -0.132,-1.496 -0.48,-2.8515 -1.027,-4.0742 -0.547,-1.2187 -1.266,-2.2578 -2.184,-3.1289 -0.906,-0.8633 -1.996,-1.5312 -3.261,-2.0039 -1.266,-0.4805 -2.684,-0.7187 -4.27,-0.7187 h -2.172 v 4.3398 h 2.172 c 1.121,0 2.078,0.1133 2.891,0.3438 l 2.008,1.1171 1.164,1.9922 c 0.257,0.8164 0.379,1.8164 0.379,2.9883 v 10.6055 h 4.343 v -5.207 l 0.34,-1.293 0.781,-0.7539 0.864,-0.3555 0.566,-0.0898 h 0.672 v -4.336"/>
            <path id="path182" style="fill:#2a2b2d;fill-opacity:1;fill-rule:nonzero;stroke:none"
                    d="m 493.059,62.3633 c -2.129,0 -3.809,0.5508 -5.051,1.6562 l -2.121,-1.289 -2.41,-0.4024 h -3.918 v 4.336 h 3.918 l 0.597,0.0703 0.793,0.3359 0.68,0.8047 0.297,1.4727 v 0.0703 4.9453 h 4.332 V 69.418 c 0,-0.9492 0.226,-1.6446 0.679,-2.0821 0.446,-0.4336 1.172,-0.6562 2.204,-0.6562 l 0.597,0.0859 0.782,0.3516 0.691,0.8281 0.297,1.4727 v 4.9453 h 4.312 V 69.418 c 0,-0.9492 0.235,-1.6524 0.688,-2.0977 0.465,-0.4492 1.207,-0.6719 2.246,-0.6719 l 0.617,0.0938 0.77,0.3867 0.66,0.8242 0.289,1.4649 -0.063,0.9218 -0.164,1.1407 -0.218,1.2226 -0.235,1.1719 -0.238,1.0078 -0.184,0.7149 4.094,1.3437 0.137,-0.5586 0.254,-1.0781 0.3,-1.4297 0.289,-1.5742 0.215,-1.5508 0.094,-1.332 c 0,-1.1836 -0.195,-2.2227 -0.59,-3.1055 l -1.519,-2.2148 -2.121,-1.3164 -2.387,-0.4532 c -2.164,0 -3.871,0.5703 -5.125,1.7071 l -2.109,-1.2813 -2.379,-0.3906"/>
            <path id="path184" style="fill:#2a2b2d;fill-opacity:1;fill-rule:nonzero;stroke:none"
                    d="m 546.027,62.3281 0.661,-1.2617 0.265,-1.2461 c 0,-1.0781 -0.297,-2.0547 -0.887,-2.9297 -0.593,-0.8828 -1.398,-1.6289 -2.406,-2.2383 -1.008,-0.621 -2.183,-1.0937 -3.531,-1.4335 -1.336,-0.3321 -2.758,-0.504 -4.27,-0.504 h -4.457 c -0.957,0 -1.859,0.1133 -2.734,0.3321 l -2.461,0.9492 -2.102,1.5 -1.687,1.9883 c -1.152,1.8594 -1.727,4.0351 -1.727,6.5351 l 0.133,2.2813 0.434,2.3242 0.801,2.4922 c 0.328,0.8633 0.742,1.8008 1.226,2.8086 l 3.867,-1.8633 -1.007,-2.3516 -0.661,-2.0117 -0.347,-1.8281 -0.114,-1.7695 c 0,-1.6797 0.372,-3.1055 1.122,-4.2813 l 2.179,-2.0234 c 0.93,-0.4766 1.946,-0.7071 3.078,-0.7071 h 4.457 l 2.469,0.2422 2.059,0.6797 1.441,1.0039 0.649,1.2227 -1.278,0.918 -1.758,0.625 -2.128,0.3828 -2.379,0.1836 0.125,4.3164 h 15.796 v -4.336 h -4.828"/>
            <path id="path186" style="fill:#2a2b2d;fill-opacity:1;fill-rule:nonzero;stroke:none"
                    d="m 552.52,83.9609 3.128,3.168 3.211,-3.2031 -3.168,-3.1719 z m 7.378,-7.0039 0.145,-0.5742 0.258,-1.1055 0.289,-1.4531 0.277,-1.6094 0.207,-1.5781 0.082,-1.3398 c 0,-1.1953 -0.195,-2.2344 -0.597,-3.1094 l -1.543,-2.168 -2.153,-1.2734 -2.398,-0.418 h -4.629 v 4.336 h 4.754 l 0.598,0.0625 0.792,0.3203 0.676,0.7929 0.301,1.4571 -0.062,0.9297 -0.165,1.1718 -0.238,1.2813 -0.246,1.2422 -0.246,1.0586 -0.195,0.7422 4.093,1.2343"/>
            <path id="path188" style="fill:#2a2b2d;fill-opacity:1;fill-rule:nonzero;stroke:none"
                    d="m 573.523,62.3281 c -1.273,0 -2.367,0.0782 -3.281,0.2383 l -2.316,0.6914 -1.512,1.1797 -0.863,1.6719 -0.395,2.1679 c -0.058,0.8047 -0.09,1.6954 -0.09,2.6758 v 16.4922 h 4.332 V 70.9531 l 0.102,-2.2343 0.508,-1.2969 1.234,-0.6055 c 0.555,-0.0976 1.317,-0.1523 2.281,-0.1523 v -4.336"/>
            <path id="path190" style="fill:#2a2b2d;fill-opacity:1;fill-rule:nonzero;stroke:none"
                    d="m 576.426,56.0742 3.14,3.1719 3.2,-3.207 -3.168,-3.1641 z m 10.57,10.5899 v -4.336 h -1.09 c -0.988,0 -1.894,0.1328 -2.695,0.4024 l -2.059,1.1836 -2.304,-1.1993 c -0.899,-0.2578 -1.907,-0.3867 -3.047,-0.3867 h -3.078 v 4.336 h 3.078 l 1.699,0.2031 0.953,0.4922 0.426,0.664 0.09,0.7149 v 5.6406 h 4.324 v -5.5195 l 0.348,-1.2266 0.793,-0.664 0.875,-0.2618 0.597,-0.0429 h 1.09"/>
            <path id="path192" style="fill:#2a2b2d;fill-opacity:1;fill-rule:nonzero;stroke:none"
                    d="m 598.16,52.7539 -2.93,2.957 2.891,2.9922 2.996,-2.9922 z m -7.293,-0.0234 -2.933,2.9648 2.879,2.9961 2.996,-2.9961 z m 14.375,13.9336 v -4.336 h -2.57 c -0.988,0 -1.887,0.1328 -2.699,0.4024 l -2.059,1.1836 -2.305,-1.1993 c -0.894,-0.2578 -1.902,-0.3867 -3.035,-0.3867 h -6.031 v 4.336 h 6.031 l 1.688,0.2031 0.968,0.4922 0.411,0.664 0.093,0.7149 v 5.6406 h 4.321 v -5.5195 l 0.351,-1.2266 0.793,-0.664 0.875,-0.2618 0.598,-0.0429 h 2.57"/>
            <path id="path194" style="fill:#2a2b2d;fill-opacity:1;fill-rule:nonzero;stroke:none"
                    d="m 617.531,79.0117 -2.926,2.961 2.895,2.9961 2.992,-2.9961 z m -7.297,-0.0156 -2.921,2.957 2.871,3 2.992,-3 z M 623.5,66.6641 v -4.336 h -2.574 c -0.988,0 -1.883,0.1328 -2.696,0.4024 l -2.058,1.1836 -2.305,-1.1993 c -0.894,-0.2578 -1.902,-0.3867 -3.035,-0.3867 h -6.031 v 4.336 h 6.031 l 1.688,0.2031 0.964,0.4922 0.414,0.664 0.09,0.7149 v 5.6406 h 4.325 v -5.5195 l 0.347,-1.2266 0.793,-0.664 0.875,-0.2618 0.598,-0.0429 h 2.574"/>
            <path id="path196" style="fill:#2a2b2d;fill-opacity:1;fill-rule:nonzero;stroke:none"
                    d="m 646.973,81.6445 -2.922,-2.9648 -3.047,2.9297 2.996,2.9922 z m -3.848,4.9102 -2.777,-2.7891 -2.758,2.75 2.789,2.7891 z m -3.621,-4.9844 -2.957,-2.9922 -2.961,2.9571 2.961,2.9961 z M 622.738,66.6641 h 2.242 l 1.668,0.1757 0.989,0.5157 0.484,0.8242 0.121,1.1172 v 5.0664 h 4.332 v -4.9805 l 0.68,-2.0547 c 0.453,-0.4297 1.176,-0.6523 2.164,-0.664 h -0.023 l 0.64,0.1054 0.731,0.3594 0.605,0.7813 0.258,1.3867 v 5.0664 h 4.312 v -4.9805 c 0,-0.9531 0.227,-1.6406 0.68,-2.0742 0.453,-0.4258 1.192,-0.6445 2.211,-0.6445 l 0.832,0.1289 0.742,0.4375 0.535,0.7929 0.247,1.1993 v -0.0157 5.1563 h 4.335 V 69.207 l 0.821,-1.9375 c 0.515,-0.4023 1.316,-0.6054 2.398,-0.6054 h 1.707 v -4.336 h -1.707 c -1.191,0 -2.23,0.1328 -3.117,0.3907 L 649.352,64 l -2.09,-1.2461 -2.43,-0.4258 c -1.09,0 -2.047,0.1328 -2.859,0.4024 l -2.184,1.289 -2.035,-1.2382 -2.266,-0.4532 c -1.101,-0.0117 -2.058,0.1289 -2.89,0.418 l -2.153,1.2031 c -1.347,-1.082 -3.179,-1.6211 -5.465,-1.6211 h -2.242 v 4.336"/>
            <path id="path198" style="fill:#2a2b2d;fill-opacity:1;fill-rule:nonzero;stroke:none"
                    d="m 663.75,56.5664 2.992,2.957 2.965,-2.9961 -2.965,-2.957 z m -3.469,-4.8789 2.758,2.7539 2.777,-2.7851 -2.75,-2.754 z m -3.801,4.9141 2.965,2.957 2.965,-2.9922 -2.965,-2.9609 z m 12.145,20.3554 0.145,-0.5742 0.257,-1.1055 0.289,-1.4531 0.278,-1.6094 0.207,-1.5781 0.082,-1.3398 c 0,-1.1953 -0.195,-2.2344 -0.598,-3.1094 l -1.543,-2.168 -2.152,-1.2734 -2.399,-0.418 h -7.5 v 4.336 h 7.625 l 0.594,0.0625 0.785,0.3203 0.688,0.7929 0.301,1.4571 -0.063,0.9297 -0.164,1.1718 -0.238,1.2813 -0.246,1.2422 -0.246,1.0586 -0.196,0.7422 4.094,1.2343"/>
            <path id="path200" style="fill:#f5f5f5;fill-opacity:1;fill-rule:nonzero;stroke:none"
                    d="m 159.125,452.656 c 88.52,0 160.18,-71.66 160.18,-160.179 0,-88.52 -71.66,-160.18 -160.18,-160.18 C 70.6055,133.352 0,205.012 0,292.477 0,380.996 70.6055,452.656 159.125,452.656"/>
            <path id="path202" style="fill:#78cc61;fill-opacity:1;fill-rule:nonzero;stroke:none"
                    d="m 156.699,359.859 v -28.73 l 18.653,13.57 18.656,-14.023 v 29.183 h -37.309"/>
            <path id="path204" style="fill:#2a2b2d;fill-opacity:1;fill-rule:nonzero;stroke:none"
                    d="m 240.922,226.172 h -71.973 c -1.414,0 -2.558,1.144 -2.558,2.551 0,1.41 1.144,2.554 2.558,2.554 h 69.414 V 355.52 c 0,0.98 -0.8,1.785 -1.789,1.785 H 114.133 c -0.969,0 -1.789,-0.821 -1.789,-1.785 v -9.629 c 0,-1.411 -1.145,-2.551 -2.559,-2.551 -1.414,0 -2.555,1.14 -2.555,2.551 v 9.629 c 0,3.796 3.098,6.89 6.903,6.89 h 122.441 c 3.805,0 6.903,-3.094 6.903,-6.89 V 228.723 c 0,-1.407 -1.141,-2.551 -2.555,-2.551"/>
            <path id="path206" style="fill:#2a2b2d;fill-opacity:1;fill-rule:nonzero;stroke:none"
                    d="m 177.965,226.172 h -63.832 c -3.805,0 -6.903,3.094 -6.903,6.898 v 39.914 c 0,1.411 1.141,2.551 2.555,2.551 1.414,0 2.559,-1.14 2.559,-2.551 V 233.07 c 0,-0.972 0.82,-1.793 1.789,-1.793 h 63.832 c 1.41,0 2.555,-1.144 2.555,-2.554 0,-1.407 -1.145,-2.551 -2.555,-2.551"/>
            <path id="path208" style="fill:#2a2b2d;fill-opacity:1;fill-rule:nonzero;stroke:none"
                    d="M 143.336,271.637 H 78.7109 C 62.3281,271.637 49,284.961 49,301.336 c 0,16.371 13.3281,29.695 29.7109,29.695 h 4.2969 c 1.4102,0 2.5547,-1.144 2.5547,-2.554 0,-1.407 -1.1445,-2.551 -2.5547,-2.551 h -4.2969 c -13.5664,0 -24.5937,-11.035 -24.5937,-24.59 0,-13.559 11.0273,-24.594 24.5937,-24.594 h 64.6251 c 1.41,0 2.555,-1.144 2.555,-2.551 0,-1.41 -1.145,-2.554 -2.555,-2.554"/>
            <path id="path210" style="fill:#2a2b2d;fill-opacity:1;fill-rule:nonzero;stroke:none"
                    d="m 104.766,325.926 c -0.657,0 -1.313,0.25 -1.809,0.75 L 83.7031,345.93 c -1,0.992 -1,2.613 0,3.605 0.9961,0.996 2.6211,0.996 3.6172,0 l 19.2537,-19.254 c 0.996,-0.992 0.996,-2.613 0,-3.605 -0.5,-0.5 -1.152,-0.75 -1.808,-0.75"/>
            <path id="path212" style="fill:#2a2b2d;fill-opacity:1;fill-rule:nonzero;stroke:none"
                    d="m 85.5117,306.68 c -0.6562,0 -1.3086,0.246 -1.8086,0.746 -1,0.992 -1,2.613 0,3.613 l 19.2539,19.246 c 0.996,0.988 2.617,0.996 3.617,-0.004 0.996,-0.992 0.996,-2.613 0,-3.613 L 87.3203,307.422 c -0.5,-0.496 -1.1523,-0.742 -1.8086,-0.742"/>
            <path id="path214" style="fill:#2a2b2d;fill-opacity:1;fill-rule:nonzero;stroke:none"
                    d="M 164.957,271.637 H 93.1836 c -1.4141,0 -2.5586,1.144 -2.5586,2.554 0,1.407 1.1445,2.551 2.5586,2.551 h 71.7734 c 1.414,0 2.559,-1.144 2.559,-2.551 0,-1.41 -1.145,-2.554 -2.559,-2.554"/>
            <path id="path216" style="fill:#FFBD2D;fill-opacity:1;fill-rule:nonzero;stroke:none"
                    d="m 210.48,270.199 h -27.226 c -2.203,0 -3.992,1.785 -3.992,3.992 0,2.204 1.789,3.993 3.992,3.993 h 27.226 c 2.204,0 3.993,-1.789 3.993,-3.993 0,-2.207 -1.789,-3.992 -3.993,-3.992"/>
            <path id="path218" style="fill:#FFBD2D;fill-opacity:1;fill-rule:nonzero;stroke:none"
                    d="m 222.82,286.379 h -95.039 c -2.203,0 -3.992,1.789 -3.992,3.992 0,2.203 1.789,3.992 3.992,3.992 h 95.039 c 2.203,0 3.993,-1.789 3.993,-3.992 0,-2.203 -1.79,-3.992 -3.993,-3.992"/>
            <path id="path220" style="fill:#FFBD2D;fill-opacity:1;fill-rule:nonzero;stroke:none"
                    d="M 109.184,286.379 H 85.7109 c -2.207,0 -3.9921,1.789 -3.9921,3.992 0,2.203 1.7851,3.992 3.9921,3.992 h 23.4731 c 2.203,0 3.992,-1.789 3.992,-3.992 0,-2.203 -1.789,-3.992 -3.992,-3.992"/>
            <path id="path222" style="fill:#2a2b2d;fill-opacity:1;fill-rule:nonzero;stroke:none"
                    d="m 194.004,328.578 c -0.531,0 -1.063,0.16 -1.508,0.488 l -17.144,12.469 -17.141,-12.469 c -0.789,-0.578 -1.809,-0.652 -2.66,-0.214 -0.863,0.437 -1.406,1.316 -1.406,2.277 v 28.73 h 5.117 v -23.714 l 14.586,10.613 c 0.914,0.656 2.097,0.656 3.011,0 l 14.586,-10.613 v 23.714 h 5.118 v -28.73 c 0,-0.961 -0.543,-1.84 -1.407,-2.277 -0.363,-0.188 -0.758,-0.274 -1.152,-0.274"/>
            <path id="path224" style="fill:#2a2b2d;fill-opacity:1;fill-rule:nonzero;stroke:none"
                    d="M 6.45313,69.5352 5.32031,86.7656 9.62109,87.2695 10.7734,69.5352 Z M 4.36328,62.3281 v 4.336 H 11.832 c 1.3516,0 2.4297,0.1132 3.2539,0.3398 l 1.9258,1.125 0.9024,2.0703 c 0.1445,0.8594 0.2265,1.9219 0.2265,3.1875 v 14.0586 h 4.3125 V 73.3867 L 22.3828,71.2813 22.082,69.1445 21.457,67.1094 20.4063,65.3086 c -0.8555,-0.9883 -1.9766,-1.7305 -3.3868,-2.2305 -1.3984,-0.5 -3.1289,-0.75 -5.1875,-0.75 H 4.36328"/>
            <path id="path226" style="fill:#2a2b2d;fill-opacity:1;fill-rule:nonzero;stroke:none"
                    d="m 36.2461,62.3281 c -1.2773,0 -2.3672,0.0782 -3.2852,0.2383 l -2.3164,0.6914 -1.5117,1.1797 -0.8633,1.6719 -0.3906,2.1679 c -0.0625,0.8047 -0.0937,1.6954 -0.0937,2.6758 v 16.4922 h 4.332 V 70.9531 l 0.1016,-2.2343 0.5039,-1.2969 1.2382,-0.6055 c 0.5547,-0.0976 1.3164,-0.1523 2.2852,-0.1523 v -4.336"/>
            <path id="path228" style="fill:#2a2b2d;fill-opacity:1;fill-rule:nonzero;stroke:none"
                    d="m 35.4727,62.3281 v 4.336 h 10.1875 l 0.7734,0.0273 0.957,0.1367 0.8008,0.3321 0.3399,0.6015 -0.5665,1.8125 -1.4492,2.2617 -1.9961,2.4297 -2.1914,2.3164 -2.0508,1.9258 -1.5312,1.2539 0.3477,3.9375 15.1484,6.9297 1.5859,-3.7969 -12.7422,-5.625 1.4844,-1.4609 1.6992,-1.7344 1.7383,-1.8984 1.6133,-1.9649 1.3516,-1.9257 0.9257,-1.7813 0.4219,-1.4101 0.1133,-1.2344 -0.125,-1.2188 -0.2891,-0.8906 -0.6484,-1.0586 -1.2031,-1.0976 -1.9571,-0.8516 c -0.7812,-0.2344 -1.7265,-0.3516 -2.8476,-0.3516 h -9.8906"/>
            <path id="path230" style="fill:#2a2b2d;fill-opacity:1;fill-rule:nonzero;stroke:none"
                    d="m 87.9688,75.8242 -2.9258,2.961 2.8945,2.9961 2.9922,-2.9961 z m -7.2969,-0.0156 -2.9219,2.9609 2.8711,2.9922 2.9922,-2.9922 z m 20.7461,-1.4453 v -5.1055 l 0.184,-1.0312 0.464,-0.7149 0.637,-0.4531 0.68,-0.2539 0.586,-0.1133 0.371,-0.0273 h 1.082 v -4.336 h -1.082 l -1.266,0.0782 -1.336,0.2617 -1.297,0.5 -1.1129,0.7656 C 98.0625,62.8711 96.3438,62.3438 94.1719,62.3281 H 74.0742 l -2.4375,0.4375 -2.039,1.2696 -0.7188,0.8046 -0.6719,1.1094 -0.4922,1.4571 -0.1835,1.8164 0.1718,1.8945 0.3907,1.9219 0.414,1.5664 0.2344,0.8164 2.082,-0.6563 2.0469,-0.6484 -0.3281,-1.1211 -0.3321,-1.3477 -0.2578,-1.3437 -0.1133,-1.1133 0.2383,-1.3516 0.5782,-0.7812 0.7382,-0.3555 0.711,-0.0898 h 19.9453 l 1.6367,0.1797 1.0078,0.5351 0.4024,1.3047 v 5.7305 h 4.3203"/>
            <path id="path232" style="fill:#2a2b2d;fill-opacity:1;fill-rule:nonzero;stroke:none"
                    d="m 128.762,81.6445 -2.922,-2.9648 -3.047,2.9297 2.996,2.9922 z m -3.848,4.9102 -2.781,-2.7891 -2.758,2.75 2.789,2.7891 z m -3.625,-4.9844 -2.953,-2.9922 -2.965,2.9571 2.965,2.9961 z M 104.527,66.6641 h 2.243 l 1.668,0.1757 0.988,0.5157 0.48,0.8242 0.125,1.1172 v 5.0664 h 4.332 v -4.9805 l 0.68,-2.0547 c 0.453,-0.4297 1.176,-0.6523 2.16,-0.664 h -0.019 l 0.636,0.1054 0.735,0.3594 0.605,0.7813 0.258,1.3867 v 5.0664 h 4.312 v -4.9805 c 0,-0.9531 0.227,-1.6406 0.68,-2.0742 0.449,-0.4258 1.192,-0.6445 2.211,-0.6445 l 0.832,0.1289 0.742,0.4375 0.535,0.7929 0.247,1.1993 v -0.0157 5.1563 h 4.332 V 69.207 l 0.824,-1.9375 c 0.515,-0.4023 1.316,-0.6054 2.398,-0.6054 h 1.707 v -4.336 h -1.707 c -1.191,0 -2.234,0.1328 -3.117,0.3907 L 131.141,64 l -2.09,-1.2461 -2.43,-0.4258 c -1.09,0 -2.047,0.1328 -2.859,0.4024 l -2.184,1.289 -2.039,-1.2382 -2.262,-0.4532 c -1.101,-0.0117 -2.058,0.1289 -2.89,0.418 l -2.153,1.2031 c -1.347,-1.082 -3.179,-1.6211 -5.464,-1.6211 h -2.243 v 4.336"/>
            <path id="path234" style="fill:#2a2b2d;fill-opacity:1;fill-rule:nonzero;stroke:none"
                    d="m 141.254,88.8672 13.266,5.7656 0.906,-1.9492 -14.399,-6.2891 z m -3.816,-26.5391 v 4.336 h 10.187 l 0.773,0.0273 0.957,0.1367 0.801,0.3321 0.34,0.6015 -0.566,1.8125 -1.45,2.2617 -1.996,2.4297 -2.195,2.3164 -2.047,1.9258 -1.531,1.2539 0.348,3.9375 15.148,6.9297 1.586,-3.7969 -12.738,-5.625 1.48,-1.4609 1.699,-1.7344 1.739,-1.8984 1.613,-1.9649 1.352,-1.9257 0.925,-1.7813 0.422,-1.4101 0.113,-1.2344 -0.125,-1.2188 -0.289,-0.8906 -0.648,-1.0586 -1.203,-1.0976 -1.953,-0.8516 c -0.785,-0.2344 -1.731,-0.3516 -2.852,-0.3516 h -9.89"/>
            <path
                    id="path236"
                    style="fill:#2a2b2d;fill-opacity:1;fill-rule:nonzero;stroke:none"
                    d="m 160.633,81.9023 3.14,3.168 3.2,-3.1992 -3.168,-3.1719 z m 5.402,-18.5078 c -0.07,-1.6054 -0.367,-3.0468 -0.894,-4.3281 -0.516,-1.2891 -1.235,-2.3789 -2.153,-3.2773 -0.925,-0.8946 -2.023,-1.5899 -3.332,-2.0782 -1.297,-0.4921 -2.769,-0.7343 -4.406,-0.7343 h -2.16 v 4.3398 h 2.16 c 1.121,0 2.078,0.1133 2.895,0.3438 l 2.003,1.1171 1.165,1.9922 c 0.257,0.8164 0.378,1.8164 0.378,2.9883 v 10.6055 h 4.344 V 63.3945"/>
            <path
                    id="path238"
                    style="fill:#2a2b2d;fill-opacity:1;fill-rule:nonzero;stroke:none"
                    d="m 179.559,62.3281 c -1.278,0 -2.368,0.0782 -3.282,0.2383 l -2.316,0.6914 -1.512,1.1797 -0.867,1.6719 -0.391,2.1679 c -0.062,0.8047 -0.089,1.6954 -0.089,2.6758 v 16.4922 h 4.332 V 70.9531 l 0.101,-2.2343 0.504,-1.2969 1.234,-0.6055 c 0.555,-0.0976 1.317,-0.1523 2.286,-0.1523 v -4.336"/>
            <path
                    id="path240"
                    style="fill:#2a2b2d;fill-opacity:1;fill-rule:nonzero;stroke:none"
                    d="m 181.203,56.2656 3.133,3.1719 3.211,-3.2031 -3.172,-3.168 z m 7.504,20.6914 0.145,-0.5742 0.257,-1.1055 0.289,-1.4531 0.278,-1.6094 0.207,-1.5781 0.082,-1.3398 c 0,-1.1953 -0.195,-2.2344 -0.598,-3.1094 l -1.543,-2.168 -2.152,-1.2734 -2.399,-0.418 h -4.628 v 4.336 h 4.753 l 0.594,0.0625 0.793,0.3203 0.68,0.7929 0.301,1.4571 -0.063,0.9297 -0.164,1.1718 -0.238,1.2813 -0.246,1.2422 -0.246,1.0586 -0.196,0.7422 4.094,1.2343"/>
            <path
                    id="path242"
                    style="fill:#2a2b2d;fill-opacity:1;fill-rule:nonzero;stroke:none"
                    d="m 223.41,75.8242 -2.922,2.961 2.891,2.9961 2.992,-2.9961 z m -7.297,-0.0156 -2.922,2.9609 2.872,2.9922 2.992,-2.9922 z m 20.746,-1.4453 v -5.1055 l 0.188,-1.0312 0.461,-0.7149 0.637,-0.4531 0.679,-0.2539 0.586,-0.1133 0.371,-0.0273 h 1.082 v -4.336 h -1.082 l -1.265,0.0782 -1.336,0.2617 -1.297,0.5 -1.113,0.7656 c -1.266,-1.0625 -2.985,-1.5898 -5.157,-1.6055 h -20.097 l -2.438,0.4375 -2.039,1.2696 -0.719,0.8046 -0.672,1.1094 -0.492,1.4571 -0.183,1.8164 0.172,1.8945 0.39,1.9219 0.414,1.5664 0.239,0.8164 2.078,-0.6563 2.047,-0.6484 -0.329,-1.1211 -0.332,-1.3477 -0.257,-1.3437 -0.114,-1.1133 0.239,-1.3516 0.578,-0.7812 0.738,-0.3555 0.711,-0.0898 h 19.945 l 1.637,0.1797 1.008,0.5351 0.402,1.3047 v 5.7305 h 4.32"/>
            <path
                    id="path244"
                    style="fill:#2a2b2d;fill-opacity:1;fill-rule:nonzero;stroke:none"
                    d="m 242.766,83.9609 3.129,3.168 3.21,-3.2031 -3.167,-3.1719 z m 7.379,-7.0039 0.144,-0.5742 0.258,-1.1055 0.289,-1.4531 0.277,-1.6094 0.207,-1.5781 0.082,-1.3398 c 0,-1.1953 -0.195,-2.2344 -0.597,-3.1094 l -1.543,-2.168 -2.153,-1.2734 -2.398,-0.418 h -4.629 v 4.336 h 4.754 l 0.598,0.0625 0.793,0.3203 0.675,0.7929 0.301,1.4571 -0.062,0.9297 -0.164,1.1718 -0.239,1.2813 -0.246,1.2422 -0.246,1.0586 -0.195,0.7422 4.094,1.2343"/>
            <path
                    id="path246"
                    style="fill:#2a2b2d;fill-opacity:1;fill-rule:nonzero;stroke:none"
                    d="m 263.762,62.3281 c -1.278,0 -2.367,0.0782 -3.285,0.2383 l -2.313,0.6914 -1.516,1.1797 -0.863,1.6719 -0.39,2.1679 c -0.063,0.8047 -0.094,1.6954 -0.094,2.6758 v 16.4922 h 4.332 V 70.9531 l 0.105,-2.2343 0.504,-1.2969 1.235,-0.6055 c 0.554,-0.0976 1.316,-0.1523 2.285,-0.1523 v -4.336"/>
            <path
                    id="path248"
                    style="fill:#2a2b2d;fill-opacity:1;fill-rule:nonzero;stroke:none"
                    d="m 275.719,65.6211 0.496,0.0625 0.687,0.3711 0.618,0.9648 0.269,1.8399 -0.168,1.1562 -0.574,1.3789 -1.102,1.1485 -1.726,0.4765 -1.485,-0.539 -0.964,-1.3399 -0.661,-1.7343 -0.586,-1.6954 1.368,-0.7421 1.422,-0.668 1.316,-0.4883 z m -1.5,11.7227 c 1.191,0 2.23,-0.2149 3.125,-0.6485 l 2.234,-1.7422 c 0.61,-0.7265 1.063,-1.5781 1.367,-2.539 0.313,-0.9688 0.477,-1.9766 0.496,-3.0313 l 0.379,-1.5234 0.875,-0.8125 0.957,-0.3203 0.649,-0.0625 h 0.484 v -4.336 h -0.484 l -2.274,0.3594 -1.894,0.9102 -1.141,-1.1563 -1.254,-0.6328 -1.207,-0.2617 -0.988,-0.0547 -1.656,0.168 -1.594,0.4687 -1.68,0.75 -1.902,1 -1.676,-1.1914 -2.101,-0.3594 h -2.141 l -0.031,4.336 h 2.172 l 0.668,0.2265 0.527,0.6328 0.43,0.9961 0.414,1.3008 0.832,2.582 1.297,2.4297 2.046,1.8047 c 0.825,0.4688 1.856,0.7071 3.071,0.7071"/>
            <path
                    id="path250"
                    style="fill:#2a2b2d;fill-opacity:1;fill-rule:nonzero;stroke:none"
                    d="m 303.73,84.1484 3.129,3.1719 3.211,-3.207 -3.168,-3.168 z m 3.469,-10.9179 -2.109,-0.5391 -2.098,-1.4453 -1.996,-2.0898 -1.762,-2.4922 h 7.75 l 1.329,0.164 1.234,0.543 0.926,0.9805 0.359,1.5195 -0.297,1.625 -0.812,1.0352 -1.164,0.539 z M 283.633,62.3281 v 4.336 h 2.512 l 1.687,0.1914 0.945,0.5039 0.434,0.707 0.102,0.793 v 5.5039 h 4.312 v -5.5039 l 0.125,-0.6094 0.32,-0.5273 0.43,-0.3868 0.504,-0.1796 0.383,0.625 1.468,2.3164 1.629,2.2539 1.813,2.039 2.035,1.6485 2.285,1.1093 2.582,0.4024 2.696,-0.3789 2.398,-1.2617 c 0.699,-0.5899 1.266,-1.3789 1.699,-2.3594 0.442,-0.9766 0.66,-2.207 0.66,-3.6797 0,-1.3945 -0.238,-2.5703 -0.711,-3.5273 -0.464,-0.961 -1.07,-1.7305 -1.812,-2.3243 l -2.469,-1.289 -2.676,-0.4024 h -9.961 l -1.39,0.0274 -1.535,0.1718 -1.45,0.4649 -1.183,0.9062 c -1.254,-1.0078 -2.996,-1.5351 -5.195,-1.5703 h -2.637"/></g></g></svg>