<?xml version="1.0" encoding="utf-8"?>
<!-- Generator: Adobe Illustrator 19.1.1, SVG Export Plug-In . SVG Version: 6.00 Build 0)  -->
<svg version="1.1" id="Layer_1" xmlns="http://www.w3.org/2000/svg" xmlns:xlink="http://www.w3.org/1999/xlink" x="0px"
     y="0px" viewBox="0 0 163.8 47.5" style="enable-background:new 0 0 163.8 47.5;" xml:space="preserve">
<style type="text/css">
	.st3{fill-rule:evenodd;clip-rule:evenodd;fill:#FFFFFF;}
	.st9{fill:#2D3033;}
	.st10{fill:#FFBD2D;}
	.st16{fill-rule:evenodd;clip-rule:evenodd;fill:#FFBD2D;}
	.st27{fill:none;stroke:#2D3033;stroke-width:0.4799;stroke-linecap:round;stroke-linejoin:round;stroke-miterlimit:2.6131;}
	.st31{fill-rule:evenodd;clip-rule:evenodd;fill:#7DCC73;}
	.st73{fill:none;stroke:#2D3033;stroke-width:0.4799;stroke-miterlimit:2.6131;}
	.st79{fill-rule:evenodd;clip-rule:evenodd;fill:#F2F2F2;}
	.st80{fill:#7DCC73;}
	.st81{fill:none;stroke:#2D3033;stroke-width:0.4799;stroke-linejoin:round;stroke-miterlimit:2.6131;}
	.st82{fill-rule:evenodd;clip-rule:evenodd;fill:#ECEFEF;}
	.st83{fill:none;stroke:#2D3033;stroke-width:0.4799;stroke-linecap:round;stroke-miterlimit:2.6131;}
</style>
    <path class="st9" d="M48.1,39.3h1.6c0.2,0,0.3,0,0.4-0.1c0.1-0.1,0.1-0.2,0.1-0.3v-0.5v-0.1h0.1h0.4h0.1v0.1v0.5c0,0.1,0,0.2,0,0.2
	c0,0.1,0.1,0.1,0.1,0.1c0.1,0,0.1,0,0.2,0h0c0,0,0.1,0,0.1,0c0,0,0,0,0,0.1c0,0,0,0,0,0.1c0,0,0,0,0,0.1c0,0,0,0,0,0v0c0,0,0,0,0,0
	c0,0,0,0,0,0c0,0,0,0,0,0c0,0,0,0,0,0c0,0,0,0,0,0c0,0,0,0,0,0c0,0,0,0,0,0h0c-0.1,0-0.3,0-0.4-0.1c-0.1,0-0.2-0.1-0.3-0.2
	c-0.1,0.2-0.4,0.3-0.7,0.3h-1.6c-0.3,0-0.5-0.1-0.7-0.2c-0.2-0.2-0.2-0.4-0.2-0.7v-0.4v-0.1h0.1h0.3h0.1v0.1v0.4
	c0,0.2,0,0.3,0.1,0.3C47.8,39.3,47.9,39.3,48.1,39.3 M48.3,37.9l0.2-0.2c0.1-0.1,0.1-0.1,0.2,0l0.2,0.2c0.1,0.1,0.1,0.1,0,0.2
	l-0.2,0.2c-0.1,0.1-0.1,0.1-0.2,0L48.2,38C48.2,38,48.2,37.9,48.3,37.9z M49,37.9l0.2-0.2c0.1-0.1,0.1-0.1,0.2,0l0.2,0.2
	c0.1,0.1,0.1,0.1,0,0.2l-0.2,0.2c-0.1,0.1-0.1,0.1-0.2,0L49,38C48.9,38,48.9,37.9,49,37.9z"/>
    <path class="st9" d="M52.8,39.8L52.8,39.8c-0.3,0-0.5-0.1-0.7-0.2c-0.2,0.2-0.4,0.2-0.7,0.2h-0.4c-0.1,0-0.1,0-0.1-0.1
	c0,0,0-0.1,0-0.2v0c0-0.1,0-0.1,0-0.2c0,0,0.1-0.1,0.1-0.1h0.4c0.1,0,0.2,0,0.3,0c0.1,0,0.1-0.1,0.1-0.1c0,0,0-0.1,0-0.2v-0.5v-0.1
	h0.1h0.4h0.1v0.1V39c0,0.1,0,0.2,0.1,0.2c0.1,0.1,0.2,0.1,0.3,0.1h0c0,0,0.1,0,0.1,0c0,0,0,0,0,0.1c0,0,0,0,0,0.1c0,0,0,0,0,0.1
	c0,0,0,0,0,0v0c0,0,0,0,0,0c0,0,0,0,0,0c0,0,0,0,0,0c0,0,0,0,0,0C52.9,39.7,52.9,39.7,52.8,39.8C52.9,39.8,52.9,39.8,52.8,39.8
	C52.9,39.8,52.8,39.8,52.8,39.8C52.8,39.8,52.8,39.8,52.8,39.8 M51.1,40.4l0.2-0.2c0.1-0.1,0.1-0.1,0.2,0l0.2,0.2
	c0.1,0.1,0.1,0.1,0,0.2l-0.2,0.2c-0.1,0.1-0.1,0.1-0.2,0l-0.2-0.2C51,40.5,51,40.4,51.1,40.4z M51.8,40.4l0.2-0.2
	c0.1-0.1,0.1-0.1,0.2,0l0.2,0.2c0.1,0.1,0.1,0.1,0,0.2l-0.2,0.2c-0.1,0.1-0.1,0.1-0.2,0l-0.2-0.2C51.7,40.5,51.7,40.4,51.8,40.4z"/>
    <path class="st9" d="M53.6,38.9c0,0.1,0,0.1,0.1,0.2c0.1,0.1,0.1,0.1,0.2,0.1c0.1,0,0.2,0,0.2-0.1c0.1-0.1,0.1-0.1,0.1-0.2
	c0-0.1,0-0.1-0.1-0.2c0,0-0.1-0.1-0.1-0.1c0,0-0.1,0-0.1,0c0,0-0.1,0-0.1,0c0,0-0.1,0-0.1,0.1c0,0,0,0,0,0c0,0,0,0,0,0c0,0,0,0,0,0
	C53.6,38.8,53.6,38.8,53.6,38.9C53.6,38.8,53.6,38.8,53.6,38.9C53.6,38.8,53.6,38.9,53.6,38.9 M54.8,39.8h-0.3c-0.1,0-0.3,0-0.4,0
	c-0.1,0-0.2-0.1-0.3-0.1c-0.2,0.1-0.5,0.2-0.7,0.2h-0.4c-0.1,0-0.1,0-0.1-0.1c0,0,0-0.1,0-0.2v0c0-0.1,0-0.1,0-0.2
	c0,0,0.1-0.1,0.1-0.1h0.4c-0.1-0.1-0.1-0.3-0.1-0.4c0-0.2,0.1-0.4,0.2-0.6c0.2-0.1,0.3-0.2,0.5-0.2c0.2,0,0.4,0.1,0.5,0.2
	c0,0,0.1,0.1,0.1,0.1c0,0,0.1,0.1,0.1,0.1c0,0,0,0.1,0,0.1c0,0.1,0,0.1,0,0.2c0,0.1,0,0.2,0,0.2c0,0.1-0.1,0.1-0.1,0.2h0.3
	c0,0,0,0,0,0c0,0,0,0,0,0c0,0,0,0,0,0c0,0,0,0,0,0c0,0,0,0,0,0c0,0,0,0,0,0c0,0,0,0,0,0v0c0,0,0,0,0,0c0,0,0,0,0,0c0,0,0,0,0,0
	c0,0,0,0,0,0c0,0,0,0,0,0C54.9,39.7,54.9,39.7,54.8,39.8C54.9,39.8,54.9,39.8,54.8,39.8C54.9,39.8,54.9,39.8,54.8,39.8
	C54.9,39.8,54.8,39.8,54.8,39.8z M53.6,37.4l0.2-0.2c0.1-0.1,0.1-0.1,0.2,0l0.2,0.2c0.1,0.1,0.1,0.1,0,0.2l-0.2,0.2
	c-0.1,0.1-0.1,0.1-0.2,0l-0.2-0.2C53.5,37.5,53.5,37.5,53.6,37.4z"/>
    <path class="st9" d="M56.5,39.8L56.5,39.8c-0.3,0-0.5-0.1-0.7-0.2c-0.2,0.2-0.4,0.2-0.7,0.2h-0.4c-0.1,0-0.1,0-0.1-0.1
	c0,0,0-0.1,0-0.2v0c0-0.1,0-0.1,0-0.2c0,0,0.1-0.1,0.1-0.1h0.4c0.1,0,0.2,0,0.3,0c0.1,0,0.1-0.1,0.1-0.1c0,0,0-0.1,0-0.2v-0.5v-0.1
	h0.1H56h0.1v0.1V39c0,0.1,0,0.2,0.1,0.2c0.1,0.1,0.2,0.1,0.3,0.1h0c0,0,0.1,0,0.1,0c0,0,0,0,0,0.1c0,0,0,0,0,0.1c0,0,0,0,0,0.1
	c0,0,0,0,0,0v0c0,0,0,0,0,0c0,0,0,0,0,0c0,0,0,0,0,0c0,0,0,0,0,0C56.6,39.7,56.6,39.7,56.5,39.8C56.6,39.8,56.6,39.8,56.5,39.8
	C56.6,39.8,56.6,39.8,56.5,39.8C56.6,39.8,56.5,39.8,56.5,39.8 M54.8,40.4l0.2-0.2c0.1-0.1,0.1-0.1,0.2,0l0.2,0.2
	c0.1,0.1,0.1,0.1,0,0.2l-0.2,0.2c-0.1,0.1-0.1,0.1-0.2,0l-0.2-0.2C54.8,40.5,54.8,40.4,54.8,40.4z M55.5,40.4l0.2-0.2
	c0.1-0.1,0.1-0.1,0.2,0l0.2,0.2c0.1,0.1,0.1,0.1,0,0.2l-0.2,0.2c-0.1,0.1-0.1,0.1-0.2,0l-0.2-0.2C55.5,40.5,55.5,40.4,55.5,40.4z"/>
    <path class="st9" d="M56.5,39.8c-0.1,0-0.1,0-0.1-0.1c0,0,0-0.1,0-0.2v0c0-0.1,0-0.1,0-0.2c0,0,0.1-0.1,0.1-0.1h0.7
	c0.2,0,0.3,0,0.3-0.1c0.1,0,0.1-0.1,0.1-0.1c0,0,0,0,0,0c0,0,0,0,0-0.1c0,0,0-0.1-0.1-0.1c0,0-0.1-0.1-0.1-0.1l-0.6-0.7
	c-0.1-0.1-0.1-0.2-0.1-0.3c0,0,0-0.1,0-0.1c0,0,0-0.1,0.1-0.1c0,0,0.1-0.1,0.1-0.1c0,0,0.1,0,0.1-0.1l1.2-0.4l0.1,0V37v0.4v0.1
	l-0.1,0l-1,0.3l0.5,0.6c0.2,0.3,0.3,0.5,0.3,0.7c0,0.2-0.1,0.4-0.2,0.5c-0.2,0.1-0.4,0.2-0.7,0.2H56.5z"/>
    <path class="st9" d="M60.1,38.4l0.2-0.2c0.1-0.1,0.1-0.1,0.2,0l0.2,0.2c0.1,0.1,0.1,0.1,0,0.2l-0.2,0.2c-0.1,0.1-0.1,0.1-0.2,0
	l-0.2-0.2C60.1,38.5,60.1,38.5,60.1,38.4 M62.2,39.8L62.2,39.8c-0.2,0-0.4,0-0.5-0.1c0,0.3-0.1,0.6-0.3,0.7
	c-0.2,0.2-0.5,0.2-0.9,0.2h-0.1c-0.6,0-1-0.2-1.1-0.6c-0.1-0.2-0.1-0.4-0.1-0.6v-0.7v-0.1h0.1h0.4h0.1v0.1v0.7
	c0,0.2,0.1,0.4,0.2,0.5c0.1,0.1,0.3,0.2,0.6,0.2h0.1c0.3,0,0.5,0,0.6-0.1c0.1-0.1,0.2-0.2,0.2-0.4v-1.2v-0.1h0.1h0.4h0.1v0.1v0.4
	c0,0.1,0,0.1,0,0.2c0,0,0,0.1,0.1,0.1c0,0,0.1,0.1,0.1,0.1c0,0,0.1,0,0.2,0h0.1c0,0,0.1,0,0.1,0c0,0,0,0,0,0.1c0,0,0,0,0,0.1
	c0,0,0,0,0,0.1c0,0,0,0,0,0v0c0,0.1,0,0.1,0,0.1C62.3,39.7,62.3,39.7,62.2,39.8C62.3,39.8,62.3,39.8,62.2,39.8
	C62.2,39.8,62.2,39.8,62.2,39.8z"/>
    <path class="st9" d="M63.9,39.8L63.9,39.8c-0.3,0-0.5-0.1-0.7-0.2c-0.2,0.2-0.4,0.2-0.7,0.2h-0.4c-0.1,0-0.1,0-0.1-0.1
	c0,0,0-0.1,0-0.2v0c0-0.1,0-0.1,0-0.2c0,0,0.1-0.1,0.1-0.1h0.4c0.1,0,0.2,0,0.3,0c0.1,0,0.1-0.1,0.1-0.1c0,0,0-0.1,0-0.2v-0.5v-0.1
	h0.1h0.4h0.1v0.1V39c0,0.1,0,0.2,0.1,0.2c0.1,0.1,0.2,0.1,0.3,0.1h0c0,0,0.1,0,0.1,0c0,0,0,0,0,0.1c0,0,0,0,0,0.1c0,0,0,0,0,0.1
	c0,0,0,0,0,0v0c0,0,0,0,0,0c0,0,0,0,0,0c0,0,0,0,0,0c0,0,0,0,0,0C64,39.7,64,39.7,63.9,39.8C64,39.8,64,39.8,63.9,39.8
	C64,39.8,64,39.8,63.9,39.8C63.9,39.8,63.9,39.8,63.9,39.8 M62.2,40.4l0.2-0.2c0.1-0.1,0.1-0.1,0.2,0l0.2,0.2c0.1,0.1,0.1,0.1,0,0.2
	l-0.2,0.2c-0.1,0.1-0.1,0.1-0.2,0l-0.2-0.2C62.1,40.5,62.1,40.4,62.2,40.4z M62.9,40.4l0.2-0.2c0.1-0.1,0.1-0.1,0.2,0l0.2,0.2
	c0.1,0.1,0.1,0.1,0,0.2l-0.2,0.2c-0.1,0.1-0.1,0.1-0.2,0l-0.2-0.2C62.8,40.5,62.8,40.4,62.9,40.4z"/>
    <path class="st9" d="M65,38.6c-0.1,0-0.2,0-0.2,0.1c0,0.1-0.1,0.1-0.1,0.3c0,0,0,0.1,0,0.1c0,0,0,0.1,0,0.1c0,0,0,0,0,0.1
	c0,0,0,0,0,0c0,0,0,0,0,0c0,0,0,0,0,0c0,0,0,0,0.1,0c0,0,0,0,0.1,0c0.1,0,0.1,0,0.2-0.1c0-0.1,0.1-0.1,0.1-0.3c0,0,0-0.1,0-0.1
	c0,0,0-0.1,0-0.1c0,0,0,0,0-0.1c0,0,0,0,0,0c0,0,0,0,0,0C65.1,38.7,65.1,38.6,65,38.6C65,38.6,65,38.6,65,38.6 M66,39.8L66,39.8
	c-0.2,0-0.4,0-0.5-0.1c-0.1,0.1-0.3,0.2-0.5,0.2c-0.2,0-0.4-0.1-0.5-0.2c0,0,0,0-0.1,0c0,0-0.1,0-0.1,0c0,0-0.1,0-0.1,0
	c0,0-0.1,0-0.1,0s-0.1,0-0.1,0h-0.1c-0.1,0-0.1,0-0.1-0.1c0,0,0-0.1,0-0.2v0c0-0.1,0-0.1,0-0.2c0,0,0.1-0.1,0.1-0.1H64
	c0.2,0,0.2,0,0.2-0.1c0-0.3,0-0.5,0.1-0.6c0.1-0.1,0.1-0.2,0.3-0.3c0.1-0.1,0.3-0.1,0.4-0.1c0.2,0,0.3,0,0.4,0.1
	c0.1,0.1,0.2,0.2,0.2,0.3c0,0.1,0.1,0.3,0.1,0.6c0,0,0,0.1,0,0.1c0,0,0.1,0,0.2,0H66c0,0,0.1,0,0.1,0c0,0,0,0,0,0.1c0,0,0,0,0,0.1
	c0,0,0,0,0,0.1c0,0,0,0,0,0v0c0,0,0,0,0,0c0,0,0,0,0,0c0,0,0,0,0,0c0,0,0,0,0,0C66.1,39.7,66.1,39.7,66,39.8
	C66.1,39.8,66.1,39.8,66,39.8C66.1,39.8,66,39.8,66,39.8C66,39.8,66,39.8,66,39.8z"/>
    <path class="st9" d="M68.2,38.6c-0.1,0-0.1,0-0.2,0.1c-0.1,0-0.1,0.1-0.2,0.2c-0.1,0.1-0.2,0.2-0.2,0.4l0.6,0c0.2,0,0.3,0,0.4-0.1
	c0,0,0.1-0.1,0.1-0.2c0,0,0,0,0,0c0,0,0,0,0,0c0,0,0,0,0,0s0,0,0,0c0-0.1-0.1-0.2-0.1-0.2C68.4,38.6,68.4,38.6,68.2,38.6 M68.2,39.8
	h-0.7c-0.4,0-0.6-0.1-0.8-0.2c-0.1,0.2-0.3,0.2-0.6,0.2H66c-0.1,0-0.1,0-0.1-0.1c0,0,0-0.1,0-0.2v0c0-0.1,0-0.1,0-0.2
	c0,0,0.1-0.1,0.1-0.1h0.1c0.1,0,0.2,0,0.3-0.1c0.1-0.1,0.1-0.1,0.1-0.3v-0.5v-0.1h0.1h0.3h0.1v0.1l0,0.5c0,0.1,0,0.2,0,0.2
	c0,0,0.1,0.1,0.1,0.1c0.3-0.8,0.7-1.1,1.2-1.1c0.3,0,0.5,0.1,0.7,0.3c0.1,0.1,0.1,0.2,0.1,0.3c0,0.1,0,0.2,0,0.3c0,0.1,0,0.1,0,0.2
	c0.1,0,0.1,0.1,0.3,0.1h0c0,0,0,0,0,0c0,0,0,0,0,0c0,0,0,0,0,0c0,0,0,0,0,0.1c0,0,0,0,0,0c0,0,0,0,0,0c0,0,0,0,0,0v0c0,0,0,0,0,0
	c0,0,0,0,0,0c0,0,0,0,0,0c0,0,0,0,0,0c0,0,0,0,0,0c0,0,0,0,0,0c0,0,0,0,0,0h-0.1c-0.2,0-0.4-0.1-0.6-0.2
	C68.6,39.7,68.4,39.8,68.2,39.8z M67.8,37.4l0.2-0.2c0.1-0.1,0.1-0.1,0.2,0l0.2,0.2c0.1,0.1,0.1,0.1,0,0.2l-0.2,0.2
	c-0.1,0.1-0.1,0.1-0.2,0l-0.2-0.2C67.8,37.5,67.8,37.4,67.8,37.4z"/>
    <path class="st9" d="M69.5,37.6l0.2-0.2c0.1-0.1,0.1-0.1,0.2,0l0.2,0.2c0.1,0.1,0.1,0.1,0,0.2l-0.2,0.2c-0.1,0.1-0.1,0.1-0.2,0
	l-0.2-0.2C69.4,37.7,69.4,37.6,69.5,37.6 M70.2,37.6l0.2-0.2c0.1-0.1,0.1-0.1,0.2,0l0.2,0.2c0.1,0.1,0.1,0.1,0,0.2l-0.2,0.2
	c-0.1,0.1-0.1,0.1-0.2,0l-0.2-0.2C70.1,37.7,70.1,37.6,70.2,37.6z M69.4,39.8c-0.1,0-0.1,0-0.1-0.1c0,0,0-0.1,0-0.2v0
	c0-0.1,0-0.1,0-0.2c0,0,0.1-0.1,0.1-0.1h0.5c0.1,0,0.2,0,0.3-0.1c0.1,0,0.1-0.1,0.1-0.2v-0.6v-0.1h0.1h0.3h0.1v0.1V39
	c0,0.3-0.1,0.5-0.2,0.6c-0.1,0.1-0.3,0.2-0.6,0.2H69.4z"/>
    <path class="st9" d="M51.5,44.5c0,0.3-0.1,0.5-0.2,0.6c-0.1,0.1-0.3,0.2-0.6,0.2h-0.9h-0.1v-0.1v-0.4v-0.1h0.1h0.9
	c0.1,0,0.2,0,0.3-0.1c0.1-0.1,0.1-0.2,0.1-0.3v-1.7v-0.1h0.1h0.3h0.1v0.1V44.5z M49.8,42.8h0.3h0.1v0.1v1.7v0.1h-0.1h-0.3h-0.1v-0.1
	L49.8,42.8L49.8,42.8L49.8,42.8z"/>
    <path class="st9" d="M52.8,45.4h-0.2c-0.2,0-0.4-0.1-0.5-0.2C52,45,52,44.8,52,44.6v-1.8v-0.1H52h0.3h0.1v0.1v1.8c0,0.1,0,0.1,0,0.2
	c0,0,0,0.1,0.1,0.1c0,0,0.1,0,0.1,0h0.1c0,0,0.1,0,0.1,0c0,0,0,0,0,0.1c0,0,0,0,0,0.1c0,0,0,0,0,0.1c0,0,0,0,0,0v0
	c0,0.1,0,0.1,0,0.1C52.9,45.3,52.9,45.4,52.8,45.4"/>
    <path class="st9" d="M52.8,45.4c-0.1,0-0.1,0-0.1-0.1c0,0,0-0.1,0-0.2v0c0-0.1,0-0.1,0-0.2c0,0,0.1-0.1,0.1-0.1h0.7
	c0.2,0,0.3,0,0.3-0.1c0.1,0,0.1-0.1,0.1-0.1c0,0,0,0,0,0c0,0,0,0,0-0.1c0,0,0-0.1-0.1-0.1c0,0-0.1-0.1-0.1-0.1l-0.6-0.7
	c-0.1-0.1-0.1-0.2-0.1-0.3c0,0,0-0.1,0-0.1c0,0,0-0.1,0.1-0.1c0,0,0.1-0.1,0.1-0.1c0,0,0.1,0,0.1-0.1l1.2-0.4l0.1,0v0.1V43V43
	l-0.1,0l-1,0.3L54,44c0.2,0.3,0.3,0.5,0.3,0.7c0,0.2-0.1,0.4-0.2,0.5c-0.2,0.1-0.4,0.2-0.7,0.2H52.8z"/>
    <path class="st9" d="M56.4,44.9H58c0.2,0,0.3,0,0.4-0.1c0.1-0.1,0.1-0.2,0.1-0.3V44V44h0.1h0.4H59V44v0.5c0,0.1,0,0.2,0,0.2
	s0.1,0.1,0.1,0.1c0.1,0,0.1,0,0.2,0h0c0,0,0.1,0,0.1,0c0,0,0,0,0,0.1c0,0,0,0,0,0.1c0,0,0,0,0,0.1c0,0,0,0,0,0v0c0,0,0,0,0,0
	c0,0,0,0,0,0c0,0,0,0,0,0c0,0,0,0,0,0c0,0,0,0,0,0c0,0,0,0,0,0c0,0,0,0,0,0h0c-0.1,0-0.3,0-0.4-0.1c-0.1,0-0.2-0.1-0.3-0.2
	c-0.1,0.2-0.4,0.3-0.7,0.3h-1.6c-0.3,0-0.5-0.1-0.7-0.2c-0.2-0.2-0.2-0.4-0.2-0.7V44V44h0.1h0.3h0.1V44v0.4c0,0.2,0,0.3,0.1,0.3
	C56.1,44.8,56.2,44.9,56.4,44.9 M56.6,43.4l0.2-0.2c0.1-0.1,0.1-0.1,0.2,0l0.2,0.2c0.1,0.1,0.1,0.1,0,0.2l-0.2,0.2
	c-0.1,0.1-0.1,0.1-0.2,0l-0.2-0.2C56.5,43.5,56.5,43.5,56.6,43.4z M57.3,43.4l0.2-0.2c0.1-0.1,0.1-0.1,0.2,0l0.2,0.2
	c0.1,0.1,0.1,0.1,0,0.2l-0.2,0.2c-0.1,0.1-0.1,0.1-0.2,0l-0.2-0.2C57.2,43.5,57.3,43.5,57.3,43.4z"/>
    <path class="st9" d="M59.4,45.4c-0.1,0-0.1,0-0.1-0.1c0,0,0-0.1,0-0.2v0c0-0.1,0-0.1,0-0.2c0,0,0.1-0.1,0.1-0.1h0.2
	c0.1,0,0.1,0,0.1,0c0,0,0.1,0,0.1-0.1c0,0,0-0.1,0.1-0.1c0,0,0-0.1,0-0.1v-1.8v-0.1H60h0.3h0.1v0.1v1.8c0,0.3-0.1,0.5-0.2,0.6
	c-0.1,0.1-0.3,0.2-0.6,0.2H59.4z"/>
    <path class="st9" d="M61.7,45.4h-0.2c-0.2,0-0.4-0.1-0.5-0.2c-0.1-0.1-0.2-0.3-0.2-0.6v-1.8v-0.1h0.1h0.3h0.1v0.1v1.8
	c0,0.1,0,0.1,0,0.2c0,0,0,0.1,0.1,0.1c0,0,0.1,0,0.1,0h0.1c0,0,0.1,0,0.1,0c0,0,0,0,0,0.1c0,0,0,0,0,0.1c0,0,0,0,0,0.1c0,0,0,0,0,0
	v0c0,0.1,0,0.1,0,0.1C61.8,45.3,61.8,45.4,61.7,45.4"/>
    <path class="st9" d="M64.4,44.5c0,0,0-0.1,0-0.1c0,0,0-0.1-0.1-0.1c0,0-0.1,0-0.1-0.1c0,0-0.1,0-0.1,0c-0.1,0-0.2,0.1-0.3,0.2
	c-0.1,0.1-0.2,0.3-0.3,0.5h0.6c0.2,0,0.3,0,0.4-0.1c0,0,0.1-0.1,0.1-0.2C64.4,44.6,64.4,44.6,64.4,44.5
	C64.4,44.5,64.4,44.5,64.4,44.5 M64.6,45.2c-0.2,0.1-0.4,0.2-0.7,0.2h-0.7c-0.4,0-0.6-0.1-0.8-0.2c-0.1,0.2-0.3,0.2-0.6,0.2h-0.1
	c-0.1,0-0.1,0-0.1-0.1c0,0,0-0.1,0-0.2v0c0-0.1,0-0.1,0-0.2c0,0,0.1-0.1,0.1-0.1h0.1c0.1,0,0.2,0,0.3-0.1c0.1-0.1,0.1-0.1,0.1-0.3
	V44V44h0.1h0.3h0.1V44l0,0.5c0,0.1,0,0.1,0,0.2c0,0,0,0.1,0,0.1c0,0,0,0,0.1,0c0.3-0.8,0.7-1.1,1.2-1.1c0.1,0,0.3,0,0.4,0.1
	c0.1,0.1,0.2,0.1,0.3,0.2c0.1,0.2,0.2,0.3,0.2,0.6C64.9,44.8,64.8,45,64.6,45.2z"/>
    <polygon class="st9" points="65.3,42.7 65.6,42.7 65.7,42.7 65.7,42.8 65.7,45.3 65.7,45.4 65.6,45.4 65.3,45.4 65.2,45.4
	65.2,45.3 65.2,42.8 65.2,42.7 "/>
    <path class="st9" d="M67.2,44.6c0,0.1,0,0.2,0.1,0.2c0,0,0.1,0.1,0.2,0.1h0.3l0-0.3c0-0.1,0-0.2-0.1-0.3c0-0.1-0.1-0.1-0.2-0.1
	c-0.1,0-0.2,0-0.2,0.1C67.2,44.4,67.2,44.5,67.2,44.6 M68.2,44.6v0.7c0,0.3-0.1,0.6-0.3,0.7c-0.2,0.2-0.5,0.2-0.9,0.2h-0.1h-0.1
	v-0.1v-0.4v-0.1h0.1H67c0.2,0,0.4,0,0.5-0.1c0.1-0.1,0.2-0.2,0.2-0.3h-0.2c-0.2,0-0.4-0.1-0.6-0.2c-0.1-0.1-0.2-0.3-0.2-0.6
	c0-0.3,0.1-0.5,0.2-0.6c0.1-0.1,0.1-0.1,0.2-0.2c0.1,0,0.2-0.1,0.3-0.1c0.2,0,0.4,0.1,0.5,0.2C68.2,44.1,68.2,44.3,68.2,44.6z"/>
    <path class="st79" d="M16.6,1.8C25,1.8,31.8,8.6,31.8,17c0,8.4-6.8,15.2-15.2,15.2C8.2,32.1,1.5,25.3,1.5,17
	C1.5,8.6,8.2,1.8,16.6,1.8"/>
    <path class="st79" d="M103,1.8c8.4,0,15.2,6.8,15.2,15.2c0,8.4-6.8,15.2-15.2,15.2c-8.4,0-15.2-6.8-15.2-15.2
	C87.8,8.6,94.6,1.8,103,1.8"/>
    <path class="st79" d="M147,1.8c8.4,0,15.2,6.8,15.2,15.2c0,8.4-6.8,15.2-15.2,15.2c-8.4,0-15.2-6.8-15.2-15.2
	C131.8,8.6,138.6,1.8,147,1.8"/>
    <path class="st79" d="M59,1.8c8.4,0,15.2,6.8,15.2,15.2c0,8.4-6.8,15.2-15.2,15.2c-8.4,0-15.2-6.8-15.2-15.2
	C43.8,8.6,50.6,1.8,59,1.8"/>
    <path class="st79" d="M59,1.8c8.4,0,15.2,6.8,15.2,15.2c0,8.4-6.8,15.2-15.2,15.2c-8.4,0-15.2-6.8-15.2-15.2
	C43.8,8.6,50.6,1.8,59,1.8"/>
    <path class="st9" d="M6.7,38.7C6.7,38.6,6.7,38.6,6.7,38.7C6.7,38.6,6.7,38.6,6.7,38.7c-0.1-0.1-0.1-0.1-0.1-0.1c0,0-0.1,0-0.1,0
	c-0.1,0-0.1,0-0.2,0c-0.1,0-0.2,0-0.2,0c-0.1,0-0.1,0-0.1,0c0,0,0,0,0,0c0,0,0,0,0.1,0.1c0,0,0.1,0.1,0.1,0.1c0,0,0.1,0,0.1,0.1
	c0,0,0,0,0.1,0c0,0,0,0,0,0c0,0,0,0,0,0c0,0,0,0,0,0c0,0,0,0,0,0c0,0,0,0,0,0c0.2-0.1,0.3-0.1,0.3-0.2C6.6,38.8,6.6,38.8,6.7,38.7
	C6.7,38.7,6.7,38.7,6.7,38.7C6.7,38.7,6.7,38.7,6.7,38.7 M5,40.1c0-0.2,0.1-0.4,0.2-0.6c0.1-0.1,0.1-0.1,0.2-0.2
	c0.1-0.1,0.2-0.1,0.3-0.2c-0.2-0.1-0.3-0.2-0.3-0.3c-0.1-0.1-0.1-0.2-0.1-0.3c0-0.2,0.1-0.3,0.3-0.4c0.1-0.1,0.3-0.1,0.6-0.1
	c0.4,0,0.7,0.1,0.8,0.2c0.1,0.1,0.1,0.1,0.1,0.2c0,0.1,0,0.1,0,0.2c0,0.2-0.2,0.4-0.5,0.6c0.1,0,0.1,0,0.2,0c0.1,0,0.2,0,0.3,0h0.2
	c0,0,0.1,0,0.1,0c0,0,0,0,0,0.1c0,0,0,0,0,0.1c0,0,0,0,0,0.1c0,0,0,0,0,0v0c0,0.1,0,0.1,0,0.1c0,0,0,0,0,0c0,0,0,0,0,0
	c0,0,0,0-0.1,0H7.2c-0.4,0-0.7-0.1-1-0.3c-0.2,0.1-0.4,0.2-0.5,0.3c-0.1,0.1-0.2,0.2-0.2,0.3c0,0,0,0,0,0c0,0.1,0,0.2,0.1,0.3
	c0,0.1,0.1,0.1,0.2,0.2c0.1,0.1,0.2,0.1,0.3,0.1c0.1,0,0.3,0,0.4,0h0.6h0.1v0.1v0.4v0.1l-0.1,0H6.5c-0.5,0-0.9-0.1-1.1-0.3
	C5.1,40.7,5,40.4,5,40.1z"/>
    <path class="st9" d="M7.4,39.8c-0.1,0-0.1,0-0.1-0.1c0,0,0-0.1,0-0.2v0c0-0.1,0-0.1,0-0.2c0,0,0.1-0.1,0.1-0.1h0.5
	c0.1,0,0.2,0,0.3-0.1c0.1,0,0.1-0.1,0.1-0.2v-0.6v-0.1h0.1h0.3h0.1v0.1V39c0,0.3-0.1,0.5-0.2,0.6c-0.1,0.1-0.3,0.2-0.6,0.2H7.4z
	 M7.3,40.4l0.2-0.2c0.1-0.1,0.1-0.1,0.2,0l0.2,0.2c0.1,0.1,0.1,0.1,0,0.2l-0.2,0.2c-0.1,0.1-0.1,0.1-0.2,0l-0.2-0.2
	C7.3,40.5,7.3,40.4,7.3,40.4z M8.1,40.4l0.2-0.2c0.1-0.1,0.1-0.1,0.2,0l0.2,0.2c0.1,0.1,0.1,0.1,0,0.2l-0.2,0.2
	c-0.1,0.1-0.1,0.1-0.2,0L8,40.5C8,40.5,8,40.4,8.1,40.4z"/>
    <path class="st9" d="M10.6,39.8L10.6,39.8c-0.2,0-0.3,0-0.3,0c0,0,0,0-0.1,0c0,0.3-0.1,0.6-0.3,0.7c-0.2,0.2-0.5,0.3-0.8,0.2H8.8
	H8.8v-0.1v-0.4v-0.1h0.1H9c0.2,0,0.4-0.1,0.5-0.2c0.1-0.1,0.2-0.3,0.2-0.5v-1v-0.1l0.1,0l0.3,0h0.1v0.1V39c0,0.1,0,0.2,0.1,0.3
	c0.1,0.1,0.1,0.1,0.3,0.1h0c0,0,0.1,0,0.1,0c0,0,0,0,0,0.1c0,0,0,0,0,0.1c0,0,0,0,0,0.1c0,0,0,0,0,0v0c0,0,0,0,0,0c0,0,0,0,0,0.1
	S10.7,39.7,10.6,39.8C10.7,39.7,10.6,39.8,10.6,39.8C10.6,39.8,10.6,39.8,10.6,39.8"/>
    <path class="st9" d="M12.8,39c0,0.1,0,0.2,0.1,0.2c0,0,0.1,0.1,0.2,0.1c0.1,0,0.1,0,0.1,0c0,0,0.1-0.1,0.1-0.1c0,0,0-0.1,0-0.2v-0.6
	v-0.1h0.1h0.3h0.1v0.1V39c0,0.2,0,0.3-0.1,0.4c-0.1,0.1-0.1,0.2-0.2,0.3c-0.1,0.1-0.2,0.1-0.4,0.1c-0.2,0-0.4-0.1-0.5-0.2
	c-0.1,0.1-0.3,0.2-0.6,0.2c-0.2,0-0.4-0.1-0.5-0.2c-0.1,0.2-0.4,0.2-0.6,0.2h-0.2c-0.1,0-0.1,0-0.1-0.1c0,0,0-0.1,0-0.2v0
	c0-0.1,0-0.1,0-0.2c0,0,0.1-0.1,0.1-0.1h0.2c0.1,0,0.2,0,0.3-0.1c0.1-0.1,0.1-0.1,0.1-0.2v-0.5v-0.1h0.1h0.4h0.1v0.1l0,0.5
	c0,0,0,0.1,0,0.1c0,0,0,0.1,0,0.1c0,0,0,0,0,0.1c0,0,0,0,0,0c0,0,0,0,0.1,0c0,0,0,0,0.1,0c0,0,0.1,0,0.1,0c0.1,0,0.1,0,0.1,0
	c0,0,0.1,0,0.1-0.1c0,0,0-0.1,0.1-0.1c0,0,0-0.1,0-0.1l0-0.5v-0.1h0.1h0.3h0.1v0.1L12.8,39z"/>
    <path class="st9" d="M17.5,39.8h-0.1v0.1c0,0.3-0.1,0.5-0.3,0.6c-0.2,0.1-0.5,0.2-0.9,0.2H16c-0.6,0-1-0.2-1.1-0.6
	c-0.1-0.2-0.1-0.4-0.1-0.6v-0.7v-0.1h0.1l0.3,0h0.1v0.1v0.7c0,0.2,0.1,0.4,0.2,0.5c0.1,0.1,0.3,0.2,0.6,0.2h0.2c0.2,0,0.3,0,0.4,0
	c0.1,0,0.2-0.1,0.2-0.1c0,0,0.1-0.1,0.1-0.2v-0.1h-0.4c0,0-0.1,0-0.1,0c0,0,0,0-0.1-0.1c0,0,0,0,0-0.1c0,0,0-0.1,0-0.1
	c0,0,0,0,0-0.1c0,0,0,0,0-0.1c0,0,0,0,0-0.1c0,0,0,0,0,0c0,0,0,0,0.1,0l0,0h0h1.2c0,0,0.1,0,0.1,0c0,0,0,0,0,0.1c0,0,0,0,0,0.1
	c0,0,0,0,0,0.1c0,0,0,0,0,0v0c0,0,0,0,0,0c0,0,0,0,0,0C17.6,39.7,17.6,39.7,17.5,39.8C17.6,39.7,17.6,39.7,17.5,39.8
	C17.6,39.7,17.6,39.8,17.5,39.8C17.5,39.8,17.5,39.8,17.5,39.8"/>
    <path class="st9" d="M18,37.6l0.2-0.2c0.1-0.1,0.1-0.1,0.2,0l0.2,0.2c0.1,0.1,0.1,0.1,0,0.2l-0.2,0.2c-0.1,0.1-0.1,0.1-0.2,0
	L18,37.7C17.9,37.7,17.9,37.6,18,37.6 M17.5,39.8c-0.1,0-0.1,0-0.1-0.1c0,0,0-0.1,0-0.2v0c0-0.1,0-0.1,0-0.2c0,0,0.1-0.1,0.1-0.1
	h0.4c0.1,0,0.2,0,0.3-0.1c0.1,0,0.1-0.1,0.1-0.2v-0.6v-0.1h0.1h0.3h0.1v0.1V39c0,0.3-0.1,0.5-0.2,0.6c-0.1,0.1-0.3,0.2-0.6,0.2H17.5
	z"/>
    <path class="st9" d="M19.9,39.8h-0.2c-0.2,0-0.4-0.1-0.5-0.2c-0.1-0.1-0.2-0.3-0.2-0.6v-1.8v-0.1h0.1h0.3h0.1v0.1V39
	c0,0.1,0,0.1,0,0.2c0,0,0,0.1,0.1,0.1c0,0,0.1,0,0.1,0h0.1c0,0,0.1,0,0.1,0c0,0,0,0,0,0.1c0,0,0,0,0,0.1c0,0,0,0,0,0.1c0,0,0,0,0,0
	v0c0,0.1,0,0.1,0,0.1C20,39.8,20,39.8,19.9,39.8"/>
    <path class="st9" d="M21.6,39.8L21.6,39.8c-0.3,0-0.5-0.1-0.7-0.2c-0.2,0.2-0.4,0.2-0.7,0.2h-0.4c-0.1,0-0.1,0-0.1-0.1
	c0,0,0-0.1,0-0.2v0c0-0.1,0-0.1,0-0.2c0,0,0.1-0.1,0.1-0.1h0.4c0.1,0,0.2,0,0.3,0s0.1-0.1,0.1-0.1c0,0,0-0.1,0-0.2v-0.5v-0.1h0.1
	h0.4h0.1v0.1V39c0,0.1,0,0.2,0.1,0.2c0.1,0.1,0.2,0.1,0.3,0.1h0c0,0,0.1,0,0.1,0c0,0,0,0,0,0.1c0,0,0,0,0,0.1c0,0,0,0,0,0.1
	c0,0,0,0,0,0v0c0,0,0,0,0,0c0,0,0,0,0,0c0,0,0,0,0,0c0,0,0,0,0,0C21.8,39.7,21.7,39.7,21.6,39.8C21.7,39.8,21.7,39.8,21.6,39.8
	C21.7,39.8,21.7,39.8,21.6,39.8C21.7,39.8,21.7,39.8,21.6,39.8 M19.9,40.4l0.2-0.2c0.1-0.1,0.1-0.1,0.2,0l0.2,0.2
	c0.1,0.1,0.1,0.1,0,0.2l-0.2,0.2c-0.1,0.1-0.1,0.1-0.2,0l-0.2-0.2C19.9,40.5,19.9,40.4,19.9,40.4z M20.6,40.4l0.2-0.2
	c0.1-0.1,0.1-0.1,0.2,0l0.2,0.2c0.1,0.1,0.1,0.1,0,0.2L21,40.7c-0.1,0.1-0.1,0.1-0.2,0l-0.2-0.2C20.6,40.5,20.6,40.4,20.6,40.4z"/>
    <path class="st9" d="M23.4,39.8L23.4,39.8c-0.3,0-0.5-0.1-0.7-0.2c-0.2,0.2-0.4,0.2-0.7,0.2h-0.4c-0.1,0-0.1,0-0.1-0.1
	c0,0,0-0.1,0-0.2v0c0-0.1,0-0.1,0-0.2c0,0,0.1-0.1,0.1-0.1H22c0.1,0,0.2,0,0.3,0s0.1-0.1,0.1-0.1c0,0,0-0.1,0-0.2v-0.5v-0.1h0.1h0.4
	h0.1v0.1V39c0,0.1,0,0.2,0.1,0.2c0.1,0.1,0.2,0.1,0.3,0.1h0c0,0,0.1,0,0.1,0c0,0,0,0,0,0.1c0,0,0,0,0,0.1c0,0,0,0,0,0.1c0,0,0,0,0,0
	v0c0,0,0,0,0,0c0,0,0,0,0,0c0,0,0,0,0,0c0,0,0,0,0,0C23.5,39.7,23.5,39.7,23.4,39.8C23.4,39.8,23.4,39.8,23.4,39.8
	C23.4,39.8,23.4,39.8,23.4,39.8C23.4,39.8,23.4,39.8,23.4,39.8 M21.8,37.6l0.2-0.2c0.1-0.1,0.1-0.1,0.2,0l0.2,0.2
	c0.1,0.1,0.1,0.1,0,0.2l-0.2,0.2c-0.1,0.1-0.1,0.1-0.2,0l-0.2-0.2C21.7,37.7,21.7,37.6,21.8,37.6z M22.5,37.6l0.2-0.2
	c0.1-0.1,0.1-0.1,0.2,0l0.2,0.2c0.1,0.1,0.1,0.1,0,0.2l-0.2,0.2c-0.1,0.1-0.1,0.1-0.2,0l-0.2-0.2C22.4,37.7,22.4,37.6,22.5,37.6z"/>
    <path class="st9" d="M26.5,39c0,0.1,0,0.2,0.1,0.2c0.1,0.1,0.2,0.1,0.3,0.1h0.1c0,0,0,0,0.1,0c0,0,0,0,0,0.1c0,0,0,0,0,0.1
	c0,0,0,0,0,0.1c0,0,0,0,0,0v0c0,0,0,0,0,0c0,0,0,0,0,0c0,0,0,0,0,0.1c0,0,0,0,0,0c0,0,0,0,0,0c0,0,0,0-0.1,0h0c-0.1,0-0.3,0-0.4-0.1
	c-0.1,0-0.2-0.1-0.3-0.2c-0.1,0.1-0.1,0.1-0.2,0.2c-0.1,0-0.2,0.1-0.3,0.1c-0.1,0-0.2,0-0.3-0.1c-0.1,0-0.1-0.1-0.2-0.1
	c-0.1,0.1-0.3,0.2-0.5,0.2c-0.2,0-0.4-0.1-0.5-0.2c-0.1,0.2-0.4,0.2-0.6,0.2h-0.2c-0.1,0-0.1,0-0.1-0.1c0,0,0-0.1,0-0.2v0
	c0-0.1,0-0.1,0-0.2c0,0,0.1-0.1,0.1-0.1h0.2c0.1,0,0.2,0,0.3-0.1c0.1-0.1,0.1-0.1,0.1-0.2v-0.5v-0.1H24h0.4h0.1v0.1l0,0.5
	c0,0.1,0,0.2,0.1,0.2c0,0,0.1,0.1,0.2,0.1c0.1,0,0.2,0,0.2-0.1c0,0,0.1-0.1,0.1-0.2v-0.5v-0.1h0.1h0.4h0.1v0.1l0,0.5
	c0,0.1,0,0.2,0.1,0.2c0,0,0.1,0.1,0.2,0.1c0.1,0,0.2,0,0.2-0.1c0,0,0.1-0.1,0.1-0.2v-0.5v-0.1h0.1h0.3h0.1v0.1L26.5,39z M24.9,37.1
	l0.2-0.2c0.1-0.1,0.1-0.1,0.2,0l0.2,0.2c0.1,0.1,0.1,0.1,0,0.2l-0.2,0.2c-0.1,0.1-0.1,0.1-0.2,0l-0.2-0.2
	C24.9,37.2,24.9,37.2,24.9,37.1z M24.6,37.7l0.2-0.2c0.1-0.1,0.1-0.1,0.2,0l0.2,0.2c0.1,0.1,0.1,0.1,0,0.2L24.9,38
	c-0.1,0.1-0.1,0.1-0.2,0l-0.2-0.2C24.5,37.8,24.5,37.7,24.6,37.7z M25.3,37.7l0.2-0.2c0.1-0.1,0.1-0.1,0.2,0l0.2,0.2
	c0.1,0.1,0.1,0.1,0,0.2L25.6,38c-0.1,0.1-0.1,0.1-0.2,0l-0.2-0.2C25.2,37.8,25.2,37.7,25.3,37.7z"/>
    <path class="st9" d="M26.9,39.8c-0.1,0-0.1,0-0.1-0.1c0,0,0-0.1,0-0.2v0c0-0.1,0-0.1,0-0.2c0,0,0.1-0.1,0.1-0.1h0.5
	c0.1,0,0.2,0,0.3-0.1c0.1,0,0.1-0.1,0.1-0.2v-0.6v-0.1h0.1h0.3h0.1v0.1V39c0,0.3-0.1,0.5-0.2,0.6c-0.1,0.1-0.3,0.2-0.6,0.2H26.9z
	 M27.2,41c-0.1-0.1-0.1-0.1,0-0.2l0.2-0.2c0.1-0.1,0.1,0,0.2,0l0.2,0.2c0.1,0.1,0.1,0.1,0,0.2l-0.2,0.2c0,0-0.1,0-0.2,0L27.2,41z
	 M26.9,40.5c-0.1-0.1-0.1-0.1,0-0.2l0.2-0.2c0.1-0.1,0.1-0.1,0.2,0l0.2,0.2c0.1,0.1,0.1,0.1,0,0.2l-0.2,0.2c0,0-0.1,0-0.2,0
	L26.9,40.5z M27.6,40.5c-0.1-0.1-0.1-0.1,0-0.2l0.2-0.2c0.1-0.1,0.1-0.1,0.2,0l0.2,0.2c0.1,0.1,0.1,0.1,0,0.2l-0.2,0.2
	c0,0-0.1,0-0.2,0L27.6,40.5z"/>
    <path class="st9" d="M93.3,39.8c-0.1,0-0.2,0-0.3-0.1c0,0.3-0.1,0.6-0.3,0.7c-0.2,0.2-0.5,0.2-0.9,0.2h-0.1c-0.6,0-1-0.2-1.1-0.6
	c-0.1-0.2-0.1-0.4-0.1-0.6v-0.7v-0.1h0.1h0.4h0.1v0.1v0.7c0,0.2,0.1,0.4,0.2,0.5c0.1,0.1,0.3,0.2,0.6,0.2h0.1c0.3,0,0.5,0,0.6-0.1
	c0.1-0.1,0.2-0.2,0.2-0.4v-1.2v-0.1h0.1h0.4h0.1v0.1v0.5c0,0.1,0,0.2,0.1,0.3c0,0.1,0.1,0.1,0.2,0.1c0.1,0,0.1,0,0.2,0
	c0,0,0.1-0.1,0.1-0.1c0,0,0-0.1,0-0.2v-0.5v-0.1h0.1h0.3H94v0.1l0,0.5c0,0.1,0,0.2,0.1,0.2c0,0,0.1,0.1,0.2,0.1c0,0,0.1,0,0.1,0
	c0,0,0.1,0,0.1-0.1c0,0,0-0.1,0-0.1c0,0,0-0.1,0-0.1v-0.6v-0.1h0.1h0.3H95v0.1V39c0,0.3-0.1,0.5-0.2,0.6c-0.1,0.1-0.3,0.2-0.5,0.2
	c-0.2,0-0.4-0.1-0.5-0.2c0,0,0,0.1-0.1,0.1c0,0-0.1,0-0.1,0.1c0,0-0.1,0-0.1,0c0,0-0.1,0-0.1,0C93.3,39.8,93.3,39.8,93.3,39.8"/>
    <path class="st9" d="M96.6,39.8L96.6,39.8c-0.2,0-0.3,0-0.3,0c0,0,0,0-0.1,0c0,0.3-0.1,0.6-0.3,0.7c-0.2,0.2-0.5,0.3-0.8,0.2h-0.1
	h-0.1v-0.1v-0.4v-0.1h0.1H95c0.2,0,0.4-0.1,0.5-0.2c0.1-0.1,0.2-0.3,0.2-0.5v-1v-0.1l0.1,0l0.3,0h0.1v0.1V39c0,0.1,0,0.2,0.1,0.3
	c0.1,0.1,0.1,0.1,0.3,0.1h0c0,0,0.1,0,0.1,0c0,0,0,0,0,0.1c0,0,0,0,0,0.1c0,0,0,0,0,0.1c0,0,0,0,0,0v0c0,0,0,0,0,0c0,0,0,0,0,0.1
	C96.7,39.7,96.7,39.7,96.6,39.8C96.7,39.7,96.7,39.8,96.6,39.8C96.6,39.8,96.6,39.8,96.6,39.8"/>
    <path class="st9" d="M98.4,39.8L98.4,39.8c-0.3,0-0.5-0.1-0.7-0.2c-0.2,0.2-0.4,0.2-0.7,0.2h-0.4c-0.1,0-0.1,0-0.1-0.1
	c0,0,0-0.1,0-0.2v0c0-0.1,0-0.1,0-0.2c0,0,0.1-0.1,0.1-0.1h0.4c0.1,0,0.2,0,0.3,0c0.1,0,0.1-0.1,0.1-0.1c0,0,0-0.1,0-0.2v-0.5v-0.1
	h0.1h0.4H98v0.1V39c0,0.1,0,0.2,0.1,0.2c0.1,0.1,0.2,0.1,0.3,0.1h0c0,0,0.1,0,0.1,0c0,0,0,0,0,0.1c0,0,0,0,0,0.1c0,0,0,0,0,0.1
	c0,0,0,0,0,0v0c0,0,0,0,0,0c0,0,0,0,0,0c0,0,0,0,0,0c0,0,0,0,0,0C98.5,39.7,98.5,39.7,98.4,39.8C98.5,39.8,98.5,39.8,98.4,39.8
	C98.5,39.8,98.5,39.8,98.4,39.8C98.5,39.8,98.4,39.8,98.4,39.8 M97,41C97,41,97,40.9,97,40.9l0.2-0.2c0.1-0.1,0.1,0,0.2,0l0.2,0.2
	c0.1,0.1,0.1,0.1,0,0.2l-0.2,0.2c0,0-0.1,0-0.2,0L97,41z M96.7,40.5c-0.1-0.1-0.1-0.1,0-0.2l0.2-0.2c0.1-0.1,0.1-0.1,0.2,0l0.2,0.2
	c0.1,0.1,0.1,0.1,0,0.2L97,40.7c0,0-0.1,0-0.2,0L96.7,40.5z M97.4,40.5c-0.1-0.1-0.1-0.1,0-0.2l0.2-0.2c0.1-0.1,0.1-0.1,0.2,0
	l0.2,0.2c0.1,0.1,0.1,0.1,0,0.2l-0.2,0.2c0,0-0.1,0-0.2,0L97.4,40.5z"/>
    <path class="st9" d="M101.6,39c0,0.1,0,0.2,0.1,0.2c0.1,0.1,0.2,0.1,0.3,0.1h0.1c0,0,0,0,0.1,0c0,0,0,0,0,0.1c0,0,0,0,0,0.1
	c0,0,0,0,0,0.1c0,0,0,0,0,0v0c0,0,0,0,0,0c0,0,0,0,0,0c0,0,0,0,0,0.1c0,0,0,0,0,0c0,0,0,0,0,0c0,0,0,0-0.1,0h0c-0.1,0-0.3,0-0.4-0.1
	c-0.1,0-0.2-0.1-0.3-0.2c-0.1,0.1-0.1,0.1-0.2,0.2c-0.1,0-0.2,0.1-0.3,0.1c-0.1,0-0.2,0-0.3-0.1c-0.1,0-0.1-0.1-0.2-0.1
	c-0.1,0.1-0.3,0.2-0.5,0.2c-0.2,0-0.4-0.1-0.5-0.2c-0.1,0.2-0.4,0.2-0.6,0.2h-0.2c-0.1,0-0.1,0-0.1-0.1c0,0,0-0.1,0-0.2v0
	c0-0.1,0-0.1,0-0.2c0,0,0.1-0.1,0.1-0.1h0.2c0.1,0,0.2,0,0.3-0.1C99,39.2,99,39.1,99,39v-0.5v-0.1h0.1h0.4h0.1v0.1l0,0.5
	c0,0.1,0,0.2,0.1,0.2c0,0,0.1,0.1,0.2,0.1c0.1,0,0.2,0,0.2-0.1c0,0,0.1-0.1,0.1-0.2v-0.5v-0.1h0.1h0.4h0.1v0.1l0,0.5
	c0,0.1,0,0.2,0.1,0.2c0,0,0.1,0.1,0.2,0.1c0.1,0,0.2,0,0.2-0.1c0,0,0.1-0.1,0.1-0.2v-0.5v-0.1h0.1h0.3h0.1v0.1L101.6,39z"/>
    <path class="st9" d="M102,39.8c-0.1,0-0.1,0-0.1-0.1c0,0,0-0.1,0-0.2v0c0-0.1,0-0.1,0-0.2c0,0,0.1-0.1,0.1-0.1h0.7
	c0.2,0,0.3,0,0.3-0.1c0.1,0,0.1-0.1,0.1-0.1c0,0,0,0,0,0c0,0,0,0,0-0.1c0,0,0-0.1-0.1-0.1c0,0-0.1-0.1-0.1-0.1l-0.6-0.7
	c-0.1-0.1-0.1-0.2-0.1-0.3c0,0,0-0.1,0-0.1c0,0,0-0.1,0.1-0.1c0,0,0.1-0.1,0.1-0.1c0,0,0.1,0,0.1-0.1l1.2-0.4l0.1,0V37v0.4v0.1
	l-0.1,0l-1,0.3l0.5,0.6c0.2,0.3,0.3,0.5,0.3,0.7c0,0.2-0.1,0.4-0.2,0.5c-0.2,0.1-0.4,0.2-0.7,0.2H102z"/>
    <polygon class="st9" points="104.1,37.1 104.5,37.1 104.5,37.1 104.5,37.2 104.5,39.7 104.5,39.8 104.5,39.8 104.1,39.8 104.1,39.8
	104.1,39.7 104.1,37.2 104.1,37.1 "/>
    <path class="st9" d="M107.4,39.6l0-2.3v-0.1h0.1h0.3h0.1v0.1v1.7c0,0.2,0,0.3,0.1,0.3c0.1,0.1,0.2,0.1,0.3,0.1h0.1c0,0,0.1,0,0.1,0
	c0,0,0,0,0,0.1c0,0,0,0,0,0.1c0,0,0,0,0,0.1c0,0,0,0,0,0v0c0,0,0,0,0,0c0,0,0,0,0,0c0,0,0,0,0,0.1c0,0,0,0,0,0c0,0,0,0,0,0
	c0,0,0,0,0,0c0,0,0,0,0,0h0c-0.2,0-0.3,0-0.4-0.1c0,0.3-0.1,0.6-0.3,0.7c-0.2,0.2-0.4,0.2-0.8,0.2h-0.1c-0.5,0-0.9-0.2-1-0.6
	c-0.1-0.2-0.1-0.4-0.1-0.6v-0.7v-0.1h0.1h0.3h0.1v0.1v0.7c0,0.2,0.1,0.4,0.2,0.5c0.1,0.1,0.3,0.2,0.5,0.2h0.1c0.2,0,0.4-0.1,0.5-0.2
	C107.3,39.9,107.4,39.8,107.4,39.6"/>
    <path class="st9" d="M108.3,39.8c-0.1,0-0.1,0-0.1-0.1c0,0,0-0.1,0-0.2v0c0-0.1,0-0.1,0-0.2c0,0,0.1-0.1,0.1-0.1h0.5
	c0.1,0,0.2,0,0.3-0.1c0.1,0,0.1-0.1,0.1-0.2v-0.6v-0.1h0.1h0.3h0.1v0.1V39c0,0.3-0.1,0.5-0.2,0.6c-0.1,0.1-0.3,0.2-0.6,0.2H108.3z
	 M108.2,40.4l0.2-0.2c0.1-0.1,0.1-0.1,0.2,0l0.2,0.2c0.1,0.1,0.1,0.1,0,0.2l-0.2,0.2c-0.1,0.1-0.1,0.1-0.2,0l-0.2-0.2
	C108.2,40.5,108.2,40.4,108.2,40.4z M109,40.4l0.2-0.2c0.1-0.1,0.1-0.1,0.2,0l0.2,0.2c0.1,0.1,0.1,0.1,0,0.2l-0.2,0.2
	c-0.1,0.1-0.1,0.1-0.2,0l-0.2-0.2C108.9,40.5,108.9,40.4,109,40.4z"/>
    <path class="st9" d="M110.3,39c0,0.1,0,0.2,0.1,0.2c0,0,0.1,0.1,0.2,0.1h0.3l0-0.3c0-0.1,0-0.2-0.1-0.3c0-0.1-0.1-0.1-0.2-0.1
	c-0.1,0-0.2,0-0.2,0.1C110.3,38.8,110.3,38.9,110.3,39 M111.3,39v0.3h0.2c0,0,0.1,0,0.1,0c0,0,0,0,0,0.1c0,0,0,0,0,0.1
	c0,0,0,0,0,0.1c0,0,0,0,0,0v0c0,0.1,0,0.1,0,0.1c0,0.1-0.1,0.1-0.1,0.1h-0.2c0,0.3-0.1,0.5-0.3,0.7c-0.2,0.2-0.5,0.2-0.9,0.2H110
	h-0.1v-0.1v-0.4v-0.1h0.1h0.1c0.2,0,0.4,0,0.5-0.1c0.1-0.1,0.2-0.2,0.2-0.3h-0.2c-0.2,0-0.4-0.1-0.6-0.2c-0.1-0.1-0.2-0.3-0.2-0.6
	c0-0.3,0.1-0.5,0.2-0.6c0.1-0.1,0.3-0.2,0.6-0.2c0.1,0,0.2,0,0.3,0c0.1,0,0.2,0.1,0.2,0.1c0,0,0.1,0.1,0.1,0.1c0,0,0,0.1,0.1,0.1
	c0,0,0,0,0,0c0,0,0,0,0,0c0,0,0,0,0,0c0,0,0,0,0,0c0,0,0,0,0,0C111.3,38.9,111.3,38.9,111.3,39C111.3,38.9,111.3,39,111.3,39
	C111.3,39,111.3,39,111.3,39z"/>
    <path class="st9" d="M113.3,39.5l-0.2,0.1c-0.3,0.2-0.6,0.2-1,0.2h-0.6c-0.1,0-0.1,0-0.1-0.1c0,0,0-0.1,0-0.2v0c0-0.1,0-0.1,0-0.2
	c0,0,0.1-0.1,0.1-0.1h0.6c0.1,0,0.3,0,0.4,0c0.1,0,0.2-0.1,0.4-0.1l0.4-0.2l-0.3-0.2c-0.2-0.1-0.3-0.1-0.5-0.1
	c-0.1,0-0.3,0.1-0.4,0.2l-0.1,0.1l-0.1,0l0,0l-0.2-0.3l0-0.1l0.1,0l0.1-0.1c0.2-0.2,0.4-0.3,0.7-0.3c0.2,0,0.5,0,0.7,0.2l0.4,0.2
	c0,0,0.1,0,0.1,0.1c0,0,0.1,0,0.1,0c0,0,0.1,0,0.1,0l0.1,0v0.1v0.4v0l0,0l-0.2,0.1c0.1,0,0.2,0.1,0.2,0.1h0.2c0,0,0.1,0,0.1,0
	c0,0,0,0,0,0.1c0,0,0,0,0,0.1c0,0,0,0,0,0.1c0,0,0,0,0,0v0c0,0.1,0,0.1,0,0.1c0,0.1-0.1,0.1-0.1,0.1H114c-0.1,0-0.3,0-0.4-0.1
	C113.5,39.7,113.4,39.6,113.3,39.5"/>
    <path class="st9" d="M114.3,37.6l0.2-0.2c0.1-0.1,0.1-0.1,0.2,0l0.2,0.2c0.1,0.1,0.1,0.1,0,0.2l-0.2,0.2c-0.1,0.1-0.1,0.1-0.2,0
	l-0.2-0.2C114.2,37.7,114.2,37.6,114.3,37.6 M115,37.6l0.2-0.2c0.1-0.1,0.1-0.1,0.2,0l0.2,0.2c0.1,0.1,0.1,0.1,0,0.2l-0.2,0.2
	c-0.1,0.1-0.1,0.1-0.2,0l-0.2-0.2C114.9,37.7,114.9,37.6,115,37.6z M114.2,39.8c-0.1,0-0.1,0-0.1-0.1c0,0,0-0.1,0-0.2v0
	c0-0.1,0-0.1,0-0.2c0,0,0.1-0.1,0.1-0.1h0.5c0.1,0,0.2,0,0.3-0.1c0.1,0,0.1-0.1,0.1-0.2v-0.6v-0.1h0.1h0.3h0.1v0.1V39
	c0,0.3-0.1,0.5-0.2,0.6c-0.1,0.1-0.3,0.2-0.6,0.2H114.2z"/>
    <path class="st9" d="M137.6,39.6c0,0.2-0.1,0.4-0.2,0.6c-0.1,0.2-0.2,0.3-0.4,0.4c-0.2,0.1-0.4,0.1-0.7,0.1h-0.1
	c-0.6,0-1-0.2-1.1-0.6c-0.1-0.2-0.1-0.4-0.1-0.6v-0.7v-0.1h0.1h0.4h0.1v0.1v0.7c0,0.2,0.1,0.4,0.2,0.5c0.1,0.1,0.3,0.2,0.6,0.2h0.1
	c0.3,0,0.5,0,0.6-0.1c0.1-0.1,0.2-0.2,0.2-0.4v-1.2v-0.1h0.1h0.4h0.1l0,0.1L137.6,39.6z M136,38.3l0.2-0.2c0.1-0.1,0.1-0.1,0.2,0
	l0.2,0.2c0.1,0.1,0.1,0.1,0,0.2l-0.2,0.2c-0.1,0.1-0.1,0.1-0.2,0l-0.2-0.2C136,38.4,136,38.4,136,38.3z"/>
    <path class="st9" d="M138.9,39.8h-0.2c-0.2,0-0.4-0.1-0.5-0.2c-0.1-0.1-0.2-0.3-0.2-0.6v-1.8v-0.1h0.1h0.3h0.1v0.1V39
	c0,0.1,0,0.1,0,0.2c0,0,0,0.1,0.1,0.1c0,0,0.1,0,0.1,0h0.1c0,0,0.1,0,0.1,0c0,0,0,0,0,0.1c0,0,0,0,0,0.1c0,0,0,0,0,0.1c0,0,0,0,0,0
	v0c0,0.1,0,0.1,0,0.1C139,39.8,138.9,39.8,138.9,39.8"/>
    <path class="st9" d="M141,39c0,0.1,0,0.2,0.1,0.2c0,0,0.1,0.1,0.2,0.1c0.1,0,0.1,0,0.1,0c0,0,0.1-0.1,0.1-0.1c0,0,0-0.1,0-0.2v-0.6
	v-0.1h0.1h0.3h0.1v0.1V39c0,0.2,0,0.3-0.1,0.4c-0.1,0.1-0.1,0.2-0.2,0.3c-0.1,0.1-0.2,0.1-0.4,0.1c-0.2,0-0.4-0.1-0.5-0.2
	c-0.1,0.1-0.3,0.2-0.6,0.2c-0.2,0-0.4-0.1-0.5-0.2c-0.1,0.2-0.4,0.2-0.6,0.2h-0.2c-0.1,0-0.1,0-0.1-0.1c0,0,0-0.1,0-0.2v0
	c0-0.1,0-0.1,0-0.2c0,0,0.1-0.1,0.1-0.1h0.2c0.1,0,0.2,0,0.3-0.1c0.1-0.1,0.1-0.1,0.1-0.2v-0.5v-0.1h0.1h0.4h0.1v0.1l0,0.5
	c0,0,0,0.1,0,0.1c0,0,0,0.1,0,0.1c0,0,0,0,0,0.1c0,0,0,0,0,0c0,0,0,0,0.1,0c0,0,0,0,0.1,0c0,0,0.1,0,0.1,0c0.1,0,0.1,0,0.1,0
	c0,0,0.1,0,0.1-0.1c0,0,0-0.1,0.1-0.1c0,0,0-0.1,0-0.1l0-0.5v-0.1h0.1h0.3h0.1v0.1L141,39z"/>
    <path class="st9" d="M142.5,36.8h0.8h0v0l0,0.3v0h0h-0.7c-0.1,0-0.1,0-0.2,0c0,0-0.1,0-0.1,0.1l0,0l0,0l0,0l-0.2-0.2l0,0l0,0l0,0
	c0.1-0.1,0.1-0.2,0.2-0.2c0,0,0.1,0,0.1,0C142.4,36.8,142.4,36.8,142.5,36.8 M142.5,37.5h0.3h0.1v0.1v2.1v0.1h-0.1h-0.3h-0.1v-0.1
	L142.5,37.5L142.5,37.5L142.5,37.5z"/>
    <path class="st9" d="M146,39.2c0.2,0,0.4,0,0.5,0.1c0.1,0.1,0.2,0.2,0.2,0.4v0.1c0,0.3-0.1,0.5-0.3,0.7c-0.2,0.2-0.5,0.2-0.9,0.2
	h-0.2c-0.4,0-0.7-0.1-0.9-0.3c-0.2-0.2-0.3-0.5-0.3-0.9v-0.8v-0.1h0.1h0.3h0.1v0.1v0.8c0,0.2,0.1,0.4,0.2,0.5
	c0.1,0.1,0.3,0.2,0.6,0.2h0.2c0.2,0,0.4,0,0.5-0.1c0.1-0.1,0.2-0.2,0.2-0.3v0c0,0,0-0.1,0-0.1c0,0-0.1,0-0.1,0h-0.3
	c-0.1,0-0.2,0-0.3-0.1c-0.1-0.1-0.1-0.2-0.1-0.3v-0.1c0-0.1,0-0.2,0-0.3c0-0.1,0-0.2,0.1-0.3s0.1-0.1,0.1-0.2
	c0.2-0.2,0.4-0.3,0.7-0.3h0.4h0.1v0.1l0,0.4v0.1h-0.1h-0.5c-0.1,0-0.2,0-0.2,0.1c-0.1,0.1-0.1,0.2-0.1,0.4l0,0.1H146z"/>
    <path class="st9" d="M147.3,39c0,0.1,0,0.2,0.1,0.2c0,0,0.1,0.1,0.2,0.1h0.3l0-0.3c0-0.1,0-0.2-0.1-0.3c0-0.1-0.1-0.1-0.2-0.1
	c-0.1,0-0.2,0-0.2,0.1C147.4,38.8,147.3,38.9,147.3,39 M148.4,39v0.3h0.2c0,0,0.1,0,0.1,0c0,0,0,0,0,0.1c0,0,0,0,0,0.1
	c0,0,0,0,0,0.1c0,0,0,0,0,0v0c0,0.1,0,0.1,0,0.1c0,0.1-0.1,0.1-0.1,0.1h-0.2c0,0.3-0.1,0.5-0.3,0.7c-0.2,0.2-0.5,0.2-0.9,0.2H147
	h-0.1v-0.1v-0.4v-0.1h0.1h0.1c0.2,0,0.4,0,0.5-0.1c0.1-0.1,0.2-0.2,0.2-0.3h-0.2c-0.2,0-0.4-0.1-0.6-0.2c-0.1-0.1-0.2-0.3-0.2-0.6
	c0-0.3,0.1-0.5,0.2-0.6c0.1-0.1,0.3-0.2,0.6-0.2c0.1,0,0.2,0,0.3,0c0.1,0,0.2,0.1,0.2,0.1c0,0,0.1,0.1,0.1,0.1c0,0,0,0.1,0.1,0.1
	c0,0,0,0,0,0c0,0,0,0,0,0c0,0,0,0,0,0c0,0,0,0,0,0c0,0,0,0,0,0C148.4,38.9,148.4,38.9,148.4,39C148.4,38.9,148.4,39,148.4,39
	C148.4,39,148.4,39,148.4,39z"/>
    <path class="st9" d="M150.3,39.5l-0.2,0.1c-0.3,0.2-0.6,0.2-1,0.2h-0.6c-0.1,0-0.1,0-0.1-0.1c0,0,0-0.1,0-0.2v0c0-0.1,0-0.1,0-0.2
	c0,0,0.1-0.1,0.1-0.1h0.6c0.1,0,0.3,0,0.4,0c0.1,0,0.2-0.1,0.4-0.1l0.4-0.2l-0.3-0.2c-0.2-0.1-0.3-0.1-0.5-0.1
	c-0.1,0-0.3,0.1-0.4,0.2l-0.1,0.1l-0.1,0l0,0l-0.2-0.3l0-0.1l0.1,0l0.1-0.1c0.2-0.2,0.4-0.3,0.7-0.3c0.2,0,0.5,0,0.7,0.2l0.4,0.2
	c0,0,0.1,0,0.1,0.1c0,0,0.1,0,0.1,0c0,0,0.1,0,0.1,0l0.1,0v0.1v0.4v0l0,0l-0.2,0.1c0.1,0,0.2,0.1,0.2,0.1h0.2c0,0,0.1,0,0.1,0
	c0,0,0,0,0,0.1c0,0,0,0,0,0.1c0,0,0,0,0,0.1c0,0,0,0,0,0v0c0,0.1,0,0.1,0,0.1c0,0.1-0.1,0.1-0.1,0.1H151c-0.1,0-0.3,0-0.4-0.1
	C150.5,39.7,150.4,39.6,150.3,39.5 M149.3,40.4l0.2-0.2c0.1-0.1,0.1-0.1,0.2,0l0.2,0.2c0.1,0.1,0.1,0.1,0,0.2l-0.2,0.2
	c-0.1,0.1-0.1,0.1-0.2,0l-0.2-0.2C149.3,40.5,149.3,40.4,149.3,40.4z"/>
    <path class="st9" d="M153,39.8L153,39.8c-0.3,0-0.5-0.1-0.7-0.2c-0.2,0.2-0.4,0.2-0.7,0.2h-0.4c-0.1,0-0.1,0-0.1-0.1
	c0,0,0-0.1,0-0.2v0c0-0.1,0-0.1,0-0.2c0,0,0.1-0.1,0.1-0.1h0.4c0.1,0,0.2,0,0.3,0c0.1,0,0.1-0.1,0.1-0.1c0,0,0-0.1,0-0.2v-0.5v-0.1
	h0.1h0.4h0.1v0.1V39c0,0.1,0,0.2,0.1,0.2c0.1,0.1,0.2,0.1,0.3,0.1h0c0,0,0.1,0,0.1,0c0,0,0,0,0,0.1c0,0,0,0,0,0.1c0,0,0,0,0,0.1
	c0,0,0,0,0,0v0c0,0,0,0,0,0c0,0,0,0,0,0c0,0,0,0,0,0c0,0,0,0,0,0C153.1,39.7,153.1,39.7,153,39.8C153,39.8,153,39.8,153,39.8
	C153,39.8,153,39.8,153,39.8C153,39.8,153,39.8,153,39.8 M151.4,37.6l0.2-0.2c0.1-0.1,0.1-0.1,0.2,0l0.2,0.2c0.1,0.1,0.1,0.1,0,0.2
	l-0.2,0.2c-0.1,0.1-0.1,0.1-0.2,0l-0.2-0.2C151.3,37.7,151.3,37.6,151.4,37.6z M152.1,37.6l0.2-0.2c0.1-0.1,0.1-0.1,0.2,0l0.2,0.2
	c0.1,0.1,0.1,0.1,0,0.2l-0.2,0.2c-0.1,0.1-0.1,0.1-0.2,0l-0.2-0.2C152,37.7,152,37.6,152.1,37.6z"/>
    <path class="st9" d="M156.1,39c0,0.1,0,0.2,0.1,0.2c0.1,0.1,0.2,0.1,0.3,0.1h0.1c0,0,0,0,0.1,0c0,0,0,0,0,0.1c0,0,0,0,0,0.1
	c0,0,0,0,0,0.1c0,0,0,0,0,0v0c0,0,0,0,0,0c0,0,0,0,0,0c0,0,0,0,0,0.1c0,0,0,0,0,0c0,0,0,0,0,0c0,0,0,0-0.1,0h0c-0.1,0-0.3,0-0.4-0.1
	c-0.1,0-0.2-0.1-0.3-0.2c-0.1,0.1-0.1,0.1-0.2,0.2c-0.1,0-0.2,0.1-0.3,0.1c-0.1,0-0.2,0-0.3-0.1c-0.1,0-0.1-0.1-0.2-0.1
	c-0.1,0.1-0.3,0.2-0.5,0.2c-0.2,0-0.4-0.1-0.5-0.2c-0.1,0.2-0.4,0.2-0.6,0.2h-0.2c-0.1,0-0.1,0-0.1-0.1c0,0,0-0.1,0-0.2v0
	c0-0.1,0-0.1,0-0.2c0,0,0.1-0.1,0.1-0.1h0.2c0.1,0,0.2,0,0.3-0.1c0.1-0.1,0.1-0.1,0.1-0.2v-0.5v-0.1h0.1h0.4h0.1v0.1l0,0.5
	c0,0.1,0,0.2,0.1,0.2c0,0,0.1,0.1,0.2,0.1c0.1,0,0.2,0,0.2-0.1c0,0,0.1-0.1,0.1-0.2v-0.5v-0.1h0.1h0.4h0.1v0.1l0,0.5
	c0,0.1,0,0.2,0.1,0.2c0,0,0.1,0.1,0.2,0.1c0.1,0,0.2,0,0.2-0.1c0,0,0.1-0.1,0.1-0.2v-0.5v-0.1h0.1h0.3h0.1v0.1L156.1,39z"/>
    <path class="st9" d="M156.5,39.8c-0.1,0-0.1,0-0.1-0.1c0,0,0-0.1,0-0.2v0c0-0.1,0-0.1,0-0.2c0,0,0.1-0.1,0.1-0.1h0.6
	c0.1,0,0.3,0,0.4,0c0.1,0,0.2-0.1,0.4-0.1l0.4-0.2l-0.3-0.2c-0.2-0.1-0.3-0.1-0.5-0.1c-0.1,0-0.3,0.1-0.4,0.2l-0.1,0.1l-0.1,0l0,0
	l-0.2-0.3l0-0.1l0.1,0l0.1-0.1c0.2-0.2,0.4-0.3,0.7-0.3c0.2,0,0.5,0,0.7,0.2l0.4,0.2c0.1,0.1,0.2,0.1,0.3,0.1l0.1,0v0.1v0.4v0l0,0
	l-0.8,0.4c-0.3,0.2-0.6,0.2-1,0.2H156.5z M157.2,40.4l0.2-0.2c0.1-0.1,0.1-0.1,0.2,0l0.2,0.2c0.1,0.1,0.1,0.1,0,0.2l-0.2,0.2
	c-0.1,0.1-0.1,0.1-0.2,0l-0.2-0.2C157.2,40.5,157.2,40.4,157.2,40.4z"/>
    <path class="st9" d="M21.4,15.4c0-2.7-2.2-4.8-4.8-4.8c-2.7,0-4.8,2.2-4.8,4.8v0c-1.1,0.1-1.9,0.9-1.9,2v0.2c0,1.1,0.9,2,2,2H12
	l0.9,1.4c0.6,1,1.6,1.5,2.8,1.5h0.2c0.1,0.4,0.5,0.7,0.9,0.7c0.5,0,1-0.4,1-1c0-0.5-0.4-1-1-1c-0.4,0-0.8,0.3-0.9,0.7h-0.2
	c-1,0-1.8-0.5-2.3-1.3l-0.7-1.1h0.2c0.3,0,0.5-0.2,0.5-0.5v-3.4c0-0.3-0.2-0.5-0.5-0.5h-0.5c0-2.4,1.9-4.3,4.3-4.3
	c2.4,0,4.3,1.9,4.3,4.3h-0.5c-0.3,0-0.5,0.2-0.5,0.5v3.4c0,0.3,0.2,0.5,0.5,0.5h0.8c1.1,0,2-0.9,2-2v-0.2
	C23.3,16.4,22.5,15.5,21.4,15.4"/>
    <path class="st9" d="M18.6,12.4C18.6,12.4,18.5,12.4,18.6,12.4c-0.1-0.1-0.2-0.1-0.2-0.1c-0.1-0.1-0.3,0-0.3,0.1
	c-0.1,0.1,0,0.3,0.1,0.3c0,0,0.1,0,0.1,0.1c0,0,0.1,0,0.1,0.1c0,0,0.1,0,0.1,0c0.1,0,0.2,0,0.2-0.1C18.8,12.6,18.7,12.5,18.6,12.4"
    />
    <path class="st9" d="M16.6,11.8c-1,0-2,0.4-2.6,1.2c-0.1,0.1-0.1,0.3,0,0.3c0,0,0.1,0.1,0.2,0.1c0.1,0,0.1,0,0.2-0.1
	c0.6-0.7,1.4-1,2.3-1c0.2,0,0.4,0,0.6,0.1c0.1,0,0.3-0.1,0.3-0.2c0-0.1-0.1-0.3-0.2-0.3C17.1,11.8,16.9,11.8,16.6,11.8"/>
    <path class="st10" d="M22.9,17.7c0,0.9-0.7,1.6-1.6,1.6h-0.8v-3.4h0.8c0.9,0,1.6,0.7,1.6,1.6V17.7z"/>
    <path class="st10" d="M12.8,15.9v3.4h-0.8c-0.9,0-1.6-0.7-1.6-1.6v-0.2c0-0.9,0.7-1.6,1.6-1.6H12.8z"/>
    <path class="st80" d="M16.7,21.9c0.3,0,0.5,0.2,0.5,0.5c0,0.3-0.2,0.5-0.5,0.5c-0.3,0-0.5-0.2-0.5-0.5
	C16.3,22.1,16.5,21.9,16.7,21.9"/>
    <rect x="53.7" y="8.4" class="st3" width="10.4" height="14.6"/>
    <polygon class="st31" points="57.4,22.4 57.4,25.6 59,24.5 60.5,25.6 60.5,22.4 59.8,22.2 59,23.1 58.1,22.2 "/>
    <polygon class="st81" points="57.4,22.4 57.4,25.6 59,24.5 60.5,25.6 60.5,22.4 59.8,22.2 59,23.1 58.1,22.2 "/>
    <path class="st27" d="M61.4,23h2.8V8.4H53.7V23 M56.5,23h-2.8V8.4h10.4V23"/>
    <path class="st16" d="M55.4,9.5h7.2c0.1,0,0.1,0,0.1,0.1v0.3c0,0.1,0,0.1-0.1,0.1h-7.2c-0.1,0-0.1,0-0.1-0.1V9.6
	C55.3,9.6,55.3,9.5,55.4,9.5"/>
    <path class="st16" d="M55.4,10.5h7.2c0.1,0,0.1,0,0.1,0.1v0.3c0,0.1,0,0.1-0.1,0.1h-7.2c-0.1,0-0.1,0-0.1-0.1v-0.3
	C55.3,10.6,55.3,10.5,55.4,10.5"/>
    <path class="st16" d="M55.4,11.6h7.2c0.1,0,0.1,0,0.1,0.1v0.3c0,0.1,0,0.1-0.1,0.1h-7.2c-0.1,0-0.1,0-0.1-0.1v-0.3
	C55.3,11.6,55.3,11.6,55.4,11.6"/>
    <path class="st16" d="M55.4,12.6h7.2c0.1,0,0.1,0,0.1,0.1V13c0,0.1,0,0.1-0.1,0.1h-7.2c-0.1,0-0.1,0-0.1-0.1v-0.3
	C55.3,12.6,55.3,12.6,55.4,12.6"/>
    <polygon class="st82" points="59,15.2 59.8,16 60.9,15.7 61.2,16.9 62.4,17.2 62.1,18.3 62.9,19.1 62.1,20 62.4,21.1 61.2,21.4
	60.9,22.5 59.8,22.2 59,23.1 58.1,22.2 57,22.5 56.7,21.4 55.5,21.1 55.8,20 55,19.1 55.8,18.3 55.5,17.2 56.7,16.9 57,15.7 
	58.1,16 "/>
    <polygon class="st27" points="59,15.2 59.8,16 60.9,15.7 61.2,16.9 62.4,17.2 62.1,18.3 62.9,19.1 62.1,20 62.4,21.1 61.2,21.4
	60.9,22.5 59.8,22.2 59,23.1 58.1,22.2 57,22.5 56.7,21.4 55.5,21.1 55.8,20 55,19.1 55.8,18.3 55.5,17.2 56.7,16.9 57,15.7 
	58.1,16 "/>
    <path class="st16" d="M55.4,13.6h7.2c0.1,0,0.1,0,0.1,0.1V14c0,0.1,0,0.1-0.1,0.1h-7.2c-0.1,0-0.1,0-0.1-0.1v-0.3
	C55.3,13.6,55.3,13.6,55.4,13.6"/>
    <path class="st83" d="M59,16.8c1.3,0,2.3,1,2.3,2.3c0,1.3-1,2.3-2.3,2.3c-1.3,0-2.3-1-2.3-2.3"/>
    <path class="st83" d="M56.7,18.5c0.2-0.8,0.8-1.4,1.6-1.6"/>
    <circle class="st3" cx="146" cy="16" r="4.3"/>
    <circle class="st73" cx="146" cy="16" r="4.3"/>
    <path class="st83" d="M146,13.1c0.8,0,1.5,0.3,2,0.9c1.1,1.1,1.1,3,0,4.1c0,0,0,0,0,0"/>
    <path class="st16" d="M148.4,19.6l1.2-1.2l2.3,2.3c0.3,0.3,0.3,0.9,0,1.2l0,0c-0.3,0.3-0.9,0.3-1.2,0L148.4,19.6z"/>
    <path class="st73" d="M148.4,19.6l1.2-1.2l2.3,2.3c0.3,0.3,0.3,0.9,0,1.2l0,0c-0.3,0.3-0.9,0.3-1.2,0L148.4,19.6z"/>
    <path class="st27" d="M107.6,17.6V20c0,0.1-0.1,0.3-0.3,0.3h-0.8c0-0.7-0.5-1.2-1.2-1.2s-1.2,0.5-1.2,1.2h-4.2v-7.4
	c0-0.1,0.1-0.3,0.3-0.3h7.2c0.1,0,0.3,0.1,0.3,0.3v0.9"/>
    <path class="st27" d="M99.9,14.4h-1.3c-0.7,0-1.3,0.6-1.3,1.3V17h2.6V14.4z"/>
    <path class="st16" d="M99.9,17h-3.8c-0.9,0-1.6,0.7-1.6,1.6c0,0.9,0.7,1.6,1.6,1.6h0.4c0-0.7,0.5-1.2,1.2-1.2s1.2,0.5,1.2,1.2h1V17z
	"/>
    <path class="st27" d="M99.9,17h-3.8c-0.9,0-1.6,0.7-1.6,1.6c0,0.9,0.7,1.6,1.6,1.6h0.4c0-0.7,0.5-1.2,1.2-1.2s1.2,0.5,1.2,1.2h1V17z
	"/>
    <circle class="st31" cx="97.8" cy="20.2" r="1.2"/>
    <circle class="st27" cx="97.8" cy="20.2" r="1.2"/>
    <circle class="st31" cx="105.3" cy="20.2" r="1.2"/>
    <circle class="st27" cx="105.3" cy="20.2" r="1.2"/>
    <line class="st27" x1="104.7" y1="17.6" x2="110.1" y2="17.6"/>
    <line class="st27" x1="108.6" y1="15.2" x2="103.4" y2="15.2"/>
    <line class="st27" x1="102.1" y1="17.6" x2="103.7" y2="17.6"/>
    <line class="st27" x1="111.4" y1="15.2" x2="110" y2="15.2"/>
</svg>
