<?xml version="1.0" encoding="utf-8"?>
<!-- Generator: Adobe Illustrator 19.1.1, SVG Export Plug-In . SVG Version: 6.00 Build 0)  -->
<svg version="1.1" id="Layer_1" xmlns="http://www.w3.org/2000/svg" xmlns:xlink="http://www.w3.org/1999/xlink" x="0px" y="0px"
	 viewBox="0 0 170.5 55.8" style="enable-background:new 0 0 170.5 55.8;" xml:space="preserve">
<style type="text/css">
	.st0{clip-path:url(#SVGID_2_);}
	.st1{clip-path:url(#SVGID_4_);}
	.st2{opacity:0.5;fill-rule:evenodd;clip-rule:evenodd;}
	.st3{fill-rule:evenodd;clip-rule:evenodd;fill:#FFFFFF;}
	.st4{fill:#FFFFFF;}
	.st5{opacity:0.5;}
	.st6{clip-path:url(#SVGID_8_);fill:none;stroke:#D1D6D6;stroke-width:0.4799;stroke-linejoin:round;stroke-miterlimit:2.6131;}
	.st7{fill:none;stroke:#FFFFFF;stroke-width:0.7197;stroke-linejoin:round;stroke-miterlimit:2.6131;}
	.st8{fill:none;stroke:#FFBD2D;stroke-width:0.7197;stroke-linejoin:round;stroke-miterlimit:2.6131;}
	.st9{fill:#2D3033;}
	.st10{fill:#FFBD2D;}
	.st11{fill-rule:evenodd;clip-rule:evenodd;fill:#2D3033;}
	.st12{fill:none;stroke:#E7E8E8;stroke-width:0.4799;stroke-miterlimit:2.6131;}
	.st13{fill:none;stroke:#7DCC73;stroke-width:0.4799;stroke-miterlimit:2.6131;}
	.st14{fill:none;stroke:#FFBD2D;stroke-width:0.4799;stroke-linecap:round;stroke-linejoin:round;stroke-miterlimit:2.6131;}
	.st15{fill:none;stroke:#C4C5C7;stroke-width:0.2398;stroke-miterlimit:2.6131;}
	.st16{fill-rule:evenodd;clip-rule:evenodd;fill:#FFBD2D;}
	.st17{fill:#898C8F;}
	.st18{fill:none;stroke:#2D3033;stroke-width:0.2398;stroke-miterlimit:2.6131;}
	.st19{fill:none;stroke:#2D3033;stroke-width:0.2398;stroke-linecap:round;stroke-miterlimit:2.6131;}
	.st20{filter:url(#Adobe_OpacityMaskFilter);}
	.st21{fill-rule:evenodd;clip-rule:evenodd;fill:url(#);}
	.st22{opacity:0.294;mask:url(#SVGID_9_);fill-rule:evenodd;clip-rule:evenodd;fill:#2D3033;}
	.st23{fill:#E7E8E8;}
	.st24{fill:none;stroke:#FFBD2D;stroke-width:0.4799;stroke-linecap:round;stroke-miterlimit:2.6131;}
	.st25{fill:none;stroke:#D1D6D6;stroke-width:0.4799;stroke-miterlimit:2.6131;}
	.st26{fill:#FF8126;}
	.st27{fill:none;stroke:#2D3033;stroke-width:0.4799;stroke-linecap:round;stroke-linejoin:round;stroke-miterlimit:2.6131;}
	.st28{clip-path:url(#SVGID_11_);}
	.st29{clip-path:url(#SVGID_15_);}
	.st30{clip-path:url(#SVGID_19_);}
	.st31{fill-rule:evenodd;clip-rule:evenodd;fill:#7DCC73;}
	.st32{fill:none;stroke:#7DCC73;stroke-width:0.2398;stroke-miterlimit:2.6131;}
	.st33{clip-path:url(#SVGID_23_);}
	.st34{clip-path:url(#SVGID_25_);}
	.st35{filter:url(#Adobe_OpacityMaskFilter_1_);}
	.st36{opacity:0.294;mask:url(#SVGID_28_);fill-rule:evenodd;clip-rule:evenodd;fill:#2D3033;}
	.st37{fill:none;stroke:#333333;stroke-width:0.4799;stroke-linecap:round;stroke-linejoin:round;stroke-miterlimit:2.6131;}
	.st38{filter:url(#Adobe_OpacityMaskFilter_2_);}
	.st39{opacity:3.900000e-002;mask:url(#SVGID_29_);fill-rule:evenodd;clip-rule:evenodd;fill:#33343B;}
	.st40{clip-path:url(#SVGID_31_);}
	.st41{filter:url(#Adobe_OpacityMaskFilter_3_);}
	.st42{opacity:3.900000e-002;mask:url(#SVGID_34_);fill-rule:evenodd;clip-rule:evenodd;fill:#33343B;}
	.st43{clip-path:url(#SVGID_36_);}
	.st44{filter:url(#Adobe_OpacityMaskFilter_4_);}
	.st45{opacity:3.900000e-002;mask:url(#SVGID_39_);fill-rule:evenodd;clip-rule:evenodd;fill:#33343B;}
	.st46{clip-path:url(#SVGID_41_);}
	.st47{filter:url(#Adobe_OpacityMaskFilter_5_);}
	.st48{opacity:3.900000e-002;mask:url(#SVGID_44_);fill-rule:evenodd;clip-rule:evenodd;fill:#33343B;}
	.st49{clip-path:url(#SVGID_46_);}
	.st50{filter:url(#Adobe_OpacityMaskFilter_6_);}
	.st51{opacity:3.900000e-002;mask:url(#SVGID_49_);fill-rule:evenodd;clip-rule:evenodd;fill:#33343B;}
	.st52{clip-path:url(#SVGID_51_);}
	.st53{filter:url(#Adobe_OpacityMaskFilter_7_);}
	.st54{opacity:3.900000e-002;mask:url(#SVGID_54_);fill-rule:evenodd;clip-rule:evenodd;fill:#33343B;}
	.st55{clip-path:url(#SVGID_56_);}
	.st56{clip-path:url(#SVGID_60_);}
	.st57{filter:url(#Adobe_OpacityMaskFilter_8_);}
	.st58{opacity:3.900000e-002;mask:url(#SVGID_63_);fill-rule:evenodd;clip-rule:evenodd;fill:#33343B;}
	.st59{clip-path:url(#SVGID_65_);}
	.st60{fill-rule:evenodd;clip-rule:evenodd;fill:#FCB813;}
	.st61{fill-rule:evenodd;clip-rule:evenodd;fill:#98CBCB;}
	.st62{fill-rule:evenodd;clip-rule:evenodd;fill:#898C8F;}
	.st63{fill:none;stroke:#2D3033;stroke-width:0.4799;stroke-linecap:round;stroke-miterlimit:10;}
	.st64{fill:none;stroke:#2D3033;stroke-width:0.4799;stroke-linecap:round;stroke-linejoin:round;stroke-miterlimit:10;}
	.st65{fill-rule:evenodd;clip-rule:evenodd;fill:#FF8126;}
	.st66{fill-rule:evenodd;clip-rule:evenodd;fill:#FFFCE8;}
	.st67{fill-rule:evenodd;clip-rule:evenodd;fill:#231F20;}
	.st68{fill-rule:evenodd;clip-rule:evenodd;fill:#EEF8FD;}
	.st69{fill-rule:evenodd;clip-rule:evenodd;fill:#13BDCE;}
	.st70{fill-rule:evenodd;clip-rule:evenodd;fill:#FFE4C9;}
	.st71{fill-rule:evenodd;clip-rule:evenodd;fill:#F16641;}
	.st72{fill:#FFE4C9;}
	.st73{fill:none;stroke:#2D3033;stroke-width:0.4799;stroke-miterlimit:2.6131;}
	.st74{fill-rule:evenodd;clip-rule:evenodd;fill:#F45A81;}
	.st75{fill-rule:evenodd;clip-rule:evenodd;fill:#43C2D0;}
	.st76{fill-rule:evenodd;clip-rule:evenodd;fill:#E0F3FC;}
	.st77{fill-rule:evenodd;clip-rule:evenodd;fill:#F4CCC4;}
	.st78{fill-rule:evenodd;clip-rule:evenodd;fill:#B7E3EE;}
	.st79{fill-rule:evenodd;clip-rule:evenodd;fill:#F2F2F2;}
	.st80{fill:#7DCC73;}
	.st81{fill:none;stroke:#2D3033;stroke-width:0.4799;stroke-linejoin:round;stroke-miterlimit:2.6131;}
	.st82{fill-rule:evenodd;clip-rule:evenodd;fill:#ECEFEF;}
	.st83{fill:none;stroke:#2D3033;stroke-width:0.4799;stroke-linecap:round;stroke-miterlimit:2.6131;}
	.st84{fill-rule:evenodd;clip-rule:evenodd;fill:#F9F9F9;}
	.st85{fill:none;stroke:#2D3033;stroke-width:0.4261;stroke-linecap:round;stroke-linejoin:round;stroke-miterlimit:10;}
	.st86{fill-rule:evenodd;clip-rule:evenodd;fill:#414B78;}
	.st87{fill:none;stroke:#898C8F;stroke-width:0.4799;stroke-linejoin:round;stroke-miterlimit:2.6131;}
	.st88{clip-path:url(#SVGID_69_);}
	.st89{filter:url(#Adobe_OpacityMaskFilter_9_);}
	.st90{opacity:0.294;mask:url(#SVGID_72_);fill-rule:evenodd;clip-rule:evenodd;fill:#2D3033;}
	.st91{fill:none;stroke:#E5EAEA;stroke-width:2.3998;stroke-linejoin:round;stroke-miterlimit:2.6131;}
	.st92{fill:none;stroke:#FFFFFF;stroke-width:0.2401;stroke-linecap:round;stroke-linejoin:round;stroke-miterlimit:2.6131;}
</style>
<rect x="110.2" y="17.2" transform="matrix(0.7071 -0.7071 0.7071 0.7071 12.5456 91.6728)" class="st84" width="13.5" height="27"/>
<rect x="110.2" y="17.2" transform="matrix(0.7071 -0.7071 0.7071 0.7071 12.5456 91.6728)" class="st81" width="13.5" height="27"/>
<path class="st16" d="M51.7,35.5c2.1,0,2.1,3.2,0,3.2C49.6,38.7,49.6,35.5,51.7,35.5z M42.1,29.1h6.4c2.1,0,2.1,3.2,0,3.2h-6.4
	C40,32.3,40,29.1,42.1,29.1z M51.7,16.4c2.1,0,2.1,3.2,0,3.2C49.6,19.5,49.6,16.4,51.7,16.4z M31.5,41.9L31.5,41.9l-10.2,0
	c-2.1,0-2.1-3.2,0-3.2h25.6c2.1,0,2.1-3.2,0-3.2h-8.7v0l-7.3,0c-2.1,0-2.1-3.2,0-3.2h6.4c2.1,0,2.1-3.2,0-3.2l-12.8,0
	c-2.1,0-2.1-3.2,0-3.2h28.8c2.1,0,2.1-3.2,0-3.2l-16,0c-2.1,0-2.1-3.2,0-3.2l8,0c1.1,0,3.2,0.3,3.2-1.6c0-1.9-2.1-1.6-3.2-1.6H34.1
	c-2.1,0-2.1-3.2,0-3.2h37.2v35.2H51c-0.6-3-3.2-5.2-6.3-5.2c-3.1,0-5.8,2.2-6.3,5.2H27.7c-2.1,0-2.1-3.2-0.1-3.2h6.4
	c2.1,0,2.1-3.2,0-3.2H31.5z"/>
<path class="st81" d="M51.7,35.5c2.1,0,2.1,3.2,0,3.2C49.6,38.7,49.6,35.5,51.7,35.5z M42.1,29.1h6.4c2.1,0,2.1,3.2,0,3.2h-6.4
	C40,32.3,40,29.1,42.1,29.1z M51.7,16.4c2.1,0,2.1,3.2,0,3.2C49.6,19.5,49.6,16.4,51.7,16.4z M31.5,41.9L31.5,41.9l-10.2,0
	c-2.1,0-2.1-3.2,0-3.2h25.6c2.1,0,2.1-3.2,0-3.2h-8.7v0l-7.3,0c-2.1,0-2.1-3.2,0-3.2h6.4c2.1,0,2.1-3.2,0-3.2l-12.8,0
	c-2.1,0-2.1-3.2,0-3.2h28.8c2.1,0,2.1-3.2,0-3.2l-16,0c-2.1,0-2.1-3.2,0-3.2l8,0c1.1,0,3.2,0.3,3.2-1.6c0-1.9-2.1-1.6-3.2-1.6H34.1
	c-2.1,0-2.1-3.2,0-3.2h37.2v35.2H51c-0.6-3-3.2-5.2-6.3-5.2c-3.1,0-5.8,2.2-6.3,5.2H27.7c-2.1,0-2.1-3.2-0.1-3.2h6.4
	c2.1,0,2.1-3.2,0-3.2H31.5z"/>
<circle class="st16" cx="95.5" cy="43.7" r="1.8"/>
<circle class="st81" cx="95.5" cy="43.7" r="1.8"/>
<circle class="st80" cx="44.7" cy="49.5" r="0.8"/>
<circle class="st85" cx="44.7" cy="49.5" r="0.8"/>
<path class="st62" d="M47.6,49.5c0,1.6-1.3,2.9-2.9,2.9c-1.6,0-2.9-1.3-2.9-2.9c0-1.6,1.3-2.9,2.9-2.9C46.3,46.7,47.6,48,47.6,49.5z
	 M44.7,44.5c2.8,0,5,2.2,5,5c0,2.8-2.2,5-5,5c-2.8,0-5-2.2-5-5C39.7,46.8,42,44.5,44.7,44.5z"/>
<path class="st81" d="M47.6,49.5c0,1.6-1.3,2.9-2.9,2.9c-1.6,0-2.9-1.3-2.9-2.9c0-1.6,1.3-2.9,2.9-2.9C46.3,46.7,47.6,48,47.6,49.5z
	 M44.7,44.5c2.8,0,5,2.2,5,5c0,2.8-2.2,5-5,5c-2.8,0-5-2.2-5-5C39.7,46.8,42,44.5,44.7,44.5z"/>
<path class="st86" d="M92.3,35.4l-7.6-15.8h-8.1v15.8H92.3z M73.4,16.4h13.3l8.8,18.3v15.3h-4.6c0-0.1,0-0.2,0-0.4
	c0-3.5-2.9-6.4-6.4-6.4s-6.4,2.9-6.4,6.4c0,0.1,0,0.2,0,0.4h-4.6V16.4z"/>
<path class="st81" d="M92.3,35.4l-7.6-15.8h-8.1v15.8H92.3z M73.4,16.4h13.3l8.8,18.3v15.3h-4.6c0-0.1,0-0.2,0-0.4
	c0-3.5-2.9-6.4-6.4-6.4s-6.4,2.9-6.4,6.4c0,0.1,0,0.2,0,0.4h-4.6V16.4z"/>
<circle class="st80" cx="84.6" cy="49.5" r="0.8"/>
<circle class="st85" cx="84.6" cy="49.5" r="0.8"/>
<path class="st62" d="M87.5,49.5c0,1.6-1.3,2.9-2.9,2.9c-1.6,0-2.9-1.3-2.9-2.9c0-1.6,1.3-2.9,2.9-2.9C86.2,46.7,87.5,48,87.5,49.5z
	 M84.6,44.5c2.8,0,5,2.2,5,5c0,2.8-2.2,5-5,5c-2.8,0-5-2.2-5-5C79.6,46.8,81.9,44.5,84.6,44.5z"/>
<path class="st81" d="M87.5,49.5c0,1.6-1.3,2.9-2.9,2.9c-1.6,0-2.9-1.3-2.9-2.9c0-1.6,1.3-2.9,2.9-2.9C86.2,46.7,87.5,48,87.5,49.5z
	 M84.6,44.5c2.8,0,5,2.2,5,5c0,2.8-2.2,5-5,5c-2.8,0-5-2.2-5-5C79.6,46.8,81.9,44.5,84.6,44.5z"/>
<rect x="76.6" y="36.5" class="st79" width="4.3" height="1.1"/>
<rect x="76.6" y="36.5" class="st81" width="4.3" height="1.1"/>
<path class="st86" d="M95.5,43.7v-2.3c0.5,0,0.9,0.1,1.3,0.4L95.5,43.7z"/>
<path class="st81" d="M95.5,43.7v-2.3c0.5,0,0.9,0.1,1.3,0.4L95.5,43.7z"/>
<path class="st11" d="M104.5,1.8h14.5c1.9,0,3.4,1.5,3.4,3.4v32.1c0,1.9-1.5,3.4-3.4,3.4h-14.5c-1.9,0-3.4-1.5-3.4-3.4V5.2
	C101.2,3.4,102.7,1.8,104.5,1.8z"/>
<path class="st81" d="M104.5,1.8h14.5c1.9,0,3.4,1.5,3.4,3.4v32.1c0,1.9-1.5,3.4-3.4,3.4h-14.5c-1.9,0-3.4-1.5-3.4-3.4V5.2
	C101.2,3.4,102.7,1.8,104.5,1.8z"/>
<rect x="101.2" y="6.9" class="st16" width="21.3" height="27"/>
<rect x="101.2" y="6.9" class="st81" width="21.3" height="27"/>
<circle class="st87" cx="111.8" cy="37.3" r="1.7"/>
<polygon class="st86" points="131.3,35.5 120.5,46.2 128.9,54.6 150.3,54.6 "/>
<polygon class="st81" points="131.3,35.5 120.5,46.2 128.9,54.6 150.3,54.6 "/>
<line class="st87" x1="113.5" y1="4.4" x2="110.1" y2="4.4"/>
<circle class="st65" cx="104.5" cy="10.3" r="1.7"/>
<circle class="st81" cx="104.5" cy="10.3" r="1.7"/>
<path class="st65" d="M109.6,8.6h9.5c0.9,0,1.7,0.8,1.7,1.7v0c0,0.9-0.8,1.7-1.7,1.7h-9.5c-0.9,0-1.7-0.8-1.7-1.7v0
	C107.9,9.3,108.7,8.6,109.6,8.6z"/>
<path class="st81" d="M109.6,8.6h9.5c0.9,0,1.7,0.8,1.7,1.7v0c0,0.9-0.8,1.7-1.7,1.7h-9.5c-0.9,0-1.7-0.8-1.7-1.7v0
	C107.9,9.3,108.7,8.6,109.6,8.6z"/>
<path class="st31" d="M105.1,27.8h13.5c1.2,0,2.2,1,2.2,2.2v0c0,1.2-1,2.2-2.2,2.2h-13.5c-1.2,0-2.2-1-2.2-2.2v0
	C102.9,28.8,103.8,27.8,105.1,27.8z"/>
<path class="st81" d="M105.1,27.8h13.5c1.2,0,2.2,1,2.2,2.2v0c0,1.2-1,2.2-2.2,2.2h-13.5c-1.2,0-2.2-1-2.2-2.2v0
	C102.9,28.8,103.8,27.8,105.1,27.8z"/>
<path class="st84" d="M124.1,28.3c0.9,0,1.7,0.8,1.7,1.7c0,0.9-0.8,1.7-1.7,1.7h-6.7c-0.9,0-1.7-0.8-1.7-1.7c0-0.9,0.8-1.7,1.7-1.7
	H124.1z"/>
<path class="st81" d="M124.1,28.3c0.9,0,1.7,0.8,1.7,1.7c0,0.9-0.8,1.7-1.7,1.7h-6.7c-0.9,0-1.7-0.8-1.7-1.7c0-0.9,0.8-1.7,1.7-1.7
	H124.1z"/>
<path class="st3" d="M104.5,26.7H119c0.9,0,1.7-0.8,1.7-1.7V14.8c0-0.9-0.8-1.7-1.7-1.7h-14.5c-0.9,0-1.7,0.8-1.7,1.7V25
	C102.9,25.9,103.6,26.7,104.5,26.7z"/>
<path class="st81" d="M104.5,26.7H119c0.9,0,1.7-0.8,1.7-1.7V14.8c0-0.9-0.8-1.7-1.7-1.7h-14.5c-0.9,0-1.7,0.8-1.7,1.7V25
	C102.9,25.9,103.6,26.7,104.5,26.7z"/>
<line class="st73" x1="170.1" y1="54.6" x2="0" y2="54.6"/>
</svg>
