<?xml version="1.0" encoding="utf-8"?>
<!-- Generator: Adobe Illustrator 19.1.1, SVG Export Plug-In . SVG Version: 6.00 Build 0)  -->
<svg version="1.1" id="Layer_1" xmlns="http://www.w3.org/2000/svg" xmlns:xlink="http://www.w3.org/1999/xlink" x="0px" y="0px"
	 viewBox="0 0 503.7 119" style="enable-background:new 0 0 503.7 119;" xml:space="preserve">
<style type="text/css">
	.st0{fill:#FFFFFF;}
	.st1{fill:#7CC36D;}
	.st2{fill:#333333;}
	.st3{fill:#F37C20;}
	.st4{fill:#898B8D;}
	.st5{fill:#FFBD2D;}
	.st6{fill:#2D3033;}
	.st7{fill:#4D4D4D;}
	.st8{fill:#FFBD2D;}
	.st9{fill-rule:evenodd;clip-rule:evenodd;fill:#9FD6C6;}
	.st10{fill:#9FD6C6;}
	.st11{fill:#141414;}
</style>
<g>
	<g>
		<rect x="167.7" y="18.4" class="st0" width="156.8" height="86.7"/>
	</g>
	<g>
		<g>
			<path class="st1" d="M307.7,75.7h-34c-2.2,0-4-1.8-4-4V45.8c0-2.2,1.8-4,4-4h34c2.2,0,4,1.8,4,4v25.9
				C311.7,73.9,309.9,75.7,307.7,75.7z"/>
		</g>
		<g>
			<path class="st2" d="M307.7,76.1h-34c-2.4,0-4.4-2-4.4-4.4V45.8c0-2.4,2-4.4,4.4-4.4h34c2.4,0,4.4,2,4.4,4.4v25.9
				C312.1,74.1,310.1,76.1,307.7,76.1z M273.8,42.3c-2,0-3.5,1.6-3.5,3.5v25.9c0,2,1.6,3.5,3.5,3.5h34c2,0,3.5-1.6,3.5-3.5V45.8
				c0-2-1.6-3.5-3.5-3.5H273.8z"/>
		</g>
		<g>
			<path class="st3" d="M306.7,98H185.3c-2.6,0-4.6-2.1-4.6-4.6v0c0-2.6,2.1-4.6,4.6-4.6h121.4c2.6,0,4.6,2.1,4.6,4.6v0
				C311.3,95.9,309.3,98,306.7,98z"/>
		</g>
		<g>
			<path class="st4" d="M259.7,63.1h-69c-0.4,0-0.7-0.2-0.7-0.4c0-0.2,0.3-0.4,0.7-0.4h69c0.4,0,0.7,0.2,0.7,0.4
				C260.4,63,260.1,63.1,259.7,63.1z"/>
		</g>
		<g>
			<path class="st4" d="M259.7,58.7h-69c-0.4,0-0.7-0.2-0.7-0.4c0-0.2,0.3-0.4,0.7-0.4h69c0.4,0,0.7,0.2,0.7,0.4
				C260.4,58.5,260.1,58.7,259.7,58.7z"/>
		</g>
		<g>
			<path class="st4" d="M259.7,54.3h-69c-0.4,0-0.7-0.2-0.7-0.4c0-0.2,0.3-0.4,0.7-0.4h69c0.4,0,0.7,0.2,0.7,0.4
				C260.4,54.1,260.1,54.3,259.7,54.3z"/>
		</g>
		<g>
			<path class="st2" d="M259.7,44h-31.3c-0.4,0-0.7-0.2-0.7-0.4c0-0.2,0.3-0.4,0.7-0.4h31.3c0.4,0,0.7,0.2,0.7,0.4
				C260.4,43.9,260.1,44,259.7,44z"/>
		</g>
		<g>
			<path class="st4" d="M259.7,66.9h-69c-0.4,0-0.7-0.2-0.7-0.4c0-0.2,0.3-0.4,0.7-0.4h69c0.4,0,0.7,0.2,0.7,0.4
				C260.4,66.7,260.1,66.9,259.7,66.9z"/>
		</g>
		<g>
			<path class="st4" d="M259.7,70.6H217c-0.4,0-0.7-0.2-0.7-0.4c0-0.2,0.3-0.4,0.7-0.4h42.7c0.4,0,0.7,0.2,0.7,0.4
				C260.4,70.4,260.1,70.6,259.7,70.6z"/>
		</g>
		<g>
			<path class="st5" d="M321.8,12.9H170.3c-2,0-3.6,1.6-3.6,3.6v11.8h158.8V16.5C325.4,14.5,323.8,12.9,321.8,12.9z"/>
		</g>
		<g>
			<path class="st6" d="M319.3,113.5H172.8c-4,0-7.3-3.3-7.3-7.3V18.8c0-4,3.3-7.3,7.3-7.3h146.4c4,0,7.3,3.3,7.3,7.3v87.4
				C326.6,110.3,323.3,113.5,319.3,113.5z M172.8,13.8c-2.8,0-5,2.3-5,5v87.4c0,2.8,2.3,5,5,5h146.4c2.8,0,5-2.3,5-5V18.8
				c0-2.8-2.3-5-5-5H172.8z"/>
		</g>
		<g>
			<path class="st0" d="M179.8,22.8c-0.1,0-0.1,0-0.2-0.1l-2.3-2.3c-0.1-0.1-0.1-0.3,0-0.4c0.1-0.1,0.3-0.1,0.4,0l2.3,2.3
				c0.1,0.1,0.1,0.3,0,0.4C179.9,22.7,179.9,22.8,179.8,22.8z"/>
		</g>
		<g>
			<path class="st0" d="M177.5,22.8c-0.1,0-0.1,0-0.2-0.1c-0.1-0.1-0.1-0.3,0-0.4l2.3-2.3c0.1-0.1,0.3-0.1,0.4,0
				c0.1,0.1,0.1,0.3,0,0.4l-2.3,2.3C177.6,22.7,177.6,22.8,177.5,22.8z"/>
		</g>
		<g>
			<path class="st0" d="M186.6,22.9h-3.6c-0.3,0-0.5-0.2-0.5-0.5v-2c0-0.3,0.2-0.5,0.5-0.5h3.6c0.3,0,0.5,0.2,0.5,0.5v2
				C187.1,22.7,186.9,22.9,186.6,22.9z M186.5,20.3l-3.6,0l0,2l3.6,0V20.3z"/>
		</g>
		<g>
			<path class="st0" d="M192.4,21.6h-3.3c-0.2,0-0.3-0.1-0.3-0.3c0-0.2,0.1-0.3,0.3-0.3h3.3c0.2,0,0.3,0.1,0.3,0.3
				C192.7,21.5,192.5,21.6,192.4,21.6z"/>
		</g>
		<g>
			<g>
				<path d="M337.9,116.2H154.2c-1.2,0-2.1-0.9-2.1-2.1v-7c0-1.1,0.9-2,2-2h184c1.1,0,2,0.9,2,2v7C340,115.3,339,116.2,337.9,116.2z
					"/>
			</g>
			<g>
				<path class="st7" d="M337.9,117.9H154.2c-1.2,0-2.1-0.9-2.1-2.1V113H340v2.7C340,116.9,339,117.9,337.9,117.9z"/>
			</g>
		</g>
		<g>
			<g>
				<circle class="st0" cx="321.3" cy="51.6" r="27.1"/>
			</g>
			<g>
				<path class="st6" d="M321.3,79.8c-15.5,0-28.2-12.6-28.2-28.2s12.6-28.2,28.2-28.2c15.5,0,28.2,12.6,28.2,28.2
					S336.8,79.8,321.3,79.8z M321.3,25.7c-14.3,0-25.9,11.6-25.9,25.9s11.6,25.9,25.9,25.9c14.3,0,25.9-11.6,25.9-25.9
					S335.6,25.7,321.3,25.7z"/>
			</g>
			<g>
				<path class="st6" d="M333.9,65.9c-0.3,0-0.6-0.1-0.8-0.3c-0.4-0.4-0.4-1.2,0-1.6c6.4-6.4,6.4-17.7,0-24.2
					c-2.9-3.5-7-5.3-11.8-5.3c-0.6,0-1.1-0.5-1.1-1.1c0-0.6,0.5-1.1,1.1-1.1c5.5,0,10.1,2.1,13.5,6.1c7.4,7.4,7.4,19.9-0.1,27.3
					C334.5,65.8,334.2,65.9,333.9,65.9z"/>
			</g>
			<g>
				<path class="st8" d="M336.4,74.2l7.5-7.5l14.5,14.5c1.9,1.9,1.9,5.7,0,7.5l0,0c-1.9,1.9-5.7,1.9-7.5,0L336.4,74.2z"/>
			</g>
			<g>
				<path class="st6" d="M354.6,91.2c-1.7,0-3.4-0.6-4.6-1.7l-15.3-15.3l9.2-9.2l15.3,15.3c2.3,2.3,2.3,6.9,0,9.2
					C358.1,90.7,356.4,91.2,354.6,91.2z M338,74.2l13.7,13.7c1.4,1.4,4.5,1.4,5.9,0c1.4-1.4,1.4-4.5,0-5.9l-13.7-13.7L338,74.2z"/>
			</g>
		</g>
		<g>
			<path class="st9" d="M152.4,8.5v19.8c0,2.7,2.2,5,5,5h29.8c2.7,0,5-2.2,5-5V8.5c0-2.7-2.2-5-5-5h-29.8
				C154.6,3.5,152.4,5.7,152.4,8.5z"/>
		</g>
		<g>
			<path class="st6" d="M157.3,2.2h29.8c3.4,0,6.2,2.8,6.2,6.2v19.8c0,3.4-2.8,6.2-6.2,6.2h-2.4c0-1.5,0-1.5,0-2.5h2.4
				c2,0,3.7-1.7,3.7-3.7V8.5c0-2-1.7-3.7-3.7-3.7h-29.8c-2,0-3.7,1.7-3.7,3.7v19.8c0,2,1.7,3.7,3.7,3.7H179c0,1.2,0,1,0,2.5h-21.7
				c-3.4,0-6.2-2.8-6.2-6.2V8.5C151.1,5,153.9,2.2,157.3,2.2z"/>
		</g>
		<g>
			<path class="st6" d="M158.4,18.4c0-0.7,0.6-1.2,1.2-1.2h25.1c0.7,0,1.2,0.6,1.2,1.2c0,0.7-0.6,1.2-1.2,1.2h-25.1
				C159,19.6,158.4,19.1,158.4,18.4z"/>
		</g>
		<g>
			<path class="st6" d="M158.4,25.8c0-0.7,0.6-1.2,1.2-1.2h25.1c0.7,0,1.2,0.6,1.2,1.2c0,0.7-0.6,1.2-1.2,1.2h-25.1
				C159,27.1,158.4,26.5,158.4,25.8z"/>
		</g>
		<g>
			<path class="st6" d="M158.4,10.9c0-0.7,0.6-1.2,1.2-1.2h25.1c0.7,0,1.2,0.6,1.2,1.2c0,0.7-0.6,1.2-1.2,1.2h-25.1
				C159,12.2,158.4,11.6,158.4,10.9z"/>
		</g>
		<g>
			<path class="st10" d="M186.4,33.6c-0.2,0.9-0.4,3.1,0.8,4.6c0.2,0.2,0,0.6-0.3,0.6c-2.1-0.3-7.1-1.4-8.9-5.1
				c-0.1-0.2,0.1-0.5,0.3-0.5h7.8C186.3,33.2,186.5,33.4,186.4,33.6z"/>
		</g>
		<g>
			<path class="st6" d="M186.7,40c-2.2-0.3-7.7-1.5-9.8-5.7c-0.2-0.5-0.2-1,0.1-1.5c0.3-0.5,0.8-0.7,1.3-0.7h7.8
				c0.5,0,0.9,0.2,1.2,0.6c0.3,0.4,0.4,0.8,0.3,1.3v0c-0.1,0.6-0.4,2.5,0.5,3.7c0.4,0.5,0.4,1.2,0.1,1.7c-0.3,0.5-0.8,0.8-1.3,0.8
				L186.7,40z M179.9,34.4c1.5,1.6,3.8,2.5,5.6,2.9c-0.3-1-0.3-2.1-0.3-2.9H179.9z"/>
		</g>
		<g>
			<path class="st11" d="M396.8,118.7H95.3c-0.3,0-0.6-0.3-0.6-0.6c0-0.3,0.3-0.6,0.6-0.6h301.5c0.3,0,0.6,0.3,0.6,0.6
				C397.3,118.4,397.1,118.7,396.8,118.7z"/>
		</g>
	</g>
</g>
</svg>
