<?xml version="1.0" encoding="utf-8"?>
<!-- Generator: Adobe Illustrator 19.1.1, SVG Export Plug-In . SVG Version: 6.00 Build 0)  -->
<svg version="1.1" id="Layer_1" xmlns="http://www.w3.org/2000/svg" xmlns:xlink="http://www.w3.org/1999/xlink" x="0px" y="0px"
	 viewBox="0 0 66.1 24" style="enable-background:new 0 0 66.1 24;" xml:space="preserve">
<style type="text/css">
	.st11{fill-rule:evenodd;clip-rule:evenodd;fill:#2D3033;}
</style>
<path class="st11" d="M3.4,23h1.9C5.7,23,6,22.7,6,22.3V1.7C6,1.3,5.7,1,5.3,1H3.4C2.9,1,2.6,1.3,2.6,1.7v20.5
	C2.6,22.7,2.9,23,3.4,23 M17.5,23h1.9c0.4,0,0.7-0.3,0.7-0.7V1.7c0-0.4-0.3-0.7-0.7-0.7h-1.9c-0.4,0-0.7,0.3-0.7,0.7v2.5
	c0,0,0,0,0,0L10.3,12l6.5,7.7c0,0,0,0,0,0v2.5C16.8,22.7,17.1,23,17.5,23z M0.9,1C0.8,1,0.7,0.9,0.7,0.9V0.2C0.7,0.1,0.8,0,0.9,0
	h6.9c0.1,0,0.2,0.1,0.2,0.2v0.7C7.9,0.9,7.9,1,7.8,1C7.4,1,7,1.3,7,1.7L7,12c0,0.8,0.9,1.2,1.5,0.5l7.2-8.7V1.7
	C15.8,1.3,15.4,1,15,1c-0.1,0-0.2-0.1-0.2-0.2V0.2C14.9,0.1,14.9,0,15,0h6.9c0.1,0,0.2,0.1,0.2,0.2v0.7C22.1,0.9,22,1,21.9,1
	c-0.4,0-0.7,0.3-0.7,0.7v20.5c0,0.4,0.3,0.7,0.7,0.7c0.1,0,0.2,0.1,0.2,0.2v0.7c0,0.1-0.1,0.2-0.2,0.2H15c-0.1,0-0.2-0.1-0.2-0.2
	v-0.7c0-0.1,0.1-0.2,0.2-0.2c0.4,0,0.7-0.3,0.7-0.7v-2.2l-6.1-7.3L7,15.9v6.4C7,22.7,7.4,23,7.8,23c0.1,0,0.2,0.1,0.2,0.2v0.7
	c0,0.1-0.1,0.2-0.2,0.2H0.9c-0.1,0-0.2-0.1-0.2-0.2v-0.7c0-0.1,0.1-0.2,0.2-0.2c0.4,0,0.7-0.3,0.7-0.7V1.7C1.6,1.3,1.3,1,0.9,1z"/>
<path class="st11" d="M32.6,14.1c0.4,0,0.7,0.3,0.7,0.7c0,0.4-0.3,0.7-0.7,0.7c-0.4,0-0.7-0.3-0.7-0.7C32,14.4,32.3,14.1,32.6,14.1
	 M32.1,16.1h1v3h-1V16.1z M33.7,14.1h1v1h1v1h-1v1.5c0,0.3,0.2,0.5,0.5,0.5h0.5v1h-0.5c-0.8,0-1.5-0.7-1.5-1.5
	C33.7,16.5,33.7,15.3,33.7,14.1z M51.5,14.1h1v1h1v1h-1v1.5c0,0.3,0.2,0.5,0.5,0.5h0.5v1H53c-0.8,0-1.5-0.7-1.5-1.5
	C51.5,16.5,51.5,15.3,51.5,14.1z M38,19.2c-1.1,0-2-0.9-2-2c0-1.1,0.9-2,2-2h0.7v1H38c-0.6,0-1,0.5-1,1c0,0.6,0.5,1,1,1h0.7v1H38z
	 M60.6,19.2c-1.1,0-2-0.9-2-2c0-1.1,0.9-2,2-2h0.7v1h-0.7c-0.6,0-1,0.5-1,1c0,0.6,0.5,1,1,1h0.7v1H60.6z M42.6,16.8v2.4h-1v-2.4
	c0-0.4-0.3-0.7-0.7-0.7c-0.4,0-0.7,0.3-0.7,0.7v2.4h-1v-5.7h1v1.8C41.3,14.8,42.6,15.6,42.6,16.8z M65.2,16.8v2.4h-1v-2.4
	c0-0.4-0.3-0.7-0.7-0.7c-0.4,0-0.7,0.3-0.7,0.7v2.4h-1v-2.4v-3.4h1v1.8C63.9,14.8,65.2,15.6,65.2,16.8z M49.3,15.1
	c0.9,0,1.7,0.8,1.7,1.7v2.4h-1v-2.4c0-0.4-0.3-0.7-0.7-0.7h-0.7v3h-1v-4H49.3z M45.1,15.1c1.1,0,2,0.9,2,2c0,0.3-0.2,0.5-0.5,0.5
	c-0.5,0-1,0-1.5,0c-0.3,0-0.5-0.2-0.5-0.5c0-0.3,0.2-0.5,0.5-0.5H46c-0.2-0.3-0.5-0.5-0.9-0.5c-0.6,0-1,0.5-1,1c0,0.6,0.5,1,1,1h1.2
	v1h-1.2c-1.1,0-2-0.9-2-2C43.1,16,44,15.1,45.1,15.1z M56.1,15.1c1.1,0,2,0.9,2,2c0,0.3-0.2,0.5-0.5,0.5c-0.5,0-1,0-1.5,0
	c-0.3,0-0.5-0.2-0.5-0.5c0-0.3,0.2-0.5,0.5-0.5h0.9c-0.2-0.3-0.5-0.5-0.9-0.5c-0.6,0-1,0.5-1,1c0,0.6,0.5,1,1,1h1.2v1h-1.2
	c-1.1,0-2-0.9-2-2C54,16,55,15.1,56.1,15.1z M27.8,19.2h1v-2.9l1.7,2.9h1.2L30,16.3l1.7-2.9h-1.2l-1.7,2.9v-2.9h-1V19.2z"/>
<path class="st11" d="M52.7,10.6h1v-2c0-0.6,0.5-1,1-1h0.3v-1c-0.5,0-0.9,0-1.4,0.3V6.5h-1v2V10.6z M34.2,10.6c-1.1,0-2-0.9-2-2
	c0-1.1,0.9-2,2-2c0.7,0,1.3,0,2,0v4h-1v-3h-1c-0.6,0-1,0.5-1,1s0.5,1,1,1h0.5v1H34.2z M38.8,6.5c1.1,0,2,0.9,2,2c0,1.1-0.9,2-2,2
	c-0.7,0-1.3,0-2,0V4.8h1v4.7h1c0.6,0,1-0.5,1-1s-0.5-1-1-1h-0.5v-1H38.8z M31.6,4.8h-1v5.7h1V4.8z M28.8,4.8h-1v5.7h1V8.2h1.5v-1
	h-1.5V4.8z M45.7,7.5c0.6,0,1,0.5,1,1s-0.5,1-1,1c-0.6,0-1-0.5-1-1S45.1,7.5,45.7,7.5z M45.7,6.5c1.1,0,2,0.9,2,2c0,1.1-0.9,2-2,2
	c-1.1,0-2-0.9-2-2C43.6,7.4,44.5,6.5,45.7,6.5z M50.2,7.5c0.6,0,1,0.5,1,1s-0.5,1-1,1c-0.6,0-1-0.5-1-1S49.7,7.5,50.2,7.5z
	 M50.2,6.5c1.1,0,2,0.9,2,2c0,1.1-0.9,2-2,2c-1.1,0-2-0.9-2-2C48.2,7.4,49.1,6.5,50.2,6.5z M41.3,5.5h1v1h1v1h-1v1.5
	c0,0.3,0.2,0.5,0.5,0.5h0.5v1h-0.5c-0.8,0-1.5-0.7-1.5-1.5V6.5V5.5z"/>
</svg>
