<svg xmlns="http://www.w3.org/2000/svg" version="1.1" xmlns:xlink="http://www.w3.org/1999/xlink" xmlns:svgjs="http://svgjs.dev/svgjs" width="1500" height="1500" viewBox="0 0 1500 1500"><rect width="1500" height="1500" fill="#ffffff"></rect><g transform="matrix(0.6666666666666666,0,0,0.6666666666666666,248.9349195958073,225.31290322580645)"><svg viewBox="0 0 237 248" data-background-color="#ffffff" preserveAspectRatio="xMidYMid meet" height="1569" width="1500" xmlns="http://www.w3.org/2000/svg" xmlns:xlink="http://www.w3.org/1999/xlink"><g id="tight-bounds" transform="matrix(1,0,0,1,0.2524240557936821,0.4000000000000057)"><svg viewBox="0 0 236.49515188841264 247.2" height="247.2" width="236.49515188841264"><g><svg viewBox="0 0 395.52 413.4230372981717" height="247.2" width="236.49515188841264"><g><svg viewBox="0 0 395.52 291.4974002904406" height="291.4974002904406" width="395.52"><g id="textblocktransform"><svg viewBox="0 0 395.52 291.4974002904406" height="291.4974002904406" width="395.52" id="textblock"><g><svg viewBox="0 0 395.52 208.95396226415093" height="208.95396226415093" width="395.52"><g transform="matrix(1,0,0,1,0,0)"><svg width="395.52" viewBox="4.6 -35 66.25 35" height="208.95396226415093" data-palette-color="#ff0202"><path d="M4.6 0L4.6-35 10.5-35 10.5-16.2 27.2-35 34.15-35 10.5-9.05 10.5 0 4.6 0ZM16.05-16.15L19.95-20.85 35.05 0 27.95 0 16.05-16.15ZM40.5 0L40.5-35 46.4-35 46.4-19.65 64.95-19.65 64.95-35 70.85-35 70.85 0 64.95 0 64.95-14.65 46.4-14.65 46.4 0 40.5 0Z" opacity="1" transform="matrix(1,0,0,1,0,0)" fill="#ff0202" class="wordmark-text-0" data-fill-palette-color="primary" id="text-0"></path></svg></g></svg></g><g transform="matrix(1,0,0,1,27.686399999999992,258.28297785962263)"><svg viewBox="0 0 340.1472 33.21442243081799" height="33.21442243081799" width="340.1472"><g transform="matrix(1,0,0,1,0,0)"><svg width="340.1472" viewBox="1.95 -38.38 400.51 39.11" height="33.21442243081799" data-palette-color="#001f3f"><path d="M9.77 0.61L9.77 0.61Q6.18 0.61 4.06-1.4 1.95-3.42 1.95-6.96L1.95-6.96Q1.95-8.79 2.62-10.36 3.3-11.94 4.97-13.15 6.64-14.36 9.66-15.09 12.67-15.82 17.36-15.94L17.36-15.94Q17.36-18.16 16.25-19.14 15.14-20.12 12.92-20.12L12.92-20.12Q10.91-20.12 9.64-19.43 8.37-18.75 8.06-18.51L8.06-18.51Q7.71-18.21 7.23-18.29L7.23-18.29Q6.57-18.38 5.82-18.63 5.08-18.87 4.22-19.19L4.22-19.19Q4.1-19.24 3.96-19.35 3.81-19.46 3.78-19.68L3.78-19.68Q3.78-19.8 3.81-19.98 3.83-20.17 3.93-20.65L3.93-20.65Q4.03-21.14 4.22-21.86 4.42-22.58 4.59-22.97L4.59-22.97Q4.81-23.39 5.32-23.75L5.32-23.75Q5.74-24.1 7.84-24.85 9.94-25.61 13.92-25.61L13.92-25.61Q24.88-25.61 24.88-14.94L24.88-14.94 24.88-1.12Q24.88-0.66 24.62-0.33 24.37 0 23.75 0L23.75 0 20.09 0Q19.7 0 19.4-0.11 19.09-0.22 18.82-0.54L18.82-0.54 17.31-2.49 17.14-2.49Q16.02-0.85 14.12-0.12 12.23 0.61 9.77 0.61ZM12.45-5.05L12.45-5.05Q14.7-5.05 15.84-6.2 16.99-7.35 17.31-8.57L17.31-8.57 17.31-11.28Q13.92-11.28 12.22-10.75 10.52-10.23 9.96-9.39 9.4-8.54 9.4-7.57L9.4-7.57Q9.4-6.15 10.28-5.6 11.16-5.05 12.45-5.05ZM42.94 0.61L42.94 0.61Q39.79 0.61 37.64 0.15 35.5-0.32 34.03-1 32.57-1.68 31.47-2.37L31.47-2.37 31.47-34.33Q31.47-34.91 31.71-35.23L31.71-35.23Q32.74-36.57 34.71-38.13L34.71-38.13Q35.06-38.38 35.32-38.38L35.32-38.38Q35.64-38.38 35.94-38.13L35.94-38.13Q36.98-37.33 37.71-36.62 38.43-35.91 38.94-35.23L38.94-35.23Q39.18-34.91 39.18-34.33L39.18-34.33 39.18-22.49 39.28-22.49Q40.26-23.73 41.99-24.67 43.72-25.61 46.82-25.61L46.82-25.61Q50.29-25.61 52.54-24.01 54.78-22.41 55.88-19.62 56.98-16.82 56.98-13.21L56.98-13.21Q56.98-9.3 55.69-6.16 54.39-3.03 51.33-1.21 48.26 0.61 42.94 0.61ZM43.26-5.3L43.26-5.3Q46.09-5.3 47.58-7.19 49.07-9.08 49.07-12.6L49.07-12.6Q49.07-16.16 47.74-17.77 46.41-19.38 43.89-19.38L43.89-19.38Q41.87-19.38 40.81-18.55 39.74-17.72 39.18-16.46L39.18-16.46 39.18-6.37Q39.72-5.98 40.71-5.64 41.7-5.3 43.26-5.3ZM80.05 0L62.96 0Q61.74 0 60.88-0.67 60.03-1.34 59.97-2.5 59.91-3.66 61.05-5.13L61.05-5.13 72.11-19.31 62.76-19.31Q62.32-19.31 62.08-19.48L62.08-19.48Q61.08-20.29 59.98-21.7L59.98-21.7Q59.79-22.02 59.79-22.17L59.79-22.17Q59.79-22.34 59.98-22.61L59.98-22.61Q61.08-24.02 62.08-24.83L62.08-24.83Q62.37-25 62.76-25L62.76-25 78.66-25Q81.1-25 81.76-23.43 82.42-21.85 80.9-19.9L80.9-19.9 70.01-5.69 80.05-5.69Q80.49-5.69 80.73-5.52L80.73-5.52Q81.73-4.71 82.83-3.3L82.83-3.3Q83.03-2.98 83.03-2.83L83.03-2.83Q83.03-2.66 82.83-2.39L82.83-2.39Q81.73-0.98 80.73-0.17L80.73-0.17Q80.44 0 80.05 0L80.05 0ZM93.64 0.61L93.64 0.61Q90.06 0.61 87.94-1.4 85.83-3.42 85.83-6.96L85.83-6.96Q85.83-8.79 86.5-10.36 87.18-11.94 88.85-13.15 90.52-14.36 93.53-15.09 96.55-15.82 101.24-15.94L101.24-15.94Q101.24-18.16 100.13-19.14 99.02-20.12 96.79-20.12L96.79-20.12Q94.79-20.12 93.52-19.43 92.25-18.75 91.94-18.51L91.94-18.51Q91.59-18.21 91.11-18.29L91.11-18.29Q90.45-18.38 89.7-18.63 88.96-18.87 88.1-19.19L88.1-19.19Q87.98-19.24 87.83-19.35 87.69-19.46 87.66-19.68L87.66-19.68Q87.66-19.8 87.69-19.98 87.71-20.17 87.81-20.65L87.81-20.65Q87.91-21.14 88.1-21.86 88.3-22.58 88.47-22.97L88.47-22.97Q88.69-23.39 89.2-23.75L89.2-23.75Q89.62-24.1 91.72-24.85 93.82-25.61 97.8-25.61L97.8-25.61Q108.76-25.61 108.76-14.94L108.76-14.94 108.76-1.12Q108.76-0.66 108.5-0.33 108.24 0 107.63 0L107.63 0 103.97 0Q103.58 0 103.28-0.11 102.97-0.22 102.7-0.54L102.7-0.54 101.19-2.49 101.02-2.49Q99.89-0.85 98-0.12 96.11 0.61 93.64 0.61ZM96.33-5.05L96.33-5.05Q98.58-5.05 99.72-6.2 100.87-7.35 101.19-8.57L101.19-8.57 101.19-11.28Q97.8-11.28 96.1-10.75 94.4-10.23 93.84-9.39 93.28-8.54 93.28-7.57L93.28-7.57Q93.28-6.15 94.16-5.6 95.04-5.05 96.33-5.05ZM123.06-22.17L123.06-20.36 123.16-20.36Q124.99-25.44 129.75-25.44L129.75-25.44Q130.36-25.44 130.75-25.38 131.14-25.32 131.29-25.27L131.29-25.27Q131.66-25.15 131.66-24.71L131.66-24.71 131.66-18.82Q131.66-18.07 130.78-18.41L130.78-18.41Q130.48-18.53 129.93-18.66 129.38-18.8 128.41-18.8L128.41-18.8Q125.89-18.8 124.48-16.96 123.06-15.11 123.06-11.94L123.06-11.94 123.06-1.29Q123.06-0.56 122.76-0.28 122.45 0 121.72 0L121.72 0 116.69 0Q115.96 0 115.65-0.28 115.35-0.56 115.35-1.29L115.35-1.29 115.35-21.75Q115.35-22.34 115.59-22.66L115.59-22.66Q116.1-23.34 116.82-24.05 117.54-24.76 118.59-25.56L118.59-25.56Q118.79-25.71 118.98-25.76 119.18-25.81 119.33-25.81L119.33-25.81Q119.67-25.81 120.01-25.56L120.01-25.56Q122.04-23.97 122.84-22.85L122.84-22.85Q123.06-22.56 123.06-22.17L123.06-22.17ZM157.65-22.44L157.65-22.44Q158.56-23.54 160.45-24.57 162.34-25.61 165.78-25.61L165.78-25.61Q170.67-25.61 172.84-23.1 175.01-20.58 175.01-15.55L175.01-15.55 175.01-1.29Q175.01-0.56 174.71-0.28 174.4 0 173.67 0L173.67 0 168.64 0Q167.91 0 167.6-0.28 167.3-0.56 167.3-1.29L167.3-1.29 167.3-14.28Q167.3-17.02 166.3-18.2 165.3-19.38 163.29-19.38L163.29-19.38Q161.51-19.38 160.47-18.59 159.44-17.8 159-16.46L159-16.46 159-1.29Q159-0.56 158.69-0.28 158.39 0 157.65 0L157.65 0 152.62 0Q151.89 0 151.59-0.28 151.28-0.56 151.28-1.29L151.28-1.29 151.28-14.28Q151.28-16.94 150.18-18.16 149.08-19.38 147.3-19.38L147.3-19.38Q145.62-19.38 144.59-18.55 143.57-17.72 143.01-16.46L143.01-16.46 143.01-1.29Q143.01-0.56 142.7-0.28 142.39 0 141.66 0L141.66 0 136.63 0Q135.9 0 135.6-0.28 135.29-0.56 135.29-1.29L135.29-1.29 135.29-21.75Q135.29-22.34 135.53-22.66L135.53-22.66Q136.05-23.34 136.77-24.05 137.49-24.76 138.54-25.56L138.54-25.56Q138.85-25.81 139.15-25.81L139.15-25.81Q139.42-25.81 139.76-25.56L139.76-25.56Q140.78-24.76 141.52-24.02 142.25-23.29 142.81-22.51L142.81-22.51 142.93-22.51Q143.76-23.56 145.52-24.58 147.28-25.61 150.55-25.61L150.55-25.61Q153.67-25.61 155.19-24.67 156.7-23.73 157.65-22.44ZM193.59 0.61L193.59 0.61Q187.44 0.61 183.85-2.66 180.26-5.93 180.26-12.4L180.26-12.4Q180.26-19.04 183.98-22.33 187.7-25.61 193.93-25.61L193.93-25.61Q199.94-25.61 203.55-22.38 207.16-19.14 207.16-12.84L207.16-12.84Q207.16-6.27 203.55-2.83 199.94 0.61 193.59 0.61ZM193.83-5.3L193.83-5.3Q196.52-5.3 197.89-6.97 199.25-8.64 199.25-12.7L199.25-12.7Q199.25-16.55 197.87-18.13 196.49-19.7 193.78-19.7L193.78-19.7Q191.17-19.7 189.67-18.01 188.17-16.31 188.17-12.5L188.17-12.5Q188.17-8.52 189.6-6.91 191.03-5.3 193.83-5.3ZM223.88 0.61L223.88 0.61Q220.73 0.61 218.59 0.15 216.44-0.32 214.97-1 213.51-1.68 212.41-2.37L212.41-2.37 212.41-34.33Q212.41-34.91 212.65-35.23L212.65-35.23Q213.68-36.57 215.66-38.13L215.66-38.13Q216-38.38 216.27-38.38L216.27-38.38Q216.58-38.38 216.88-38.13L216.88-38.13Q217.93-37.33 218.65-36.62 219.37-35.91 219.88-35.23L219.88-35.23Q220.12-34.91 220.12-34.33L220.12-34.33 220.12-22.49 220.22-22.49Q221.2-23.73 222.93-24.67 224.67-25.61 227.77-25.61L227.77-25.61Q231.23-25.61 233.48-24.01 235.72-22.41 236.82-19.62 237.92-16.82 237.92-13.21L237.92-13.21Q237.92-9.3 236.63-6.16 235.33-3.03 232.27-1.21 229.21 0.61 223.88 0.61ZM224.2-5.3L224.2-5.3Q227.03-5.3 228.52-7.19 230.01-9.08 230.01-12.6L230.01-12.6Q230.01-16.16 228.68-17.77 227.35-19.38 224.84-19.38L224.84-19.38Q222.81-19.38 221.75-18.55 220.69-17.72 220.12-16.46L220.12-16.46 220.12-6.37Q220.66-5.98 221.65-5.64 222.64-5.3 224.2-5.3ZM251.47-1.83L246.37 0.51Q245.85 0.73 245.63 0.73L245.63 0.73Q245.41 0.73 245.17 0.56L245.17 0.56Q244.61 0.17 243.89-1.35 243.17-2.88 243.17-6.05L243.17-6.05 243.17-34.33Q243.17-34.91 243.41-35.23L243.41-35.23Q244.44-36.57 246.42-38.13L246.42-38.13Q246.76-38.38 247.03-38.38L247.03-38.38Q247.34-38.38 247.64-38.13L247.64-38.13Q248.69-37.33 249.41-36.62 250.13-35.91 250.64-35.23L250.64-35.23Q250.88-34.91 250.88-34.33L250.88-34.33 250.88-7.54Q250.88-5.93 251.15-4.8 251.42-3.66 251.79-2.98L251.79-2.98Q252.2-2.17 251.47-1.83L251.47-1.83ZM279.93-22.44L279.93-22.44Q280.84-23.54 282.73-24.57 284.62-25.61 288.06-25.61L288.06-25.61Q292.95-25.61 295.12-23.1 297.29-20.58 297.29-15.55L297.29-15.55 297.29-1.29Q297.29-0.56 296.99-0.28 296.68 0 295.95 0L295.95 0 290.92 0Q290.19 0 289.88-0.28 289.58-0.56 289.58-1.29L289.58-1.29 289.58-14.28Q289.58-17.02 288.58-18.2 287.58-19.38 285.57-19.38L285.57-19.38Q283.79-19.38 282.75-18.59 281.72-17.8 281.28-16.46L281.28-16.46 281.28-1.29Q281.28-0.56 280.97-0.28 280.67 0 279.93 0L279.93 0 274.9 0Q274.17 0 273.87-0.28 273.56-0.56 273.56-1.29L273.56-1.29 273.56-14.28Q273.56-16.94 272.46-18.16 271.36-19.38 269.58-19.38L269.58-19.38Q267.9-19.38 266.87-18.55 265.85-17.72 265.29-16.46L265.29-16.46 265.29-1.29Q265.29-0.56 264.98-0.28 264.67 0 263.94 0L263.94 0 258.91 0Q258.18 0 257.88-0.28 257.57-0.56 257.57-1.29L257.57-1.29 257.57-21.75Q257.57-22.34 257.81-22.66L257.81-22.66Q258.33-23.34 259.05-24.05 259.77-24.76 260.82-25.56L260.82-25.56Q261.13-25.81 261.43-25.81L261.43-25.81Q261.7-25.81 262.04-25.56L262.04-25.56Q263.06-24.76 263.8-24.02 264.53-23.29 265.09-22.51L265.09-22.51 265.21-22.51Q266.04-23.56 267.8-24.58 269.56-25.61 272.83-25.61L272.83-25.61Q275.95-25.61 277.47-24.67 278.98-23.73 279.93-22.44ZM310.35 0.61L310.35 0.61Q306.76 0.61 304.65-1.4 302.54-3.42 302.54-6.96L302.54-6.96Q302.54-8.79 303.21-10.36 303.88-11.94 305.55-13.15 307.23-14.36 310.24-15.09 313.26-15.82 317.94-15.94L317.94-15.94Q317.94-18.16 316.83-19.14 315.72-20.12 313.5-20.12L313.5-20.12Q311.5-20.12 310.23-19.43 308.96-18.75 308.64-18.51L308.64-18.51Q308.3-18.21 307.81-18.29L307.81-18.29Q307.15-18.38 306.41-18.63 305.66-18.87 304.81-19.19L304.81-19.19Q304.69-19.24 304.54-19.35 304.39-19.46 304.37-19.68L304.37-19.68Q304.37-19.8 304.39-19.98 304.42-20.17 304.52-20.65L304.52-20.65Q304.61-21.14 304.81-21.86 305-22.58 305.18-22.97L305.18-22.97Q305.39-23.39 305.91-23.75L305.91-23.75Q306.32-24.1 308.42-24.85 310.52-25.61 314.5-25.61L314.5-25.61Q325.46-25.61 325.46-14.94L325.46-14.94 325.46-1.12Q325.46-0.66 325.21-0.33 324.95 0 324.34 0L324.34 0 320.68 0Q320.29 0 319.98-0.11 319.68-0.22 319.41-0.54L319.41-0.54 317.89-2.49 317.72-2.49Q316.6-0.85 314.71-0.12 312.82 0.61 310.35 0.61ZM313.04-5.05L313.04-5.05Q315.28-5.05 316.43-6.2 317.58-7.35 317.89-8.57L317.89-8.57 317.89-11.28Q314.5-11.28 312.8-10.75 311.11-10.23 310.55-9.39 309.98-8.54 309.98-7.57L309.98-7.57Q309.98-6.15 310.86-5.6 311.74-5.05 313.04-5.05ZM339.77-16.46L339.77-1.29Q339.77-0.56 339.46-0.28 339.16 0 338.42 0L338.42 0 333.4 0Q332.66 0 332.36-0.28 332.05-0.56 332.05-1.29L332.05-1.29 332.05-34.33Q332.05-34.91 332.3-35.23L332.3-35.23Q333.32-36.57 335.3-38.13L335.3-38.13Q335.64-38.38 335.91-38.38L335.91-38.38Q336.23-38.38 336.52-38.13L336.52-38.13Q337.57-37.33 338.29-36.62 339.01-35.91 339.52-35.23L339.52-35.23Q339.77-34.91 339.77-34.33L339.77-34.33 339.77-22.49 339.87-22.49Q340.4-23.19 341.26-23.91 342.11-24.63 343.54-25.12 344.97-25.61 347.19-25.61L347.19-25.61Q349.44-25.61 351.51-24.68 353.59-23.75 354.9-21.56 356.22-19.36 356.22-15.55L356.22-15.55 356.22-1.29Q356.22-0.56 355.92-0.28 355.61 0 354.88 0L354.88 0 349.85 0Q349.12 0 348.81-0.28 348.51-0.56 348.51-1.29L348.51-1.29 348.51-14.21Q348.51-16.92 347.38-18.15 346.26-19.38 344.33-19.38L344.33-19.38Q342.43-19.38 341.38-18.55 340.33-17.72 339.77-16.46L339.77-16.46ZM371.65 0.61L371.65 0.61Q368.4 0.61 366.12-0.99 363.84-2.59 362.65-5.41 361.47-8.23 361.47-11.91L361.47-11.91Q361.47-16.77 363.19-19.79 364.91-22.8 368.05-24.22 371.19-25.63 375.46-25.63L375.46-25.63Q376.92-25.63 377.89-25.49 378.85-25.34 379.27-25.22L379.27-25.22 379.27-34.33Q379.27-34.91 379.51-35.23L379.51-35.23Q380.54-36.57 382.51-38.13L382.51-38.13Q382.86-38.38 383.12-38.38L383.12-38.38Q383.44-38.38 383.73-38.13L383.73-38.13Q384.78-37.33 385.5-36.62 386.22-35.91 386.74-35.23L386.74-35.23Q386.98-34.91 386.98-34.33L386.98-34.33 386.98-1.12Q386.98-0.66 386.66-0.33 386.35 0 385.86 0L385.86 0 382.22 0Q381.83 0 381.53-0.11 381.22-0.22 380.95-0.54L380.95-0.54 379.44-2.49 379.27-2.49Q378.95-2 378.13-1.26 377.31-0.51 375.76 0.05 374.21 0.61 371.65 0.61ZM374.02-5.64L374.02-5.64Q376.22-5.64 377.47-6.47 378.73-7.3 379.27-8.57L379.27-8.57 379.27-18.8Q378.88-19.04 377.97-19.38 377.07-19.73 375.43-19.73L375.43-19.73Q372.41-19.73 370.89-17.75 369.38-15.77 369.38-12.43L369.38-12.43Q369.38-8.96 370.65-7.3 371.92-5.64 374.02-5.64ZM392.45-33.2L392.45-33.2Q392.45-33.52 392.64-33.76 392.84-34.01 393.16-34.4L393.16-34.4Q393.84-35.18 394.74-36.05 395.65-36.91 396.57-37.72L396.57-37.72Q397.16-38.18 397.45-38.18L397.45-38.18Q397.75-38.18 398.36-37.72L398.36-37.72Q400.33-36.01 401.73-34.4L401.73-34.4Q402.04-34.03 402.25-33.78 402.46-33.52 402.46-33.2L402.46-33.2Q402.46-32.89 402.25-32.64 402.04-32.4 401.7-31.98L401.7-31.98Q401.04-31.23 400.16-30.36 399.28-29.49 398.36-28.71L398.36-28.71Q398.01-28.42 397.82-28.33 397.62-28.25 397.45-28.25L397.45-28.25Q397.28-28.25 397.1-28.33 396.92-28.42 396.53-28.71L396.53-28.71Q395.55-29.49 394.69-30.36 393.84-31.23 393.16-32.03L393.16-32.03Q392.84-32.42 392.64-32.65 392.45-32.89 392.45-33.2ZM401.29-23.71L401.29-1.29Q401.29-0.56 400.98-0.28 400.68 0 399.94 0L399.94 0 394.91 0Q394.18 0 393.88-0.28 393.57-0.56 393.57-1.29L393.57-1.29 393.57-23.71Q393.57-24.44 393.88-24.72 394.18-25 394.91-25L394.91-25 399.94-25Q400.68-25 400.98-24.72 401.29-24.44 401.29-23.71L401.29-23.71Z" opacity="1" transform="matrix(1,0,0,1,0,0)" fill="#001f3f" class="slogan-text-1" data-fill-palette-color="secondary" id="text-1"></path></svg></g></svg></g></svg></g></svg></g><g transform="matrix(1,0,0,1,88.98804480000001,340.8264158859123)"><svg viewBox="0 0 217.54391039999996 72.59662141225938" height="72.59662141225938" width="217.54391039999996"><g><svg xmlns="http://www.w3.org/2000/svg" xmlns:xlink="http://www.w3.org/1999/xlink" version="1.1" x="0" y="0" viewBox="2.8 34.24675730924211 94.4 31.502242690757882" enable-background="new 0 0 100 100" xml:space="preserve" height="72.59662141225938" width="217.54391039999996" class="icon-icon-0" data-fill-palette-color="accent" id="icon-0"><g fill="#26394b" data-fill-palette-color="accent"><rect x="5.005" y="63.053" width="2.697" height="2.696" fill="#26394b" data-fill-palette-color="accent"></rect><rect x="26.125" y="63.053" width="2.697" height="2.696" fill="#26394b" data-fill-palette-color="accent"></rect><path d="M30.783 50.186H2.8V54.721H31.029V50.432A0.247 0.247 0 0 0 30.783 50.186" fill="#26394b" data-fill-palette-color="accent"></path><path d="M7.34 40.944A0.3 0.3 0 0 1 7.335 40.884 0.615 0.615 0 0 0 6.733 40.259H2.8V49.206H8.871z" fill="#26394b" data-fill-palette-color="accent"></path><rect x="2.8" y="61.214" width="28.229" height="0.859" fill="#26394b" data-fill-palette-color="accent"></rect><rect x="2.8" y="55.7" width="28.229" height="4.535" fill="#26394b" data-fill-palette-color="accent"></rect><path d="M20.365 36.523L21.821 49.206H29.703L28.454 38.335A8.55 8.55 0 0 0 24.132 34.35L18.806 34.687C18.695 34.68 18.631 34.7 18.58 34.742S18.499 34.843 18.493 34.909C18.494 34.915 18.491 34.923 18.491 34.929L18.748 34.97C19.576 35.018 20.268 35.672 20.365 36.523" fill="#26394b" data-fill-palette-color="accent"></path><path d="M15.008 48.745C15.016 48.817 15.019 48.891 15.016 48.963L21.191 48.967 19.77 36.592A1.16 1.16 0 0 0 18.686 35.567L13.029 34.665C13.306 35.026 13.484 35.459 13.535 35.913z" fill="#26394b" data-fill-palette-color="accent"></path><polygon points="30.69,49.207 31.27,49.207 31.27,40.26 29.662,40.26  " fill="#26394b" data-fill-palette-color="accent"></polygon><path d="M12.514 49.207C12.68 49.191 12.777 49.069 12.763 48.935L10.407 36.217A1.35 1.35 0 0 0 9.081 35.114H7.755A0.246 0.246 0 0 0 7.509 35.36L10.071 49.208z" fill="#26394b" data-fill-palette-color="accent"></path><path d="M9.52 49.586H9.542C9.539 49.576 9.529 49.571 9.527 49.561L9.523 49.541C9.521 49.556 9.524 49.571 9.52 49.586" fill="#26394b" data-fill-palette-color="accent"></path><path d="M13.723 48.737C13.752 48.893 13.75 49.053 13.718 49.206H14.37C14.372 49.193 14.369 49.18 14.373 49.167A0.8 0.8 0 0 0 14.411 48.812L12.937 35.98A1.93 1.93 0 0 0 12.393 34.849 0.3 0.3 0 0 1 12.344 34.784L12.132 34.406C12.118 34.381 12.12 34.353 12.113 34.327L11.61 34.247C11.514 34.241 11.39 34.347 11.382 34.482A0.34 0.34 0 0 1 11.3 34.74C11.238 34.804 11.144 34.858 11.064 34.85L10.735 34.828C11.056 35.154 11.281 35.572 11.367 36.037z" fill="#26394b" data-fill-palette-color="accent"></path><path d="M51.006 35.359A0.614 0.614 0 0 0 50.393 34.746H32.863A0.614 0.614 0 0 0 32.25 35.359V49.207H51.006z" fill="#26394b" data-fill-palette-color="accent"></path><rect x="92.297" y="63.053" width="2.697" height="2.696" fill="#26394b" data-fill-palette-color="accent"></rect><rect x="92.665" y="45.406" width="4.535" height="14.829" fill="#26394b" data-fill-palette-color="accent"></rect><path d="M91.444 35.359A0.614 0.614 0 0 0 90.831 34.746H73.301A0.614 0.614 0 0 0 72.688 35.359V49.207H91.445z" fill="#26394b" data-fill-palette-color="accent"></path><rect x="34.213" y="63.053" width="2.697" height="2.696" fill="#26394b" data-fill-palette-color="accent"></rect><rect x="32.007" y="61.214" width="65.193" height="0.859" fill="#26394b" data-fill-palette-color="accent"></rect><rect x="32.007" y="55.7" width="59.678" height="4.535" fill="#26394b" data-fill-palette-color="accent"></rect><rect x="52.227" y="50.186" width="19.24" height="4.535" fill="#26394b" data-fill-palette-color="accent"></rect><path d="M71.225 35.359A0.614 0.614 0 0 0 70.612 34.746H53.082A0.614 0.614 0 0 0 52.469 35.359V49.207H71.225z" fill="#26394b" data-fill-palette-color="accent"></path><rect x="72.445" y="50.186" width="19.24" height="4.535" fill="#26394b" data-fill-palette-color="accent"></rect><rect x="32.007" y="50.186" width="19.24" height="4.535" fill="#26394b" data-fill-palette-color="accent"></rect></g></svg></g></svg></g><g></g></svg></g><defs></defs></svg><rect width="236.49515188841264" height="247.2" fill="none" stroke="none" visibility="hidden"></rect></g></svg></g></svg>