<?xml version="1.0" encoding="UTF-8" standalone="no"?>
<svg
   xmlns:dc="http://purl.org/dc/elements/1.1/"
   xmlns:cc="http://creativecommons.org/ns#"
   xmlns:rdf="http://www.w3.org/1999/02/22-rdf-syntax-ns#"
   xmlns:svg="http://www.w3.org/2000/svg"
   xmlns="http://www.w3.org/2000/svg"
   viewBox="0 0 54.266666 22.719999"
   height="22.719999"
   width="54.266666"
   xml:space="preserve"
   id="svg2"
   version="1.1"><metadata
     id="metadata8"><rdf:RDF><cc:Work
         rdf:about=""><dc:format>image/svg+xml</dc:format><dc:type
           rdf:resource="http://purl.org/dc/dcmitype/StillImage" /></cc:Work></rdf:RDF></metadata><defs
     id="defs6" /><g
     transform="matrix(1.3333333,0,0,-1.3333333,0,22.72)"
     id="g10"><g
       transform="scale(0.1)"
       id="g12"><path
         id="path14"
         style="fill:#323436;fill-opacity:1;fill-rule:nonzero;stroke:none"
         d="m 351.52,122.391 c -4.325,0 -7.84,3.515 -7.84,7.839 0,4.321 3.515,7.836 7.84,7.836 h 47.125 c 4.324,0 7.839,-3.515 7.839,-7.836 0,-4.324 -3.515,-7.839 -7.839,-7.839 H 351.52" /><path
         id="path16"
         style="fill:#323436;fill-opacity:1;fill-rule:nonzero;stroke:none"
         d="m 351.52,59.5898 c -4.325,0 -7.84,3.5157 -7.84,7.836 0,4.3203 3.515,7.8359 7.84,7.8359 h 47.125 c 4.324,0 7.839,-3.5156 7.839,-7.8359 0,-4.3203 -3.515,-7.836 -7.839,-7.836 H 351.52" /><path
         id="path18"
         style="fill:#323436;fill-opacity:1;fill-rule:nonzero;stroke:none"
         d="m 351.52,90.9883 c -4.325,0 -7.84,3.5195 -7.84,7.8398 0,4.3199 3.515,7.8359 7.84,7.8359 h 47.125 c 4.324,0 7.839,-3.516 7.839,-7.8359 0,-4.3203 -3.515,-7.8398 -7.839,-7.8398 H 351.52" /><path
         id="path20"
         style="fill:#323436;fill-opacity:1;fill-rule:nonzero;stroke:none"
         d="m 268.316,130.223 z m 0,0 c 0,4.32 3.516,7.836 7.836,7.836 4.325,0 7.84,-3.516 7.84,-7.836 v -16.731 l 34.817,23.211 c 1.457,1.004 3.214,1.457 4.972,1.356 2.164,-0.149 4.223,-1.204 5.578,-2.914 1.157,-1.407 1.758,-3.165 1.758,-4.973 V 67.418 c 0,-4.3203 -3.515,-7.836 -7.887,-7.836 -4.32,0 -7.835,3.5157 -7.835,7.836 v 48.133 L 283.992,94.6484 V 67.418 c 0,-4.3203 -3.515,-7.836 -7.84,-7.836 -4.32,0 -7.836,3.5157 -7.836,7.836 0,20.9531 0,41.852 0,62.805" /><path
         id="path22"
         style="fill:#323436;fill-opacity:1;fill-rule:nonzero;stroke:none"
         d="m 236.914,130.223 c 0,4.32 3.516,7.836 7.84,7.836 4.316,0 7.836,-3.516 7.836,-7.836 V 67.418 c 0,-4.3203 -3.52,-7.836 -7.836,-7.836 -4.324,0 -7.84,3.5157 -7.84,7.836 v 62.805" /><path
         id="path24"
         style="fill:#323436;fill-opacity:1;fill-rule:nonzero;stroke:none"
         d="m 244.754,169.461 c 4.316,0 7.836,-3.516 7.836,-7.836 0,-4.32 -3.52,-7.84 -7.836,-7.84 -4.324,0 -7.84,3.52 -7.84,7.84 0,4.32 3.516,7.836 7.84,7.836" /><path
         id="path26"
         style="fill:#323436;fill-opacity:1;fill-rule:nonzero;stroke:none"
         d="m 174.109,161.625 c 0,4.32 3.52,7.836 7.84,7.836 4.321,0 7.836,-3.516 7.836,-7.836 V 75.2578 h 31.403 c 4.32,0 7.839,-3.5195 7.839,-7.8398 0,-4.3203 -3.519,-7.836 -7.839,-7.836 h -39.239 c -1.156,0 -2.261,0.25 -3.215,0.7032 l -0.203,0.0507 -0.148,0.0977 -0.203,0.1016 -0.149,0.1015 -0.152,0.1016 -0.152,0.0976 -0.2,0.1016 -0.148,0.1016 -0.152,0.1015 -0.153,0.0977 -0.148,0.1523 -0.102,0.0977 -0.152,0.1015 -0.149,0.1524 -0.152,0.1484 -0.101,0.1016 -0.149,0.1523 -0.101,0.1485 -0.153,0.1523 -0.097,0.1524 -0.102,0.1484 -0.148,0.1523 -0.102,0.1485 -0.102,0.1523 -0.101,0.1485 -0.098,0.1523 -0.101,0.1992 -0.051,0.1524 -0.102,0.1523 -0.101,0.1992 c -0.399,0.9532 -0.653,2.0586 -0.653,3.2149 v 94.207" /><path
         id="path28"
         style="fill:#323436;fill-opacity:1;fill-rule:nonzero;stroke:none"
         d="m 1.375,161.625 c 0,4.32 3.51953,7.836 7.83984,7.836 4.37106,0 7.88676,-3.516 7.88676,-7.836 V 67.418 c 0,-4.3203 -3.5157,-7.836 -7.88676,-7.836 -4.32031,0 -7.83984,3.5157 -7.83984,7.836 v 94.207" /><path
         id="path30"
         style="fill:#323436;fill-opacity:1;fill-rule:nonzero;stroke:none"
         d="m 18.5078,110.035 -0.7031,1.207 c -0.4531,0.953 -0.7031,2.008 -0.7031,3.063 v 0.152 0.102 0.046 0.153 c 0,1.055 0.25,2.109 0.7031,3.117 l 0.7031,1.152 31.3047,46.977 c 2.4102,3.621 7.2852,4.574 10.9023,2.164 3.5665,-2.414 4.5704,-7.285 2.1602,-10.906 L 34.3867,114.559 62.875,71.8008 c 2.4102,-3.6172 1.4063,-8.4922 -2.1602,-10.9024 -3.6171,-2.414 -8.4921,-1.4062 -10.9023,2.1602 L 18.5078,110.035" /><path
         id="path32"
         style="fill:#323436;fill-opacity:1;fill-rule:nonzero;stroke:none"
         d="m 79.9063,130.223 c 0,4.32 3.5156,7.836 7.8359,7.836 4.3203,0 7.8398,-3.516 7.8398,-7.836 V 67.418 c 0,-4.3203 -3.5195,-7.836 -7.8398,-7.836 -4.3203,0 -7.8359,3.5157 -7.8359,7.836 v 62.805" /><path
         id="path34"
         style="fill:#323436;fill-opacity:1;fill-rule:nonzero;stroke:none"
         d="m 87.7422,169.461 c 4.3203,0 7.8398,-3.516 7.8398,-7.836 0,-4.32 -3.5195,-7.84 -7.8398,-7.84 -4.3203,0 -7.8359,3.52 -7.8359,7.84 0,4.32 3.5156,7.836 7.8359,7.836" /><path
         id="path36"
         style="fill:#323436;fill-opacity:1;fill-rule:nonzero;stroke:none"
         d="m 111.309,161.625 z m 0,0 c 0,4.32 3.515,7.836 7.836,7.836 4.32,0 7.835,-3.516 7.835,-7.836 v -23.566 h 23.567 c 4.32,0 7.84,-3.516 7.84,-7.836 0,-4.321 -3.52,-7.84 -7.84,-7.84 H 126.98 V 75.2578 h 31.407 c 4.316,0 7.836,-3.5195 7.836,-7.8398 0,-4.3203 -3.52,-7.836 -7.836,-7.836 h -39.242 c -4.321,0 -7.836,3.5157 -7.836,7.836 v 62.805 31.402" /><path
         id="path38"
         style="fill:#323436;fill-opacity:1;fill-rule:evenodd;stroke:none"
         d="m 87.7422,59.582 c 4.3203,0 7.8398,3.5157 7.8398,7.836 0,4.3203 -3.5195,7.8398 -7.8398,7.8398 -4.3203,0 -7.8359,-3.5195 -7.8359,-7.8398 0,-4.3203 3.5156,-7.836 7.8359,-7.836" /></g></g></svg>