<?xml version="1.0" encoding="UTF-8" standalone="no"?>
<svg
   xmlns:dc="http://purl.org/dc/elements/1.1/"
   xmlns:cc="http://creativecommons.org/ns#"
   xmlns:rdf="http://www.w3.org/1999/02/22-rdf-syntax-ns#"
   xmlns:svg="http://www.w3.org/2000/svg"
   xmlns="http://www.w3.org/2000/svg"
   viewBox="0 0 54.266666 22.719999"
   height="22.719999"
   width="54.266666"
   xml:space="preserve"
   id="svg2"
   version="1.1"><metadata
     id="metadata8"><rdf:RDF><cc:Work
         rdf:about=""><dc:format>image/svg+xml</dc:format><dc:type
           rdf:resource="http://purl.org/dc/dcmitype/StillImage" /></cc:Work></rdf:RDF></metadata><defs
     id="defs6" /><g
     transform="matrix(1.3333333,0,0,-1.3333333,0,22.72)"
     id="g10"><g
       transform="scale(0.1)"
       id="g12"><path
         id="path14"
         style="fill:#FFBE2D;fill-opacity:1;fill-rule:nonzero;stroke:none"
         d="m 351.52,122.391 c -4.325,0 -7.84,3.515 -7.84,7.839 0,4.321 3.515,7.836 7.84,7.836 h 47.125 c 4.324,0 7.839,-3.515 7.839,-7.836 0,-4.324 -3.515,-7.839 -7.839,-7.839 H 351.52" /><path
         id="path16"
         style="fill:#FFBE2D;fill-opacity:1;fill-rule:nonzero;stroke:none"
         d="m 351.52,59.5898 c -4.325,0 -7.84,3.5157 -7.84,7.836 0,4.3203 3.515,7.8359 7.84,7.8359 h 47.125 c 4.324,0 7.839,-3.5156 7.839,-7.8359 0,-4.3203 -3.515,-7.836 -7.839,-7.836 H 351.52" /><path
         id="path18"
         style="fill:#FFBE2D;fill-opacity:1;fill-rule:nonzero;stroke:none"
         d="m 351.52,90.9883 c -4.325,0 -7.84,3.5195 -7.84,7.8398 0,4.3199 3.515,7.8359 7.84,7.8359 h 47.125 c 4.324,0 7.839,-3.516 7.839,-7.8359 0,-4.3203 -3.515,-7.8398 -7.839,-7.8398 H 351.52" /><path
         id="path20"
         style="fill:#FFBE2D;fill-opacity:1;fill-rule:nonzero;stroke:none"
         d="m 268.316,130.223 z m 0,0 c 0,4.32 3.516,7.836 7.836,7.836 4.325,0 7.84,-3.516 7.84,-7.836 v -16.731 l 34.817,23.211 c 1.457,1.004 3.214,1.457 4.972,1.356 2.164,-0.149 4.223,-1.204 5.578,-2.914 1.157,-1.407 1.758,-3.165 1.758,-4.973 V 67.418 c 0,-4.3203 -3.515,-7.836 -7.887,-7.836 -4.32,0 -7.835,3.5157 -7.835,7.836 v 48.133 L 283.992,94.6484 V 67.418 c 0,-4.3203 -3.515,-7.836 -7.84,-7.836 -4.32,0 -7.836,3.5157 -7.836,7.836 0,20.9531 0,41.852 0,62.805" /><path
         id="path22"
         style="fill:#FFBE2D;fill-opacity:1;fill-rule:nonzero;stroke:none"
         d="m 236.914,130.223 c 0,4.32 3.516,7.836 7.84,7.836 4.316,0 7.836,-3.516 7.836,-7.836 V 67.418 c 0,-4.3203 -3.52,-7.836 -7.836,-7.836 -4.324,0 -7.84,3.5157 -7.84,7.836 v 62.805" /><path
         id="path24"
         style="fill:#FFBE2D;fill-opacity:1;fill-rule:nonzero;stroke:none"
         d="m 244.754,169.461 c 4.316,0 7.836,-3.516 7.836,-7.836 0,-4.32 -3.52,-7.84 -7.836,-7.84 -4.324,0 -7.84,3.52 -7.84,7.84 0,4.32 3.516,7.836 7.84,7.836" /><path
         id="path26"
         style="fill:#FFBE2D;fill-opacity:1;fill-rule:nonzero;stroke:none"
         d="m 174.109,161.625 c 0,4.32 3.52,7.836 7.84,7.836 4.321,0 7.836,-3.516 7.836,-7.836 V 75.2578 h 31.403 c 4.32,0 7.839,-3.5195 7.839,-7.8398 0,-4.3203 -3.519,-7.836 -7.839,-7.836 h -39.239 c -1.156,0 -2.261,0.25 -3.215,0.7032 l -0.203,0.0507 -0.148,0.0977 -0.203,0.1016 -0.149,0.1015 -0.152,0.1016 -0.152,0.0976 -0.2,0.1016 -0.148,0.1016 -0.152,0.1015 -0.153,0.0977 -0.148,0.1523 -0.102,0.0977 -0.152,0.1015 -0.149,0.1524 -0.152,0.1484 -0.101,0.1016 -0.149,0.1523 -0.101,0.1485 -0.153,0.1523 -0.097,0.1524 -0.102,0.1484 -0.148,0.1523 -0.102,0.1485 -0.102,0.1523 -0.101,0.1485 -0.098,0.1523 -0.101,0.1992 -0.051,0.1524 -0.102,0.1523 -0.101,0.1992 c -0.399,0.9532 -0.653,2.0586 -0.653,3.2149 v 94.207" /><path
         id="path28"
         style="fill:#323436;fill-opacity:1;fill-rule:nonzero;stroke:none"
         d="m 1.375,161.625 c 0,4.32 3.51953,7.836 7.83984,7.836 4.37106,0 7.88676,-3.516 7.88676,-7.836 V 67.418 c 0,-4.3203 -3.5157,-7.836 -7.88676,-7.836 -4.32031,0 -7.83984,3.5157 -7.83984,7.836 v 94.207" /><path
         id="path30"
         style="fill:#323436;fill-opacity:1;fill-rule:nonzero;stroke:none"
         d="m 18.5078,110.035 -0.7031,1.207 c -0.4531,0.953 -0.7031,2.008 -0.7031,3.063 v 0.152 0.102 0.046 0.153 c 0,1.055 0.25,2.109 0.7031,3.117 l 0.7031,1.152 31.3047,46.977 c 2.4102,3.621 7.2852,4.574 10.9023,2.164 3.5665,-2.414 4.5704,-7.285 2.1602,-10.906 L 34.3867,114.559 62.875,71.8008 c 2.4102,-3.6172 1.4063,-8.4922 -2.1602,-10.9024 -3.6171,-2.414 -8.4921,-1.4062 -10.9023,2.1602 L 18.5078,110.035" /><path
         id="path32"
         style="fill:#323436;fill-opacity:1;fill-rule:nonzero;stroke:none"
         d="m 79.9063,130.223 c 0,4.32 3.5156,7.836 7.8359,7.836 4.3203,0 7.8398,-3.516 7.8398,-7.836 V 67.418 c 0,-4.3203 -3.5195,-7.836 -7.8398,-7.836 -4.3203,0 -7.8359,3.5157 -7.8359,7.836 v 62.805" /><path
         id="path34"
         style="fill:#323436;fill-opacity:1;fill-rule:nonzero;stroke:none"
         d="m 87.7422,169.461 c 4.3203,0 7.8398,-3.516 7.8398,-7.836 0,-4.32 -3.5195,-7.84 -7.8398,-7.84 -4.3203,0 -7.8359,3.52 -7.8359,7.84 0,4.32 3.5156,7.836 7.8359,7.836" /><path
         id="path36"
         style="fill:#323436;fill-opacity:1;fill-rule:nonzero;stroke:none"
         d="m 111.309,161.625 z m 0,0 c 0,4.32 3.515,7.836 7.836,7.836 4.32,0 7.835,-3.516 7.835,-7.836 v -23.566 h 23.567 c 4.32,0 7.84,-3.516 7.84,-7.836 0,-4.321 -3.52,-7.84 -7.84,-7.84 H 126.98 V 75.2578 h 31.407 c 4.316,0 7.836,-3.5195 7.836,-7.8398 0,-4.3203 -3.52,-7.836 -7.836,-7.836 h -39.242 c -4.321,0 -7.836,3.5157 -7.836,7.836 v 62.805 31.402" /><path
         id="path38"
         style="fill:#323436;fill-opacity:1;fill-rule:evenodd;stroke:none"
         d="m 87.7422,59.582 c 4.3203,0 7.8398,3.5157 7.8398,7.836 0,4.3203 -3.5195,7.8398 -7.8398,7.8398 -4.3203,0 -7.8359,-3.5195 -7.8359,-7.8398 0,-4.3203 3.5156,-7.836 7.8359,-7.836" /><path
         id="path40"
         style="fill:#5e6061;fill-opacity:1;fill-rule:nonzero;stroke:none"
         d="m 9.25391,17.25 2.19919,2.2227 2.2344,-2.2461 -2.2148,-2.2149 z M 9.5,1.30469 7.625,1.53906 5.92578,2.19141 4.44141,3.24219 3.26953,4.64453 2.37109,6.76172 2.04688,9.19531 l 0.09765,1.55859 0.3125,1.5469 0.5586,1.6601 0.84765,1.9024 2.7461,-1.3086 L 5.875,12.9609 5.39844,11.625 5.14453,10.4219 5.05469,9.20313 5.26953,7.61328 5.83594,6.23828 7.37891,4.85938 9.5,4.33984 h 2.4688 l 2.1093,0.26954 1.2617,0.76171 0.6133,1.1875 0.168,1.53907 v 8.20314 h 3.0352 V 8.09766 c 0,-2.26953 -0.6055,-3.96485 -1.7969,-5.10157 -1.1992,-1.125 -2.9961,-1.6914 -5.3906,-1.6914 H 9.5" /><path
         id="path42"
         style="fill:#5e6061;fill-opacity:1;fill-rule:nonzero;stroke:none"
         d="M 25.2227,7.86719 H 22.1875 V 25.4453 h 3.0352 V 7.86719" /><path
         id="path44"
         style="fill:#5e6061;fill-opacity:1;fill-rule:nonzero;stroke:none"
         d="M 31.6367,8.60938 C 31.5898,7.48438 31.3828,6.47656 31.0117,5.57422 L 29.5,3.28516 C 28.8633,2.65625 28.082,2.16797 27.1758,1.83203 26.2656,1.48828 25.2305,1.31641 24.0898,1.31641 h -1.5156 v 3.03515 h 1.5156 l 2.0196,0.24219 1.4062,0.78125 0.8125,1.39844 0.2735,2.08984 v 7.42582 h 3.0351 V 8.60938" /><path
         id="path46"
         style="fill:#5e6061;fill-opacity:1;fill-rule:nonzero;stroke:none"
         d="m 38.9727,15.5469 -1.6368,-0.6485 c -0.414,-0.4296 -0.6171,-1.0976 -0.6171,-2.0117 l 0.2148,-0.914 0.5469,-0.6172 0.75,-0.3438 0.832,-0.1133 h 1.875 v 1.6602 l -0.1055,1.1875 -0.2851,0.8242 -0.4102,0.5235 -0.4297,0.2929 -0.4101,0.125 z m -4.0196,-11.19534 1.7383,0.06641 1.3555,0.19531 1.0351,0.33203 0.7696,0.48047 0.7734,0.96094 0.3125,1.48047 h -1.875 l -1.2383,0.09765 -1.2226,0.33204 -1.1055,0.61328 -0.9063,0.93359 -0.6054,1.31255 -0.2227,1.7304 0.1446,1.4922 0.371,1.1524 0.5079,0.875 0.539,0.6484 1.6485,1.1289 2,0.3945 2.2773,-0.4531 1.5508,-1.2656 0.8789,-1.9024 0.2851,-2.3984 v -1.6602 h 2.0704 V 7.86719 H 43.957 C 43.9141,6.74609 43.7188,5.8125 43.3594,5.05078 L 41.7461,3.04688 40.5273,2.28516 39.0508,1.74219 37.2266,1.42188 34.9531,1.31641 v 3.03515" /><path
         id="path48"
         style="fill:#5e6061;fill-opacity:1;fill-rule:nonzero;stroke:none"
         d="m 54.3555,19.5469 -2.0391,2.0703 2.0195,2.0976 2.0977,-2.0976 z m -5.1094,-0.0156 -2.0391,2.0742 2.0118,2.0937 2.0898,-2.0937 z M 58.543,10.8984 V 7.86719 H 56.7383 L 54.8438,8.14453 53.4063,8.97656 51.7969,8.12891 49.668,7.86719 h -4.2188 v 3.03121 h 4.2188 l 1.1797,0.1407 0.6757,0.3476 0.293,0.4649 0.0703,0.4961 v 3.9531 h 3.0235 v -3.8633 l 0.2461,-0.8594 0.5468,-0.4648 0.6172,-0.1797 0.418,-0.0352 h 1.8047" /><path
         id="path50"
         style="fill:#5e6061;fill-opacity:1;fill-rule:nonzero;stroke:none"
         d="m 67.4805,7.89063 c -1.4844,0 -2.6641,0.38671 -3.5352,1.15625 L 62.4609,8.14453 60.7734,7.86719 h -2.7382 v 3.03121 h 2.7382 l 0.4297,0.0469 0.543,0.2422 0.4805,0.5586 0.2031,1.0312 v 0.0508 3.461 h 3.0391 v -3.461 l 0.4687,-1.4609 1.543,-0.4531 0.4218,0.0547 0.5469,0.246 0.4844,0.5821 0.207,1.0312 v 3.461 h 3.0274 v -3.461 l 0.4804,-1.4726 1.5625,-0.4649 0.4375,0.0664 0.5352,0.2657 0.4727,0.5781 0.1914,1.0273 -0.0469,0.6446 -0.1055,0.8007 -0.1601,0.8555 -0.1641,0.8164 -0.1641,0.711 -0.1289,0.496 2.8633,0.9454 0.0938,-0.3946 0.1796,-0.7539 0.211,-1.0039 0.207,-1.1015 0.1485,-1.0821 0.0664,-0.9336 -0.4102,-2.1797 -1.0664,-1.54684 -1.4922,-0.92187 -1.668,-0.3125 c -1.5156,0 -2.707,0.39453 -3.5859,1.1914 L 69.1523,8.16406 67.4805,7.89063" /><path
         id="path52"
         style="fill:#5e6061;fill-opacity:1;fill-rule:nonzero;stroke:none"
         d="M 85.3008,8.60938 C 85.25,7.48438 85.0469,6.47656 84.6758,5.57422 L 83.1602,3.28516 C 82.5273,2.65625 81.7461,2.16797 80.8359,1.83203 79.9297,1.48828 78.8945,1.31641 77.75,1.31641 H 76.2383 V 4.35156 H 77.75 l 2.0234,0.24219 1.4063,0.78125 0.8086,1.39844 0.2734,2.08984 v 7.42582 h 3.0391 V 8.60938" /><path
         id="path54"
         style="fill:#5e6061;fill-opacity:1;fill-rule:nonzero;stroke:none"
         d="m 96.5703,15.5469 -1.6406,-0.6485 c -0.4102,-0.4296 -0.6172,-1.0976 -0.6172,-2.0117 l 0.2148,-0.914 0.5469,-0.6172 0.7539,-0.3438 0.8282,-0.1133 h 1.875 v 1.6602 l -0.1055,1.1875 -0.2852,0.8242 -0.4101,0.5235 -0.4297,0.2929 -0.4102,0.125 z m -4.0234,-11.19534 1.7383,0.06641 1.3554,0.19531 1.0352,0.33203 0.7734,0.48047 0.7696,0.96094 0.3125,1.48047 h -1.875 l -1.2383,0.09765 -1.2227,0.33204 -1.1015,0.61328 -0.9102,0.93359 -0.6055,1.31255 -0.2226,1.7304 0.1445,1.4922 0.3711,1.1524 0.5078,0.875 0.5391,0.6484 1.6484,1.1289 2.0039,0.3945 2.2735,-0.4531 1.5542,-1.2656 0.879,-1.9024 0.282,-2.3984 V 8.22656 C 101.559,7.01563 101.371,6 101.012,5.17578 L 99.3438,3.04688 98.1211,2.28516 96.6484,1.74219 94.8203,1.42188 92.5469,1.31641 v 3.03515" /><path
         id="path56"
         style="fill:#5e6061;fill-opacity:1;fill-rule:nonzero;stroke:none"
         d="m 115.172,13.9258 0.051,0.6875 -0.118,0.7383 -0.226,0.8398 -0.293,1.0117 c -1.309,-0.4179 -2.297,-0.8867 -2.957,-1.4062 l -1.008,-1.9453 0.195,-0.8047 0.528,-0.586 0.722,-0.3359 0.801,-0.0391 1.524,0.543 z m 7.512,-6.05861 h -0.344 l -1.836,0.17578 -1.621,0.53516 -1.317,0.91796 -0.949,1.32811 -0.754,-0.7969 -0.984,-0.57808 -1.113,-0.34766 -1.094,-0.11718 -1.856,0.33984 -1.523,0.97268 -1.047,1.5273 -0.379,2.0391 0.496,2.3203 1.332,1.7461 1.903,1.2812 2.238,0.9219 -0.297,1.168 2.981,0.6953 2.218,-8.6328 0.633,-1.2735 0.957,-0.746 1.067,-0.3516 0.945,-0.0938 h 0.344 V 7.86719" /><path
         id="path58"
         style="fill:#5e6061;fill-opacity:1;fill-rule:nonzero;stroke:none"
         d="m 127.406,10.8984 0.375,-0.125 0.133,-0.3398 V 8.35156 l -0.133,-0.3789 -0.375,-0.10547 h -5.086 l -0.379,0.10547 -0.109,0.3789 v 2.08204 l 0.109,0.3398 0.379,0.125 h 5.086" /><path
         id="path60"
         style="fill:#5e6061;fill-opacity:1;fill-rule:nonzero;stroke:none"
         d="m 132.457,10.8984 0.371,-0.125 0.137,-0.3398 V 8.35156 l -0.137,-0.3789 -0.371,-0.10547 h -5.09 l -0.379,0.10547 -0.105,0.3789 v 2.08204 l 0.105,0.3398 0.379,0.125 h 5.09" /><path
         id="path62"
         style="fill:#5e6061;fill-opacity:1;fill-rule:nonzero;stroke:none"
         d="m 138.949,18.4453 -0.855,-0.0664 -0.727,-0.3476 -0.496,-0.6055 -0.195,-0.832 1.125,-1.5313 c 0.738,-0.3125 1.812,-0.3555 3.211,-0.125 l -0.086,1.1094 -0.274,1.0976 -0.605,0.8672 z m -2.578,7.7461 2.199,2.2149 2.246,-2.2383 -2.226,-2.2227 z M 132.105,7.86719 v 3.03121 h 4.981 l 1.719,0.1172 1.125,0.2969 0.652,0.4102 0.313,0.457 c -1.075,-0.1445 -2.051,-0.1563 -2.911,-0.0391 l -2.199,0.7305 -1.375,1.4805 -0.488,2.2148 0.383,1.9336 1.054,1.5898 1.602,1.0586 2.012,0.336 1.726,-0.3399 1.297,-0.8086 0.93,-1.1601 0.605,-1.4375 0.324,-1.6016 0.118,-1.6797 -0.051,-0.8984 c -0.067,-1.1367 -0.293,-2.0742 -0.684,-2.8125 l -1.511,-1.74219 -2.129,-0.89063 -2.512,-0.24609 h -4.981" /><path
         id="path64"
         style="fill:#5e6061;fill-opacity:1;fill-rule:nonzero;stroke:none"
         d="m 152.848,7.86719 -2.918,0.16015 -1.621,0.48829 -1.055,0.82421 -0.606,1.16796 -0.277,1.5195 -0.066,1.875 v 11.543 h 3.039 v -11.543 l 0.066,-1.5625 0.352,-0.9101 0.871,-0.4219 2.215,-0.1094 V 7.86719" /><path
         id="path66"
         style="fill:#5e6061;fill-opacity:1;fill-rule:nonzero;stroke:none"
         d="m 152.695,7.86719 v 3.03121 h 7.129 l 0.539,0.0196 0.672,0.0976 0.567,0.2305 0.234,0.4258 -0.391,1.2617 -1.023,1.5898 -1.399,1.6993 -1.531,1.6211 -1.437,1.3476 -1.075,0.875 0.247,2.7539 10.613,4.8555 1.105,-2.6563 -8.925,-3.9414 1.043,-1.0195 1.191,-1.2148 1.211,-1.3282 1.133,-1.3789 0.949,-1.3476 0.644,-1.2422 0.293,-0.9883 0.086,-0.8633 -0.097,-0.8555 -0.196,-0.625 -0.449,-0.74214 -0.848,-0.76563 -1.367,-0.60156 -1.992,-0.23828 h -6.926" /><path
         id="path68"
         style="fill:#5e6061;fill-opacity:1;fill-rule:nonzero;stroke:none"
         d="m 184.902,10.668 0.34,0.0195 0.461,0.2344 0.418,0.7344 0.176,1.4882 -0.027,0.3516 -0.129,0.543 -0.254,0.6093 -0.41,0.5664 -0.606,0.4219 -0.848,0.1641 -0.449,-0.0235 -0.469,-0.1406 -0.468,-0.3554 -0.442,-0.6524 -0.41,-1.043 -0.332,-1.5507 0.977,-0.5039 0.957,-0.4375 0.851,-0.3086 z m -0.929,8.1718 2.179,-0.4609 1.571,-1.2344 0.976,-1.8164 0.324,-2.1836 -0.214,-2.164 -0.579,-1.50784 -0.808,-0.97657 -0.899,-0.55078 -0.89,-0.24609 -0.731,-0.05078 -1.164,0.19531 -1.386,0.50781 -1.551,0.73047 -1.621,0.84375 -0.578,0.28902 -0.508,0.2657 -0.508,0.2578 -0.547,0.2578 c 0,-1.83594 0,-3.67188 0.012,-5.50391 C 177.059,3.66016 177.07,1.83203 177.07,0 h -2.941 l -0.02,12.6328 2.864,1.7266 1.972,-0.9844 0.547,2.0547 0.918,1.7617 1.434,1.2149 2.129,0.4335" /><path
         id="path70"
         style="fill:#5e6061;fill-opacity:1;fill-rule:nonzero;stroke:none"
         d="m 192.086,21.5664 2.187,2.2227 2.247,-2.2461 -2.215,-2.2188 z m 3.781,-12.95702 c -0.051,-1.125 -0.254,-2.13282 -0.625,-3.03516 l -1.515,-2.28906 c -0.633,-0.62891 -1.414,-1.11719 -2.325,-1.45313 -0.906,-0.34375 -1.941,-0.51562 -3.086,-0.51562 h -1.511 v 3.03515 h 1.511 l 2.024,0.24219 1.406,0.78125 0.809,1.39844 0.273,2.08984 v 7.42582 h 3.039 V 8.60938" /><path
         id="path72"
         style="fill:#5e6061;fill-opacity:1;fill-rule:nonzero;stroke:none"
         d="m 201.926,7.86719 h -3.039 V 25.4453 h 3.039 V 7.86719" /><path
         id="path74"
         style="fill:#5e6061;fill-opacity:1;fill-rule:nonzero;stroke:none"
         d="m 209.188,15.5469 -1.641,-0.6485 c -0.41,-0.4296 -0.613,-1.0976 -0.613,-2.0117 l 0.214,-0.914 0.547,-0.6172 0.75,-0.3438 0.832,-0.1133 h 1.875 v 1.6602 l -0.109,1.1875 -0.281,0.8242 -0.41,0.5235 -0.43,0.2929 -0.41,0.125 z m -4.024,-11.19534 1.738,0.06641 1.36,0.19531 1.035,0.33203 0.769,0.48047 0.774,0.96094 0.312,1.48047 h -1.875 l -1.242,0.09765 -1.219,0.33204 -1.105,0.61328 -0.906,0.93359 -0.606,1.31255 -0.226,1.7304 0.148,1.4922 0.371,1.1524 0.508,0.875 0.535,0.6484 1.653,1.1289 2,0.3945 2.277,-0.4531 1.551,-1.2656 0.879,-1.9024 0.285,-2.3984 v -1.6602 h 2.808 V 7.86719 h -2.82 c -0.039,-1.1211 -0.234,-2.05469 -0.594,-2.81641 l -1.613,-2.0039 -1.219,-0.76172 -1.476,-0.54297 -1.825,-0.32031 -2.277,-0.10547 v 3.03515" /><path
         id="path76"
         style="fill:#5e6061;fill-opacity:1;fill-rule:nonzero;stroke:none"
         d="m 216.414,10.8984 1.902,0.1485 0.969,0.4297 0.293,0.5273 0.086,0.9688 v 12.4726 h 3.027 V 12.9727 l -0.046,-0.9102 -0.176,-0.9687 -0.391,-0.9571 -0.683,-0.88279 -0.852,-0.61719 -1.074,-0.43359 -1.367,-0.25391 -1.688,-0.08203 v 3.03121" /><path
         id="path78"
         style="fill:#5e6061;fill-opacity:1;fill-rule:nonzero;stroke:none"
         d="m 245.996,7.86719 0.461,-0.88672 0.184,-0.87109 -0.625,-2.05469 -1.68,-1.57031 C 243.633,2.05469 242.805,1.72266 241.867,1.48828 240.93,1.25 239.934,1.13281 238.879,1.13281 h -3.125 l -1.914,0.23438 -1.719,0.66406 -1.476,1.04297 -1.18,1.39844 c -0.801,1.30468 -1.211,2.82812 -1.211,4.57422 l 0.098,1.59762 0.3,1.625 0.559,1.7461 0.859,1.9688 2.715,-1.3047 -0.715,-1.6484 -0.457,-1.4063 -0.246,-1.2773 -0.078,-1.24223 c 0,-1.17578 0.266,-2.17578 0.781,-2.99609 l 1.535,-1.42188 2.149,-0.49219 h 3.125 l 1.726,0.16797 1.438,0.47656 1.016,0.70313 0.449,0.85937 -0.899,0.64063 -1.23,0.4375 -1.484,0.26953 -1.661,0.125 0.079,3.0234 h 11.062 V 7.86719 h -3.379" /><path
         id="path80"
         style="fill:#5e6061;fill-opacity:1;fill-rule:nonzero;stroke:none"
         d="m 255.293,19.5469 -2.039,2.0703 2.019,2.0976 2.102,-2.0976 z m -5.105,-0.0156 -2.043,2.0742 2.011,2.0937 2.09,-2.0937 z m 9.296,-8.6329 V 7.86719 h -1.808 l -1.895,0.27734 -1.433,0.83203 -1.614,-0.84765 -2.129,-0.26172 h -4.218 v 3.03121 h 4.218 l 1.184,0.1407 0.672,0.3476 0.293,0.4649 0.07,0.4961 v 3.9531 h 3.028 v -3.8633 l 0.242,-0.8594 0.547,-0.4648 0.617,-0.1797 0.418,-0.0352 h 1.808" /><path
         id="path82"
         style="fill:#5e6061;fill-opacity:1;fill-rule:nonzero;stroke:none"
         d="m 260.898,23.0078 2.2,2.2188 2.234,-2.2422 -2.215,-2.2227 z m 5.168,-4.9023 0.106,-0.4024 0.176,-0.7734 0.195,-1.0156 0.195,-1.1289 0.149,-1.1016 0.058,-0.9453 -0.41,-2.1719 -1.094,-1.51952 -1.503,-0.89454 -1.672,-0.28515 h -3.243 v 3.03121 h 3.321 l 0.422,0.043 0.554,0.2266 0.481,0.5547 0.203,1.0156 -0.039,0.6562 -0.117,0.8203 -0.164,0.8985 -0.176,0.8633 -0.168,0.7461 -0.137,0.5195 2.863,0.8633" /><path
         id="path84"
         style="fill:#5e6061;fill-opacity:1;fill-rule:nonzero;stroke:none"
         d="m 275.828,7.86719 h -0.469 l -0.937,0.05859 -0.879,0.33985 c -0.098,-1.04688 -0.332,-2 -0.711,-2.85157 l -1.535,-2.1914 -2.285,-1.40625 c -0.887,-0.33203 -1.883,-0.5 -2.989,-0.5 H 264.5 v 3.03515 h 1.523 l 2.024,0.24219 1.406,0.78125 0.809,1.39844 0.273,2.08984 v 7.42582 h 3.039 v -3.6485 l 0.235,-0.8984 0.546,-0.5313 0.606,-0.25 0.398,-0.0625 h 0.469 V 7.86719" /><path
         id="path86"
         style="fill:#5e6061;fill-opacity:1;fill-rule:nonzero;stroke:none"
         d="m 284.141,19.5469 -2.043,2.0703 2.023,2.0976 2.098,-2.0976 z m -5.11,-0.0156 -2.039,2.0742 2.012,2.0937 2.09,-2.0937 z m 9.297,-8.6329 V 7.86719 h -1.805 l -1.894,0.27734 -1.438,0.83203 -1.609,-0.84765 -2.129,-0.26172 h -4.219 v 3.03121 h 4.219 l 1.18,0.1407 0.676,0.3476 0.293,0.4649 0.066,0.4961 v 3.9531 h 3.027 v -3.8633 l 0.246,-0.8594 0.547,-0.4648 0.614,-0.1797 0.421,-0.0352 h 1.805" /><path
         id="path88"
         style="fill:#5e6061;fill-opacity:1;fill-rule:nonzero;stroke:none"
         d="m 291.309,21.9102 2.195,2.2226 2.238,-2.2461 -2.219,-2.2187 z m 7.019,-11.0118 V 7.86719 h -0.769 l -1.887,0.27734 -1.434,0.83203 -1.621,-0.84765 -2.129,-0.26172 h -2.16 v 3.03121 h 2.16 l 1.192,0.1407 0.672,0.3476 0.293,0.4649 0.058,0.4961 v 3.9531 h 3.027 v -3.8633 l 0.247,-0.8594 0.554,-0.4648 0.617,-0.1797 0.411,-0.0352 h 0.769" /><path
         id="path90"
         style="fill:#5e6061;fill-opacity:1;fill-rule:nonzero;stroke:none"
         d="m 305.918,1.23047 -2.051,2.07422 2.02,2.09375 2.101,-2.09375 z m -5.109,-0.00781 -2.051,2.07031 2.012,2.09766 2.101,-2.09766 z m 6.582,16.88284 0.109,-0.4024 0.176,-0.7734 0.195,-1.0156 0.195,-1.1289 0.145,-1.1016 0.059,-0.9453 -0.418,-2.1719 -1.086,-1.51952 -1.504,-0.89454 -1.68,-0.28515 h -5.254 v 3.03121 h 5.344 l 0.418,0.043 0.547,0.2266 0.488,0.5547 0.207,1.0156 -0.039,0.6562 -0.117,0.8203 -0.168,0.8985 -0.176,0.8633 -0.176,0.7461 -0.125,0.5195 2.86,0.8633" /><path
         id="path92"
         style="fill:#5e6061;fill-opacity:1;fill-rule:nonzero;stroke:none"
         d="M 313.445,7.86719 H 310.41 V 25.4453 h 3.035 V 7.86719" /><path
         id="path94"
         style="fill:#5e6061;fill-opacity:1;fill-rule:nonzero;stroke:none"
         d="m 323.512,16.6563 -0.918,-1.0352 -0.742,-0.9766 -0.481,-1.0078 -0.125,-1.125 0.266,-0.7773 0.574,-0.5391 0.754,-0.3047 0.816,-0.0976 0.891,0.1289 0.754,0.3828 0.515,0.5937 0.196,0.7813 -0.203,1.0273 -0.559,0.9844 -0.801,0.9766 z m 0.144,-8.78911 -2.144,0.33203 -1.692,0.94922 -1.101,1.47266 -0.403,1.8906 0.254,1.836 0.696,1.5078 1.015,1.3398 1.219,1.3242 -0.77,0.8672 2.247,2.0352 0.32,-0.3516 0.371,-0.4062 0.371,-0.3985 0.324,-0.3554 1.715,-1.8243 1.488,-1.7695 1.043,-1.7734 0.391,-1.8633 -0.43,-1.918 -1.203,-1.56639 -1.668,-0.97656 -2.043,-0.35156" /><path
         id="path96"
         style="fill:#5e6061;fill-opacity:1;fill-rule:nonzero;stroke:none"
         d="m 336.566,7.85938 -2.304,0.16406 -1.621,0.48828 -1.055,0.82422 -0.606,1.16796 -0.273,1.5195 -0.07,1.875 v 11.543 h 3.039 v -11.543 l 0.066,-1.5625 0.352,-0.9101 0.871,-0.4258 1.601,-0.1055 V 7.85938" /><path
         id="path98"
         style="fill:#5e6061;fill-opacity:1;fill-rule:nonzero;stroke:none"
         d="m 337.465,26.3242 9.289,4.0352 0.633,-1.3672 -10.078,-4.4024 z M 349.789,7.86719 h -0.363 l -1.863,0.19922 -1.426,0.5625 -1.172,0.86328 -1.074,1.12891 -0.938,-1.30469 -1.465,-0.8711 -1.758,-0.46484 -1.855,-0.11328 h -1.824 v 3.03121 h 2 l 1.484,0.0938 1.184,0.3008 0.789,0.5703 0.332,0.8672 -0.442,1.3281 -1.16,1.793 -1.609,2.0898 -1.809,2.2383 0.508,2.4726 10.586,5.1368 1.238,-2.7852 -9.246,-4.2773 c 0.762,-1.0235 1.524,-2.0391 2.285,-3.0547 0.75,-1.0117 1.524,-2.0274 2.286,-3.0547 l 1.23,-1.5742 1.121,-1.168 1.192,-0.7266 1.406,-0.25 h 0.363 V 7.86719" /><path
         id="path100"
         style="fill:#5e6061;fill-opacity:1;fill-rule:nonzero;stroke:none"
         d="m 366.73,21.7305 -2.039,-2.0782 -2.14,2.0508 2.101,2.0977 z m -2.695,3.4375 -1.941,-1.9532 -1.934,1.9258 1.953,1.9492 z m -2.527,-3.4883 -2.07,-2.1016 -2.083,2.0782 2.083,2.0937 z M 358.629,7.89063 c -1.488,0 -2.668,0.38671 -3.535,1.15625 l -1.489,-0.90235 -1.687,-0.27734 h -2.734 v 3.03121 h 2.734 l 0.43,0.0469 0.547,0.2422 0.476,0.5586 0.207,1.0312 v 0.0508 3.461 h 3.035 v -3.461 l 0.473,-1.4609 1.543,-0.4531 0.418,0.0547 0.547,0.246 0.488,0.5821 0.203,1.0312 v 3.461 h 3.028 v -3.461 l 0.48,-1.4726 1.562,-0.4649 0.442,0.0664 0.535,0.2657 0.469,0.5781 0.195,1.0273 -0.051,0.6446 -0.105,0.8007 -0.156,0.8555 -0.168,0.8164 -0.164,0.711 -0.129,0.496 2.863,0.9454 0.098,-0.3946 0.175,-0.7539 0.215,-1.0039 0.203,-1.1015 0.149,-1.0821 0.066,-0.9336 -0.406,-2.1797 -1.066,-1.54684 -1.497,-0.92187 -1.668,-0.3125 c -1.511,0 -2.707,0.39453 -3.585,1.1914 l -1.473,-0.89453 -1.668,-0.27343" /><path
         id="path102"
         style="fill:#5e6061;fill-opacity:1;fill-rule:nonzero;stroke:none"
         d="m 377.496,15.5469 -1.641,-0.6485 c -0.41,-0.4296 -0.617,-1.0976 -0.617,-2.0117 l 0.215,-0.914 0.551,-0.6172 0.75,-0.3438 0.832,-0.1133 h 1.875 v 1.6602 l -0.109,1.1875 -0.282,0.8242 -0.414,0.5235 -0.426,0.2929 -0.41,0.125 z m -4.023,-11.19534 1.738,0.06641 1.359,0.19531 1.035,0.33203 0.77,0.48047 0.773,0.96094 0.313,1.48047 h -1.875 l -1.242,0.09765 -1.223,0.33204 -1.101,0.61328 -0.907,0.93359 -0.605,1.31255 -0.227,1.7304 0.149,1.4922 0.371,1.1524 0.508,0.875 0.535,0.6484 1.648,1.1289 2.004,0.3945 2.277,-0.4531 1.551,-1.2656 0.879,-1.9024 0.285,-2.3984 V 8.22656 C 382.488,7.01563 382.301,6 381.941,5.17578 l -1.671,-2.1289 -1.219,-0.76172 -1.477,-0.54297 -1.828,-0.32031 -2.273,-0.10547 v 3.03515" /><path
         id="path104"
         style="fill:#5e6061;fill-opacity:1;fill-rule:nonzero;stroke:none"
         d="m 394.449,7.86719 h -0.469 l -0.937,0.05859 -0.879,0.33985 c -0.098,-1.04688 -0.332,-2 -0.715,-2.85157 l -1.531,-2.1914 -2.285,-1.40625 c -0.891,-0.33203 -1.887,-0.5 -2.988,-0.5 h -1.524 v 3.03515 h 1.524 l 2.019,0.24219 1.41,0.78125 0.809,1.39844 0.273,2.08984 v 7.42582 h 3.039 v -3.6485 l 0.235,-0.8984 0.547,-0.5313 0.601,-0.25 0.402,-0.0625 h 0.469 V 7.86719" /><path
         id="path106"
         style="fill:#5e6061;fill-opacity:1;fill-rule:nonzero;stroke:none"
         d="m 400.523,18.4453 -0.859,-0.0664 -0.723,-0.3476 -0.496,-0.6055 -0.199,-0.832 1.125,-1.5313 c 0.742,-0.3125 1.817,-0.3555 3.215,-0.125 l -0.09,1.1094 -0.273,1.0976 -0.606,0.8672 z m -2.578,7.7461 2.2,2.2149 2.246,-2.2383 -2.231,-2.2227 z M 393.68,7.86719 v 3.03121 h 4.976 l 1.723,0.1172 1.121,0.2969 0.656,0.4102 0.313,0.457 c -1.074,-0.1445 -2.055,-0.1563 -2.91,-0.0391 l -2.2,0.7305 -1.375,1.4805 -0.492,2.2148 0.383,1.9336 1.055,1.5898 1.601,1.0586 2.012,0.336 1.73,-0.3399 1.297,-0.8086 0.926,-1.1601 0.609,-1.4375 0.321,-1.6016 0.117,-1.6797 -0.051,-0.8984 c -0.066,-1.1367 -0.293,-2.0742 -0.679,-2.8125 l -1.516,-1.74219 -2.129,-0.89063 -2.512,-0.24609 h -4.976" /></g></g></svg>