<?xml version="1.0" encoding="utf-8"?>
<svg version="1.1"
	 id="svg2" xmlns:cc="../creativecommons.org/ns#" xmlns:dc="../purl.org/dc/elements/1.1/default.htm" xmlns:rdf="http://www.w3.org/1999/02/22-rdf-syntax-ns#" xmlns:svg="http://www.w3.org/2000/svg"
	 xmlns="http://www.w3.org/2000/svg" xmlns:xlink="http://www.w3.org/1999/xlink" x="0px" y="0px" viewBox="0 0 54.3 22.7"
	 style="enable-background:new 0 0 54.3 22.7;" xml:space="preserve">
<style type="text/css">
	.st0{fill-rule:evenodd;clip-rule:evenodd;fill:#283043;}
	.st1{fill-rule:evenodd;clip-rule:evenodd;fill:#DE0426;}
	.st2{fill-rule:evenodd;clip-rule:evenodd;fill:#FFFFFF;}
	.st3{fill:#9197AF;}
</style>
<g>
	<path class="st0" d="M30.8,2.5h-1.7L30,0.8c0.1-0.1,0-0.2-0.1-0.2h-0.3l-1.9,1.1c-0.1,0-0.1,0.1-0.1,0.1l-1.3,2.4h1.8l0,0h1.7l0,0
		c0.1,0,0.2,0,0.3,0.1c0.1,0.1,0.1,0.2,0,0.3l-0.3,1.2h-4.5l0.1-0.4l0,0l0,0L26,3h-1.6c-0.1,0-0.2,0.1-0.2,0.2L24,3.8l0,0l-0.4,1.6
		l0,0c0,0.1-0.1,0.2-0.2,0.3c-0.1,0.1-0.2,0.1-0.3,0.1h-0.8L23,3.2C23,3.1,23,3,22.9,3h-1.6l-0.6,2.4l0,0c0,0.1-0.1,0.2-0.2,0.3
		c-0.1,0.1-0.2,0.1-0.3,0.1H16l-0.5,1.8h4.8c0.8,0,1.6-0.6,2-1.3l-0.4,1.3h1.4c0.6,0,1.1-0.3,1.5-0.7l0.4,0.6l0.1,0.1h5.8L32,4.1
		C32.3,3.2,31.7,2.5,30.8,2.5z M16.5,1.9c0-0.1,0-0.2-0.1-0.2h-1.6l-1,3.7l0,0c0,0.1-0.1,0.2-0.2,0.3c-0.1,0.1-0.2,0.1-0.3,0.1h-0.7
		l1-4c0-0.1,0-0.2-0.1-0.2h-0.3l-1.6,1.1l-0.1,0.1l-1.2,4.6h3c0.9,0,1.9-0.7,2.1-1.7L16.5,1.9z M19.2,4.6c0.4,0,0.9-0.4,1-0.8
		C20.4,3.4,20.1,3,19.7,3l0,0l0,0h-2.3L17,4.6H19.2L19.2,4.6z M27.2,5.5L27.2,5.5L27.2,5.5L27.2,5.5z M10.8,3.1H9.2L8.5,5.5l0,0
		c0,0.1-0.1,0.2-0.2,0.3c0,0-0.2,0.1-0.3,0.1H7.2l0.7-2.7c0-0.1,0-0.2-0.1-0.2H6.2l-1,3.8l0,0C5.2,7,5.1,7.1,5,7.1
		C4.9,7.2,4.8,7.3,4.7,7.3H2.9l0,0H2.4l0.9-3.7c0-0.1,0-0.2-0.1-0.2H3L1.4,4.5L1.3,4.6L0.2,9h2l0,0h2.6c0.8,0,1.7-0.6,2-1.4h1.4
		C9,7.7,10,6.9,10.2,6l0.7-2.8C11,3.1,10.9,3.1,10.8,3.1z M23.6,8.2L23.6,8.2L23.6,8.2h-2.4l-0.4,1.6h2.3l0,0c0.4,0,0.9-0.4,1-0.8
		C24.3,8.6,24,8.2,23.6,8.2z M9.3,8.2L9.3,8.2L9.3,8.2H7L6.5,9.9h2.3l0,0c0.4,0,0.9-0.4,1-0.8C10,8.6,9.8,8.2,9.3,8.2z M4.5,4.6
		c0.4,0,0.9-0.4,1-0.8C5.7,3.4,5.4,3,4.9,3l0,0l0,0H4L3.6,4.6H4.5L4.5,4.6z"/>
	<path class="st1" d="M47.2,0.2C47.2,0.2,47.1,0.2,47.2,0.2L47.2,0.2L36.9,0.1l-4.8,18.2h9.3c0.3,0,0.6,0.1,1,0.1
		c5,0,10.2-4.1,11.5-9.1S52.2,0.2,47.2,0.2z"/>
	<path class="st2" d="M44.2,9.1l4-3.1c0.4-0.3,0.5-0.7,0.5-1c-0.1-0.4-0.3-0.6-0.7-0.6h-2.7c-0.3,0-0.5,0.1-0.8,0.3L42.8,6L43,5.3
		c0.1-0.5-0.2-1-0.7-1h-1.9c-0.5,0-1.1,0.4-1.2,1l-2,7.6c-0.1,0.5,0.2,1,0.7,1h1.9c0.5,0,1.1-0.4,1.2-1l0.2-0.6l1,1.3
		c0.1,0.2,0.3,0.3,0.6,0.3h2.7c0.4,0,0.8-0.2,1-0.6c0.2-0.4,0.3-0.8,0.1-1l-1.9-2.6c-0.8,0.5-1.8,0.8-2.7,0.8c-1.1,0-1.9-0.4-2.5-1
		c0,0,0,0,0-0.1h0.1c0.5,0.4,1.2,0.7,2,0.7C42.4,10.1,43.4,9.7,44.2,9.1z"/>
	<g>
		<path class="st3" d="M8,12.5c0.4,0,0.9-0.4,1-0.8c0.1-0.4-0.1-0.8-0.6-0.8l0,0l0,0H7.6l-0.4,1.6H8L8,12.5z"/>
		<path class="st3" d="M17,12.5c0.4,0,0.9-0.4,1-0.8c0.1-0.4-0.1-0.8-0.6-0.8l0,0l0,0h-0.9L16,12.5H17C16.9,12.5,16.9,12.5,17,12.5z
			"/>
		<path class="st3" d="M23.7,13.4c-0.2-0.3-0.6-0.5-1-0.5H22h-2.6c-0.1,0-0.2,0.1-0.2,0.2l-0.9,3.5h-1c-0.1,0-0.2-0.1-0.3-0.2
			c-0.1-0.1-0.1-0.2-0.1-0.4l0.8-2.9c0-0.1,0-0.1,0-0.2c0-0.1-0.1-0.1-0.2-0.1h-1.3c-0.1,0-0.2,0.1-0.2,0.2l-0.7,2.6
			c-0.1,0.3-0.1,0.6,0,0.9H15h-0.8c-0.1,0-0.2-0.1-0.3-0.2s-0.1-0.2-0.1-0.4l1.3-5c0-0.1,0-0.1,0-0.2c0-0.1-0.1-0.1-0.2-0.1h-1.3
			c-0.1,0-0.2,0.1-0.2,0.2l-1.2,4.6c-0.1,0.3-0.1,0.6,0,0.9h-1c-0.1,0-0.2-0.1-0.3-0.2s-0.1-0.2-0.1-0.4l0.5-1.8H12
			c0.1,0,0.2-0.1,0.2-0.1l0.3-0.9c0-0.1,0-0.1,0-0.2c0-0.1-0.1-0.1-0.2-0.1h-0.6l0.5-1.8c0-0.1,0-0.1,0-0.2c0-0.1-0.1-0.1-0.2-0.1
			h-1.3c-0.1,0-0.2,0.1-0.2,0.2L10,12.9H9.3c-0.1,0-0.2,0.1-0.2,0.2L9,13.4l-0.1,0.3L8.8,14c0,0.1,0,0.1,0,0.2
			c0,0.1,0.1,0.1,0.2,0.1h0.6l-0.4,1.4c-0.1,0.3-0.1,0.6,0,0.9h-1c-0.1,0-0.2-0.1-0.3-0.2c-0.1-0.1-0.1-0.2-0.1-0.4l0.8-2.9
			c0-0.1,0-0.1,0-0.2c0-0.1-0.1-0.1-0.2-0.1H7.2C7.1,12.9,7,13,7,13l-0.7,2.6c-0.2,0.6,0,1.3,0.4,1.8s1,0.8,1.6,0.8h0.6l0.4-1.4
			v-0.1c0.1,0.2,0.2,0.5,0.3,0.7c0.4,0.5,1,0.8,1.6,0.8h0.6l0.4-1.4v-0.1c0.1,0.2,0.2,0.5,0.3,0.7c0.4,0.5,1,0.8,1.6,0.8h0.6
			l0.4-1.4v-0.1c0.1,0.2,0.2,0.5,0.3,0.7c0.4,0.5,1,0.8,1.6,0.8h0.6l0,0h1.5c0.1,0,0.2-0.1,0.2-0.2l0.9-3.5h1.7l-1,3.7h1.5
			c0.1,0,0.2-0.1,0.2-0.2l1-3.6C24,14.1,23.9,13.7,23.7,13.4z"/>
		<path class="st3" d="M29.2,13.4c-0.2-0.3-0.6-0.5-1-0.5h-1.9c-0.9,0-1.7,0.6-2,1.5L24,15.6c-0.2,0.6,0,1.3,0.4,1.8s1,0.8,1.6,0.8
			h2.4l0.4-1.4c0-0.1,0-0.1,0-0.2s-0.1-0.1-0.2-0.1H26c-0.1,0-0.2-0.1-0.3-0.2c-0.1-0.1-0.1-0.2-0.1-0.4l0.2-0.9
			c0.1-0.4,0.4-0.6,0.8-0.6h1.1l-0.1,0.4h-1c-0.2,0-0.3,0.1-0.4,0.3L26,16h3l0.5-1.7C29.5,14.1,29.4,13.7,29.2,13.4z"/>
		<path class="st3" d="M4,15.8l2.5-2.5c0.1-0.1,0.1-0.2,0.1-0.3s-0.1-0.2-0.2-0.2H4.6c-0.1,0-0.1,0-0.2,0.1l-2,2l1-3.8
			c0-0.1,0-0.1,0-0.2c0-0.1-0.1-0.1-0.2-0.1H2.1c-0.1,0-0.2,0.1-0.2,0.2L0,17.9c0,0.1,0,0.2,0,0.2c0,0.1,0.1,0.1,0.2,0.1h1.2
			c0.1,0,0.1,0,0.2-0.1l1.2-1.2l1.3,1.3h1.7C5.9,18.2,6,18.1,6,18s0-0.2-0.1-0.3L4,15.8z"/>
	</g>
</g>
<g>
	<polygon class="st3" points="0.9,20.8 1.1,20.6 1.1,20.6 0.9,20.4 0.9,20.4 0.7,20.6 0.7,20.6 0.9,20.8 	"/>
	<path class="st3" d="M1.7,20.8l-0.3,0.1c0,0.1,0.1,0.3,0.1,0.4s0,0.3,0,0.4c0,0.1,0,0.1-0.1,0.2S1.3,22,1.2,22c-0.1,0-0.2,0-0.3,0
		c-0.1,0-0.3,0-0.3-0.1c-0.1-0.1-0.1-0.1-0.1-0.2c0-0.2,0-0.4,0.1-0.7L0.3,21c-0.1,0.2-0.1,0.3-0.1,0.4c0,0.1,0,0.3,0,0.4
		c0,0.2,0.1,0.3,0.2,0.5c0.1,0.1,0.3,0.2,0.5,0.2c0.2,0,0.4,0,0.5-0.1c0.1-0.1,0.3-0.1,0.3-0.2c0.1-0.1,0.1-0.2,0.1-0.4
		c0,0,0,0,0-0.1c0-0.1,0-0.2,0-0.4C1.8,21.1,1.7,21,1.7,20.8z"/>
	<polygon class="st3" points="2,19.9 2.1,21.8 2.4,21.7 2.4,19.9 	"/>
	<path class="st3" d="M3.2,20.8l-0.3,0.1C3,21.1,3,21.2,3.1,21.3s0,0.2,0,0.3c0,0.2-0.1,0.3-0.2,0.4s-0.3,0.1-0.5,0.1l0,0.3
		c0.3,0,0.6-0.1,0.7-0.2c0.2-0.2,0.2-0.4,0.2-0.7c0-0.1,0-0.2,0-0.3S3.3,20.9,3.2,20.8z"/>
	<polygon class="st3" points="6.6,20.5 6.8,20.3 7,20.5 7,20.5 7.2,20.3 7.2,20.3 7,20.1 7,20.1 6.8,20.3 6.6,20.1 6.6,20.1 
		6.4,20.3 6.4,20.3 6.6,20.5 	"/>
	<path class="st3" d="M9.7,21.2c0-0.1,0-0.3-0.1-0.6l-0.3,0.1c0.1,0.3,0.1,0.4,0.1,0.5c0,0.1,0,0.1,0,0.1s-0.1,0-0.1,0
		c0,0-0.1,0-0.1,0c0,0-0.1,0-0.1-0.1c0,0,0-0.1,0-0.2s0-0.1,0-0.2l0-0.1l-0.2,0c0,0.2,0,0.3,0,0.3c0,0,0,0.1,0,0.1
		c0,0-0.1,0.1-0.1,0.1s-0.1,0-0.2,0c-0.1,0-0.1,0-0.2,0c0-0.1,0-0.1,0-0.2c0-0.1,0-0.2,0-0.3l-0.2,0c0,0.1,0,0.2,0,0.2s0,0.1,0,0.1
		s0,0,0,0.1c0,0.1-0.2,0.1-0.3,0.1c0,0,0,0,0,0s0,0,0,0c-0.1,0-0.2,0-0.3,0s-0.1-0.1-0.1-0.1c0,0,0-0.1,0-0.2l0-0.3l-0.3,0l0,0.3
		c0,0.1,0,0.2,0,0.2c-0.1,0.1-0.2,0.1-0.4,0.1H5.9H5.4c0,0,0,0,0,0s0,0,0,0H4.9c0,0,0,0,0,0s0,0,0,0H4.8c0-0.3-0.1-0.5-0.2-0.6
		c-0.1-0.1-0.2-0.2-0.4-0.2c-0.2,0-0.3,0.1-0.4,0.2c-0.1,0.1-0.1,0.3-0.1,0.5c0,0.1,0,0.3,0.1,0.3c0.1,0.1,0.2,0.1,0.4,0.1h0.3
		c0,0.1-0.1,0.2-0.2,0.3C4.1,22,4,22.1,3.7,22.1c0,0-0.1,0-0.1,0l0,0.3c0.1,0,0.1,0,0.1,0c0.3,0,0.5-0.1,0.7-0.2s0.3-0.3,0.3-0.5
		h0.1c0,0,0,0,0,0s0,0,0,0h0.5c0,0,0,0,0,0s0,0,0,0h0.5h0.5c0.1,0,0.2,0,0.3,0c0.1,0,0.2-0.1,0.3-0.1c0.1,0.1,0.1,0.1,0.2,0.1
		s0.2,0,0.3,0c0,0,0,0,0,0s0,0,0,0c0.2,0,0.4,0,0.5-0.1c0.1,0.1,0.3,0.1,0.4,0.1c0.1,0,0.2,0,0.3,0c0.1,0,0.1-0.1,0.2-0.1
		c0.1,0.1,0.3,0.2,0.4,0.2c0.1,0,0.3,0,0.3-0.1C9.7,21.5,9.7,21.4,9.7,21.2z M4.2,21.4c-0.1,0-0.1,0-0.2,0s-0.1-0.1-0.1-0.1
		c0-0.1,0-0.2,0.1-0.2c0-0.1,0.1-0.1,0.2-0.1c0.2,0,0.3,0.2,0.3,0.5H4.2z"/>
	<path class="st3" d="M10.4,20.8l-0.3,0.1c0.1,0.1,0.1,0.3,0.1,0.4s0,0.2,0,0.3c0,0.2-0.1,0.3-0.2,0.4s-0.3,0.1-0.5,0.1l0,0.3
		c0.3,0,0.6-0.1,0.7-0.2c0.2-0.2,0.2-0.4,0.2-0.7c0-0.1,0-0.2,0-0.3S10.4,20.9,10.4,20.8z"/>
	<path class="st3" d="M11.8,20.6c-0.2,0-0.3,0.1-0.4,0.2c-0.1,0.1-0.1,0.3-0.1,0.5c0,0.1,0,0.3,0.1,0.3c0.1,0.1,0.2,0.1,0.4,0.1
		c0.1,0,0.3,0,0.4-0.1c0,0.1-0.1,0.2-0.2,0.3c-0.1,0.1-0.3,0.1-0.5,0.1c0,0,0,0-0.1,0l0,0.3c0,0,0,0,0.1,0c0,0,0,0,0,0c0,0,0,0,0,0
		c0.3,0,0.6-0.1,0.8-0.2c0.2-0.1,0.3-0.4,0.3-0.7c0-0.3-0.1-0.5-0.2-0.7S12,20.6,11.8,20.6z M11.8,21.4c-0.1,0-0.1,0-0.2,0
		s-0.1-0.1-0.1-0.1c0-0.1,0-0.2,0.1-0.2c0-0.1,0.1-0.1,0.2-0.1c0.1,0,0.2,0,0.2,0.1c0,0.1,0.1,0.2,0.1,0.3
		C12,21.4,11.9,21.4,11.8,21.4z"/>
	<polygon class="st3" points="19.3,19.8 19.5,19.6 19.5,19.6 19.3,19.4 19.3,19.4 19.1,19.6 19.1,19.7 19.3,19.8 	"/>
	<path class="st3" d="M19.7,20.2c-0.1-0.1-0.2-0.1-0.3-0.1c-0.2,0-0.3,0.1-0.4,0.2s-0.1,0.3-0.1,0.5c0,0.1,0,0.2,0.1,0.3
		c0.1,0.1,0.2,0.1,0.3,0.1c0.2,0,0.3,0,0.4-0.1c0,0.1,0,0.1,0,0.1c0,0,0,0,0,0.1c0,0-0.1,0-0.1,0c-0.1,0-0.2,0-0.3,0
		c-0.1,0-0.3,0-0.5,0c0,0,0,0,0,0s0,0,0,0h-0.5c0,0,0,0,0,0s0,0,0,0h-0.5h-0.5c0,0,0,0,0,0s0,0,0,0h-0.5h-0.5h-0.5c0,0,0,0,0,0
		s0,0,0,0h-0.5h-0.5c-0.1,0-0.2,0-0.2,0c-0.1,0-0.1,0-0.1-0.1c0,0,0-0.1,0-0.2l0-0.8l-0.3,0.1v0.2c-0.5,0.1-0.7,0.4-0.7,0.7
		c0,0.1,0,0.2,0.1,0.3c0.1,0.1,0.2,0.1,0.4,0.1c0.1,0,0.2,0,0.4-0.1c0.1,0.1,0.3,0.2,0.6,0.2c0,0,0,0,0,0h0.5h0.5c0,0,0,0,0,0
		s0,0,0,0h0.5h0.5h0.5c0,0,0,0,0,0s0,0,0,0h0.5h0.5c0,0,0,0,0,0s0,0,0,0h0.5c0,0,0,0,0,0s0,0,0,0c0.2,0,0.4,0,0.5,0
		c0.1,0,0.2,0,0.3-0.1c0.2-0.1,0.3-0.1,0.3-0.2c0.1-0.1,0.1-0.3,0.1-0.5c0-0.2,0-0.4-0.1-0.5C19.8,20.3,19.7,20.2,19.7,20.2z
		 M19.3,20.8c-0.1,0-0.1,0-0.2,0c0,0,0-0.1,0-0.1c0-0.1,0-0.2,0.1-0.2s0.1-0.1,0.2-0.1c0.1,0,0.1,0,0.2,0.1c0,0.1,0.1,0.2,0.1,0.3
		C19.5,20.8,19.4,20.8,19.3,20.8z M13.6,21.3c-0.1,0-0.1,0-0.2,0c0,0-0.1-0.1-0.1-0.1c0-0.1,0-0.1,0.1-0.2c0.1-0.1,0.2-0.1,0.3-0.1
		v0.3c0,0.1,0,0.1,0,0.2C13.8,21.2,13.7,21.3,13.6,21.3z"/>
	<path class="st3" d="M21.8,19.8l-1,0.3l0,0.4c0.3,0.1,0.5,0.3,0.6,0.4c0.1,0.1,0.2,0.2,0.2,0.3c0,0,0,0,0,0c0,0.1-0.1,0.1-0.2,0.1
		c-0.1,0-0.2,0-0.4,0h-0.1c-0.1,0-0.1,0-0.2,0c0,0-0.1,0-0.1-0.1c0,0,0-0.1,0-0.2l0-1.2l-0.3,0l0,1.2c0,0.2,0,0.4,0.1,0.5
		c0.1,0.1,0.2,0.2,0.4,0.2c0,0,0,0,0,0h0.1c0.2,0,0.3,0,0.4-0.1s0.2-0.1,0.3-0.2c0.1-0.1,0.1-0.2,0.1-0.3c0,0,0,0,0-0.1
		c0-0.1,0-0.3-0.1-0.4c-0.1-0.1-0.3-0.3-0.5-0.4l0.7-0.2L21.8,19.8z"/>
	<path class="st3" d="M23.8,21.6c0-0.1,0.1-0.1,0.1-0.2c0-0.1,0-0.3-0.1-0.4c0-0.1-0.1-0.2-0.2-0.3c-0.1-0.1-0.2-0.1-0.3-0.1
		c-0.1,0-0.2,0-0.3,0.1c-0.1,0.1-0.1,0.2-0.2,0.3s-0.1,0.2-0.1,0.4c0,0,0,0.1,0,0.2c-0.1,0-0.1,0.1-0.2,0.2s0,0.2,0,0.3v0.6l0.3,0
		v-0.5c0-0.1,0-0.1,0-0.1c0,0,0,0,0.1,0c0,0,0.1,0,0.3,0c0.1,0,0.3,0,0.4,0C23.7,21.7,23.8,21.6,23.8,21.6z M23.6,21.3
		C23.5,21.3,23.5,21.4,23.6,21.3c-0.1,0-0.2,0-0.3,0c-0.1,0-0.1,0-0.2,0c0-0.1,0-0.1,0-0.1c0-0.1,0-0.2,0.1-0.3
		c0-0.1,0.1-0.1,0.2-0.1c0.1,0,0.2,0,0.2,0.1S23.6,21.2,23.6,21.3C23.6,21.3,23.6,21.3,23.6,21.3z"/>
	<polygon class="st3" points="24.2,20.6 24.4,20.4 24.4,20.4 24.2,20.2 24.2,20.2 24,20.4 24,20.4 24.2,20.6 	"/>
	<path class="st3" d="M24.4,20.8l-0.3,0.1c0.1,0.1,0.1,0.3,0.1,0.4s0,0.2,0,0.3c0,0.2-0.1,0.3-0.2,0.4s-0.3,0.1-0.5,0.1l0,0.3
		c0.3,0,0.6-0.1,0.7-0.2c0.2-0.2,0.2-0.4,0.2-0.7c0-0.1,0-0.2,0-0.3S24.5,20.9,24.4,20.8z"/>
	<polygon class="st3" points="24.9,19.9 24.9,21.8 25.2,21.7 25.2,19.9 	"/>
	<path class="st3" d="M30.2,21c0,0.1,0,0.2-0.1,0.3c-0.1,0.1-0.1,0.1-0.3,0.1c0,0,0,0,0,0s0,0,0,0h-0.5h-0.5h-0.5h-0.5h-0.5
		c0,0,0,0,0,0s0,0,0,0h-0.5c0,0,0,0,0,0s0,0,0,0h-0.1c0-0.3-0.1-0.5-0.2-0.6c-0.1-0.1-0.2-0.2-0.4-0.2c-0.2,0-0.3,0.1-0.4,0.2
		c-0.1,0.1-0.1,0.3-0.1,0.5c0,0.1,0,0.3,0.1,0.3c0.1,0.1,0.2,0.1,0.4,0.1h0.3c0,0.1-0.1,0.2-0.2,0.3c-0.1,0.1-0.3,0.1-0.5,0.1
		c0,0-0.1,0-0.1,0l0,0.3c0.1,0,0.1,0,0.1,0c0.3,0,0.5-0.1,0.7-0.2s0.3-0.3,0.3-0.5h0.1c0,0,0,0,0,0s0,0,0,0h0.5c0,0,0,0,0,0s0,0,0,0
		h0.5h0.5h0.5h0.5h0.5c0,0,0,0,0,0s0,0,0,0c0.2,0,0.4-0.1,0.5-0.2c0.1-0.1,0.2-0.3,0.2-0.5v-1.2l-0.3,0L30.2,21z M26,21.4
		c-0.1,0-0.1,0-0.2,0s-0.1-0.1-0.1-0.1c0-0.1,0-0.2,0.1-0.2c0-0.1,0.1-0.1,0.2-0.1c0.2,0,0.3,0.2,0.3,0.5H26z"/>
	<polygon class="st3" points="32.4,20.5 32.5,20.3 32.7,20.5 32.7,20.5 32.9,20.3 32.9,20.2 32.7,20.1 32.7,20.1 32.5,20.3 
		32.3,20.1 32.3,20.1 32.1,20.3 32.1,20.3 32.3,20.5 	"/>
	<polygon class="st3" points="34,20.2 34.2,20 34.2,20 34,19.8 34,19.8 33.8,20.1 33.8,20.1 34,20.2 	"/>
	<path class="st3" d="M34.3,20.8c0-0.1,0-0.2-0.1-0.4L34,20.6c0,0.2,0.1,0.3,0.1,0.4c0,0.1,0,0.2,0,0.2c0,0.1,0,0.1-0.1,0.2
		s-0.2,0.1-0.4,0.1h0c-0.2,0-0.3-0.1-0.3-0.4c0,0,0-0.1,0-0.1c0-0.1,0-0.1-0.1-0.2c0,0-0.1-0.1-0.2-0.1c-0.2,0-0.3,0-0.5,0.1
		c-0.2,0.1-0.3,0.2-0.4,0.3c-0.1,0.1-0.1,0.2-0.1,0.3c0,0.1,0,0.1,0.1,0.2c0.1,0,0.2,0.1,0.3,0.1c0.1,0,0.2,0,0.2,0.1
		c0,0,0.1,0,0.1,0.1s0,0.1-0.1,0.1c-0.1,0-0.1,0.1-0.2,0.1s-0.2,0-0.3,0c-0.2,0-0.3,0-0.4-0.1c-0.1-0.1-0.1-0.1-0.1-0.3
		c0-0.1,0-0.2,0-0.3c0-0.1,0.1-0.2,0.1-0.4L31.4,21c-0.1,0.2-0.1,0.3-0.1,0.4c0,0.1,0,0.2,0,0.3c0,0.2,0.1,0.4,0.2,0.5
		c0.1,0.1,0.3,0.2,0.6,0.2c0.2,0,0.4,0,0.5-0.1c0.1-0.1,0.3-0.1,0.3-0.2c0.1-0.1,0.1-0.2,0.1-0.3v0c0-0.1,0-0.1-0.1-0.2
		c0,0-0.1-0.1-0.2-0.1s-0.2-0.1-0.3-0.1c-0.1,0-0.1,0-0.1,0c0,0,0,0,0,0c0,0,0,0,0-0.1c0.1-0.1,0.1-0.1,0.2-0.2
		c0.1,0,0.2-0.1,0.3-0.1c0,0,0,0,0,0c0,0,0,0,0,0.1c0,0,0,0.1,0,0.1c0,0.2,0.1,0.3,0.2,0.4c0.1,0.1,0.3,0.2,0.5,0.2h0
		c0.3,0,0.5-0.1,0.6-0.2s0.2-0.3,0.2-0.5C34.4,21,34.3,20.9,34.3,20.8z"/>
	<polygon class="st3" points="35.7,20.5 35.8,20.3 36,20.5 36,20.5 36.2,20.3 36.2,20.3 36,20.1 36,20.1 35.8,20.3 35.6,20.1 
		35.6,20.1 35.5,20.3 35.5,20.3 35.7,20.5 	"/>
	<polygon class="st3" points="37.2,20.6 37.4,20.4 37.4,20.4 37.2,20.2 37.2,20.2 37,20.4 37,20.4 37.2,20.6 	"/>
	<polygon class="st3" points="38.3,22 38.1,22.2 37.9,22 37.9,22 37.8,22.2 37.8,22.2 38,22.4 38,22.4 38.1,22.2 38.3,22.4 
		38.3,22.4 38.5,22.2 38.5,22.1 38.3,22 	"/>
	<path class="st3" d="M38.4,20.4l-0.3,0.1c0,0.2,0.1,0.3,0.1,0.4c0,0.1,0,0.2,0,0.2c0,0.1,0,0.1-0.1,0.2s-0.2,0.1-0.4,0.1h0
		c-0.2,0-0.3,0-0.5-0.1c0,0,0-0.1,0-0.1l0-0.2l-0.2-0.1L37,21c0,0.1-0.1,0.2-0.1,0.2c0,0-0.1,0.1-0.1,0.1c0,0-0.1,0-0.2,0
		c-0.1,0-0.2,0-0.2,0c-0.1,0-0.1-0.1-0.1-0.1c0,0,0-0.1,0-0.2l0-0.4l-0.3,0l0,0.2C35.7,21,35.5,21,35.4,21c-0.1,0-0.2,0-0.2,0
		c0,0-0.1-0.1-0.1-0.2l-0.3,0.1c0,0.2,0.1,0.3,0.1,0.4c0,0.1,0,0.2,0,0.2c0,0.2,0,0.3-0.1,0.4s-0.2,0.1-0.5,0.2c0,0-0.1,0-0.1,0
		l0,0.3h0.1c0.3,0,0.5-0.1,0.7-0.2c0.1-0.2,0.2-0.4,0.2-0.6c0-0.1,0-0.2,0-0.3c0,0,0.1,0,0.2,0c0.1,0,0.3,0,0.5-0.1
		c0,0.2,0.1,0.3,0.2,0.4s0.3,0.1,0.5,0.1c0.2,0,0.4-0.1,0.5-0.2c0.1,0.1,0.2,0.1,0.3,0.2c0.1,0,0.2,0.1,0.3,0.1h0
		c0.3,0,0.5-0.1,0.6-0.2s0.2-0.3,0.2-0.5c0-0.1,0-0.2,0-0.3C38.5,20.8,38.4,20.6,38.4,20.4z"/>
	<polygon class="st3" points="38.8,19.9 38.8,21.8 39.1,21.7 39.1,19.9 	"/>
	<path class="st3" d="M40.1,20.4L40,20.7c0,0,0.1,0,0.1,0C40,20.9,40,21,39.9,21.1c0,0.1-0.1,0.2-0.1,0.3c0,0.1,0,0.2,0.1,0.3
		c0.1,0.1,0.2,0.1,0.4,0.1c0.2,0,0.3,0,0.5-0.1c0.1-0.1,0.2-0.2,0.2-0.4C41,20.9,40.7,20.6,40.1,20.4z M40.6,21.4
		c-0.1,0-0.1,0-0.2,0c-0.1,0-0.1,0-0.2,0c0,0-0.1-0.1-0.1-0.1c0-0.1,0-0.1,0.1-0.2c0-0.1,0.1-0.2,0.1-0.2c0.3,0.1,0.4,0.3,0.4,0.5
		C40.7,21.3,40.7,21.4,40.6,21.4z"/>
	<polygon class="st3" points="42.8,19.4 41.9,19.8 41.8,20 42.8,19.6 	"/>
	<polygon class="st3" points="49.3,20.2 49.5,20.1 49.5,20 49.3,19.9 49.3,19.9 49.1,20.1 49.1,20.1 49.3,20.2 	"/>
	<polygon class="st3" points="49.2,20.6 49.4,20.4 49.5,20.6 49.5,20.6 49.7,20.4 49.7,20.4 49.5,20.2 49.5,20.2 49.3,20.4 
		49.2,20.2 49.2,20.2 49,20.4 49,20.5 49.2,20.6 	"/>
	<path class="st3" d="M49.8,20.7c0.1,0.3,0.1,0.4,0.1,0.5c0,0.1,0,0.1,0,0.1s-0.1,0-0.1,0c0,0-0.1,0-0.1,0c0,0-0.1,0-0.1-0.1
		c0,0,0-0.1,0-0.2c0-0.1,0-0.1,0-0.2l0-0.1l-0.2,0c0,0.2,0,0.3,0,0.3c0,0,0,0.1,0,0.1c0,0-0.1,0.1-0.1,0.1c-0.1,0-0.1,0-0.2,0
		c-0.1,0-0.1,0-0.2,0c0-0.1,0-0.1,0-0.2c0-0.1,0-0.2,0-0.3l-0.2,0c0,0.1,0,0.2,0,0.2s0,0.1,0,0.1c0,0,0,0,0,0.1
		c0,0.1-0.2,0.1-0.3,0.1c0,0,0,0,0,0s0,0,0,0h-0.5H47h-0.5H46h-0.5c0,0,0,0,0,0s0,0,0,0h-0.5h-0.5h-0.5h-0.5c-0.1,0-0.1,0-0.2,0
		s-0.1-0.1-0.2-0.1c-0.1-0.1-0.1-0.2-0.3-0.3c-0.2-0.2-0.3-0.4-0.6-0.6l0.7-0.2l0-0.3l-1,0.3l0,0.4c0.1,0.1,0.2,0.2,0.4,0.3
		c0.1,0.1,0.2,0.2,0.3,0.3c0.1,0.1,0.1,0.1,0.1,0.2c0,0,0,0.1-0.1,0.1c0,0-0.1,0-0.2,0.1c-0.1,0-0.2,0-0.3,0h-0.1c0,0,0,0,0,0
		s0,0,0,0c-0.1,0-0.1,0-0.2,0c0,0-0.1,0-0.1-0.1c0,0,0-0.1,0-0.2l0-1.2l-0.3,0l0,1.2c0,0.2,0,0.4,0.1,0.5c0.1,0.1,0.2,0.2,0.4,0.2
		c0,0,0,0,0,0s0,0,0,0H42c0.2,0,0.4,0,0.5-0.1s0.2-0.1,0.3-0.2c0.1,0.1,0.2,0.2,0.3,0.2c0.1,0,0.2,0.1,0.3,0.1h0.5h0.5h0.5h0.5
		c0,0,0,0,0,0s0,0,0,0H46h0.5H47h0.5H48c0,0,0,0,0,0s0,0,0,0c0.2,0,0.4,0,0.5-0.1c0.1,0.1,0.3,0.1,0.4,0.1c0.1,0,0.2,0,0.3,0
		c0.1,0,0.1-0.1,0.2-0.1c0.1,0.1,0.3,0.2,0.4,0.2c0.1,0,0.3,0,0.3-0.1c0.1-0.1,0.1-0.2,0.1-0.4c0-0.1,0-0.3-0.1-0.6L49.8,20.7z"/>
	<path class="st3" d="M50.9,20.6c-0.2,0-0.3,0.1-0.4,0.2c-0.1,0.1-0.1,0.3-0.1,0.5c0,0.1,0,0.3,0.1,0.3c0.1,0.1,0.2,0.1,0.4,0.1
		c0.1,0,0.3,0,0.4-0.1c0,0.1-0.1,0.2-0.2,0.3c-0.1,0.1-0.3,0.1-0.5,0.1c0,0,0,0-0.1,0l0,0.3c0,0,0,0,0.1,0c0,0,0,0,0,0s0,0,0,0
		c0.3,0,0.6-0.1,0.8-0.2s0.2-0.4,0.2-0.7c0-0.3-0.1-0.5-0.2-0.7C51.3,20.6,51.1,20.6,50.9,20.6z M50.9,21.4c-0.1,0-0.1,0-0.2,0
		c0,0-0.1-0.1-0.1-0.1c0-0.1,0-0.2,0.1-0.2c0-0.1,0.1-0.1,0.2-0.1c0.1,0,0.2,0,0.2,0.1c0,0.1,0.1,0.2,0.1,0.3
		C51.1,21.4,51,21.4,50.9,21.4z"/>
	<polygon class="st3" points="53.6,19.8 53.8,19.6 53.8,19.6 53.6,19.4 53.5,19.4 53.4,19.6 53.4,19.7 53.6,19.8 	"/>
	<path class="st3" d="M54.1,20.5c-0.1-0.1-0.1-0.2-0.2-0.3S53.7,20,53.6,20c-0.2,0-0.3,0.1-0.4,0.2s-0.1,0.3-0.1,0.5
		c0,0.1,0,0.2,0.1,0.3c0.1,0.1,0.2,0.1,0.3,0.1c0.2,0,0.3,0,0.4-0.1c0,0.1,0,0.1,0,0.1c0,0,0,0,0,0.1s-0.1,0-0.1,0
		c-0.1,0-0.2,0-0.3,0c-0.1,0-0.3,0-0.5,0c0,0,0,0,0,0s0,0,0,0c-0.1,0-0.2,0-0.2,0c0,0-0.1-0.1-0.1-0.1c0,0-0.1-0.1-0.1-0.2l-0.1-0.2
		l-0.3,0.1c0,0.1,0.1,0.3,0.1,0.4c0,0.1,0,0.2,0,0.3c0,0.2-0.1,0.3-0.2,0.4c-0.1,0.1-0.3,0.1-0.5,0.2c0,0,0,0-0.1,0l0,0.3
		c0,0,0,0,0.1,0c0.3,0,0.6-0.1,0.7-0.3c0.1-0.1,0.2-0.3,0.2-0.5c0.1,0.1,0.2,0.1,0.3,0.1c0,0,0,0,0,0s0,0,0,0c0.2,0,0.4,0,0.5,0
		c0.1,0,0.2,0,0.3-0.1c0.2-0.1,0.3-0.1,0.3-0.2c0.1-0.1,0.1-0.3,0.1-0.5C54.2,20.8,54.2,20.6,54.1,20.5z M53.6,20.8
		c-0.1,0-0.1,0-0.2,0c0,0,0-0.1,0-0.1c0-0.1,0-0.2,0.1-0.2c0-0.1,0.1-0.1,0.2-0.1c0.1,0,0.1,0,0.2,0.1c0,0.1,0.1,0.2,0.1,0.3
		C53.8,20.8,53.7,20.8,53.6,20.8z"/>
</g>
</svg>
