<?xml version="1.0" encoding="utf-8"?>
<!-- Generator: Adobe Illustrator 24.0.2, SVG Export Plug-In . SVG Version: 6.00 Build 0)  -->
<svg xmlns="http://www.w3.org/2000/svg" class="icon" viewBox="0 0 283.5 283.5">
<path class="st0" d="M139,207.6l6.6-0.1l0.1,5.5H139L139,207.6L139,207.6z M66.4,207.7l0.1,5.3c-2.2,0.5-9.8,0.2-12.5,0.2
	c-4.4,0-10,1.6-10-2.8s5.6-2.8,10-2.8C56.8,207.5,64.2,207.2,66.4,207.7L66.4,207.7z M277.6,205.7c9.8,11.7-19.3,8.4-23.6,8.4
	c-11.5,0-23,0-34.5,0c-7.9,0-65.7,1.4-68.1-0.8c-5-4.4-0.3-8.7,6.5-8.4c5.5,0.2,11.5,0,17.1,0C189.4,204.9,275.3,204.2,277.6,205.7z
	 M236.3,188.8c0.1-1.5,0.6-2.8,0.8-4.3c0.2-1.6,0.1-3.1,0.2-4.6C242.8,179.6,244.2,189,236.3,188.8z M196,175.5
	c0.4-0.7,26.8-0.4,29.7-0.4c8.1,0,7.5-1.2,6.9,8c-1,14.9-18.6,17.8-27.7,13.2C198.4,193.1,192.9,180.3,196,175.5L196,175.5z
	 M157.4,170.9c0.1-1.2,6.6-12.6,7.8-13.9l5.8,3.5l-8.1,13.6L157.4,170.9L157.4,170.9z M212.2,154.5l4.5,0.1l-0.1,4.4l-4.4-0.1
	L212.2,154.5L212.2,154.5z M198.3,131.9c0.4-0.8,22.5-0.3,24.9-0.3c7.4,0,7.3-1.8,7.2,5.6c-0.2,11.4,1.1,14.3-25.2,12.7
	C196.7,149.4,197,134.5,198.3,131.9z M170.6,154.8c-0.5-2,5.9-10.3,6.8-13c1.2-3.6-0.7-16.3,0.6-19.3c1.2-0.2,1-0.4,2,0.2
	c0.3,2.8,0,7.6,0,10.6c0,8.7,0.3,6.3-5,15.8C172.8,153.1,172.4,155.3,170.6,154.8L170.6,154.8z M161.8,153.3c-0.7-3-0.1-16.9-0.1-21
	c0-2.4-1-8.9,1.1-9.8c1-0.4,9.2-0.3,10.2,0.2c3,10-1.2,20.8-6.5,28.8L161.8,153.3z M147.2,141.8c-5.5-5-8.6,5.7-8.2-9.9
	c0.1-3.2-0.6-14.9,0.3-16.9c0.6-1.5,3.5-3.6,5.1-3.9c1.9-0.3,1.3,4.1,1.5,5.6c1,7.8,7.6,4,10.7,6.7c1.6,2.7,0.8,38.3-1,41.5
	c-7.9,13.3,0.5,6.2,1.6,13.1c0.3,2.1,0.2,20.1-0.4,21.3c-5.4,5.4-98.3,2.8-112.5,2.7l0-55.7l102.3,0.1L147.2,141.8L147.2,141.8z
	 M116.7,135l5.6,0.1l-0.1,5.6l-5.6-0.1C116.6,140.7,116.7,135,116.7,135z M110.5,135L110.5,135c0.8,0.6,0.4-0.6,0.7,1.4
	c0,0.1,0,1.2,0,1.4c0,1,0,1.8-0.1,2.8l-5.6-0.1l0.1-5.6L110.5,135L110.5,135z M99.3,140.6L99.3,140.6h-5l0.1-5.6l5.5,0.1
	c0.1,1.1,0.1,2,0.1,3.1C100,139.7,100.4,140.2,99.3,140.6L99.3,140.6z M83.2,135l5.6,0.2l-0.1,5.5l-5.6-0.1
	C83.1,140.7,83.2,135,83.2,135z M72.1,135l5.6,0.1l-0.1,5.6l-5.6-0.1C72,140.7,72.1,135,72.1,135z M60.9,135l5.6,0.1l-0.1,5.6
	l-5.6-0.1L60.9,135L60.9,135z M54.7,140.6L54.7,140.6h-5l0.1-5.6l5.5,0.1c0.1,1.1,0.1,2,0.1,3.1C55.5,139.7,55.8,140.2,54.7,140.6
	L54.7,140.6z M277.9,141.6c-2.1,1.4-21.5-1.8-26.7-2.5c-4.1-0.5-3.8-3.3,0.9-3.8c5.8-0.6,11.8-1.5,17.6-2.3c2-0.3,7-1.6,8.3,0.2
	C279,134.6,278.8,140.3,277.9,141.6L277.9,141.6z M235,136.2l9.2,0l-0.1,2.3l-9.1-0.1C235,138.3,235,136.2,235,136.2z M116.7,123.9
	l5.6,0.1l-0.1,5.6l-5.6-0.1L116.7,123.9L116.7,123.9z M110.4,129.5L110.4,129.5l-5,0l0.1-5.6l5.5,0.1c0.1,1.1,0.1,2,0.1,3.1
	C111.2,128.6,111.5,129.1,110.4,129.5L110.4,129.5z M94.4,123.9l5.6,0.1l-0.1,5.5l-5.6-0.1L94.4,123.9L94.4,123.9z M83.2,123.9
	l5.6,0.2l-0.1,5.5l-5.6-0.1L83.2,123.9L83.2,123.9z M72.1,123.9l5.6,0.1l-0.1,5.6l-5.6-0.1L72.1,123.9L72.1,123.9z M65.9,129.5
	L65.9,129.5l-5,0l0.1-5.6l5.5,0.1c0.1,1.1,0.1,2,0.1,3.1C66.6,128.6,67,129.1,65.9,129.5L65.9,129.5z M49.8,123.9l5.6,0.1l-0.1,5.5
	l-5.6-0.1L49.8,123.9L49.8,123.9z M234.3,127.6c-2.7-1.7-3.3,0.9-3.9-2.1c-0.5-2.2,0.2-3.1,2.3-3.3l34.4,0.4c0,1.5,0.3,5.4-0.3,6.5
	l-31.2,3.1L234.3,127.6L234.3,127.6z M225.7,122.6c0.6,0.7,0.3,3.1,0.3,4.3c-1.6,0.5-21.5,0.5-23.2,0l0.2-4.6
	C203.7,122.2,225.2,121.8,225.7,122.6L225.7,122.6z M162.2,199.8c-1.1-1.8-0.4-11.6-0.5-14.5c-0.4-10.9,2.3-2.3,5.3-8.2
	c3.1-6,9.1-12.6,9.1-19.4c0.1-4.6,8.7-11.8,8.5-20.8c-0.1-2.6-0.9-13.1,0.9-14.2c1-0.6,11.8-1.4,13,1.7l0.5,0.7l-5.1,3.6
	c-0.8,2.5-0.3,16.3,0.8,19c3.4,8,10.2,5.5,12.7,7.6c0.1,2-0.2,6.4,0.4,8.1l12.6,0.2c1.1-1.4,0.8-6.9,0.9-8.9
	c3.5-1.3,5.4,0.6,9.7-3.1c4-3.5,2.6-5.6,4.1-8.5l0.1-0.7l31.8,3.1l0.1,54.8l-40.4,0c0.3-0.4,7.1-6.4,7.3-6.5
	c3.3-1.4,6.2,0.8,9.9-3.2c7-7.6,0.4-13-6.4-15.7c-0.2-1.2-0.4-3.4-1.1-4.3l-44.3,0.5c-1.6,2.9-0.5,15,0.8,18.4
	c3,7.5,6.7,7.3,9.1,10.9L162.2,199.8L162.2,199.8z M116.7,112.7l5.6,0.1l-0.1,5.5l-5.6-0.1C116.6,118.4,116.7,112.7,116.7,112.7z
	 M105.6,112.8l5.5,0.1l-0.1,5.4l-5.5-0.1L105.6,112.8L105.6,112.8z M94.4,112.7l5.6,0.2l-0.1,5.5l-5.6-0.1L94.4,112.7L94.4,112.7z
	 M88.2,118.4L88.2,118.4h-5l0.1-5.6l5.5,0.1c0.1,1,0.1,2,0.1,3.1C89,117.5,89.3,118,88.2,118.4L88.2,118.4z M72.1,112.7l5.6,0.1
	l-0.1,5.5l-5.6-0.1C72,118.4,72.1,112.7,72.1,112.7z M61.1,112.8l5.5,0.1l-0.1,5.4l-5.5-0.1L61.1,112.8L61.1,112.8z M49.8,112.7
	l5.6,0.2l-0.1,5.5l-5.6-0.1L49.8,112.7L49.8,112.7z M151.5,117.4c-2.3-2.1-1.2-19.1-1.3-23c-0.1-12.2,3-8.6,15.6-8.6
	c16.2,0,32.3,0,48.4,0c16.3,0,32.5,0,48.8,0c12.6,0,15.6-3.6,15.6,8.6c0,3.7,0.9,21-1,22.9L151.5,117.4L151.5,117.4z M142.2,105.6
	c-2.7-3.6-0.2-6.1,3.5-7.1l-0.1,5.3C144.7,104.6,143.3,105.4,142.2,105.6z M35.5,94.9C34,94.7,13.5,80,9.1,77
	c-5.1-3.4-3.8-7.7,0.5-6.8c1.3,0.3,15,10.1,17.3,11.7C31.2,84.9,44.9,91.2,35.5,94.9L35.5,94.9z M72,217.2c0.5-1.3-0.5-7.6,0.6-9.7
	H133c1.1,2.1,0.3,8.5,0.8,9.7c0.8,2,117.1,1.4,133.4,1.4c6.4,0,15.3,1.9,16-7c1.2-14.6-7.2-9.4-11.1-11.8l0-52.9
	c3.5-1.9,11.1,3.4,11.1-9.8c-0.1-13-7.9-7.7-11.1-9.4v-4.9c2.5-1.5,9.2,1.4,10.8-5.8c0.7-3.3,0.3-12.6,0.3-16.5
	c0-15,3.1-19.5-13.6-19.5h-99.9c-12.5,0-21.9-4.1-24.1,9c-0.7,4-6.1,4.1-8.8,7.9c-4.3,6,1.9,9.3-0.6,11.5c-6.7,6-0.1,23.1-2.9,30.3
	l-5.4,0.8l-0.8-33.3l-75.5-0.1c-2.7-3.8-1.5-5.3-2.9-7.8c-1.4-2.6-4.9-2.2-3.5-5.6c2.9-7-0.9-6.5-7-10.8
	c-6.4-4.5-19.1-14.3-25.4-17.5C7.3,62.6,0.6,65.6,0,72.2c-0.6,6.5,5.1,8.8,9.6,12c3.4,2.4,23.5,17.1,25.6,17.2
	c3.5,0.1,9.4-6.3,9.1,6.9c-0.2,7.2-0.2,14.5-0.2,21.6c0,2.8,1.2,8-0.8,10c-2.4,2.3-4.9,0.9-4.9,5.9c-0.1,21.4,0.6,42.8,0.2,64.7
	c-0.2,11.2,3.4,8.2,13.4,8.2C55.8,218.7,69.6,219.7,72,217.2L72,217.2z"/>
<path class="st0" d="M239,211.8c3.2,0,22,1.7,21.1-2.7c-0.9-4.5-40.6-1.9-46.2-1.9c-8,0-16,0-24,0c-3.3,0-21.9-1.8-21.2,2.8
	c0.7,4.2,41,1.8,46.3,1.8C222.9,211.8,231,211.8,239,211.8z"/>
<path class="st0" d="M206.7,106.4l15.2,0C220.5,111.9,209.1,112.6,206.7,106.4z M205.5,101.6c-1.3-4.5,4.6-9,9.1-8.9
	c4.4,0.1,9.4,4.4,8.8,8.8c-1.2,0.5-6,0.5-7.4,0.1c-1.1-1.9-1.2-6.3-3.6-6.6c-4.5-0.5-1.4,4.8-1.7,6.8L205.5,101.6z M211.9,88.2
	c-17.6,2.9-12.8,30.1,4.9,27.1C234.3,112.3,230.1,85.2,211.9,88.2z"/>
<path class="st0" d="M244.2,97.8c0.6-1-0.9-0.6,1.4-0.9l21.6,0.2c0.3,1.8,0.4,7.6-0.1,9.3l-17.7,0.1c-3,0-4.8,0.5-5.2-0.7
	L244.2,97.8L244.2,97.8z M240.2,110.2l30.8,0.7c0-0.1,1.8-12.9,0.5-16.7c-0.9-2.6-12.6-1.6-15.4-1.6c-2.8,0-14.6-0.9-16,1.1
	C239.2,95,239.3,108.6,240.2,110.2z"/>
<path class="st0" d="M165,97.5c5.5-2,8.4,6.6,2.8,8.5C162.3,108,158.7,99.8,165,97.5z M164.2,92.9c-12.1,3.2-7.4,20.4,4.2,17.7
	C180.1,108,175.7,89.9,164.2,92.9z"/>
<path class="st0" d="M181.5,104.3c-2,0.9-2,3.3-0.2,4.1c1,0.4,5.5,0.4,6.5,0c1.7-0.8,1.7-3.3,0-4
	C186.7,103.8,182.6,103.9,181.5,104.3L181.5,104.3z"/>
<path class="st0" d="M181.4,95.2c-1.9,0.8-1.7,3.4,0.1,4.1c0.9,0.4,5.5,0.3,6.4-0.1c1.7-0.7,1.8-3.2,0.1-4
	C186.7,94.6,182.5,94.7,181.4,95.2L181.4,95.2z"/>
<path class="st0" d="M154.8,210c0.5,2.7,9.8,3.1,9-1C163.3,206.3,154.1,206.1,154.8,210z"/>
<path class="st0" d="M264.9,210c0.3,2.2,3.3,1.8,5.1,1.8c2,0,4.4-0.2,3.9-2.8C273.3,206.3,264.2,206,264.9,210z"/>
</svg>
