<?xml version="1.0" encoding="utf-8"?>
<!-- Generator: Adobe Illustrator 21.0.0, SVG Export Plug-In . SVG Version: 6.00 Build 0)  -->
<svg version="1.1" id="Layer_1" xmlns="http://www.w3.org/2000/svg" xmlns:xlink="http://www.w3.org/1999/xlink" x="0px" y="0px"
	 viewBox="0 0 487 56.6" style="enable-background:new 0 0 487 56.6;" xml:space="preserve">
<style type="text/css">
	.st0{fill:#231F20;}
	.st1{fill:#FFFFFF;}
	.st2{fill:#FCB913;}
	.st3{fill:#FCB713;}
</style>
<g>
	<path class="st0" d="M308,31.3c-0.2,0.1-0.5,0.1-0.6-0.1s-0.1-0.5,0.1-0.6c0,0,3.6-2.2,4,2.4c0.3,3.1,2.6,1.7,2.6,1.7
		c0.2-0.1,0.5-0.1,0.6,0.1c0.1,0.2,0.1,0.5-0.1,0.6c0,0-3.6,2.2-4-2.4C310.3,29.9,308,31.3,308,31.3"/>
	<path class="st1" d="M307.8,31.4c-0.3,0-0.4-0.2-0.4-0.5s0.2-0.4,0.5-0.4c0,0,4.2,0.3,1.8,4.2c-1.6,2.7,1.1,2.9,1.1,2.9
		c0.3,0,0.4,0.2,0.4,0.5s-0.2,0.4-0.5,0.4c0,0-4.2-0.3-1.8-4.2C310.4,31.6,307.8,31.4,307.8,31.4"/>
	<path class="st0" d="M296.5,19.4l11.3,11.5l-1.6,7.5c-0.2,1-1.5,1.4-2.2,0.7L288.2,23c-0.7-0.7-0.3-2,0.7-2.2L296.5,19.4z"/>
	<path class="st0" d="M307.3,31.1l-11-11.2l-7.3,1.4c-0.2,0-0.3,0.1-0.4,0.2l0,0c-0.1,0.1-0.2,0.2-0.2,0.4c0,0.1-0.1,0.3,0,0.4
		c0,0.1,0.1,0.3,0.2,0.4l15.7,16.1c0.1,0.1,0.3,0.2,0.4,0.2l0,0c0.1,0,0.3,0,0.4,0s0.3-0.1,0.4-0.2c0.1-0.1,0.2-0.3,0.2-0.4
		L307.3,31.1z M296.8,19.1l11.3,11.5c0.1,0.1,0.2,0.3,0.1,0.4l-1.6,7.5c-0.1,0.4-0.3,0.7-0.5,0.9s-0.5,0.4-0.8,0.4
		c-0.3,0.1-0.6,0.1-0.9,0l0,0c-0.3-0.1-0.6-0.2-0.9-0.5l-15.7-16.1c-0.3-0.3-0.4-0.6-0.5-0.9s0-0.6,0.1-0.9s0.2-0.5,0.5-0.7l0,0
		c0.2-0.2,0.5-0.4,0.9-0.5l7.5-1.4C296.6,18.9,296.7,19,296.8,19.1z"/>
	<path class="st1" d="M296.5,19.4l11.3,11.5l7.5-1.4c1-0.2,1.5-1.5,0.7-2.2l-15.7-16.1c-0.7-0.7-2-0.4-2.2,0.7L296.5,19.4z"/>
	<path class="st0" d="M307.5,31.3l-11.3-11.5c-0.1-0.1-0.2-0.3-0.1-0.4l1.6-7.5c0.1-0.4,0.3-0.7,0.5-0.9s0.5-0.4,0.8-0.4
		c0.3-0.1,0.6-0.1,0.9,0s0.6,0.2,0.9,0.5l15.7,16.1c0.3,0.3,0.4,0.6,0.5,0.9s0,0.6-0.1,0.9s-0.2,0.5-0.5,0.8
		c-0.2,0.2-0.6,0.4-0.9,0.5l-7.5,1.4C307.7,31.4,307.6,31.4,307.5,31.3 M297,19.2l11,11.2l7.3-1.4c0.2,0,0.3-0.1,0.4-0.2
		s0.2-0.2,0.2-0.4c0-0.1,0.1-0.3,0-0.4c0-0.1-0.1-0.3-0.2-0.4L300,11.5c-0.1-0.1-0.3-0.2-0.4-0.2s-0.3,0-0.4,0s-0.3,0.1-0.4,0.2
		c-0.1,0.1-0.2,0.3-0.2,0.4L297,19.2z"/>
	<path class="st1" d="M305.1,16.1l6.1,6.3l7.5-1.5c1-0.2,1.5-1.5,0.7-2.2L309,8c-0.7-0.7-2-0.3-2.2,0.7L305.1,16.1z"/>
	<path class="st0" d="M310.9,22.7l-6.1-6.3c-0.1-0.1-0.2-0.3-0.1-0.4l1.6-7.5c0.1-0.4,0.3-0.7,0.5-0.9c0.2-0.2,0.5-0.3,0.7-0.4l0,0
		c0.3-0.1,0.6-0.1,0.9,0s0.6,0.2,0.8,0.5l10.5,10.7c0.2,0.3,0.4,0.6,0.5,0.9s0,0.6-0.1,0.9s-0.2,0.5-0.5,0.8
		c-0.2,0.2-0.5,0.4-0.9,0.5l-7.5,1.5C311.2,22.9,311,22.8,310.9,22.7 M305.6,16l5.8,5.9l7.2-1.4c0.2,0,0.3-0.1,0.4-0.2
		s0.2-0.2,0.2-0.4c0-0.1,0.1-0.3,0-0.4c0-0.1-0.1-0.3-0.2-0.4L308.5,8.4c-0.1-0.1-0.2-0.2-0.4-0.2c-0.1,0-0.3,0-0.4,0l0,0
		c-0.1,0-0.2,0.1-0.3,0.2c-0.1,0.1-0.2,0.3-0.2,0.4L305.6,16z"/>
	<path class="st0" d="M289.8,50.4L289.8,50.4L289.8,50.4z M289.8,50.4L276.6,37c-0.7-0.7-1.1-1.6-1.2-2.4c-0.1-0.8,0.2-1.7,0.7-2.2
		l5.4-5.3c0.1-0.1,0.1-0.1,0.2-0.1l8.9-1.7c0.1,0,0.3,0,0.4,0.1l10.5,10.7c0.1,0.1,0.2,0.3,0.1,0.4l-1.9,8.8c0,0.1-0.1,0.2-0.1,0.2
		l-5.4,5.3c-0.6,0.6-1.4,0.8-2.3,0.7C291.3,51.5,290.5,51.1,289.8,50.4L289.8,50.4z M277.3,36.3l13.2,13.4c0.5,0.5,1.2,0.8,1.8,0.9
		c0.6,0.1,1.1-0.1,1.5-0.5l5.3-5.2l1.8-8.5L290.7,26l-8.5,1.6l-5.3,5.2c-0.4,0.4-0.5,0.9-0.5,1.5C276.5,35.1,276.8,35.8,277.3,36.3z
		"/>
	<path class="st0" d="M277,36.6L290.2,50c1.2,1.2,3,1.5,4,0.5l2.7-2.6L282,27.4l-5.4,5.3C275.6,33.6,275.8,35.4,277,36.6"/>
	<path class="st0" d="M289.8,50.4L289.8,50.4L289.8,50.4z M289.8,50.4L276.6,37c-0.7-0.7-1.1-1.6-1.2-2.4c-0.1-0.9,0.2-1.7,0.8-2.3
		l5.4-5.3l0.1-0.1c0.2-0.1,0.5-0.1,0.6,0.1l14.8,20.5c0.1,0.2,0.1,0.4-0.1,0.6l-2.7,2.6c-0.6,0.6-1.4,0.8-2.3,0.7
		C291.3,51.5,290.5,51.1,289.8,50.4L289.8,50.4z M277.3,36.3l13.1,13.4c0.5,0.5,1.2,0.8,1.8,0.9c0.6,0.1,1.1-0.1,1.5-0.5l2.4-2.4
		l-14.3-19.8l-5,4.9c-0.4,0.4-0.5,0.9-0.5,1.5C276.5,35.1,276.8,35.7,277.3,36.3L277.3,36.3z"/>
</g>
<g>
	<path class="st0" d="M31,20.3c0.1,0.2,0,0.5-0.2,0.6s-0.5,0-0.6-0.2c0,0-1.8-3.7,2.7-3.7c3.1,0,1.9-2.4,1.9-2.4
		c-0.1-0.2,0-0.5,0.2-0.6s0.5,0,0.6,0.2c0,0,1.8,3.7-2.7,3.7C29.8,17.9,31,20.3,31,20.3"/>
	<path class="st1" d="M31.1,20.6c0,0.2-0.3,0.4-0.5,0.4s-0.4-0.3-0.4-0.5c0,0,0.7-4.1,4.4-1.4c2.5,1.8,2.9-0.8,2.9-0.8
		c0-0.2,0.3-0.4,0.5-0.4s0.4,0.3,0.4,0.5c0,0-0.7,4.1-4.4,1.4C31.5,18,31.1,20.6,31.1,20.6"/>
	<path class="st0" d="M18.1,30.6l12.5-10l7.2,2.3c1,0.3,1.3,1.6,0.5,2.3l-17.4,14c-0.8,0.6-2,0.1-2.1-0.9L18.1,30.6z"/>
	<path class="st0" d="M30.7,21l-12.1,9.7l0.7,7.3c0,0.2,0.1,0.3,0.2,0.4l0,0c0.1,0.1,0.2,0.2,0.3,0.3s0.3,0.1,0.4,0.1
		c0.1,0,0.3-0.1,0.4-0.2l17.4-14c0.1-0.1,0.2-0.2,0.3-0.4l0,0c0-0.1,0-0.3,0-0.4s-0.1-0.3-0.2-0.4c-0.1-0.1-0.2-0.2-0.4-0.3L30.7,21
		z M17.8,30.2l12.5-10c0.1-0.1,0.3-0.1,0.4-0.1l7.2,2.3c0.4,0.1,0.6,0.3,0.8,0.6c0.2,0.2,0.3,0.5,0.4,0.8c0.1,0.3,0,0.6-0.1,0.9l0,0
		c-0.1,0.3-0.3,0.6-0.6,0.8L21,39.5c-0.3,0.2-0.6,0.3-0.9,0.4c-0.3,0-0.6,0-0.9-0.1c-0.3-0.1-0.5-0.3-0.7-0.5l0,0
		c-0.2-0.3-0.3-0.6-0.4-0.9l-0.7-7.6C17.6,30.4,17.7,30.3,17.8,30.2z"/>
	<path class="st1" d="M18.1,30.6l12.5-10L29.9,13c-0.1-1-1.3-1.6-2.1-0.9l-17.4,14c-0.8,0.6-0.5,1.9,0.5,2.3L18.1,30.6z"/>
	<path class="st0" d="M30.9,20.9l-12.5,10C18.3,31,18.1,31,18,31l-7.3-2.3c-0.4-0.1-0.6-0.3-0.8-0.6c-0.2-0.2-0.3-0.5-0.4-0.8
		c-0.1-0.3,0-0.6,0-0.9c0.1-0.3,0.3-0.6,0.5-0.8l17.4-14c0.3-0.2,0.6-0.3,0.9-0.4c0.3,0,0.6,0,0.9,0.1c0.3,0.1,0.5,0.3,0.7,0.5
		c0.2,0.3,0.3,0.6,0.4,1l0.7,7.6C31.1,20.6,31,20.8,30.9,20.9 M18,30.1l12.1-9.7l-0.7-7.3c0-0.2-0.1-0.3-0.2-0.5
		c-0.1-0.1-0.2-0.2-0.3-0.3s-0.3-0.1-0.4-0.1c-0.2,0-0.3,0.1-0.4,0.2l-17.4,14c-0.1,0.1-0.2,0.2-0.2,0.4c0,0.1-0.1,0.3,0,0.4
		c0,0.1,0.1,0.3,0.2,0.4c0.1,0.1,0.2,0.2,0.4,0.3L18,30.1z"/>
	<path class="st1" d="M15.7,21.7l6.8-5.4l-0.7-7.5c-0.1-1-1.3-1.6-2.1-0.9L8,17.1c-0.8,0.6-0.5,1.9,0.5,2.3L15.7,21.7z"/>
	<path class="st0" d="M22.8,16.6L16,22c-0.1,0.1-0.3,0.1-0.4,0.1l-7.2-2.4c-0.4-0.1-0.6-0.3-0.8-0.6c-0.2-0.2-0.3-0.5-0.4-0.8l0,0
		c-0.1-0.3,0-0.6,0.1-0.9s0.3-0.6,0.5-0.8l11.6-9.3C19.7,7.1,20,7,20.3,6.9c0.3,0,0.6,0,0.9,0.1c0.3,0.1,0.5,0.3,0.7,0.5
		c0.2,0.3,0.4,0.6,0.4,1L23,16C23,16.4,22.9,16.5,22.8,16.6 M15.6,21.2l6.4-5.1l-0.7-7.3c0-0.2-0.1-0.3-0.2-0.5
		C21,8.2,20.9,8.1,20.8,8c-0.2,0-0.3,0-0.5,0c-0.1,0-0.3,0.1-0.4,0.2L8.3,17.5c-0.1,0.1-0.2,0.2-0.2,0.4c0,0.1-0.1,0.3,0,0.4l0,0
		c0,0.1,0.1,0.3,0.2,0.4c0.1,0.1,0.2,0.2,0.4,0.3L15.6,21.2z"/>
	<path class="st0" d="M48.1,40.2L48.1,40.2L48.1,40.2z M48,40.2L33.5,51.9c-0.8,0.6-1.6,0.9-2.5,0.9c-0.8,0-1.6-0.3-2.2-0.9L24.1,46
		C24,45.9,24,45.8,24,45.8l-0.8-8.9c0-0.1,0-0.3,0.2-0.4L35,27.2c0.1-0.1,0.3-0.1,0.4-0.1l8.6,2.7c0.1,0,0.2,0.1,0.2,0.2l4.7,5.8
		c0.5,0.7,0.7,1.5,0.5,2.3C49.3,38.8,48.8,39.6,48,40.2L48,40.2z M32.9,51.2l14.6-11.7c0.6-0.5,1-1.1,1.1-1.7c0.1-0.6,0-1.1-0.3-1.6
		l-4.6-5.7l-8.2-2.6l-11.3,9l0.8,8.6l4.6,5.7c0.3,0.4,0.9,0.6,1.4,0.6C31.7,51.9,32.3,51.6,32.9,51.2z"/>
	<path class="st0" d="M33.2,51.5l14.6-11.7c1.3-1.1,1.7-2.8,0.9-3.9L46.4,33L24.6,45.7l4.7,5.8C30.1,52.6,31.9,52.6,33.2,51.5"/>
	<path class="st0" d="M48.1,40.2L48.1,40.2L48.1,40.2z M48,40.2L33.5,51.9c-0.8,0.6-1.6,0.9-2.5,0.9s-1.7-0.3-2.2-1L24.1,46v-0.1
		c-0.1-0.2-0.1-0.5,0.2-0.6l21.8-12.7c0.2-0.1,0.4-0.1,0.6,0.1l2.3,2.9c0.5,0.7,0.7,1.5,0.5,2.3C49.3,38.8,48.8,39.6,48,40.2
		L48,40.2z M33,51.2l14.5-11.7c0.6-0.5,1-1.1,1.1-1.7c0.1-0.6,0-1.1-0.3-1.6l-2.1-2.6l-21,12.2l4.3,5.4c0.3,0.4,0.9,0.6,1.5,0.6
		C31.7,51.9,32.3,51.7,33,51.2L33,51.2z"/>
</g>
<path class="st0" d="M125,46.3c-0.1,0.4,0,0.8,0.2,1.2s0.6,0.7,1,0.8s0.8,0.1,1.1-0.1l33.5-20.5c0.2-0.1,0.5-0.1,0.8,0.1
	c1,0.8,2.3,1.3,3.6,1.4s2.5-0.2,3.7-0.9l9.5-5.8c0.2-0.1,0.3-0.3,0.3-0.4c0-0.2,0-0.4-0.1-0.5c-0.1-0.2-0.3-0.3-0.4-0.3
	c-0.2,0-0.4,0-0.5,0.1l-9.5,5.8c-0.5,0.3-1.1,0.4-1.6,0.2c-0.5-0.1-1-0.4-1.3-0.9s-0.4-1.1-0.2-1.6c0.1-0.5,0.4-1,0.9-1.3l9.5-5.8
	c0.2-0.1,0.3-0.3,0.3-0.4c0-0.2,0-0.4-0.1-0.5c-0.1-0.2-0.3-0.3-0.4-0.3c-0.2,0-0.4,0-0.5,0.1l-9.5,5.8c-0.5,0.3-1.1,0.4-1.6,0.2
	c-0.5-0.1-1-0.4-1.3-0.9s-0.4-1.1-0.2-1.6c0.1-0.5,0.4-1,0.9-1.3l9.5-5.8c0.2-0.1,0.3-0.3,0.3-0.4c0-0.2,0-0.4-0.1-0.5
	c-0.1-0.2-0.3-0.3-0.4-0.3c-0.2,0-0.4,0-0.5,0.1l-9.5,5.8c-1.2,0.7-2,1.7-2.5,2.9c-0.5,1.2-0.7,2.5-0.4,3.8c0.1,0.3,0,0.6-0.3,0.8
	l-33.5,20.5C125.3,45.6,125.1,46,125,46.3 M124.1,48.3c-0.4-0.7-0.6-1.5-0.4-2.2c0.1-0.7,0.6-1.4,1.2-1.8L158,24
	c-0.2-1.4,0-2.9,0.5-4.1c0.6-1.4,1.6-2.6,3-3.5l9.5-5.8c0.5-0.3,1.1-0.4,1.6-0.2c0.5,0.1,1,0.4,1.3,0.9s0.4,1.1,0.2,1.6
	c-0.1,0.5-0.4,1-0.9,1.3l-9.5,5.8c-0.2,0.1-0.3,0.3-0.3,0.4c0,0.2,0,0.4,0.1,0.5c0.1,0.2,0.3,0.3,0.4,0.3c0.2,0,0.4,0,0.5-0.1
	l9.5-5.8c0.5-0.3,1.1-0.4,1.6-0.2c0.5,0.1,1,0.4,1.3,0.9s0.4,1.1,0.2,1.6c-0.1,0.5-0.4,1-0.9,1.3l-9.5,5.8c-0.2,0.1-0.3,0.3-0.3,0.4
	c0,0.2,0,0.4,0.1,0.5c0.1,0.2,0.3,0.3,0.4,0.3c0.2,0,0.4,0,0.5-0.1l9.5-5.8c0.5-0.3,1.1-0.4,1.6-0.2c0.5,0.1,1,0.4,1.3,0.9
	s0.4,1.1,0.2,1.6c-0.1,0.5-0.4,1-0.9,1.3l-9.5,5.8c-1.4,0.9-3,1.2-4.5,1.1c-1.4-0.1-2.8-0.6-3.9-1.4L128,49.3
	c-0.7,0.4-1.4,0.5-2.2,0.3C125.2,49.5,124.5,49,124.1,48.3z"/>
<path class="st0" d="M180.6,46.4l-0.3,0.5l-3.9-2.2c-0.2-0.1-0.3-0.3-0.3-0.5s0.1-0.4,0.3-0.5l3.9-2.3l3.9-2.3
	c0.2-0.1,0.4-0.1,0.5,0c0.2,0.1,0.3,0.3,0.3,0.5l0.1,4.5l0.1,4.5c0,0.2-0.1,0.4-0.3,0.5s-0.4,0.1-0.5,0l-3.9-2.2L180.6,46.4l0.3-0.5
	l3.1,1.7V44v-3.6l-3.1,1.8l-3.1,1.8l3.1,1.7L180.6,46.4z"/>
<path class="st1" d="M133.3,19.7c0.1-1.4-0.5-2.8-1.3-3.7c-0.9-1-2.2-1.6-3.6-1.7c-1.4-0.1-2.8,0.5-3.7,1.3c-1,0.9-1.6,2.2-1.7,3.6
	c0,0.5-0.5,0.9-1,0.9s-0.9-0.5-0.9-1c0.2-3.9,3.5-7,7.5-6.8c3.9,0.2,7,3.5,6.8,7.5c0,0.5-0.5,0.9-1,0.9
	C133.7,20.7,133.3,20.2,133.3,19.7z"/>
<path class="st1" d="M359.2,49.4c0.6-0.7,0.9-1.6,0.9-2.4c0-0.9-0.4-1.7-1.1-2.3s-1.6-0.9-2.4-0.9c-0.9,0-1.7,0.4-2.3,1.1
	c-0.2,0.3-0.6,0.3-0.9,0c-0.3-0.2-0.3-0.6,0-0.9c1.7-1.9,4.7-2,6.6-0.3s2,4.7,0.3,6.6c-0.2,0.3-0.6,0.3-0.9,0
	C359,50,359,49.6,359.2,49.4z"/>
<g>
	<g>
		<path class="st2" d="M422.2,44.4c0.1,0,0.2,0,0.3,0.1c0.1,0,0.2,0.1,0.2,0.2c0.2,0.2,0.3,0.4,0.5,0.8c0.3,0.5,0.6,1.1,1,1.6
			c0.2,0.3,0.5,0.5,0.9,0.7s0.8,0.3,1.3,0.3c0.4,0,0.7-0.3,0.7-0.7s-0.3-0.7-0.7-0.7c-0.2,0-0.4,0-0.6-0.1c-0.1-0.1-0.3-0.1-0.4-0.2
			c-0.2-0.2-0.4-0.4-0.6-0.7c-0.3-0.5-0.5-1-0.9-1.6c-0.2-0.3-0.4-0.5-0.8-0.7c-0.3-0.2-0.7-0.3-1.1-0.3s-0.7,0.3-0.7,0.7
			C421.5,44,421.8,44.4,422.2,44.4"/>
		<path class="st2" d="M413.5,44.4c0.1,0,0.2,0,0.3,0.1c0.1,0,0.2,0.1,0.2,0.2c0.2,0.2,0.3,0.4,0.5,0.8c0.3,0.5,0.6,1.1,1,1.6
			c0.2,0.3,0.5,0.5,0.9,0.7s0.8,0.3,1.3,0.3c0.4,0,0.7-0.3,0.7-0.7s-0.3-0.7-0.7-0.7c-0.2,0-0.4,0-0.6-0.1c-0.1-0.1-0.3-0.1-0.4-0.2
			c-0.2-0.2-0.4-0.4-0.6-0.7c-0.3-0.5-0.5-1-0.9-1.6c-0.2-0.3-0.4-0.5-0.8-0.7c-0.3-0.2-0.7-0.3-1.1-0.3s-0.7,0.3-0.7,0.7
			C412.8,44,413.1,44.4,413.5,44.4"/>
		<path class="st2" d="M422.2,42.9c-0.4,0-0.7,0.1-1,0.2c-0.3,0.1-0.5,0.3-0.7,0.5c-0.3,0.3-0.5,0.7-0.7,1.1c-0.3,0.5-0.6,1-0.8,1.4
			c-0.1,0.2-0.3,0.3-0.5,0.4c-0.2,0.1-0.4,0.1-0.6,0.1c-0.4,0-0.7,0.3-0.7,0.7s0.3,0.7,0.7,0.7c0.4,0,0.8-0.1,1.1-0.2
			c0.3-0.1,0.6-0.3,0.8-0.5c0.4-0.3,0.7-0.7,0.9-1.1c0.3-0.6,0.6-1.1,0.8-1.4c0.1-0.2,0.2-0.3,0.3-0.3c0.1-0.1,0.2-0.1,0.4-0.1
			c0.4,0,0.7-0.3,0.7-0.7C423,43.2,422.6,42.9,422.2,42.9"/>
		<path class="st2" d="M413.5,42.9c-0.4,0-0.7,0.1-1,0.2c-0.3,0.1-0.5,0.3-0.7,0.5c-0.3,0.3-0.5,0.7-0.7,1.1c-0.3,0.5-0.6,1-0.8,1.4
			c-0.1,0.2-0.3,0.3-0.5,0.4c-0.2,0.1-0.4,0.1-0.6,0.1c-0.4,0-0.7,0.3-0.7,0.7s0.3,0.7,0.7,0.7c0.4,0,0.8-0.1,1.1-0.2
			c0.3-0.1,0.6-0.3,0.8-0.5c0.4-0.3,0.7-0.7,0.9-1.1c0.3-0.6,0.6-1.1,0.8-1.4c0.1-0.2,0.2-0.3,0.3-0.3c0.1-0.1,0.2-0.1,0.4-0.1
			c0.4,0,0.7-0.3,0.7-0.7C414.3,43.2,413.9,42.9,413.5,42.9"/>
	</g>
</g>
<g>
	<path class="st0" d="M262.2,18.8c0.1,0,0.2,0,0.3,0.1c0.1,0,0.2,0.1,0.2,0.2c0.2,0.2,0.3,0.4,0.5,0.8c0.3,0.5,0.6,1.1,1,1.6
		c0.2,0.3,0.5,0.5,0.9,0.7s0.8,0.3,1.3,0.3c0.4,0,0.7-0.3,0.7-0.7c0-0.4-0.3-0.7-0.7-0.7c-0.2,0-0.4,0-0.6-0.1
		c-0.1-0.1-0.3-0.1-0.4-0.2c-0.2-0.2-0.4-0.4-0.6-0.7c-0.3-0.5-0.5-1-0.9-1.6c-0.2-0.3-0.4-0.5-0.8-0.7c-0.3-0.2-0.7-0.3-1.1-0.3
		s-0.7,0.3-0.7,0.7C261.5,18.5,261.8,18.8,262.2,18.8"/>
	<path class="st0" d="M253.5,18.8c0.1,0,0.2,0,0.3,0.1c0.1,0,0.2,0.1,0.2,0.2c0.2,0.2,0.3,0.4,0.5,0.8c0.3,0.5,0.6,1.1,1,1.6
		c0.2,0.3,0.5,0.5,0.9,0.7s0.8,0.3,1.3,0.3c0.4,0,0.7-0.3,0.7-0.7c0-0.4-0.3-0.7-0.7-0.7c-0.2,0-0.4,0-0.6-0.1
		c-0.1-0.1-0.3-0.1-0.4-0.2c-0.2-0.2-0.4-0.4-0.6-0.7c-0.3-0.5-0.5-1-0.9-1.6c-0.2-0.3-0.4-0.5-0.8-0.7c-0.3-0.2-0.7-0.3-1.1-0.3
		s-0.7,0.3-0.7,0.7C252.8,18.5,253.1,18.8,253.5,18.8"/>
	<path class="st0" d="M262.2,17.3c-0.4,0-0.7,0.1-1,0.2s-0.5,0.3-0.7,0.5c-0.3,0.3-0.5,0.7-0.7,1.1c-0.3,0.5-0.6,1-0.8,1.4
		c-0.1,0.2-0.3,0.3-0.5,0.4s-0.4,0.1-0.6,0.1c-0.4,0-0.7,0.3-0.7,0.7c0,0.4,0.3,0.7,0.7,0.7c0.4,0,0.8-0.1,1.1-0.2
		c0.3-0.1,0.6-0.3,0.8-0.5c0.4-0.3,0.7-0.7,0.9-1.1c0.3-0.6,0.6-1.1,0.8-1.4c0.1-0.2,0.2-0.3,0.3-0.3c0.1-0.1,0.2-0.1,0.4-0.1
		c0.4,0,0.7-0.3,0.7-0.7C263,17.6,262.6,17.3,262.2,17.3"/>
	<path class="st0" d="M253.5,17.3c-0.4,0-0.7,0.1-1,0.2s-0.5,0.3-0.7,0.5c-0.3,0.3-0.5,0.7-0.7,1.1c-0.3,0.5-0.6,1-0.8,1.4
		c-0.1,0.2-0.3,0.3-0.5,0.4s-0.4,0.1-0.6,0.1c-0.4,0-0.7,0.3-0.7,0.7c0,0.4,0.3,0.7,0.7,0.7c0.4,0,0.8-0.1,1.1-0.2
		c0.3-0.1,0.6-0.3,0.8-0.5c0.4-0.3,0.7-0.7,0.9-1.1c0.3-0.6,0.6-1.1,0.8-1.4c0.1-0.2,0.2-0.3,0.3-0.3c0.1-0.1,0.2-0.1,0.4-0.1
		c0.4,0,0.7-0.3,0.7-0.7C254.3,17.6,253.9,17.3,253.5,17.3"/>
</g>
<path class="st0" d="M63.9,47.8h0.4v-5h4.6v4.6h-5V47.8h0.4H63.9v0.4h5.4c0.1,0,0.2,0,0.3-0.1s0.1-0.2,0.1-0.3v-5.4
	c0-0.1,0-0.2-0.1-0.3S69.4,42,69.3,42h-5.4c-0.1,0-0.2,0-0.3,0.1s-0.1,0.2-0.1,0.3v5.4c0,0.1,0,0.2,0.1,0.3s0.2,0.1,0.3,0.1V47.8z"
	/>
<path class="st1" d="M332,38l-0.6,0.4c0.1,0.2,0.2,0.4,0.2,0.6c0,0.2,0,0.4-0.1,0.5c-0.1,0.2-0.2,0.3-0.4,0.4l0,0
	c-0.2,0.1-0.4,0.2-0.6,0.2s-0.4,0-0.5-0.1c-0.2-0.1-0.3-0.2-0.4-0.4l0,0c-0.1-0.2-0.2-0.4-0.2-0.6c0-0.2,0-0.4,0.1-0.5
	c0.1-0.2,0.2-0.3,0.4-0.4l0,0c0.2-0.1,0.4-0.2,0.6-0.2s0.4,0,0.5,0.1c0.2,0.1,0.3,0.2,0.4,0.4l0,0L332,38l0.6-0.4
	c-0.2-0.4-0.6-0.7-1-0.9s-0.8-0.3-1.3-0.3s-1,0.1-1.4,0.4l0,0c-0.4,0.2-0.7,0.6-0.9,1c-0.2,0.4-0.3,0.8-0.3,1.3s0.1,1,0.4,1.4l0,0
	c0.2,0.4,0.6,0.7,1,0.9s0.8,0.3,1.3,0.3s1-0.1,1.4-0.4l0,0c0.4-0.2,0.7-0.6,0.9-1c0.2-0.4,0.3-0.8,0.3-1.3s-0.1-1-0.4-1.4l0,0
	L332,38z"/>
<g>
	<path class="st3" d="M263.5,47.6c0.7-1.6,0-3.3-1.4-3.9l-40-16.7l-2.4,5.7l40,16.7C261.2,49.9,262.9,49.1,263.5,47.6"/>
	<path class="st0" d="M264.2,45c0.3,0.8,0.3,1.8-0.1,2.8c-0.4,0.9-1.1,1.6-1.9,2s-1.8,0.5-2.7,0.1l-40-16.7
		c-0.3-0.1-0.5-0.5-0.3-0.8l2.4-5.7c0.1-0.3,0.5-0.5,0.8-0.3l40,16.7C263.3,43.4,263.9,44.2,264.2,45 M262.9,47.3
		c0.3-0.6,0.3-1.3,0.1-1.9c-0.2-0.5-0.6-1-1.1-1.2l-39.4-16.4l-1.9,4.5L260,48.7c0.5,0.2,1.1,0.2,1.6-0.1
		C262.2,48.4,262.7,47.9,262.9,47.3z"/>
	<path class="st0" d="M222.2,28.7l-1.2,2.8c-0.1,0.3-0.5,0.5-0.8,0.3l-2.8-1.2c-0.3-0.1-0.5-0.5-0.3-0.8l1.2-2.8
		c0.1-0.3,0.5-0.5,0.8-0.3l2.8,1.2C222.1,28,222.3,28.3,222.2,28.7 M220.1,30.4l0.7-1.7l-1.7-0.7l-0.7,1.7L220.1,30.4z"/>
	<path class="st1" d="M218.2,28.6c2-4.7-7.4-13.1-11.6-14.8c-4.2-1.7-9.1,0.7-11.1,5.4s-0.2,9.9,4,11.7
		C203.7,32.6,216.2,33.3,218.2,28.6"/>
	<path class="st0" d="M216.3,21.1c2.1,2.7,3.4,5.5,2.4,7.8c-0.9,2.2-3.8,3.4-7.2,3.8c-4.4,0.5-9.8-0.2-12.3-1.2
		c-2.3-0.9-3.9-2.8-4.7-5.1s-0.7-4.9,0.3-7.4s2.9-4.4,5-5.4c2.2-1,4.6-1.2,6.9-0.3C209.3,14.3,213.6,17.6,216.3,21.1 M217.6,28.4
		c0.7-1.7-0.4-4.2-2.2-6.5c-2.6-3.4-6.6-6.5-9-7.5c-1.9-0.8-4-0.6-5.9,0.2c-1.9,0.9-3.5,2.6-4.4,4.8s-1,4.5-0.3,6.5
		c0.7,1.9,2,3.5,4,4.3c2.3,1,7.4,1.6,11.6,1.1C214.3,31,216.8,30.1,217.6,28.4z"/>
	<path class="st0" d="M259.3,45.8c0.3-0.8,1.2-1.2,2-0.8c0.8,0.3,1.2,1.2,0.8,2c-0.3,0.8-1.2,1.2-2,0.8S258.9,46.6,259.3,45.8"/>
</g>
<g>
	<path class="st3" d="M337.3,17.5c0.7-1.8,2.8-2.7,4.6-1.9l22.8,9.2c-0.9,2.2-1.7,4.3-2.6,6.5l-22.8-9.2
		C337.5,21.3,336.6,19.3,337.3,17.5"/>
	<path class="st0" d="M339.5,16.2c-0.7,0.3-1.2,0.8-1.5,1.5l0,0c-0.3,0.7-0.3,1.5,0,2.2s0.8,1.2,1.5,1.5l22.1,8.9l2.1-5.3l-22.1-8.9
		C340.9,15.9,340.1,15.9,339.5,16.2 M336.7,17.2c0.4-1,1.2-1.8,2.2-2.2s2.1-0.5,3.2,0l22.8,9.2c0.3,0.1,0.5,0.5,0.4,0.9l-2.6,6.5
		c-0.1,0.3-0.5,0.5-0.9,0.4L339,22.8c-1.1-0.4-1.9-1.3-2.3-2.2C336.3,19.5,336.3,18.3,336.7,17.2L336.7,17.2z"/>
	<path class="st0" d="M342.2,19.5c0.4-0.9-0.1-1.9-1-2.3s-1.9,0.1-2.3,1s0.1,1.9,1,2.3C340.8,20.8,341.8,20.4,342.2,19.5"/>
	<path class="st1" d="M397.8,45.6c3.3-17.6-22-39.1-29.9-19.6l-2.6,6.5L397.8,45.6z"/>
	<path class="st0" d="M390,23.6c5.8,5.6,9.9,14.2,8.4,22.1c0,0.1,0,0.1,0,0.2c-0.1,0.3-0.5,0.5-0.9,0.4L365,33.1
		c-0.3-0.1-0.5-0.5-0.4-0.9l2.6-6.5c2-4.9,5-7.3,8.4-8c2.3-0.4,4.9,0,7.3,1C385.5,19.9,387.9,21.5,390,23.6 M397.2,44.7
		c1-7.2-2.9-15-8.2-20.1c-2-2-4.3-3.5-6.6-4.5c-2.2-1-4.5-1.3-6.6-0.9c-3,0.6-5.7,2.8-7.5,7.2l-2.4,5.9L397.2,44.7z"/>
	<path class="st0" d="M361.4,31l2.6-6.5c0.1-0.3,0.5-0.5,0.9-0.4l3.3,1.3c0.3,0.1,0.5,0.5,0.4,0.9l-2.6,6.5
		c-0.1,0.3-0.5,0.5-0.9,0.4l-3.3-1.3C361.4,31.7,361.3,31.3,361.4,31 M365,25.6l-2.1,5.3l2,0.8l2.1-5.3L365,25.6z"/>
</g>
<g>
	<path class="st1" d="M451,48.6l27.2-14.2c1.4-0.7,1.9-2.6,1.2-4L467.8,8c-0.3-0.6-1-0.8-1.6-0.5s-0.8,1-0.5,1.6L477,30.8
		c0.4,0.7,0.1,1.7-0.6,2l-25.6,13.3c-0.7,0.4-1.6,0.1-2-0.7l-11.3-21.7c-0.3-0.6-1-0.8-1.6-0.5l-11.3,5.9c-0.6,0.3-0.8,1-0.5,1.6
		s1,0.8,1.6,0.5l10.3-5.3l11.1,21.3C447.8,48.8,449.6,49.4,451,48.6"/>
	<path class="st0" d="M478.3,34.9L451.2,49c-0.8,0.4-1.7,0.5-2.5,0.2s-1.6-0.9-2-1.7l-10.9-20.9l-9.9,5.1c-0.4,0.2-0.8,0.2-1.2,0.1
		c-0.4-0.1-0.7-0.4-1-0.8c-0.2-0.4-0.2-0.9-0.1-1.3s0.4-0.7,0.8-0.9l11.3-5.9c0.4-0.2,0.8-0.2,1.2-0.1c0.4,0.1,0.7,0.4,1,0.8
		l11.3,21.7c0.1,0.3,0.4,0.5,0.6,0.5c0.3,0.1,0.5,0.1,0.8-0.1l25.6-13.3c0.2-0.1,0.4-0.4,0.5-0.6c0.1-0.3,0.1-0.6-0.1-0.8L465.3,9.3
		c-0.2-0.4-0.2-0.9-0.1-1.3c0.1-0.4,0.4-0.7,0.8-0.9c0.4-0.2,0.8-0.2,1.2-0.1c0.4,0.1,0.7,0.4,1,0.8l11.6,22.4
		c0.4,0.9,0.5,1.8,0.3,2.6C479.7,33.7,479.2,34.5,478.3,34.9 M450.8,48.2L478,34c0.6-0.3,1-0.9,1.2-1.5c0.2-0.6,0.1-1.3-0.2-2
		L467.4,8.1c-0.1-0.2-0.3-0.3-0.4-0.4c-0.2-0.1-0.4-0.1-0.6,0S466.1,8,466,8.1c-0.1,0.2,0,0.4,0.1,0.6l11.3,21.7
		c0.3,0.5,0.3,1,0.2,1.5c-0.1,0.5-0.4,0.9-0.9,1.1l-25.6,13.3c-0.5,0.2-1,0.3-1.4,0.1c-0.5-0.2-0.9-0.5-1.1-1L437,24
		c-0.1-0.2-0.3-0.3-0.4-0.4c-0.2-0.1-0.4-0.1-0.6,0l-11.3,5.9c-0.2,0.1-0.3,0.3-0.4,0.4s0,0.4,0.1,0.6s0.3,0.3,0.4,0.4
		c0.2,0.1,0.4,0.1,0.6,0l10.6-5.5l11.3,21.7c0.3,0.6,0.9,1.1,1.5,1.3C449.5,48.6,450.2,48.6,450.8,48.2z"/>
	<path class="st0" d="M446.2,35.6l0.3-1.1l-1-0.4l-0.3,1.1L446.2,35.6z M445.2,32l-1-0.4l-0.3,1.1l1,0.4L445.2,32z M447,32.6l-1-0.4
		l-0.3,1.1l1,0.4L447,32.6z M448.6,34.3l0.3-1.1l-1-0.4l-0.3,1.1L448.6,34.3z M448.1,36.2l0.3-1.1l-1-0.4l-0.3,1.1L448.1,36.2z
		 M447.5,38.1l0.3-1.1l-1-0.4l-0.3,1.1L447.5,38.1z M443.9,29.4l-1-0.4l-0.3,1.1l1,0.4L443.9,29.4z M445.7,30.1l-1-0.4l-0.3,1.1
		l1,0.4L445.7,30.1z M447.6,30.7l-1-0.4l-0.3,1.1l1,0.4L447.6,30.7z M449.4,31.4l-1-0.4l-0.3,1.1l1,0.4L449.4,31.4z M451,33.1
		l0.3-1.1l-1-0.4l-0.3,1.1L451,33.1z M450.5,35l0.3-1.1l-1-0.4l-0.3,1.1L450.5,35z M449.9,36.8l0.3-1.1l-1-0.4l-0.3,1.1L449.9,36.8z
		 M449.4,38.7l0.3-1.1l-1-0.4l-0.3,1.1L449.4,38.7z M448.8,40.6l0.3-1.1l-1-0.4l-0.3,1.1L448.8,40.6z M442.5,26.9l-1-0.4l-0.3,1.1
		l1,0.4L442.5,26.9z M444.4,27.5l-1-0.4l-0.3,1.1l1,0.4L444.4,27.5z M446.3,28.2l-1-0.4l-0.3,1.1l1,0.4L446.3,28.2z M448.1,28.8
		l-1-0.4l-0.3,1.1l1,0.4L448.1,28.8z M450,29.5l-1-0.4l-0.3,1.1l1,0.4L450,29.5z M451.8,30.1l-1-0.4l-0.3,1.1l1,0.4L451.8,30.1z
		 M453.4,31.8l0.3-1.1l-1-0.4l-0.3,1.1L453.4,31.8z M452.8,33.7l0.3-1.1l-1-0.4l-0.3,1.1L452.8,33.7z M452.3,35.6l0.3-1.1l-1-0.4
		l-0.3,1.1L452.3,35.6z M451.8,37.5l0.3-1.1l-1-0.4l-0.3,1.1L451.8,37.5z M451.2,39.4l0.3-1.1l-1-0.4l-0.3,1.1L451.2,39.4z
		 M450.7,41.3l0.3-1.1l-1-0.4l-0.3,1.1L450.7,41.3z M450.2,43.2l0.3-1.1l-1-0.4l-0.3,1.1L450.2,43.2z M441.2,24.4l-1-0.4l-0.3,1.1
		l1,0.4L441.2,24.4z M443.1,25l-1-0.4l-0.3,1.1l1,0.4L443.1,25z M444.9,25.7l-1-0.4l-0.3,1.1l1,0.4L444.9,25.7z M446.8,26.3l-1-0.4
		l-0.3,1.1l1,0.4L446.8,26.3z M448.7,26.9l-1-0.4l-0.3,1.1l1,0.4L448.7,26.9z M450.5,27.6l-1-0.4l-0.3,1.1l1,0.4L450.5,27.6z
		 M452.4,28.2l-1-0.4l-0.3,1.1l1,0.4L452.4,28.2z M454.2,28.9l-1-0.4l-0.3,1.1l1,0.4L454.2,28.9z M455.8,30.6l0.3-1.1l-1-0.4
		l-0.3,1.1L455.8,30.6z M455.2,32.5l0.3-1.1l-1-0.4l-0.3,1.1L455.2,32.5z M454.7,34.3l0.3-1.1l-1-0.4l-0.3,1.1L454.7,34.3z
		 M454.2,36.2l0.3-1.1l-1-0.4l-0.3,1.1L454.2,36.2z M453.6,38.1l0.3-1.1l-1-0.4l-0.3,1.1L453.6,38.1z M453.1,40l0.3-1.1l-1-0.4
		l-0.3,1.1L453.1,40z M452.6,41.9l0.3-1.1l-1-0.4l-0.3,1.1L452.6,41.9z M452,43.8l0.3-1.1l-1-0.4l-0.3,1.1L452,43.8z M441.8,22.5
		l-1-0.4l-0.3,1.1l1,0.4L441.8,22.5z M443.6,23.1l-1-0.4l-0.3,1.1l1,0.4L443.6,23.1z M445.5,23.8l-1-0.4l-0.3,1.1l1,0.4L445.5,23.8z
		 M447.3,24.4l-1-0.4l-0.3,1.1l1,0.4L447.3,24.4z M449.2,25l-1-0.4l-0.3,1.1l1,0.4L449.2,25z M451,25.7l-1-0.4l-0.3,1.1l1,0.4
		L451,25.7z M452.9,26.3l-1-0.4l-0.3,1.1l1,0.4L452.9,26.3z M454.8,27l-1-0.4l-0.3,1.1l1,0.4L454.8,27z M456.6,27.6l-1-0.4l-0.3,1.1
		l1,0.4L456.6,27.6z M458.2,29.3l0.3-1.1l-1-0.4l-0.3,1.1L458.2,29.3z M457.6,31.2l0.3-1.1l-1-0.4l-0.3,1.1L457.6,31.2z M457.1,33.1
		l0.3-1.1l-1-0.4l-0.3,1.1L457.1,33.1z M456.6,35l0.3-1.1l-1-0.4l-0.3,1.1L456.6,35z M456,36.9l0.3-1.1l-1-0.4l-0.3,1.1L456,36.9z
		 M455.5,38.8l0.3-1.1l-1-0.4l-0.3,1.1L455.5,38.8z M454.9,40.7l0.3-1.1l-1-0.4l-0.3,1.1L454.9,40.7z M454.4,42.6l0.3-1.1l-1-0.4
		l-0.3,1.1L454.4,42.6z M444.2,21.2l-1-0.4l-0.3,1.1l1,0.4L444.2,21.2z M446,21.9l-1-0.4l-0.3,1.1l1,0.4L446,21.9z M447.9,22.5
		l-1-0.4l-0.3,1.1l1,0.4L447.9,22.5z M449.7,23.2l-1-0.4l-0.3,1.1l1,0.4L449.7,23.2z M451.6,23.8l-1-0.4l-0.3,1.1l1,0.4L451.6,23.8z
		 M453.4,24.4l-1-0.4l-0.3,1.1l1,0.4L453.4,24.4z M455.3,25.1l-1-0.4l-0.3,1.1l1,0.4L455.3,25.1z M457.2,25.7l-1-0.4l-0.3,1.1l1,0.4
		L457.2,25.7z M459,26.4l-1-0.4l-0.3,1.1l1,0.4L459,26.4z M460.6,28.1l0.3-1.1l-1-0.4l-0.3,1.1L460.6,28.1z M460,30l0.3-1.1l-1-0.4
		l-0.3,1.1L460,30z M459.5,31.9l0.3-1.1l-1-0.4l-0.3,1.1L459.5,31.9z M459,33.7l0.3-1.1l-1-0.4l-0.3,1.1L459,33.7z M458.4,35.6
		l0.3-1.1l-1-0.4l-0.3,1.1L458.4,35.6z M457.9,37.5l0.3-1.1l-1-0.4l-0.3,1.1L457.9,37.5z M457.3,39.4l0.3-1.1l-1-0.4l-0.3,1.1
		L457.3,39.4z M456.8,41.3l0.3-1.1l-1-0.4l-0.3,1.1L456.8,41.3z M446.6,20l-1-0.4l-0.3,1.1l1,0.4L446.6,20z M448.4,20.6l-1-0.4
		l-0.3,1.1l1,0.4L448.4,20.6z M450.3,21.3l-1-0.4L449,22l1,0.4L450.3,21.3z M452.1,21.9l-1-0.4l-0.3,1.1l1,0.4L452.1,21.9z
		 M454,22.6l-1-0.4l-0.3,1.1l1,0.4L454,22.6z M455.8,23.2l-1-0.4l-0.3,1.1l1,0.4L455.8,23.2z M457.7,23.8l-1-0.4l-0.3,1.1l1,0.4
		L457.7,23.8z M459.6,24.5l-1-0.4l-0.3,1.1l1,0.4L459.6,24.5z M461.4,25.1l-1-0.4l-0.3,1.1l1,0.4L461.4,25.1z M463,26.8l0.3-1.1
		l-1-0.4l-0.3,1.1L463,26.8z M462.4,28.7l0.3-1.1l-1-0.4l-0.3,1.1L462.4,28.7z M461.9,30.6l0.3-1.1l-1-0.4l-0.3,1.1L461.9,30.6z
		 M461.4,32.5l0.3-1.1l-1-0.4l-0.3,1.1L461.4,32.5z M460.8,34.4l0.3-1.1l-1-0.4l-0.3,1.1L460.8,34.4z M460.3,36.3l0.3-1.1l-1-0.4
		l-0.3,1.1L460.3,36.3z M459.7,38.2l0.3-1.1l-1-0.4l-0.3,1.1L459.7,38.2z M459.2,40.1l0.3-1.1l-1-0.4l-0.3,1.1L459.2,40.1z
		 M448.9,18.7l-1-0.4l-0.3,1.1l1,0.4L448.9,18.7z M450.8,19.4l-1-0.4l-0.3,1.1l1,0.4L450.8,19.4z M452.7,20l-1-0.4l-0.3,1.1l1,0.4
		L452.7,20z M454.5,20.7l-1-0.4l-0.3,1.1l1,0.4L454.5,20.7z M456.4,21.3l-1-0.4L455,22l1,0.4L456.4,21.3z M458.2,21.9l-1-0.4
		l-0.3,1.1l1,0.4L458.2,21.9z M460.1,22.6l-1-0.4l-0.3,1.1l1,0.4L460.1,22.6z M462,23.2l-1-0.4l-0.3,1.1l1,0.4L462,23.2z
		 M463.8,23.9l-1-0.4l-0.3,1.1l1,0.4L463.8,23.9z M465.4,25.6l0.3-1.1l-1-0.4l-0.3,1.1L465.4,25.6z M464.8,27.5l0.3-1.1l-1-0.4
		l-0.3,1.1L464.8,27.5z M464.3,29.4l0.3-1.1l-1-0.4l-0.3,1.1L464.3,29.4z M463.8,31.2l0.3-1.1l-1-0.4l-0.3,1.1L463.8,31.2z
		 M463.2,33.1l0.3-1.1l-1-0.4l-0.3,1.1L463.2,33.1z M462.7,35l0.3-1.1l-1-0.4l-0.3,1.1L462.7,35z M462.1,36.9l0.3-1.1l-1-0.4
		l-0.3,1.1L462.1,36.9z M461.6,38.8l0.3-1.1l-1-0.4l-0.3,1.1L461.6,38.8z M451.3,17.5l-1-0.4l-0.3,1.1l1,0.4L451.3,17.5z
		 M453.2,18.1l-1-0.4l-0.3,1.1l1,0.4L453.2,18.1z M455.1,18.8l-1-0.4l-0.3,1.1l1,0.4L455.1,18.8z M456.9,19.4l-1-0.4l-0.3,1.1l1,0.4
		L456.9,19.4z M458.8,20.1l-1-0.4l-0.3,1.1l1,0.4L458.8,20.1z M460.6,20.7l-1-0.4l-0.3,1.1l1,0.4L460.6,20.7z M462.5,21.3l-1-0.4
		l-0.3,1.1l1,0.4L462.5,21.3z M464.3,22l-1-0.4l-0.3,1.1l1,0.4L464.3,22z M466.2,22.6l-1-0.4l-0.3,1.1l1,0.4L466.2,22.6z
		 M467.8,24.3l0.3-1.1l-1-0.4l-0.3,1.1L467.8,24.3z M467.2,26.2l0.3-1.1l-1-0.4l-0.3,1.1L467.2,26.2z M466.7,28.1L467,27l-1-0.4
		l-0.3,1.1L466.7,28.1z M466.1,30l0.3-1.1l-1-0.4l-0.3,1.1L466.1,30z M465.6,31.9l0.3-1.1l-1-0.4l-0.3,1.1L465.6,31.9z M465.1,33.8
		l0.3-1.1l-1-0.4l-0.3,1.1L465.1,33.8z M464.5,35.7l0.3-1.1l-1-0.4l-0.3,1.1L464.5,35.7z M464,37.6l0.3-1.1l-1-0.4l-0.3,1.1
		L464,37.6z M453.7,16.2l-1-0.4l-0.3,1.1l1,0.4L453.7,16.2z M455.6,16.9l-1-0.4l-0.3,1.1l1,0.4L455.6,16.9z M457.5,17.5l-1-0.4
		l-0.3,1.1l1,0.4L457.5,17.5z M459.3,18.2l-1-0.4l-0.3,1.1l1,0.4L459.3,18.2z M461.2,18.8l-1-0.4l-0.3,1.1l1,0.4L461.2,18.8z
		 M463,19.5l-1-0.4l-0.3,1.1l1,0.4L463,19.5z M464.9,20.1l-1-0.4l-0.3,1.1l1,0.4L464.9,20.1z M466.7,20.7l-1-0.4l-0.3,1.1l1,0.4
		L466.7,20.7z M468.6,21.4l-1-0.4l-0.3,1.1l1,0.4L468.6,21.4z M470.2,23.1l0.3-1.1l-1-0.4l-0.3,1.1L470.2,23.1z M469.6,25l0.3-1.1
		l-1-0.4l-0.3,1.1L469.6,25z M469.1,26.9l0.3-1.1l-1-0.4l-0.3,1.1L469.1,26.9z M468.5,28.8l0.3-1.1l-1-0.4l-0.3,1.1L468.5,28.8z
		 M468,30.6l0.3-1.1l-1-0.4l-0.3,1.1L468,30.6z M467.5,32.5l0.3-1.1l-1-0.4l-0.3,1.1L467.5,32.5z M466.9,34.4l0.3-1.1l-1-0.4
		l-0.3,1.1L466.9,34.4z M466.4,36.3l0.3-1.1l-1-0.4l-0.3,1.1L466.4,36.3z M456.1,15l-1-0.4l-0.3,1.1l1,0.4L456.1,15z M458,15.6
		l-1-0.4l-0.3,1.1l1,0.4L458,15.6z M459.9,16.3l-1-0.4l-0.3,1.1l1,0.4L459.9,16.3z M461.7,16.9l-1-0.4l-0.3,1.1l1,0.4L461.7,16.9z
		 M463.6,17.6l-1-0.4l-0.3,1.1l1,0.4L463.6,17.6z M465.4,18.2l-1-0.4l-0.3,1.1l1,0.4L465.4,18.2z M467.3,18.8l-1-0.4l-0.3,1.1l1,0.4
		L467.3,18.8z M469.1,19.5l-1-0.4l-0.3,1.1l1,0.4L469.1,19.5z M471.5,25.6l0.3-1.1l-1-0.4l-0.3,1.1L471.5,25.6z M470.9,27.5l0.3-1.1
		l-1-0.4l-0.3,1.1L470.9,27.5z M470.4,29.4l0.3-1.1l-1-0.4l-0.3,1.1L470.4,29.4z M469.9,31.3l0.3-1.1l-1-0.4l-0.3,1.1L469.9,31.3z
		 M469.3,33.2l0.3-1.1l-1-0.4l-0.3,1.1L469.3,33.2z M468.8,35.1l0.3-1.1l-1-0.4l-0.3,1.1L468.8,35.1z M458.5,13.7l-1-0.4l-0.3,1.1
		l1,0.4L458.5,13.7z M460.4,14.4l-1-0.4l-0.3,1.1l1,0.4L460.4,14.4z M462.2,15l-1-0.4l-0.3,1.1l1,0.4L462.2,15z M464.1,15.7l-1-0.4
		l-0.3,1.1l1,0.4L464.1,15.7z M466,16.3l-1-0.4l-0.3,1.1l1,0.4L466,16.3z M467.8,17l-1-0.4l-0.3,1.1l1,0.4L467.8,17z M472.8,28.1
		l0.3-1.1l-1-0.4l-0.3,1.1L472.8,28.1z M472.3,30l0.3-1.1l-1-0.4l-0.3,1.1L472.3,30z M471.7,31.9l0.3-1.1l-1-0.4l-0.3,1.1
		L471.7,31.9z M471.2,33.8l0.3-1.1l-1-0.4l-0.3,1.1L471.2,33.8z M460.9,12.5l-1-0.4l-0.3,1.1l1,0.4L460.9,12.5z M462.8,13.1l-1-0.4
		l-0.3,1.1l1,0.4L462.8,13.1z M464.6,13.8l-1-0.4l-0.3,1.1l1,0.4L464.6,13.8z M466.5,14.4l-1-0.4l-0.3,1.1l1,0.4L466.5,14.4z
		 M474.1,30.7l0.3-1.1l-1-0.4l-0.3,1.1L474.1,30.7z M473.6,32.6l0.3-1.1l-1-0.4l-0.3,1.1L473.6,32.6z M463.3,11.2l-1-0.4l-0.3,1.1
		l1,0.4L463.3,11.2z M465.2,11.9l-1-0.4l-0.3,1.1l1,0.4L465.2,11.9z M461.6,10.2c0.1-0.2,0.3-0.4,0.5-0.3l1.4,0.5L464,9
		c0.1-0.2,0.3-0.4,0.5-0.3c0.2,0.1,0.4,0.3,0.3,0.6l-0.4,1.4l1.4,0.5c0.2,0.1,0.4,0.3,0.3,0.6l-0.4,1.5l1.4,0.5
		c0.2,0.1,0.4,0.3,0.3,0.6l-0.4,1.5l1.4,0.5c0.2,0.1,0.4,0.3,0.3,0.6l-0.4,1.5l1.4,0.5c0.2,0.1,0.4,0.3,0.3,0.6l-0.4,1.5l1.4,0.5
		c0.2,0.1,0.4,0.3,0.3,0.6l-0.4,1.5l1.4,0.5c0.2,0.1,0.4,0.3,0.3,0.6l-0.4,1.5l1.4,0.5c0.2,0.1,0.4,0.3,0.3,0.6l-0.4,1.5l1.4,0.5
		c0.2,0.1,0.4,0.3,0.3,0.6l-0.4,1.5l1.3,0.5c0.2,0.1,0.4,0.3,0.3,0.6c-0.1,0.2-0.3,0.4-0.5,0.3l-1.3-0.5l-0.4,1.5
		c-0.1,0.2-0.3,0.4-0.5,0.3l-1.4-0.5l-0.4,1.5c-0.1,0.2-0.3,0.4-0.5,0.3L470,35l-0.4,1.5c-0.1,0.2-0.3,0.4-0.5,0.3l-1.4-0.5
		l-0.4,1.5c-0.1,0.2-0.3,0.4-0.5,0.3l-1.4-0.5l-0.4,1.5c-0.1,0.2-0.3,0.4-0.5,0.3l-1.4-0.5l-0.4,1.5c-0.1,0.2-0.3,0.4-0.5,0.3
		l-1.4-0.5l-0.4,1.5c-0.1,0.2-0.3,0.4-0.5,0.3l-1.4-0.5l-0.4,1.5c-0.1,0.2-0.3,0.4-0.5,0.3l-1.4-0.5l-0.4,1.5
		c-0.1,0.2-0.3,0.4-0.5,0.3l-1.4-0.5l-0.4,1.5c-0.1,0.2-0.3,0.4-0.5,0.3l-1.4-0.5l-0.4,1.4c-0.1,0.2-0.3,0.4-0.5,0.3
		c-0.2-0.1-0.4-0.3-0.3-0.6l0.4-1.4l-1.4-0.5c-0.2-0.1-0.4-0.3-0.3-0.6l0.4-1.5l-1.4-0.5c-0.2-0.1-0.4-0.3-0.3-0.6l0.4-1.5l-1.4-0.5
		c-0.2-0.1-0.4-0.3-0.3-0.6l0.4-1.5l-1.4-0.5c-0.2-0.1-0.4-0.3-0.3-0.6l0.4-1.5l-1.4-0.5c-0.2-0.1-0.4-0.3-0.3-0.6l0.4-1.5l-1.4-0.5
		c-0.2-0.1-0.4-0.3-0.3-0.6l0.4-1.5l-1.4-0.5c-0.2-0.1-0.4-0.3-0.3-0.6l0.4-1.5l-1.4-0.5c-0.2-0.1-0.4-0.3-0.3-0.6l0.4-1.5l-1.3-0.5
		c-0.2-0.1-0.4-0.3-0.3-0.6c0.1-0.2,0.3-0.4,0.5-0.3l1.3,0.5l0.4-1.5c0.1-0.2,0.3-0.4,0.5-0.3l1.4,0.5l0.4-1.5
		c0.1-0.2,0.3-0.4,0.5-0.3l1.4,0.5l0.4-1.5c0.1-0.2,0.3-0.4,0.5-0.3l1.4,0.5l0.4-1.5c0.1-0.2,0.3-0.4,0.5-0.3l1.4,0.5l0.4-1.5
		c0.1-0.2,0.3-0.4,0.5-0.3l1.4,0.5l0.4-1.5c0.1-0.2,0.3-0.4,0.5-0.3l1.4,0.5l0.4-1.5c0.1-0.2,0.3-0.4,0.5-0.3l1.4,0.5l0.4-1.5
		c0.1-0.2,0.3-0.4,0.5-0.3L459,13l0.4-1.5c0.1-0.2,0.3-0.4,0.5-0.3l1.4,0.5L461.6,10.2z"/>
	<path class="st0" d="M425.6,30c-0.1-0.3-0.4-0.4-0.7-0.2c-0.3,0.1-0.4,0.4-0.2,0.7c0.1,0.3,0.4,0.4,0.7,0.2
		C425.6,30.6,425.7,30.2,425.6,30"/>
</g>
<path class="st0" d="M405.7,20.5h0.4v-5h4.6v4.6h-5V20.5h0.4H405.7v0.4h5.4c0.1,0,0.2,0,0.3-0.1c0.1-0.1,0.1-0.2,0.1-0.3v-5.4
	c0-0.1,0-0.2-0.1-0.3s-0.2-0.1-0.3-0.1h-5.4c-0.1,0-0.2,0-0.3,0.1c-0.1,0.1-0.1,0.2-0.1,0.3v5.4c0,0.1,0,0.2,0.1,0.3
	c0.1,0.1,0.2,0.1,0.3,0.1V20.5z"/>
<g>
	<path class="st1" d="M68.3,14.1l12.3,12.5c0.3,0.3,0.9,0.4,1.3,0l1.5-1.5l10.9,11.1l2.1-2.1L85.4,23L72.5,10
		c-0.3-0.3-0.9-0.4-1.3,0l-3,2.9C68,13.2,68,13.8,68.3,14.1"/>
	<g>
		<path class="st0" d="M64.5,20.4l-0.6-0.6c-0.1-0.1-0.2-0.3-0.2-0.5s0.1-0.4,0.2-0.5l3.8-3.7c0.1-0.1,0.3-0.2,0.5-0.2
			s0.4,0.1,0.5,0.2l0.6,0.6c0.1,0.1,0.2,0.3,0.2,0.5s-0.1,0.4-0.2,0.5l-3.8,3.7c-0.1,0.1-0.3,0.2-0.5,0.2
			C64.8,20.6,64.7,20.5,64.5,20.4 M64.6,19.2l0.4,0.5l3.6-3.6l-0.4-0.5L64.6,19.2z"/>
		<path class="st0" d="M66.6,22.5L66,21.9c-0.1-0.1-0.2-0.3-0.2-0.5s0.1-0.4,0.2-0.5l3.8-3.7c0.1-0.1,0.3-0.2,0.5-0.2
			s0.4,0.1,0.5,0.2l0.6,0.6c0.1,0.1,0.2,0.3,0.2,0.5s-0.1,0.4-0.2,0.5l-3.8,3.7c-0.1,0.1-0.3,0.2-0.5,0.2
			C66.9,22.7,66.7,22.6,66.6,22.5 M66.7,21.3l0.4,0.5l3.6-3.6l-0.4-0.5L66.7,21.3z"/>
		<path class="st0" d="M68.7,24.6L68.1,24c-0.1-0.1-0.2-0.3-0.2-0.5s0.1-0.4,0.2-0.5l3.8-3.7c0.1-0.1,0.3-0.2,0.5-0.2
			s0.4,0.1,0.5,0.2l0.6,0.6c0.1,0.1,0.2,0.3,0.2,0.5s-0.1,0.4-0.2,0.5l-3.8,3.7c-0.1,0.1-0.3,0.2-0.5,0.2
			C69,24.8,68.8,24.7,68.7,24.6 M68.7,23.4l0.4,0.5l3.6-3.6l-0.4-0.5L68.7,23.4z"/>
		<path class="st0" d="M70.8,26.7l-0.6-0.6C70.1,26,70,25.8,70,25.6s0.1-0.4,0.2-0.5l3.8-3.7c0.1-0.1,0.3-0.2,0.5-0.2
			s0.4,0.1,0.5,0.2l0.6,0.6c0.1,0.1,0.2,0.3,0.2,0.5s-0.1,0.4-0.2,0.5l-3.8,3.7c-0.1,0.1-0.3,0.2-0.5,0.2
			C71.1,26.9,70.9,26.8,70.8,26.7 M70.8,25.6l0.4,0.5l3.6-3.6L74.4,22L70.8,25.6z"/>
		<path class="st0" d="M72.8,28.8l-0.6-0.6c-0.1-0.1-0.2-0.3-0.2-0.5s0.1-0.4,0.2-0.5l3.8-3.7c0.1-0.1,0.3-0.2,0.5-0.2
			s0.4,0.1,0.5,0.2l0.6,0.6c0.1,0.1,0.2,0.3,0.2,0.5s-0.1,0.4-0.2,0.5l-3.8,3.7c-0.1,0.1-0.3,0.2-0.5,0.2C73.2,29,73,28.9,72.8,28.8
			 M72.9,27.7l0.4,0.5l3.6-3.6l-0.4-0.5L72.9,27.7z"/>
		<path class="st0" d="M74.9,30.9l-0.6-0.6c-0.1-0.1-0.2-0.3-0.2-0.5s0.1-0.4,0.2-0.5l3.8-3.7c0.1-0.1,0.3-0.2,0.5-0.2
			s0.4,0.1,0.5,0.2l0.6,0.6c0.1,0.1,0.2,0.3,0.2,0.5s-0.1,0.4-0.2,0.5l-3.8,3.7c-0.1,0.1-0.3,0.2-0.5,0.2S75,31.1,74.9,30.9
			 M75,29.8l0.4,0.5l3.6-3.6l-0.4-0.5L75,29.8z"/>
		<path class="st0" d="M80.3,26.9L68,14.4c-0.3-0.3-0.4-0.6-0.4-0.9c0-0.3,0.1-0.7,0.4-0.9l3-2.9c0.3-0.3,0.6-0.4,0.9-0.4
			c0.3,0,0.7,0.1,0.9,0.4L97,34.2l-2.7,2.7L83.4,25.8L82.2,27c-0.3,0.3-0.6,0.4-0.9,0.4C80.9,27.3,80.5,27.1,80.3,26.9 M68.6,13.8
			l12.3,12.5c0.1,0.1,0.2,0.1,0.3,0.1s0.2,0,0.3-0.1l1.8-1.8l10.9,11.1l1.5-1.5L72.2,10.2c-0.1-0.1-0.2-0.1-0.3-0.1s-0.2,0-0.3,0.1
			l-3,2.9c-0.1,0.1-0.1,0.2-0.1,0.3C68.5,13.6,68.5,13.7,68.6,13.8z"/>
		<polygon class="st2" points="97.8,33.9 99.1,34.8 108.9,44.7 112.9,48.9 113.4,50.3 113.1,51.6 112.3,52.8 110.2,53.5 108.1,52.5 
			94.2,38.2 94.2,37.6 94.2,37.1 		"/>
		<path class="st0" d="M108,52.8L94,38.7c-0.3-0.3-0.4-0.6-0.4-0.9c0-0.3,0.1-0.7,0.4-0.9l3-2.9c0.3-0.3,0.6-0.4,0.9-0.4
			c0.3,0,0.7,0.1,0.9,0.4l13.9,14.1c0.7,0.7,1,1.5,1,2.4s-0.3,1.7-1,2.4s-1.5,1-2.4,1C109.5,53.8,108.6,53.5,108,52.8 M94.6,38.1
			l13.9,14.1c0.5,0.5,1.1,0.8,1.8,0.8s1.3-0.2,1.8-0.7s0.8-1.1,0.8-1.8s-0.2-1.3-0.7-1.8L98.3,34.6c-0.1-0.1-0.2-0.1-0.3-0.1
			s-0.2,0-0.3,0.1l-3,2.9c-0.1,0.1-0.1,0.2-0.1,0.3C94.5,37.9,94.5,38,94.6,38.1z"/>
	</g>
</g>
</svg>
