<?xml version="1.0" encoding="UTF-8"?>
<!DOCTYPE svg PUBLIC "-//W3C//DTD SVG 1.1//EN" "http://www.w3.org/Graphics/SVG/1.1/DTD/svg11.dtd">
<!-- Creator: CorelDRAW X8 -->
<svg xmlns="http://www.w3.org/2000/svg" xml:space="preserve" width="0.117067in" height="0.117071in" version="1.1" style="shape-rendering:geometricPrecision; text-rendering:geometricPrecision; image-rendering:optimizeQuality; fill-rule:evenodd; clip-rule:evenodd"
viewBox="0 0 122 122"
 xmlns:xlink="http://www.w3.org/1999/xlink">
 <defs>
  <style type="text/css">
   <![CDATA[
    .fil0 {fill:#FDA4A6}
   ]]>
  </style>
 </defs>
 <g id="Layer_x0020_1">
  <metadata id="CorelCorpID_0Corel-Layer"/>
  <path class="fil0" d="M61 0c5,0 6,8 10,12 4,-3 9,-9 13,-7 5,2 3,9 5,14 5,0 11,-5 15,-1 4,3 -1,10 -1,15 5,2 12,0 14,5 2,4 -4,9 -7,13 4,3 12,5 12,10 0,5 -8,6 -12,10 3,4 9,9 7,13 -2,5 -9,3 -14,5 0,5 5,11 1,15 -4,4 -10,-1 -15,-1 -2,5 0,12 -5,14 -4,2 -9,-4 -13,-7 -4,4 -5,12 -10,12 -5,0 -7,-8 -10,-12 -4,3 -9,9 -13,7 -5,-2 -3,-9 -5,-14 -5,0 -12,5 -15,1 -4,-4 1,-10 1,-15 -5,-2 -12,0 -14,-5 -2,-4 4,-9 7,-13 -4,-4 -12,-5 -12,-10 0,-5 8,-7 12,-10 -3,-4 -9,-9 -7,-13 2,-5 9,-3 14,-5 0,-5 -5,-12 -1,-15 3,-4 10,1 15,1 2,-5 0,-12 5,-14 4,-2 9,4 13,7 3,-4 5,-12 10,-12z"/>
 </g>
</svg>
