<?xml version="1.0" encoding="UTF-8" standalone="no"?>
<svg
   xmlns:dc="http://purl.org/dc/elements/1.1/"
   xmlns:cc="http://creativecommons.org/ns#"
   xmlns:rdf="http://www.w3.org/1999/02/22-rdf-syntax-ns#"
   xmlns:svg="http://www.w3.org/2000/svg"
   xmlns="http://www.w3.org/2000/svg"
   viewBox="0 0 24 13.333333"
   height="13.333333"
   width="24"
   xml:space="preserve"
   id="svg2"
   version="1.1"><metadata
     id="metadata8"><rdf:RDF><cc:Work
         rdf:about=""><dc:format>image/svg+xml</dc:format><dc:type
           rdf:resource="http://purl.org/dc/dcmitype/StillImage" /></cc:Work></rdf:RDF></metadata><defs
     id="defs6" /><g
     transform="matrix(1.3333333,0,0,-1.3333333,0,13.333333)"
     id="g10"><g
       transform="scale(0.1)"
       id="g12"><path
         id="path14"
         style="fill:none;stroke:#4d4d4d;stroke-width:4.79909992;stroke-linecap:round;stroke-linejoin:round;stroke-miterlimit:2.61313009;stroke-dasharray:none;stroke-opacity:1"
         d="M 132.348,43.6797 V 21.8672 c 0,-1.3008 -1.071,-2.375 -2.375,-2.375 h -7.848 c 0,6.1055 -4.949,11.0547 -11.055,11.0547 -6.101,0 -11.05,-4.9492 -11.05,-11.0547 H 60.6836 v 69.293 c 0,1.3046 1.0664,2.3711 2.375,2.3711 h 66.9144 c 1.304,0 2.375,-1.0665 2.375,-2.3711 v -8.5743" /><path
         id="path16"
         style="fill:#fabe3c;fill-opacity:1;fill-rule:evenodd;stroke:none"
         d="M 60.6836,73.3477 H 48.3672 C 41.8398,73.3477 36.5,68.0078 36.5,61.4805 V 49.1641 h 24.1836 v 24.1836" /><path
         id="path18"
         style="fill:none;stroke:#4d4d4d;stroke-width:4.79909992;stroke-linecap:round;stroke-linejoin:round;stroke-miterlimit:2.61313009;stroke-dasharray:none;stroke-opacity:1"
         d="M 60.6836,73.3477 H 48.3672 C 41.8398,73.3477 36.5,68.0078 36.5,61.4805 V 49.1641 h 24.1836 z" /><path
         id="path20"
         style="fill:none;stroke:#4d4d4d;stroke-width:4.79909992;stroke-linecap:round;stroke-linejoin:round;stroke-miterlimit:2.61313009;stroke-dasharray:none;stroke-opacity:1"
         d="M 60.6836,49.1641 H 25.3672 c -8.1563,0 -14.832,-6.6719 -14.832,-14.8321 v 0 c 0,-8.164 6.6757,-14.8398 14.832,-14.8398 h 3.9961 c 0,6.1055 4.9492,11.0547 11.0508,11.0547 6.1054,0 11.0547,-4.9492 11.0547,-11.0547 h 9.2148 z" /><path
         id="path22"
         style="fill:#fabe3c;fill-opacity:1;fill-rule:evenodd;stroke:none"
         d="m 40.4141,30.5469 c 6.1054,0 11.0547,-4.9492 11.0547,-11.0547 0,-6.1016 -4.9493,-11.05079 -11.0547,-11.05079 -6.1016,0 -11.0508,4.94919 -11.0508,11.05079 0,6.1055 4.9492,11.0547 11.0508,11.0547" /><path
         id="path24"
         style="fill:none;stroke:#4d4d4d;stroke-width:4.79909992;stroke-linecap:round;stroke-linejoin:round;stroke-miterlimit:2.61313009;stroke-dasharray:none;stroke-opacity:1"
         d="m 40.4141,30.5469 c 6.1054,0 11.0547,-4.9492 11.0547,-11.0547 0,-6.1016 -4.9493,-11.05079 -11.0547,-11.05079 -6.1016,0 -11.0508,4.94919 -11.0508,11.05079 0,6.1055 4.9492,11.0547 11.0508,11.0547 z" /><path
         id="path26"
         style="fill:#fabe3c;fill-opacity:1;fill-rule:evenodd;stroke:none"
         d="m 111.07,30.5469 c 6.106,0 11.055,-4.9492 11.055,-11.0547 0,-6.1016 -4.949,-11.05079 -11.055,-11.05079 -6.101,0 -11.05,4.94919 -11.05,11.05079 0,6.1055 4.949,11.0547 11.05,11.0547" /><path
         id="path28"
         style="fill:none;stroke:#4d4d4d;stroke-width:4.79909992;stroke-linecap:round;stroke-linejoin:round;stroke-miterlimit:2.61313009;stroke-dasharray:none;stroke-opacity:1"
         d="m 111.07,30.5469 c 6.106,0 11.055,-4.9492 11.055,-11.0547 0,-6.1016 -4.949,-11.05079 -11.055,-11.05079 -6.101,0 -11.05,4.94919 -11.05,11.05079 0,6.1055 4.949,11.0547 11.05,11.0547 z" /><path
         id="path30"
         style="fill:none;stroke:#4d4d4d;stroke-width:4.79909992;stroke-linecap:round;stroke-linejoin:round;stroke-miterlimit:2.61313009;stroke-dasharray:none;stroke-opacity:1"
         d="m 111.277,44.2734 h 50.059" /><path
         id="path32"
         style="fill:none;stroke:#4d4d4d;stroke-width:4.79909992;stroke-linecap:round;stroke-linejoin:round;stroke-miterlimit:2.61313009;stroke-dasharray:none;stroke-opacity:1"
         d="M 149.121,66.3789 H 99.0664" /><path
         id="path34"
         style="fill:none;stroke:#4d4d4d;stroke-width:4.79909992;stroke-linecap:round;stroke-linejoin:round;stroke-miterlimit:2.61313009;stroke-dasharray:none;stroke-opacity:1"
         d="M 86.8555,44.2734 H 101.734" /><path
         id="path36"
         style="fill:none;stroke:#4d4d4d;stroke-width:4.79909992;stroke-linecap:round;stroke-linejoin:round;stroke-miterlimit:2.61313009;stroke-dasharray:none;stroke-opacity:1"
         d="M 173.547,66.3789 H 158.672" /></g></g></svg>