<?xml version="1.0" encoding="utf-8"?>
<!-- Generator: Adobe Illustrator 19.1.1, SVG Export Plug-In . SVG Version: 6.00 Build 0)  -->
<svg version="1.1" id="Layer_1" xmlns="http://www.w3.org/2000/svg" xmlns:xlink="http://www.w3.org/1999/xlink" x="0px" y="0px"
	 viewBox="-444 246 70 70" style="enable-background:new -444 246 70 70;" xml:space="preserve">
<style type="text/css">
	.st0{opacity:0.6;fill:#1E3264;}
	.st1{fill:#1E3264;}
	.st2{fill:#FABE3C;}
	.st3{opacity:0.6;fill:#FFFFFF;}
	.st4{fill:#FFFFFF;}
	.st5{fill:none;stroke:#1E3264;stroke-miterlimit:10;}
</style>
<polygon id="XMLID_39_" class="st0" points="-427.5,265.3 -422.3,265.3 -423.5,280.2 -426.2,279.3 "/>
<rect id="XMLID_38_" x="-434.5" y="286.6" class="st1" width="3.2" height="1.6"/>
<polygon id="XMLID_37_" class="st2" points="-431.5,286.6 -423.5,280.2 -427.3,265.3 -443.4,265.3 -442.3,280.2 -434.4,286.6 "/>
<path id="XMLID_36_" class="st1" d="M-431.3,287h-3.2l-8.1-6.6l-1.1-15.5h21.8l-1.3,15.5L-431.3,287z M-434.3,286.3h2.7l7.7-6.2
	l1.2-14.4H-443l1,14.4L-434.3,286.3z"/>
<g id="XMLID_27_">
	<circle id="XMLID_35_" class="st3" cx="-437.6" cy="270.8" r="0.8"/>
	<circle id="XMLID_34_" class="st4" cx="-434.5" cy="270.8" r="0.8"/>
	<circle id="XMLID_33_" class="st3" cx="-431.4" cy="270.8" r="0.8"/>
	<circle id="XMLID_32_" class="st4" cx="-428.3" cy="270.8" r="0.8"/>
	<circle id="XMLID_31_" class="st3" cx="-437.6" cy="276.9" r="0.8"/>
	<circle id="XMLID_30_" class="st4" cx="-434.5" cy="276.9" r="0.8"/>
	<circle id="XMLID_29_" class="st3" cx="-431.4" cy="276.9" r="0.8"/>
	<circle id="XMLID_28_" class="st4" cx="-428.3" cy="276.9" r="0.8"/>
</g>
<path id="XMLID_26_" class="st5" d="M-432.9,305.6L-432.9,305.6c1.1,0,1.9-0.9,1.9-1.9v-15.1h-3.9v15.1
	C-434.9,304.8-434,305.6-432.9,305.6z"/>
<circle id="XMLID_8_" class="st2" cx="-432.9" cy="300.4" r="0.7"/>
<circle id="XMLID_7_" class="st2" cx="-432.9" cy="303.3" r="0.7"/>
</svg>
