<?xml version="1.0" encoding="utf-8"?>
<!-- Generator: Adobe Illustrator 19.1.1, SVG Export Plug-In . SVG Version: 6.00 Build 0)  -->
<svg version="1.1" id="Layer_1" xmlns="http://www.w3.org/2000/svg" xmlns:xlink="http://www.w3.org/1999/xlink" x="0px" y="0px"
	 viewBox="-444 246 70 70" style="enable-background:new -444 246 70 70;" xml:space="preserve">
<style type="text/css">
	.st0{fill:none;stroke:#1E3264;stroke-miterlimit:10;}
	.st1{fill:#FABE3C;}
	.st2{fill:#1E3264;}
	.st3{opacity:0.6;fill:#233662;}
	.st4{opacity:0.6;fill:#1E3264;}
</style>
<path id="XMLID_25_" class="st0" d="M-389.3,305.6L-389.3,305.6c1.1,0,1.9-0.9,1.9-1.9v-15.1h-3.9v15.1
	C-391.3,304.8-390.4,305.6-389.3,305.6z"/>
<circle id="XMLID_10_" class="st1" cx="-389.3" cy="290.6" r="0.7"/>
<circle id="XMLID_9_" class="st1" cx="-389.3" cy="293.5" r="0.7"/>
<path id="XMLID_6_" class="st1" d="M-374.6,274.8c0,0.3,0,0.6,0,0.9c-0.5,7.2-6.9,12.8-14.7,12.8c-7.8,0-14.2-5.7-14.7-12.8
	c0-0.1,0-0.1,0-0.2c0-0.2,0-0.5,0-0.7H-374.6z"/>
<path id="XMLID_5_" class="st2" d="M-389.3,288.9c-7.9,0-14.5-6.2-15-14.1c0-0.1,0-0.2,0-0.2c0-0.2,0-0.5,0-0.8v-0.3h30.1v0.3
	c0,0.3,0,0.7,0,1C-374.8,282.7-381.4,288.9-389.3,288.9z M-403.7,274.2c0,0.1,0,0.3,0,0.4c0,0.1,0,0.1,0,0.2
	c0.5,7.5,6.8,13.4,14.3,13.4c7.6,0,13.9-5.9,14.3-13.4c0-0.2,0-0.4,0-0.6H-403.7z"/>
<path id="XMLID_4_" class="st3" d="M-374.6,274.8c0-0.3,0-0.6,0-1"/>
<polyline id="XMLID_3_" class="st4" points="-374.6,274.8 -404,274.8 -404,274.6 -404,274.3 -404,273.8 -374.6,273.8 "/>
</svg>
