<svg xmlns="http://www.w3.org/2000/svg" viewBox="0 0 439 439"><title>Asset 8</title><g id="Layer_2" data-name="Layer 2"><g id="Слой_1" data-name="Слой 1"><path d="M219.5,0C98.3,0,0,98.3,0,219.5S98.3,439,219.5,439,439,340.7,439,219.5,340.7,0,219.5,0ZM353.7,299.8H85v-8.2a10.5,10.5,0,0,1,10.5-10.5h6.3V149.7a10.5,10.5,0,0,1,10.5-10.5H326.7a10.5,10.5,0,0,1,10.5,10.5V281.1h6a10.5,10.5,0,0,1,10.5,10.5v8.2Z" fill="#fff"/><path d="M343.2,281.1h-6V149.7a10.5,10.5,0,0,0-10.5-10.5H112.3a10.5,10.5,0,0,0-10.5,10.5V281.1H95.5A10.5,10.5,0,0,0,85,291.6v8.2H353.7v-8.2A10.44,10.44,0,0,0,343.2,281.1ZM102.7,149.7a9.56,9.56,0,0,1,9.5-9.5H326.6a9.56,9.56,0,0,1,9.5,9.5V281.2H259.5a10.32,10.32,0,0,0-3,.4c-.5.1-1.1.3-1.8.5-7,1.9-23.5,6.1-35.3,6.1s-28.3-4.2-35.3-6.1c-.7-.2-1.3-.4-1.8-.5a10.32,10.32,0,0,0-3-.4H102.7V149.7Zm250,149.1H86v-7.2a9.56,9.56,0,0,1,9.5-9.5h6.3v.1h77.6a8.42,8.42,0,0,1,2.7.4c5.4,1.5,24.2,6.6,37.3,6.6s31.9-5.1,37.5-6.6a8.42,8.42,0,0,1,2.7-.4h77.6v-.1h6a9.56,9.56,0,0,1,9.5,9.5v7.2Z" fill="#4d4d4d"/><path d="M352.7,291.6v7.2H86v-7.2a9.56,9.56,0,0,1,9.5-9.5h6.3v.1h77.6a8.42,8.42,0,0,1,2.7.4c5.4,1.5,24.2,6.6,37.3,6.6s31.9-5.1,37.5-6.6a8.42,8.42,0,0,1,2.7-.4h77.6v-.1h6A9.5,9.5,0,0,1,352.7,291.6Z" fill="#00697a"/><path d="M326.6,140.2H112.2a9.56,9.56,0,0,0-9.5,9.5V281.2h76.6a10.32,10.32,0,0,1,3,.4c.5.1,1.1.3,1.8.5,7,1.9,23.5,6.1,35.3,6.1s28.3-4.2,35.3-6.1c.7-.2,1.3-.4,1.8-.5a10.32,10.32,0,0,1,3-.4h76.6V149.7A9.56,9.56,0,0,0,326.6,140.2Zm-107,8.7a4,4,0,1,1-4,4A3.89,3.89,0,0,1,219.6,148.9ZM204.1,274.6H113.7a1,1,0,1,1,0-2h90.4a.94.94,0,0,1,1,1A1,1,0,0,1,204.1,274.6Zm-82.8-10.1a2,2,0,0,1-2-2V164a2,2,0,0,1,2-2H317.5a2,2,0,0,1,2,2v98.5a2,2,0,0,1-2,2Zm203.9,10.1H234.8a1,1,0,0,1,0-2h90.4a1,1,0,0,1,0,2Z" fill="#00697a"/><path d="M219.6,156.9a4,4,0,1,0-4-4A4,4,0,0,0,219.6,156.9Z" fill="#fdd29d"/><path d="M205.1,273.6a1,1,0,0,1-1,1H113.7a1,1,0,1,1,0-2h90.4A1,1,0,0,1,205.1,273.6Z" fill="#fdd29d"/><path d="M326.2,273.6a.94.94,0,0,1-1,1H234.8a1,1,0,0,1,0-2h90.4A.94.94,0,0,1,326.2,273.6Z" fill="#fdd29d"/><path d="M317.6,162H121.4a2,2,0,0,0-2,2v98.5a2,2,0,0,0,2,2H317.6a2,2,0,0,0,2-2V164A2.07,2.07,0,0,0,317.6,162Zm1,100.5a.94.94,0,0,1-1,1H121.4a.94.94,0,0,1-1-1V164a.94.94,0,0,1,1-1H317.6a.94.94,0,0,1,1,1Z" fill="#4d4d4d"/><path d="M317.6,163H121.4a.94.94,0,0,0-1,1v98.5a.94.94,0,0,0,1,1H317.6a.94.94,0,0,0,1-1V164A1,1,0,0,0,317.6,163ZM201.7,241.9a34.53,34.53,0,0,1,21.9-61.2v-3.5l8.6,8.6-8.6,8.6v-3.6h-2.3A24.59,24.59,0,0,0,208,234.3Zm21.9,8v3.5l-8.6-8.6,8.6-8.6v3.6h2.3a24.59,24.59,0,0,0,13.3-43.5l6.3-7.6a34.53,34.53,0,0,1-21.9,61.2Z" fill="#fff5e0"/><path d="M258.1,215.4a34.5,34.5,0,0,1-34.5,34.5v3.5l-8.6-8.6,8.6-8.6v3.6h2.3a24.59,24.59,0,0,0,13.3-43.5l6.3-7.6A35,35,0,0,1,258.1,215.4Z" fill="#8b8b8b"/><path d="M223.6,194.4v-3.6h-2.3A24.59,24.59,0,0,0,208,234.3l-6.3,7.6a34.53,34.53,0,0,1,21.9-61.2v-3.5l8.6,8.6Z" fill="#8b8b8b"/></g></g></svg>