<?xml version="1.0" encoding="utf-8"?>
<!-- Generator: Adobe Illustrator 19.1.1, SVG Export Plug-In . SVG Version: 6.00 Build 0)  -->
<svg version="1.1" id="Layer_1" xmlns="http://www.w3.org/2000/svg" xmlns:xlink="http://www.w3.org/1999/xlink" x="0px" y="0px"
	 viewBox="-444 246 70 70" style="enable-background:new -444 246 70 70;" xml:space="preserve">
<style type="text/css">
	.st0{fill-rule:evenodd;clip-rule:evenodd;fill:#1E3264;}
	.st1{fill-rule:evenodd;clip-rule:evenodd;fill:#FABE3C;}
	.st2{fill:#FFFFFF;}
	.st3{opacity:0.6;fill:#1E3264;}
	.st4{fill-rule:evenodd;clip-rule:evenodd;fill:none;stroke:#FABE3C;stroke-miterlimit:10;}
</style>
<path id="XMLID_24_" class="st0" d="M-417.9,278.7h11.6v-20.3c0-1.6-1.3-2.8-2.8-2.8h-5.9c-1.6,0-2.8,1.3-2.8,2.8V278.7z"/>
<polyline id="XMLID_23_" class="st1" points="-406.3,278.7 -409.6,282.4 -414.7,282.4 -417.9,278.7 "/>
<g id="XMLID_19_">
	<circle id="XMLID_22_" class="st2" cx="-415" cy="264.2" r="0.7"/>
	<circle id="XMLID_21_" class="st2" cx="-412.1" cy="264.2" r="0.7"/>
	<circle id="XMLID_20_" class="st2" cx="-409.2" cy="264.2" r="0.7"/>
</g>
<g id="XMLID_15_">
	<circle id="XMLID_18_" class="st2" cx="-415" cy="267.1" r="0.7"/>
	<circle id="XMLID_17_" class="st2" cx="-412.1" cy="267.1" r="0.7"/>
	<circle id="XMLID_16_" class="st2" cx="-409.2" cy="267.1" r="0.7"/>
</g>
<g id="XMLID_11_">
	<circle id="XMLID_14_" class="st2" cx="-415" cy="270.1" r="0.7"/>
	<circle id="XMLID_13_" class="st2" cx="-412.1" cy="270.1" r="0.7"/>
	<circle id="XMLID_12_" class="st2" cx="-409.2" cy="270.1" r="0.7"/>
</g>
<polygon id="XMLID_2_" class="st3" points="-409.9,282.3 -414.4,303.3 -413.8,304.5 -412.8,305.1 -411.4,305.1 -410.3,304.3 
	-409.9,302.5 "/>
<path id="XMLID_1_" class="st4" d="M-412.1,305.3L-412.1,305.3c1.2,0,2.2-1,2.2-2.2v-20.6h-4.4v20.6
	C-414.4,304.3-413.4,305.3-412.1,305.3z"/>
</svg>
