<?xml version="1.0" encoding="utf-8"?>
<!-- Generator: Adobe Illustrator 19.1.1, SVG Export Plug-In . SVG Version: 6.00 Build 0)  -->
<svg version="1.1" id="Layer_1" xmlns="http://www.w3.org/2000/svg" xmlns:xlink="http://www.w3.org/1999/xlink" x="0px" y="0px"
	 viewBox="-479 281 72 72" style="enable-background:new -479 281 72 72;" xml:space="preserve">
<style type="text/css">
	.st0{fill:#1E3264;}
	.st1{fill:#FABE3C;}
	.st2{opacity:0.6;fill:#1E3264;}
	.st3{fill:none;stroke:#F9A61A;stroke-linecap:round;stroke-miterlimit:10;}
	.st4{fill:none;stroke:#1E3264;stroke-miterlimit:10;}
	.st5{fill:none;stroke:#1E3264;stroke-linecap:round;stroke-miterlimit:10;}
</style>
<circle id="XMLID_26_" class="st0" cx="-425.3" cy="328.8" r="1.1"/>
<circle id="XMLID_25_" class="st1" cx="-421.4" cy="329.8" r="1.4"/>
<circle id="XMLID_24_" class="st2" cx="-422.9" cy="325.7" r="0.7"/>
<path id="XMLID_23_" class="st3" d="M-415.9,312.6c0,0,5.1-0.8,5.1,3.2c0,4.7,3.8,3.5,3.8,3.5"/>
<polygon id="XMLID_22_" class="st2" points="-438.7,330.1 -410.4,335.7 -410.5,340 -412.6,342.6 -426.4,342.5 -436.6,342.3 
	-438.3,340.8 -438.8,336.7 "/>
<g id="XMLID_18_">
	<path id="XMLID_21_" class="st4" d="M-438.5,330.1"/>
	<path id="XMLID_20_" class="st4" d="M-410.4,330.1"/>
	<path id="XMLID_19_" class="st4" d="M-410.4,330.1v9.3c0,1.7-1.4,3.2-3.2,3.2h-21.9c-1.7,0-3.2-1.4-3.2-3.2v-9.3l4.1-7.7h20.2
		L-410.4,330.1z"/>
</g>
<path id="XMLID_17_" class="st5" d="M-415.9,312.3c0,0,2.6-2.9,4.7-0.7c2.4,2.6,3.7-0.1,3.7-0.1"/>
<path id="XMLID_4_" class="st0" d="M-433.9,312.5h18.4l4.8,7.2c0.7,1,0,2.3-1.2,2.3h-25.7c-1.2,0-1.9-1.3-1.2-2.3L-433.9,312.5z"/>
<path id="XMLID_3_" class="st1" d="M-433.9,312.5h18.4l4.8-7.2c0.7-1,0-2.3-1.2-2.3h-25.7c-1.2,0-1.9,1.3-1.2,2.3L-433.9,312.5z"/>
<path id="XMLID_2_" class="st1" d="M-429.4,302.7l-4.5-7.1c-0.6-1,0.2-2.2,1.5-2.2h15.6c1.3,0,2.1,1.2,1.5,2.2l-4.4,7.1H-429.4z"/>
<path id="XMLID_1_" class="st0" d="M-419.6,303.1h-10l-4.6-7.2c-0.3-0.5-0.4-1.2-0.1-1.7c0.3-0.6,1-1,1.8-1h15.6
	c0.8,0,1.5,0.4,1.8,1c0.3,0.5,0.3,1.2,0,1.7L-419.6,303.1z M-429.2,302.4h9.2l4.3-6.9c0.2-0.3,0.2-0.7,0-1c-0.2-0.4-0.7-0.6-1.2-0.6
	h-15.6c-0.5,0-1,0.3-1.2,0.7c-0.2,0.3-0.2,0.7,0,1L-429.2,302.4z"/>
</svg>
