<svg xmlns="http://www.w3.org/2000/svg" viewBox="0 0 439 439"><title>Asset 6</title><g id="Layer_2" data-name="Layer 2"><g id="Слой_1" data-name="Слой 1"><path d="M219.5,0C98.3,0,0,98.3,0,219.5S98.3,439,219.5,439,439,340.7,439,219.5,340.7,0,219.5,0Zm87.4,240.8H271v9.7a51.55,51.55,0,0,1-1.5,12.5,32,32,0,0,1,30,31.9v6.8a3.08,3.08,0,0,1-3,3,3,3,0,0,1-3-3v-6.8a26,26,0,0,0-25.9-26,51.48,51.48,0,0,1-96.1,0,25.93,25.93,0,0,0-25.9,26v6.8a3.08,3.08,0,0,1-3,3,3,3,0,0,1-3-3v-6.8a32,32,0,0,1,30-31.9,51.55,51.55,0,0,1-1.5-12.5v-9.7H132.2a3,3,0,0,1,0-6h35.9V216.1a32.06,32.06,0,0,1-31.5-32V161.8a3,3,0,0,1,6,0v22.3a26,26,0,0,0,25.5,26V193.5c0-9.3,11.9-19,25.4-25.3.7-5.9,9.5-12,17.6-14.8l-14-14a2.88,2.88,0,0,1-.9-2.1,2.72,2.72,0,0,1,.9-2.1,2.9,2.9,0,0,1,4.2,0l16.6,16.6a12.85,12.85,0,0,1,3.2,0l16.6-16.6a3.09,3.09,0,0,1,4.2,0,2.88,2.88,0,0,1,.9,2.1,2.72,2.72,0,0,1-.9,2.1l-14,14c8.1,2.8,16.9,8.9,17.6,14.8,13.4,6.3,25.3,15.9,25.3,25.3v.1h.1v16.5a26,26,0,0,0,25.5-26V161.8a3,3,0,0,1,6,0v22.3a32.06,32.06,0,0,1-31.5,32v18.7h35.9a3,3,0,0,1,.1,6Z" fill="#fff"/><path d="M168.1,211.1v4a31.05,31.05,0,0,1-30.5-31V161.8a2,2,0,0,1,4,0v22.3A27,27,0,0,0,168.1,211.1Z" fill="#ffd14a"/><path d="M301.5,161.8v22.3a31.05,31.05,0,0,1-30.5,31v-4a27,27,0,0,0,26.5-27V161.8a2,2,0,0,1,4,0Z" fill="#ffd14a"/><path d="M298.5,294.8v6.8a2,2,0,0,1-4,0v-6.8a27,27,0,0,0-26.5-27,26.43,26.43,0,0,0,1.2-4A31.18,31.18,0,0,1,298.5,294.8Z" fill="#ffd14a"/><path d="M171.1,267.8a27,27,0,0,0-26.5,27v6.8a2,2,0,0,1-4,0v-6.8a31.18,31.18,0,0,1,29.3-31A26.43,26.43,0,0,0,171.1,267.8Z" fill="#ffd14a"/><path d="M168.1,235.8v4H132.2a2,2,0,0,1,0-4Z" fill="#ffd14a"/><path d="M308.8,237.8a2,2,0,0,1-2,2H271v-4h35.8A2,2,0,0,1,308.8,237.8Z" fill="#ffd14a"/><path d="M269.9,199v51.5a50.74,50.74,0,0,1-1.5,12.4c0,.1-.1.3-.1.4s-.1.3-.1.5l-.6,2.1c-.2.5-.3,1-.5,1.5s-.3.9-.5,1.4a61.08,61.08,0,0,1-2.7,5.8V215h-1v61.3a51.13,51.13,0,0,1-7.3,9.5V231.7h-1v55.1a51.12,51.12,0,0,1-6.8,5.5V252h-1v41a59,59,0,0,1-7,3.8v-58h-1v58.4a52.48,52.48,0,0,1-6.7,2.2V260.9h-1v38.8a52,52,0,0,1-10.5,1.3V219h-2v82a53.1,53.1,0,0,1-10.7-1.3V261h-1v38.5a53,53,0,0,1-6.7-2.3V238.9h-1v57.9a59,59,0,0,1-7-3.8V252.1h-1v40.2a51.88,51.88,0,0,1-6.8-5.6V231.8h-1v53.9a48.43,48.43,0,0,1-7.5-10h.3V215h-1v59.2a50.54,50.54,0,0,1-2.4-5.3c-.2-.4-.3-.8-.5-1.3s-.3-1-.5-1.5a21.72,21.72,0,0,1-.7-2.4c0-.2-.1-.3-.1-.5s-.1-.3-.1-.4a50.74,50.74,0,0,1-1.5-12.4V198.8c4.5,11.7,23.5,19.2,50.4,19.2C246.3,218.1,265.4,210.6,269.9,199Z" fill="#ea631d"/><path d="M207.8,260.8v38.7c-.3-.1-.7-.2-1-.3V260.7h1Z" fill="#ffd14a"/><path d="M200.1,238.7V297c-.3-.1-.7-.3-1-.4V238.7Z" fill="#ffd14a"/><path d="M192.1,251.9v40.9a6.07,6.07,0,0,1-1-.7V251.9Z" fill="#ffd14a"/><path d="M184.3,231.6v54.9l-1-1V231.6Z" fill="#ffd14a"/><path d="M176,215v60.5h-.2a14.8,14.8,0,0,0-.8-1.3V215Z" fill="#ffd14a"/><path d="M263.8,215v59.5c-.3.6-.7,1.2-1,1.7V215Z" fill="#ffd14a"/><path d="M232,260.8v38.5l-1,.3V260.8Z" fill="#ffd14a"/><path d="M239.7,238.7v58a4.18,4.18,0,0,1-1,.4V238.7Z" fill="#ffd14a"/><path d="M247.7,251.9v40.3l-1,.7v-41Z" fill="#ffd14a"/><path d="M255.5,231.6v54.1a9.43,9.43,0,0,1-1,1V231.6Z" fill="#ffd14a"/><path d="M306.9,234.8H271V216.1a32.06,32.06,0,0,0,31.5-32V161.8a3,3,0,0,0-6,0v22.3a26,26,0,0,1-25.5,26V193.6h-.1v-.1c0-9.4-11.9-19-25.3-25.3-.7-5.9-9.5-12-17.6-14.8l14-14a2.72,2.72,0,0,0,.9-2.1,2.88,2.88,0,0,0-.9-2.1,3.09,3.09,0,0,0-4.2,0l-16.6,16.6a12.85,12.85,0,0,0-3.2,0l-16.6-16.6a2.9,2.9,0,0,0-4.2,0,2.72,2.72,0,0,0-.9,2.1,2.88,2.88,0,0,0,.9,2.1l14,14c-8.1,2.8-16.9,8.9-17.6,14.8-13.4,6.3-25.4,16-25.4,25.3v16.6a26,26,0,0,1-25.5-26V161.8a3,3,0,0,0-6,0v22.3a32.06,32.06,0,0,0,31.5,32v18.7H132.3a3,3,0,0,0,0,6h35.9v9.7a51.55,51.55,0,0,0,1.5,12.5,32,32,0,0,0-30,31.9v6.8a3,3,0,0,0,3,3,3.08,3.08,0,0,0,3-3v-6.8a25.93,25.93,0,0,1,25.9-26,51.48,51.48,0,0,0,96.1,0,25.93,25.93,0,0,1,25.9,26v6.8a3,3,0,0,0,3,3,3.08,3.08,0,0,0,3-3v-6.8a32,32,0,0,0-30-31.9,51.55,51.55,0,0,0,1.5-12.5v-9.7H307a3,3,0,1,0-.1-6ZM271,211.1a27,27,0,0,0,26.5-27V161.8a2,2,0,0,1,4,0v22.3a31.05,31.05,0,0,1-30.5,31ZM168.1,239.8H132.2a2,2,0,0,1,0-4h35.9Zm0-24.7a31.05,31.05,0,0,1-30.5-31V161.8a2,2,0,0,1,4,0v22.3a27,27,0,0,0,26.5,27Zm70.3-79.3a1.93,1.93,0,0,1,2.8,0,1.93,1.93,0,0,1,0,2.8L226.8,153a29.32,29.32,0,0,0-4.5-1.1Zm-40.6,2.8a2,2,0,1,1,2.8-2.8l16.1,16.1a29.32,29.32,0,0,0-4.5,1.1Zm-3.4,30.2v-.4c0-.2.1-.4.1-.6,1.2-5.4,9.7-11,17.3-13.6.2-.1.4-.1.6-.2s.4-.1.5-.2a29.46,29.46,0,0,1,4.6-1,1.27,1.27,0,0,0,.6-.1h2.6a1.27,1.27,0,0,1,.6.1,29.46,29.46,0,0,1,4.6,1c.2.1.5.1.7.2s.3.1.5.1c7.7,2.6,16.2,8.2,17.3,13.5,0,.2.1.4.1.6v.7c0,7.3-10.1,12.2-25.1,12.2s-25.1-4.9-25.1-12.2C194.4,168.9,194.4,168.9,194.4,168.8Zm-49.8,126v6.8a2,2,0,0,1-4,0v-6.8a31.18,31.18,0,0,1,29.3-31c.4,1.3.8,2.7,1.3,4A27.06,27.06,0,0,0,144.6,294.8Zm153.9,0v6.8a2,2,0,0,1-4,0v-6.8a27,27,0,0,0-26.5-27,26.43,26.43,0,0,0,1.2-4A31.18,31.18,0,0,1,298.5,294.8Zm-28.6-44.3a50.74,50.74,0,0,1-1.5,12.4c0,.1-.1.3-.1.4s-.1.3-.1.5l-.6,2.1c-.2.5-.3,1-.5,1.5s-.3.9-.5,1.4a61.08,61.08,0,0,1-2.7,5.8c-.3.6-.7,1.2-1,1.7a51.13,51.13,0,0,1-7.3,9.5,9.43,9.43,0,0,1-1,1,51.12,51.12,0,0,1-6.8,5.5l-1,.7a59,59,0,0,1-7,3.8,4.18,4.18,0,0,1-1,.4,52.48,52.48,0,0,1-6.7,2.2c-.3.1-.7.2-1,.3a52,52,0,0,1-10.5,1.3V219h-2v82a53.1,53.1,0,0,1-10.7-1.3c-.3-.1-.7-.2-1-.3a53,53,0,0,1-6.7-2.3c-.3-.1-.7-.3-1-.4a59,59,0,0,1-7-3.8,6.07,6.07,0,0,1-1-.7,51.88,51.88,0,0,1-6.8-5.6l-1-1a48.43,48.43,0,0,1-7.5-10,14.8,14.8,0,0,0-.8-1.3,50.54,50.54,0,0,1-2.4-5.3c-.2-.4-.3-.8-.5-1.3s-.3-1-.5-1.5a21.72,21.72,0,0,1-.7-2.4c0-.2-.1-.3-.1-.5s-.1-.3-.1-.4a50.74,50.74,0,0,1-1.5-12.4V198.9c4.5,11.7,23.5,19.2,50.4,19.2s45.9-7.5,50.4-19.1v51.5Zm0-56.9v1c-1,13.5-21,22.5-50.4,22.5s-49.3-9-50.4-22.5v-1.1c0-9,11.4-18.2,24.3-24.3.2,7.8,10.7,13,26.1,13s26-5.2,26.1-13C258.6,175.3,270,184.6,269.9,193.6Zm36.9,46.2H271v-4h35.8a2,2,0,0,1,0,4Z" fill="#4c4c4c"/><path d="M269.9,193.5v1.1c-1,13.5-21,22.5-50.4,22.5s-49.3-9-50.4-22.5v-1.1c0-9,11.4-18.2,24.3-24.3.2,7.8,10.7,13,26.1,13s26-5.2,26.1-13C258.6,175.3,270,184.6,269.9,193.5Z" fill="#ffd14a"/><path d="M216.7,151.9a29.32,29.32,0,0,0-4.5,1.1l-14.4-14.4a2,2,0,1,1,2.8-2.8Z" fill="#ffd14a"/><path d="M241.8,137.2a2,2,0,0,1-.6,1.4L226.8,153a29.32,29.32,0,0,0-4.5-1.1l16.1-16.1a1.93,1.93,0,0,1,2.8,0A2,2,0,0,1,241.8,137.2Z" fill="#ffd14a"/><path d="M244.6,168.8v.2c0,7.3-10.1,12.2-25.1,12.2s-25.1-4.9-25.1-12.2v-.6c0-.2.1-.4.1-.6,1.2-5.4,9.7-11,17.3-13.6.2-.1.4-.1.6-.2s.4-.1.5-.2a29.46,29.46,0,0,1,4.6-1,1.27,1.27,0,0,0,.6-.1h2.6a1.27,1.27,0,0,1,.6.1,29.46,29.46,0,0,1,4.6,1c.2.1.5.1.7.2s.3.1.5.1c7.7,2.6,16.2,8.2,17.3,13.5,0,.2.1.4.1.6A1.27,1.27,0,0,1,244.6,168.8Z" fill="#ea631d"/></g></g></svg>