<?xml version="1.0" encoding="utf-8"?>
<!-- Generator: Adobe Illustrator 19.1.1, SVG Export Plug-In . SVG Version: 6.00 Build 0)  -->
<svg version="1.1" id="Layer_1" xmlns="http://www.w3.org/2000/svg" xmlns:xlink="http://www.w3.org/1999/xlink" x="0px" y="0px"
	 viewBox="-479 281 72 72" style="enable-background:new -479 281 72 72;" xml:space="preserve">
<style type="text/css">
	.st0{fill:none;stroke:#1E3264;stroke-miterlimit:10;}
	.st1{fill:none;stroke:#233662;stroke-miterlimit:10;}
	.st2{opacity:0.6;fill:#1E3264;}
	.st3{fill:#FABE3C;}
	.st4{fill:#1E3264;}
</style>
<path id="XMLID_16_" class="st0" d="M-449.1,305.1c5,0,9,4,9,9s-4,9-9,9"/>
<path id="XMLID_15_" class="st1" d="M-449.1,319.6c3,0,5.5-2.5,5.5-5.5c0-3-2.5-5.5-5.5-5.5"/>
<polygon id="XMLID_14_" class="st2" points="-453.3,301.1 -450.3,301.3 -449.5,302 -449.1,303.7 -449.1,315.3 -449.1,338.5 
	-449.5,339.2 -450.5,340.3 -452.8,340.3 -453,334.3 "/>
<path id="XMLID_13_" class="st3" d="M-453.4,301.5h-13.5h-4.5h-3.3c-1.4,0-2.5,1.3-2.5,2.8v2.2h3.5v31.8c0,1.3,1.1,2.4,2.4,2.4h17.9
	c1.3,0,2.4-1.1,2.4-2.4v-34.2C-451.1,302.7-452.1,301.5-453.4,301.5z"/>
<g id="XMLID_11_">
	<path id="XMLID_12_" class="st4" d="M-461.2,292.2c0,6.8,0,13.6,0,20.5c0,0.5,0,1,0,1.4c0,0.4,0.8,0.4,0.8,0c0-6.8,0-13.6,0-20.5
		c0-0.5,0-1,0-1.4C-460.4,291.8-461.2,291.8-461.2,292.2L-461.2,292.2z"/>
</g>
<path id="XMLID_10_" class="st4" d="M-453.1,342.6h-15.3c-0.8,0-1.4-0.6-1.4-1.4v-0.9h18.1v0.9C-451.7,342-452.4,342.6-453.1,342.6z
	"/>
<path id="XMLID_9_" class="st4" d="M-449.1,297.4c0,0.9-0.7,1.7-1.5,1.7H-471c-0.8,0-1.5-0.8-1.5-1.7l0,0c0-0.9,0.7-1.7,1.5-1.7
	h20.4C-449.7,295.8-449.1,296.5-449.1,297.4L-449.1,297.4z"/>
<path id="XMLID_8_" class="st1" d="M-460.7,318.1h-0.1c-0.6,0-1-0.5-1-1v-1.6c0-0.6,0.5-1,1-1h0.1c0.6,0,1,0.5,1,1v1.6
	C-459.7,317.6-460.1,318.1-460.7,318.1z"/>
<path id="XMLID_7_" class="st4" d="M-451.3,340.7h-18.9c-1.5,0-2.7-1.2-2.7-2.7v-32.1h-3.5v-2.3c0-1.6,1.3-2.9,2.9-2.9h22.2
	c1.5,0,2.7,1.2,2.7,2.7V338C-448.7,339.5-449.9,340.7-451.3,340.7z M-475.6,305.1h3.5V338c0,1,0.8,1.9,1.9,1.9h18.9
	c1,0,1.9-0.8,1.9-1.9v-34.6c0-1-0.8-1.9-1.9-1.9h-22.2c-1.1,0-2.1,0.9-2.1,2.1V305.1z"/>
<rect id="XMLID_6_" x="-472.5" y="305.1" class="st4" width="23.5" height="3.4"/>
<path id="XMLID_5_" class="st4" d="M-458.4,293.7c0-1.3-1-2.3-2.3-2.3c-1.3,0-2.3,1-2.3,2.3"/>
</svg>
