<?xml version="1.0" encoding="utf-8"?>
<!-- Generator: Adobe Illustrator 19.1.1, SVG Export Plug-In . SVG Version: 6.00 Build 0)  -->
<svg version="1.1" id="Layer_1" xmlns="http://www.w3.org/2000/svg" xmlns:xlink="http://www.w3.org/1999/xlink" x="0px" y="0px"
	 viewBox="-36 264 72 72" style="enable-background:new -36 264 72 72;" xml:space="preserve">
<style type="text/css">
	.st0{fill:#1E3264;}
	.st1{fill:#FABE3C;}
	.st2{opacity:0.6;fill:#1E3264;}
	.st3{fill:none;stroke:#FABE3C;stroke-linecap:round;stroke-miterlimit:10;}
	.st4{fill:none;stroke:#1E3264;stroke-miterlimit:10;}
	.st5{fill:none;stroke:#1E3264;stroke-linecap:round;stroke-miterlimit:10;}
</style>
<circle id="XMLID_579_" class="st0" cx="16.6" cy="311" r="1.1"/>
<circle id="XMLID_578_" class="st1" cx="20.5" cy="312.1" r="1.4"/>
<circle id="XMLID_572_" class="st2" cx="18.9" cy="308" r="0.7"/>
<path id="XMLID_535_" class="st3" d="M26,294.8c0,0,5.1-0.8,5.1,3.2c0,4.7,3.8,3.5,3.8,3.5"/>
<polygon id="XMLID_514_" class="st2" points="3.2,312.3 31.4,317.9 31.4,322.3 29.3,324.8 15.5,324.8 5.3,324.6 3.5,323 3,318.9 "/>
<g id="XMLID_459_">
	<path id="XMLID_595_" class="st4" d="M3.4,312.3"/>
	<path id="XMLID_592_" class="st4" d="M31.4,312.3"/>
	<path id="XMLID_580_" class="st4" d="M31.4,312.3v9.3c0,1.7-1.4,3.2-3.2,3.2H6.3c-1.7,0-3.2-1.4-3.2-3.2v-9.3l4.1-7.7h20.2
		L31.4,312.3z"/>
</g>
<path id="XMLID_548_" class="st5" d="M26,294.6c0,0,2.6-2.9,4.7-0.7c2.4,2.6,3.7-0.1,3.7-0.1"/>
<path id="XMLID_561_" class="st4" d="M-7.3,287.3c5,0,9,4,9,9s-4,9-9,9"/>
<path id="XMLID_550_" class="st4" d="M-7.3,301.9c3,0,5.5-2.5,5.5-5.5s-2.5-5.5-5.5-5.5"/>
<polygon id="XMLID_552_" class="st2" points="-11.4,283.3 -8.4,283.5 -7.6,284.3 -7.2,285.9 -7.2,297.6 -7.3,320.8 -7.6,321.5 
	-8.6,322.5 -11,322.6 -11.2,316.5 "/>
<path id="XMLID_559_" class="st1" d="M-11.5,283.8H-25h-4.5h-3.3c-1.4,0-2.5,1.3-2.5,2.8v2.2h3.5v31.8c0,1.3,1.1,2.4,2.4,2.4h17.9
	c1.3,0,2.4-1.1,2.4-2.4v-34.2C-9.2,284.9-10.3,283.8-11.5,283.8z"/>
<g id="XMLID_610_">
	<path id="XMLID_560_" class="st0" d="M-19.3,274.5c0,6.8,0,13.6,0,20.5c0,0.5,0,1,0,1.4c0,0.4,0.8,0.4,0.8,0c0-6.8,0-13.6,0-20.5
		c0-0.5,0-1,0-1.4C-18.5,274-19.3,274-19.3,274.5L-19.3,274.5z"/>
</g>
<path id="XMLID_553_" class="st0" d="M-11.3,324.8h-15.3c-0.8,0-1.4-0.6-1.4-1.4v-0.9h18.1v0.9C-9.9,324.2-10.5,324.8-11.3,324.8z"
	/>
<path id="XMLID_562_" class="st0" d="M-7.2,279.7c0,0.9-0.7,1.7-1.5,1.7h-20.4c-0.8,0-1.5-0.8-1.5-1.7l0,0c0-0.9,0.7-1.7,1.5-1.7
	h20.4C-7.9,278-7.2,278.8-7.2,279.7L-7.2,279.7z"/>
<path id="XMLID_556_" class="st4" d="M-18.9,300.3H-19c-0.6,0-1-0.5-1-1v-1.6c0-0.6,0.5-1,1-1h0.1c0.6,0,1,0.5,1,1v1.6
	C-17.8,299.9-18.3,300.3-18.9,300.3z"/>
<path id="XMLID_564_" class="st0" d="M-9.5,322.9h-18.9c-1.5,0-2.7-1.2-2.7-2.7v-32.1h-3.5v-2.3c0-1.6,1.3-2.9,2.9-2.9h22.2
	c1.5,0,2.7,1.2,2.7,2.7v34.6C-6.8,321.7-8,322.9-9.5,322.9z M-33.8,287.3h3.5v32.9c0,1,0.8,1.9,1.9,1.9h18.9c1,0,1.9-0.8,1.9-1.9
	v-34.6c0-1-0.8-1.9-1.9-1.9h-22.2c-1.1,0-2.1,0.9-2.1,2.1V287.3z"/>
<rect id="XMLID_565_" x="-30.7" y="287.3" class="st0" width="23.5" height="3.4"/>
<path id="XMLID_558_" class="st0" d="M-16.6,276c0-1.3-1-2.3-2.3-2.3s-2.3,1-2.3,2.3"/>
<path id="XMLID_557_" class="st0" d="M8,294.8h18.4l4.8,7.2c0.7,1,0,2.3-1.2,2.3H4.4c-1.2,0-1.9-1.3-1.2-2.3L8,294.8z"/>
<path id="XMLID_571_" class="st1" d="M8,294.8h18.4l4.8-7.2c0.7-1,0-2.3-1.2-2.3H4.4c-1.2,0-1.9,1.3-1.2,2.3L8,294.8z"/>
<path id="XMLID_547_" class="st1" d="M12.5,285l-4.5-7.1c-0.6-1,0.2-2.2,1.5-2.2H25c1.3,0,2.1,1.2,1.5,2.2l-4.4,7.1H12.5z"/>
<path id="XMLID_549_" class="st0" d="M22.3,285.3h-10l-4.6-7.2c-0.3-0.5-0.4-1.2-0.1-1.7c0.3-0.6,1-1,1.8-1H25c0.8,0,1.5,0.4,1.8,1
	c0.3,0.5,0.3,1.2,0,1.7L22.3,285.3z M12.6,284.6h9.2l4.3-6.9c0.2-0.3,0.2-0.7,0-1c-0.2-0.4-0.7-0.6-1.2-0.6H9.4
	c-0.5,0-1,0.3-1.2,0.7c-0.2,0.3-0.2,0.7,0,1L12.6,284.6z"/>
</svg>
