<?xml version="1.0" encoding="utf-8"?>
<!-- Generator: Adobe Illustrator 19.1.1, SVG Export Plug-In . SVG Version: 6.00 Build 0)  -->
<svg version="1.1" id="Layer_1" xmlns="http://www.w3.org/2000/svg" xmlns:xlink="http://www.w3.org/1999/xlink" x="0px" y="0px"
	 viewBox="-443 245 72 72" style="enable-background:new -443 245 72 72;" xml:space="preserve">
<style type="text/css">
	.st0{opacity:0.6;fill:#1E3264;}
	.st1{fill:#1E3264;}
	.st2{fill:#FABE3C;}
	.st3{fill-rule:evenodd;clip-rule:evenodd;fill:#1E3264;}
	.st4{fill-rule:evenodd;clip-rule:evenodd;fill:#FABE3C;}
	.st5{fill-rule:evenodd;clip-rule:evenodd;fill:#FFFFFF;}
	.st6{fill:none;stroke:#1E3264;stroke-miterlimit:10;}
</style>
<circle id="XMLID_40_" class="st0" cx="-434" cy="267.7" r="1.6"/>
<circle id="XMLID_39_" class="st1" cx="-439.5" cy="269.9" r="2.2"/>
<circle id="XMLID_38_" class="st2" cx="-437.3" cy="263.4" r="1.1"/>
<circle id="XMLID_37_" class="st1" cx="-419.8" cy="262.9" r="1.5"/>
<circle id="XMLID_36_" class="st2" cx="-414.8" cy="264.9" r="2"/>
<circle id="XMLID_35_" class="st0" cx="-416.8" cy="258.9" r="1"/>
<polygon id="XMLID_23_" class="st3" points="-405.3,262.9 -405.3,263.4 -411.2,263.1 -411.2,261.3 "/>
<polygon id="XMLID_22_" class="st3" points="-405.3,264.6 -405.3,265.2 -411.2,265.3 -411.2,263.4 "/>
<polygon id="XMLID_21_" class="st3" points="-405.3,266.7 -405.3,267.2 -411.2,267.4 -411.2,265.5 "/>
<polygon id="XMLID_20_" class="st3" points="-405.3,268.6 -405.3,269.2 -411.2,269.6 -411.2,267.7 "/>
<polygon id="XMLID_19_" class="st4" points="-405.3,270.6 -405.3,271.2 -411.2,271.7 -411.2,269.8 "/>
<polygon id="XMLID_18_" class="st4" points="-405.3,272.6 -405.3,273.1 -411.2,273.8 -411.2,271.9 "/>
<polygon id="XMLID_17_" class="st4" points="-405.3,274.8 -405.3,275.3 -411.2,276 -411.2,274.1 "/>
<polygon id="XMLID_16_" class="st4" points="-405.3,276.8 -405.3,277.3 -411.2,278.1 -411.2,276.2 "/>
<polygon id="XMLID_15_" class="st3" points="-405.3,278.8 -405.3,279.3 -411.2,280.2 -411.2,278.4 "/>
<polygon id="XMLID_14_" class="st3" points="-405.3,280.7 -405.3,281.2 -411.2,282.4 -411.2,280.5 "/>
<polygon id="XMLID_13_" class="st3" points="-405.3,282.7 -405.3,283.3 -411.2,284.5 -411.2,282.6 "/>
<polygon id="XMLID_12_" class="st3" points="-405.3,284.5 -405.3,285.1 -411.2,286.7 -411.2,284.8 "/>
<path id="XMLID_11_" class="st4" d="M-401.8,290.7c0.4,0,0.5,0.1,0.6,1c0,0.5,0,0.2,0,0.4c0.3-0.3,0.4-0.8,0.2-1.2l-2.1-4.6
	c0,0,0,0,0,0V262c0-0.6-0.5-1.1-1.1-1.1c-0.6,0-1.1,0.5-1.1,1.1v24.4c0,0.2,0.1,0.4,0.1,0.6c0,0.1,0,0.1,0.1,0.2l2.1,4.6
	c0.1,0.3,0.2,0.4,0.5,0.5c0-0.1-0.3-1.1-0.3-1.2"/>
<ellipse id="XMLID_10_" class="st5" cx="-425.4" cy="266.6" rx="0.9" ry="2"/>
<path id="XMLID_3_" class="st6" d="M-401.8,308.5L-401.8,308.5c0.5,0,0.9-0.4,0.9-0.9v-16.1c0-0.5-0.4-0.9-0.9-0.9l0,0
	c-0.5,0-0.9,0.4-0.9,0.9v16.1C-402.8,308.1-402.3,308.5-401.8,308.5z"/>
</svg>
