<svg xmlns="http://www.w3.org/2000/svg" viewBox="0 0 439 439"><title>Asset 9</title><g id="Layer_2" data-name="Layer 2"><g id="Слой_1" data-name="Слой 1"><path d="M209.3,238.2l-.1.5-.1.5h.9l.1-.5.1-.5ZM221,197.8l-.1.2c.1-.1.2-.2.3-.2Zm-11.7,40.4-.1.5-.1.5h.9l.1-.5.1-.5ZM221,197.8l-.1.2c.1-.1.2-.2.3-.2Zm-11.7,40.4-.1.5-.1.5h.9l.1-.5.1-.5ZM221,197.8l-.1.2c.1-.1.2-.2.3-.2Zm-11.7,40.4-.1.5-.1.5h.9l.1-.5.1-.5ZM221,197.8l-.1.2c.1-.1.2-.2.3-.2Zm-11.7,40.4-.1.5-.1.5h.9l.1-.5.1-.5ZM221,197.8l-.1.2c.1-.1.2-.2.3-.2Zm-11.7,40.4-.1.5-.1.5h.9l.1-.5.1-.5ZM221,197.8l-.1.2c.1-.1.2-.2.3-.2Zm-11.7,40.4-.1.5-.1.5h.9l.1-.5.1-.5ZM221,197.8l-.1.2c.1-.1.2-.2.3-.2Zm-11.7,40.4-.1.5-.1.5h.9l.1-.5.1-.5ZM221,197.8l-.1.2c.1-.1.2-.2.3-.2Zm-11.7,40.4-.1.5-.1.5h.9l.1-.5.1-.5ZM221,197.8l-.1.2c.1-.1.2-.2.3-.2Zm-11.7,40.4-.1.5-.1.5h.9l.1-.5.1-.5ZM221,197.8l-.1.2c.1-.1.2-.2.3-.2Zm-11.7,40.4-.1.5-.1.5h.9l.1-.5.1-.5ZM221,197.8l-.1.2c.1-.1.2-.2.3-.2Zm-11.7,40.4-.1.5-.1.5h.9l.1-.5.1-.5ZM221,197.8l-.1.2c.1-.1.2-.2.3-.2Zm-11.7,40.4-.1.5-.1.5h.9l.1-.5.1-.5ZM221,197.8l-.1.2c.1-.1.2-.2.3-.2Zm-11.7,40.4-.1.5-.1.5h.9l.1-.5.1-.5ZM221,197.8l-.1.2c.1-.1.2-.2.3-.2Zm-11.7,40.4-.1.5-.1.5h.9l.1-.5.1-.5ZM221,197.8l-.1.2c.1-.1.2-.2.3-.2Zm-11.7,40.4-.1.5-.1.5h.9l.1-.5.1-.5ZM221,197.8l-.1.2c.1-.1.2-.2.3-.2Zm-11.7,40.4-.1.5-.1.5h.9l.1-.5.1-.5ZM221,197.8l-.1.2c.1-.1.2-.2.3-.2Zm-11.7,40.4-.1.5-.1.5h.9l.1-.5.1-.5ZM221,197.8l-.1.2c.1-.1.2-.2.3-.2Zm-11.7,40.4-.1.5-.1.5h.9l.1-.5.1-.5ZM221,197.8l-.1.2c.1-.1.2-.2.3-.2Zm-11.7,40.4-.1.5-.1.5h.9l.1-.5.1-.5ZM221,197.8l-.1.2c.1-.1.2-.2.3-.2Zm-11.7,40.4-.1.5-.1.5h.9l.1-.5.1-.5ZM221,197.8l-.1.2c.1-.1.2-.2.3-.2Zm-11.7,40.4-.1.5-.1.5h.9l.1-.5.1-.5ZM221,197.8l-.1.2c.1-.1.2-.2.3-.2Zm-11.7,40.4-.1.5-.1.5h.9l.1-.5.1-.5ZM221,197.8l-.1.2c.1-.1.2-.2.3-.2Zm-11.7,40.4-.1.5-.1.5h.9l.1-.5.1-.5ZM221,197.8l-.1.2c.1-.1.2-.2.3-.2Zm-11.7,40.4-.1.5-.1.5h.9l.1-.5.1-.5ZM221,197.8l-.1.2c.1-.1.2-.2.3-.2Zm-11.7,40.4-.1.5-.1.5h.9l.1-.5.1-.5ZM221,197.8l-.1.2c.1-.1.2-.2.3-.2Zm-11.7,40.4-.1.5-.1.5h.9l.1-.5.1-.5ZM221,197.8l-.1.2c.1-.1.2-.2.3-.2Zm0,0-.1.2c.1-.1.2-.2.3-.2Zm-11.7,40.4-.1.5-.1.5h.9l.1-.5.1-.5Zm0,0-.1.5-.1.5h.9l.1-.5.1-.5ZM221,197.8l-.1.2c.1-.1.2-.2.3-.2Zm0,0-.1.2c.1-.1.2-.2.3-.2Zm-11.7,40.4-.1.5-.1.5h.9l.1-.5.1-.5Zm0,0-.1.5-.1.5h.9l.1-.5.1-.5ZM221,197.8l-.1.2c.1-.1.2-.2.3-.2Zm0,0-.1.2c.1-.1.2-.2.3-.2Zm-11.7,40.4-.1.5-.1.5h.9l.1-.5.1-.5Zm0,0-.1.5-.1.5h.9l.1-.5.1-.5ZM221,197.8l-.1.2c.1-.1.2-.2.3-.2Zm0,0-.1.2c.1-.1.2-.2.3-.2Zm-11.7,40.4-.1.5-.1.5h.9l.1-.5.1-.5Zm0,0-.1.5-.1.5h.9l.1-.5.1-.5ZM221,197.8l-.1.2c.1-.1.2-.2.3-.2Zm0,0-.1.2c.1-.1.2-.2.3-.2Zm-11.7,40.4-.1.5-.1.5h.9l.1-.5.1-.5Zm0,0-.1.5-.1.5h.9l.1-.5.1-.5ZM221,197.8l-.1.2c.1-.1.2-.2.3-.2Zm0,0-.1.2c.1-.1.2-.2.3-.2Zm-11.7,40.4-.1.5-.1.5h.9l.1-.5.1-.5ZM219.5,0C98.3,0,0,98.3,0,219.5S98.3,439,219.5,439,439,340.7,439,219.5,340.7,0,219.5,0ZM348.3,255.8a10,10,0,0,1-10,10H236.1v37.9h28.7v.2a1.76,1.76,0,0,1,.5.4c.4.3,1,.8,1.7,1.4,1.2,1.1,2.7,2.6,4.4,4.4s3,3.4,4.1,4.7a12.89,12.89,0,0,1,1.3,1.8,5.92,5.92,0,0,0,.4.6.6.6,0,0,1,.1.4v1.9h-103v-3a.31.31,0,0,1,.1-.2,2.19,2.19,0,0,0,.3-.5c.3-.4.7-.9,1.2-1.6,1-1.2,2.4-2.8,3.9-4.4s3-3.1,4.1-4.2a16.68,16.68,0,0,1,1.5-1.4c.2-.2.4-.3.5-.4s.1-.1.2-.1l.2-.1h29.1V265.8h-62l-32.1,32.1a2.93,2.93,0,0,1-1.9.8,2.57,2.57,0,0,1-1.8-.7l-5.2-5.2a2.41,2.41,0,0,1-.7-1.8,2.87,2.87,0,0,1,.7-1.8l23.5-23.4H113.3a10,10,0,0,1-10-10V129.4a10,10,0,0,1,10-10h225a10,10,0,0,1,10,10ZM221,197.8l-.1.2c.1-.1.2-.2.3-.2Zm-11.7,40.4-.1.5-.1.5h.9l.1-.5.1-.5Zm0,0-.1.5-.1.5h.9l.1-.5.1-.5ZM221,197.8l-.1.2c.1-.1.2-.2.3-.2Zm0,0-.1.2c.1-.1.2-.2.3-.2Zm-11.7,40.4-.1.5-.1.5h.9l.1-.5.1-.5Zm0,0-.1.5-.1.5h.9l.1-.5.1-.5ZM221,197.8l-.1.2c.1-.1.2-.2.3-.2Zm0,0-.1.2c.1-.1.2-.2.3-.2Zm-11.7,40.4-.1.5-.1.5h.9l.1-.5.1-.5Zm0,0-.1.5-.1.5h.9l.1-.5.1-.5ZM221,197.8l-.1.2c.1-.1.2-.2.3-.2Zm0,0-.1.2c.1-.1.2-.2.3-.2Zm-11.7,40.4-.1.5-.1.5h.9l.1-.5.1-.5Zm0,0-.1.5-.1.5h.9l.1-.5.1-.5ZM221,197.8l-.1.2c.1-.1.2-.2.3-.2Zm0,0-.1.2c.1-.1.2-.2.3-.2Zm-11.7,40.4-.1.5-.1.5h.9l.1-.5.1-.5Zm0,0-.1.5-.1.5h.9l.1-.5.1-.5ZM221,197.8l-.1.2c.1-.1.2-.2.3-.2Zm0,0-.1.2c.1-.1.2-.2.3-.2Zm-11.7,40.4-.1.5-.1.5h.9l.1-.5.1-.5Zm0,0-.1.5-.1.5h.9l.1-.5.1-.5ZM221,197.8l-.1.2c.1-.1.2-.2.3-.2Zm-11.7,40.4-.1.5-.1.5h.9l.1-.5.1-.5ZM221,197.8l-.1.2c.1-.1.2-.2.3-.2Zm-11.7,40.4-.1.5-.1.5h.9l.1-.5.1-.5ZM221,197.8l-.1.2c.1-.1.2-.2.3-.2Zm-11.7,40.4-.1.5-.1.5h.9l.1-.5.1-.5ZM221,197.8l-.1.2c.1-.1.2-.2.3-.2Zm-11.7,40.4-.1.5-.1.5h.9l.1-.5.1-.5ZM221,197.8l-.1.2c.1-.1.2-.2.3-.2Zm-11.7,40.4-.1.5-.1.5h.9l.1-.5.1-.5ZM221,197.8l-.1.2c.1-.1.2-.2.3-.2Zm-11.7,40.4-.1.5-.1.5h.9l.1-.5.1-.5ZM221,197.8l-.1.2c.1-.1.2-.2.3-.2Zm-11.7,40.4-.1.5-.1.5h.9l.1-.5.1-.5ZM221,197.8l-.1.2c.1-.1.2-.2.3-.2Zm-11.7,40.4-.1.5-.1.5h.9l.1-.5.1-.5ZM221,197.8l-.1.2c.1-.1.2-.2.3-.2Zm-11.7,40.4-.1.5-.1.5h.9l.1-.5.1-.5ZM221,197.8l-.1.2c.1-.1.2-.2.3-.2Zm-11.7,40.4-.1.5-.1.5h.9l.1-.5.1-.5ZM221,197.8l-.1.2c.1-.1.2-.2.3-.2Zm-11.7,40.4-.1.5-.1.5h.9l.1-.5.1-.5ZM221,197.8l-.1.2c.1-.1.2-.2.3-.2Zm-11.7,40.4-.1.5-.1.5h.9l.1-.5.1-.5ZM221,197.8l-.1.2c.1-.1.2-.2.3-.2Zm-11.7,40.4-.1.5-.1.5h.9l.1-.5.1-.5ZM221,197.8l-.1.2c.1-.1.2-.2.3-.2Zm-11.7,40.4-.1.5-.1.5h.9l.1-.5.1-.5ZM221,197.8l-.1.2c.1-.1.2-.2.3-.2Zm-11.7,40.4-.1.5-.1.5h.9l.1-.5.1-.5ZM221,197.8l-.1.2c.1-.1.2-.2.3-.2Zm-11.7,40.4-.1.5-.1.5h.9l.1-.5.1-.5ZM221,197.8l-.1.2c.1-.1.2-.2.3-.2Zm-11.7,40.4-.1.5-.1.5h.9l.1-.5.1-.5ZM221,197.8l-.1.2c.1-.1.2-.2.3-.2Zm-11.7,40.4-.1.5-.1.5h.9l.1-.5.1-.5ZM221,197.8l-.1.2c.1-.1.2-.2.3-.2Zm-11.7,40.4-.1.5-.1.5h.9l.1-.5.1-.5ZM221,197.8l-.1.2c.1-.1.2-.2.3-.2Zm-11.7,40.4-.1.5-.1.5h.9l.1-.5.1-.5ZM221,197.8l-.1.2c.1-.1.2-.2.3-.2Zm-11.7,40.4-.1.5-.1.5h.9l.1-.5.1-.5ZM221,197.8l-.1.2c.1-.1.2-.2.3-.2Zm-11.7,40.4-.1.5-.1.5h.9l.1-.5.1-.5ZM221,197.8l-.1.2c.1-.1.2-.2.3-.2Zm-11.7,40.4-.1.5-.1.5h.9l.1-.5.1-.5ZM221,197.8l-.1.2c.1-.1.2-.2.3-.2Zm-11.7,40.4-.1.5-.1.5h.9l.1-.5.1-.5ZM221,197.8l-.1.2c.1-.1.2-.2.3-.2Zm-11.7,40.4-.1.5-.1.5h.9l.1-.5.1-.5ZM221,197.8l-.1.2c.1-.1.2-.2.3-.2Z" fill="#fff"/><path d="M209.3,238.2l-.1.5-.1.5h.9l.1-.5.1-.5ZM221,197.8l-.1.2c.1-.1.2-.2.3-.2Zm-11.4,40.4-.1.5-.1.5h.6l.1-.5.1-.5ZM221,197.8l-.1.2c.1-.1.2-.2.3-.2Zm-11.4,40.4-.1.5-.1.5h.6l.1-.5.1-.5ZM221,197.8l-.1.2c.1-.1.2-.2.3-.2Zm-11.4,40.4-.1.5-.1.5h.6l.1-.5.1-.5ZM221,197.8l-.1.2c.1-.1.2-.2.3-.2Zm-11.4,40.4-.1.5-.1.5h.6l.1-.5.1-.5ZM221,197.8l-.1.2c.1-.1.2-.2.3-.2Zm-11.4,40.4-.1.5-.1.5h.6l.1-.5.1-.5ZM221,197.8l-.1.2c.1-.1.2-.2.3-.2Zm-11.4,40.4-.1.5-.1.5h.6l.1-.5.1-.5ZM221,197.8l-.1.2c.1-.1.2-.2.3-.2Zm-11.4,40.4-.1.5-.1.5h.6l.1-.5.1-.5ZM221,197.8l-.1.2c.1-.1.2-.2.3-.2Zm-11.4,40.4-.1.5-.1.5h.6l.1-.5.1-.5ZM221,197.8l-.1.2c.1-.1.2-.2.3-.2Zm-11.4,40.4-.1.5-.1.5h.6l.1-.5.1-.5ZM221,197.8l-.1.2c.1-.1.2-.2.3-.2Zm-11.4,40.4-.1.5-.1.5h.6l.1-.5.1-.5ZM221,197.8l-.1.2c.1-.1.2-.2.3-.2Zm-11.4,40.4-.1.5-.1.5h.6l.1-.5.1-.5ZM221,197.8l-.1.2c.1-.1.2-.2.3-.2Zm-11.4,40.4-.1.5-.1.5h.6l.1-.5.1-.5ZM221,197.8l-.1.2c.1-.1.2-.2.3-.2Zm-11.4,40.4-.1.5-.1.5h.6l.1-.5.1-.5ZM221,197.8l-.1.2c.1-.1.2-.2.3-.2Zm-11.4,40.4-.1.5-.1.5h.6l.1-.5.1-.5ZM221,197.8l-.1.2c.1-.1.2-.2.3-.2Zm-11.4,40.4-.1.5-.1.5h.6l.1-.5.1-.5ZM221,197.8l-.1.2c.1-.1.2-.2.3-.2Zm-11.4,40.4-.1.5-.1.5h.6l.1-.5.1-.5ZM221,197.8l-.1.2c.1-.1.2-.2.3-.2Zm0,0-.1.2c.1-.1.2-.2.3-.2Zm-11.4,40.4-.1.5-.1.5h.6l.1-.5.1-.5ZM221,197.8l-.1.2c.1-.1.2-.2.3-.2Zm-11.4,40.4-.1.5-.1.5h.6l.1-.5.1-.5ZM221,197.8l-.1.2c.1-.1.2-.2.3-.2Zm-11.4,40.4-.1.5-.1.5h.6l.1-.5.1-.5ZM221,197.8l-.1.2c.1-.1.2-.2.3-.2Zm-11.4,40.4-.1.5-.1.5h.6l.1-.5.1-.5Zm0,0-.1.5-.1.5h.6l.1-.5.1-.5ZM221,197.8l-.1.2c.1-.1.2-.2.3-.2Zm-11.4,40.4-.1.5-.1.5h.6l.1-.5.1-.5ZM221,197.8l-.1.2c.1-.1.2-.2.3-.2Zm-11.4,40.4-.1.5-.1.5h.6l.1-.5.1-.5ZM221,197.8l-.1.2c.1-.1.2-.2.3-.2Zm-11.4,40.4-.1.5-.1.5h.6l.1-.5.1-.5ZM221,197.8l-.1.2c.1-.1.2-.2.3-.2Zm-11.4,40.4-.1.5-.1.5h.6l.1-.5.1-.5ZM221,197.8l-.1.2c.1-.1.2-.2.3-.2Zm-11.4,40.4-.1.5-.1.5h.6l.1-.5.1-.5ZM221,197.8l-.1.2c.1-.1.2-.2.3-.2Zm-11.4,40.4-.1.5-.1.5h.6l.1-.5.1-.5ZM221,197.8l-.1.2c.1-.1.2-.2.3-.2Zm-11.4,40.4-.1.5-.1.5h.6l.1-.5.1-.5ZM221,197.8l-.1.2c.1-.1.2-.2.3-.2Zm-11.4,40.4-.1.5-.1.5h.6l.1-.5.1-.5ZM221,197.8l-.1.2c.1-.1.2-.2.3-.2Zm-11.4,40.4-.1.5-.1.5h.6l.1-.5.1-.5ZM221,197.8l-.1.2c.1-.1.2-.2.3-.2Zm-11.4,40.4-.1.5-.1.5h.6l.1-.5.1-.5ZM221,197.8l-.1.2c.1-.1.2-.2.3-.2Zm-11.4,40.4-.1.5-.1.5h.6l.1-.5.1-.5ZM221,197.8l-.1.2c.1-.1.2-.2.3-.2Zm-11.4,40.4-.1.5-.1.5h.6l.1-.5.1-.5ZM221,197.8l-.1.2c.1-.1.2-.2.3-.2Z" fill="#ea631d"/><path d="M338.4,120.4h-225a9,9,0,0,0-9,9V255.8a9,9,0,0,0,9,9h23.5l25.7-25.6H120.7a2,2,0,0,1-2-2V134.9a2,2,0,0,1,2-2H330.6a2,2,0,0,1,2,2V237.2a2,2,0,0,1-2,2H209.9l-3.2,11.9a2.52,2.52,0,0,1-1.8,1.8,2.56,2.56,0,0,1-2.4-.6l-13-13.1H180l-25.6,25.6h62.2v39.9h-30a1.38,1.38,0,0,1-.4.3,14.27,14.27,0,0,0-1.4,1.3c-1.1,1.1-2.5,2.5-4,4.2s-2.8,3.1-3.8,4.4c-.5.7-.9,1.2-1.2,1.6-.1.2-.2.3-.3.5v1.5H276.3v-.8a2.19,2.19,0,0,1-.3-.5c-.3-.4-.7-1-1.3-1.7-1-1.3-2.5-3-4-4.7s-3.1-3.3-4.3-4.4c-.7-.6-1.2-1.1-1.6-1.4-.2-.1-.4-.3-.5-.3H235.2V264.8H338.4a9,9,0,0,0,9-9V129.4A9,9,0,0,0,338.4,120.4ZM296.1,257.8a4.2,4.2,0,1,1,4.2-4.2A4.1,4.1,0,0,1,296.1,257.8Zm27.4,0a4.2,4.2,0,1,1,4.2-4.2A4.29,4.29,0,0,1,323.5,257.8Z" fill="#ea631d"/><path d="M209.3,238.2l-.1.5h.9l.1-.5ZM221,197.8l-.1.2c.1-.1.2-.2.3-.2Z" fill="#fdd29d"/><path d="M188.5,238.2H181l2.7-2.7a1.45,1.45,0,0,1,2.1,0Z" fill="#f4f0e6"/><path d="M209.3,238.2l-.1.5-.1.5h.9l.1-.5.1-.5Z" fill="#4d4d4d"/><path d="M330.6,133.9H120.7a.94.94,0,0,0-1,1V237.2a.94.94,0,0,0,1,1h42.8l11.4-11.4a1.45,1.45,0,0,0,0-2.1l-16.8-16.8a2.33,2.33,0,0,1-.6-2.4,2.52,2.52,0,0,1,1.8-1.8l21-5.6-10.6-4.6a3.93,3.93,0,0,1-2.4-3.7v-.2a4,4,0,0,1,2.4-3.7l27.9-12a4.15,4.15,0,0,1,1.6-.3l1.8-.8a3.07,3.07,0,0,1,2.8.2,3.23,3.23,0,0,1,1.4,2.5v.6a3.08,3.08,0,0,1-1.8,2.8l-.3.1a4.19,4.19,0,0,1-2.4,2.8l-15.4,6.5,11.9,5.3,18.8-5-.3-2.4a3.32,3.32,0,0,1,.9-2.7,3.73,3.73,0,0,1,2.6-1.2h1c0-.1.1-.1.1-.2a2.5,2.5,0,0,1,1.8-.8,21.12,21.12,0,0,0,2.6-.2,9.11,9.11,0,0,0,3.4-3,6.83,6.83,0,0,0,1.1-3.5,7.24,7.24,0,0,0-.8-3.5,5.83,5.83,0,0,0-2.3-2.1,9.49,9.49,0,0,0-4-.8,8.32,8.32,0,0,0-4.3,1.1,10.61,10.61,0,0,0-2,1.7,4.22,4.22,0,0,1-5.5.9l-.6-.4a3.9,3.9,0,0,1-1.8-2.7,3.66,3.66,0,0,1,.8-3,17,17,0,0,1,2.2-2.4,13.91,13.91,0,0,1,5-3,21.68,21.68,0,0,1,3-.8c.1,0,.2-.1.3-.1a18.34,18.34,0,0,1,6.6-1,15.75,15.75,0,0,1,5.8,1.1,13.1,13.1,0,0,1,4.6,3,13.94,13.94,0,0,1,3.1,4.5,13,13,0,0,1,1.1,5.6,12.9,12.9,0,0,1-2,6.9l-.1.1a14.84,14.84,0,0,1-2.8,3.3,18.12,18.12,0,0,1-4.3,4l-.5.3a18,18,0,0,1-3.8,1.6l-.1,2.6a3.12,3.12,0,0,1-2.1,2.7,4,4,0,0,1-3.6,3.1l-.2.6h.2a4.39,4.39,0,0,1,2.7-.9,4,4,0,0,1,3.1,1.3,4.16,4.16,0,0,1,1.3,3.1,4.82,4.82,0,0,1-1.1,3v.1l-.2.1a2.1,2.1,0,0,1-.8.6,5.54,5.54,0,0,1-1.2,1.9l-.2.1a5.61,5.61,0,0,1-3.9,1.6,5,5,0,0,1-2.7-.7L210,238.3H330.4a.94.94,0,0,0,1-1V135C331.6,134.3,331.3,133.9,330.6,133.9Zm-50.6,54a3.08,3.08,0,0,1-1.8,2.8l-.2.1a3.89,3.89,0,0,1-2.3,2.7l-27.9,12a5,5,0,0,1-1.6.3,3.6,3.6,0,0,1-2.2-.7,4,4,0,0,1-1.8-3.3v-.6a4,4,0,0,1,2.5-3.7l18.1-7.6-18.2-8a4.09,4.09,0,0,1-2.4-3.7v-.7a3.86,3.86,0,0,1,1.8-3.3,4.16,4.16,0,0,1,2.9-.6,2.65,2.65,0,0,1,.6-.5,2.8,2.8,0,0,1,2.8-.2l27.9,12a3.08,3.08,0,0,1,1.8,2.8v.2Z" fill="#fdd29d"/><path d="M327.6,253.6a4.2,4.2,0,1,1-4.2-4.2A4.23,4.23,0,0,1,327.6,253.6Z" fill="#ffd14a"/><path d="M300.4,253.6a4.2,4.2,0,1,1-4.2-4.2A4.23,4.23,0,0,1,300.4,253.6Z" fill="#ffd14a"/><path d="M278,190.8a3.89,3.89,0,0,1-2.3,2.7l-27.9,12a5,5,0,0,1-1.6.3,3.6,3.6,0,0,1-2.2-.7,4,4,0,0,1-1.8-3.3v-.6a4,4,0,0,1,2.5-3.7l18.1-7.6-18.2-8a4.09,4.09,0,0,1-2.4-3.7v-.7a3.86,3.86,0,0,1,1.8-3.3,4.16,4.16,0,0,1,2.9-.6,2.66,2.66,0,0,0-.6,1,3,3,0,0,0-.2,1v.7a3,3,0,0,0,1.8,2.7l18.2,8a.87.87,0,0,1,.6.9,1,1,0,0,1-.6.9l-1.4.6-1,.4L248,196.4a2.76,2.76,0,0,0-1.5,1.5,2.28,2.28,0,0,0-.3,1.1v.8a3.23,3.23,0,0,0,1.4,2.5,2.39,2.39,0,0,0,1.4.5h.2a3.75,3.75,0,0,0,1.1-.1l26.4-11.4Z" fill="#ea631d"/><path d="M233.4,172.5a7.1,7.1,0,0,1-1.3,4.1,7.28,7.28,0,0,1-1.7,1.8,19.08,19.08,0,0,1-2.1,1.5.76.76,0,0,1-.4.2,14,14,0,0,1-2.9.9,9.11,9.11,0,0,0,3.4-3,6.83,6.83,0,0,0,1.1-3.5,7.24,7.24,0,0,0-.8-3.5,5.83,5.83,0,0,0-2.3-2.1,9.49,9.49,0,0,0-4-.8,8.32,8.32,0,0,0-4.3,1.1,10.61,10.61,0,0,0-2,1.7,4.22,4.22,0,0,1-5.5.9l-.6-.4a3.9,3.9,0,0,1-1.8-2.7,3.66,3.66,0,0,1,.8-3,17,17,0,0,1,2.2-2.4,13.91,13.91,0,0,1,5-3,21.68,21.68,0,0,1,3-.8,10.48,10.48,0,0,0-3.8,2.3c-.1.1-.3.2-.4.4-.7.7-1.4,1.5-2.1,2.3-.1.2-.3.3-.3.5a3.23,3.23,0,0,0-.3,1.7,3,3,0,0,0,1.3,2l.6.4a4.88,4.88,0,0,0,.7.3,2.46,2.46,0,0,0,1.2.1,3.47,3.47,0,0,0,2.3-1.2c.1-.2.3-.3.4-.5a7.46,7.46,0,0,1,1.7-1.4l.1-.1a8.21,8.21,0,0,1,4.8-1.3,9.86,9.86,0,0,1,4.4.9,6.78,6.78,0,0,1,2.8,2.5A11.94,11.94,0,0,1,233.4,172.5Z" fill="#ea631d"/><path d="M226.2,205.1A5.54,5.54,0,0,1,225,207l-.2.1a5.61,5.61,0,0,1-3.9,1.6,5,5,0,0,1-2.7-.7l.3-1,.3-1.1.9-3.4a5.24,5.24,0,0,0,1.1,1.9,4.08,4.08,0,0,0,2.5,1.3h.6a1.7,1.7,0,0,0,.7-.1A3,3,0,0,0,226.2,205.1Z" fill="#ea631d"/><path d="M173.2,190.6l13.5,5.8-3,.8-1.5.4-1.7.5-10.6-4.6a3.93,3.93,0,0,1-2.4-3.7v-.2a4,4,0,0,1,2.4-3.7l27.9-12a4.15,4.15,0,0,1,1.6-.3l-26.1,11.2A3,3,0,0,0,172,186a3.33,3.33,0,0,0-.5,1.5v.3A2.7,2.7,0,0,0,173.2,190.6Z" fill="#ea631d"/><path d="M221,197.8l-.1.2c.1-.1.2-.2.3-.2Z" fill="#ea631d"/><path d="M235.6,182.9a18.12,18.12,0,0,1-4.3,4l-.5.3a18,18,0,0,1-3.8,1.6v-1.2a2,2,0,0,1,.4-.8.91.91,0,0,1,.7-.3h.2a17.06,17.06,0,0,0,3.8-1.3,10.91,10.91,0,0,0,1.1-.6l.2-.1A17.68,17.68,0,0,0,235.6,182.9Z" fill="#ea631d"/><path d="M219.9,184.2l.4,3.3a.37.37,0,0,0-.3.1l-1.7.5-1.3.3-.8.2-.3-2.4a3.32,3.32,0,0,1,.9-2.7,3.73,3.73,0,0,1,2.6-1.2h1a2.08,2.08,0,0,0-.5,1.2v.7Z" fill="#ea631d"/><path d="M224.7,194.1a4,4,0,0,1-3.6,3.1l.2-.9.3-1.3.4-1.3.6.3c.3.1.5.1.8.2h.3A2.51,2.51,0,0,0,224.7,194.1Z" fill="#ea631d"/><path d="M203.1,179a4.19,4.19,0,0,1-2.4,2.8l-15.4,6.5a.79.79,0,0,1-.5-.8v-.1a1,1,0,0,1,.6-.9l16.5-6.9Z" fill="#ea631d"/><path d="M239.5,172.5a11.93,11.93,0,0,1-1.6,6c-.1.2-.2.3-.3.5l-.1.1A11.63,11.63,0,0,1,235,182a19.52,19.52,0,0,1-2.3,1.7l-.1.1a3,3,0,0,1-.8.4,17.87,17.87,0,0,1-3.9,1.3,2.13,2.13,0,0,0-1.8,1.7V189l-.1,2.3a2,2,0,0,1-1,1.6,2,2,0,0,1-1.1.3h-.2a1.45,1.45,0,0,1-.7-.2c-.2-.1-.4-.3-.6-.4l.5-2.1a2.33,2.33,0,0,0-.6-2.4,2.07,2.07,0,0,0-1-.6l-.4-3.4v-.3a.9.9,0,0,1,.1-.5c0-.2.2-.4.3-.6a1.61,1.61,0,0,1,1.1-.5,24.58,24.58,0,0,0,2.8-.2,10.25,10.25,0,0,0,3.1-1c.2-.1.3-.1.4-.2a9.68,9.68,0,0,0,4.1-3.6,8.82,8.82,0,0,0,1.4-4.6,9.2,9.2,0,0,0-1.1-4.6,7.49,7.49,0,0,0-3.2-2.9,10.73,10.73,0,0,0-4.9-1,12,12,0,0,0-5.4,1.3l-.1.1a13.93,13.93,0,0,0-1.9,1.5,2.65,2.65,0,0,0-.5.6,2.59,2.59,0,0,1-1.7.9,2.38,2.38,0,0,1-1.2-.3l-.6-.4a2,2,0,0,1-.9-1.3,2.3,2.3,0,0,1,.4-1.4,18,18,0,0,1,1.9-2l.1-.2a9.23,9.23,0,0,1,2.8-1.9l1.5-.6a18.66,18.66,0,0,1,6.1-.9h.2a13.33,13.33,0,0,1,5.4,1,12.31,12.31,0,0,1,4.3,2.8,10.94,10.94,0,0,1,2.9,4.1A12.33,12.33,0,0,1,239.5,172.5Z" fill="#fde298"/><path d="M278.3,184.9l-27.9-12a2.8,2.8,0,0,0-2.8.2c-.2.2-.4.3-.6.5a2.66,2.66,0,0,0-.6,1,3,3,0,0,0-.2,1v.7A3,3,0,0,0,248,179l18.2,8a.87.87,0,0,1,.6.9,1,1,0,0,1-.6.9l-1.4.6-1,.4-15.7,6.6a2.76,2.76,0,0,0-1.5,1.5,2.28,2.28,0,0,0-.3,1.1v.8a3.23,3.23,0,0,0,1.4,2.5,2.39,2.39,0,0,0,1.4.5h.2a3.75,3.75,0,0,0,1.1-.1l26.4-11.4,1.2-.5.2-.1a3.08,3.08,0,0,0,1.8-2.8v-.2A3,3,0,0,0,278.3,184.9Zm1,2.9a2.19,2.19,0,0,1-1.1,1.8h-.1l-.9.4-1,.4-26,11.2a2.15,2.15,0,0,1-1.9-.2,2,2,0,0,1-.9-1.7v-.6a1.27,1.27,0,0,1,.1-.6,2.16,2.16,0,0,1,1.1-1.2l16.2-6.8,1.9-.8a1.95,1.95,0,0,0,0-3.6l-18.2-8a2,2,0,0,1-1.2-1.8v-.7a1.48,1.48,0,0,1,.1-.7,1.85,1.85,0,0,1,.7-.9l.1-.1a2,2,0,0,1,1.1-.3,1.83,1.83,0,0,1,.9.2l27.9,12a2,2,0,0,1,1.2,1.8v.2Z" fill="#4d4d4d"/><path d="M279.3,187.6v.2a2.19,2.19,0,0,1-1.1,1.8h-.1l-.9.4-1,.4-26,11.2a2.15,2.15,0,0,1-1.9-.2,2,2,0,0,1-.9-1.7v-.6a1.27,1.27,0,0,1,.1-.6,2.16,2.16,0,0,1,1.1-1.2l16.2-6.8,1.9-.8a1.95,1.95,0,0,0,0-3.6l-18.2-8a2,2,0,0,1-1.2-1.8v-.7a1.48,1.48,0,0,1,.1-.7,1.85,1.85,0,0,1,.7-.9l.1-.1a2,2,0,0,1,1.1-.3,1.83,1.83,0,0,1,.9.2l27.9,12A2,2,0,0,1,279.3,187.6Z" fill="#fde298"/><path d="M227.4,201.3a3.16,3.16,0,0,1-.8,2.2l-.2.2a2.55,2.55,0,0,1-1.2.8,3.59,3.59,0,0,1-1.1.2H224a3.41,3.41,0,0,1-3.4-3.4,3.19,3.19,0,0,1,.3-1.4,2.66,2.66,0,0,1,.6-1h.2v-.1a3.75,3.75,0,0,1,1.2-.7,3.59,3.59,0,0,1,1.1-.2,3.25,3.25,0,0,1,2.4,1A3.49,3.49,0,0,1,227.4,201.3Z" fill="#fde298"/><path d="M209.3,238.2l-.1.5-.1.5h.3l.1-.5.1-.5Zm0,0-.1.5-.1.5h.3l.1-.5.1-.5Zm0,0-.1.5-.1.5h.3l.1-.5.1-.5Zm0,0-.1.5-.1.5h.3l.1-.5.1-.5Zm0,0-.1.5-.1.5h.3l.1-.5.1-.5Zm0,0-.1.5-.1.5h.3l.1-.5.1-.5Zm0,0-.1.5-.1.5h.3l.1-.5.1-.5Zm0,0-.1.5-.1.5h.3l.1-.5.1-.5Zm0,0-.1.5-.1.5h.3l.1-.5.1-.5Zm0,0-.1.5-.1.5h.3l.1-.5.1-.5Zm0,0-.1.5-.1.5h.3l.1-.5.1-.5Zm0,0-.1.5-.1.5h.3l.1-.5.1-.5Zm0,0-.1.5-.1.5h.3l.1-.5.1-.5Z" fill="#fff"/><path d="M209.3,238.2l-.1.5-.1.5h.9l.1-.5.1-.5Zm0,0-.1.5-.1.5h.9l.1-.5.1-.5Zm0,0-.1.5-.1.5h.9l.1-.5.1-.5Zm0,0-.1.5-.1.5h.9l.1-.5.1-.5Zm0,0-.1.5-.1.5h.9l.1-.5.1-.5Zm0,0-.1.5-.1.5h.9l.1-.5.1-.5Zm0,0-.1.5-.1.5h.9l.1-.5.1-.5Zm0,0-.1.5-.1.5h.9l.1-.5.1-.5Zm0,0-.1.5-.1.5h.9l.1-.5.1-.5Zm0,0-.1.5-.1.5h.9l.1-.5.1-.5Zm0,0-.1.5-.1.5h.9l.1-.5.1-.5Zm0,0-.1.5-.1.5h.9l.1-.5.1-.5Zm0,0-.1.5-.1.5h.9l.1-.5.1-.5Zm0,0-.1.5-.1.5h.9l.1-.5.1-.5Zm0,0-.1.5-.1.5h.9l.1-.5.1-.5Zm0,0-.1.5-.1.5h.9l.1-.5.1-.5Zm0,0-.1.5-.1.5h.9l.1-.5.1-.5Zm0,0-.1.5-.1.5h.9l.1-.5.1-.5Zm0,0-.1.5-.1.5h.9l.1-.5.1-.5Z" fill="#4d4d4d"/><path d="M204.2,175.5v.6a1.89,1.89,0,0,1-.9,1.6c-.1.1-.2.1-.3.2l-.7.3-1.2.5-16.2,6.8a1.67,1.67,0,0,0-1.1,1.2,1.85,1.85,0,0,0,0,1.2,2.18,2.18,0,0,0,.5.8,2.09,2.09,0,0,0,.6.4l10.9,4.8-1.7.4-1.5.4-1.5.4-2.7.7-14.8-6.4a2,2,0,0,1-1.2-1.8v-.2a1.27,1.27,0,0,1,.1-.6,2.16,2.16,0,0,1,1.1-1.2l26.2-11.3,1.3-.5.4-.2a2.35,2.35,0,0,1,.8-.2,2.51,2.51,0,0,1,1,.2A2.62,2.62,0,0,1,204.2,175.5Z" fill="#fde298"/><path d="M338.3,119.4h-225a10,10,0,0,0-10,10V255.8a10,10,0,0,0,10,10h22.6l-23.5,23.4a2.87,2.87,0,0,0-.7,1.8,2.41,2.41,0,0,0,.7,1.8l5.2,5.2a2.57,2.57,0,0,0,1.8.7,2.93,2.93,0,0,0,1.9-.8l32.1-32.1h62v37.8H186.3l-.2.1c-.1,0-.1.1-.2.1s-.3.2-.5.4a16.68,16.68,0,0,0-1.5,1.4c-1.1,1.1-2.6,2.6-4.1,4.2s-2.9,3.2-3.9,4.4c-.5.7-.9,1.2-1.2,1.6a2.19,2.19,0,0,1-.3.5.31.31,0,0,0-.1.2v3h103v-1.9a.6.6,0,0,0-.1-.4,5.92,5.92,0,0,1-.4-.6,12.89,12.89,0,0,0-1.3-1.8c-1.1-1.3-2.5-3-4.1-4.7s-3.2-3.3-4.4-4.4c-.7-.6-1.3-1.1-1.7-1.4a1.76,1.76,0,0,0-.5-.4v-.2H236.1V265.8H338.3a10,10,0,0,0,10-10V129.4A10,10,0,0,0,338.3,119.4Zm9.1,136.4a9,9,0,0,1-9,9H235.2v39.9h29.1c.1,0,.3.2.5.3.4.3.9.8,1.6,1.4,1.2,1.1,2.7,2.6,4.3,4.4s3,3.4,4,4.7c.6.7,1,1.3,1.3,1.7a2.19,2.19,0,0,0,.3.5v.8H175.5V317c.1-.2.2-.3.3-.5.3-.4.7-.9,1.2-1.6,1-1.3,2.3-2.8,3.8-4.4s2.9-3.1,4-4.2a14.27,14.27,0,0,1,1.4-1.3,1.38,1.38,0,0,0,.4-.3h30V264.8H154.4L180,239.2h9.5l13.1,13.1a2.56,2.56,0,0,0,2.4.6,2.52,2.52,0,0,0,1.8-1.8l3.2-11.9h-.9L206,251a1.53,1.53,0,0,1-1.1,1.1,1.6,1.6,0,0,1-1.5-.4l-16.8-16.8a2.61,2.61,0,0,0-3.5,0l-4.4,4.3-25.6,25.6-32.5,32.5a1.45,1.45,0,0,1-2.1,0l-5.2-5.2a2.1,2.1,0,0,1-.4-1.1,1.5,1.5,0,0,1,.4-1.1l62.4-62.4a2.42,2.42,0,0,0,0-3.5l-16.8-16.8a1.42,1.42,0,0,1-.4-1.4,1.53,1.53,0,0,1,1.1-1.1l22.4-6,1.7-.4,1.5-.4,3-.8.8-.2.8-.2,2.7-.7,1.5-.4,1.5-.4,1.7-.4.7-.2.9-.2,17.5-4.7.8-.2,1.3-.3,1.8-.5c.1-.1.1-.1.2-.1h.2a.75.75,0,0,1,.5.1,1.76,1.76,0,0,1,.5.4l.1.1a1.42,1.42,0,0,1,.4,1.4l-.2.8-.3,1-.2.8-.6,2.2-.3,1.2-.2.8-.2.7-.3,1.2-.3,1.2-1.3,4.9-.3,1.3-.3,1.1-8.2,30.7h.9l8.1-30.2.3-1,.3-1.1.9-3.4a5.24,5.24,0,0,0,1.1,1.9,4.08,4.08,0,0,0,2.5,1.3h.6a1.7,1.7,0,0,0,.7-.1,4.28,4.28,0,0,0,1.6-.5,5.55,5.55,0,0,0,.8-.6l.2-.1v-.1a4.82,4.82,0,0,0,1.1-3,4.16,4.16,0,0,0-1.3-3.1,4,4,0,0,0-3.1-1.3,4.39,4.39,0,0,0-2.7.9c-.1.1-.2.1-.3.2l.1-.2.2-.6.2-.9.3-1.3.4-1.3.6.3c.3.1.5.1.8.2h.3c.3,0,.6-.1.9-.1a3.12,3.12,0,0,0,2.1-2.7l.1-2.6v-1.2a2,2,0,0,1,.4-.8.91.91,0,0,1,.7-.3h.2a17.06,17.06,0,0,0,3.8-1.3,10.91,10.91,0,0,0,1.1-.6l.2-.1a11.6,11.6,0,0,0,2.1-1.6,17.5,17.5,0,0,0,2.8-3.3l.1-.1a12.9,12.9,0,0,0,2-6.9,13,13,0,0,0-1.1-5.6,13.94,13.94,0,0,0-3.1-4.5,13.1,13.1,0,0,0-4.6-3,15.75,15.75,0,0,0-5.8-1.1,18.34,18.34,0,0,0-6.6,1c-.1,0-.2.1-.3.1a10.48,10.48,0,0,0-3.8,2.3c-.1.1-.3.2-.4.4-.7.7-1.4,1.5-2.1,2.3-.1.2-.3.3-.3.5a3.23,3.23,0,0,0-.3,1.7,3,3,0,0,0,1.3,2l.6.4a4.88,4.88,0,0,0,.7.3,2.46,2.46,0,0,0,1.2.1,3.47,3.47,0,0,0,2.3-1.2c.1-.2.3-.3.4-.5a7.46,7.46,0,0,1,1.7-1.4l.1-.1a8.21,8.21,0,0,1,4.8-1.3,9.86,9.86,0,0,1,4.4.9,6.78,6.78,0,0,1,2.8,2.5,7.56,7.56,0,0,1,1,4.1,7.1,7.1,0,0,1-1.3,4.1,7.28,7.28,0,0,1-1.7,1.8,19.08,19.08,0,0,1-2.1,1.5.76.76,0,0,1-.4.2,14,14,0,0,1-2.9.9,21.12,21.12,0,0,1-2.6.2,2.5,2.5,0,0,0-1.8.8.35.35,0,0,0-.1.2,2.08,2.08,0,0,0-.5,1.2v.8l.4,3.3a.37.37,0,0,0-.3.1l-1.7.5-1.3.3-.8.2-18.8,5-11.9-5.3a.79.79,0,0,1-.5-.8v-.1a1,1,0,0,1,.6-.9l16.5-6.9,1.3-.5.3-.1a3.08,3.08,0,0,0,1.8-2.8v-.6a3.23,3.23,0,0,0-1.4-2.5,3.07,3.07,0,0,0-2.8-.2l-1.8.8-26.1,11.2a3,3,0,0,0-1.3,1.2,3.33,3.33,0,0,0-.5,1.5v.3a3.08,3.08,0,0,0,1.8,2.8l13.5,5.8-3,.8-1.5.4-1.7.5-21,5.6a2.52,2.52,0,0,0-1.8,1.8,2.33,2.33,0,0,0,.6,2.4l16.8,16.8a1.45,1.45,0,0,1,0,2.1l-11.9,11H120.7a.94.94,0,0,1-1-1V134.9a.94.94,0,0,1,1-1H330.6a.94.94,0,0,1,1,1V237.2a.94.94,0,0,1-1,1H210.2l-.1.5-.1.5H330.7a2,2,0,0,0,2-2V134.9a2,2,0,0,0-2-2h-210a2,2,0,0,0-2,2V237.2a2,2,0,0,0,2,2h41.8l-25.7,25.6H113.3a9,9,0,0,1-9-9V129.4a9,9,0,0,1,9-9h225a9,9,0,0,1,9,9l.1,126.4ZM181,238.2l2.7-2.7a1.45,1.45,0,0,1,2.1,0l2.7,2.7Zm2.7-50.3a2.18,2.18,0,0,0,.5.8,2.09,2.09,0,0,0,.6.4l10.9,4.8-1.7.4-1.5.4-1.5.4-2.7.7-14.8-6.4a2,2,0,0,1-1.2-1.8v-.2a1.27,1.27,0,0,1,.1-.6,2.16,2.16,0,0,1,1.1-1.2l26.2-11.3,1.3-.5.4-.2a2.35,2.35,0,0,1,.8-.2,2.51,2.51,0,0,1,1,.2,2,2,0,0,1,.9,1.7v.6a1.89,1.89,0,0,1-.9,1.6c-.1.1-.2.1-.3.2l-.7.3-1.2.5-16.2,6.8a1.67,1.67,0,0,0-1.1,1.2,1.27,1.27,0,0,0-.1.6A2.81,2.81,0,0,1,183.7,187.9Zm38.7.2a2.07,2.07,0,0,0-1-.6l-.4-3.4v-.3a.9.9,0,0,1,.1-.5c0-.2.2-.4.3-.6a1.61,1.61,0,0,1,1.1-.5,24.58,24.58,0,0,0,2.8-.2,10.25,10.25,0,0,0,3.1-1c.2-.1.3-.1.4-.2a9.68,9.68,0,0,0,4.1-3.6,8.82,8.82,0,0,0,1.4-4.6,9.2,9.2,0,0,0-1.1-4.6,7.49,7.49,0,0,0-3.2-2.9,10.73,10.73,0,0,0-4.9-1,12,12,0,0,0-5.4,1.3l-.1.1a13.93,13.93,0,0,0-1.9,1.5,2.65,2.65,0,0,0-.5.6,2.59,2.59,0,0,1-1.7.9,2.38,2.38,0,0,1-1.2-.3l-.6-.4a2,2,0,0,1-.9-1.3,2.3,2.3,0,0,1,.4-1.4,18,18,0,0,1,1.9-2l.1-.2A9.23,9.23,0,0,1,218,161l1.5-.6a18.66,18.66,0,0,1,6.1-.9h.2a13.33,13.33,0,0,1,5.4,1,12.31,12.31,0,0,1,4.3,2.8,10.94,10.94,0,0,1,2.9,4.1,12.74,12.74,0,0,1,1.1,5.2,11.93,11.93,0,0,1-1.6,6c-.1.2-.2.3-.3.5l-.1.1a11.63,11.63,0,0,1-2.5,2.9,19.52,19.52,0,0,1-2.3,1.7l-.1.1a3,3,0,0,1-.8.4,17.87,17.87,0,0,1-3.9,1.3,2.13,2.13,0,0,0-1.8,1.7v1.8l-.1,2.3a2,2,0,0,1-1,1.6,2,2,0,0,1-1.1.3h-.2a1.45,1.45,0,0,1-.7-.2c-.2-.1-.4-.3-.6-.4l.5-2.1A2.43,2.43,0,0,0,222.4,188.1Zm-1.6,11.8a2.66,2.66,0,0,1,.6-1h.2v-.1a3.75,3.75,0,0,1,1.2-.7,3.59,3.59,0,0,1,1.1-.2,3.25,3.25,0,0,1,2.4,1,3.1,3.1,0,0,1,1,2.4,3.16,3.16,0,0,1-.8,2.2l-.2.2a2.55,2.55,0,0,1-1.2.8,3.59,3.59,0,0,1-1.1.2h-.1a3.41,3.41,0,0,1-3.4-3.4A3.19,3.19,0,0,1,220.8,199.9Z" fill="#4d4d4d"/><path d="M222,190.4l-.2.8-.3,1-.2.8-.6,2.2-.3,1.2-.2.8-.2.7-.3,1.2-.3,1.2-1.3,4.9-.3,1.3-.3,1.1-8.2,30.7-.1.5-.1.5L206,251.1a1.53,1.53,0,0,1-1.1,1.1,1.6,1.6,0,0,1-1.5-.4L186.6,235a2.61,2.61,0,0,0-3.5,0l-4.4,4.2-25.6,25.6-32.5,32.5a1.45,1.45,0,0,1-2.1,0l-5.2-5.2a2.1,2.1,0,0,1-.4-1.1,1.5,1.5,0,0,1,.4-1.1l62.4-62.4a2.42,2.42,0,0,0,0-3.5l-16.8-16.8a1.42,1.42,0,0,1-.4-1.4,1.53,1.53,0,0,1,1.1-1.1l22.4-6,1.7-.4,1.5-.4,3-.8.8-.2.8-.2,2.7-.7,1.5-.4,1.5-.4,1.7-.4.7-.2.9-.2,17.5-4.7.8-.2,1.3-.3,1.8-.5c.1-.1.1-.1.2-.1h.2a.75.75,0,0,1,.5.1,1.76,1.76,0,0,1,.5.4l.1.1C222,189.3,222.2,189.9,222,190.4Z" fill="#fff"/></g></g></svg>