<?xml version="1.0" encoding="utf-8"?>
<!-- Generator: Adobe Illustrator 19.1.1, SVG Export Plug-In . SVG Version: 6.00 Build 0)  -->
<svg version="1.1" id="Layer_1" xmlns="http://www.w3.org/2000/svg" xmlns:xlink="http://www.w3.org/1999/xlink" x="0px" y="0px"
	 viewBox="-36 264 72 72" style="enable-background:new -36 264 72 72;" xml:space="preserve">
<style type="text/css">
	.st0{opacity:0.6;fill:#1E3264;}
	.st1{fill:#1E3264;}
	.st2{fill:#FABE3C;}
	.st3{fill-rule:evenodd;clip-rule:evenodd;fill:none;stroke:#1E3264;stroke-miterlimit:10;}
	.st4{fill-rule:evenodd;clip-rule:evenodd;fill:#1E3264;}
	.st5{fill-rule:evenodd;clip-rule:evenodd;fill:#FABE3C;}
	.st6{fill-rule:evenodd;clip-rule:evenodd;fill:#FFFFFF;}
	.st7{opacity:0.6;fill-rule:evenodd;clip-rule:evenodd;fill:#1E3264;}
	.st8{fill-rule:evenodd;clip-rule:evenodd;fill:none;stroke:#1E3264;stroke-miterlimit:10;}
	.st9{fill:none;stroke:#1E3264;stroke-miterlimit:10;}
</style>
<circle id="XMLID_493_" class="st0" cx="-26.8" cy="285.5" r="1.6"/>
<circle id="XMLID_492_" class="st1" cx="-32.2" cy="287.7" r="2.2"/>
<circle id="XMLID_491_" class="st2" cx="-30.1" cy="281.2" r="1.1"/>
<circle id="XMLID_496_" class="st1" cx="-12.6" cy="280.7" r="1.5"/>
<circle id="XMLID_495_" class="st2" cx="-7.5" cy="282.7" r="2"/>
<circle id="XMLID_494_" class="st0" cx="-9.5" cy="276.7" r="1"/>
<g id="XMLID_480_">
	<polygon id="XMLID_490_" class="st3" points="-31,311.4 -30.3,311.4 -31.4,326.2 -34,326.2 	"/>
	<polygon id="XMLID_489_" class="st3" points="-28.6,311.4 -27.9,311.4 -28.3,326.2 -31,326.2 	"/>
	<polygon id="XMLID_488_" class="st3" points="-26,311.4 -25.2,311.4 -25.3,326.2 -28,326.2 	"/>
	<polygon id="XMLID_487_" class="st3" points="-23.4,311.4 -22.6,311.4 -22.3,326.2 -24.9,326.2 	"/>
	<polygon id="XMLID_486_" class="st3" points="-20.7,311.4 -20,311.4 -19.2,326.2 -21.9,326.2 	"/>
	<polygon id="XMLID_485_" class="st3" points="-18.1,311.4 -17.3,311.4 -16.2,326.2 -18.9,326.2 	"/>
	<polygon id="XMLID_484_" class="st3" points="-15.5,311.4 -14.7,311.4 -13.1,326.2 -15.8,326.2 	"/>
	<polygon id="XMLID_483_" class="st3" points="-12.8,311.4 -12.1,311.4 -10.1,326.2 -12.8,326.2 	"/>
	<polygon id="XMLID_482_" class="st3" points="-10.4,311.4 -9.7,311.4 -7.1,326.2 -9.7,326.2 	"/>
	<polygon id="XMLID_481_" class="st3" points="-7.8,313.5 -7,313.5 -4,326.2 -6.7,326.2 	"/>
</g>
<polygon id="XMLID_476_" class="st4" points="1.9,280.7 1.9,281.2 -4,280.9 -4,279 "/>
<polygon id="XMLID_475_" class="st4" points="1.9,282.4 1.9,283 -4,283.1 -4,281.2 "/>
<polygon id="XMLID_474_" class="st4" points="1.9,284.5 1.9,285 -4,285.2 -4,283.3 "/>
<polygon id="XMLID_473_" class="st4" points="1.9,286.4 1.9,286.9 -4,287.3 -4,285.5 "/>
<polygon id="XMLID_472_" class="st5" points="1.9,288.4 1.9,288.9 -4,289.5 -4,287.6 "/>
<polygon id="XMLID_471_" class="st5" points="1.9,290.4 1.9,290.9 -4,291.6 -4,289.7 "/>
<polygon id="XMLID_470_" class="st5" points="1.9,292.6 1.9,293.1 -4,293.8 -4,291.9 "/>
<polygon id="XMLID_469_" class="st5" points="1.9,294.6 1.9,295.1 -4,295.9 -4,294 "/>
<polygon id="XMLID_468_" class="st4" points="1.9,296.5 1.9,297.1 -4,298 -4,296.2 "/>
<polygon id="XMLID_467_" class="st4" points="1.9,298.5 1.9,299 -4,300.2 -4,298.3 "/>
<polygon id="XMLID_465_" class="st4" points="1.9,300.5 1.9,301.1 -4,302.3 -4,300.4 "/>
<polygon id="XMLID_464_" class="st4" points="1.9,302.3 1.9,302.8 -4,304.5 -4,302.6 "/>
<path id="XMLID_460_" class="st5" d="M5.5,308.4c0.4,0,0.5,0.1,0.6,1c0,0.5,0,0.2,0,0.4c0.3-0.3,0.4-0.8,0.2-1.2L4.2,304
	c0,0,0,0,0,0v-24.2c0-0.6-0.5-1.1-1.1-1.1c-0.6,0-1.1,0.5-1.1,1.1v24.4c0,0.2,0.1,0.4,0.1,0.6c0,0.1,0,0.1,0.1,0.2l2.1,4.6
	c0.1,0.3,0.2,0.4,0.5,0.5c0-0.1-0.3-1.1-0.3-1.2"/>
<ellipse id="XMLID_478_" class="st6" cx="-18.1" cy="284.4" rx="0.9" ry="2"/>
<polygon id="XMLID_452_" class="st7" points="27.6,308.1 29.6,308.1 31,309.1 31.7,310.4 32,323.9 28.8,323.8 "/>
<path id="XMLID_508_" class="st8" d="M20.6,303.3v-30.5c0-0.6,0.5-1.1,1.1-1.1c0.6,0,1.1,0.5,1.1,1.1v30.5"/>
<path id="XMLID_453_" class="st4" d="M33.5,324.7H10.3v0.6c0,0.6,0.5,1.1,1.1,1.1h21.1c0.6,0,1.1-0.5,1.1-1.1V324.7z"/>
<path id="XMLID_448_" class="st5" d="M29.5,323.9h0.3l-0.4-12.8c0-0.8-0.4-1.6-0.9-2.2c-0.5-0.5-1.3-0.9-2.1-0.9H15.1
	c-0.8,0-1.6,0.3-2.1,0.9c-0.6,0.6-0.9,1.3-0.9,2.2l-0.4,12.8H29.5z"/>
<path id="XMLID_450_" class="st1" d="M32.5,324.3H11.3l0.4-13.2c0-0.9,0.4-1.8,1-2.4c0.6-0.6,1.5-1,2.4-1h13.6c0.9,0,1.7,0.4,2.4,1
	c0.6,0.6,1,1.5,1,2.4L32.5,324.3z M12.1,323.5h19.6l-0.4-12.4c0-0.7-0.3-1.4-0.8-1.9c-0.5-0.5-1.1-0.8-1.8-0.8H15.1
	c-0.7,0-1.3,0.3-1.8,0.8c-0.5,0.5-0.8,1.2-0.8,1.9L12.1,323.5z"/>
<path id="XMLID_391_" class="st4" d="M20.9,300.8c0.4-0.6,1.3-0.6,1.7-0.1c4.7,6.2,12.6,3.1,12.1,12.8l-0.6,10.7H33l-0.4-13.4
	c0-1-0.4-1.9-1.1-2.5c-0.6-0.6-1.5-1-2.5-1H14.8c-1,0-1.8,0.4-2.5,1c-0.6,0.6-1,1.5-1.1,2.5l-0.4,13.4H9.6L9,313.5
	C8.5,303.6,16.6,307.1,20.9,300.8z"/>
<path id="XMLID_461_" class="st9" d="M5.4,326.3L5.4,326.3c0.5,0,0.9-0.4,0.9-0.9v-16.1c0-0.5-0.4-0.9-0.9-0.9h0
	c-0.5,0-0.9,0.4-0.9,0.9v16.1C4.5,325.9,4.9,326.3,5.4,326.3z"/>
<path id="XMLID_517_" class="st2" d="M-21.8,278.5V300c0,0-0.7,9.8-10.3,9.8l-0.8,4.6h27.7l-1.5-4.6c0,0-10,1.4-10-9.8v-21.6
	L-21.8,278.5z"/>
<path id="XMLID_615_" class="st1" d="M-4.7,314.8h-28.7l0.9-5.3h0.3c9.1,0,9.9-9.1,9.9-9.5l0-21.9l5.8,0v22c0,3.4,0.9,5.9,2.8,7.5
	c2.8,2.4,6.8,1.9,6.8,1.9l0.3,0L-4.7,314.8z M-32.4,314h26.7l-1.3-3.8c-1.1,0.1-4.5,0.1-7.1-2.1c-2-1.8-3-4.5-3-8.1v-21.2l-4.2,0
	V300c0,0.1-0.8,10-10.4,10.2L-32.4,314z"/>
</svg>
