<svg xmlns="http://www.w3.org/2000/svg" viewBox="0 0 439 439"><title>Asset 2</title><g id="Layer_2" data-name="Layer 2"><g id="Слой_1" data-name="Слой 1"><path d="M219.5,0C98.3,0,0,98.3,0,219.5S98.3,439,219.5,439,439,340.7,439,219.5,340.7,0,219.5,0Zm130,262-158,91.2a10.89,10.89,0,0,1-5.4,1.4,10.57,10.57,0,0,1-9.1-5.2l-91.2-158a10.46,10.46,0,0,1,3.8-14.3l55.1-31.8v-.1l48-27.7v.1l3.6-2.1a10.64,10.64,0,0,1,8-1.1l81,21.7a10.52,10.52,0,0,1,6.4,4.9l61.6,106.7A10.44,10.44,0,0,1,349.5,262Z" fill="#fff"/><path d="M353.3,247.7,291.7,141a10.52,10.52,0,0,0-6.4-4.9l-81-21.7a10.64,10.64,0,0,0-8,1.1l-3.6,2.1v-.1l-48,27.7v.1L89.6,177.1a10.46,10.46,0,0,0-3.8,14.3l91.2,158a10.57,10.57,0,0,0,9.1,5.2,10.89,10.89,0,0,0,5.4-1.4l158-91.2A10.44,10.44,0,0,0,353.3,247.7Zm-161-128.8,28.9,50a9.57,9.57,0,0,1-3.5,13l-29.8,17.2a9.09,9.09,0,0,1-7.2,1,9.21,9.21,0,0,1-5.8-4.4L146,145.6Zm22,219.9-38.8-67.2a9.57,9.57,0,0,1,3.4-13l94.7-54.7a9.57,9.57,0,0,1,13,3.5l38.8,67.2Zm134.5-77.6-22.5,13-38.9-67.3a10.46,10.46,0,0,0-14.3-3.8l-94.7,54.7a10.44,10.44,0,0,0-3.8,14.3l38.8,67.3-22.6,13a9.57,9.57,0,0,1-13-3.5l-91.2-158a9.57,9.57,0,0,1,3.5-13l55.1-31.8,28.9,50a10.52,10.52,0,0,0,6.4,4.9,8.42,8.42,0,0,0,2.7.4,10.4,10.4,0,0,0,5.3-1.5l29.8-17.2a10.44,10.44,0,0,0,3.8-14.3l-28.9-50,3.6-2.1a8.78,8.78,0,0,1,4.7-1.3,6.9,6.9,0,0,1,2.5.4l81,21.7a9.21,9.21,0,0,1,5.8,4.4l61.5,106.7A9.57,9.57,0,0,1,348.8,261.2Z" fill="#4d4d4d"/><path d="M352.3,248.2,290.8,141.5a9.21,9.21,0,0,0-5.8-4.4l-81-21.7a6.9,6.9,0,0,0-2.5-.4,8.78,8.78,0,0,0-4.7,1.3l-3.6,2.1,28.9,50a10.44,10.44,0,0,1-3.8,14.3l-29.8,17.2a10.4,10.4,0,0,1-5.3,1.5,8.42,8.42,0,0,1-2.7-.4,10.52,10.52,0,0,1-6.4-4.9l-28.9-50L90.1,177.9a9.57,9.57,0,0,0-3.5,13l91.2,158a9.57,9.57,0,0,0,13,3.5l22.6-13-38.8-67.3a10.44,10.44,0,0,1,3.8-14.3l94.7-54.7a10.46,10.46,0,0,1,14.3,3.8l38.9,67.3,22.5-13A9.57,9.57,0,0,0,352.3,248.2ZM101.5,193.3a5.27,5.27,0,1,1,1.9-7.2A5.17,5.17,0,0,1,101.5,193.3Zm81.7,141.3a5.37,5.37,0,0,1,7.3,1.9,5.23,5.23,0,0,1-1.9,7.2,5.37,5.37,0,0,1-7.3-1.9A5.15,5.15,0,0,1,183.2,334.6Zm159.4-79.9a5.27,5.27,0,1,1,1.9-7.2A5.17,5.17,0,0,1,342.6,254.7Z" fill="#00697a"/><path d="M217.7,181.9l-29.8,17.2a9.09,9.09,0,0,1-7.2,1,9.21,9.21,0,0,1-5.8-4.4L146,145.6l46.3-26.8,28.9,50A9.67,9.67,0,0,1,217.7,181.9Z" fill="#fde298"/><path d="M101.5,193.3a5.27,5.27,0,1,1,1.9-7.2A5.17,5.17,0,0,1,101.5,193.3Z" fill="#ffd14a"/><path d="M188.5,343.7a5.37,5.37,0,0,1-7.3-1.9,5.23,5.23,0,0,1,1.9-7.2,5.37,5.37,0,0,1,7.3,1.9A5.23,5.23,0,0,1,188.5,343.7Z" fill="#ffd14a"/><path d="M342.6,254.7a5.27,5.27,0,1,1,1.9-7.2A5.17,5.17,0,0,1,342.6,254.7Z" fill="#ffd14a"/><path d="M286.6,207.4a9.57,9.57,0,0,0-13-3.5l-94.7,54.7a9.57,9.57,0,0,0-3.4,13l38.8,67.2,111.1-64.2ZM284,282.5l-64.7,37.2a.75.75,0,0,1-.5.1,1.19,1.19,0,0,1-.9-.5,1,1,0,0,1,.4-1.4L283,280.7a1,1,0,1,1,1,1.8Zm7.8-19.4-79,45.8a4.33,4.33,0,0,1-.5.1,1.19,1.19,0,0,1-.9-.5,1,1,0,0,1,.4-1.4l79-45.8a1,1,0,0,1,1,1.8Z" fill="#fde298"/><path d="M284,282.5l-64.7,37.2a.75.75,0,0,1-.5.1,1.19,1.19,0,0,1-.9-.5,1,1,0,0,1,.4-1.4L283,280.7a1,1,0,1,1,1,1.8Z" fill="#ffd14a"/><path d="M291.8,263.1l-79,45.8a4.33,4.33,0,0,1-.5.1,1.19,1.19,0,0,1-.9-.5,1,1,0,0,1,.4-1.4l79-45.8a1,1,0,0,1,1,1.8Z" fill="#ffd14a"/></g></g></svg>