<?xml version="1.0" encoding="utf-8"?>
<!-- Generator: Adobe Illustrator 19.1.1, SVG Export Plug-In . SVG Version: 6.00 Build 0)  -->
<svg version="1.1" id="Layer_1" xmlns="http://www.w3.org/2000/svg" xmlns:xlink="http://www.w3.org/1999/xlink" x="0px" y="0px"
	 viewBox="-443 245 72 72" style="enable-background:new -443 245 72 72;" xml:space="preserve">
<style type="text/css">
	.st0{fill-rule:evenodd;clip-rule:evenodd;fill:none;stroke:#1E3264;stroke-miterlimit:10;}
	.st1{fill-rule:evenodd;clip-rule:evenodd;fill:#FFFFFF;}
	.st2{fill:#FABE3C;}
	.st3{fill:#1E3264;}
</style>
<g id="XMLID_24_">
	<polygon id="XMLID_34_" class="st0" points="-438.3,293.6 -437.6,293.6 -438.6,308.4 -441.3,308.4 	"/>
	<polygon id="XMLID_33_" class="st0" points="-435.9,293.6 -435.1,293.6 -435.6,308.4 -438.3,308.4 	"/>
	<polygon id="XMLID_32_" class="st0" points="-433.2,293.6 -432.5,293.6 -432.5,308.4 -435.2,308.4 	"/>
	<polygon id="XMLID_31_" class="st0" points="-430.6,293.6 -429.9,293.6 -429.5,308.4 -432.2,308.4 	"/>
	<polygon id="XMLID_30_" class="st0" points="-428,293.6 -427.2,293.6 -426.5,308.4 -429.2,308.4 	"/>
	<polygon id="XMLID_29_" class="st0" points="-425.3,293.6 -424.6,293.6 -423.4,308.4 -426.1,308.4 	"/>
	<polygon id="XMLID_28_" class="st0" points="-422.7,293.6 -422,293.6 -420.4,308.4 -423.1,308.4 	"/>
	<polygon id="XMLID_27_" class="st0" points="-420.1,293.6 -419.3,293.6 -417.4,308.4 -420,308.4 	"/>
	<polygon id="XMLID_26_" class="st0" points="-417.7,293.6 -416.9,293.6 -414.3,308.4 -417,308.4 	"/>
	<polygon id="XMLID_25_" class="st0" points="-415,295.7 -414.3,295.7 -411.3,308.4 -414,308.4 	"/>
</g>
<ellipse id="XMLID_10_" class="st1" cx="-425.4" cy="266.6" rx="0.9" ry="2"/>
<path id="XMLID_2_" class="st2" d="M-429,260.7v21.5c0,0-0.7,9.8-10.3,9.8l-0.8,4.6h27.7l-1.5-4.6c0,0-10,1.4-10-9.8v-21.6
	L-429,260.7z"/>
<path id="XMLID_1_" class="st3" d="M-411.9,297h-28.7l0.9-5.3h0.3c9.1,0,9.9-9.1,9.9-9.5l0-21.9l5.8,0v22c0,3.4,0.9,5.9,2.8,7.5
	c2.8,2.4,6.8,1.9,6.8,1.9l0.3,0L-411.9,297z M-439.7,296.2h26.7l-1.3-3.8c-1.1,0.1-4.5,0.1-7.1-2.1c-2-1.8-3-4.5-3-8.1V261l-4.2,0
	v21.2c0,0.1-0.8,10-10.4,10.2L-439.7,296.2z"/>
</svg>
