<?xml version="1.0" encoding="utf-8"?>
<!-- Generator: Adobe Illustrator 19.1.1, SVG Export Plug-In . SVG Version: 6.00 Build 0)  -->
<svg version="1.1" id="Layer_1" xmlns="http://www.w3.org/2000/svg" xmlns:xlink="http://www.w3.org/1999/xlink" x="0px" y="0px"
	 viewBox="-443 245 72 72" style="enable-background:new -443 245 72 72;" xml:space="preserve">
<style type="text/css">
	.st0{opacity:0.6;fill-rule:evenodd;clip-rule:evenodd;fill:#1E3264;}
	.st1{fill-rule:evenodd;clip-rule:evenodd;fill:none;stroke:#FABE3C;stroke-miterlimit:10;}
	.st2{fill-rule:evenodd;clip-rule:evenodd;fill:#1E3264;}
	.st3{fill-rule:evenodd;clip-rule:evenodd;fill:#FABE3C;}
	.st4{fill:#1E3264;}
</style>
<polygon id="XMLID_9_" class="st0" points="-379.6,290.3 -377.7,290.3 -376.2,291.4 -375.6,292.6 -375.3,306.1 -378.4,306 "/>
<path id="XMLID_8_" class="st1" d="M-386.6,285.5v-30.5c0-0.6,0.5-1.1,1.1-1.1c0.6,0,1.1,0.5,1.1,1.1v30.5"/>
<path id="XMLID_7_" class="st2" d="M-373.8,306.9H-397v0.6c0,0.6,0.5,1.1,1.1,1.1h21.1c0.6,0,1.1-0.5,1.1-1.1V306.9z"/>
<path id="XMLID_6_" class="st3" d="M-377.7,306.1h0.3l-0.4-12.8c0-0.8-0.4-1.6-0.9-2.2c-0.5-0.5-1.3-0.9-2.1-0.9h-11.3
	c-0.8,0-1.6,0.3-2.1,0.9c-0.6,0.6-0.9,1.3-0.9,2.2l-0.4,12.8H-377.7z"/>
<path id="XMLID_5_" class="st4" d="M-374.8,306.5H-396l0.4-13.2c0-0.9,0.4-1.8,1-2.4c0.6-0.6,1.5-1,2.4-1h13.6c0.9,0,1.7,0.4,2.4,1
	c0.6,0.6,1,1.5,1,2.4L-374.8,306.5z M-395.2,305.7h19.6l-0.4-12.4c0-0.7-0.3-1.4-0.8-1.9c-0.5-0.5-1.1-0.8-1.8-0.8h-13.6
	c-0.7,0-1.3,0.3-1.8,0.8c-0.5,0.5-0.8,1.2-0.8,1.9L-395.2,305.7z"/>
<path id="XMLID_4_" class="st2" d="M-386.3,283c0.4-0.6,1.3-0.6,1.7-0.1c4.7,6.2,12.6,3.1,12.1,12.8l-0.6,10.7h-1.2l-0.4-13.4
	c0-1-0.4-1.9-1.1-2.5c-0.6-0.6-1.5-1-2.5-1h-14.3c-1,0-1.8,0.4-2.5,1c-0.6,0.6-1,1.5-1.1,2.5l-0.4,13.4h-1.2l-0.6-10.7
	C-398.7,285.9-390.7,289.3-386.3,283z"/>
</svg>
