<?xml version="1.0" encoding="utf-8"?>
<!-- Generator: Adobe Illustrator 19.1.1, SVG Export Plug-In . SVG Version: 6.00 Build 0)  -->
<svg version="1.1" id="Layer_1" xmlns="http://www.w3.org/2000/svg" xmlns:xlink="http://www.w3.org/1999/xlink" x="0px" y="0px"
	 viewBox="0 0 71 71" style="enable-background:new 0 0 71 71;" xml:space="preserve">
<style type="text/css">
	.st0{fill-rule:evenodd;clip-rule:evenodd;fill:none;stroke:#1E3264;stroke-miterlimit:10;}
	.st1{opacity:0.6;fill:#1E3264;}
	.st2{fill:#FABE3C;}
	.st3{fill:#1E3264;}
	.st4{fill:none;stroke:#1E3264;stroke-miterlimit:10;}
	.st5{fill:none;stroke:#FABE3C;stroke-miterlimit:10;}
</style>
<path id="XMLID_666_" class="st0" d="M9.1,17h8.6v-0.7c0-0.7-0.6-1.3-1.3-1.3h-5.9c-0.7,0-1.3,0.6-1.3,1.3V17z"/>
<polygon id="XMLID_655_" class="st1" points="19.1,17 21.6,17 22.6,17.6 33.4,49.5 34.6,53.2 34.9,60.8 32.1,60.8 27.7,47.7 "/>
<rect id="XMLID_667_" x="38" y="29.4" class="st1" width="31.5" height="3.6"/>
<path id="XMLID_656_" class="st2" d="M1.3,53.8V18.7c0-1.1,0.9-2,2-2h15.8c0.8,0,1.6,0.5,1.9,1.3l11.8,35.1c0.1,0.4,0.2,0.8,0.2,1.3
	v6.1H1.3V53.8z"/>
<path id="XMLID_669_" class="st3" d="M35.3,61.1H2.8V18.9c0-1.3,1-2.3,2.3-2.3H21c1,0,1.9,0.6,2.2,1.6l11.8,35.1
	c0.1,0.4,0.2,0.9,0.2,1.4V61.1z M3.5,60.4h31v-5.7c0-0.4-0.1-0.8-0.2-1.1L22.5,18.4c-0.2-0.7-0.8-1.1-1.5-1.1H5.2
	c-0.9,0-1.6,0.7-1.6,1.6V60.4z"/>
<line id="XMLID_672_" class="st4" x1="34.9" y1="54.3" x2="3.5" y2="54.3"/>
<polyline id="XMLID_434_" class="st4" points="17.7,17 29.9,54.3 29.9,60.8 "/>
<path id="XMLID_624_" class="st2" d="M69.5,31.4H38v7.3c0,1.1,0.9,2,2,2h27.6c1.1,0,2-0.9,2-2V31.4z"/>
<line id="XMLID_679_" class="st5" x1="69.5" y1="48.5" x2="38" y2="48.5"/>
<line id="XMLID_678_" class="st5" x1="53.8" y1="40.4" x2="53.8" y2="61.1"/>
<path id="XMLID_673_" class="st4" d="M40.8,61.1h25.9c1.6,0,2.8-1.3,2.8-2.8V31.4H38v26.8C38,59.8,39.3,61.1,40.8,61.1z"/>
<path id="XMLID_668_" class="st3" d="M67.4,41.1H40c-1.3,0-2.3-1-2.3-2.3v-9.4h32v9.4C69.7,40,68.7,41.1,67.4,41.1z M38.4,30.1v8.7
	c0,0.9,0.7,1.6,1.6,1.6h27.4c0.9,0,1.6-0.7,1.6-1.6v-8.7H38.4z"/>
<rect id="XMLID_677_" x="50.3" y="36" class="st3" width="6.9" height="4.7"/>
</svg>
