<?xml version="1.0" encoding="utf-8"?>
<!-- Generator: Adobe Illustrator 19.1.1, SVG Export Plug-In . SVG Version: 6.00 Build 0)  -->
<svg version="1.1" id="Layer_1" xmlns="http://www.w3.org/2000/svg" xmlns:xlink="http://www.w3.org/1999/xlink" x="0px" y="0px"
	 viewBox="-479.5 280.5 71 71" style="enable-background:new -479.5 280.5 71 71;" xml:space="preserve">
<style type="text/css">
	.st0{fill:none;stroke:#1E3264;stroke-miterlimit:10;}
	.st1{opacity:0.6;fill:#1E3264;enable-background:new    ;}
	.st2{fill:#FABE3C;}
	.st3{fill:#1E3264;}
</style>
<path id="XMLID_666_" class="st0" d="M-470.4,297.5h8.6v-0.7c0-0.7-0.6-1.3-1.3-1.3h-5.9c-0.7,0-1.3,0.6-1.3,1.3v0.7H-470.4z"/>
<polygon id="XMLID_655_" class="st1" points="-460.4,297.5 -457.9,297.5 -456.9,298.1 -446.1,330 -444.9,333.7 -444.6,341.3 
	-447.4,341.3 -451.8,328.2 "/>
<path id="XMLID_656_" class="st2" d="M-478.2,334.3v-35.1c0-1.1,0.9-2,2-2h15.8c0.8,0,1.6,0.5,1.9,1.3l11.8,35.1
	c0.1,0.4,0.2,0.8,0.2,1.3v6.1h-31.7V334.3z"/>
<path id="XMLID_669_" class="st3" d="M-444.2,341.6h-32.5v-42.2c0-1.3,1-2.3,2.3-2.3h15.9c1,0,1.9,0.6,2.2,1.6l11.8,35.1
	c0.1,0.4,0.2,0.9,0.2,1.4L-444.2,341.6L-444.2,341.6z M-476,340.9h31v-5.7c0-0.4-0.1-0.8-0.2-1.1l-11.8-35.2
	c-0.2-0.7-0.8-1.1-1.5-1.1h-15.8c-0.9,0-1.6,0.7-1.6,1.6v41.5H-476z"/>
<line id="XMLID_672_" class="st0" x1="-444.6" y1="334.8" x2="-476" y2="334.8"/>
<polyline id="XMLID_434_" class="st0" points="-461.8,297.5 -449.6,334.8 -449.6,341.3 "/>
</svg>
