<?xml version="1.0" encoding="utf-8"?>
<!-- Generator: Adobe Illustrator 19.1.1, SVG Export Plug-In . SVG Version: 6.00 Build 0)  -->
<svg version="1.1" id="Layer_1" xmlns="http://www.w3.org/2000/svg" xmlns:xlink="http://www.w3.org/1999/xlink" x="0px" y="0px"
	 viewBox="-440 242 78 78" style="enable-background:new -440 242 78 78;" xml:space="preserve">
<style type="text/css">
	.st0{fill:none;stroke:#1E3264;stroke-miterlimit:10;}
	.st1{opacity:0.6;fill:#1E3264;}
	.st2{opacity:0.6;fill:#233662;}
	.st3{fill:#FABE3C;}
	.st4{fill-rule:evenodd;clip-rule:evenodd;fill:#1E3264;}
	.st5{fill-rule:evenodd;clip-rule:evenodd;fill:#FABE3C;}
	.st6{opacity:0.6;fill-rule:evenodd;clip-rule:evenodd;fill:#233662;}
	.st7{fill:none;stroke:#233662;stroke-miterlimit:10;}
	.st8{fill:#1E3264;}
</style>
<path id="XMLID_404_" class="st0" d="M-375,312.7h-16c-0.7,0-1.3-0.6-1.3-1.3v-0.7c0-0.7,0.6-1.3,1.3-1.3h16c0.7,0,1.3,0.6,1.3,1.3
	v0.7C-373.7,312.1-374.3,312.7-375,312.7z"/>
<polygon id="XMLID_398_" class="st1" points="-394.8,291.5 -393.5,290.7 -394,289.1 -393.5,287.8 -386,286.9 -374.2,285.4 
	-374.8,282.3 -396.6,287.2 "/>
<path id="XMLID_411_" class="st0" d="M-394.8,291.6l-1.8-3.4c-0.4-0.7,0-1.6,0.8-1.8l19.9-4.3c0.8-0.2,1.5,0.5,1.4,1.4l-0.5,2.3"/>
<path id="XMLID_407_" class="st0" d="M-372.1,291.9l1.6-5c0.3-0.8-0.4-1.7-1.2-1.6l-21.2,2.6c-0.8,0.1-1.2,1-0.9,1.7l0.8,1.7"/>
<path id="XMLID_400_" class="st2" d="M-370,293c0,0-6.3-4.7-12.9-4.1l2.7,18h4.8L-370,293z"/>
<path id="XMLID_397_" class="st3" d="M-372.1,293.3l-5.2,13.4h-13.3l-5.2-13.4C-395.7,293.3-384.6,284.3-372.1,293.3z"/>
<path id="XMLID_396_" class="st0" d="M-370.1,293l-5.6,13.8h-14.4L-396,293C-396,293-383.7,283.7-370.1,293z"/>
<path class="st4" d="M-404.8,308.3c-0.8,0-1.5,0.7-1.5,1.5c0,0.8,0.7,1.5,1.5,1.5c0.8,0,1.5-0.7,1.5-1.5
	C-403.3,308.9-404,308.2-404.8,308.3"/>
<path class="st5" d="M-401.1,250.4c-7,7.1-13.8,22.2-7.4,35.4l7.4-0.1L-401.1,250.4z"/>
<rect x="-408" y="286.5" class="st6" width="6" height="2.6"/>
<path class="st0" d="M-404.8,312.7c-1.6,0-2.9-1.3-2.9-2.9l0-20.5c2,0,3.9,0,5.9,0l0,20.5C-401.8,311.3-403.1,312.7-404.8,312.7z"/>
<rect x="-407.7" y="286.3" transform="matrix(-0.9999 1.007665e-002 -1.007665e-002 -0.9999 -806.6501 579.5759)" class="st7" width="5.9" height="2.9"/>
<path class="st8" d="M-428.8,292.7v6.6h11.4l0-6.6C-422.1,292.7-417.4,292.7-428.8,292.7z"/>
<path class="st3" d="M-418.9,312.7h-8.3c-1.2,0-2.1-1-2.1-2.1v-11.3h12.6v11.3C-416.8,311.7-417.8,312.7-418.9,312.7z"/>
<rect x="-428.8" y="269.4" class="st1" width="11.4" height="23.3"/>
<rect x="-426.5" y="250.4" class="st3" width="6.8" height="8.4"/>
<path class="st0" d="M-419.5,250.4h-7.2c-0.4,0-0.8-0.4-0.8-0.8v-1.3c0-0.4,0.4-0.8,0.8-0.8h7.2c0.4,0,0.8,0.4,0.8,0.8v1.3
	C-418.7,250-419,250.4-419.5,250.4z"/>
<path class="st7" d="M-417.4,285.7v-27h-11.4l0,27C-423,285.7-421.6,285.8-417.4,285.7z"/>
</svg>
