<svg xmlns="http://www.w3.org/2000/svg" viewBox="0 0 439 439"><title>Asset 12</title><g id="Layer_2" data-name="Layer 2"><g id="Слой_1" data-name="Слой 1"><path d="M219.5,0C98.3,0,0,98.3,0,219.5S98.3,439,219.5,439,439,340.7,439,219.5,340.7,0,219.5,0ZM357.2,304.8a10,10,0,0,1-10,10H95.1a10,10,0,0,1-10-10V234a1.79,1.79,0,0,0-1.8-1.8,1.79,1.79,0,0,1-1.8-1.8V134.2a10,10,0,0,1,10-10h90.1a5.8,5.8,0,0,1,5.8,5.8,5.9,5.9,0,0,0,1.7,4.1,5.5,5.5,0,0,0,4.1,1.7H347.3a10,10,0,0,1,10,10Z" fill="#fff"/><path d="M347.2,135.8H193.1a5.8,5.8,0,0,1-5.8-5.8,5.8,5.8,0,0,0-5.8-5.8H91.4a10,10,0,0,0-10,10v96.2a1.79,1.79,0,0,0,1.8,1.8A1.79,1.79,0,0,1,85,234v70.8a10,10,0,0,0,10,10H347.1a10,10,0,0,0,10-10v-159A9.76,9.76,0,0,0,347.2,135.8ZM98.5,140.7a2,2,0,0,1,2-2h48.7a2,2,0,0,1,2,2v27.6a2,2,0,0,1-2,2H100.5a2,2,0,0,1-2-2Zm0,74.5V187.6a2,2,0,0,1,2-2h48.7a2,2,0,0,1,2,2v27.6a2,2,0,0,1-2,2H100.5A1.94,1.94,0,0,1,98.5,215.2ZM151.2,296a2,2,0,0,1-2,2H104.1a2,2,0,0,1-2-2V280.6a2,2,0,0,1,2-2h45.1a2,2,0,0,1,2,2Zm0-35.5a2,2,0,0,1-2,2H104.1a2,2,0,0,1-2-2V245.1a2,2,0,0,1,2-2h45.1a2,2,0,0,1,2,2Zm122.4-93.3H244.9a.94.94,0,0,0-1,1V221h29.7v2H243.9v55.7a.94.94,0,0,0,1,1h28.7v2H244.9a3,3,0,0,1-3-3V223h-42v45.2a3,3,0,0,1-3,3H172.8v15a3,3,0,0,1-3,3H153.2v-2h16.6a.94.94,0,0,0,1-1V255.1a.94.94,0,0,0-1-1H153.2v-2h16.6a3,3,0,0,1,3,3v14.1h24.1a.94.94,0,0,0,1-1V179.7a.94.94,0,0,0-1-1H172.8V199a3,3,0,0,1-3,3H153.2v-2h16.6a.94.94,0,0,0,1-1V156.4a.94.94,0,0,0-1-1H153.2v-2h16.6a3,3,0,0,1,3,3v20.3h24.1a3,3,0,0,1,3,3v41.2h42V168.1a3,3,0,0,1,3-3h28.7Zm67.1,127.3a2,2,0,0,1-2,2h-61a2,2,0,0,1-2-2V266.9a2,2,0,0,1,2-2h61a2,2,0,0,1,2,2Zm0-58.3a2,2,0,0,1-2,2h-61a2,2,0,0,1-2-2V208.6a2,2,0,0,1,2-2h61a2,2,0,0,1,2,2Zm0-56a2,2,0,0,1-2,2h-61a2,2,0,0,1-2-2V152.6a2,2,0,0,1,2-2h61a2,2,0,0,1,2,2Z" fill="#fff5e0"/><path d="M151.2,140.7v27.6a2,2,0,0,1-2,2H100.5a2,2,0,0,1-2-2V140.7a2,2,0,0,1,2-2h48.7A2.07,2.07,0,0,1,151.2,140.7Z" fill="#00697a"/><path d="M340.7,152.5v27.6a2,2,0,0,1-2,2h-61a2,2,0,0,1-2-2V152.5a2,2,0,0,1,2-2h61A2.07,2.07,0,0,1,340.7,152.5Z" fill="#00697a"/><path d="M151.2,187.6v27.6a2,2,0,0,1-2,2H100.5a2,2,0,0,1-2-2V187.6a2,2,0,0,1,2-2h48.7A2.07,2.07,0,0,1,151.2,187.6Z" fill="#00697a"/><path d="M340.7,208.5v27.6a2,2,0,0,1-2,2h-61a2,2,0,0,1-2-2V208.5a2,2,0,0,1,2-2h61A2.07,2.07,0,0,1,340.7,208.5Z" fill="#00697a"/><path d="M340.7,266.9v27.6a2,2,0,0,1-2,2h-61a2,2,0,0,1-2-2V266.9a2,2,0,0,1,2-2h61A2.07,2.07,0,0,1,340.7,266.9Z" fill="#00697a"/><path d="M151.2,245.1v15.4a2,2,0,0,1-2,2H104.1a2,2,0,0,1-2-2V245.1a2,2,0,0,1,2-2h45.1A2.07,2.07,0,0,1,151.2,245.1Z" fill="#ea631d"/><path d="M151.2,280.6V296a2,2,0,0,1-2,2H104.1a2,2,0,0,1-2-2V280.6a2,2,0,0,1,2-2h45.1A2.07,2.07,0,0,1,151.2,280.6Z" fill="#ea631d"/><path d="M243.8,168.2V221h29.7v2H243.8v55.7a.94.94,0,0,0,1,1h28.7v2H244.8a3,3,0,0,1-3-3V223h-42v45.2a3,3,0,0,1-3,3H172.7v15a3,3,0,0,1-3,3H153.1v-2h16.6a.94.94,0,0,0,1-1V255.1a.94.94,0,0,0-1-1H153.1v-2h16.6a3,3,0,0,1,3,3v14.1h24.1a.94.94,0,0,0,1-1V179.7a.94.94,0,0,0-1-1H172.7V199a3,3,0,0,1-3,3H153.1v-2h16.6a.94.94,0,0,0,1-1V156.4a.94.94,0,0,0-1-1H153.1v-2h16.6a3,3,0,0,1,3,3v20.3h24.1a3,3,0,0,1,3,3v41.2h42V168.1a3,3,0,0,1,3-3h28.7v2H244.8A1.16,1.16,0,0,0,243.8,168.2Z" fill="#00697a"/></g></g></svg>