<svg xmlns="http://www.w3.org/2000/svg" viewBox="0 0 439 439"><title>Asset 5</title><g id="Layer_2" data-name="Layer 2"><g id="Слой_1" data-name="Слой 1"><path d="M219.5,0C98.3,0,0,98.3,0,219.5S98.3,439,219.5,439,439,340.7,439,219.5,340.7,0,219.5,0Zm75.2,308.9a27.48,27.48,0,0,1-27.5-27.5v-1.1a1.78,1.78,0,0,0-1-1.6l-.8-.3,1.8,33.6a10,10,0,0,1-10,10.5H127.8a10,10,0,0,1-10-10.5l5.8-105.9a10.07,10.07,0,0,1,10-9.5H144l1.9-29.7a51.18,51.18,0,0,1,51-47.9h.2a50.9,50.9,0,0,1,50.8,49.3l.3,7.2a10.06,10.06,0,0,1-20.1.7l-.3-7.2a31.07,31.07,0,0,0-30.9-30h-.1a31.08,31.08,0,0,0-31,29.1L164,196.6h87.4a10.07,10.07,0,0,1,10,9.5l3,55.3,7.4,2.5a1.57,1.57,0,0,0,1.7-.5A27.53,27.53,0,0,1,322,281.2C322,296.4,309.7,308.9,294.7,308.9Z" fill="#fff"/><path d="M267.2,312a10,10,0,0,1-10,10.5H127.8a10,10,0,0,1-10-10.5l5.8-105.9a10.07,10.07,0,0,1,10-9.5H144l-.3,5.5a10,10,0,0,0,9.4,10.6h.6a10,10,0,0,0,9.9-9.4l.4-6.7h87.4a10.07,10.07,0,0,1,10,9.5l3,55.3-53.7-18.3a13.45,13.45,0,1,0-21.6,10.7,2.17,2.17,0,0,1,.9,2.2l-9.7,44.2a2.09,2.09,0,0,0,.4,1.7,2.36,2.36,0,0,0,1.6.7h30.1a1.51,1.51,0,0,0,1.4-.7,2.09,2.09,0,0,0,.4-1.7l-4.4-20.3,5.2,3.4a2.68,2.68,0,0,0,2.6.1,2.48,2.48,0,0,0,1.3-2.2V262.6a1.52,1.52,0,0,1,.7-1.2,1.4,1.4,0,0,1,1.4-.2l44.5,17.2Z" fill="#ea631d"/><path d="M247.8,168.3A50.9,50.9,0,0,0,197,119h-.2a51.18,51.18,0,0,0-51,47.9l-1.9,29.7-.3,5.5a10,10,0,0,0,9.4,10.6h.6a10,10,0,0,0,9.9-9.4l.4-6.7,1.8-28.5a31.08,31.08,0,0,1,31-29.1h.1a31.07,31.07,0,0,1,30.9,30l.3,7.2a10.06,10.06,0,0,0,20.1-.7Zm-85.1,35a9,9,0,1,1-18-1.2l.3-5.5,1.9-29.7a50.18,50.18,0,0,1,50-46.9c.1,0,.1,0,.1.1a50,50,0,0,1,49.9,48.3l.3,7.2a9,9,0,0,1-18,.6l-.3-7.2A32,32,0,0,0,197,138.1h-.1a32.06,32.06,0,0,0-32,30l-1.8,28.5Z" fill="#4d4d4d" fill-rule="evenodd"/><path d="M247.2,175.6a9,9,0,0,1-18,.6l-.3-7.2A32,32,0,0,0,197,138.1h-.1a32.06,32.06,0,0,0-32,30l-1.8,28.5-.4,6.7a9,9,0,1,1-18-1.2l.3-5.5,1.9-29.7a50.18,50.18,0,0,1,50-46.9c.1,0,.1,0,.1.1a50,50,0,0,1,49.9,48.3Z" fill="#ea631d"/><path d="M213.1,301.2a.91.91,0,0,1-.8.4H182.2a1.23,1.23,0,0,1-.8-.4.78.78,0,0,1-.2-.8l9.7-44.2a3.12,3.12,0,0,0-1.2-3.2,12.42,12.42,0,0,1,7.6-22.3,12.32,12.32,0,0,1,12.4,12l-8-2.7a2.46,2.46,0,0,0-2.6.7c-3.8,4.5-2.5,8.7.1,11a1.75,1.75,0,0,1,.7,1.4v19a2.48,2.48,0,0,0,1.1,2.1l7.7,5,4.6,21.2A1.88,1.88,0,0,1,213.1,301.2Z" fill="#e9da8c"/><path d="M294.5,253.7a27.34,27.34,0,0,0-21,9.7,1.57,1.57,0,0,1-1.7.5l-7.4-2.5-53.7-18.3a13.45,13.45,0,1,0-21.6,10.7,2.17,2.17,0,0,1,.9,2.2l-9.7,44.2a2.09,2.09,0,0,0,.4,1.7,2.36,2.36,0,0,0,1.6.7h30.1a1.51,1.51,0,0,0,1.4-.7,2.09,2.09,0,0,0,.4-1.7l-4.4-20.3,5.2,3.4a2.68,2.68,0,0,0,2.6.1,2.48,2.48,0,0,0,1.3-2.2V262.6a1.52,1.52,0,0,1,.7-1.2,1.4,1.4,0,0,1,1.4-.2l44.5,17.2.8.3a1.78,1.78,0,0,1,1,1.6v1.1a27.4,27.4,0,1,0,27.2-27.7Zm-81.3,46.7a.78.78,0,0,1-.2.8.91.91,0,0,1-.8.4H182.1a1.23,1.23,0,0,1-.8-.4.78.78,0,0,1-.2-.8l9.7-44.2a3.12,3.12,0,0,0-1.2-3.2,12.42,12.42,0,0,1,7.6-22.3,12.32,12.32,0,0,1,12.4,12l-8-2.7a2.46,2.46,0,0,0-2.6.7c-3.8,4.5-2.5,8.7.1,11a1.75,1.75,0,0,1,.7,1.4v19a2.48,2.48,0,0,0,1.1,2.1l7.7,5Zm81.5,7.4a26.55,26.55,0,0,1-26.5-26.5v-1a2.5,2.5,0,0,0-1.6-2.5l-1.3-.5-44-17a2.92,2.92,0,0,0-.9-.2,1.37,1.37,0,0,0-1.3.6,2.61,2.61,0,0,0-1.1,2.1v18.6a1.56,1.56,0,0,1-.8,1.3,1.6,1.6,0,0,1-1.5-.1l-6.3-4.1-.5-.3-.6-.4-6.5-4.3a1.71,1.71,0,0,1-.7-1.3v-19a3,3,0,0,0-1-2.1c-1.1-1-4.3-4.6,0-9.6a1.39,1.39,0,0,1,1.5-.4l8.1,2.8.6.2.4.1,53.8,18.3,7.2,2.5a2.69,2.69,0,0,0,2.8-.8,26.23,26.23,0,0,1,20.2-9.4,26.5,26.5,0,0,1,0,53Z" fill="#4d4d4d"/><path d="M294.7,254.8a26.23,26.23,0,0,0-20.2,9.4,2.69,2.69,0,0,1-2.8.8l-7.2-2.5-53.8-18.3-.4-.1-.6-.2-8.1-2.8a1.39,1.39,0,0,0-1.5.4c-4.3,5-1.1,8.6,0,9.6a3,3,0,0,1,1,2.1v19a1.71,1.71,0,0,0,.7,1.3l6.5,4.3.6.4.5.3,6.3,4.1a1.6,1.6,0,0,0,1.5.1,1.56,1.56,0,0,0,.8-1.3V262.8a2.61,2.61,0,0,1,1.1-2.1,1.37,1.37,0,0,1,1.3-.6,2.92,2.92,0,0,1,.9.2l44,17,1.3.5a2.5,2.5,0,0,1,1.6,2.5v1a26.5,26.5,0,1,0,26.5-26.5Zm0,44.7a18.2,18.2,0,1,1,18.2-18.2A18.27,18.27,0,0,1,294.7,299.5Z" fill="#00697a"/><path d="M294.7,263.1a18.2,18.2,0,1,0,18.2,18.2A18.27,18.27,0,0,0,294.7,263.1Zm0,35.5a17.2,17.2,0,1,1,17.2-17.2A17.2,17.2,0,0,1,294.7,298.6Z" fill="#fff"/><path d="M310.6,287.9a17.22,17.22,0,1,0-22.5,9.3A17.25,17.25,0,0,0,310.6,287.9Z" fill="#fff"/></g></g></svg>