<svg xmlns="http://www.w3.org/2000/svg" viewBox="0 0 439 439.1"><title>Asset 13</title><g id="Layer_2" data-name="Layer 2"><g id="Слой_1" data-name="Слой 1"><path d="M219.5,0C98.3,0,0,98.3,0,219.5S98.3,439.1,219.5,439.1,439,340.8,439,219.6,340.8,0,219.5,0ZM339.8,314a10,10,0,0,1-10,10H109.3a10,10,0,0,1-10-10V248.1a10,10,0,0,1,10-10h5.8a10,10,0,0,0,10-10V216.2a10,10,0,0,1,10-10h1.3a10,10,0,0,0,10-10V125.1a10,10,0,0,1,10-10H279.7a10,10,0,0,1,10,10v71.1a10,10,0,0,0,10,10H301a10,10,0,0,1,10,10v11.9a10,10,0,0,0,10,10h8.9a10,10,0,0,1,10,10Z" fill="#fff"/><path d="M329.8,238.1h-8.9a10,10,0,0,1-10-10V216.2a10,10,0,0,0-10-10h-1.3a10,10,0,0,1-10-10V125.1a10,10,0,0,0-10-10H156.3a10,10,0,0,0-10,10v71.1a10,10,0,0,1-10,10H135a10,10,0,0,0-10,10v11.9a10,10,0,0,1-10,10h-5.8a10,10,0,0,0-10,10V314a10,10,0,0,0,10,10H329.7a10,10,0,0,0,10-10V248.1A9.88,9.88,0,0,0,329.8,238.1Zm-163-103.5a2,2,0,0,1,2-2h98.4a2,2,0,0,1,2,2v54.1a2,2,0,0,1-2,2H168.8a2,2,0,0,1-2-2V134.6Zm-27.3,86.7a3,3,0,0,1,3-3H217l.1-24.3h2l-.1,24.3h74.4a3,3,0,0,1,3,3v28.1h-2V221.3a.94.94,0,0,0-1-1H219l-.1,29.1h-2l.1-29.1H142.5a.94.94,0,0,0-1,1v28.1h-2Zm31.6,86.6a2,2,0,0,1-2,2H115.5a2,2,0,0,1-2-2V254.3a2,2,0,0,1,2-2h53.6a2,2,0,0,1,2,2Zm75.7.5a2,2,0,0,1-2,2H191.2a2,2,0,0,1-2-2V254.8a2,2,0,0,1,2-2h53.6a2,2,0,0,1,2,2Zm79.2,0a2,2,0,0,1-2,2H270.4a2,2,0,0,1-2-2V254.8a2,2,0,0,1,2-2H324a2,2,0,0,1,2,2Z" fill="#fff5e0"/><path d="M269.2,134.6v54.1a2,2,0,0,1-2,2H168.8a2,2,0,0,1-2-2V134.6a2,2,0,0,1,2-2h98.4A2,2,0,0,1,269.2,134.6Z" fill="#ea631d"/><path d="M296.4,221.3v28.1h-2V221.3a.94.94,0,0,0-1-1H219l-.1,29.1h-2l.1-29.1H142.5a.94.94,0,0,0-1,1v28.1h-2V221.3a3,3,0,0,1,3-3H217l.1-24.3h2l-.1,24.3h74.4A3,3,0,0,1,296.4,221.3Z" fill="#00697a"/><path d="M171.1,254.3v53.6a2,2,0,0,1-2,2H115.5a2,2,0,0,1-2-2V254.3a2,2,0,0,1,2-2h53.6A2,2,0,0,1,171.1,254.3Z" fill="#00697a"/><path d="M246.8,254.8v53.6a2,2,0,0,1-2,2H191.2a2,2,0,0,1-2-2V254.8a2,2,0,0,1,2-2h53.6A2,2,0,0,1,246.8,254.8Z" fill="#00697a"/><path d="M326,254.8v53.6a2,2,0,0,1-2,2H270.4a2,2,0,0,1-2-2V254.8a2,2,0,0,1,2-2H324A2,2,0,0,1,326,254.8Z" fill="#00697a"/></g></g></svg>