<?xml version="1.0" encoding="utf-8"?>
<!-- Generator: Adobe Illustrator 19.1.1, SVG Export Plug-In . SVG Version: 6.00 Build 0)  -->
<svg version="1.1" id="Layer_1" xmlns="http://www.w3.org/2000/svg" xmlns:xlink="http://www.w3.org/1999/xlink" x="0px" y="0px"
	 viewBox="-440 242 78 78" style="enable-background:new -440 242 78 78;" xml:space="preserve">
<style type="text/css">
	.st0{fill:#1E3264;}
	.st1{fill:#FABE3C;}
	.st2{opacity:0.6;fill:#1E3264;}
	.st3{fill:none;stroke:#1E3264;stroke-miterlimit:10;}
	.st4{fill:none;stroke:#233662;stroke-miterlimit:10;}
</style>
<path class="st0" d="M-428.8,292.7v6.6h11.4l0-6.6C-422.1,292.7-417.4,292.7-428.8,292.7z"/>
<path class="st1" d="M-418.9,312.7h-8.3c-1.2,0-2.1-1-2.1-2.1v-11.3h12.6v11.3C-416.8,311.7-417.8,312.7-418.9,312.7z"/>
<rect x="-428.8" y="269.4" class="st2" width="11.4" height="23.3"/>
<rect x="-426.5" y="250.4" class="st1" width="6.8" height="8.4"/>
<path class="st3" d="M-419.5,250.4h-7.2c-0.4,0-0.8-0.4-0.8-0.8v-1.3c0-0.4,0.4-0.8,0.8-0.8h7.2c0.4,0,0.8,0.4,0.8,0.8v1.3
	C-418.7,250-419,250.4-419.5,250.4z"/>
<path class="st4" d="M-417.4,285.7v-27h-11.4l0,27C-423,285.7-421.6,285.8-417.4,285.7z"/>
</svg>
