<?xml version="1.0" encoding="utf-8"?>
<!-- Generator: Adobe Illustrator 19.1.1, SVG Export Plug-In . SVG Version: 6.00 Build 0)  -->
<svg version="1.1" id="Layer_1" xmlns="http://www.w3.org/2000/svg" xmlns:xlink="http://www.w3.org/1999/xlink" x="0px" y="0px"
	 viewBox="-440 242 78 78" style="enable-background:new -440 242 78 78;" xml:space="preserve">
<style type="text/css">
	.st0{fill-rule:evenodd;clip-rule:evenodd;fill:#1E3264;}
	.st1{fill-rule:evenodd;clip-rule:evenodd;fill:#FABE3C;}
	.st2{opacity:0.6;fill-rule:evenodd;clip-rule:evenodd;fill:#233662;}
	.st3{fill:none;stroke:#1E3264;stroke-miterlimit:10;}
	.st4{fill:none;stroke:#233662;stroke-miterlimit:10;}
</style>
<path class="st0" d="M-404.8,308.3c-0.8,0-1.5,0.7-1.5,1.5c0,0.8,0.7,1.5,1.5,1.5c0.8,0,1.5-0.7,1.5-1.5
	C-403.3,308.9-404,308.2-404.8,308.3"/>
<path class="st1" d="M-401.1,250.4c-7,7.1-13.8,22.2-7.4,35.4l7.4-0.1L-401.1,250.4z"/>
<rect x="-408" y="286.5" class="st2" width="6" height="2.6"/>
<path class="st3" d="M-404.8,312.7c-1.6,0-2.9-1.3-2.9-2.9l0-20.5c2,0,3.9,0,5.9,0l0,20.5C-401.8,311.3-403.1,312.7-404.8,312.7z"/>
<rect x="-407.7" y="286.3" transform="matrix(-0.9999 1.007665e-002 -1.007665e-002 -0.9999 -806.6501 579.5759)" class="st4" width="5.9" height="2.9"/>
</svg>
