<?xml version="1.0" encoding="utf-8"?>
<!-- Generator: Adobe Illustrator 19.1.1, SVG Export Plug-In . SVG Version: 6.00 Build 0)  -->
<svg version="1.1" id="Layer_1" xmlns="http://www.w3.org/2000/svg" xmlns:xlink="http://www.w3.org/1999/xlink" x="0px" y="0px"
	 viewBox="-440 242 78 78" style="enable-background:new -440 242 78 78;" xml:space="preserve">
<style type="text/css">
	.st0{fill:none;stroke:#1E3264;stroke-miterlimit:10;}
	.st1{opacity:0.6;fill:#1E3264;}
	.st2{opacity:0.6;fill:#233662;}
	.st3{fill:#FABE3C;}
</style>
<path id="XMLID_404_" class="st0" d="M-375,312.7h-16c-0.7,0-1.3-0.6-1.3-1.3v-0.7c0-0.7,0.6-1.3,1.3-1.3h16c0.7,0,1.3,0.6,1.3,1.3
	v0.7C-373.7,312.1-374.3,312.7-375,312.7z"/>
<polygon id="XMLID_398_" class="st1" points="-394.8,291.5 -393.5,290.7 -394,289.1 -393.5,287.8 -386,286.9 -374.2,285.4 
	-374.8,282.3 -396.6,287.2 "/>
<path id="XMLID_411_" class="st0" d="M-394.8,291.6l-1.8-3.4c-0.4-0.7,0-1.6,0.8-1.8l19.9-4.3c0.8-0.2,1.5,0.5,1.4,1.4l-0.5,2.3"/>
<path id="XMLID_407_" class="st0" d="M-372.1,291.9l1.6-5c0.3-0.8-0.4-1.7-1.2-1.6l-21.2,2.6c-0.8,0.1-1.2,1-0.9,1.7l0.8,1.7"/>
<path id="XMLID_400_" class="st2" d="M-370,293c0,0-6.3-4.7-12.9-4.1l2.7,18h4.8L-370,293z"/>
<path id="XMLID_397_" class="st3" d="M-372.1,293.3l-5.2,13.4h-13.3l-5.2-13.4C-395.7,293.3-384.6,284.3-372.1,293.3z"/>
<path id="XMLID_396_" class="st0" d="M-370.1,293l-5.6,13.8h-14.4L-396,293C-396,293-383.7,283.7-370.1,293z"/>
</svg>
