<?xml version="1.0" encoding="utf-8"?>
<!-- Generator: Adobe Illustrator 19.1.1, SVG Export Plug-In . SVG Version: 6.00 Build 0)  -->
<svg version="1.1" id="Layer_1" xmlns="http://www.w3.org/2000/svg" xmlns:xlink="http://www.w3.org/1999/xlink" x="0px" y="0px"
	 viewBox="-445 247 68 68" style="enable-background:new -445 247 68 68;" xml:space="preserve">
<style type="text/css">
	.st0{fill:#FABE3C;}
	.st1{fill:none;}
	.st2{fill:none;stroke:#FABE3C;stroke-width:0.5;stroke-miterlimit:10;}
	.st3{fill:none;stroke:#1E3264;stroke-miterlimit:10;}
	.st4{fill:#1E3264;}
</style>
<path id="XMLID_630_" class="st0" d="M-430.3,286.1h6.7v-16.9c0-1.9-1.5-3.4-3.4-3.4l0,0c-1.9,0-3.4,1.5-3.4,3.4v16.9H-430.3z"/>
<g id="XMLID_631_">
	<line id="XMLID_629_" class="st1" x1="-424" y1="286.1" x2="-429.5" y2="286.1"/>
	<line id="XMLID_632_" class="st2" x1="-441.1" y1="286.4" x2="-441.1" y2="306.2"/>
	<line id="XMLID_634_" class="st2" x1="-436.7" y1="286.1" x2="-436.7" y2="306.3"/>
	<line id="XMLID_635_" class="st2" x1="-434.5" y1="286.2" x2="-434.5" y2="306.3"/>
	<line id="XMLID_636_" class="st2" x1="-432.3" y1="286.1" x2="-432.3" y2="306.4"/>
	<line id="XMLID_637_" class="st2" x1="-430.1" y1="286" x2="-430.1" y2="306.4"/>
	<line id="XMLID_638_" class="st2" x1="-427.9" y1="286.1" x2="-427.9" y2="306.5"/>
	<line id="XMLID_639_" class="st2" x1="-425.6" y1="286.3" x2="-425.6" y2="306.1"/>
	<line id="XMLID_640_" class="st2" x1="-423.4" y1="286.3" x2="-423.4" y2="306.1"/>
	<line id="XMLID_641_" class="st2" x1="-421.2" y1="286.3" x2="-421.2" y2="306.1"/>
	<line id="XMLID_642_" class="st2" x1="-419" y1="286.4" x2="-419" y2="306.1"/>
	<line id="XMLID_643_" class="st2" x1="-416.8" y1="286.3" x2="-416.8" y2="306.1"/>
	<line id="XMLID_644_" class="st2" x1="-414.6" y1="286.4" x2="-414.6" y2="306.2"/>
	<line id="XMLID_645_" class="st2" x1="-412.4" y1="286.5" x2="-412.4" y2="306.3"/>
	<line id="XMLID_633_" class="st2" x1="-438.9" y1="286.5" x2="-438.9" y2="306.3"/>
	<line id="XMLID_646_" class="st2" x1="-443.7" y1="288.7" x2="-409.8" y2="288.7"/>
	<line id="XMLID_647_" class="st2" x1="-443.8" y1="290.9" x2="-409.9" y2="290.9"/>
	<line id="XMLID_648_" class="st2" x1="-443.8" y1="293.2" x2="-409.9" y2="293.2"/>
	<line id="XMLID_649_" class="st2" x1="-443.8" y1="295.4" x2="-409.9" y2="295.4"/>
	<line id="XMLID_650_" class="st2" x1="-443.7" y1="297.6" x2="-409.8" y2="297.6"/>
	<line id="XMLID_651_" class="st2" x1="-443.8" y1="299.8" x2="-409.9" y2="299.8"/>
	<line id="XMLID_652_" class="st2" x1="-443.9" y1="302" x2="-410" y2="302"/>
	<line id="XMLID_653_" class="st2" x1="-444" y1="304.2" x2="-410" y2="304.2"/>
	<path id="XMLID_614_" class="st3" d="M-412.6,306.4h-28.2c-1.6,0-2.8-1.3-2.8-2.8v-17.4h33.8v17.4
		C-409.8,305.1-411.1,306.4-412.6,306.4z"/>
</g>
<path id="XMLID_654_" class="st4" d="M-427.7,286h1.6v-12.5c0-0.4-0.4-0.8-0.8-0.8l0,0c-0.4,0-0.8,0.4-0.8,0.8V286z"/>
</svg>
