<?xml version="1.0" encoding="utf-8"?>
<!-- Generator: Adobe Illustrator 19.1.1, SVG Export Plug-In . SVG Version: 6.00 Build 0)  -->
<svg version="1.1" id="Layer_1" xmlns="http://www.w3.org/2000/svg" xmlns:xlink="http://www.w3.org/1999/xlink" x="0px" y="0px"
	 viewBox="-445 247 68 68" style="enable-background:new -445 247 68 68;" xml:space="preserve">
<style type="text/css">
	.st0{fill:#1E3264;}
	.st1{fill:none;stroke:#FABE3C;stroke-miterlimit:10;}
	.st2{opacity:0.6;fill:#1E3264;enable-background:new    ;}
	.st3{fill:#FABE3C;}
	.st4{fill:none;stroke:#1E3264;stroke-miterlimit:10;}
</style>
<path id="XMLID_660_" class="st0" d="M-395.6,254.8h6.9v-0.6c0-0.6-0.5-1.2-1.1-1.2h-4.7c-0.6,0-1.1,0.5-1.1,1.2V254.8z"/>
<path id="XMLID_661_" class="st0" d="M-388.8,306.5h-6.9v0.6c0,0.6,0.5,1.1,1.1,1.1h4.7c0.6,0,1.1-0.5,1.1-1.1V306.5z"/>
<path id="XMLID_594_" class="st1" d="M-403,306.1h21.7c1.6,0,2.8-1.3,2.8-2.8v-45.2c0-1.6-1.3-2.8-2.8-2.8H-403
	c-1.6,0-2.8,1.3-2.8,2.8v45.2C-405.9,304.9-404.6,306.1-403,306.1z"/>
<g>
	<path id="XMLID_613_" class="st2" d="M-401.3,304.3h18.2c1.6,0,2.8-1.3,2.8-2.8V260c0-1.6-1.3-2.8-2.8-2.8h-18.2
		c-1.6,0-2.8,1.3-2.8,2.8v41.5C-404.1,303-402.8,304.3-401.3,304.3z"/>
	<path id="XMLID_663_" class="st3" d="M-382.3,304.3h-10.3l12.4-18.8v16.6C-380.2,303.3-381.1,304.3-382.3,304.3L-382.3,304.3z"/>
</g>
<path id="XMLID_479_" class="st4" d="M-378,276"/>
</svg>
