<svg xmlns="http://www.w3.org/2000/svg" viewBox="0 0 439 439"><title>Asset 3</title><g id="Layer_2" data-name="Layer 2"><g id="Слой_1" data-name="Слой 1"><path d="M219.5,0C98.3,0,0,98.3,0,219.5S98.3,439,219.5,439,439,340.7,439,219.5,340.7,0,219.5,0Zm50.7,288.2h-15v10.7a2,2,0,0,1-4,0V245.1a3,3,0,0,1,3-3h7.7l-22.7-22.7-22.7,22.7h9.3a3,3,0,0,1,3,3v78.8h14.3a3,3,0,0,1,2.8,1.9,3,3,0,0,1-.7,3.3l-31.4,31.4a3.23,3.23,0,0,1-2.1.8,2.72,2.72,0,0,1-2.1-.9L178.2,329a3.09,3.09,0,0,1-.7-3.3,3.17,3.17,0,0,1,2.8-1.9h16.2V288.1H176.7a54.2,54.2,0,1,1,0-108.4h.1a48.66,48.66,0,0,1-.6-7.6,47.22,47.22,0,0,1,93.8-7.7,28,28,0,0,1,35,32.7,52.19,52.19,0,0,1-34.8,91.1Z" fill="#fff"/><path d="M322.3,236a52.24,52.24,0,0,1-52.2,52.2h-15v-1.1h14.8a51.15,51.15,0,0,0,33.9-89.5l-.2-.2.1-.3a28.8,28.8,0,0,0,.6-5.9,26.93,26.93,0,0,0-27-26.9,25.44,25.44,0,0,0-7.8,1.2l-.6.2-.1-.6a46.22,46.22,0,0,0-91.9,7,42.51,42.51,0,0,0,.7,8l.1.6h-1.3a53.2,53.2,0,1,0,0,106.4h20v1H176.6a54.2,54.2,0,1,1,0-108.4h.1a48.66,48.66,0,0,1-.6-7.6,47.22,47.22,0,0,1,93.8-7.7,28,28,0,0,1,35,32.7A52,52,0,0,1,322.3,236Z" fill="#4d4d4d"/><path d="M321.2,235.9A51.3,51.3,0,0,1,270,287.1H255.2v-41h9.1a3.17,3.17,0,0,0,2.8-1.9,3.09,3.09,0,0,0-.7-3.3l-25.1-25.1a2.9,2.9,0,0,0-4.2,0L212,240.9a3,3,0,0,0-.7,3.3,3,3,0,0,0,2.8,1.9h10.7v78.7a3,3,0,0,0,3,3h12.9l-29,29-29-29h14.8a3,3,0,0,0,3-3V268.5a2,2,0,0,0-4,0v18.6h-20a53.2,53.2,0,1,1,0-106.4h1.3l-.1-.6a42.51,42.51,0,0,1-.7-8,46.22,46.22,0,0,1,91.9-7l.1.6.6-.2a25.44,25.44,0,0,1,7.8-1.2,26.93,26.93,0,0,1,27,26.9,28.8,28.8,0,0,1-.6,5.9l-.1.3.2.2A51.5,51.5,0,0,1,321.2,235.9Z" fill="#00697a"/><path d="M267.1,244.2a3.17,3.17,0,0,1-2.8,1.9h-9.1v52.8a2,2,0,0,1-4,0V245.1a3,3,0,0,1,3-3h7.7l-22.7-22.7-22.7,22.7h9.3a3,3,0,0,1,3,3v78.8h14.3a3,3,0,0,1,2.8,1.9,3,3,0,0,1-.7,3.3l-31.4,31.4a3.23,3.23,0,0,1-2.1.8,2.72,2.72,0,0,1-2.1-.9L178.2,329a3.09,3.09,0,0,1-.7-3.3,3.17,3.17,0,0,1,2.8-1.9h16.2V268.5a2,2,0,0,1,4,0v56.3a3,3,0,0,1-3,3H182.7l29,29,29-29H227.8a3,3,0,0,1-3-3V246.1H214.1a3,3,0,0,1-2.8-1.9,3,3,0,0,1,.7-3.3l25.1-25.1a2.9,2.9,0,0,1,4.2,0l25.1,25.1A3.3,3.3,0,0,1,267.1,244.2Z" fill="#fdd29d"/></g></g></svg>