<?xml version="1.0" encoding="utf-8"?>
<!-- Generator: Adobe Illustrator 19.1.1, SVG Export Plug-In . SVG Version: 6.00 Build 0)  -->
<svg version="1.1" id="Layer_1" xmlns="http://www.w3.org/2000/svg" xmlns:xlink="http://www.w3.org/1999/xlink" x="0px" y="0px"
	 viewBox="-34 266 68 68" style="enable-background:new -34 266 68 68;" xml:space="preserve">
<style type="text/css">
	.st0{fill-rule:evenodd;clip-rule:evenodd;fill:#1E3264;}
	.st1{fill:none;stroke:#FABE3C;stroke-miterlimit:10;}
	.st2{fill:#FABE3C;}
	.st3{fill:#1E3264;}
	.st4{fill:none;stroke:#FABE3C;stroke-width:0.5;stroke-miterlimit:10;}
	.st5{fill:none;stroke:#1E3264;stroke-miterlimit:10;}
	.st6{opacity:0.6;fill:#1E3264;}
	.st7{fill-rule:evenodd;clip-rule:evenodd;fill:#FABE3C;}
	.st8{fill-rule:evenodd;clip-rule:evenodd;fill:none;stroke:#1E3264;stroke-miterlimit:10;}
</style>
<path id="XMLID_660_" class="st0" d="M15.6,271.6h6.9V271c0-0.6-0.5-1.2-1.1-1.2h-4.7c-0.6,0-1.1,0.5-1.1,1.2V271.6z"/>
<path id="XMLID_661_" class="st0" d="M22.4,323.3h-6.9v0.6c0,0.6,0.5,1.1,1.1,1.1h4.7c0.6,0,1.1-0.5,1.1-1.1V323.3z"/>
<path id="XMLID_594_" class="st1" d="M8.2,322.9h21.7c1.6,0,2.8-1.3,2.8-2.8v-45.2c0-1.6-1.3-2.8-2.8-2.8H8.2
	c-1.6,0-2.8,1.3-2.8,2.8v45.2C5.3,321.7,6.6,322.9,8.2,322.9z"/>
<path id="XMLID_630_" class="st2" d="M-19.1,302.9h6.7V286c0-1.9-1.5-3.4-3.4-3.4h0c-1.9,0-3.4,1.5-3.4,3.4V302.9z"/>
<g id="XMLID_631_">
	<line id="XMLID_629_" class="st3" x1="-12.8" y1="302.9" x2="-18.3" y2="302.9"/>
	<line id="XMLID_632_" class="st4" x1="-29.9" y1="303.2" x2="-29.9" y2="323"/>
	<line id="XMLID_634_" class="st4" x1="-25.5" y1="302.9" x2="-25.5" y2="323.1"/>
	<line id="XMLID_635_" class="st4" x1="-23.3" y1="303" x2="-23.3" y2="323.1"/>
	<line id="XMLID_636_" class="st4" x1="-21.1" y1="302.9" x2="-21.1" y2="323.2"/>
	<line id="XMLID_637_" class="st4" x1="-18.9" y1="302.8" x2="-18.9" y2="323.2"/>
	<line id="XMLID_638_" class="st4" x1="-16.7" y1="302.9" x2="-16.7" y2="323.3"/>
	<line id="XMLID_639_" class="st4" x1="-14.4" y1="303.1" x2="-14.4" y2="322.9"/>
	<line id="XMLID_640_" class="st4" x1="-12.2" y1="303.1" x2="-12.2" y2="322.9"/>
	<line id="XMLID_641_" class="st4" x1="-10" y1="303.1" x2="-10" y2="322.9"/>
	<line id="XMLID_642_" class="st4" x1="-7.8" y1="303.2" x2="-7.8" y2="322.9"/>
	<line id="XMLID_643_" class="st4" x1="-5.6" y1="303.1" x2="-5.6" y2="322.9"/>
	<line id="XMLID_644_" class="st4" x1="-3.4" y1="303.2" x2="-3.4" y2="323"/>
	<line id="XMLID_645_" class="st4" x1="-1.2" y1="303.3" x2="-1.2" y2="323.1"/>
	<line id="XMLID_633_" class="st4" x1="-27.7" y1="303.3" x2="-27.7" y2="323.1"/>
	<line id="XMLID_646_" class="st4" x1="-32.5" y1="305.5" x2="1.4" y2="305.5"/>
	<line id="XMLID_647_" class="st4" x1="-32.6" y1="307.7" x2="1.3" y2="307.7"/>
	<line id="XMLID_648_" class="st4" x1="-32.6" y1="310" x2="1.3" y2="310"/>
	<line id="XMLID_649_" class="st4" x1="-32.6" y1="312.2" x2="1.3" y2="312.2"/>
	<line id="XMLID_650_" class="st4" x1="-32.5" y1="314.4" x2="1.4" y2="314.4"/>
	<line id="XMLID_651_" class="st4" x1="-32.6" y1="316.6" x2="1.3" y2="316.6"/>
	<line id="XMLID_652_" class="st4" x1="-32.7" y1="318.8" x2="1.2" y2="318.8"/>
	<line id="XMLID_653_" class="st4" x1="-32.8" y1="321" x2="1.2" y2="321"/>
	<path id="XMLID_614_" class="st5" d="M-1.4,323.2h-28.2c-1.6,0-2.8-1.3-2.8-2.8v-17.4H1.4v17.4C1.4,321.9,0.1,323.2-1.4,323.2z"/>
</g>
<path id="XMLID_654_" class="st3" d="M-16.5,302.8h1.6v-12.5c0-0.4-0.4-0.8-0.8-0.8h0c-0.4,0-0.8,0.4-0.8,0.8V302.8z"/>
<g>
	<path id="XMLID_613_" class="st6" d="M9.9,321.1h18.2c1.6,0,2.8-1.3,2.8-2.8v-41.5c0-1.6-1.3-2.8-2.8-2.8H9.9
		c-1.6,0-2.8,1.3-2.8,2.8v41.5C7.1,319.8,8.4,321.1,9.9,321.1z"/>
	<path id="XMLID_663_" class="st7" d="M28.9,321.1H18.6L31,302.3v16.6C31,320.1,30.1,321.1,28.9,321.1L28.9,321.1z"/>
</g>
<path id="XMLID_479_" class="st8" d="M33.2,292.8"/>
</svg>
