<?xml version="1.0" encoding="utf-8"?>
<!-- Generator: Adobe Illustrator 19.1.1, SVG Export Plug-In . SVG Version: 6.00 Build 0)  -->
<svg version="1.1" id="Layer_1" xmlns="http://www.w3.org/2000/svg" xmlns:xlink="http://www.w3.org/1999/xlink" x="0px" y="0px"
	 viewBox="-441 242 77 77" style="enable-background:new -441 242 77 77;" xml:space="preserve">
<style type="text/css">
	.st0{opacity:0.6;fill:#233662;}
	.st1{fill:#FABE3C;}
	.st2{fill:none;stroke:#1E3264;stroke-miterlimit:10;}
	.st3{fill:none;stroke:#FABE3C;stroke-miterlimit:10;}
	.st4{opacity:0.6;fill:none;stroke:#233662;stroke-miterlimit:10;}
</style>
<path id="XMLID_19_" class="st0" d="M-372.5,280.4l1.9,22.7c0,1.2-0.9,2.2-2,2.2c0,0-0.1,0-0.1,0c-0.1,0-0.1,0-0.2,0v0
	c-1-0.1-1.7-1.1-1.7-2.2l1.7-22.7"/>
<path id="XMLID_18_" class="st1" d="M-369.2,280c2.2-0.9,4.6-2.4,4.6-6c0-4.6-3.1-10.2-5.6-10.6v0c0,0-0.1,0-0.2,0h0
	c0,0-0.1,0-0.1,0c-0.7,0-1.4,0.4-2,1c0.4-0.3,0.8-0.4,1.2-0.4c0,0,0.1,0,0.1,0h0c0.1,0,0.1,0,0.2,0v0c2.5,0.4,5.5,5.9,5.5,10.4
	C-365.5,277.9-367,279.1-369.2,280"/>
<path id="XMLID_17_" class="st2" d="M-373.4,303.1l0.8-22.6c-2.1-0.9-4.5-2.4-4.5-6c0-4.5,3-10.1,5.4-10.5v0c0.1,0,0.1,0,0.2,0
	c0,0,0,0,0,0c0,0,0.1,0,0.1,0c2.5,0,5.7,5.9,5.7,10.5c0,3.6-2.3,5.1-4.5,6l0.8,22.6"/>
<circle id="XMLID_9_" class="st2" cx="-372.8" cy="271.2" r="0.9"/>
<circle id="XMLID_8_" class="st3" cx="-369.4" cy="271.2" r="0.9"/>
<circle id="XMLID_7_" class="st4" cx="-372.8" cy="274.7" r="0.9"/>
<circle id="XMLID_6_" class="st2" cx="-369.4" cy="274.7" r="0.9"/>
<path id="XMLID_3_" class="st2" d="M-369.4,303.1c0,1.1-0.9,2-2,2c-1.1,0-2-0.9-2-2"/>
</svg>
