<svg xmlns="http://www.w3.org/2000/svg" viewBox="0 0 439 439"><title>Asset 14</title><g id="Layer_2" data-name="Layer 2"><g id="Слой_1" data-name="Слой 1"><path d="M219.5,0C98.3,0,0,98.3,0,219.5S98.3,439,219.5,439,439,340.7,439,219.5,340.8,0,219.5,0ZM356.6,283.4a10,10,0,0,1-10,10H335.9a10,10,0,0,0-10,10v37.5a10,10,0,0,1-10,10H276a5.12,5.12,0,0,0-5.1,5.1,5.12,5.12,0,0,1-5.1,5.1H173.5a5.12,5.12,0,0,1-5.1-5.1,5.12,5.12,0,0,0-5.1-5.1H120.4a10,10,0,0,1-10-10V303.4a10,10,0,0,0-10-10H92.5a10,10,0,0,1-10-10V235.3a10,10,0,0,1,10-10h9.3a10,10,0,0,0,10-10V192a10,10,0,0,1,10-10h49.6a10.33,10.33,0,0,0,7.1-2.9l10.3-10.3a9.9,9.9,0,0,0,2.9-7.1V146.6a10,10,0,0,0-10-10h-.3a10,10,0,0,1-10-10V87.8a10,10,0,0,1,10-10h74.4a10,10,0,0,1,10,10v38.8a10,10,0,0,1-10,10h-1.1a10,10,0,0,0-10,10v15.8a9.92,9.92,0,0,0,3.6,7.7l11.6,9.6a10,10,0,0,0,6.4,2.3h51.1a10,10,0,0,1,10,10v23.3a10,10,0,0,0,10,10h9.3a10,10,0,0,1,10,10Z" fill="#fff"/><path d="M346.6,225.3h-9.3a10,10,0,0,1-10-10V192a10,10,0,0,0-10-10H266.2a10,10,0,0,1-6.4-2.3l-11.6-9.6a9.92,9.92,0,0,1-3.6-7.7V146.6a10,10,0,0,1,10-10h1.1a10,10,0,0,0,10-10V87.8a10,10,0,0,0-10-10H181.3a10,10,0,0,0-10,10v38.8a10,10,0,0,0,10,10h.3a10,10,0,0,1,10,10v15.1a9.9,9.9,0,0,1-2.9,7.1l-10.3,10.3a9.9,9.9,0,0,1-7.1,2.9H121.7a10,10,0,0,0-10,10v23.3a10,10,0,0,1-10,10H92.4a10,10,0,0,0-10,10v48.1a10,10,0,0,0,10,10h7.9a10,10,0,0,1,10,10v37.5a10,10,0,0,0,10,10h42.9a5.12,5.12,0,0,1,5.1,5.1,5.12,5.12,0,0,0,5.1,5.1h92.4a5.12,5.12,0,0,0,5.1-5.1,5.12,5.12,0,0,1,5.1-5.1h39.9a10,10,0,0,0,10-10V303.4a10,10,0,0,1,10-10h10.7a10,10,0,0,0,10-10V235.3A10,10,0,0,0,346.6,225.3ZM186,122.9a2,2,0,0,1-2-2v-29a2,2,0,0,1,2-2h64a2,2,0,0,1,2,2v29a2,2,0,0,1-2,2Zm38.7,25.8-5.8,10-5.8-10h4.8V130.6h2v18.1Zm-34.8,45.7,26.7-26.7a1.93,1.93,0,0,1,2.8,0l26.7,26.7a1.93,1.93,0,0,1,0,2.8l-26.7,26.7a1.93,1.93,0,0,1-2.8,0l-26.7-26.7A1.93,1.93,0,0,1,189.9,194.4Zm-88.8,88.4a2,2,0,0,1-2-2v-39a2,2,0,0,1,2-2h50a2,2,0,0,1,2,2v39a2,2,0,0,1-2,2Zm68,50.1v-4.8H127.7a3,3,0,0,1-3-3V289.9h2v35.2a1.08,1.08,0,0,0,1,1h41.4v-4.8l10,5.8Zm10-136.1H127.7a1,1,0,0,0-1,1v27.8h4.8l-5.8,10-5.8-10h4.8V197.8a3,3,0,0,1,3-3h51.4Zm72.9,145a2,2,0,0,1-2,2H186a2,2,0,0,1-2-2v-29a2,2,0,0,1,2-2h64a2,2,0,0,1,2,2Zm8.1-147h51.4a3,3,0,0,1,3,3v27.4h4.8l-5.8,10-5.8-10h4.8V197.8a1,1,0,0,0-1-1H260.1Zm54.4,130.3a3,3,0,0,1-3,3H270.1v4.8l-10-5.8,10-5.8v4.8h41.4a1.08,1.08,0,0,0,1-1V289.5h2ZM340,280.8a2,2,0,0,1-2,2H288a2,2,0,0,1-2-2v-39a2,2,0,0,1,2-2h50a2,2,0,0,1,2,2Z" fill="#fff5e0"/><path d="M252,91.9v29a2,2,0,0,1-2,2H186a2,2,0,0,1-2-2v-29a2,2,0,0,1,2-2h64A2,2,0,0,1,252,91.9Z" fill="#ea631d"/><path d="M252,312.8v29a2,2,0,0,1-2,2H186a2,2,0,0,1-2-2v-29a2,2,0,0,1,2-2h64A2,2,0,0,1,252,312.8Z" fill="#ea631d"/><path d="M153.1,241.8v39a2,2,0,0,1-2,2h-50a2,2,0,0,1-2-2v-39a2,2,0,0,1,2-2h50A2,2,0,0,1,153.1,241.8Z" fill="#ea631d"/><path d="M340,241.8v39a2,2,0,0,1-2,2H288a2,2,0,0,1-2-2v-39a2,2,0,0,1,2-2h50A2,2,0,0,1,340,241.8Z" fill="#ea631d"/><path d="M246.2,197.2l-26.7,26.7a1.93,1.93,0,0,1-2.8,0L190,197.2a1.93,1.93,0,0,1,0-2.8l26.7-26.7a1.93,1.93,0,0,1,2.8,0l26.7,26.7A2.13,2.13,0,0,1,246.2,197.2Z" fill="#00697a"/><path d="M224.7,148.7l-5.8,10-5.8-10h4.8V130.6h2v18.1Z" fill="#00697a"/><path d="M126.7,197.8v27.8h4.8l-5.8,10-5.8-10h4.8V197.8a3,3,0,0,1,3-3h51.4v2H127.7A1,1,0,0,0,126.7,197.8Z" fill="#00697a"/><path d="M319.2,225.1l-5.8,10-5.8-10h4.8V197.7a1,1,0,0,0-1-1H260v-2h51.4a3,3,0,0,1,3,3v27.4Z" fill="#00697a"/><path d="M314.5,289.5v35.6a3,3,0,0,1-3,3H270.1v4.8l-10-5.8,10-5.8v4.8h41.4a1.08,1.08,0,0,0,1-1V289.5Z" fill="#00697a"/><path d="M169.1,332.9v-4.8H127.7a3,3,0,0,1-3-3V289.9h2v35.2a1.08,1.08,0,0,0,1,1h41.4v-4.8l10,5.8Z" fill="#00697a"/></g></g></svg>