<?xml version="1.0" encoding="utf-8"?>
<!-- Generator: Adobe Illustrator 19.1.1, SVG Export Plug-In . SVG Version: 6.00 Build 0)  -->
<svg version="1.1" id="Layer_1" xmlns="http://www.w3.org/2000/svg" xmlns:xlink="http://www.w3.org/1999/xlink" x="0px" y="0px"
	 viewBox="-441 242 77 77" style="enable-background:new -441 242 77 77;" xml:space="preserve">
<style type="text/css">
	.st0{opacity:0.6;fill:#233662;}
	.st1{fill:#1E3264;}
	.st2{fill:none;stroke:#FABE3C;stroke-miterlimit:10;}
	.st3{fill:#FABE3C;}
	.st4{fill:none;stroke:#1E3264;stroke-miterlimit:10;}
</style>
<rect id="XMLID_16_" x="-414.1" y="257.9" class="st0" width="2.8" height="13.3"/>
<path id="XMLID_15_" class="st1" d="M-410.9,271.3h-3.6l0-13.9h3.6L-410.9,271.3z M-413.7,271h2v-12.7h-2V271z"/>
<path id="XMLID_14_" class="st1" d="M-410.9,257.5v2.7h-9.7v3.1c0,0.6-0.5,1.1-1.1,1.1h-1.1c-0.6,0-1.1-0.5-1.1-1.1v-4.6
	c0-0.7,0.5-1.2,1.2-1.2H-410.9z"/>
<path id="XMLID_13_" class="st2" d="M-406.6,274.5h-12.3v-2c0-0.8,0.6-1.4,1.4-1.4h9.4c0.8,0,1.4,0.6,1.4,1.4V274.5z"/>
<polygon id="XMLID_12_" class="st0" points="-431.4,275.2 -432.6,275.4 -433.5,276.1 -439.5,305.2 -434.7,305.2 -428.5,278.1 
	-428.8,275.2 "/>
<path id="XMLID_11_" class="st3" d="M-429,273.7h32.2c0.9,0,1.7,0.6,1.8,1.5l5.4,29.6h-47.3l5.9-29.6
	C-430.6,274.3-429.9,273.7-429,273.7z"/>
<path id="XMLID_10_" class="st4" d="M-431.9,275.2h31.4c0.9,0,1.7,0.6,1.9,1.5l5.3,28.4h-46.2l5.8-28.5
	C-433.6,275.9-432.8,275.2-431.9,275.2z"/>
</svg>
