<svg xmlns="http://www.w3.org/2000/svg" viewBox="0 0 439 439"><title>Asset 7</title><g id="Layer_2" data-name="Layer 2"><g id="Слой_1" data-name="Слой 1"><path d="M219.5,0C98.3,0,0,98.3,0,219.5S98.3,439,219.5,439,439,340.7,439,219.5,340.7,0,219.5,0ZM361.7,321.8a3,3,0,0,1-3,2.9H334.8a1.3,1.3,0,0,1-1.2.8h-3.1a1,1,0,0,0-1,1v1.9a1.32,1.32,0,0,1-1.3,1.3H321a.94.94,0,0,0-1,1v3.7a1.32,1.32,0,0,1-1.3,1.3h-4.8a1,1,0,0,0-1,1v9.2a1.32,1.32,0,0,1-1.3,1.3h-1.8a.94.94,0,0,0-1,1v3.1a1.32,1.32,0,0,1-1.3,1.3h-1.8a1.32,1.32,0,0,1-1.3-1.3v-3.8a1,1,0,0,0-1-1h-1.8a1.32,1.32,0,0,1-1.3-1.3V336a.94.94,0,0,0-1-1h-3a1,1,0,0,0-1,1v9.2a1.32,1.32,0,0,1-1.3,1.3h-1.8a.94.94,0,0,0-1,1v3.1a1.32,1.32,0,0,1-1.3,1.3h-1.8a1.32,1.32,0,0,1-1.3-1.3v-3.1a1,1,0,0,0-1-1H284a1.32,1.32,0,0,1-1.3-1.3V336a.94.94,0,0,0-1-1h-3a.94.94,0,0,0-1,1v9.2a1.32,1.32,0,0,1-1.3,1.3h-1.8a.94.94,0,0,0-1,1v3.1a1.32,1.32,0,0,1-1.3,1.3h-1.8a1.32,1.32,0,0,1-1.3-1.3v-3.1a.94.94,0,0,0-1-1h-1.8a1.32,1.32,0,0,1-1.3-1.3V336a.94.94,0,0,0-1-1h-3a.94.94,0,0,0-1,1v9.2a1.32,1.32,0,0,1-1.3,1.3H257a1,1,0,0,0-1,1v3.1a1.32,1.32,0,0,1-1.3,1.3h-1.8a1.32,1.32,0,0,1-1.3-1.3v-3.1a.94.94,0,0,0-1-1h-1.8a1.32,1.32,0,0,1-1.3-1.3V336a1,1,0,0,0-1-1h-3a1,1,0,0,0-1,1v9.2a1.32,1.32,0,0,1-1.3,1.3h-1.8a.94.94,0,0,0-1,1v3.1a1.32,1.32,0,0,1-1.3,1.3h-1.8a1.32,1.32,0,0,1-1.3-1.3v-3.1a1,1,0,0,0-1-1h-1.8a1.32,1.32,0,0,1-1.3-1.3V336a.94.94,0,0,0-1-1h-3a.94.94,0,0,0-1,1v9.2a1.32,1.32,0,0,1-1.3,1.3h-1.8a1,1,0,0,0-1,1v3.1a1.32,1.32,0,0,1-1.3,1.3H218a1.32,1.32,0,0,1-1.3-1.3v-3.1a.94.94,0,0,0-1-1H214a1.32,1.32,0,0,1-1.3-1.3V336a.94.94,0,0,0-1-1h-3a.94.94,0,0,0-1,1v9.2a1.32,1.32,0,0,1-1.3,1.3h-1.8a.94.94,0,0,0-1,1v3.1a1.32,1.32,0,0,1-1.3,1.3h-1.8a1.32,1.32,0,0,1-1.3-1.3v-3.1a.94.94,0,0,0-1-1h-1.8a1.32,1.32,0,0,1-1.3-1.3V336a.94.94,0,0,0-1-1h-3a.94.94,0,0,0-1,1v9.2a1.32,1.32,0,0,1-1.3,1.3H187a.94.94,0,0,0-1,1v3.1a1.32,1.32,0,0,1-1.3,1.3h-1.8a1.32,1.32,0,0,1-1.3-1.3v-3.1a.94.94,0,0,0-1-1H179a1.32,1.32,0,0,1-1.3-1.3V336a.94.94,0,0,0-1-1h-5a1.32,1.32,0,0,1-1.3-1.3V330a.94.94,0,0,0-1-1h-7.2a1.32,1.32,0,0,1-1.3-1.3v-1.9a.94.94,0,0,0-1-1h-3v.2a1.14,1.14,0,0,1-.8-.3H140.6a3,3,0,0,1-3-3V271.1c0-22.1-4.9-38-14.5-47.3-11.8-11.4-28.2-10.9-39.1-10.5-1.7.1-3.2.1-4.6.1a2,2,0,0,1,0-4c1.3,0,2.8-.1,4.4-.1,10.8-.4,29-1,42,11.6,10.4,10.1,15.7,27,15.7,50.1v49.6h14.9a.9.9,0,0,1,.5-.1H160a.94.94,0,0,0,1-1v-1.9a1.32,1.32,0,0,1,1.3-1.3h7.2a.94.94,0,0,0,1-1v-3.1a.94.94,0,0,0-1-1h-7.2a1.32,1.32,0,0,1-1.3-1.3V308a.94.94,0,0,0-1-1h-3.1a1.32,1.32,0,0,1-1.3-1.3v-1.9a1.32,1.32,0,0,1,1.3-1.3H160a.94.94,0,0,0,1-1v-1.9a1.32,1.32,0,0,1,1.3-1.3h7.2a.94.94,0,0,0,1-1v-3.1a.94.94,0,0,0-1-1h-7.2a1.32,1.32,0,0,1-1.3-1.3V290a.94.94,0,0,0-1-1h-3.1a1.32,1.32,0,0,1-1.3-1.3v-1.9a1.32,1.32,0,0,1,1.3-1.3H160a.94.94,0,0,0,1-1v-1.9a1.32,1.32,0,0,1,1.3-1.3h7.2a.94.94,0,0,0,1-1v-2.8a.94.94,0,0,0-1-1h-7.2a1.32,1.32,0,0,1-1.3-1.3v-1.9a.94.94,0,0,0-1-1h-3.1a1.32,1.32,0,0,1-1.3-1.3v-1.9a1.32,1.32,0,0,1,1.3-1.3H160a.94.94,0,0,0,1-1v-1.9a1.32,1.32,0,0,1,1.3-1.3h7.2a.94.94,0,0,0,1-1v-3.1a.94.94,0,0,0-1-1h-7.2a1.32,1.32,0,0,1-1.3-1.3v-1.7a.94.94,0,0,0-1-1h-3.1a1.32,1.32,0,0,1-1.3-1.3v-1.9a1.32,1.32,0,0,1,1.3-1.3H160a.94.94,0,0,0,1-1v-1.9a1.32,1.32,0,0,1,1.3-1.3h7.2a.94.94,0,0,0,1-1v-2.9a1.32,1.32,0,0,1,1.3-1.3h7.7a.94.94,0,0,0,1-1v-9.3a1.32,1.32,0,0,1,1.3-1.3h1.6a.94.94,0,0,0,1-1v-3.1a1.3,1.3,0,0,1,1.2-1.3V182.7a2,2,0,0,1,.6-1.4l8-8V145.2a5.3,5.3,0,1,1,2,0v28.1a2,2,0,0,1-.6,1.4l-8,8v39.9a1.3,1.3,0,0,1,1,1.3V227a.94.94,0,0,0,1,1h1.6a1.32,1.32,0,0,1,1.3,1.3v9.3a.94.94,0,0,0,1,1h2.8a.94.94,0,0,0,1-1v-9.3a1.32,1.32,0,0,1,1.3-1.3h1.6a.94.94,0,0,0,1-1v-3.1a1.38,1.38,0,0,1,1-1.3V193a2.11,2.11,0,0,1,.5-1.3l5.3-5.8V166.4a5.3,5.3,0,1,1,2,0v19.5a2.11,2.11,0,0,1-.5,1.3l-5.3,5.8v29.6a1.24,1.24,0,0,1,1.2,1.3V227a.94.94,0,0,0,1,1H208a1.32,1.32,0,0,1,1.3,1.3v9.3a.94.94,0,0,0,1,1h2.8a.94.94,0,0,0,1-1v-9.3a1.32,1.32,0,0,1,1.3-1.3H217a.94.94,0,0,0,1-1v-3.1a1.38,1.38,0,0,1,1-1.3V163.4a2.35,2.35,0,0,1,.2-.8l5.6-12.2V106.2a5.26,5.26,0,0,1-4.3-5.2,5.3,5.3,0,1,1,10.6,0,5.26,5.26,0,0,1-4.3,5.2v44.5c0,.2-.1.3-.2.5L221,163.4v59.2a1.24,1.24,0,0,1,1.2,1.3V227a1,1,0,0,0,1,1h1.6a1.32,1.32,0,0,1,1.3,1.3v9.3a1,1,0,0,0,1,1h2.8a1,1,0,0,0,1-1v-9.3a1.32,1.32,0,0,1,1.3-1.3h1.6a.94.94,0,0,0,1-1v-3.1a1.38,1.38,0,0,1,1-1.3V186.2a5.3,5.3,0,1,1,2,0v36.4a1.24,1.24,0,0,1,1.2,1.3V227a1,1,0,0,0,1,1h1.6a1.32,1.32,0,0,1,1.3,1.3v9.3a.94.94,0,0,0,1,1h2.8a.94.94,0,0,0,1-1v-9.3A1.32,1.32,0,0,1,249,228h1.6a.94.94,0,0,0,1-1v-3.1a1.36,1.36,0,0,1,.6-1.1h-.3V175.9l-8.6-9.4a1.61,1.61,0,0,1-.4-.7c0-.1-.1-.2-.1-.3V131.4a5.26,5.26,0,0,1-4.3-5.2,5.3,5.3,0,1,1,6.3,5.2v33.7l-.1.1h.1l8.5,9.3.1.1a2.11,2.11,0,0,1,.5,1.3v46.7h.7a1.32,1.32,0,0,1,1.3,1.3V227a.94.94,0,0,0,1,1h1.6a1.32,1.32,0,0,1,1.3,1.3v9.3a.94.94,0,0,0,1,1h2.8a.94.94,0,0,0,1-1v-9.3a1.32,1.32,0,0,1,1.3-1.3h1.6a.94.94,0,0,0,1-1v-3.1a1.2,1.2,0,0,1,.9-1.2V165.5l-8.5-8.2a2.09,2.09,0,0,1-.4-.6,1.7,1.7,0,0,1-.1-.7V144a5.3,5.3,0,1,1,2,0v12l8.5,8.2a2,2,0,0,1,.6,1.4v57.1a1.32,1.32,0,0,1,1.3,1.3v3.1a1,1,0,0,0,1,1h1.6a1.32,1.32,0,0,1,1.3,1.3v9.3a.94.94,0,0,0,1,1h2.8a1,1,0,0,0,1-1v-9.3a1.32,1.32,0,0,1,1.3-1.3h1.6a1,1,0,0,0,1-1V224a1.2,1.2,0,0,1,.9-1.2V131.5a5.17,5.17,0,0,1-4.3-5.2,5.3,5.3,0,1,1,6.3,5.2v91.2h.1a1.32,1.32,0,0,1,1.3,1.3v3.1a.94.94,0,0,0,1,1h1.6a1.32,1.32,0,0,1,1.3,1.3v9.3a.94.94,0,0,0,1,1h2.8a.94.94,0,0,0,1-1v-9.3a1.32,1.32,0,0,1,1.3-1.3h1.6a.94.94,0,0,0,1-1V224a1.23,1.23,0,0,1,.7-1.1V182.8a2,2,0,0,1,.6-1.4l8-8V145.3a5.17,5.17,0,0,1-4.3-5.2,5.3,5.3,0,1,1,10.6,0,5.26,5.26,0,0,1-4.3,5.2v28.1a2,2,0,0,1-.6,1.4l-8,8v39.9h.2a1.32,1.32,0,0,1,1.3,1.3v3.1a.94.94,0,0,0,1,1h1.6a1.32,1.32,0,0,1,1.3,1.3v9.3a1,1,0,0,0,1,1h7.4a1.32,1.32,0,0,1,1.3,1.3v2.9a.94.94,0,0,0,1,1h7.2a1.32,1.32,0,0,1,1.3,1.3v1.9a1,1,0,0,0,1,1h3.1a1.32,1.32,0,0,1,1.3,1.3v1.9a1.32,1.32,0,0,1-1.3,1.3h-3.1a1,1,0,0,0-1,1v1.9a1.32,1.32,0,0,1-1.3,1.3h-7.2a.94.94,0,0,0-1,1v3.1a.94.94,0,0,0,1,1h7.2a1.32,1.32,0,0,1,1.3,1.3v1.9a1,1,0,0,0,1,1h3.1a1.32,1.32,0,0,1,1.3,1.3v1.9a1.32,1.32,0,0,1-1.3,1.3h-3.1a1,1,0,0,0-1,1v1.9a1.32,1.32,0,0,1-1.3,1.3h-7.2a.94.94,0,0,0-1,1v3.1a.94.94,0,0,0,1,1h7.2a1.32,1.32,0,0,1,1.3,1.3v1.9a1,1,0,0,0,1,1h3.1a1.32,1.32,0,0,1,1.3,1.3v1.9a1.32,1.32,0,0,1-1.3,1.3h-3.1a1,1,0,0,0-1,1v1.9a1.32,1.32,0,0,1-1.3,1.3h-7.2a.94.94,0,0,0-1,1v3.1a.94.94,0,0,0,1,1h7.2a1.32,1.32,0,0,1,1.3,1.3v1.9a1,1,0,0,0,1,1h3.1a1.32,1.32,0,0,1,1.3,1.3v1.9a1.32,1.32,0,0,1-1.3,1.3h-3.1a1,1,0,0,0-1,1v1.9a1.32,1.32,0,0,1-1.3,1.3h-7.2a.94.94,0,0,0-1,1v3.1a.94.94,0,0,0,1,1h7.2a1.32,1.32,0,0,1,1.3,1.3v1.9a.91.91,0,0,0,.3.7h27.9V87.1a2,2,0,1,1,4,0V321.8Z" fill="#fff"/><path d="M360.1,85.1a2,2,0,0,0-2,2V320.7H330.2a.91.91,0,0,0,.7.3H334a1.32,1.32,0,0,1,1.3,1.3v1.9a.9.9,0,0,1-.1.5h23.9a3,3,0,0,0,3-2.9V87.1A2,2,0,0,0,360.1,85.1Z" fill="#ea631d"/><path d="M156.2,324.7H140.7a3,3,0,0,1-3-3V271.1c0-22.1-4.9-38-14.5-47.3-11.8-11.4-28.2-10.9-39.1-10.5-1.7.1-3.2.1-4.6.1a2,2,0,1,1,0-4c1.3,0,2.8-.1,4.4-.1,10.8-.4,29-1,42,11.6,10.4,10.1,15.7,27,15.7,50.1v49.6h14.9a1.3,1.3,0,0,0-.8,1.2v1.9A1.23,1.23,0,0,0,156.2,324.7Z" fill="#ea631d"/><path d="M321,257.7h7.2a1.32,1.32,0,0,0,1.3-1.3v-1.9a1,1,0,0,1,1-1h3.1a1.32,1.32,0,0,0,1.3-1.3v-1.9a1.32,1.32,0,0,0-1.3-1.3h-3.1a1,1,0,0,1-1-1v-1.9a1.32,1.32,0,0,0-1.3-1.3H321a.94.94,0,0,1-1-1v-2.9a1.32,1.32,0,0,0-1.3-1.3h-7.4a1,1,0,0,1-1-1v-9.3A1.32,1.32,0,0,0,309,228h-1.6a.94.94,0,0,1-1-1v-3.1a1.32,1.32,0,0,0-1.3-1.3h-.2v.2h-2a1.23,1.23,0,0,0-.7,1.1V227a.94.94,0,0,1-1,1h-1.6a1.32,1.32,0,0,0-1.3,1.3v9.3a.94.94,0,0,1-1,1h-2.8a.94.94,0,0,1-1-1v-9.3a1.32,1.32,0,0,0-1.3-1.3h-1.6a.94.94,0,0,1-1-1v-3.1a1.32,1.32,0,0,0-1.3-1.3h-.1v.2h-2v-.1a1.4,1.4,0,0,0-.9,1.2V227a1,1,0,0,1-1,1h-1.6a1.32,1.32,0,0,0-1.3,1.3v9.3a1,1,0,0,1-1,1h-2.8a.94.94,0,0,1-1-1v-9.3a1.32,1.32,0,0,0-1.3-1.3h-1.6a1,1,0,0,1-1-1v-3.1a1.32,1.32,0,0,0-1.3-1.3v.2h-2v-.1a1.4,1.4,0,0,0-.9,1.2V227a.94.94,0,0,1-1,1h-1.6a1.32,1.32,0,0,0-1.3,1.3v9.3a.94.94,0,0,1-1,1h-2.8a.94.94,0,0,1-1-1v-9.3a1.32,1.32,0,0,0-1.3-1.3h-1.6a.94.94,0,0,1-1-1v-3.1a1.32,1.32,0,0,0-1.3-1.3h-.7v.2h-1.7a1.15,1.15,0,0,0-.6,1.1V227a.94.94,0,0,1-1,1H249a1.32,1.32,0,0,0-1.3,1.3v9.3a.94.94,0,0,1-1,1h-2.8a.94.94,0,0,1-1-1v-9.3a1.32,1.32,0,0,0-1.3-1.3H240a1,1,0,0,1-1-1v-3.1a1.3,1.3,0,0,0-1.2-1.3v.2h-2v-.2a1.3,1.3,0,0,0-1,1.3V227a.94.94,0,0,1-1,1h-1.6a1.32,1.32,0,0,0-1.3,1.3v9.3a1,1,0,0,1-1,1h-2.8a1,1,0,0,1-1-1v-9.3a1.32,1.32,0,0,0-1.3-1.3h-1.6a1,1,0,0,1-1-1v-3.1a1.3,1.3,0,0,0-1.2-1.3v.2h-2v-.2a1.3,1.3,0,0,0-1,1.3V227a.94.94,0,0,1-1,1h-1.6a1.32,1.32,0,0,0-1.3,1.3v9.3a.94.94,0,0,1-1,1h-2.8a.94.94,0,0,1-1-1v-9.3A1.32,1.32,0,0,0,208,228h-1.6a.94.94,0,0,1-1-1v-3.1a1.3,1.3,0,0,0-1.2-1.3v.2h-2v-.2a1.3,1.3,0,0,0-1,1.3V227a.94.94,0,0,1-1,1h-1.6a1.32,1.32,0,0,0-1.3,1.3v9.3a.94.94,0,0,1-1,1h-2.8a.94.94,0,0,1-1-1v-9.3a1.32,1.32,0,0,0-1.3-1.3h-1.6a.94.94,0,0,1-1-1v-3.1a1.38,1.38,0,0,0-1-1.3v.2h-2v-.2a1.24,1.24,0,0,0-1.2,1.3V227a.94.94,0,0,1-1,1h-1.6a1.32,1.32,0,0,0-1.3,1.3v9.3a.94.94,0,0,1-1,1h-7.7a1.32,1.32,0,0,0-1.3,1.3v2.9a.94.94,0,0,1-1,1h-7.2a1.32,1.32,0,0,0-1.3,1.3V248a.94.94,0,0,1-1,1h-3.1a1.32,1.32,0,0,0-1.3,1.3v1.9a1.32,1.32,0,0,0,1.3,1.3H160a.94.94,0,0,1,1,1v1.7a1.32,1.32,0,0,0,1.3,1.3h7.2a.94.94,0,0,1,1,1v3.1a.94.94,0,0,1-1,1h-7.2a1.32,1.32,0,0,0-1.3,1.3v1.9a.94.94,0,0,1-1,1h-3.1a1.32,1.32,0,0,0-1.3,1.3V270a1.32,1.32,0,0,0,1.3,1.3H160a.94.94,0,0,1,1,1v1.9a1.32,1.32,0,0,0,1.3,1.3h7.2a.94.94,0,0,1,1,1v2.8a.94.94,0,0,1-1,1h-7.2a1.32,1.32,0,0,0-1.3,1.3v1.9a.94.94,0,0,1-1,1h-3.1a1.32,1.32,0,0,0-1.3,1.3v1.9a1.32,1.32,0,0,0,1.3,1.3H160a.94.94,0,0,1,1,1v1.9a1.32,1.32,0,0,0,1.3,1.3h7.2a.94.94,0,0,1,1,1v3.1a.94.94,0,0,1-1,1h-7.2a1.32,1.32,0,0,0-1.3,1.3v1.9a.94.94,0,0,1-1,1h-3.1a1.32,1.32,0,0,0-1.3,1.3v1.9a1.32,1.32,0,0,0,1.3,1.3H160a.94.94,0,0,1,1,1v1.9a1.32,1.32,0,0,0,1.3,1.3h7.2a.94.94,0,0,1,1,1v3.1a.94.94,0,0,1-1,1h-7.2a1.32,1.32,0,0,0-1.3,1.3v1.9a.94.94,0,0,1-1,1h-3.1a.9.9,0,0,0-.5.1,1.3,1.3,0,0,0-.8,1.2v1.9a1.23,1.23,0,0,0,.5,1,1.14,1.14,0,0,0,.8.3v-.2h3a.94.94,0,0,1,1,1v1.9a1.32,1.32,0,0,0,1.3,1.3h7.2a.94.94,0,0,1,1,1v3.7a1.32,1.32,0,0,0,1.3,1.3h5a.94.94,0,0,1,1,1v9.2a1.32,1.32,0,0,0,1.3,1.3h1.6a.94.94,0,0,1,1,1v3.1a1.32,1.32,0,0,0,1.3,1.3h1.8a1.32,1.32,0,0,0,1.3-1.3v-3.1a.94.94,0,0,1,1-1h1.8a1.32,1.32,0,0,0,1.3-1.3V336a.94.94,0,0,1,1-1h3a.94.94,0,0,1,1,1v9.2a1.32,1.32,0,0,0,1.3,1.3h1.8a.94.94,0,0,1,1,1v3.1a1.32,1.32,0,0,0,1.3,1.3h1.8a1.32,1.32,0,0,0,1.3-1.3v-3.1a.94.94,0,0,1,1-1h1.8a1.32,1.32,0,0,0,1.3-1.3V336a.94.94,0,0,1,1-1h3a.94.94,0,0,1,1,1v9.2a1.32,1.32,0,0,0,1.3,1.3h1.7a.94.94,0,0,1,1,1v3.1a1.32,1.32,0,0,0,1.3,1.3h1.5a1.32,1.32,0,0,0,1.3-1.3v-3.1a1,1,0,0,1,1-1h1.8a1.32,1.32,0,0,0,1.3-1.3V336a.94.94,0,0,1,1-1h3a.94.94,0,0,1,1,1v9.2a1.32,1.32,0,0,0,1.3,1.3H233a1,1,0,0,1,1,1v3.1a1.32,1.32,0,0,0,1.3,1.3h1.8a1.32,1.32,0,0,0,1.3-1.3v-3.1a.94.94,0,0,1,1-1h1.8a1.32,1.32,0,0,0,1.3-1.3V336a1,1,0,0,1,1-1h3a1,1,0,0,1,1,1v9.2a1.32,1.32,0,0,0,1.3,1.3h1.8a.94.94,0,0,1,1,1v3.1a1.32,1.32,0,0,0,1.3,1.3h1.8a1.32,1.32,0,0,0,1.3-1.3v-3.1a1,1,0,0,1,1-1h1.8a1.32,1.32,0,0,0,1.3-1.3V336a.94.94,0,0,1,1-1h3a.94.94,0,0,1,1,1v9.2a1.32,1.32,0,0,0,1.3,1.3h1.8a.94.94,0,0,1,1,1v3.1a1.32,1.32,0,0,0,1.3,1.3h1.8a1.32,1.32,0,0,0,1.3-1.3v-3.1a.94.94,0,0,1,1-1h1.8a1.32,1.32,0,0,0,1.3-1.3V336a.94.94,0,0,1,1-1h3a.94.94,0,0,1,1,1v9.2a1.32,1.32,0,0,0,1.3,1.3h1.8a1,1,0,0,1,1,1v3.1a1.32,1.32,0,0,0,1.3,1.3h1.8a1.32,1.32,0,0,0,1.3-1.3v-3.1a.94.94,0,0,1,1-1H294a1.32,1.32,0,0,0,1.3-1.3V336a1,1,0,0,1,1-1h3a.94.94,0,0,1,1,1v9.2a1.32,1.32,0,0,0,1.3,1.3h1.8a1,1,0,0,1,1,1v3.8a1.32,1.32,0,0,0,1.3,1.3h1.8a1.32,1.32,0,0,0,1.3-1.3v-3.1a.94.94,0,0,1,1-1h1.8a1.32,1.32,0,0,0,1.3-1.3v-9.2a1,1,0,0,1,1-1h4.8a1.32,1.32,0,0,0,1.3-1.3v-3.7a.94.94,0,0,1,1-1h7.2a1.32,1.32,0,0,0,1.3-1.3v-1.9a1,1,0,0,1,1-1h3.1a1.3,1.3,0,0,0,1.2-.8.9.9,0,0,0,.1-.5v-1.9a1.32,1.32,0,0,0-1.3-1.3h-3.1a1,1,0,0,1-1-1v-1.9a1.32,1.32,0,0,0-1.3-1.3H321a.94.94,0,0,1-1-1v-3.1a.94.94,0,0,1,1-1h7.2a1.32,1.32,0,0,0,1.3-1.3v-1.9a1,1,0,0,1,1-1h3.1a1.32,1.32,0,0,0,1.3-1.3v-1.9a1.32,1.32,0,0,0-1.3-1.3h-3.1a1,1,0,0,1-1-1v-1.9a1.32,1.32,0,0,0-1.3-1.3H321a.94.94,0,0,1-1-1v-3.1a.94.94,0,0,1,1-1h7.2a1.32,1.32,0,0,0,1.3-1.3v-1.9a1,1,0,0,1,1-1h3.1a1.32,1.32,0,0,0,1.3-1.3v-1.9a1.32,1.32,0,0,0-1.3-1.3h-3.1a1,1,0,0,1-1-1v-1.9a1.32,1.32,0,0,0-1.3-1.3H321a.94.94,0,0,1-1-1v-3.1a.94.94,0,0,1,1-1h7.2a1.32,1.32,0,0,0,1.3-1.3v-1.9a1,1,0,0,1,1-1h3.1a1.32,1.32,0,0,0,1.3-1.3v-1.9a1.32,1.32,0,0,0-1.3-1.3h-3.1a1,1,0,0,1-1-1v-1.9a1.32,1.32,0,0,0-1.3-1.3H321a.94.94,0,0,1-1-1v-3.1A.94.94,0,0,1,321,257.7Zm-16.4,66.7h-2V260.2a9,9,0,0,0-9-9H186.5v-2H293.6a11,11,0,0,1,11,11Z" fill="#00697a"/><path d="M317.9,140.2a5.36,5.36,0,0,1-4.3,5.2v28.1a2,2,0,0,1-.6,1.4l-8,8v39.9h-2V182.9a2,2,0,0,1,.6-1.4l8-8V145.4a5.3,5.3,0,1,1,6.3-5.2Z" fill="#ea631d"/><path d="M200.5,140.2a5.26,5.26,0,0,1-4.3,5.2v28.1a2,2,0,0,1-.6,1.4l-8,8v39.9h-1.4a1.42,1.42,0,0,0-.6.2V182.9a2,2,0,0,1,.6-1.4l8-8V145.4a5.17,5.17,0,0,1-4.3-5.2,5.3,5.3,0,0,1,10.6,0Z" fill="#ea631d"/><path d="M214.3,161.4a5.36,5.36,0,0,1-4.3,5.2v19.5a2.11,2.11,0,0,1-.5,1.3l-5.3,5.8v29.6h-2V193.2a2.11,2.11,0,0,1,.5-1.3l5.3-5.8V166.6a5.3,5.3,0,1,1,6.3-5.2Z" fill="#ea631d"/><path d="M253.9,175.9v46.7h-1a1.85,1.85,0,0,0-.7.2h-.3V175.9l-8.6-9.4a1.61,1.61,0,0,1-.4-.7c0-.1-.1-.2-.1-.3V131.4a5.26,5.26,0,0,1-4.3-5.2,5.3,5.3,0,1,1,6.3,5.2v33.7l-.1.1h.1l8.5,9.3.1.1A2.11,2.11,0,0,1,253.9,175.9Z" fill="#ea631d"/><path d="M271.4,165.6v57.1h-1.6a.6.6,0,0,0-.4.1V165.6l-8.5-8.2a2.09,2.09,0,0,1-.4-.6,1.7,1.7,0,0,1-.1-.7v-12a5.3,5.3,0,1,1,2,0v12l8.5,8.2A1.9,1.9,0,0,1,271.4,165.6Z" fill="#ea631d"/><path d="M231.1,101.2a5.26,5.26,0,0,1-4.3,5.2v44.5c0,.2-.1.3-.2.5L221,163.6v59.2h-2V163.6a2.35,2.35,0,0,1,.2-.8l5.6-12.2v.1h.1l-.1-.1V106.4a5.26,5.26,0,0,1-4.3-5.2,5.3,5.3,0,1,1,10.6,0Z" fill="#ea631d"/><path d="M242,181a5.36,5.36,0,0,1-4.3,5.2v36.4h-2V186.2A5.3,5.3,0,1,1,242,181Z" fill="#ea631d"/><path d="M292.7,126.3a5.36,5.36,0,0,1-4.3,5.2v91.2h-1.6a.6.6,0,0,0-.4.1V131.5a5.17,5.17,0,0,1-4.3-5.2,5.3,5.3,0,0,1,10.6,0Z" fill="#ea631d"/><path d="M305.5,260.5v64.2h-2V260.5a9,9,0,0,0-9-9H187.4v-2H294.5A11,11,0,0,1,305.5,260.5Z" fill="#f4f0e6"/></g></g></svg>