<?xml version="1.0" encoding="utf-8"?>
<!-- Generator: Adobe Illustrator 19.1.1, SVG Export Plug-In . SVG Version: 6.00 Build 0)  -->
<svg version="1.1" id="Layer_1" xmlns="http://www.w3.org/2000/svg" xmlns:xlink="http://www.w3.org/1999/xlink" x="0px" y="0px"
	 viewBox="-38.5 261.5 77 77" style="enable-background:new -38.5 261.5 77 77;" xml:space="preserve">
<style type="text/css">
	.st0{opacity:0.6;fill:#1E3264;}
	.st1{fill:#FABE3C;}
	.st2{fill:none;stroke:#1E3264;stroke-miterlimit:10;}
	.st3{fill:#1E3264;}
	.st4{fill:none;stroke:#FABE3C;stroke-miterlimit:10;}
	.st5{opacity:0.6;fill:none;stroke:#1E3264;stroke-miterlimit:10;}
</style>
<path id="XMLID_445_" class="st0" d="M29.8,301.4l1.9,22.7c0,1.2-0.9,2.2-2,2.2c0,0-0.1,0-0.1,0c-0.1,0-0.1,0-0.2,0v0
	c-1-0.1-1.7-1.1-1.7-2.2l1.7-22.7"/>
<path id="XMLID_451_" class="st1" d="M33.1,301c2.2-0.9,4.6-2.4,4.6-6c0-4.6-3.1-10.2-5.6-10.6v0c0,0-0.1,0-0.2,0h0c0,0-0.1,0-0.1,0
	c-0.7,0-1.4,0.4-2,1c0.4-0.3,0.8-0.4,1.2-0.4c0,0,0.1,0,0.1,0h0c0.1,0,0.1,0,0.2,0v0c2.5,0.4,5.5,5.9,5.5,10.4
	C36.8,298.9,35.3,300.1,33.1,301"/>
<path id="XMLID_446_" class="st2" d="M28.9,324.1l0.8-22.6c-2.1-0.9-4.5-2.4-4.5-6c0-4.5,3-10.1,5.4-10.5v0c0.1,0,0.1,0,0.2,0
	c0,0,0,0,0,0c0,0,0.1,0,0.1,0c2.5,0,5.7,5.9,5.7,10.5c0,3.6-2.3,5.1-4.5,6l0.8,22.6"/>
<rect id="XMLID_412_" x="-11.8" y="278.9" class="st0" width="2.8" height="13.3"/>
<path id="XMLID_427_" class="st3" d="M-8.6,292.4h-3.6l0-13.9h3.6L-8.6,292.4z M-11.4,292h2v-12.7h-2V292z"/>
<path id="XMLID_498_" class="st3" d="M-8.6,278.5v2.7h-9.7v3.1c0,0.6-0.5,1.1-1.1,1.1h-1.1c-0.6,0-1.1-0.5-1.1-1.1v-4.6
	c0-0.7,0.5-1.2,1.2-1.2H-8.6z"/>
<path id="XMLID_433_" class="st4" d="M-4.3,295.5h-12.3v-2c0-0.8,0.6-1.4,1.4-1.4h9.4c0.8,0,1.4,0.6,1.4,1.4V295.5z"/>
<polygon id="XMLID_426_" class="st0" points="-29.1,296.2 -30.3,296.4 -31.2,297.1 -37.3,326.2 -32.5,326.2 -26.2,299.1 
	-26.5,296.2 "/>
<path id="XMLID_413_" class="st1" d="M-26.7,294.7H5.5c0.9,0,1.7,0.6,1.8,1.5l5.4,29.6h-47.3l5.9-29.6
	C-28.3,295.3-27.6,294.7-26.7,294.7z"/>
<path id="XMLID_499_" class="st2" d="M-29.6,296.2H1.8c0.9,0,1.7,0.6,1.9,1.5L9,326.2h-46.2l5.8-28.5
	C-31.3,296.9-30.5,296.2-29.6,296.2z"/>
<circle id="XMLID_497_" class="st2" cx="29.5" cy="292.3" r="0.9"/>
<circle id="XMLID_502_" class="st4" cx="32.9" cy="292.3" r="0.9"/>
<circle id="XMLID_525_" class="st5" cx="29.5" cy="295.7" r="0.9"/>
<circle id="XMLID_524_" class="st2" cx="32.9" cy="295.7" r="0.9"/>
<polygon id="XMLID_503_" class="st1" points="19.8,306.5 18,306.5 16.2,306.5 16.2,311.3 18.2,311.3 20.5,311.3 "/>
<path id="XMLID_501_" class="st3" d="M18.3,326.2L18.3,326.2c1.2,0,2.1-0.9,2.1-2.1v-12.7h-4.2v12.7
	C16.2,325.2,17.2,326.2,18.3,326.2z"/>
<path id="XMLID_505_" class="st2" d="M32.9,324.1c0,1.1-0.9,2-2,2c-1.1,0-2-0.9-2-2"/>
<path id="XMLID_519_" class="st2" d="M18.7,278.1c0,0,5.1,9,5.3,28l-3.3-0.5c0,0-0.5-0.1-0.4,1h-4C16.2,306.5,15,283.2,18.7,278.1z"
	/>
<path id="XMLID_513_" class="st0" d="M16.2,306.5H18c-0.3-7.6-0.7-15.2-0.3-22.8c0-1.2,0.6-2.8,1.9-3.7c-0.5-1.3-0.9-1.9-0.9-1.9
	C15,283.2,16.2,306.5,16.2,306.5z"/>
</svg>
