<?xml version="1.0" encoding="utf-8"?>
<!-- Generator: Adobe Illustrator 19.1.1, SVG Export Plug-In . SVG Version: 6.00 Build 0)  -->
<svg version="1.1" id="Layer_1" xmlns="http://www.w3.org/2000/svg" xmlns:xlink="http://www.w3.org/1999/xlink" x="0px" y="0px"
	 viewBox="-441 242 77 77" style="enable-background:new -441 242 77 77;" xml:space="preserve">
<style type="text/css">
	.st0{fill:#FABE3C;}
	.st1{fill:#1E3264;}
	.st2{fill:none;stroke:#1E3264;stroke-miterlimit:10;}
	.st3{opacity:0.6;fill:#233662;}
</style>
<polygon id="XMLID_5_" class="st0" points="-382.5,285.5 -384.3,285.5 -386.1,285.5 -386.1,290.3 -384.1,290.3 -381.8,290.3 "/>
<path id="XMLID_4_" class="st1" d="M-384,305.2L-384,305.2c1.2,0,2.1-0.9,2.1-2.1v-12.7h-4.2v12.7
	C-386.1,304.2-385.1,305.2-384,305.2z"/>
<path id="XMLID_2_" class="st2" d="M-383.6,257.1c0,0,5.1,9,5.3,28l-3.3-0.5c0,0-0.5-0.1-0.4,1h-4
	C-386.1,285.5-387.3,262.2-383.6,257.1z"/>
<path id="XMLID_1_" class="st3" d="M-386.1,285.5h1.8c-0.3-7.6-0.7-15.2-0.3-22.8c0-1.2,0.6-2.8,1.9-3.7c-0.5-1.3-0.9-1.9-0.9-1.9
	C-387.3,262.2-386.1,285.5-386.1,285.5z"/>
</svg>
