<?xml version="1.0" encoding="utf-8"?>
<!-- Generator: Adobe Illustrator 19.1.1, SVG Export Plug-In . SVG Version: 6.00 Build 0)  -->
<svg version="1.1" id="Layer_1" xmlns="http://www.w3.org/2000/svg" xmlns:xlink="http://www.w3.org/1999/xlink" x="0px" y="0px"
	 viewBox="-446 247 67 67" style="enable-background:new -446 247 67 67;" xml:space="preserve">
<style type="text/css">
	.st0{fill-rule:evenodd;clip-rule:evenodd;fill:#FABE3C;}
	.st1{fill:#1E3264;}
	.st2{opacity:0.6;fill:#1E3264;}
	.st3{fill:#FABE3C;}
	.st4{fill:#FFFFFF;}
</style>
<path id="XMLID_16_" class="st0" d="M-432.5,253.7L-432.5,253.7c-1.3,0-2.4,1.1-2.4,2.4v21.3h4.7v-21.3
	C-430.1,254.8-431.2,253.7-432.5,253.7z"/>
<g id="XMLID_14_">
	<path id="XMLID_15_" class="st1" d="M-420.8,287.9L-420.8,287.9c-0.4,0.2-0.9,0.2-1.1-0.2c-2.4-3.2-6.2-5.3-10.5-5.3
		c-4.3,0-8.1,2.1-10.5,5.3c-0.3,0.4-0.7,0.4-1.1,0.2c-0.4-0.3-0.5-0.8-0.2-1.2c2.7-3.6,7-6,11.8-6c4.9,0,9.2,2.4,11.8,6
		C-420.3,287.1-420.4,287.7-420.8,287.9L-420.8,287.9z"/>
</g>
<polygon id="XMLID_13_" class="st2" points="-421.3,290.7 -439.8,305 -436.1,306.9 -432.2,307.4 -428.5,306.8 -425.5,305.2 
	-423.4,303.2 -422.1,301.5 -420.9,298.8 -420.4,296.7 -420.4,294.7 "/>
<path id="XMLID_12_" class="st3" d="M-421.3,290.7c-0.5-3.3-9.3-11.7-17.9-5.4c-9.1,6.6-4.6,16.7-0.5,19.7L-421.3,290.7z"/>
<path id="XMLID_11_" class="st1" d="M-432.5,307.7c-6.9,0-12.5-5.6-12.5-12.5c0-6.9,5.6-12.5,12.5-12.5c6.9,0,12.5,5.6,12.5,12.5
	C-420,302.1-425.6,307.7-432.5,307.7z M-432.5,283.5c-6.5,0-11.7,5.3-11.7,11.7c0,6.5,5.3,11.7,11.7,11.7c6.5,0,11.7-5.3,11.7-11.7
	C-420.7,288.8-426,283.5-432.5,283.5z"/>
<circle id="XMLID_10_" class="st1" cx="-432.5" cy="295.3" r="6.7"/>
<path id="XMLID_9_" class="st1" d="M-436.9,276.8v18.4c0,2.4,2,4.4,4.4,4.4c2.4,0,4.4-2,4.4-4.4v-18.4H-436.9z"/>
<circle id="XMLID_8_" class="st4" cx="-432.5" cy="295.3" r="2.7"/>
</svg>
