<?xml version="1.0" encoding="utf-8"?>
<!-- Generator: Adobe Illustrator 19.1.1, SVG Export Plug-In . SVG Version: 6.00 Build 0)  -->
<svg version="1.1" id="Layer_1" xmlns="http://www.w3.org/2000/svg" xmlns:xlink="http://www.w3.org/1999/xlink" x="0px" y="0px"
	 viewBox="-33.5 266.5 67 67" style="enable-background:new -33.5 266.5 67 67;" xml:space="preserve">
<style type="text/css">
	.st0{fill-rule:evenodd;clip-rule:evenodd;fill:none;stroke:#1E3264;stroke-miterlimit:10;}
	.st1{fill:#1E3264;}
	.st2{fill-rule:evenodd;clip-rule:evenodd;fill:#FABE3C;}
	.st3{opacity:0.6;fill:#1E3264;}
	.st4{fill:#FABE3C;}
	.st5{fill:#FFFFFF;}
</style>
<path id="XMLID_515_" class="st0" d="M6.4,309.3v-33.4c0-0.6,0.5-1.1,1.1-1.1c0.6,0,1.1,0.5,1.1,1.1v33.4"/>
<path id="XMLID_593_" class="st1" d="M29.4,325.2v-3.5h-2.3v3.5c-0.4,0.3-0.6,0.8-0.6,1.3c0,1,0.8,1.8,1.8,1.8c1,0,1.8-0.8,1.8-1.8
	C30,325.9,29.8,325.5,29.4,325.2z"/>
<path id="XMLID_590_" class="st1" d="M27.1,277.6v3.5h2.3v-3.5c0.4-0.3,0.6-0.8,0.6-1.3c0-1-0.8-1.8-1.8-1.8c-1,0-1.8,0.8-1.8,1.8
	C26.5,276.8,26.7,277.3,27.1,277.6z"/>
<path id="XMLID_516_" class="st2" d="M-20.3,274.9L-20.3,274.9c-1.3,0-2.4,1.1-2.4,2.4v21.3h4.7v-21.3C-18,276-19,274.9-20.3,274.9z
	"/>
<g id="XMLID_606_">
	<path id="XMLID_607_" class="st1" d="M-8.7,309.1L-8.7,309.1c-0.4,0.2-0.9,0.2-1.1-0.2c-2.4-3.2-6.2-5.3-10.5-5.3
		c-4.3,0-8.1,2.1-10.5,5.3c-0.3,0.4-0.7,0.4-1.1,0.2c-0.4-0.3-0.5-0.8-0.2-1.2c2.7-3.6,7-6,11.8-6c4.9,0,9.2,2.4,11.8,6
		C-8.2,308.3-8.3,308.9-8.7,309.1L-8.7,309.1z"/>
</g>
<polygon id="XMLID_608_" class="st3" points="-9.2,311.9 -27.7,326.2 -24,328.1 -20.1,328.6 -16.4,328 -13.3,326.4 -11.3,324.5 
	-10,322.7 -8.8,320 -8.3,317.9 -8.3,315.9 "/>
<path id="XMLID_603_" class="st4" d="M-9.2,311.9c-0.5-3.3-9.3-11.7-17.9-5.4c-9.1,6.6-4.6,16.7-0.5,19.7L-9.2,311.9z"/>
<path id="XMLID_599_" class="st1" d="M-20.3,328.9c-6.9,0-12.5-5.6-12.5-12.5s5.6-12.5,12.5-12.5s12.5,5.6,12.5,12.5
	S-13.5,328.9-20.3,328.9z M-20.3,304.7c-6.5,0-11.7,5.3-11.7,11.7c0,6.5,5.3,11.7,11.7,11.7s11.7-5.3,11.7-11.7
	C-8.6,310-13.9,304.7-20.3,304.7z"/>
<circle id="XMLID_602_" class="st1" cx="-20.3" cy="316.5" r="6.7"/>
<path id="XMLID_601_" class="st1" d="M-24.8,298v18.4c0,2.4,2,4.4,4.4,4.4c2.4,0,4.4-2,4.4-4.4V298H-24.8z"/>
<circle id="XMLID_600_" class="st5" cx="-20.3" cy="316.5" r="2.7"/>
<g id="XMLID_587_">
	<path id="XMLID_616_" class="st1" d="M3.1,305.6c-0.5,3.2-2.2,5.4-5.4,5.3c-0.2,0-0.3,0-0.5,0c-0.8-0.1-1.5,0.6-1.5,1.4v14.6
		c0,0.8,0.6,1.4,1.4,1.4h21.3c0.8,0,1.4-0.6,1.4-1.4v-14.6c0-0.8-0.7-1.5-1.6-1.4c-0.2,0-0.4,0.1-0.6,0.1c-3.5,0.3-5.6-1.8-5.8-5.3
		H3.1z"/>
	<path id="XMLID_619_" class="st4" d="M9.3,308.8l2.6-3.2H3.1l2.3,3.1C6.4,310,8.3,310.1,9.3,308.8z"/>
</g>
<g id="XMLID_586_">
	<polygon id="XMLID_456_" class="st3" points="27.9,281.2 29.8,281.2 30.8,282.3 31.7,283.4 31.7,290.7 31.7,318.9 31.1,320.1 
		30.6,320.9 29,321.8 27.9,321.8 	"/>
	<path id="XMLID_581_" class="st4" d="M26.8,321.8L26.8,321.8c1.9,0,3.4-1.5,3.4-3.4v-33.8c0-1.9-1.5-3.4-3.4-3.4h0
		c-1.9,0-3.4,1.5-3.4,3.4v33.8C23.4,320.3,24.9,321.8,26.8,321.8z"/>
	<path id="XMLID_596_" class="st1" d="M28.3,322.2c-2.1,0-3.8-1.7-3.8-3.8v-33.8c0-2.1,1.7-3.8,3.8-3.8c2.1,0,3.8,1.7,3.8,3.8v33.8
		C32.1,320.5,30.4,322.2,28.3,322.2z M28.3,281.4c-1.7,0-3.1,1.4-3.1,3.1v33.8c0,1.7,1.4,3.1,3.1,3.1c1.7,0,3.1-1.4,3.1-3.1v-33.8
		C31.4,282.8,30,281.4,28.3,281.4z"/>
</g>
</svg>
