<svg xmlns="http://www.w3.org/2000/svg" viewBox="0 0 439 439"><title>Asset 10</title><g id="Layer_2" data-name="Layer 2"><g id="Слой_1" data-name="Слой 1"><path d="M219.5,0C98.3,0,0,98.3,0,219.5S98.3,439,219.5,439,439,340.7,439,219.5,340.7,0,219.5,0ZM366.7,336.4a10,10,0,0,1-10,10H82.1a10,10,0,0,1-10-10V102.6a10,10,0,0,1,10-10H356.7a10,10,0,0,1,10,10V336.4Z" fill="#fff"/><path d="M366.2,147a2,2,0,0,1-1.4.6H74.2a2,2,0,0,1-2-2V336.5a10,10,0,0,0,10,10H356.8a10,10,0,0,0,10-10V145.6A3.51,3.51,0,0,1,366.2,147ZM256.3,232a37,37,0,1,1-37-37A37,37,0,0,1,256.3,232Zm-73.6-21.2a42.53,42.53,0,0,1,57.3-16,1,1,0,1,1-1,1.8,40.35,40.35,0,1,0,19.6,24.9,1,1,0,1,1,1.9-.5,42.62,42.62,0,0,1-41,53.5,41.53,41.53,0,0,1-21.1-5.7,42.67,42.67,0,0,1-15.7-58ZM356.2,318.4H143.9a12.38,12.38,0,0,1-24.4,0h-37a2,2,0,0,1,0-4h37a12.28,12.28,0,0,1,12.2-10.3,12.45,12.45,0,0,1,12.2,10.3H356.2a2,2,0,0,1,2,2A1.94,1.94,0,0,1,356.2,318.4Z" fill="#fde298"/><path d="M366.7,145.6a1.68,1.68,0,0,1-.6,1.4,2,2,0,0,1-1.4.6H74.1a2,2,0,0,1-2-2Z" fill="#4d4d4d"/><path d="M356.7,92.6H82.1a10,10,0,0,0-10,10v43H366.7v-43A10,10,0,0,0,356.7,92.6Zm-263,36.5a7.8,7.8,0,0,1,0-15.6c4.3-.2,7.6,3.4,7.6,7.8A7.71,7.71,0,0,1,93.7,129.1Zm30,0a7.8,7.8,0,0,1,0-15.6c4.1-.2,7.6,3.4,7.6,7.8A7.84,7.84,0,0,1,123.7,129.1Zm29.9,0a7.8,7.8,0,0,1,0-15.6c4.1-.2,7.6,3.4,7.6,7.8A7.71,7.71,0,0,1,153.6,129.1Z" fill="#00697a"/><path d="M101.3,121.3a7.6,7.6,0,1,1-7.6-7.8C98.1,113.3,101.3,116.9,101.3,121.3Z" fill="#f85750"/><path d="M131.2,121.3a7.6,7.6,0,1,1-7.6-7.8C127.7,113.3,131.2,116.9,131.2,121.3Z" fill="#fff5e0"/><path d="M161.2,121.3a7.6,7.6,0,1,1-7.6-7.8C157.7,113.3,161.2,116.9,161.2,121.3Z" fill="#62b57f"/><path d="M219.5,195.1a37,37,0,1,0,37,37A37,37,0,0,0,219.5,195.1Zm-11.8,57.2V211.9l35,20.2Z" fill="#fff5e0"/><path d="M230.3,273a42.21,42.21,0,0,1-11,1.5,41.53,41.53,0,0,1-21.1-5.7,42.47,42.47,0,0,1,41.7-74,1,1,0,1,1-1,1.8,40.35,40.35,0,1,0,19.6,24.9,1,1,0,1,1,1.9-.5A42.48,42.48,0,0,1,230.3,273Z" fill="#00697a"/><path d="M242.7,232l-35,20.3V211.8Z" fill="#00697a"/><path d="M356.2,314.4H143.9a12.38,12.38,0,0,0-24.4,0h-37a2,2,0,0,0,0,4h37a12.38,12.38,0,0,0,24.4,0H356.2a2,2,0,0,0,2-2A2.07,2.07,0,0,0,356.2,314.4ZM131.7,324.8a8.37,8.37,0,0,1-8.1-6.3,6.48,6.48,0,0,1-.2-2,13.55,13.55,0,0,1,.2-2,8.36,8.36,0,0,1,16.2,0,6.48,6.48,0,0,1,.2,2,12.31,12.31,0,0,1-.2,2A8.2,8.2,0,0,1,131.7,324.8Z" fill="#00697a"/><path d="M140.1,316.4a12.31,12.31,0,0,1-.2,2,8.36,8.36,0,0,1-16.2,0,6.48,6.48,0,0,1-.2-2,13.55,13.55,0,0,1,.2-2,8.36,8.36,0,0,1,16.2,0A15,15,0,0,1,140.1,316.4Z" fill="#fde298"/></g></g></svg>