<?xml version="1.0" encoding="utf-8"?>
<!-- Generator: Adobe Illustrator 19.1.1, SVG Export Plug-In . SVG Version: 6.00 Build 0)  -->
<svg version="1.1" id="Layer_1" xmlns="http://www.w3.org/2000/svg" xmlns:xlink="http://www.w3.org/1999/xlink" x="0px" y="0px"
	 viewBox="-446 247 67 67" style="enable-background:new -446 247 67 67;" xml:space="preserve">
<style type="text/css">
	.st0{fill-rule:evenodd;clip-rule:evenodd;fill:none;stroke:#FABE3C;stroke-miterlimit:10;}
	.st1{fill:#1E3264;}
	.st2{fill:#FABE3C;}
</style>
<path id="XMLID_19_" class="st0" d="M-405.7,288.1v-33.4c0-0.6,0.5-1.1,1.1-1.1c0.6,0,1.1,0.5,1.1,1.1v33.4"/>
<path id="XMLID_7_" class="st1" d="M-409,284.4c-0.5,3.2-2.2,5.4-5.4,5.3c-0.2,0-0.3,0-0.5,0c-0.8-0.1-1.5,0.6-1.5,1.4v14.6
	c0,0.8,0.6,1.4,1.4,1.4h21.3c0.8,0,1.4-0.6,1.4-1.4V291c0-0.8-0.7-1.5-1.6-1.4c-0.2,0-0.4,0.1-0.6,0.1c-3.5,0.3-5.6-1.8-5.8-5.3
	H-409z"/>
<path id="XMLID_6_" class="st2" d="M-402.8,287.6l2.6-3.2h-8.8l2.3,3.1C-405.8,288.8-403.8,288.9-402.8,287.6z"/>
</svg>
