<svg xmlns="http://www.w3.org/2000/svg" viewBox="0 0 439 439"><title>Asset 17</title><g id="Layer_2" data-name="Layer 2"><g id="Слой_1" data-name="Слой 1"><path d="M165.1,222.3c.5-.6,1-1.2,1.5-1.7a12.88,12.88,0,0,1,1.7-1.6,31.76,31.76,0,0,1,3.7-2.7,24.23,24.23,0,0,1,12.3-3.4,27.11,27.11,0,0,1,8.8,1.3,27.45,27.45,0,0,1,6.9,3.3l.4.3.4.3a4.14,4.14,0,0,0,1.9.5h.5a.9.9,0,0,0,.5-.1,6.47,6.47,0,0,0,1.3-.4,4,4,0,0,0,2.7-3.7v-1.8a3.8,3.8,0,0,0-1.5-3.2,29.32,29.32,0,0,0-8.7-5,39.22,39.22,0,0,0-13.3-2,35.57,35.57,0,0,0-25.5,10.5c-.6.6-1.2,1.2-1.8,1.9a24.33,24.33,0,0,0-2,2.5,23.26,23.26,0,0,0-1.7,2.6,40.86,40.86,0,0,0-2.3,4.7,39.78,39.78,0,0,0-2.8,14.8,37.88,37.88,0,0,0,2.8,14.8,35,35,0,0,0,7.7,11.8,35.33,35.33,0,0,0,11.4,7.7,36.87,36.87,0,0,0,14.1,2.7,39.63,39.63,0,0,0,13.3-2,25.31,25.31,0,0,0,4.4-2.1c.3-.2.7-.4,1-.6s.5-.3.7-.4c.9-.6,1.8-1.2,2.7-1.9a3.93,3.93,0,0,0,1.5-3.2v-1.7a4,4,0,0,0-2.7-3.7,4.66,4.66,0,0,0-4.6.4,29,29,0,0,1-7.3,3.5,30.12,30.12,0,0,1-8.8,1.3,23.29,23.29,0,0,1-12.3-3.4,25.64,25.64,0,0,1-9.2-9.3,27.21,27.21,0,0,1-3.5-13.8,26.69,26.69,0,0,1,3.5-13.8A40.47,40.47,0,0,1,165.1,222.3Zm-3.5,3.5a27.51,27.51,0,0,0-3.3,13.7,26.93,26.93,0,0,0,13.2,24,24.87,24.87,0,0,0,12.8,3.5,29,29,0,0,0,9.1-1.3,31.3,31.3,0,0,0,7.6-3.6,4.1,4.1,0,0,1,3.7-.3,3.07,3.07,0,0,1,2.1,2.8v1.7a3.25,3.25,0,0,1-1.1,2.5,13.3,13.3,0,0,1-1.9,1.4c-.2.1-.3.2-.5.3a1,1,0,0,0-.5.4,28.89,28.89,0,0,1-5.6,2.7,40.61,40.61,0,0,1-26.6-.7,35.1,35.1,0,0,1-11.1-7.5,35.76,35.76,0,0,1-7.5-11.5,39.75,39.75,0,0,1,0-28.8,34.13,34.13,0,0,1,5.8-9.5,10.71,10.71,0,0,1,1.8-1.9l.4-.4c.7-.7,1.4-1.3,2.1-1.9a32,32,0,0,1,8.5-5.1,34.53,34.53,0,0,1,13.7-2.7,37,37,0,0,1,12.9,1.9,30,30,0,0,1,8.5,4.8,3.25,3.25,0,0,1,1.1,2.5v1.8a3.07,3.07,0,0,1-2.1,2.8l-.9.3c-.2,0-.3.1-.5.1h-.5a3.37,3.37,0,0,1-1.7-.5l-.5-.4a25.12,25.12,0,0,0-7.2-3.4,29,29,0,0,0-9.1-1.3,24.87,24.87,0,0,0-12.8,3.5,28.23,28.23,0,0,0-7.2,6.2c-.5.6-1,1.3-1.5,2-.3.5-.7,1-1,1.5Z" fill="#4d4d4d"/><path d="M219.5,0C98.3,0,0,98.3,0,219.5S98.3,439,219.5,439,439,340.7,439,219.5,340.8,0,219.5,0ZM366.8,336.5a10,10,0,0,1-10,10H82.3a10,10,0,0,1-10-10V102.6a10,10,0,0,1,10-10H356.9a10,10,0,0,1,10,10Z" fill="#fff"/><path d="M366.3,147a2,2,0,0,1-1.4.6H74.3a2,2,0,0,1-2-2V336.5a10,10,0,0,0,10,10H356.9a10,10,0,0,0,10-10V145.6A3.51,3.51,0,0,1,366.3,147ZM207.8,214.4a4,4,0,0,1-2.7,3.7,6.47,6.47,0,0,1-1.3.4,4,4,0,0,1-2.7,3.6,4.75,4.75,0,0,1-4.2-.1l-.4-.3-.4-.3a27.45,27.45,0,0,0-6.9-3.3,30.12,30.12,0,0,0-8.8-1.3,23.29,23.29,0,0,0-12.3,3.4,29.77,29.77,0,0,0-2.9,2,27.49,27.49,0,0,0-2.3,3.3,26.69,26.69,0,0,0-3.5,13.8,27.21,27.21,0,0,0,3.5,13.8,26.45,26.45,0,0,0,9.2,9.3,24.23,24.23,0,0,0,12.3,3.4,27.11,27.11,0,0,0,8.8-1.3,24.69,24.69,0,0,0,7.3-3.5,5,5,0,0,1,4.6-.4,4,4,0,0,1,2.7,3.7V266a3.8,3.8,0,0,1-1.5,3.2,26.1,26.1,0,0,1-2.7,1.9,4.65,4.65,0,0,1-1.3,2.1,29.32,29.32,0,0,1-8.7,5,39.22,39.22,0,0,1-13.3,2,36.87,36.87,0,0,1-14.1-2.7,34.29,34.29,0,0,1-11.4-7.7,36,36,0,0,1-7.7-11.8,39.78,39.78,0,0,1-2.8-14.8,37.88,37.88,0,0,1,2.8-14.8,34.54,34.54,0,0,1,7.7-11.7c.7-.7,1.5-1.4,2.3-2.1a10.71,10.71,0,0,1,1.8-1.9,35.33,35.33,0,0,1,11.4-7.7,36.94,36.94,0,0,1,14.1-2.8,39.63,39.63,0,0,1,13.3,2,29.32,29.32,0,0,1,8.7,5,4.07,4.07,0,0,1,1.5,3.2Zm25.6,60.7a6.26,6.26,0,0,1-2.5,1.6,6.08,6.08,0,0,1-1.5,2.4l-.1.1a6.27,6.27,0,0,1-4.5,1.8,6.49,6.49,0,0,1-6.5-6.5,6,6,0,0,1,1.8-4.4V270l.2-.1a6.08,6.08,0,0,1,2.4-1.5,6.78,6.78,0,0,1,1.4-2.3V266l.2-.1a6.44,6.44,0,0,1,4.5-1.8,6.19,6.19,0,0,1,4.6,1.9,6,6,0,0,1,1.9,4.6A6.46,6.46,0,0,1,233.4,275.1Zm0-38a6.26,6.26,0,0,1-2.5,1.6,6.08,6.08,0,0,1-1.5,2.4l-.1.1a6.27,6.27,0,0,1-4.5,1.8,6.49,6.49,0,0,1-6.5-6.5,6,6,0,0,1,1.8-4.4V232l.2-.1a6.08,6.08,0,0,1,2.4-1.5,6.78,6.78,0,0,1,1.4-2.3V228l.2-.1a6.44,6.44,0,0,1,4.5-1.8,6.19,6.19,0,0,1,4.6,1.9,6,6,0,0,1,1.9,4.6A6.46,6.46,0,0,1,233.4,237.1Zm58.8-27-37.1,77.8a4.46,4.46,0,0,1-3.3,2.5l-.7,1.5a4.68,4.68,0,0,1-8.1.5,4.34,4.34,0,0,1-.3-4.4l37.1-77.8a4.46,4.46,0,0,1,3.3-2.5l.7-1.5a4.66,4.66,0,0,1,4.2-2.6,4.45,4.45,0,0,1,3.9,2.2A4.13,4.13,0,0,1,292.2,210.1Z" fill="#fdd29d"/><path d="M366.8,145.6a1.68,1.68,0,0,1-.6,1.4,2,2,0,0,1-1.4.6H74.3a2,2,0,0,1-2-2Z" fill="#4d4d4d"/><path d="M356.8,92.6H82.3a10,10,0,0,0-10,10v43H366.9v-43A10.18,10.18,0,0,0,356.8,92.6ZM93.9,129.2a7.8,7.8,0,0,1,0-15.6c4.3-.2,7.6,3.4,7.6,7.8A7.71,7.71,0,0,1,93.9,129.2Zm29.9,0a7.8,7.8,0,0,1,0-15.6c4.1-.2,7.6,3.4,7.6,7.8A7.71,7.71,0,0,1,123.8,129.2Zm29.9,0a7.8,7.8,0,0,1,0-15.6c4.1-.2,7.6,3.4,7.6,7.8A7.71,7.71,0,0,1,153.7,129.2Z" fill="#ea631d"/><path d="M101.5,121.3a7.6,7.6,0,1,1-7.6-7.8C98.2,113.3,101.5,116.9,101.5,121.3Z" fill="#fde298"/><path d="M131.4,121.3a7.6,7.6,0,1,1-7.6-7.8C127.9,113.3,131.4,116.9,131.4,121.3Z" fill="#fff5e0"/><path d="M161.3,121.3a7.6,7.6,0,1,1-7.6-7.8C157.8,113.3,161.3,116.9,161.3,121.3Z" fill="#62b57f"/><path d="M203.8,218.5a4,4,0,0,1-2.7,3.6,4.75,4.75,0,0,1-4.2-.1l-.4-.3-.4-.3a27.45,27.45,0,0,0-6.9-3.3,30.12,30.12,0,0,0-8.8-1.3,23.29,23.29,0,0,0-12.3,3.4,29.77,29.77,0,0,0-2.9,2c.5-.6,1-1.2,1.5-1.7a12.88,12.88,0,0,1,1.7-1.6,31.76,31.76,0,0,1,3.7-2.7,24.23,24.23,0,0,1,12.3-3.4,27.11,27.11,0,0,1,8.8,1.3,27.45,27.45,0,0,1,6.9,3.3l.4.3.4.3a4.14,4.14,0,0,0,1.9.5h1Z" fill="#ea631d"/><path d="M283.2,207.6l-.3.6-.3.6-35.8,75.1a4.34,4.34,0,0,0,.3,4.4,4.2,4.2,0,0,0,3.6,2.1h.6a1.27,1.27,0,0,0,.6-.1l-.7,1.5a4.68,4.68,0,0,1-8.1.5,4.34,4.34,0,0,1-.3-4.4l37.1-77.8A4.24,4.24,0,0,1,283.2,207.6Z" fill="#ea631d"/><path d="M230.9,276.6a6.08,6.08,0,0,1-1.5,2.4l-.1.1a6.27,6.27,0,0,1-4.5,1.8,6.49,6.49,0,0,1-6.5-6.5,6,6,0,0,1,1.8-4.4v-.1l.2-.1a6.08,6.08,0,0,1,2.4-1.5c-.1.2-.1.4-.2.6a1.27,1.27,0,0,0-.1.6c0,.3-.1.6-.1.9a6.35,6.35,0,0,0,1.9,4.6,6.78,6.78,0,0,0,4.6,1.9,2.77,2.77,0,0,0,.9-.1c.2,0,.4-.1.6-.1A1.27,1.27,0,0,0,230.9,276.6Z" fill="#ea631d"/><path d="M203.7,271.4a4.65,4.65,0,0,1-1.3,2.1,29.32,29.32,0,0,1-8.7,5,39.22,39.22,0,0,1-13.3,2,36.87,36.87,0,0,1-14.1-2.7,34.29,34.29,0,0,1-11.4-7.7,36,36,0,0,1-7.7-11.8,39.78,39.78,0,0,1-2.8-14.8,37.88,37.88,0,0,1,2.8-14.8,34.54,34.54,0,0,1,7.7-11.7c.7-.7,1.5-1.4,2.3-2.1a24.33,24.33,0,0,0-2,2.5,23.26,23.26,0,0,0-1.7,2.6,40.86,40.86,0,0,0-2.3,4.7,39.78,39.78,0,0,0-2.8,14.8,37.88,37.88,0,0,0,2.8,14.8,35,35,0,0,0,7.7,11.8,35.33,35.33,0,0,0,11.4,7.7,36.87,36.87,0,0,0,14.1,2.7,39.63,39.63,0,0,0,13.3-2,25.31,25.31,0,0,0,4.4-2.1c.3-.2.7-.4,1-.6A5.92,5.92,0,0,1,203.7,271.4Z" fill="#ea631d"/><path d="M230.9,238.6a6.08,6.08,0,0,1-1.5,2.4l-.1.1a6.27,6.27,0,0,1-4.5,1.8,6.49,6.49,0,0,1-6.5-6.5,6,6,0,0,1,1.8-4.4v-.1l.2-.1a6.08,6.08,0,0,1,2.4-1.5c-.1.2-.1.4-.2.6a1.27,1.27,0,0,0-.1.6c0,.3-.1.6-.1.9a6.35,6.35,0,0,0,1.9,4.6,6.78,6.78,0,0,0,4.6,1.9,2.77,2.77,0,0,0,.9-.1c.2,0,.4-.1.6-.1A1.27,1.27,0,0,0,230.9,238.6Z" fill="#ea631d"/><path d="M291.3,209.6l-37.1,77.8a3.92,3.92,0,0,1-1.8,1.8,1.42,1.42,0,0,1-.6.2,1.27,1.27,0,0,1-.6.1H251a3.56,3.56,0,0,1-3.1-1.7,3.4,3.4,0,0,1-.2-3.5l36.1-75.8.2-.5.2-.5.5-1a3.63,3.63,0,0,1,3.3-2.1,3.56,3.56,0,0,1,3.1,1.7A3.64,3.64,0,0,1,291.3,209.6Z" fill="#fde298"/><path d="M161.6,225.8a27.51,27.51,0,0,0-3.3,13.7,26.93,26.93,0,0,0,13.2,24,24.87,24.87,0,0,0,12.8,3.5,29,29,0,0,0,9.1-1.3,31.3,31.3,0,0,0,7.6-3.6,4.1,4.1,0,0,1,3.7-.3,3.07,3.07,0,0,1,2.1,2.8v1.7a3.25,3.25,0,0,1-1.1,2.5,13.3,13.3,0,0,1-1.9,1.4c-.2.1-.3.2-.5.3a1,1,0,0,0-.5.4,28.89,28.89,0,0,1-5.6,2.7,40.61,40.61,0,0,1-26.6-.7,35.1,35.1,0,0,1-11.1-7.5,35.76,35.76,0,0,1-7.5-11.5,39.75,39.75,0,0,1,0-28.8,34.13,34.13,0,0,1,5.8-9.5,10.71,10.71,0,0,1,1.8-1.9l.4-.4c.7-.7,1.4-1.3,2.1-1.9a32,32,0,0,1,8.5-5.1,34.53,34.53,0,0,1,13.7-2.7,37,37,0,0,1,12.9,1.9,30,30,0,0,1,8.5,4.8,3.25,3.25,0,0,1,1.1,2.5v1.8a3.07,3.07,0,0,1-2.1,2.8l-.9.3c-.2,0-.3.1-.5.1h-.5a3.37,3.37,0,0,1-1.7-.5l-.5-.4a25.12,25.12,0,0,0-7.2-3.4,29,29,0,0,0-9.1-1.3,24.87,24.87,0,0,0-12.8,3.5,28.23,28.23,0,0,0-7.2,6.2c-.5.6-1,1.3-1.5,2-.3.5-.7,1-1,1.5Z" fill="#fde298"/><path d="M291.9,205.6a4.63,4.63,0,0,0-8.1.4l-.7,1.5-.3.6-.3.6-35.8,75.1a4.34,4.34,0,0,0,.3,4.4,4.2,4.2,0,0,0,3.6,2.1h.6a1.27,1.27,0,0,0,.6-.1,4.7,4.7,0,0,0,3.3-2.5l37.1-77.8A4.19,4.19,0,0,0,291.9,205.6Zm-.6,4-37.1,77.8a3.92,3.92,0,0,1-1.8,1.8,1.42,1.42,0,0,1-.6.2,1.27,1.27,0,0,1-.6.1H251a3.56,3.56,0,0,1-3.1-1.7,3.4,3.4,0,0,1-.2-3.5l36.1-75.8.2-.5.2-.5.5-1a3.63,3.63,0,0,1,3.3-2.1,3.56,3.56,0,0,1,3.1,1.7A3.64,3.64,0,0,1,291.3,209.6Z" fill="#4d4d4d"/><path d="M233.4,265.9a6.19,6.19,0,0,0-4.6-1.9,6.44,6.44,0,0,0-4.5,1.8l-.2.1v.1a6.21,6.21,0,0,0-1.4,2.3c-.1.2-.1.4-.2.6a1.27,1.27,0,0,0-.1.6c0,.3-.1.6-.1.9a6.35,6.35,0,0,0,1.9,4.6,6.78,6.78,0,0,0,4.6,1.9,2.77,2.77,0,0,0,.9-.1c.2,0,.4-.1.6-.1a1.42,1.42,0,0,0,.6-.2,6.08,6.08,0,0,0,2.4-1.5l.1-.1a6.78,6.78,0,0,0,1.9-4.6A6.31,6.31,0,0,0,233.4,265.9Zm-.7,8.4a7.17,7.17,0,0,1-1.5,1.1,1.69,1.69,0,0,1-.5.2c-.2.1-.4.1-.6.2a5.85,5.85,0,0,1-1.3.2,5.46,5.46,0,0,1-5.5-5.5,2.74,2.74,0,0,1,.2-1.3,1.42,1.42,0,0,1,.2-.6c.1-.2.1-.4.2-.5a7.17,7.17,0,0,1,1.1-1.5,5.5,5.5,0,0,1,9.4,3.9A5.77,5.77,0,0,1,232.7,274.3Z" fill="#4d4d4d"/><path d="M234.3,270.5a5.61,5.61,0,0,1-1.6,3.9v.1a8.28,8.28,0,0,1-1.5,1.1,1.69,1.69,0,0,1-.5.2c-.2.1-.4.1-.6.2a5.85,5.85,0,0,1-1.3.2,5.46,5.46,0,0,1-5.5-5.5,2.74,2.74,0,0,1,.2-1.3,1.42,1.42,0,0,1,.2-.6c.1-.2.1-.4.2-.5a7.17,7.17,0,0,1,1.1-1.5,5.55,5.55,0,0,1,7.8,0A4.63,4.63,0,0,1,234.3,270.5Z" fill="#fde298"/><path d="M233.4,227.9a6.19,6.19,0,0,0-4.6-1.9,6.44,6.44,0,0,0-4.5,1.8l-.2.1v.1a6.21,6.21,0,0,0-1.4,2.3c-.1.2-.1.4-.2.6a1.27,1.27,0,0,0-.1.6c0,.3-.1.6-.1.9a6.35,6.35,0,0,0,1.9,4.6,6.78,6.78,0,0,0,4.6,1.9,2.77,2.77,0,0,0,.9-.1c.2,0,.4-.1.6-.1a1.42,1.42,0,0,0,.6-.2,6.08,6.08,0,0,0,2.4-1.5l.1-.1a6.78,6.78,0,0,0,1.9-4.6A6.31,6.31,0,0,0,233.4,227.9Zm-.7,8.4a7.17,7.17,0,0,1-1.5,1.1,1.69,1.69,0,0,1-.5.2c-.2.1-.4.1-.6.2a5.85,5.85,0,0,1-1.3.2,5.46,5.46,0,0,1-5.5-5.5,2.74,2.74,0,0,1,.2-1.3,1.42,1.42,0,0,1,.2-.6c.1-.2.1-.4.2-.5a7.17,7.17,0,0,1,1.1-1.5,5.5,5.5,0,0,1,9.4,3.9A5.77,5.77,0,0,1,232.7,236.3Z" fill="#4d4d4d"/><path d="M234.3,232.5a5.61,5.61,0,0,1-1.6,3.9v.1a8.28,8.28,0,0,1-1.5,1.1,1.69,1.69,0,0,1-.5.2c-.2.1-.4.1-.6.2a5.85,5.85,0,0,1-1.3.2,5.46,5.46,0,0,1-5.5-5.5,2.74,2.74,0,0,1,.2-1.3,1.42,1.42,0,0,1,.2-.6c.1-.2.1-.4.2-.5a7.17,7.17,0,0,1,1.1-1.5,5.55,5.55,0,0,1,7.8,0A4.63,4.63,0,0,1,234.3,232.5Z" fill="#fde298"/></g></g></svg>