<?xml version="1.0" encoding="utf-8"?>
<!-- Generator: Adobe Illustrator 19.1.1, SVG Export Plug-In . SVG Version: 6.00 Build 0)  -->
<svg version="1.1" id="Layer_1" xmlns="http://www.w3.org/2000/svg" xmlns:xlink="http://www.w3.org/1999/xlink" x="0px" y="0px"
	 viewBox="-479 281 78 78" style="enable-background:new -479 281 78 78;" xml:space="preserve">
<style type="text/css">
	.st0{fill:#805863;stroke:#233662;stroke-miterlimit:10;}
	.st1{fill:none;}
	.st2{fill:none;stroke:#1E3264;stroke-miterlimit:10;}
	.st3{opacity:0.6;fill:#1E3264;}
	.st4{fill:#1E3264;}
	.st5{fill:#FABE3C;}
	.st6{fill:none;stroke:#FABE3C;stroke-width:0.3;stroke-miterlimit:10;}
</style>
<path id="XMLID_11_" class="st0" d="M-427.9,297.9"/>
<path id="XMLID_10_" class="st0" d="M-427.9,297.7"/>
<g id="XMLID_9_">
	<path class="st1" d="M-433.9,342.3"/>
</g>
<path class="st2" d="M-430.4,342.3h23.4c2.1,0,3.9-1.7,3.9-3.9v-35.9c0-2.1-1.7-3.9-3.9-3.9h-23.4c-2.1,0-3.9,1.7-3.9,3.9v35.9
	C-434.3,340.5-432.6,342.3-430.4,342.3z"/>
<path class="st3" d="M-407,342.3h-23.1c-2.3,0-4.1-1.8-4.1-4.1v-9.8h31.3v9.8C-402.9,340.5-404.7,342.3-407,342.3z"/>
<circle class="st4" cx="-418.7" cy="314.2" r="10.9"/>
<rect x="-427.1" y="315.2" class="st5" width="13.7" height="2.4"/>
<rect x="-412.9" y="315.2" class="st5" width="0.6" height="2.3"/>
<rect x="-411.9" y="315.2" class="st5" width="0.6" height="2.3"/>
<path class="st5" d="M-417,307.5v0.8c0,0,2.9,0.2,1.5,2.5v0.7h1.4c0,0,2.6,0,2.3,3.4h0.7c0,0,0.9-4-3.4-4.1
	C-414.5,310.7-413.5,307.9-417,307.5z"/>
<path class="st5" d="M-417.8,306.8v0.8c0,0-2,0.6-1.2,2.1c0,0,0.4,0.8,2,0.9v1.2c0,0,0.1,0.6,0.8,0.7l2.4,0c0,0,1.3,0.2,1.4,1.5v1.1
	h-0.6V314c0,0,0-0.8-0.9-0.8s-2.5,0-2.5,0s-1.6-0.1-1.6-1.7c0,0,0-0.5,0-0.5s-1.9,0.1-2.1-1.5C-420.2,307.9-418.7,306.8-417.8,306.8
	z"/>
<g>
	<path class="st5" d="M-426.2,334.2c0.2,0.1,0.5,0.2,0.7,0.2c0.4,0,0.7-0.2,0.7-0.5c0-0.3-0.2-0.5-0.6-0.6c-0.5-0.2-0.8-0.5-0.8-0.9
		c0-0.5,0.4-0.9,1-0.9c0.3,0,0.6,0.1,0.7,0.2l-0.1,0.3c-0.1-0.1-0.3-0.2-0.6-0.2c-0.4,0-0.6,0.3-0.6,0.5c0,0.3,0.2,0.4,0.6,0.6
		c0.5,0.2,0.8,0.5,0.8,0.9c0,0.5-0.4,0.9-1.1,0.9c-0.3,0-0.6-0.1-0.8-0.2L-426.2,334.2z"/>
	<path class="st5" d="M-423.9,333c0-0.2,0-0.4,0-0.6h0.4l0,0.4h0c0.1-0.2,0.3-0.4,0.7-0.4c0.3,0,0.6,0.2,0.7,0.5h0
		c0.1-0.1,0.2-0.2,0.3-0.3c0.1-0.1,0.3-0.2,0.5-0.2c0.3,0,0.8,0.2,0.8,1v1.4h-0.4v-1.3c0-0.4-0.2-0.7-0.5-0.7
		c-0.2,0-0.4,0.2-0.5,0.4c0,0.1,0,0.1,0,0.2v1.4h-0.4v-1.4c0-0.4-0.2-0.6-0.5-0.6c-0.3,0-0.5,0.2-0.5,0.4c0,0.1,0,0.1,0,0.2v1.4
		h-0.4V333z"/>
	<path class="st5" d="M-418,333.5c0,0.8-0.6,1.2-1.1,1.2c-0.6,0-1.1-0.5-1.1-1.2c0-0.8,0.5-1.2,1.1-1.2
		C-418.4,332.3-418,332.8-418,333.5z M-419.8,333.5c0,0.5,0.3,0.9,0.7,0.9c0.4,0,0.7-0.4,0.7-0.9c0-0.4-0.2-0.9-0.7-0.9
		C-419.6,332.6-419.8,333.1-419.8,333.5z"/>
	<path class="st5" d="M-417.1,333.4L-417.1,333.4c0.1-0.1,0.1-0.2,0.2-0.3l0.7-0.8h0.5l-0.9,0.9l1,1.4h-0.5l-0.8-1.1l-0.2,0.2v0.9
		h-0.4v-3.4h0.4V333.4z"/>
	<path class="st5" d="M-415,331.7c0,0.1-0.1,0.3-0.3,0.3c-0.1,0-0.3-0.1-0.3-0.3c0-0.1,0.1-0.3,0.3-0.3
		C-415.1,331.5-415,331.6-415,331.7z M-415.4,334.7v-2.3h0.4v2.3H-415.4z"/>
	<path class="st5" d="M-414.4,333c0-0.2,0-0.4,0-0.6h0.4l0,0.4h0c0.1-0.2,0.4-0.4,0.8-0.4c0.3,0,0.8,0.2,0.8,1v1.4h-0.4v-1.3
		c0-0.4-0.1-0.7-0.5-0.7c-0.3,0-0.5,0.2-0.6,0.4c0,0.1,0,0.1,0,0.2v1.4h-0.4V333z"/>
	<path class="st5" d="M-409.9,332.4c0,0.2,0,0.4,0,0.6v1.3c0,0.5-0.1,0.8-0.3,1c-0.2,0.2-0.5,0.3-0.8,0.3c-0.3,0-0.6-0.1-0.8-0.2
		l0.1-0.3c0.2,0.1,0.4,0.2,0.7,0.2c0.4,0,0.7-0.2,0.7-0.8v-0.3h0c-0.1,0.2-0.4,0.4-0.7,0.4c-0.6,0-1-0.5-1-1.1c0-0.8,0.5-1.2,1-1.2
		c0.4,0,0.6,0.2,0.7,0.4h0l0-0.3H-409.9z M-410.3,333.3c0-0.1,0-0.1,0-0.2c-0.1-0.2-0.3-0.4-0.6-0.4c-0.4,0-0.7,0.3-0.7,0.9
		c0,0.5,0.2,0.8,0.7,0.8c0.3,0,0.5-0.2,0.6-0.4c0-0.1,0-0.2,0-0.2V333.3z"/>
	<path class="st5" d="M-421.6,338.6l-0.3,1h-0.4l1.1-3.2h0.5l1.1,3.2h-0.4l-0.3-1H-421.6z M-420.5,338.3l-0.3-0.9
		c-0.1-0.2-0.1-0.4-0.2-0.6h0c0,0.2-0.1,0.4-0.2,0.6l-0.3,0.9H-420.5z"/>
	<path class="st5" d="M-419.3,338c0-0.3,0-0.5,0-0.7h0.4l0,0.5h0c0.1-0.3,0.4-0.5,0.6-0.5c0,0,0.1,0,0.1,0v0.4c0,0-0.1,0-0.1,0
		c-0.3,0-0.5,0.2-0.6,0.5c0,0.1,0,0.1,0,0.2v1.2h-0.4V338z"/>
	<path class="st5" d="M-417.6,338.5c0,0.6,0.4,0.8,0.8,0.8c0.3,0,0.5-0.1,0.6-0.1l0.1,0.3c-0.1,0.1-0.4,0.1-0.8,0.1
		c-0.7,0-1.1-0.5-1.1-1.2c0-0.7,0.4-1.2,1.1-1.2c0.8,0,0.9,0.7,0.9,1.1c0,0.1,0,0.2,0,0.2H-417.6z M-416.4,338.3
		c0-0.3-0.1-0.7-0.6-0.7c-0.4,0-0.6,0.4-0.6,0.7H-416.4z"/>
	<path class="st5" d="M-414.3,339.6l0-0.3h0c-0.1,0.2-0.4,0.3-0.7,0.3c-0.5,0-0.7-0.3-0.7-0.7c0-0.6,0.5-0.9,1.4-0.9v0
		c0-0.2-0.1-0.5-0.5-0.5c-0.2,0-0.4,0.1-0.6,0.2l-0.1-0.3c0.2-0.1,0.5-0.2,0.8-0.2c0.7,0,0.9,0.5,0.9,0.9v0.9c0,0.2,0,0.4,0,0.6
		H-414.3z M-414.3,338.4c-0.5,0-1,0.1-1,0.5c0,0.3,0.2,0.4,0.4,0.4c0.3,0,0.5-0.2,0.6-0.4c0,0,0-0.1,0-0.1V338.4z"/>
</g>
<g>
	<path class="st5" d="M-426.2,334.2c0.2,0.1,0.5,0.2,0.7,0.2c0.4,0,0.7-0.2,0.7-0.5c0-0.3-0.2-0.5-0.6-0.6c-0.5-0.2-0.8-0.5-0.8-0.9
		c0-0.5,0.4-0.9,1-0.9c0.3,0,0.6,0.1,0.7,0.2l-0.1,0.3c-0.1-0.1-0.3-0.2-0.6-0.2c-0.4,0-0.6,0.3-0.6,0.5c0,0.3,0.2,0.4,0.6,0.6
		c0.5,0.2,0.8,0.5,0.8,0.9c0,0.5-0.4,0.9-1.1,0.9c-0.3,0-0.6-0.1-0.8-0.2L-426.2,334.2z"/>
	<path class="st5" d="M-423.9,333c0-0.2,0-0.4,0-0.6h0.4l0,0.4h0c0.1-0.2,0.3-0.4,0.7-0.4c0.3,0,0.6,0.2,0.7,0.5h0
		c0.1-0.1,0.2-0.2,0.3-0.3c0.1-0.1,0.3-0.2,0.5-0.2c0.3,0,0.8,0.2,0.8,1v1.4h-0.4v-1.3c0-0.4-0.2-0.7-0.5-0.7
		c-0.2,0-0.4,0.2-0.5,0.4c0,0.1,0,0.1,0,0.2v1.4h-0.4v-1.4c0-0.4-0.2-0.6-0.5-0.6c-0.3,0-0.5,0.2-0.5,0.4c0,0.1,0,0.1,0,0.2v1.4
		h-0.4V333z"/>
	<path class="st5" d="M-418,333.5c0,0.8-0.6,1.2-1.1,1.2c-0.6,0-1.1-0.5-1.1-1.2c0-0.8,0.5-1.2,1.1-1.2
		C-418.4,332.3-418,332.8-418,333.5z M-419.8,333.5c0,0.5,0.3,0.9,0.7,0.9c0.4,0,0.7-0.4,0.7-0.9c0-0.4-0.2-0.9-0.7-0.9
		C-419.6,332.6-419.8,333.1-419.8,333.5z"/>
	<path class="st5" d="M-417.1,333.4L-417.1,333.4c0.1-0.1,0.1-0.2,0.2-0.3l0.7-0.8h0.5l-0.9,0.9l1,1.4h-0.5l-0.8-1.1l-0.2,0.2v0.9
		h-0.4v-3.4h0.4V333.4z"/>
	<path class="st5" d="M-415,331.7c0,0.1-0.1,0.3-0.3,0.3c-0.1,0-0.3-0.1-0.3-0.3c0-0.1,0.1-0.3,0.3-0.3
		C-415.1,331.5-415,331.6-415,331.7z M-415.4,334.7v-2.3h0.4v2.3H-415.4z"/>
	<path class="st5" d="M-414.4,333c0-0.2,0-0.4,0-0.6h0.4l0,0.4h0c0.1-0.2,0.4-0.4,0.8-0.4c0.3,0,0.8,0.2,0.8,1v1.4h-0.4v-1.3
		c0-0.4-0.1-0.7-0.5-0.7c-0.3,0-0.5,0.2-0.6,0.4c0,0.1,0,0.1,0,0.2v1.4h-0.4V333z"/>
	<path class="st5" d="M-409.9,332.4c0,0.2,0,0.4,0,0.6v1.3c0,0.5-0.1,0.8-0.3,1c-0.2,0.2-0.5,0.3-0.8,0.3c-0.3,0-0.6-0.1-0.8-0.2
		l0.1-0.3c0.2,0.1,0.4,0.2,0.7,0.2c0.4,0,0.7-0.2,0.7-0.8v-0.3h0c-0.1,0.2-0.4,0.4-0.7,0.4c-0.6,0-1-0.5-1-1.1c0-0.8,0.5-1.2,1-1.2
		c0.4,0,0.6,0.2,0.7,0.4h0l0-0.3H-409.9z M-410.3,333.3c0-0.1,0-0.1,0-0.2c-0.1-0.2-0.3-0.4-0.6-0.4c-0.4,0-0.7,0.3-0.7,0.9
		c0,0.5,0.2,0.8,0.7,0.8c0.3,0,0.5-0.2,0.6-0.4c0-0.1,0-0.2,0-0.2V333.3z"/>
	<path class="st5" d="M-421.6,338.6l-0.3,1h-0.4l1.1-3.2h0.5l1.1,3.2h-0.4l-0.3-1H-421.6z M-420.5,338.3l-0.3-0.9
		c-0.1-0.2-0.1-0.4-0.2-0.6h0c0,0.2-0.1,0.4-0.2,0.6l-0.3,0.9H-420.5z"/>
	<path class="st5" d="M-419.3,338c0-0.3,0-0.5,0-0.7h0.4l0,0.5h0c0.1-0.3,0.4-0.5,0.6-0.5c0,0,0.1,0,0.1,0v0.4c0,0-0.1,0-0.1,0
		c-0.3,0-0.5,0.2-0.6,0.5c0,0.1,0,0.1,0,0.2v1.2h-0.4V338z"/>
	<path class="st5" d="M-417.6,338.5c0,0.6,0.4,0.8,0.8,0.8c0.3,0,0.5-0.1,0.6-0.1l0.1,0.3c-0.1,0.1-0.4,0.1-0.8,0.1
		c-0.7,0-1.1-0.5-1.1-1.2c0-0.7,0.4-1.2,1.1-1.2c0.8,0,0.9,0.7,0.9,1.1c0,0.1,0,0.2,0,0.2H-417.6z M-416.4,338.3
		c0-0.3-0.1-0.7-0.6-0.7c-0.4,0-0.6,0.4-0.6,0.7H-416.4z"/>
	<path class="st5" d="M-414.3,339.6l0-0.3h0c-0.1,0.2-0.4,0.3-0.7,0.3c-0.5,0-0.7-0.3-0.7-0.7c0-0.6,0.5-0.9,1.4-0.9v0
		c0-0.2-0.1-0.5-0.5-0.5c-0.2,0-0.4,0.1-0.6,0.2l-0.1-0.3c0.2-0.1,0.5-0.2,0.8-0.2c0.7,0,0.9,0.5,0.9,0.9v0.9c0,0.2,0,0.4,0,0.6
		H-414.3z M-414.3,338.4c-0.5,0-1,0.1-1,0.5c0,0.3,0.2,0.4,0.4,0.4c0.3,0,0.5-0.2,0.6-0.4c0,0,0-0.1,0-0.1V338.4z"/>
</g>
<g>
	<path class="st5" d="M-426.2,334.2c0.2,0.1,0.5,0.2,0.7,0.2c0.4,0,0.7-0.2,0.7-0.5c0-0.3-0.2-0.5-0.6-0.6c-0.5-0.2-0.8-0.5-0.8-0.9
		c0-0.5,0.4-0.9,1-0.9c0.3,0,0.6,0.1,0.7,0.2l-0.1,0.3c-0.1-0.1-0.3-0.2-0.6-0.2c-0.4,0-0.6,0.3-0.6,0.5c0,0.3,0.2,0.4,0.6,0.6
		c0.5,0.2,0.8,0.5,0.8,0.9c0,0.5-0.4,0.9-1.1,0.9c-0.3,0-0.6-0.1-0.8-0.2L-426.2,334.2z"/>
	<path class="st5" d="M-423.9,333c0-0.2,0-0.4,0-0.6h0.4l0,0.4h0c0.1-0.2,0.3-0.4,0.7-0.4c0.3,0,0.6,0.2,0.7,0.5h0
		c0.1-0.1,0.2-0.2,0.3-0.3c0.1-0.1,0.3-0.2,0.5-0.2c0.3,0,0.8,0.2,0.8,1v1.4h-0.4v-1.3c0-0.4-0.2-0.7-0.5-0.7
		c-0.2,0-0.4,0.2-0.5,0.4c0,0.1,0,0.1,0,0.2v1.4h-0.4v-1.4c0-0.4-0.2-0.6-0.5-0.6c-0.3,0-0.5,0.2-0.5,0.4c0,0.1,0,0.1,0,0.2v1.4
		h-0.4V333z"/>
	<path class="st5" d="M-418,333.5c0,0.8-0.6,1.2-1.1,1.2c-0.6,0-1.1-0.5-1.1-1.2c0-0.8,0.5-1.2,1.1-1.2
		C-418.4,332.3-418,332.8-418,333.5z M-419.8,333.5c0,0.5,0.3,0.9,0.7,0.9c0.4,0,0.7-0.4,0.7-0.9c0-0.4-0.2-0.9-0.7-0.9
		C-419.6,332.6-419.8,333.1-419.8,333.5z"/>
	<path class="st5" d="M-417.1,333.4L-417.1,333.4c0.1-0.1,0.1-0.2,0.2-0.3l0.7-0.8h0.5l-0.9,0.9l1,1.4h-0.5l-0.8-1.1l-0.2,0.2v0.9
		h-0.4v-3.4h0.4V333.4z"/>
	<path class="st5" d="M-415,331.7c0,0.1-0.1,0.3-0.3,0.3c-0.1,0-0.3-0.1-0.3-0.3c0-0.1,0.1-0.3,0.3-0.3
		C-415.1,331.5-415,331.6-415,331.7z M-415.4,334.7v-2.3h0.4v2.3H-415.4z"/>
	<path class="st5" d="M-414.4,333c0-0.2,0-0.4,0-0.6h0.4l0,0.4h0c0.1-0.2,0.4-0.4,0.8-0.4c0.3,0,0.8,0.2,0.8,1v1.4h-0.4v-1.3
		c0-0.4-0.1-0.7-0.5-0.7c-0.3,0-0.5,0.2-0.6,0.4c0,0.1,0,0.1,0,0.2v1.4h-0.4V333z"/>
	<path class="st5" d="M-409.9,332.4c0,0.2,0,0.4,0,0.6v1.3c0,0.5-0.1,0.8-0.3,1c-0.2,0.2-0.5,0.3-0.8,0.3c-0.3,0-0.6-0.1-0.8-0.2
		l0.1-0.3c0.2,0.1,0.4,0.2,0.7,0.2c0.4,0,0.7-0.2,0.7-0.8v-0.3h0c-0.1,0.2-0.4,0.4-0.7,0.4c-0.6,0-1-0.5-1-1.1c0-0.8,0.5-1.2,1-1.2
		c0.4,0,0.6,0.2,0.7,0.4h0l0-0.3H-409.9z M-410.3,333.3c0-0.1,0-0.1,0-0.2c-0.1-0.2-0.3-0.4-0.6-0.4c-0.4,0-0.7,0.3-0.7,0.9
		c0,0.5,0.2,0.8,0.7,0.8c0.3,0,0.5-0.2,0.6-0.4c0-0.1,0-0.2,0-0.2V333.3z"/>
	<path class="st5" d="M-421.6,338.6l-0.3,1h-0.4l1.1-3.2h0.5l1.1,3.2h-0.4l-0.3-1H-421.6z M-420.5,338.3l-0.3-0.9
		c-0.1-0.2-0.1-0.4-0.2-0.6h0c0,0.2-0.1,0.4-0.2,0.6l-0.3,0.9H-420.5z"/>
	<path class="st5" d="M-419.3,338c0-0.3,0-0.5,0-0.7h0.4l0,0.5h0c0.1-0.3,0.4-0.5,0.6-0.5c0,0,0.1,0,0.1,0v0.4c0,0-0.1,0-0.1,0
		c-0.3,0-0.5,0.2-0.6,0.5c0,0.1,0,0.1,0,0.2v1.2h-0.4V338z"/>
	<path class="st5" d="M-417.6,338.5c0,0.6,0.4,0.8,0.8,0.8c0.3,0,0.5-0.1,0.6-0.1l0.1,0.3c-0.1,0.1-0.4,0.1-0.8,0.1
		c-0.7,0-1.1-0.5-1.1-1.2c0-0.7,0.4-1.2,1.1-1.2c0.8,0,0.9,0.7,0.9,1.1c0,0.1,0,0.2,0,0.2H-417.6z M-416.4,338.3
		c0-0.3-0.1-0.7-0.6-0.7c-0.4,0-0.6,0.4-0.6,0.7H-416.4z"/>
	<path class="st5" d="M-414.3,339.6l0-0.3h0c-0.1,0.2-0.4,0.3-0.7,0.3c-0.5,0-0.7-0.3-0.7-0.7c0-0.6,0.5-0.9,1.4-0.9v0
		c0-0.2-0.1-0.5-0.5-0.5c-0.2,0-0.4,0.1-0.6,0.2l-0.1-0.3c0.2-0.1,0.5-0.2,0.8-0.2c0.7,0,0.9,0.5,0.9,0.9v0.9c0,0.2,0,0.4,0,0.6
		H-414.3z M-414.3,338.4c-0.5,0-1,0.1-1,0.5c0,0.3,0.2,0.4,0.4,0.4c0.3,0,0.5-0.2,0.6-0.4c0,0,0-0.1,0-0.1V338.4z"/>
</g>
<path class="st6" d="M-407.6,327.1h-22.3c-0.9,0-1.6-0.7-1.6-1.6v-22.6c0-0.9,0.7-1.6,1.6-1.6h22.3c0.9,0,1.6,0.7,1.6,1.6v22.6
	C-405.9,326.4-406.7,327.1-407.6,327.1z"/>
</svg>
