<?xml version="1.0" encoding="utf-8"?>
<!-- Generator: Adobe Illustrator 19.1.1, SVG Export Plug-In . SVG Version: 6.00 Build 0)  -->
<svg version="1.1" id="Layer_1" xmlns="http://www.w3.org/2000/svg" xmlns:xlink="http://www.w3.org/1999/xlink" x="0px" y="0px"
	 viewBox="-440 242 78 78" style="enable-background:new -440 242 78 78;" xml:space="preserve">
<style type="text/css">
	.st0{fill:#1E3264;}
	.st1{fill:#FABE3C;}
	.st2{opacity:0.6;fill:#1E3264;}
	.st3{fill:none;stroke:#1E3264;stroke-linecap:round;stroke-miterlimit:10;}
	.st4{fill:none;stroke:#1E3264;stroke-miterlimit:10;}
</style>
<circle id="XMLID_683_" class="st0" cx="-379.6" cy="281.8" r="1.7"/>
<circle id="XMLID_507_" class="st1" cx="-375" cy="281.3" r="1.8"/>
<circle id="XMLID_434_" class="st2" cx="-377.3" cy="277.8" r="1.2"/>
<polyline class="st3" points="-371,254 -384.4,257.6 -389.7,295.1 "/>
<path class="st2" d="M-396.7,286.6h27.4v15.1c0,4.1-3.4,7.5-7.5,7.5h-12.5c-4.2,0-7.5-3.4-7.5-7.6L-396.7,286.6z"/>
<path class="st1" d="M-369.1,275.6h2.5c1.7,0,3.2,1.4,3.2,3.2v15.6c0,1.7-1.4,3.2-3.2,3.2h-2.1V294h0.8c0.6,0,1.1-0.5,1.1-1.1v-12.3
	c0-0.8-0.7-1.5-1.5-1.5h-0.8V275.6z"/>
<path class="st4" d="M-395.1,269.7c0,0,0,2.9-1.6,4.6v27.5c0,4.2,3.4,7.6,7.6,7.6h12.3c4.2,0,7.6-3.4,7.6-7.6v-28.2
	c0,0-2.1-2-2.1-3.9"/>
<path class="st1" d="M-371.5,265.3H-395c-0.5,0-0.8,0.4-0.8,0.8v4.2h25.2v-4.2C-370.7,265.7-371,265.3-371.5,265.3z"/>
</svg>
