<?xml version="1.0" encoding="utf-8"?>
<!-- Generator: Adobe Illustrator 19.1.1, SVG Export Plug-In . SVG Version: 6.00 Build 0)  -->
<svg version="1.1" id="Layer_1" xmlns="http://www.w3.org/2000/svg" xmlns:xlink="http://www.w3.org/1999/xlink" x="0px" y="0px"
	 viewBox="-440 242 78 78" style="enable-background:new -440 242 78 78;" xml:space="preserve">
<style type="text/css">
	.st0{fill:#1E3264;}
	.st1{fill:#FABE3C;}
	.st2{opacity:0.6;fill:#1E3264;}
	.st3{fill:none;stroke:#1E3264;stroke-linecap:round;stroke-miterlimit:10;}
	.st4{fill:none;stroke:#1E3264;stroke-miterlimit:10;}
	.st5{fill:none;stroke:#FABE3C;stroke-width:0.5;stroke-linecap:round;stroke-linejoin:round;stroke-miterlimit:2.6131;}
</style>
<circle id="XMLID_683_" class="st0" cx="-379.6" cy="281.8" r="1.7"/>
<circle id="XMLID_507_" class="st1" cx="-375" cy="281.3" r="1.8"/>
<circle id="XMLID_434_" class="st2" cx="-377.3" cy="277.8" r="1.2"/>
<polyline class="st3" points="-371,254 -384.4,257.6 -389.7,295.1 "/>
<path class="st2" d="M-396.7,286.6h27.4v15.1c0,4.1-3.4,7.5-7.5,7.5h-12.5c-4.2,0-7.5-3.4-7.5-7.6L-396.7,286.6z"/>
<path class="st1" d="M-369.1,275.6h2.5c1.7,0,3.2,1.4,3.2,3.2v15.6c0,1.7-1.4,3.2-3.2,3.2h-2.1V294h0.8c0.6,0,1.1-0.5,1.1-1.1v-12.3
	c0-0.8-0.7-1.5-1.5-1.5h-0.8V275.6z"/>
<path class="st4" d="M-395.1,269.7c0,0,0,2.9-1.6,4.6v27.5c0,4.2,3.4,7.6,7.6,7.6h12.3c4.2,0,7.6-3.4,7.6-7.6v-28.2
	c0,0-2.1-2-2.1-3.9"/>
<path class="st1" d="M-371.5,265.3H-395c-0.5,0-0.8,0.4-0.8,0.8v4.2h25.2v-4.2C-370.7,265.7-371,265.3-371.5,265.3z"/>
<path id="XMLID_676_" class="st4" d="M-419.9,251.6L-419.9,251.6c-1.6,0-2.9,1.4-2.9,2.7l1.5,23.5h2.7l1.7-23.5
	C-417,253-418.3,251.6-419.9,251.6z"/>
<polygon class="st2" points="-422.4,261.8 -417.6,261.8 -418.7,277.7 -421.4,277.6 "/>
<path class="st5" d="M-407.8,277.8l3.4,2.8 M-431.8,277.9l-3.4,2.8 M-411.2,277.9l6.9,5.6 M-428.3,277.9l-6.8,5.7 M-414.6,277.9
	l10.3,8.5 M-424.9,277.9l-10.2,8.5 M-418.1,277.9l13.7,11.3 M-421.5,277.9l-13.7,11.3 M-421.5,277.9l17.2,14.1 M-418.1,277.9
	l-17.1,14.2 M-424.9,277.9l20.6,16.9 M-414.6,277.9l-20.5,17 M-428.3,277.9l24,19.7 M-411.2,277.9l-23.9,19.8 M-431.8,277.9
	l27.5,22.6 M-407.8,277.8l-27.3,22.7 M-435.1,278l30.8,25.3 M-404.5,277.9l-30.6,25.4 M-435.2,280.7l30.9,25.4 M-404.4,280.7
	l-30.7,25.5 M-435.2,283.6l30.8,25.3 M-404.3,283.5l-30.6,25.4 M-435.2,286.4l27.5,22.6 M-404.3,286.3l-27.3,22.7 M-435.1,289.2
	l24,19.7 M-404.3,289.2l-23.9,19.8 M-435.1,292l20.6,16.9 M-404.3,292l-20.5,17 M-435.1,294.9L-418,309 M-404.3,294.8l-17.1,14.2
	 M-435.1,297.7l13.7,11.3 M-404.3,297.6L-418,309 M-435.1,300.5l10.3,8.5 M-404.3,300.5l-10.2,8.5 M-435.1,303.4l6.9,5.6
	 M-404.3,303.3l-6.8,5.7 M-435.1,306.2l3.4,2.8 M-404.3,306.1l-3.4,2.8"/>
<path class="st4" d="M-435.4,277.9v31.3h31.3v-31.3C-404.1,277.9-435.8,277.9-435.4,277.9z"/>
<path class="st1" d="M-403.7,278.4h-32.3c-0.3,0-0.6-0.3-0.6-0.6l0,0c0-0.3,0.3-0.6,0.6-0.6h32.3c0.3,0,0.6,0.3,0.6,0.6l0,0
	C-403.1,278.1-403.4,278.4-403.7,278.4z"/>
<path class="st1" d="M-403.7,309.9h-32.3c-0.3,0-0.6-0.3-0.6-0.6l0,0c0-0.3,0.3-0.6,0.6-0.6h32.3c0.3,0,0.6,0.3,0.6,0.6l0,0
	C-403.1,309.6-403.4,309.9-403.7,309.9z"/>
</svg>
