<svg xmlns="http://www.w3.org/2000/svg" viewBox="0 0 439 439"><title>Asset 18</title><g id="Layer_2" data-name="Layer 2"><g id="Слой_1" data-name="Слой 1"><path d="M219.5,0C98.3,0,0,98.3,0,219.5S98.3,439,219.5,439,439,340.7,439,219.5,340.8,0,219.5,0ZM366.8,336.4a10,10,0,0,1-10,10H82.2a10,10,0,0,1-10-10V102.6a10,10,0,0,1,10-10H356.8a10,10,0,0,1,10,10Z" fill="#fff"/><path d="M366.2,146.9a2,2,0,0,1-1.4.6H147.3V346.4H356.8a10,10,0,0,0,10-10V145.5A1.68,1.68,0,0,1,366.2,146.9ZM232.8,333.8H175v-16h6.3V178.2H175v-16h72.3v16h-64V317.8h49.5Zm29-25.9h-58v-16h5.5V204.2h-5.5v-16h43.5v16h-36v87.7h20.5V282h-9V266h9v-9.9h-9v-16h55v16h-44V266h11.6v16H233.8v9.9h28ZM241,214.1v16H222.9v-16Zm86.7,68H255.4v-16h72.3v16Zm0-52.4H251.3v-16h76.4Z" fill="#fdd29d"/><path d="M74.2,147.5a2,2,0,0,1-2-2V336.4a10,10,0,0,0,10,10h65V147.5Zm57.9,158.9H86.3v-16h45.8Zm0-32H86.3v-16h45.8Zm0-32.1H86.3v-16h45.8Zm0-32H86.3v-16h45.8Zm0-32.1H86.3v-16h45.8Z" fill="#fff5e0"/><path d="M366.8,145.5a1.68,1.68,0,0,1-.6,1.4,2,2,0,0,1-1.4.6H74.2a2,2,0,0,1-2-2Z" fill="#00697a"/><path d="M356.8,92.6H82.2a10,10,0,0,0-10,10v43H366.8v-43A10,10,0,0,0,356.8,92.6ZM93.9,129.1a7.8,7.8,0,0,1,0-15.6c4.3-.2,7.6,3.4,7.6,7.8A7.71,7.71,0,0,1,93.9,129.1Zm29.9,0a7.8,7.8,0,0,1,0-15.6c4.1-.2,7.6,3.4,7.6,7.8A7.71,7.71,0,0,1,123.8,129.1Zm29.9,0a7.48,7.48,0,0,1-6.4-3.7,7.63,7.63,0,0,1-1.2-4.2,7.39,7.39,0,0,1,1.2-4.2,7.64,7.64,0,0,1,6.4-3.6c4.1-.2,7.6,3.4,7.6,7.8A7.73,7.73,0,0,1,153.7,129.1Z" fill="#ea631d"/><path d="M101.5,121.3a7.6,7.6,0,1,1-7.6-7.8C98.2,113.2,101.5,116.8,101.5,121.3Z" fill="#fde298"/><path d="M131.4,121.3a7.6,7.6,0,1,1-7.6-7.8C127.9,113.2,131.4,116.8,131.4,121.3Z" fill="#fff5e0"/><path d="M161.3,121.3a7.71,7.71,0,0,1-7.6,7.8,7.48,7.48,0,0,1-6.4-3.7,7.63,7.63,0,0,1-1.2-4.2,7.39,7.39,0,0,1,1.2-4.2,7.64,7.64,0,0,1,6.4-3.6C157.8,113.2,161.3,116.8,161.3,121.3Z" fill="#62b57f"/><path d="M233.8,282h-2v9.9h2Z" fill="#8b8b8b"/><path d="M233.8,256h-2v9.9h2Z" fill="#8b8b8b"/><path d="M211.3,204.2h-2v87.7h2Z" fill="#8b8b8b"/><path d="M183.3,178.2h-2V317.8h2Z" fill="#8b8b8b"/><path d="M247.3,162.2H175v16h72.3Z" fill="#00697a"/><path d="M247.3,188.2H203.8v16h43.5Z" fill="#ea631d"/><path d="M241,214.1H222.9v16H241Z" fill="#ea631d"/><path d="M245.4,266H222.9v16h22.5Z" fill="#ea631d"/><path d="M277.8,240H222.9v16h54.9Z" fill="#00697a"/><path d="M327.8,213.7H251.4v16h76.4Z" fill="#ea631d"/><path d="M327.7,266.1H255.4v16h72.3v-16Z" fill="#00697a"/><path d="M261.8,291.9h-58v16h58Z" fill="#00697a"/><path d="M232.8,317.8H175v16h57.8Z" fill="#ea631d"/><path d="M132.1,162.2H86.3v16h45.8Z" fill="#fdd29d"/><path d="M132.1,226.3H86.3v16h45.8Z" fill="#fdd29d"/><path d="M132.1,290.4H86.3v16h45.8Z" fill="#fdd29d"/><path d="M132.1,194.3H86.3v16h45.8Z" fill="#fdd29d"/><path d="M132.1,258.4H86.3v16h45.8Z" fill="#fdd29d"/></g></g></svg>