<?xml version="1.0" encoding="utf-8"?>
<!-- Generator: Adobe Illustrator 19.1.1, SVG Export Plug-In . SVG Version: 6.00 Build 0)  -->
<svg version="1.1" id="Layer_1" xmlns="http://www.w3.org/2000/svg" xmlns:xlink="http://www.w3.org/1999/xlink" x="0px" y="0px"
	 viewBox="-479 281 78 78" style="enable-background:new -479 281 78 78;" xml:space="preserve">
<style type="text/css">
	.st0{fill:none;stroke:#1E3264;stroke-miterlimit:10;}
	.st1{opacity:0.6;fill:#233662;}
	.st2{fill:#FABE3C;}
	.st3{fill:none;stroke:#FABE3C;stroke-linecap:round;stroke-linejoin:round;stroke-miterlimit:10;}
	.st4{fill:none;stroke:#1E3264;stroke-linecap:round;stroke-linejoin:round;stroke-miterlimit:10;}
</style>
<path id="XMLID_8_" class="st0" d="M-441.2,342.3h-33.5c-0.5,0-0.9-0.4-0.9-0.9v-0.2c0-0.5,0.4-0.9,0.9-0.9h33.5
	c0.5,0,0.9,0.4,0.9,0.9v0.2C-440.3,341.9-440.7,342.3-441.2,342.3z"/>
<path id="XMLID_7_" class="st0" d="M-454.5,317.3c0.1-1-0.6-2-1.6-2.2c-1.1-0.2-2,0.5-2.3,1.5c0.6,0,1.3,0.1,1.9,0.2
	C-455.8,316.9-455.1,317.1-454.5,317.3z M-456.5,317.5"/>
<path id="XMLID_6_" class="st1" d="M-447.3,323.4c-2.7-1.8-6-2.8-9.6-2.8c-8.8,0-16.1,6.4-17.2,14.7l-2.1-0.1
	c0.6-9.5,8.8-16.6,18.4-16.1C-453.8,319.4-450.2,320.9-447.3,323.4z"/>
<path id="XMLID_5_" class="st2" d="M-439.5,337.7c0-9.7-7.9-17.5-17.5-17.5s-17.5,7.9-17.5,17.5H-439.5z"/>
<path id="XMLID_4_" class="st0" d="M-441.5,337.4c0.5-9.7-6.9-18-16.5-18.5c-9.7-0.5-18,6.9-18.5,16.5L-441.5,337.4z"/>
<line id="XMLID_3_" class="st3" x1="-456.4" y1="313.7" x2="-456.4" y2="310.5"/>
<line id="XMLID_2_" class="st4" x1="-458.9" y1="314.4" x2="-460.7" y2="311.7"/>
<line id="XMLID_1_" class="st4" x1="-454" y1="314.4" x2="-452.2" y2="311.7"/>
</svg>
