<?xml version="1.0" standalone="no"?>
<!DOCTYPE svg PUBLIC "-//W3C//DTD SVG 20010904//EN"
		"http://www.w3.org/TR/2001/REC-SVG-20010904/DTD/svg10.dtd">
<svg version="1.0" xmlns="http://www.w3.org/2000/svg"
	 width="700.000000pt" height="700.000000pt" viewBox="0 0 700.000000 700.000000"
	 preserveAspectRatio="xMidYMid meet">
	<metadata>
		Created by potrace 1.11, written by Peter Selinger 2001-2013
	</metadata>
	<g transform="translate(0.000000,700.000000) scale(0.100000,-0.100000)"
	   fill="#000000" stroke="none">
		<path d="M239 6984 c-68 -21 -140 -72 -177 -128 -67 -101 -62 181 -60 -3376
l3 -3225 33 -67 c37 -76 82 -120 162 -157 l55 -26 3245 0 3245 0 67 33 c76 37
120 82 157 162 l26 55 0 3245 0 3245 -26 55 c-37 80 -81 125 -157 162 l-67 33
-3230 2 c-2775 1 -3237 0 -3276 -13z m2096 -401 c99 -32 209 -122 253 -210 54
-106 52 -37 53 -1482 1 -1089 3 -1328 13 -1291 7 25 22 63 34 85 11 22 426
649 921 1393 580 871 918 1370 951 1403 169 169 452 167 623 -5 91 -90 127
-180 127 -311 0 -81 -14 -145 -45 -206 -10 -18 -381 -579 -826 -1246 -445
-667 -809 -1217 -809 -1223 0 -6 364 -556 809 -1224 445 -667 818 -1231 829
-1252 66 -130 57 -308 -23 -433 -147 -234 -489 -276 -681 -84 -32 32 -381 545
-962 1416 -502 752 -917 1379 -924 1394 -6 15 -17 48 -24 73 -10 37 -13 -186
-13 -1296 -1 -1162 -3 -1347 -16 -1391 -69 -232 -308 -368 -540 -308 -165 43
-295 181 -325 345 -7 37 -9 979 -7 2790 2 2411 4 2740 17 2775 29 76 62 129
116 182 116 117 288 157 449 106z"/>
	</g>
</svg>