<svg xmlns="http://www.w3.org/2000/svg" viewBox="0 0 499.62 282.29">
    <style>
        .cls-2{fill:none;stroke:#fff;stroke-linecap:round;stroke-linejoin:round;stroke-width:16px;}
        .cls-3{fill:#fff;}
    </style>
    <path class="cls-2"
          d="M403.24,240.65c38.46-5,75.54-36.83,85.74-75.41,11.11-42-13.85-76.05-55.75-76.07H379.55M84.6,8H369.36l-62,233.31h30.29"/>
    <circle class="cls-2" cx="369.27" cy="242.71" r="31.58"/>
    <circle class="cls-2" cx="154.33" cy="242.71" r="31.58"/>
    <line class="cls-2" x1="122.75" y1="242.55" x2="96.09" y2="242.71"/>
    <line class="cls-2" x1="325.11" y1="241.31" x2="185.91" y2="242.16"/>
    <line class="cls-2" x1="229.36" y1="174.73" x2="8" y2="174.73"/>
    <line class="cls-2" x1="135.91" y1="124.66" x2="33.28" y2="124.66"/>
    <line class="cls-2" x1="107.38" y1="74.59" x2="61.81" y2="74.59"/>
    <path class="cls-3"
          d="M284,63.49,250.74,89.71c-6.84,4.76-14.84,7.64-22.75,7.64-6.79,0-12.52-2.12-16.72-5.73a.43.43,0,0,0-.57.08.4.4,0,0,0-.09.54c4.84,5.38,12.12,8.62,21,8.62a44.35,44.35,0,0,0,22.46-6.57L270,115.93c1.7,2.33,1.48,5.64-.59,8.68a10.83,10.83,0,0,1-8.68,4.92H238.18a5.86,5.86,0,0,1-5-2.34l-8.06-11-1.43,5.34c-1.17,4.39-5.7,8-10.09,8H197.64c-4.39,0-7-3.58-5.85-8l17-63.7a11.15,11.15,0,0,1,10.1-8h15.94c4.39,0,7,3.57,5.85,8l-1.43,5.35,13.92-11a10,10,0,0,1,6.26-2.33H282c3.3,0,5.6,1.87,6,4.91S286.93,61.16,284,63.49Z"/>
</svg>