<svg xmlns="http://www.w3.org/2000/svg" viewBox="0 0 346.7 356.86">
    <style>
        .cls-2,.cls-3{fill:none;stroke-linecap:round;stroke-linejoin:round;stroke:#999;}
        .cls-2{stroke-width:16px;}
        .cls-3{stroke-width:10px;}
    </style>
    <line class="cls-2" x1="121.22" y1="281.57" x2="44.62" y2="281.57"/>
    <line class="cls-2" x1="44.62" y1="244.87" x2="123.26" y2="244.87"/>
    <line class="cls-2" x1="131.43" y1="208.17" x2="44.62" y2="208.17"/>
    <path class="cls-2"
          d="M320.85,169.07V30.37A22.36,22.36,0,0,0,298.49,8H30.37A22.36,22.36,0,0,0,8,30.37V298.14a22.36,22.36,0,0,0,22.37,22.37H162.68"/>
    <path class="cls-2"
          d="M108.36,32.51V73.16a7.89,7.89,0,0,0,2.31,5.58l10.19,10.19a7.89,7.89,0,0,0,11.16,0L137.94,83a7.89,7.89,0,0,1,11.16,0l7.17,7.17a7.89,7.89,0,0,0,11.16,0l6.36-6.37a7.91,7.91,0,0,1,11.17,0l6.56,6.56a7.89,7.89,0,0,0,11.16,0l4.74-4.74a7.89,7.89,0,0,0,2.31-5.58V8"/>
    <path class="cls-2" d="M188.11,234a79.46,79.46,0,1,0,29.4-32.2"/>
    <path class="cls-3"
          d="M228.71,234l-19,19h78.12a20.93,20.93,0,0,1,20.93,20.93h0a20.93,20.93,0,0,1-20.93,20.93H225"/>
    <line class="cls-3" x1="209.73" y1="252.99" x2="225.29" y2="269.42"/>

</svg>