<svg xmlns="http://www.w3.org/2000/svg" viewBox="0 0 289.76 316.09">
    <style>
        .cls-1{fill:#999;}
    </style>
    <path class="cls-1"
          d="M156,0c5.84,1.05,11.73,1.84,17.49,3.19C215.7,13,249.79,49.44,256.56,92.08a210.44,210.44,0,0,1,1.81,21.76c.27,5.43.05,10.88.05,16.45a61.43,61.43,0,0,1,6.22,1c10.84,2.89,17.25,10.56,21.63,20.35A42.06,42.06,0,0,1,289.73,169q0,22.83,0,45.67c-.05,16.25-9.37,26.53-25.55,28.52a5.29,5.29,0,0,0-3.25,2.19c-5.54,8.48-11.6,16.46-19.64,22.78a77.26,77.26,0,0,1-46.64,16.93c-.6,0-1.2.1-2,.16A35.56,35.56,0,0,1,176,309.75c-7.91,5-16.61,7.32-25.88,6-19.89-2.92-34.24-19.22-34.21-38.35,0-19.41,14.34-35.71,34.17-38.26,18.2-2.34,37.35,8.82,42.6,30.32,16,1.52,39.26-8.64,49.87-25.29-2.6,0-4.9,0-7.19,0-5.52-.13-8.36-3-8.37-8.41q0-47.52.06-95a16.32,16.32,0,0,1,1.38-6.22,6.16,6.16,0,0,1,6.13-3.87c2.54,0,5.09,0,7.6,0C248.88,69.64,213.52,27.21,165,17.47,113.84,7.18,63.83,40.73,53.06,92c-1.9,9-2.76,27.32-1.75,38.59,2.26,0,4.57,0,6.89,0,4.83,0,7.66,2.49,8.29,7.28a38.57,38.57,0,0,1,.22,4.93q0,46.13,0,92.26c0,6.31-2.66,9.06-9,9.05-9.56,0-19.16.42-28.68-.29C12.66,242.6.94,231,.37,214.69c-.63-18.28-.38-36.61.2-54.9.42-13.61,12.26-29.54,31.2-29.21,1,0,2,0,3.53,0v-4.14c0-12.22-.42-24.48,2.21-36.55Q50.07,32.36,104,8.6a101.07,101.07,0,0,1,31.79-8A17,17,0,0,0,138.13,0ZM50.85,228.34V146.26H33.37c-10.59,0-17.4,6.62-17.45,17.17q-.11,24.84,0,49.67A14.93,14.93,0,0,0,30,228.27C36.85,228.61,43.75,228.34,50.85,228.34Zm192.19-82v82.05h15.3a23.32,23.32,0,0,0,2.77-.1c9.21-1.06,12.82-5.1,12.82-14.29q0-23.11,0-46.23a26.35,26.35,0,0,0-5.08-15.53c-2.21-3.11-5.06-5.64-9-5.83C254.32,146.12,248.78,146.32,243,146.32ZM177.68,277.8c-.05-13.29-10.06-23.56-23-23.55a22.88,22.88,0,0,0-22.93,22.9,23.57,23.57,0,0,0,23.34,23.09A22.47,22.47,0,0,0,177.68,277.8Z"/>
</svg>