<svg xmlns="http://www.w3.org/2000/svg" viewBox="0 0 313.94 403.52">
    <style>
        .cls-1{fill:none;stroke:#999;stroke-linecap:round;stroke-linejoin:round;stroke-width:16px;}
        .cls-3{fill:#999;}
    </style>
    <path class="cls-1"
          d="M138.45,383.76H50.7A42.7,42.7,0,0,1,8,341.06V50.7A42.7,42.7,0,0,1,50.7,8H247.12a42.7,42.7,0,0,1,42.7,42.7V156.17"/>
    <polyline class="cls-1" points="241.54 315.02 209.33 394.54 194.97 371.86 168.38 378.06 196.76 310.69"/>
    <polyline class="cls-1" points="237.88 362.07 251.42 395.52 265.77 372.84 292.53 378.8 264.31 310.69"/>
    <circle class="cls-1" cx="233.25" cy="242.8" r="72.7"/>
    <line class="cls-1" x1="57.75" y1="68.33" x2="247.33" y2="68.33"/>
    <line class="cls-1" x1="57.75" y1="113.49" x2="247.33" y2="113.49"/>
    <line class="cls-1" x1="57.75" y1="158.64" x2="160.55" y2="158.64"/>
    <line class="cls-1" x1="57.75" y1="283.63" x2="121.8" y2="283.63"/>
    <line class="cls-1" x1="57.75" y1="318.86" x2="121.8" y2="318.86"/>
    <polygon class="cls-3"
             points="232.96 202.61 245.48 227.97 273.46 232.04 253.21 251.77 257.99 279.64 232.96 266.49 207.93 279.64 212.71 251.77 192.47 232.04 220.45 227.97 232.96 202.61"/>
</svg>