<svg xmlns="http://www.w3.org/2000/svg" viewBox="0 0 275.62 380.85">
    <style>
        .cls-2,.cls-3{fill:none;stroke-linecap:round;stroke-linejoin:round;stroke-width:16px;}
        .cls-2{stroke:#999;}
        .cls-3{stroke:#999;}
    </style>
    <polyline class="cls-2" points="146.92 271.75 106.58 371.32 84.11 335.83 42.5 345.53 86.92 240.09"/>
    <polyline class="cls-2" points="151.26 320.51 172.45 372.85 194.92 337.36 236.79 346.68 192.62 240.09"/>
    <path class="cls-2" d="M88,89.64a69.08,69.08,0,1,0,25.17-16.58"/>
    <polyline class="cls-3" points="102.83 136.58 127.02 160.77 172.79 115.01"/>
    <path class="cls-2"
          d="M235.29,217.58c.82-8.66,1.64-17.33,2.39-26a35.27,35.27,0,0,1,8.4-20.62l.54-.64-2.16,2.91c6-7.42,12-14.91,18.21-22.23a20.89,20.89,0,0,0,4.23-8h0l.06-.21a19.86,19.86,0,0,0,.29-8.87,24.2,24.2,0,0,0-4.71-9.35l-.08-.09q-8-9.65-16-19.25a41.59,41.59,0,0,1-3.08-4.15,28.56,28.56,0,0,1-4.89-11.68,34,34,0,0,1-.67-4.69c-.15-2.08-.33-4.15-.52-6.23,0-.15,0-.31,0-.46-.5-4.78-1-9.57-1.44-14.35-.12-1.28-.26-2.55-.38-3.82a24.23,24.23,0,0,0-3.6-11.19l-.2-.3a19.1,19.1,0,0,0-3.22-3.49l-.24-.2a21.82,21.82,0,0,0-9.66-4.1l-4.08-.52c-5.3-.5-10.61-1-15.9-1.53-.54,0-1.09-.07-1.62-.1a62,62,0,0,1-7.44-.79l-.32,0A29.41,29.41,0,0,1,174,31.89a38,38,0,0,1-6-4.68c-.51-.47-1-.95-1.53-1.41-5.06-4.11-10.13-8.24-15.14-12.43l-.51-.41a23.93,23.93,0,0,0-6.1-3.65l-.24-.1a18.93,18.93,0,0,0-18.22,2.69c-2.79,2.14-5.57,4.29-8.3,6.5a2.78,2.78,0,0,1-.33.27l-3.43,2.84c-.27.22-.53.43-.79.66-1.39,1.19-2.77,2.39-4.12,3.62a59.09,59.09,0,0,1-6.91,5.44,32.31,32.31,0,0,1-12,5.62A39.64,39.64,0,0,1,81,38.26c-1.56,0-3.12.12-4.67.23-6.53.61-13.07,1.33-19.58,2.14h-.1c-8.48,1.59-14.07,7-15.91,15.25,0,.3-.1.6-.14.91L40,61.63c-.5,4.86-1,9.72-1.43,14.58,0,.81-.09,1.6-.12,2.41a58.41,58.41,0,0,1-.85,7.84,32.61,32.61,0,0,1-6.15,15.77,41.45,41.45,0,0,1-4.68,5.86l-1.4,1.51q-6.93,8.33-13.57,16.86a18.45,18.45,0,0,0-2.37,4c-.06.12-.12.26-.17.39A20.19,20.19,0,0,0,8,138.35a18.45,18.45,0,0,0,.41,4,.14.14,0,0,0,0,.07,18.92,18.92,0,0,0,3.34,6.89q1.83,2.37,3.67,4.73c2.8,3.41,5.58,6.81,8.4,10.2l.1.1c.56.65,1.14,1.29,1.73,1.93a59.22,59.22,0,0,1,4.56,5.61l.09.11a31.94,31.94,0,0,1,7.09,15.9,42.91,42.91,0,0,1,.85,7.48c0,.21,0,.4,0,.61.52,5.25,1,10.52,1.4,15.78,0,0,0,0,0,0q.32,2.7.59,5.42c0,.19,0,.4.07.6a24.24,24.24,0,0,0,3.87,9.75A23.29,23.29,0,0,0,46.4,230a17.09,17.09,0,0,0,4.71,3.44l.76.35.71.28a2.6,2.6,0,0,0,.42.15,13.9,13.9,0,0,0,1.38.42c.55.16,1.12.28,1.7.39l.94.14,3.09.4.23,0c5.94.57,11.88,1.17,17.83,1.71h.09l3.59.23a45.23,45.23,0,0,1,6.25.77l.34.06a30.62,30.62,0,0,1,13.92,6,33.11,33.11,0,0,1,3.24,2.54l1,.85c4.57,3.68,9.07,7.46,13.54,11.26l4.44,3.58c.54.44,1.07.84,1.61,1.21l.39.27h0a20.21,20.21,0,0,0,10.54,3.67h0a18.11,18.11,0,0,0,12.42-3.92c6.61-5,13.05-10.33,19.25-15.87,6.74-6,14.3-9.61,23.4-10.2l2.76-.19c7.27-.77,14.55-1.53,21.85-2.15.61,0,1.22-.13,1.82-.23h.06A20.16,20.16,0,0,0,233,225.09a3.37,3.37,0,0,1,.17-.32A35,35,0,0,0,235.29,217.58Z"/>
</svg>