<svg xmlns="http://www.w3.org/2000/svg" viewBox="0 0 439 439"><title>Asset 16</title><g id="Layer_2" data-name="Layer 2"><g id="Слой_1" data-name="Слой 1"><path d="M215.7,219.5a20.7,20.7,0,1,0,20.7,20.7A20.74,20.74,0,0,0,215.7,219.5Zm0,40.4a19.7,19.7,0,1,1,19.7-19.7A19.67,19.67,0,0,1,215.7,259.9Z" fill="#4d4d4d"/><path d="M280.7,253.5c.1,0,.1-.1,0,0Z" fill="#fff"/><path d="M219.5,0C98.3,0,0,98.3,0,219.5S98.3,439,219.5,439,439,340.7,439,219.5,340.7,0,219.5,0ZM366.7,336.4a10,10,0,0,1-10,10H82.1a10,10,0,0,1-10-10V102.6a10,10,0,0,1,10-10H356.7a10,10,0,0,1,10,10V336.4Z" fill="#fff"/><path d="M366.2,146.9a2,2,0,0,1-1.4.6H74.2a2,2,0,0,1-2-2V336.4a10,10,0,0,0,10,10H356.8a10,10,0,0,0,10-10V145.5A2.59,2.59,0,0,1,366.2,146.9ZM316.7,263.7a3,3,0,0,1-3,3h-2a2,2,0,0,1-2,2h-4v9a3,3,0,0,1-3,3h-2a2,2,0,0,1-2,2h-4.5a2,2,0,0,1-2-2v-12H264.4c-.2.3-.3.6-.5.9l7.3,7.3a76.26,76.26,0,0,1-8.5,10.3,70.54,70.54,0,0,1-10.3,8.5l-7.3-7.3A53.08,53.08,0,0,1,229,295v10.3a63.87,63.87,0,0,1-26.6,0V295a55.73,55.73,0,0,1-16.1-6.6l-7.3,7.3a76.26,76.26,0,0,1-10.3-8.5,70.54,70.54,0,0,1-8.5-10.3l7.3-7.3c-.6-1-1.1-1.9-1.6-2.9h-2.4a2,2,0,0,1-2,2h-4v9a3,3,0,0,1-3,3h-2a2,2,0,0,1-2,2H146a2,2,0,0,1-2-2v-12H114a1.94,1.94,0,0,1-1.6-3.1l36-52a2.22,2.22,0,0,1,1.3-.8l1.9-2.8a3.13,3.13,0,0,1,2.5-1.3h.4a3,3,0,0,1,3,3v15.2h3.4a55.73,55.73,0,0,1,6.6-16.1l-7.3-7.3A70.06,70.06,0,0,1,179,184.7l7.3,7.3a53.08,53.08,0,0,1,16.1-6.6V175.1a65.21,65.21,0,0,1,13.3-1.3,73.13,73.13,0,0,1,13.3,1.3v10.3a55.73,55.73,0,0,1,16.1,6.6l7.3-7.3a76.26,76.26,0,0,1,10.3,8.5,69.43,69.43,0,0,1,8.5,10.3l-7.3,7.3a53.08,53.08,0,0,1,6.6,16.1h10.3a68.26,68.26,0,0,1,1.1,7.9l14.7-21.2a2.22,2.22,0,0,1,1.3-.8l1.9-2.8a3.13,3.13,0,0,1,2.5-1.3h.4a3,3,0,0,1,3,3v45.5h8a3,3,0,0,1,3,3v3.5Z" fill="#fdd29d"/><path d="M161.8,257.2h-4.4v-3.7h3.4C161.2,254.7,161.5,256,161.8,257.2Z" fill="#fdd29d"/><path d="M280.7,253.5c.1,0,.1-.1,0,0Z" fill="#fdd29d"/><path d="M313.7,257.2h-8V211.7a3,3,0,0,0-3-3h-.4a3.13,3.13,0,0,0-2.5,1.3l-1.9,2.8-15.9,23-18.2,26.3a3.12,3.12,0,0,0-.2,3.1,2.58,2.58,0,0,0,2,1.5,1.48,1.48,0,0,0,.7.1h29v11a3.08,3.08,0,0,0,3,3h4.5a3,3,0,0,0,3-3v-11h8a3,3,0,0,0,3-3v-3.5A3.18,3.18,0,0,0,313.7,257.2Zm2,6.5a2,2,0,0,1-2,2h-9v12a2,2,0,0,1-2,2h-4.5a2,2,0,0,1-2-2v-12H266a2.09,2.09,0,0,1-1.6-1.1,2.24,2.24,0,0,1,.1-2.1l5.7-8.2.6-.8L282,237.3l17-24.6,1.5-2.2a2.2,2.2,0,0,1,1.6-.9h.4a2,2,0,0,1,2,2v46.5h9a2,2,0,0,1,2,2v3.6Z" fill="#4d4d4d"/><path d="M366.7,145.5a1.68,1.68,0,0,1-.6,1.4,2,2,0,0,1-1.4.6H74.1a2,2,0,0,1-2-2Z" fill="#4d4d4d"/><path d="M356.7,92.6H82.1a10,10,0,0,0-10,10v43H366.7v-43A10,10,0,0,0,356.7,92.6Zm-263,36.5a7.8,7.8,0,0,1,0-15.6c4.3-.2,7.6,3.4,7.6,7.8A7.71,7.71,0,0,1,93.7,129.1Zm30,0a7.8,7.8,0,0,1,0-15.6c4.1-.2,7.6,3.4,7.6,7.8A7.84,7.84,0,0,1,123.7,129.1Zm29.9,0a7.8,7.8,0,0,1,0-15.6c4.1-.2,7.6,3.4,7.6,7.8A7.71,7.71,0,0,1,153.6,129.1Z" fill="#ea631d"/><path d="M101.3,121.3a7.6,7.6,0,1,1-7.6-7.8C98.1,113.2,101.3,116.8,101.3,121.3Z" fill="#fde298"/><path d="M131.2,121.3a7.6,7.6,0,1,1-7.6-7.8C127.7,113.2,131.2,116.8,131.2,121.3Z" fill="#fff5e0"/><path d="M161.2,121.3a7.6,7.6,0,1,1-7.6-7.8C157.7,113.2,161.2,116.8,161.2,121.3Z" fill="#62b57f"/><path d="M280.7,253.5c.1,0,.1-.1,0,0Z" fill="#ea631d"/><path d="M264.3,268.7h-2.2a1.94,1.94,0,0,1-1.6-3.1l21.3-30.8a68.26,68.26,0,0,0-1.1-7.9H270.4a55.73,55.73,0,0,0-6.6-16.1l7.3-7.3a76.26,76.26,0,0,0-8.5-10.3,70.54,70.54,0,0,0-10.3-8.5L245,192a53.08,53.08,0,0,0-16.1-6.6V175.1a64.52,64.52,0,0,0-13.3-1.3,72.26,72.26,0,0,0-13.3,1.3v10.3a55.73,55.73,0,0,0-16.1,6.6l-7.3-7.3a70.06,70.06,0,0,0-18.8,18.8l7.3,7.3a53.08,53.08,0,0,0-6.6,16.1h-3.4v26.6h3.4c.3,1.3.6,2.5,1,3.7h3.6a3,3,0,0,1,3,3v3.5a3.11,3.11,0,0,1-2.6,3c.5,1,1.1,2,1.6,2.9l-7.3,7.3a70.06,70.06,0,0,0,18.8,18.8l7.3-7.3a53.08,53.08,0,0,0,16.1,6.6v10.3a63.87,63.87,0,0,0,26.6,0V295a55.73,55.73,0,0,0,16.1-6.6l7.3,7.3a76.26,76.26,0,0,0,10.3-8.5,64.66,64.66,0,0,0,8.5-10.3l-7.3-7.3A2,2,0,0,0,264.3,268.7Zm-48.6,4.7a33.2,33.2,0,1,1,33.2-33.2A33.25,33.25,0,0,1,215.7,273.4Z" fill="#ea631d"/><path d="M215.7,206.9a33.2,33.2,0,1,0,33.2,33.2A33.25,33.25,0,0,0,215.7,206.9Zm0,64.8a31.6,31.6,0,1,1,31.6-31.6A31.67,31.67,0,0,1,215.7,271.7Z" fill="#fdd29d"/><path d="M163.5,266.7a2,2,0,0,1-2,2h-4v-2Z" fill="#ea631d" fill-rule="evenodd"/><path d="M311.7,266.7a2,2,0,0,1-2,2h-4v-2Z" fill="#ea631d" fill-rule="evenodd"/><path d="M300.7,280.7a2,2,0,0,1-2,2h-4.5a2,2,0,0,1-2-2v-12h-30a1.94,1.94,0,0,1-1.6-3.1l21.3-30.8,14.7-21.2a2.22,2.22,0,0,1,1.3-.8l-15.9,23-18.2,26.3a3.12,3.12,0,0,0-.2,3.1,2.58,2.58,0,0,0,2,1.5,1.48,1.48,0,0,0,.7.1h29v11a3.08,3.08,0,0,0,3,3Z" fill="#ea631d" fill-rule="evenodd"/><path d="M165.5,257.2h-8V211.7a3,3,0,0,0-3-3h-.4a3.13,3.13,0,0,0-2.5,1.3l-1.9,2.8-34.1,49.3a3.12,3.12,0,0,0-.2,3.1,2.92,2.92,0,0,0,2.7,1.6h29v11a3.08,3.08,0,0,0,3,3h4.5a3,3,0,0,0,3-3v-11H166a3,3,0,0,0,2.6-3v-3.5A3.11,3.11,0,0,0,165.5,257.2Zm2,6.5a2,2,0,0,1-2,2h-9v12a2,2,0,0,1-2,2H150a2,2,0,0,1-2-2v-12H118a2,2,0,0,1-1.8-1.1,2.24,2.24,0,0,1,.1-2.1l34.5-49.8,1.5-2.2a2.2,2.2,0,0,1,1.6-.9h.4a2,2,0,0,1,2,2v46.5h9a2,2,0,0,1,2,2v3.6Z" fill="#4d4d4d"/><path d="M152.5,280.7a2,2,0,0,1-2,2H146a2,2,0,0,1-2-2v-12H114a1.94,1.94,0,0,1-1.6-3.1l36-52a2.22,2.22,0,0,1,1.3-.8l-34.1,49.3a3.12,3.12,0,0,0-.2,3.1,2.92,2.92,0,0,0,2.7,1.6h29v11a3.08,3.08,0,0,0,3,3Z" fill="#ea631d"/><path d="M165.5,258.2h-9V211.7a2,2,0,0,0-2-2h-.4a1.7,1.7,0,0,0-1.6.9l-1.5,2.2-34.5,49.8a2.07,2.07,0,0,0,1.7,3.2h30v12a2,2,0,0,0,2,2h4.5a2,2,0,0,0,2-2v-12h9a2,2,0,0,0,2-2v-3.5A2.35,2.35,0,0,0,165.5,258.2Zm-17.5,0H131.9a2,2,0,0,1-1.8-1.1,2.24,2.24,0,0,1,.1-2.1l12.5-18.7,1.5-2.3a2,2,0,0,1,3.7,1.1Z" fill="#fde298"/><path d="M146.6,233.2a2.09,2.09,0,0,0-2.3.8l-1.5,2.3L130.3,255a2.22,2.22,0,0,0-.1,2.1,1.89,1.89,0,0,0,1.8,1.1h16.1v-23A2.27,2.27,0,0,0,146.6,233.2Zm-15.5,23.4a.77.77,0,0,1,.1-1l12.5-18.7,1.6-2.3a.91.91,0,0,1,.8-.4.37.37,0,0,1,.3.1,1,1,0,0,1,.7,1v22H132A1.11,1.11,0,0,1,131.1,256.6Z" fill="#4d4d4d"/><path d="M147,235.2v22h-3v-19a1.59,1.59,0,0,0-.4-1.2l1.6-2.3a.91.91,0,0,1,.8-.4.37.37,0,0,1,.3.1C146.7,234.3,147,234.6,147,235.2Z" fill="#ea631d"/><path d="M144,238.2v19H131.9a1.05,1.05,0,0,1-.9-.5.77.77,0,0,1,.1-1L143.6,237A2.14,2.14,0,0,1,144,238.2Z" fill="#fdd29d"/><path d="M313.7,258.2h-9V211.7a2,2,0,0,0-2-2h-.4a1.7,1.7,0,0,0-1.6.9l-1.5,2.2-17,24.6L271,253.6l-.6.8-5.7,8.2a2,2,0,0,0-.1,2.1,2.09,2.09,0,0,0,1.6,1.1h30.2v12a2,2,0,0,0,2,2h4.5a2,2,0,0,0,2-2v-12h9a2,2,0,0,0,2-2v-3.5A2.35,2.35,0,0,0,313.7,258.2Zm-17.5,0h-16a2.11,2.11,0,0,1-1.8-1.1,2.24,2.24,0,0,1,.1-2.1l1.1-1.6,1.7-2.5,9.8-14.6,1.5-2.3a1.82,1.82,0,0,1,2.2-.8,1.92,1.92,0,0,1,1.4,1.9v23.1Z" fill="#fde298"/><path d="M294.8,233.2a1.9,1.9,0,0,0-2.2.8l-1.5,2.3-9.8,14.6-1.7,2.5-1.1,1.6a2.22,2.22,0,0,0-.1,2.1,2.06,2.06,0,0,0,1.8,1.1h16v-23A2,2,0,0,0,294.8,233.2Zm-14.6,24a1.05,1.05,0,0,1-.9-.5.92.92,0,0,1,.1-1l1.4-2.2,11-16.5,1.6-2.4a.91.91,0,0,1,.8-.4h.3a1,1,0,0,1,.7,1v22Z" fill="#4d4d4d"/><path d="M295.2,235.2v22h-3v-19a1.59,1.59,0,0,0-.4-1.2l1.6-2.4a.91.91,0,0,1,.8-.4h.3A1,1,0,0,1,295.2,235.2Z" fill="#ea631d"/><path d="M292.2,238.2v19h-12a1.05,1.05,0,0,1-.9-.5.92.92,0,0,1,.1-1l1.4-2.2,11-16.5A1.59,1.59,0,0,1,292.2,238.2Z" fill="#fdd29d"/><path d="M215.7,208.6a31.6,31.6,0,1,0,31.6,31.6A31.67,31.67,0,0,0,215.7,208.6Zm0,62.1a30.6,30.6,0,1,1,30.6-30.6A30.6,30.6,0,0,1,215.7,270.7Z" fill="#4d4d4d"/><path d="M215.7,209.6a30.6,30.6,0,1,0,30.6,30.6A30.6,30.6,0,0,0,215.7,209.6Zm0,51.3a20.7,20.7,0,1,1,20.7-20.7A20.74,20.74,0,0,1,215.7,260.9Z" fill="#fde298"/><path d="M215.7,259.9A19.7,19.7,0,1,0,196,240.2,19.67,19.67,0,0,0,215.7,259.9Z" fill="#fdd29d"/></g></g></svg>