<svg xmlns="http://www.w3.org/2000/svg" viewBox="0 0 383 383.24">
            <path class="cls-1"
                  d="M0,95.06V89.82a31.88,31.88,0,0,0,2.24-3.65C12.77,62.58,23.45,39.05,33.65,15.32,36.78,8,41,2.47,48.65,0h286c5.9,2.2,10.67,5.57,13.34,11.61,11.41,25.83,23,51.6,34.3,77.46a9.75,9.75,0,0,1,.25,6.73c-7.76,20.47-15.76,40.84-23.7,61.24L345.12,192.1a47.56,47.56,0,0,1,2.58,4.55q17.42,39,34.65,78.12a9.25,9.25,0,0,1,.17,6.37q-17.24,45.14-34.8,90.14a18.22,18.22,0,0,1-17.34,11.94q-138.8,0-277.58,0a18.34,18.34,0,0,1-17.31-12q-14-36.18-28-72.37c-2.37-6.1-5-12.11-7.49-18.16v-5.24c3.26-6.92,6.64-13.8,9.77-20.78,9.52-21.2,18.94-42.44,28.44-63.73a50.49,50.49,0,0,1-2.75-5.28c-7.92-20.4-15.73-40.85-23.66-61.24C8,114.6,3.94,104.85,0,95.06ZM123.55,370.51v-5.22q0-24.53,0-49c0-5.06,3.47-8.17,7.8-7,3.72,1,4.78,3.93,4.78,7.52q-.06,24.88,0,49.78v3.81h111c0-15.89,0-31.47,0-47,0-5.11,2.32-8.1,6.23-8.15s6.34,2.92,6.34,8q0,21.7,0,43.41v3.86H278V325c0-1.12,0-2.25.06-3.37.37-4,2.91-6.5,6.42-6.4s5.94,2.69,6,6.75c.06,14.85,0,29.7,0,44.54v3.93h18.59v-4.35c0-14.72,0-29.44,0-44.16,0-4.05,2.44-6.63,6-6.71,3.35-.07,5.91,2.33,6.35,6.07a31,31,0,0,1,.1,3.74v45.7c2.87,0,5.11-.13,7.33,0,4.14.28,6.33-1.71,7.76-5.48,6.86-18,13.9-36,20.86-53.95,3.4-8.78,6.79-17.57,10.29-26.64H228.87c0,3.83,0,7.43,0,11-.18,11.72-7.88,19.45-19.5,19.51s-23.46.05-35.18,0c-11.92,0-19.65-7.72-19.8-19.59,0-3.59,0-7.18,0-10.94H15.77a6.92,6.92,0,0,0,.16,1.32c10.41,26.92,20.79,53.86,31.36,80.72a6.78,6.78,0,0,0,4.21,3.68c3.21.58,6.6.17,10.18.17v-4.87q0-23.94,0-47.9c0-5.94,2.08-8.7,6.39-8.65s6.08,2.63,6.09,8.43v52.81H92.74v-13c0-13.85,0-27.7,0-41.54,0-4.18,2.27-6.58,5.93-6.68s6.06,2.22,6.44,6.29c.1,1.12.06,2.25.06,3.37v51.71ZM278,184.92v-4.85q0-20.58,0-41.16a20,20,0,0,1,.38-4.45,5.63,5.63,0,0,1,6.32-4.64,5.72,5.72,0,0,1,5.66,5.45,35.92,35.92,0,0,1,.09,3.74q0,21,0,41.91v3.91h18.59v-3.25c0-15.09,0-30.18,0-45.28,0-3.75,2.45-6.36,5.79-6.57s6,2.23,6.51,5.91a27.4,27.4,0,0,1,.13,3.74v45.75c3.21,0,5.81,0,8.4,0,3.34.08,5.18-1.52,6.37-4.62q13.95-36.21,28.07-72.35c1.11-2.86,2.15-5.74,3.31-8.86H228.87c0,3.53,0,6.76,0,10-.05,12.83-7.68,20.55-20.43,20.61-11,0-21.95,0-32.93,0-13.59,0-21.11-7.51-21.14-21V99.24H15.71a12.24,12.24,0,0,0,.37,1.64q15.53,40.22,31.19,80.37c.59,1.51,2.39,3.31,3.86,3.54,3.35.53,6.84.16,10.55.16V133.33c0-1.12,0-2.25.06-3.37.38-4,3-6.49,6.45-6.38s5.93,2.71,5.94,6.77c.05,16.84,0,33.67,0,50.51v4H92.74v-4c0-16.84,0-33.68,0-50.52,0-4.09,2.38-6.66,5.91-6.79s6.07,2.4,6.45,6.36c.11,1.12.07,2.25.07,3.37v51.61h18.35V165.35c0-11.6,0-23.2,0-34.8,0-4.18,2.6-7,6.21-7s6.15,2.77,6.34,6.91c0,.87,0,1.75,0,2.62v51.72h111v-4.2q0-21.51,0-43c0-4.78,2.38-7.77,6.14-7.89s6.41,3,6.42,7.95q0,21.51,0,43v4.23ZM117.47,198.49a12.38,12.38,0,0,0-1.83-.34l-63.24,0c-3.1,0-4.65,1.81-5.8,4.41q-14.41,32.61-28.9,65.19c-.53,1.2-1,2.43-1.6,3.85h351c-.56-1.44-.95-2.58-1.44-3.68q-14.53-32.74-29.05-65.51c-1.42-3.22-3.65-4.32-7-4.3-14.1.1-28.19,0-42.29,0H265.78c0,6,0,11.47,0,16.93C265.7,227.4,258.05,235,245.62,235c-35.93,0-71.86-.18-107.78.12-10.73.09-21.2-7.6-20.42-20.59C117.73,209.2,117.47,203.85,117.47,198.49Zm148.31-186c0,6,0,11.59,0,17.17-.07,12.26-7.55,19.71-19.89,19.71q-54.25,0-108.51,0c-12.34,0-19.82-7.45-19.9-19.71,0-5.58,0-11.16,0-16.67a6.7,6.7,0,0,0-1.41-.44q-31.8,0-63.6,0c-2.83,0-4.53,1.55-5.65,4.09Q32.08,49.95,17.27,83.19a27.12,27.12,0,0,0-.88,2.72H367c-.61-1.49-1-2.63-1.54-3.74-9.45-21.26-19-42.47-28.26-63.81-1.89-4.37-4.41-5.94-9.06-5.9-19.33.19-38.66.08-58,.08Zm-12.6.33H130c0,5.15,0,10.11,0,15.06,0,7.54,1.44,9,8.9,9H244.39c1.12,0,2.25,0,3.36-.07,3.14-.3,5.26-2,5.37-5.18C253.33,25.48,253.18,19.27,253.18,12.87Zm0,185.67H130c0,5.41,0,10.51,0,15.61,0,6.48,1.78,8.24,8.16,8.24q40.19,0,80.38,0c9.35,0,18.69,0,28,0,3.93,0,6.43-1.77,6.56-5.15C253.34,211.05,253.16,204.85,253.16,198.54ZM167.28,99.35a5.51,5.51,0,0,0-.33,1.22c0,3.37-.11,6.74,0,10.1.12,4.09,2.41,6.69,6.47,6.74,12.09.15,24.19.11,36.29,0,3.35,0,6-1.75,6.4-5.14.45-4.24.11-8.58.11-13Zm-.35,185.16c0,4.3-.14,8.27,0,12.23.16,3.55,2.32,5.9,6,5.95,12.47.15,24.94.1,37.42,0,3.13,0,5.45-1.89,5.73-4.9.41-4.39.1-8.84.1-13.3Z"/>
</svg>