<svg xmlns="http://www.w3.org/2000/svg" viewBox="0 0 383.95 383.95">
    <g id="Layer_2" data-name="Layer 2">
        <g id="Layer_1-2" data-name="Layer 1">
            <path class="cls-1"
                  d="M384,343.46v21c-.81,2-1.51,4.13-2.46,6.1-3.62,7.5-10,11.35-17.79,13.4H62.24c-10.65-3.52-14.8-11.55-15.8-22.11-.79-8.31-2.2-16.56-3.33-24.84l-7.86-57.83q-3.9-28.74-7.81-57.46-4-29.1-7.94-58.2l-5.35-38.93c-7.38-.7-11.49-5.15-14.15-11.34V93.74c3.14-8.94,9.66-12,18.84-11.93,32.86.23,65.72.09,98.58.09h4.76V77.41c0-14.49,0-29,0-43.48,0-9.39,5-15.78,14.11-18.22,9.5-2.53,19-4.94,28.53-7.48C174.89,5.53,184.93,2.75,195,0h6.74a3.09,3.09,0,0,0,.63.41c9.75,3.19,14.56,9.36,14.4,18.45-.16,8.55-5.54,14.85-15.23,17.44q-19.65,5.25-39.4,10.21c-2.62.67-4,1.63-3.77,4.7.32,3.72.08,7.49.08,11.24V81.9h49.82c15.62,0,31.24,0,46.86,0,10.94,0,17,6.07,17,16.92,0,3,0,6,0,9,0,9-3.67,13.82-12.23,16.54-.86.27-2,1.16-2.14,1.9-1.11,7-2,14-3,21.14,6.46.36,12.55.59,18.62,1.06,21.25,1.63,41.53,6.85,60.35,17,21.63,11.66,38.24,28,45.92,51.92,2,6.34,2.91,13.06,4.31,19.6v18.75c-3,6.83-7.76,11.06-15.65,11a2.74,2.74,0,0,0-2,1.63c-.82,2.85-1.36,5.77-2,8.63a3.79,3.79,0,0,0,.65.5c9.36,3.94,15,10.68,15.19,21.07s-5.06,17.67-14.69,21.74c-.69.29-1.65,1.08-1.67,1.66-.13,4.68-.07,9.37-.07,14.14C371.57,336.58,380,334,384,343.46Zm-126.19-88h107.6c1.25,0,2.5,0,3.75-.06,2.34-.18,3.77-1.4,3.58-3.86-.62-8.19-.44-16.56-2.16-24.51-4.93-22.83-19.45-38.6-39.17-50-18.59-10.73-38.86-15.86-60.15-17.47-28-2.13-55.12,1.45-80.47,14-30.91,15.27-48.73,39.3-48.05,75,.13,6.53.39,6.89,7.1,6.89ZM25.52,124.68c5,37,10,73.51,15,110.13a12.7,12.7,0,0,0,1.87-.31q49.4-16.56,98.77-33.2a7,7,0,0,0,3.35-2.64c9.07-13.94,21.3-24.36,35.71-32.37,18.73-10.4,39-15.64,60.14-17.87,1.14-.12,3-1.23,3.11-2.1,1.16-7.11,2-14.27,2.93-21.64Zm111.09,90.07L42.12,246.44,53.92,333l81.77-28.36c-2-13.48,3.4-22.52,15.63-27.56-.87-3.42-1.72-6.75-2.58-10.16a7.84,7.84,0,0,0-1.47-.26c-9.33.31-16.11-6.39-15.87-17.14C131.67,238,132.39,226.61,136.61,214.75Zm236,132.67h-5q-51.89.16-103.77.33c-11.48,0-23-.29-34.44-.32-25.73-.05-51.46,0-77.2,0-9.55,0-9.55,0-9.54,9.55,0,11.15,4.57,15.75,15.63,15.75h199c1.25,0,2.5,0,3.75-.06,5.9-.51,11-5.11,11.49-11C373,357.12,372.64,352.5,372.64,347.42ZM135.75,113.26H255c4.89,0,5.88-1,5.92-5.89,0-2.25,0-4.5,0-6.75,0-6.82-.66-7.49-7.46-7.49H18.75c-1,0-2,0-3,0-3,.14-4.61,1.55-4.54,4.7s0,6,0,9c0,5.81.6,6.41,6.42,6.41ZM238.29,290.09a12.87,12.87,0,0,0-1.15.67c-12.37,8.93-24,9.15-36.21.39-2-1.46-3.09-.48-4.57.38-11.41,6.68-24.89,6.17-34.86-1.29-4.81-3.6-9.45-2.85-12.9,2.17-2.52,3.68-3,7.61-.91,11.64,2.31,4.38,6,6.44,11,6.44q98.91,0,197.83,0c.75,0,1.5,0,2.25,0a11.5,11.5,0,0,0,10.26-11c.13-5.84-4-10.93-9.54-11.52a5.63,5.63,0,0,0-3.67,1c-11.21,8.71-24.73,9.83-36.62,2.57-2.32-1.42-3.59-1-5.53.4-6.44,4.59-13.68,7-21.51,5-5.19-1.33-10.08-3.86-15.8-6.13C264.38,300,251.44,300,238.29,290.09ZM151.74,336.2c0-3.32-.18-6.17,0-9,.33-4,0-7.37-4.84-8.45a6.11,6.11,0,0,1-3.08-2c-1.8-2.19-3.7-1.79-6-1q-30.11,10.54-60.27,20.95l-22.19,7.7c1,7,1.81,13.69,3,20.3,1.06,6.07,3.62,8,9.69,8h67c-5-8.75-3.57-17.86-3.45-26.74.09-6.12,3.88-9.43,10.11-9.75C144.85,336.07,148,336.2,151.74,336.2Zm8.85-69.36c1.25,10.07,7.06,16.49,16.27,17.89,6.41,1,12-1.22,17-5.16,4.26-3.34,7.26-3.15,11.3.45,9.37,8.34,17.61,8.42,26.86.27,4.82-4.24,7.93-4.19,12.68.2,8.36,7.72,17.58,7.75,26,.08,5.11-4.62,7.94-4.59,13.21.17,8.29,7.47,17.48,7.43,25.79-.12,4.82-4.38,7.23-4.27,12.5-.77a31.77,31.77,0,0,0,10.39,4.71c11.07,2.46,22.56-7,21.78-17.72Zm2.56,69.07H352.22V322H163.15ZM147.2,81.7c0-12.56,0-24.67,0-36.77,0-4.88,1.18-6.31,6-7.56,15.27-4,30.56-8,45.84-12,4.94-1.29,7.39-4.82,6.35-8.93s-4.86-5.86-9.89-4.56q-27.83,7.19-55.62,14.41c-5,1.3-6.44,3.24-6.45,8.55q0,20.22,0,40.44v6.4Z"/>
            <path class="cls-1"
                  d="M257.67,211.49a5.69,5.69,0,0,1-5.62-5.76,5.91,5.91,0,0,1,5.66-5.44,5.69,5.69,0,0,1,5.52,5.86A5.45,5.45,0,0,1,257.67,211.49Z"/>
            <path class="cls-1"
                  d="M275.38,238.46a5.49,5.49,0,0,1-5.44-5.85,5.6,5.6,0,0,1,5.61-5.35,5.92,5.92,0,0,1,5.56,5.54A5.68,5.68,0,0,1,275.38,238.46Z"/>
            <path class="cls-1"
                  d="M186.47,211.46a5.62,5.62,0,0,1,.94-11.19,6,6,0,0,1,5.17,5.92A5.67,5.67,0,0,1,186.47,211.46Z"/>
            <path class="cls-1"
                  d="M346.33,238.46a5.71,5.71,0,0,1-5.81-5.6,5.82,5.82,0,0,1,5.47-5.6,5.65,5.65,0,0,1,5.72,5.65A5.5,5.5,0,0,1,346.33,238.46Z"/>
            <path class="cls-1" d="M227.93,206.45a5.61,5.61,0,0,1-11.17-1,5.61,5.61,0,1,1,11.17,1Z"/>
            <path class="cls-1"
                  d="M298.62,206a5.25,5.25,0,0,1-5.29,5.55,5.64,5.64,0,0,1-5.89-5.5,6,6,0,0,1,5.43-5.7A5.74,5.74,0,0,1,298.62,206Z"/>
            <path class="cls-1"
                  d="M169.22,238.45a5.68,5.68,0,0,1-5.51-5.85,5.83,5.83,0,0,1,5.72-5.34,5.6,5.6,0,0,1,5.38,5.93A5.41,5.41,0,0,1,169.22,238.45Z"/>
            <path class="cls-1" d="M316.43,233a5.6,5.6,0,1,1-5.72-5.71A5.74,5.74,0,0,1,316.43,233Z"/>
            <path class="cls-1"
                  d="M275.4,173.45a6,6,0,0,1,5.67,5.47,5.73,5.73,0,0,1-5.69,5.71,5.23,5.23,0,0,1-5.49-5.33A5.61,5.61,0,0,1,275.4,173.45Z"/>
            <path class="cls-1"
                  d="M245.71,233a5.62,5.62,0,0,1-5.92,5.42,5.46,5.46,0,0,1-5.19-5.69,5.59,5.59,0,0,1,5.43-5.5A5.87,5.87,0,0,1,245.71,233Z"/>
            <path class="cls-1"
                  d="M239.9,184.63a5.2,5.2,0,0,1-5.37-5.44,5.64,5.64,0,0,1,5.62-5.73,5.8,5.8,0,0,1,5.47,5.57A5.52,5.52,0,0,1,239.9,184.63Z"/>
            <path class="cls-1"
                  d="M334.07,206a5.36,5.36,0,0,1-5.36,5.52A5.43,5.43,0,0,1,323,206a5.73,5.73,0,0,1,5.33-5.67A5.91,5.91,0,0,1,334.07,206Z"/>
            <path class="cls-1"
                  d="M204.85,227.26a5.65,5.65,0,0,1,5.34,6,5.37,5.37,0,0,1-5.62,5.23,5.47,5.47,0,0,1-5.36-5.88A5.62,5.62,0,0,1,204.85,227.26Z"/>
        </g>
    </g>
</svg>