<svg xmlns="http://www.w3.org/2000/svg" viewBox="0 0 354.56 350.56">
    <g id="Layer_2" data-name="Layer 2">
        <g id="Layer_1-2" data-name="Layer 1">
            <path class="cls-1"
                  d="M178,0c42.83.71,82.46,12.89,116.53,40.77,27.57,22.54,45,51.59,53.77,85.93C359.14,169.35,356,211.12,338,251.22c-20.43,45.45-55.53,75.16-102.79,89.93-50.45,15.77-99.8,11.91-146.63-13C44,304.4,16.76,266.77,5.28,217.79c-9.38-40-6.38-79.33,9.91-117.08C35,54.83,70.13,25.45,117,9.73A188.77,188.77,0,0,1,178,0Zm-.85,337.56A170.74,170.74,0,0,0,227,330.61c48-14.24,83.61-43.11,102.7-90.05C345.42,201.8,346.43,162,334,122.07c-11.12-35.76-32.22-64.29-64.1-84-44.39-27.5-92.27-33.29-142.19-19.18C82,31.77,47.88,59.55,27.93,103.05,11.06,139.83,8,178.29,17.5,217.65c7.8,32.34,23.89,59.77,49.56,81.16C98.9,325.34,136.12,337,177.14,337.56Z"/>
            <path class="cls-1"
                  d="M176.73,58.42l23.73,2.25c.13-1.66.16-3.61.46-5.52.7-4.53,2.4-5.92,7-6,20-.34,34,9.12,41.69,27a63.06,63.06,0,0,0,14,20.39c15.44,15.35,23.73,34.61,27.16,55.86,4.72,29.24.12,57.07-14.32,83.06-8.91,16-21.15,28.93-37.22,38-2,1.15-2.94,2.44-2.66,4.71a21.29,21.29,0,0,1,0,3c0,10.29-4.72,16.72-13.63,18.7-9.37,2.08-16.67-1.67-21.34-11.16-3.58.5-7.25,1.44-10.92,1.44-10.55,0-21.11-.26-31.65-.69-2.18-.09-3,.79-4.13,2.28-7.36,10-22,12.28-31.15,4.64-5.55-4.63-8-11.17-8.42-18.16-.23-3.74-1.47-5.83-4.53-8-28.41-20-44.31-47.34-48.19-82-2.28-20.39-.27-40,7.64-58.94A113,113,0,0,1,95.57,92.16a8.61,8.61,0,0,0,2.3-5.39c.22-9.6.09-19.21.11-28.82,0-4.44,2.19-7.12,5.8-7.24s6.15,2.65,6.15,7.26c0,21.08.09,42.16-.07,63.24,0,6.72,1.24,12.45,7.17,16.62,2.71,1.9,4.92,4.59,7.14,7.11A22.64,22.64,0,0,1,130,161.05q-1.2,47.31-2.21,94.64c-.17,7.83-.37,15.7.17,23.5.46,6.64,3.92,9.57,9.38,9.42s9.56-4.18,10.11-10.11a70.31,70.31,0,0,0,0-8.21q-1.34-55.55-2.73-111.1a22.1,22.1,0,0,1,5.88-16,65.87,65.87,0,0,1,8.29-8.08c3.93-3,5.4-7,5.76-11.63.26-3.36.37-6.73.35-10.09q-.1-27.87-.31-55.74a27.26,27.26,0,0,1,0-3,5.89,5.89,0,0,1,6-5.45,5.76,5.76,0,0,1,5.88,5.55C176.67,55.94,176.68,57.17,176.73,58.42Zm-17,218.87c12.58,2.47,24.54,1.8,36.57,0,3.94-.59,4.54-2.36,4.54-5.88q-.15-96.51-.07-193a10.94,10.94,0,0,0-.08-3c-.23-.81-.9-2-1.52-2.12-7.33-1.09-14.68-2-22.53-3v4.93c0,16,.25,31.91-.21,47.84-.25,8.77-2.87,16.69-10.78,22.31-4.4,3.13-8.9,6.88-8.73,13.53.71,28.54,1.24,57.08,1.88,85.63C159,255.36,159.38,266.19,159.7,277.29ZM213.22,213c8.16-.7,15.89-.91,23.45-2.16,5.84-1,8.21-4.95,7.94-10.86-.2-4.35-.72-8.72-.6-13.06.45-16.82,1.14-33.63,1.65-50.45.42-13.72.21-27.43-2.49-40.95-1.64-8.24-4.1-16.2-9.42-22.92a28,28,0,0,0-20.53-10.95ZM98,107.37c-38.51,43.55-29.35,119.27,17.34,151.06.16-3,.39-5.84.45-8.66.59-26.81.64-53.64,2-80.41.54-10.78-2.54-18.53-11-24.72C100.28,139.9,98.1,133,98,125.31,97.91,119.59,98,113.87,98,107.37ZM236.84,260.09c51.14-32.17,57-112.54,21.21-150.6,0,6.66.11,13.86,0,21.06q-.64,36-1.42,72.09c-.2,9-6.93,17.46-15.86,20-1.3.38-2.63.67-3.91,1Zm-23.76-35.4c0,19.85,0,39.42.11,59a5.43,5.43,0,0,0,2.47,3.77c4.24,2.52,8.83-.2,8.84-5.13q.08-27.3,0-54.61c0-.94-.18-1.88-.3-3Z"/>
            <path class="cls-1"
                  d="M152,84.36c0,8.73,0,17.46,0,26.2,0,4.77-2.21,7.41-6,7.39s-6-2.75-6-7.43q0-26.2,0-52.39c0-4.62,2.36-7.43,6.07-7.42s5.93,2.71,5.95,7.46C152,66.9,152,75.63,152,84.36Z"/>
            <path class="cls-1"
                  d="M132.57,83.82c0,8.34,0,16.68,0,25,0,4.73-2.25,7.49-5.91,7.54s-6.16-3-6.16-7.74q0-25.22,0-50.42c0-4.63,2.31-7.45,6-7.51s6,2.66,6.08,7.34C132.61,66.64,132.57,75.23,132.57,83.82Z"/>
        </g>
    </g>
</svg>