<svg xmlns="http://www.w3.org/2000/svg" viewBox="0 0 439 439"><title>Asset 19</title><g id="Layer_2" data-name="Layer 2"><g id="Слой_1" data-name="Слой 1"><path d="M219.5,0C98.3,0,0,98.3,0,219.5S98.3,439,219.5,439,439,340.7,439,219.5,340.7,0,219.5,0ZM366.7,336.5a10,10,0,0,1-10,10H82.1a10,10,0,0,1-10-10V102.6a10,10,0,0,1,10-10H356.7a10,10,0,0,1,10,10V336.5Z" fill="#fff"/><path d="M366.2,147a2,2,0,0,1-1.4.6H74.2a2,2,0,0,1-2-2V336.5a10,10,0,0,0,10,10H356.8a10,10,0,0,0,10-10V145.6A2.59,2.59,0,0,1,366.2,147ZM189,214.4a3.83,3.83,0,0,1-2,3.3,5.24,5.24,0,0,1-3.3,4.3,5.75,5.75,0,0,1-4.8,0l-.1.1-.8-.6-.1-.1-.6-.4a25.15,25.15,0,0,0-6.4-3,28.15,28.15,0,0,0-8.5-1.2,23.23,23.23,0,0,0-11.8,3.2,26,26,0,0,0-7.5,6.9,29.15,29.15,0,0,0,.8,26.1,25.9,25.9,0,0,0,9.3,9.3,24.23,24.23,0,0,0,12.3,3.4,27.11,27.11,0,0,0,8.8-1.3,24.69,24.69,0,0,0,7.3-3.5,5,5,0,0,1,4.6-.4,4,4,0,0,1,2.7,3.7v1.7a3.8,3.8,0,0,1-1.5,3.2c-.2.1-.3.3-.5.4a5.68,5.68,0,0,1-1.8,3.4,31.46,31.46,0,0,1-9,5.2,41.09,41.09,0,0,1-13.6,2,38.93,38.93,0,0,1-14.5-2.7,37.19,37.19,0,0,1-11.7-7.9l-.1-.1a36.76,36.76,0,0,1-7.9-12.1,39.55,39.55,0,0,1-2.8-15.2,42.32,42.32,0,0,1,2.8-15.2,38.41,38.41,0,0,1,7.9-12.1,36.6,36.6,0,0,1,8.7-6.5,33.27,33.27,0,0,1,6.4-3.5,36.94,36.94,0,0,1,14.1-2.8,38.6,38.6,0,0,1,13.2,2,29.8,29.8,0,0,1,8.8,5,3.93,3.93,0,0,1,1.5,3.2ZM248.7,253a6,6,0,0,1-5.9,4.9h-12v11.3a5.12,5.12,0,0,1-2.1,4.2,6.25,6.25,0,0,1-12.4-1.2V257.9h-14a6,6,0,0,1-1.1-11.9,4.93,4.93,0,0,1,4.1-2.1h11V231.6a6.23,6.23,0,0,1,5-6.1,5.26,5.26,0,0,1,4.2-2.1,5.34,5.34,0,0,1,5.3,5.3V244h15a5,5,0,0,1,5,5A4.52,4.52,0,0,1,248.7,253Zm61.6,0a6,6,0,0,1-5.9,4.9h-12v11.3a5.12,5.12,0,0,1-2.1,4.2,6.25,6.25,0,0,1-12.4-1.2V257.9h-14a6,6,0,0,1-1.1-11.9,4.93,4.93,0,0,1,4.1-2.1h11V231.6a6.23,6.23,0,0,1,5-6.1,5.26,5.26,0,0,1,4.2-2.1,5.34,5.34,0,0,1,5.3,5.3V244h15a5,5,0,0,1,5,5A4.52,4.52,0,0,1,310.3,253Z" fill="#fde298"/><path d="M366.7,145.6a1.68,1.68,0,0,1-.6,1.4,2,2,0,0,1-1.4.6H74.1a2,2,0,0,1-2-2Z" fill="#4d4d4d"/><path d="M356.7,92.6H82.1a10,10,0,0,0-10,10v43H366.7v-43A10,10,0,0,0,356.7,92.6ZM94.5,129.2a7.8,7.8,0,0,1,0-15.6c4.3-.2,7.6,3.4,7.6,7.8A7.77,7.77,0,0,1,94.5,129.2Zm29.1,0a7.8,7.8,0,0,1,0-15.6c4.1-.2,7.6,3.4,7.6,7.8A7.71,7.71,0,0,1,123.6,129.2Zm29,0a7.8,7.8,0,0,1,0-15.6c4.1-.2,7.6,3.4,7.6,7.8A7.71,7.71,0,0,1,152.6,129.2Z" fill="#00697a"/><path d="M102,121.3a7.6,7.6,0,1,1-7.6-7.8C98.7,113.3,102,116.9,102,121.3Z" fill="#f85750"/><path d="M131.2,121.3a7.6,7.6,0,1,1-7.6-7.8C127.7,113.3,131.2,116.9,131.2,121.3Z" fill="#fff5e0"/><path d="M160.2,121.3a7.6,7.6,0,1,1-7.6-7.8C156.7,113.3,160.2,116.9,160.2,121.3Z" fill="#62b57f"/><path d="M310.3,253a6,6,0,0,1-5.9,4.9h-12v-4h15.5a2.66,2.66,0,0,0,1.2-.3A2.28,2.28,0,0,0,310.3,253Z" fill="#00697a"/><path d="M283,225.6a7.46,7.46,0,0,0-.7,1.2,2.77,2.77,0,0,0-.3,1.3V244h-4V231.7A6.21,6.21,0,0,1,283,225.6Z" fill="#00697a"/><path d="M248.7,253a6,6,0,0,1-5.9,4.9h-12v-4h15.5a2.66,2.66,0,0,0,1.2-.3A1.71,1.71,0,0,0,248.7,253Z" fill="#00697a"/><path d="M228.7,273.4a6.25,6.25,0,0,1-12.4-1.2V257.9h-14a6,6,0,0,1-1.1-11.9,3.38,3.38,0,0,0-.6,1.2l-.3,1.2v.5a5,5,0,0,0,5,5h15v15.3a5.34,5.34,0,0,0,5.3,5.3h.6l1.3-.3A12.49,12.49,0,0,0,228.7,273.4Z" fill="#00697a"/><path d="M221.5,225.6a7.46,7.46,0,0,0-.7,1.2,2.77,2.77,0,0,0-.3,1.3V244h-4V231.7A6,6,0,0,1,221.5,225.6Z" fill="#00697a"/><path d="M186.8,269.9a5.68,5.68,0,0,1-1.8,3.4,31.46,31.46,0,0,1-9,5.2,41.09,41.09,0,0,1-13.6,2,38.93,38.93,0,0,1-14.5-2.7,37.19,37.19,0,0,1-11.7-7.9l-.1-.1a36.76,36.76,0,0,1-7.9-12.1,39.55,39.55,0,0,1-2.8-15.2,42.32,42.32,0,0,1,2.8-15.2,38.41,38.41,0,0,1,7.9-12.1,36.6,36.6,0,0,1,8.7-6.5,28.56,28.56,0,0,0-5,4.2,16.61,16.61,0,0,0-1.3,1.4,35.78,35.78,0,0,0-4.7,6.8c-.6,1.1-1.1,2.3-1.6,3.4a39.78,39.78,0,0,0-2.8,14.8,37.88,37.88,0,0,0,2.8,14.8,35,35,0,0,0,7.7,11.8l.1.1a37.46,37.46,0,0,0,11.3,7.6,36.87,36.87,0,0,0,14.1,2.7,38.6,38.6,0,0,0,13.2-2,20.65,20.65,0,0,0,3.4-1.5,25,25,0,0,0,3.5-2.1A2,2,0,0,0,186.8,269.9Z" fill="#00697a"/><path d="M187,217.8a5.24,5.24,0,0,1-3.3,4.3,5.75,5.75,0,0,1-4.8,0l-.1.1-.8-.6-.1-.1-.6-.4a25.15,25.15,0,0,0-6.4-3,28.15,28.15,0,0,0-8.5-1.2,23.23,23.23,0,0,0-11.8,3.2,26,26,0,0,0-7.5,6.9,6.38,6.38,0,0,1,.8-1.4,27.58,27.58,0,0,1,2.8-3.9,22,22,0,0,1,4.5-4.1,13.73,13.73,0,0,1,2-1.3,24.23,24.23,0,0,1,12.3-3.4,27.11,27.11,0,0,1,8.8,1.3,25.89,25.89,0,0,1,6.9,3.3l.3.2.4.3a5,5,0,0,0,2.7.5,2,2,0,0,0,1.1-.3c.1,0,.3-.1.4-.1A9.44,9.44,0,0,0,187,217.8Z" fill="#00697a"/><path d="M290.2,273.4a6.25,6.25,0,0,1-12.4-1.2V257.9h-14a6,6,0,0,1-1.1-11.9,3.38,3.38,0,0,0-.6,1.2l-.3,1.2v.5a5,5,0,0,0,5,5h15v15.3a5.34,5.34,0,0,0,5.3,5.3h.6l1.3-.3A4.13,4.13,0,0,0,290.2,273.4Z" fill="#00697a"/><path d="M143.2,227.1a6.38,6.38,0,0,1,.8-1.4,27.58,27.58,0,0,1,2.8-3.9,22,22,0,0,1,4.5-4.1,13.73,13.73,0,0,1,2-1.3,24.23,24.23,0,0,1,12.3-3.4,27.11,27.11,0,0,1,8.8,1.3,25.89,25.89,0,0,1,6.9,3.3l.3.2.4.3a5,5,0,0,0,2.7.5,2,2,0,0,0,1.1-.3c.1,0,.3-.1.4-.1a2.51,2.51,0,0,0,.7-.4,3.87,3.87,0,0,0,2-3.3v-1.8a3.8,3.8,0,0,0-1.5-3.2,28.6,28.6,0,0,0-8.8-5,39,39,0,0,0-13.2-2,35.15,35.15,0,0,0-14.1,2.8,30.55,30.55,0,0,0-6.4,3.5,28.56,28.56,0,0,0-5,4.2,16.61,16.61,0,0,0-1.3,1.4,35.78,35.78,0,0,0-4.7,6.8c-.6,1.1-1.1,2.3-1.6,3.4a39.78,39.78,0,0,0-2.8,14.8,37.88,37.88,0,0,0,2.8,14.8A35,35,0,0,0,140,266l.1.1a37.46,37.46,0,0,0,11.3,7.6,36.87,36.87,0,0,0,14.1,2.7,38.6,38.6,0,0,0,13.2-2,20.65,20.65,0,0,0,3.4-1.5,25,25,0,0,0,3.5-2.1,14.63,14.63,0,0,1,1.3-.9c.2-.1.3-.3.5-.4a4.07,4.07,0,0,0,1.5-3.2v-1.7a4,4,0,0,0-2.7-3.7,4.66,4.66,0,0,0-4.6.4,29,29,0,0,1-7.3,3.5,30.12,30.12,0,0,1-8.8,1.3,23.29,23.29,0,0,1-12.3-3.4,26.71,26.71,0,0,1-9.3-9.3,27.21,27.21,0,0,1-3.5-13.8A27.72,27.72,0,0,1,143.2,227.1Zm-1-.5a28.64,28.64,0,0,0-2.1,5.8,31.94,31.94,0,0,0-.8,7,26.93,26.93,0,0,0,13.2,24,24.87,24.87,0,0,0,12.8,3.5,32.16,32.16,0,0,0,7.1-.8,11.69,11.69,0,0,0,2-.6,27.86,27.86,0,0,0,7-3.2c.2-.1.4-.3.6-.4a4.1,4.1,0,0,1,3.7-.3,3.07,3.07,0,0,1,2.1,2.8v1.7a3.26,3.26,0,0,1-1,2.3.35.35,0,0,1-.2.1c-.3.2-.6.5-.9.7a10.47,10.47,0,0,0-1.1.8,26.53,26.53,0,0,1-6.5,3.3,40.61,40.61,0,0,1-26.6-.7,35.1,35.1,0,0,1-11.1-7.5l-.1-.1a33.5,33.5,0,0,1-7.4-11.4,39.75,39.75,0,0,1,0-28.8,36.24,36.24,0,0,1,6.1-10,9.27,9.27,0,0,1,1.4-1.4,37.17,37.17,0,0,1,4.8-4.1,29.44,29.44,0,0,1,6.3-3.4l1.5-.6a35.15,35.15,0,0,1,12.2-2.1,37,37,0,0,1,12.9,1.9,30,30,0,0,1,8.5,4.8,3.25,3.25,0,0,1,1.1,2.5v1.8a2.81,2.81,0,0,1-1,2.1,2.07,2.07,0,0,1-1,.6h-.1l-.9.3a4.1,4.1,0,0,1-2.7-.4l-.1-.1-.4-.3a25.12,25.12,0,0,0-7.2-3.4,29,29,0,0,0-9.1-1.3,24.87,24.87,0,0,0-12.8,3.5,27.26,27.26,0,0,0-6.6,5.6,30.83,30.83,0,0,0-3,4.1A4.28,4.28,0,0,1,142.2,226.6Z" fill="#4d4d4d"/><path d="M307.5,244h-15V228.7a5.34,5.34,0,0,0-5.3-5.3,5.12,5.12,0,0,0-4.2,2.1,7.46,7.46,0,0,0-.7,1.2,2.77,2.77,0,0,0-.3,1.3v15.9H267a4.93,4.93,0,0,0-4.1,2.1,3.38,3.38,0,0,0-.6,1.2l-.3,1.2v.5a5,5,0,0,0,5,5h15v15.3a5.34,5.34,0,0,0,5.3,5.3h.6l1.3-.3a4.73,4.73,0,0,0,1.2-.7,5.12,5.12,0,0,0,2.1-4.2V254H308a2.66,2.66,0,0,0,1.2-.3,6.72,6.72,0,0,0,1.2-.6,4.93,4.93,0,0,0,2.1-4.1A5,5,0,0,0,307.5,244Zm2.8,7.6a3.92,3.92,0,0,1-1,.8,3.58,3.58,0,0,1-1.1.4,2.77,2.77,0,0,1-.9.1h-16v16.3a4.27,4.27,0,0,1-1,2.7,9,9,0,0,1-1,.9,3.7,3.7,0,0,1-1.1.5,3.75,3.75,0,0,1-1.1.1,4.33,4.33,0,0,1-4.3-4.3V252.8h-16a4,4,0,0,1-4-4,2.77,2.77,0,0,1,.1-.9,4.87,4.87,0,0,1,.4-1.1,2.72,2.72,0,0,1,.8-1,4,4,0,0,1,2.6-1h16V228.5a2,2,0,0,1,.2-1.1,3.7,3.7,0,0,1,.5-1.1,2.84,2.84,0,0,1,.9-1,4.27,4.27,0,0,1,2.7-1,4.33,4.33,0,0,1,4.3,4.3v16.3h16a4,4,0,0,1,4,4A2.77,2.77,0,0,1,310.3,251.6Z" fill="#4d4d4d"/><path d="M311.5,249a4.49,4.49,0,0,1-1,2.7,3.92,3.92,0,0,1-1,.8,3.58,3.58,0,0,1-1.1.4,2.77,2.77,0,0,1-.9.1h-16v16.3a4.27,4.27,0,0,1-1,2.7,9,9,0,0,1-1,.9,3.7,3.7,0,0,1-1.1.5,3.75,3.75,0,0,1-1.1.1,4.33,4.33,0,0,1-4.3-4.3V252.9H267a4,4,0,0,1-4-4,2.77,2.77,0,0,1,.1-.9,4.87,4.87,0,0,1,.4-1.1,2.72,2.72,0,0,1,.8-1,4,4,0,0,1,2.6-1h16V228.6a2,2,0,0,1,.2-1.1,3.7,3.7,0,0,1,.5-1.1,2.84,2.84,0,0,1,.9-1,4.27,4.27,0,0,1,2.7-1,4.33,4.33,0,0,1,4.3,4.3V245h16A4,4,0,0,1,311.5,249Z" fill="#fff5e0"/><path d="M245.8,244h-15V228.7a5.34,5.34,0,0,0-5.3-5.3,5.12,5.12,0,0,0-4.2,2.1,7.46,7.46,0,0,0-.7,1.2,2.77,2.77,0,0,0-.3,1.3v15.9h-15a4.93,4.93,0,0,0-4.1,2.1,3.38,3.38,0,0,0-.6,1.2l-.3,1.2v.5a5,5,0,0,0,5,5h15v15.3a5.34,5.34,0,0,0,5.3,5.3h.6l1.3-.3a4.73,4.73,0,0,0,1.2-.7,5.12,5.12,0,0,0,2.1-4.2V254h15.5a2.66,2.66,0,0,0,1.2-.3,6.72,6.72,0,0,0,1.2-.6,5,5,0,0,0-2.9-9.1Zm3,7.6a3.92,3.92,0,0,1-1,.8,3.58,3.58,0,0,1-1.1.4,2.77,2.77,0,0,1-.9.1h-16v16.3a4.27,4.27,0,0,1-1,2.7,9,9,0,0,1-1,.9,3.7,3.7,0,0,1-1.1.5,3.75,3.75,0,0,1-1.1.1,4.33,4.33,0,0,1-4.3-4.3V252.8h-16a4,4,0,0,1-4-4,2.77,2.77,0,0,1,.1-.9,4.87,4.87,0,0,1,.4-1.1,2.72,2.72,0,0,1,.8-1,4,4,0,0,1,2.6-1h16V228.5a3.75,3.75,0,0,1,.1-1.1,3.7,3.7,0,0,1,.5-1.1,2.84,2.84,0,0,1,.9-1,4.27,4.27,0,0,1,2.7-1,4.33,4.33,0,0,1,4.3,4.3v16.3h16a4,4,0,0,1,4,4A2.94,2.94,0,0,1,248.8,251.6Z" fill="#4d4d4d"/><path d="M249.8,249a4.49,4.49,0,0,1-1,2.7,3.92,3.92,0,0,1-1,.8,3.58,3.58,0,0,1-1.1.4,2.77,2.77,0,0,1-.9.1h-16v16.3a4.27,4.27,0,0,1-1,2.7,9,9,0,0,1-1,.9,3.7,3.7,0,0,1-1.1.5,3.75,3.75,0,0,1-1.1.1,4.33,4.33,0,0,1-4.3-4.3V252.9h-16a4,4,0,0,1-4-4,2.77,2.77,0,0,1,.1-.9,4.87,4.87,0,0,1,.4-1.1,2.72,2.72,0,0,1,.8-1,4,4,0,0,1,2.6-1h16V228.6a3.75,3.75,0,0,1,.1-1.1,3.7,3.7,0,0,1,.5-1.1,2.84,2.84,0,0,1,.9-1,4.27,4.27,0,0,1,2.7-1,4.33,4.33,0,0,1,4.3,4.3V245h16A3.91,3.91,0,0,1,249.8,249Z" fill="#fff5e0"/><path d="M140.2,232.4a31.94,31.94,0,0,0-.8,7,26.93,26.93,0,0,0,13.2,24,24.87,24.87,0,0,0,12.8,3.5,32.16,32.16,0,0,0,7.1-.8,11.69,11.69,0,0,0,2-.6,27.86,27.86,0,0,0,7-3.2c.2-.1.4-.3.6-.4a4.1,4.1,0,0,1,3.7-.3,3.07,3.07,0,0,1,2.1,2.8v1.7a3.26,3.26,0,0,1-1,2.3.35.35,0,0,1-.2.1c-.3.2-.6.5-.9.7a10.47,10.47,0,0,0-1.1.8,26.53,26.53,0,0,1-6.5,3.3,40.61,40.61,0,0,1-26.6-.7,35.1,35.1,0,0,1-11.1-7.5l-.1-.1a33.5,33.5,0,0,1-7.4-11.4,39.75,39.75,0,0,1,0-28.8,36.24,36.24,0,0,1,6.1-10,9.27,9.27,0,0,1,1.4-1.4,37.17,37.17,0,0,1,4.8-4.1,29.44,29.44,0,0,1,6.3-3.4l1.5-.6a35.15,35.15,0,0,1,12.2-2.1,37,37,0,0,1,12.9,1.9,30,30,0,0,1,8.5,4.8,3.25,3.25,0,0,1,1.1,2.5v1.8a2.81,2.81,0,0,1-1,2.1,2.07,2.07,0,0,1-1,.6h-.1l-.9.3a4.1,4.1,0,0,1-2.7-.4l-.1-.1-.4-.3a25.12,25.12,0,0,0-7.2-3.4,29,29,0,0,0-9.1-1.3,24.87,24.87,0,0,0-12.8,3.5,27.26,27.26,0,0,0-6.6,5.6,30.83,30.83,0,0,0-3,4.1c-.3.5-.5.9-.8,1.4A53,53,0,0,0,140.2,232.4Z" fill="#fff5e0"/></g></g></svg>