<svg xmlns="http://www.w3.org/2000/svg" viewBox="0 0 369.08 330.22">
    <path class="cls-1"
          d="M142.8,330.22H0V284.7c2.54-6.07,3.67-6.84,10.32-6.86,11.3,0,22.6,0,33.9,0,8.69,0,8.69,0,11.94-7.79A29.58,29.58,0,0,1,58,266c1.49-2.45.93-4.16-1.1-6.15-9.46-9.25-18.77-18.65-28.12-28-5.07-5.09-5.14-7.5-.05-12.65,16-16.17,32.11-32.23,48-48.5a10.53,10.53,0,0,0,2.76-6.46q.42-15.83,0-31.66a10.71,10.71,0,0,0-2.76-6.48c-7-7.35-14.4-14.21-21.23-21.65a14.2,14.2,0,0,1-3.56-8.54c-.33-17-.08-33.91-.22-50.86a11.55,11.55,0,0,1,3.87-9C66.38,25.57,77,15,87.77,4.49A57.08,57.08,0,0,1,93.71,0h1.78c4.71,1.8,6,5.38,6,10.17-.1,14.69.88,29.44-.11,44.05-.69,10.24,2.51,16.27,11.58,20.82,4.72,2.37,7.93,3.19,12.06-.32a45.15,45.15,0,0,1,8.26-5.21c2.53-1.34,3.4-3.05,3.37-6-.15-17.83.08-35.66-.18-53.48-.07-4.72,1.28-8,5.45-10h2.68a47.93,47.93,0,0,1,4.86,3.71c11.13,10.94,22.31,21.85,33.19,33a12.47,12.47,0,0,1,3.26,7.77q.44,25.88,0,51.75a13.59,13.59,0,0,1-3.51,8.13,246.34,246.34,0,0,1-19.87,19.84c-5,4.34-4.86,9.18-4.12,14.68h53.05c0-5.61-.05-10.94,0-16.26s2.26-7.58,7.53-7.68c3.66-.07,7.32,0,11.29,0,0-10.43-.49-20.26.16-30,.54-8.19-1.1-14.7-8.28-19.4-3.72-2.44-4.07-6-2.72-10.24,5.06-15.81,9.71-31.74,14.92-47.49,1-2.92,3.77-5.23,5.73-7.82H260.6c3.56,1.49,5.24,4.27,6.32,7.92,4,13.63,7.7,27.42,12.74,40.67,3.54,9.29,2.95,16.21-5.75,21.68-2.61,1.64-3.34,4.11-3.28,7.23.2,9.36.07,18.73.07,28.09s0,9.35,9.33,9.37c7.83,0,9.77,1.9,9.78,9.66,0,13.08-.13,26.16.14,39.23a11.08,11.08,0,0,0,2.86,6.87c16,16.39,32.15,32.57,48.24,48.84,4.66,4.72,4.6,7.28-.09,12-7.76,7.79-15.18,16-23.44,23.2-5.91,5.16-8.69,9.92-3.55,16.94a7.71,7.71,0,0,1,1.07,2.91c.59,2.66,2.23,3.3,4.83,3.28,12.93-.12,25.86-.07,38.79-.05,8.43,0,10.33,1.86,10.34,10.12,0,10.7-.12,21.41.07,32.11.08,4.09-.81,7.51-4.05,10.15H226.69c-3-2-4.44-4.58-4.64-8.44-1-20.39-17.31-35.49-37.76-35.38a37,37,0,0,0-36.91,35.81A9.56,9.56,0,0,1,142.8,330.22ZM87.5,180.9,42.19,226.24c9.32,9.32,19,19.17,28.9,28.81,3.56,3.47,3.83,6.84,1.77,11.19-2.84,6-5.32,12.22-7.69,18.44-2.08,5.46-3.59,6.83-9.44,6.87-9.81.06-19.63,0-29.44,0H14.34v24.86H82.58a102.81,102.81,0,0,1,91.89-94.93c23.94-2.32,46.33,3.07,66.41,16.59,27.84,18.75,42.79,45.28,46.07,78.46h68.19v-25h-5.07c-12.05,0-24.09,0-36.14,0-6.12,0-7.52-1.27-9.68-7.09-2.07-5.55-4.25-11.08-6.75-16.44-3.52-7.56-3.52-8.5,2.32-14.34l27.65-27.6-45.4-45.36c-9.48,9.5-19.39,19.35-29.17,29.31-3.13,3.18-6.17,3.85-10.35,1.87-6.55-3.09-13.31-5.78-20.08-8.35-3.84-1.46-5.73-3.75-5.69-8,.11-12.64,0-25.28,0-37.92v-4.81H152.64v5c0,12.5-.07,25,0,37.48,0,4.36-1.82,6.78-5.91,8.23-5.86,2.07-11.65,4.38-17.3,7-8.25,3.81-8.36,3.93-14.94-2.64Zm.07-156.23L86.39,24c-6.19,6.39-12.5,12.68-18.5,19.24a10.15,10.15,0,0,0-2.57,6.1q-.33,21.2,0,42.39a9.94,9.94,0,0,0,2.62,6.07q10.45,11,21.41,21.49a12,12,0,0,1,3.89,9.48c-.13,11.75-.17,23.51.07,35.25a10.05,10.05,0,0,0,2.57,6.14c7.28,7.64,14.85,15,22.32,22.48,5.46,5.46,5.46,5.45,12.81,2.38a32.07,32.07,0,0,1,5-1.88c2.69-.63,3.33-2.17,3.3-4.79q-.2-20.31,0-40.61c0-2,.26-5,1.48-5.72,5-2.94,4-7.47,3.73-11.69-.36-4.87,1.25-8.44,4.81-11.78,7-6.6,13.85-13.49,20.49-20.51a10.1,10.1,0,0,0,2.51-6.14c.28-8.77.15-17.55.11-26.33,0-6.68,1.65-14.12-.73-19.84S162.84,36,158.13,31.23c-2.42-2.44-4.91-4.82-8.18-8,0,16.24-.1,31.09.07,45.93a9.17,9.17,0,0,1-4.85,8.76c-7.23,4.39-14.36,8.95-21.49,13.52a8.06,8.06,0,0,1-9.55,0c-4.73-3.07-9.55-6-14.29-9C86.06,73.48,88,77.54,87.63,60.19,87.34,48.36,87.57,36.51,87.57,24.67ZM273.39,316.79c-3.58-31.24-17.87-55.31-44.88-70.31-31.1-17.26-62.74-16.16-92.61,3.15C112,265.05,99.32,288,96.05,316.78c12.58,0,24.44.07,36.3-.15.84,0,2.13-2.05,2.4-3.32,5.08-24.34,27-41.83,51.61-41,23.38.78,43.35,17.87,48.4,41.24.27,1.24,1.94,3.1,3,3.12C249.33,316.88,260.91,316.79,273.39,316.79ZM224.92,128.65c.26,5-1.76,10.1,3.83,13.4,1.14.67,1.4,3.48,1.43,5.32.13,10.1,0,20.21.07,30.31,0,4.6-1.41,10.15.66,13.52,1.91,3.11,7.73,3.69,11.64,5.74,2.49,1.3,3.92.61,5.68-1.21,5.46-5.66,10.65-11.74,16.78-16.6,9.06-7.19,12.78-15.73,11.37-27.29-.93-7.56-.18-15.32-.18-23.19Zm32.25-13.93c0-13.94.12-27.44-.07-40.94-.07-4.53,1.07-8.12,4.8-10.82,1.32-1,2.36-2.28,3.66-3.26,2.09-1.57,2.3-3.23,1.48-5.76-3.93-12.1-7.72-24.25-11.26-36.47-.93-3.17-2.61-3.66-5.45-3.66s-4.18.72-5,3.61C242.07,28.5,238.72,39.55,235,50.47,233.31,55.32,233.11,59,238,62c4.77,2.91,5.93,7.46,5.75,13-.37,11.57-.11,23.17-.11,34.75v5Z"/>
</svg>